M48
; DRILL file {KiCad 8.0.8} date 2025-07-18T12:30:33-0400
; FORMAT={-:-/ absolute / inch / decimal}
; #@! TF.CreationDate,2025-07-18T12:30:33-04:00
; #@! TF.GenerationSoftware,Kicad,Pcbnew,8.0.8
; #@! TF.FileFunction,Plated,1,2,PTH
FMAT,2
INCH
; #@! TA.AperFunction,Plated,PTH,ViaDrill
T1C0.0157
; #@! TA.AperFunction,Plated,PTH,ComponentDrill
T2C0.0236
; #@! TA.AperFunction,Plated,PTH,ComponentDrill
T3C0.0300
; #@! TA.AperFunction,Plated,PTH,ComponentDrill
T4C0.0315
; #@! TA.AperFunction,Plated,PTH,ComponentDrill
T5C0.0354
; #@! TA.AperFunction,Plated,PTH,ComponentDrill
T6C0.0394
%
G90
G05
T1
X5.5015Y-3.658
X5.622Y-3.3268
X5.7598Y-3.2323
X5.8174Y-4.3428
X5.8181Y-3.2242
X5.8303Y-4.2482
X6.1969Y-4.0118
X6.1982Y-3.0099
X6.2994Y-3.6023
X6.301Y-3.1262
X6.4572Y-3.3809
X6.4661Y-3.2446
X6.5024Y-3.9727
X6.5472Y-4.1417
X6.6572Y-5.0766
T2
X6.1034Y-2.9331
X6.1822Y-2.9331
T3
X5.4765Y-5.7216
X5.5765Y-5.7216
X5.6765Y-5.7216
X5.7765Y-5.7216
X6.478Y-4.0551
X6.478Y-5.4551
X6.678Y-5.4551
X6.878Y-4.0551
X6.878Y-5.4551
T4
X6.0913Y-3.7362
X6.1913Y-3.7362
X6.2913Y-3.7362
T5
X5.5876Y-3.7441
X5.6876Y-3.7441
T6
X5.4783Y-2.8805
X5.4783Y-2.9805
X5.5118Y-4.5276
X5.5118Y-4.6276
X5.5783Y-2.8805
X5.5783Y-2.9805
X5.6783Y-2.8805
X5.6783Y-2.9805
X5.6846Y-4.0256
X5.6846Y-4.1256
X5.6846Y-4.2256
X5.6846Y-4.3256
X5.6846Y-4.4256
X5.6846Y-4.5256
X5.6846Y-4.6256
X5.6846Y-4.7256
X5.6846Y-4.8256
X5.6846Y-4.9256
X5.6846Y-5.0256
X5.6846Y-5.1256
X5.6846Y-5.2256
X5.6846Y-5.3256
X5.6846Y-5.4256
X5.7783Y-2.8805
X5.7783Y-2.9805
X6.0701Y-5.811
X6.1701Y-5.811
X6.2701Y-5.811
X6.2846Y-4.0256
X6.2846Y-4.1256
X6.2846Y-4.2256
X6.2846Y-4.3256
X6.2846Y-4.4256
X6.2846Y-4.5256
X6.2846Y-4.6256
X6.2846Y-4.7256
X6.2846Y-4.8256
X6.2846Y-4.9256
X6.2846Y-5.0256
X6.2846Y-5.1256
X6.2846Y-5.2256
X6.2846Y-5.3256
X6.2846Y-5.4256
X6.3701Y-5.811
X6.622Y-5.7451
X6.7205Y-5.7451
X6.8189Y-5.7451
M30
