%TF.GenerationSoftware,KiCad,Pcbnew,8.0.8*%
%TF.CreationDate,2025-06-04T16:10:56-04:00*%
%TF.ProjectId,main_board,6d61696e-5f62-46f6-9172-642e6b696361,rev?*%
%TF.SameCoordinates,Original*%
%TF.FileFunction,Legend,Top*%
%TF.FilePolarity,Positive*%
%FSLAX46Y46*%
G04 Gerber Fmt 4.6, Leading zero omitted, Abs format (unit mm)*
G04 Created by KiCad (PCBNEW 8.0.8) date 2025-06-04 16:10:56*
%MOMM*%
%LPD*%
G01*
G04 APERTURE LIST*
%ADD10C,0.150000*%
%ADD11C,0.120000*%
%ADD12C,0.200000*%
G04 APERTURE END LIST*
D10*
X142357142Y-98454819D02*
X141880952Y-98454819D01*
X141880952Y-98454819D02*
X141880952Y-97454819D01*
X142690476Y-97931009D02*
X143023809Y-97931009D01*
X143166666Y-98454819D02*
X142690476Y-98454819D01*
X142690476Y-98454819D02*
X142690476Y-97454819D01*
X142690476Y-97454819D02*
X143166666Y-97454819D01*
X143595238Y-98454819D02*
X143595238Y-97454819D01*
X143595238Y-97454819D02*
X143833333Y-97454819D01*
X143833333Y-97454819D02*
X143976190Y-97502438D01*
X143976190Y-97502438D02*
X144071428Y-97597676D01*
X144071428Y-97597676D02*
X144119047Y-97692914D01*
X144119047Y-97692914D02*
X144166666Y-97883390D01*
X144166666Y-97883390D02*
X144166666Y-98026247D01*
X144166666Y-98026247D02*
X144119047Y-98216723D01*
X144119047Y-98216723D02*
X144071428Y-98311961D01*
X144071428Y-98311961D02*
X143976190Y-98407200D01*
X143976190Y-98407200D02*
X143833333Y-98454819D01*
X143833333Y-98454819D02*
X143595238Y-98454819D01*
X152880952Y-92454819D02*
X153071428Y-92454819D01*
X153071428Y-92454819D02*
X153166666Y-92502438D01*
X153166666Y-92502438D02*
X153261904Y-92597676D01*
X153261904Y-92597676D02*
X153309523Y-92788152D01*
X153309523Y-92788152D02*
X153309523Y-93121485D01*
X153309523Y-93121485D02*
X153261904Y-93311961D01*
X153261904Y-93311961D02*
X153166666Y-93407200D01*
X153166666Y-93407200D02*
X153071428Y-93454819D01*
X153071428Y-93454819D02*
X152880952Y-93454819D01*
X152880952Y-93454819D02*
X152785714Y-93407200D01*
X152785714Y-93407200D02*
X152690476Y-93311961D01*
X152690476Y-93311961D02*
X152642857Y-93121485D01*
X152642857Y-93121485D02*
X152642857Y-92788152D01*
X152642857Y-92788152D02*
X152690476Y-92597676D01*
X152690476Y-92597676D02*
X152785714Y-92502438D01*
X152785714Y-92502438D02*
X152880952Y-92454819D01*
X153738095Y-93454819D02*
X153738095Y-92454819D01*
X153738095Y-92454819D02*
X154309523Y-93454819D01*
X154309523Y-93454819D02*
X154309523Y-92454819D01*
X175454819Y-131380951D02*
X174454819Y-131380951D01*
X175454819Y-130904761D02*
X174454819Y-130904761D01*
X174454819Y-130904761D02*
X175454819Y-130333333D01*
X175454819Y-130333333D02*
X174454819Y-130333333D01*
X175169104Y-129904761D02*
X175169104Y-129428571D01*
X175454819Y-129999999D02*
X174454819Y-129666666D01*
X174454819Y-129666666D02*
X175454819Y-129333333D01*
X174550057Y-129047618D02*
X174502438Y-128999999D01*
X174502438Y-128999999D02*
X174454819Y-128904761D01*
X174454819Y-128904761D02*
X174454819Y-128666666D01*
X174454819Y-128666666D02*
X174502438Y-128571428D01*
X174502438Y-128571428D02*
X174550057Y-128523809D01*
X174550057Y-128523809D02*
X174645295Y-128476190D01*
X174645295Y-128476190D02*
X174740533Y-128476190D01*
X174740533Y-128476190D02*
X174883390Y-128523809D01*
X174883390Y-128523809D02*
X175454819Y-129095237D01*
X175454819Y-129095237D02*
X175454819Y-128476190D01*
X175454819Y-127523809D02*
X175454819Y-128095237D01*
X175454819Y-127809523D02*
X174454819Y-127809523D01*
X174454819Y-127809523D02*
X174597676Y-127904761D01*
X174597676Y-127904761D02*
X174692914Y-127999999D01*
X174692914Y-127999999D02*
X174740533Y-128095237D01*
X175454819Y-127047618D02*
X175454819Y-126857142D01*
X175454819Y-126857142D02*
X175407200Y-126761904D01*
X175407200Y-126761904D02*
X175359580Y-126714285D01*
X175359580Y-126714285D02*
X175216723Y-126619047D01*
X175216723Y-126619047D02*
X175026247Y-126571428D01*
X175026247Y-126571428D02*
X174645295Y-126571428D01*
X174645295Y-126571428D02*
X174550057Y-126619047D01*
X174550057Y-126619047D02*
X174502438Y-126666666D01*
X174502438Y-126666666D02*
X174454819Y-126761904D01*
X174454819Y-126761904D02*
X174454819Y-126952380D01*
X174454819Y-126952380D02*
X174502438Y-127047618D01*
X174502438Y-127047618D02*
X174550057Y-127095237D01*
X174550057Y-127095237D02*
X174645295Y-127142856D01*
X174645295Y-127142856D02*
X174883390Y-127142856D01*
X174883390Y-127142856D02*
X174978628Y-127095237D01*
X174978628Y-127095237D02*
X175026247Y-127047618D01*
X175026247Y-127047618D02*
X175073866Y-126952380D01*
X175073866Y-126952380D02*
X175073866Y-126761904D01*
X175073866Y-126761904D02*
X175026247Y-126666666D01*
X175026247Y-126666666D02*
X174978628Y-126619047D01*
X174978628Y-126619047D02*
X174883390Y-126571428D01*
X168045180Y-94738094D02*
X168045180Y-94261904D01*
X168045180Y-94261904D02*
X167568990Y-94214285D01*
X167568990Y-94214285D02*
X167616609Y-94261904D01*
X167616609Y-94261904D02*
X167664228Y-94357142D01*
X167664228Y-94357142D02*
X167664228Y-94595237D01*
X167664228Y-94595237D02*
X167616609Y-94690475D01*
X167616609Y-94690475D02*
X167568990Y-94738094D01*
X167568990Y-94738094D02*
X167473752Y-94785713D01*
X167473752Y-94785713D02*
X167235657Y-94785713D01*
X167235657Y-94785713D02*
X167140419Y-94738094D01*
X167140419Y-94738094D02*
X167092800Y-94690475D01*
X167092800Y-94690475D02*
X167045180Y-94595237D01*
X167045180Y-94595237D02*
X167045180Y-94357142D01*
X167045180Y-94357142D02*
X167092800Y-94261904D01*
X167092800Y-94261904D02*
X167140419Y-94214285D01*
X168045180Y-95071428D02*
X167045180Y-95404761D01*
X167045180Y-95404761D02*
X168045180Y-95738094D01*
X167045180Y-96833333D02*
X167711847Y-96833333D01*
X167521371Y-96833333D02*
X167616609Y-96880952D01*
X167616609Y-96880952D02*
X167664228Y-96928571D01*
X167664228Y-96928571D02*
X167711847Y-97023809D01*
X167711847Y-97023809D02*
X167711847Y-97119047D01*
X167092800Y-97833333D02*
X167045180Y-97738095D01*
X167045180Y-97738095D02*
X167045180Y-97547619D01*
X167045180Y-97547619D02*
X167092800Y-97452381D01*
X167092800Y-97452381D02*
X167188038Y-97404762D01*
X167188038Y-97404762D02*
X167568990Y-97404762D01*
X167568990Y-97404762D02*
X167664228Y-97452381D01*
X167664228Y-97452381D02*
X167711847Y-97547619D01*
X167711847Y-97547619D02*
X167711847Y-97738095D01*
X167711847Y-97738095D02*
X167664228Y-97833333D01*
X167664228Y-97833333D02*
X167568990Y-97880952D01*
X167568990Y-97880952D02*
X167473752Y-97880952D01*
X167473752Y-97880952D02*
X167378514Y-97404762D01*
X167711847Y-98738095D02*
X166902323Y-98738095D01*
X166902323Y-98738095D02*
X166807085Y-98690476D01*
X166807085Y-98690476D02*
X166759466Y-98642857D01*
X166759466Y-98642857D02*
X166711847Y-98547619D01*
X166711847Y-98547619D02*
X166711847Y-98404762D01*
X166711847Y-98404762D02*
X166759466Y-98309524D01*
X167092800Y-98738095D02*
X167045180Y-98642857D01*
X167045180Y-98642857D02*
X167045180Y-98452381D01*
X167045180Y-98452381D02*
X167092800Y-98357143D01*
X167092800Y-98357143D02*
X167140419Y-98309524D01*
X167140419Y-98309524D02*
X167235657Y-98261905D01*
X167235657Y-98261905D02*
X167521371Y-98261905D01*
X167521371Y-98261905D02*
X167616609Y-98309524D01*
X167616609Y-98309524D02*
X167664228Y-98357143D01*
X167664228Y-98357143D02*
X167711847Y-98452381D01*
X167711847Y-98452381D02*
X167711847Y-98642857D01*
X167711847Y-98642857D02*
X167664228Y-98738095D01*
D11*
X152920000Y-146325000D02*
X163080000Y-146325000D01*
X163080000Y-148865000D01*
X152920000Y-148865000D01*
X152920000Y-146325000D01*
D12*
X140029100Y-140666665D02*
X140091004Y-140480951D01*
X140091004Y-140480951D02*
X140091004Y-140171427D01*
X140091004Y-140171427D02*
X140029100Y-140047618D01*
X140029100Y-140047618D02*
X139967195Y-139985713D01*
X139967195Y-139985713D02*
X139843385Y-139923808D01*
X139843385Y-139923808D02*
X139719576Y-139923808D01*
X139719576Y-139923808D02*
X139595766Y-139985713D01*
X139595766Y-139985713D02*
X139533861Y-140047618D01*
X139533861Y-140047618D02*
X139471957Y-140171427D01*
X139471957Y-140171427D02*
X139410052Y-140419046D01*
X139410052Y-140419046D02*
X139348147Y-140542856D01*
X139348147Y-140542856D02*
X139286242Y-140604761D01*
X139286242Y-140604761D02*
X139162433Y-140666665D01*
X139162433Y-140666665D02*
X139038623Y-140666665D01*
X139038623Y-140666665D02*
X138914814Y-140604761D01*
X138914814Y-140604761D02*
X138852909Y-140542856D01*
X138852909Y-140542856D02*
X138791004Y-140419046D01*
X138791004Y-140419046D02*
X138791004Y-140109523D01*
X138791004Y-140109523D02*
X138852909Y-139923808D01*
X139224338Y-139552380D02*
X139224338Y-139057142D01*
X138791004Y-139366666D02*
X139905290Y-139366666D01*
X139905290Y-139366666D02*
X140029100Y-139304761D01*
X140029100Y-139304761D02*
X140091004Y-139180951D01*
X140091004Y-139180951D02*
X140091004Y-139057142D01*
X140091004Y-138066666D02*
X139410052Y-138066666D01*
X139410052Y-138066666D02*
X139286242Y-138128571D01*
X139286242Y-138128571D02*
X139224338Y-138252380D01*
X139224338Y-138252380D02*
X139224338Y-138499999D01*
X139224338Y-138499999D02*
X139286242Y-138623809D01*
X140029100Y-138066666D02*
X140091004Y-138190475D01*
X140091004Y-138190475D02*
X140091004Y-138499999D01*
X140091004Y-138499999D02*
X140029100Y-138623809D01*
X140029100Y-138623809D02*
X139905290Y-138685713D01*
X139905290Y-138685713D02*
X139781480Y-138685713D01*
X139781480Y-138685713D02*
X139657671Y-138623809D01*
X139657671Y-138623809D02*
X139595766Y-138499999D01*
X139595766Y-138499999D02*
X139595766Y-138190475D01*
X139595766Y-138190475D02*
X139533861Y-138066666D01*
X139224338Y-136890476D02*
X140276719Y-136890476D01*
X140276719Y-136890476D02*
X140400528Y-136952381D01*
X140400528Y-136952381D02*
X140462433Y-137014285D01*
X140462433Y-137014285D02*
X140524338Y-137138095D01*
X140524338Y-137138095D02*
X140524338Y-137323809D01*
X140524338Y-137323809D02*
X140462433Y-137447619D01*
X140029100Y-136890476D02*
X140091004Y-137014285D01*
X140091004Y-137014285D02*
X140091004Y-137261904D01*
X140091004Y-137261904D02*
X140029100Y-137385714D01*
X140029100Y-137385714D02*
X139967195Y-137447619D01*
X139967195Y-137447619D02*
X139843385Y-137509523D01*
X139843385Y-137509523D02*
X139471957Y-137509523D01*
X139471957Y-137509523D02*
X139348147Y-137447619D01*
X139348147Y-137447619D02*
X139286242Y-137385714D01*
X139286242Y-137385714D02*
X139224338Y-137261904D01*
X139224338Y-137261904D02*
X139224338Y-137014285D01*
X139224338Y-137014285D02*
X139286242Y-136890476D01*
X140029100Y-135776191D02*
X140091004Y-135900000D01*
X140091004Y-135900000D02*
X140091004Y-136147619D01*
X140091004Y-136147619D02*
X140029100Y-136271429D01*
X140029100Y-136271429D02*
X139905290Y-136333333D01*
X139905290Y-136333333D02*
X139410052Y-136333333D01*
X139410052Y-136333333D02*
X139286242Y-136271429D01*
X139286242Y-136271429D02*
X139224338Y-136147619D01*
X139224338Y-136147619D02*
X139224338Y-135900000D01*
X139224338Y-135900000D02*
X139286242Y-135776191D01*
X139286242Y-135776191D02*
X139410052Y-135714286D01*
X139410052Y-135714286D02*
X139533861Y-135714286D01*
X139533861Y-135714286D02*
X139657671Y-136333333D01*
X140091004Y-134166667D02*
X138791004Y-134166667D01*
X139410052Y-134166667D02*
X139410052Y-133423810D01*
X140091004Y-133423810D02*
X138791004Y-133423810D01*
X140029100Y-132309524D02*
X140091004Y-132433333D01*
X140091004Y-132433333D02*
X140091004Y-132680952D01*
X140091004Y-132680952D02*
X140029100Y-132804762D01*
X140029100Y-132804762D02*
X139905290Y-132866666D01*
X139905290Y-132866666D02*
X139410052Y-132866666D01*
X139410052Y-132866666D02*
X139286242Y-132804762D01*
X139286242Y-132804762D02*
X139224338Y-132680952D01*
X139224338Y-132680952D02*
X139224338Y-132433333D01*
X139224338Y-132433333D02*
X139286242Y-132309524D01*
X139286242Y-132309524D02*
X139410052Y-132247619D01*
X139410052Y-132247619D02*
X139533861Y-132247619D01*
X139533861Y-132247619D02*
X139657671Y-132866666D01*
X140091004Y-131690476D02*
X139224338Y-131690476D01*
X138791004Y-131690476D02*
X138852909Y-131752380D01*
X138852909Y-131752380D02*
X138914814Y-131690476D01*
X138914814Y-131690476D02*
X138852909Y-131628571D01*
X138852909Y-131628571D02*
X138791004Y-131690476D01*
X138791004Y-131690476D02*
X138914814Y-131690476D01*
X139224338Y-130514285D02*
X140276719Y-130514285D01*
X140276719Y-130514285D02*
X140400528Y-130576190D01*
X140400528Y-130576190D02*
X140462433Y-130638094D01*
X140462433Y-130638094D02*
X140524338Y-130761904D01*
X140524338Y-130761904D02*
X140524338Y-130947618D01*
X140524338Y-130947618D02*
X140462433Y-131071428D01*
X140029100Y-130514285D02*
X140091004Y-130638094D01*
X140091004Y-130638094D02*
X140091004Y-130885713D01*
X140091004Y-130885713D02*
X140029100Y-131009523D01*
X140029100Y-131009523D02*
X139967195Y-131071428D01*
X139967195Y-131071428D02*
X139843385Y-131133332D01*
X139843385Y-131133332D02*
X139471957Y-131133332D01*
X139471957Y-131133332D02*
X139348147Y-131071428D01*
X139348147Y-131071428D02*
X139286242Y-131009523D01*
X139286242Y-131009523D02*
X139224338Y-130885713D01*
X139224338Y-130885713D02*
X139224338Y-130638094D01*
X139224338Y-130638094D02*
X139286242Y-130514285D01*
X140091004Y-129895238D02*
X138791004Y-129895238D01*
X140091004Y-129338095D02*
X139410052Y-129338095D01*
X139410052Y-129338095D02*
X139286242Y-129400000D01*
X139286242Y-129400000D02*
X139224338Y-129523809D01*
X139224338Y-129523809D02*
X139224338Y-129709523D01*
X139224338Y-129709523D02*
X139286242Y-129833333D01*
X139286242Y-129833333D02*
X139348147Y-129895238D01*
X139224338Y-128904762D02*
X139224338Y-128409524D01*
X138791004Y-128719048D02*
X139905290Y-128719048D01*
X139905290Y-128719048D02*
X140029100Y-128657143D01*
X140029100Y-128657143D02*
X140091004Y-128533333D01*
X140091004Y-128533333D02*
X140091004Y-128409524D01*
X138791004Y-127171429D02*
X140091004Y-126738096D01*
X140091004Y-126738096D02*
X138791004Y-126304762D01*
X138791004Y-125623810D02*
X138791004Y-125500000D01*
X138791004Y-125500000D02*
X138852909Y-125376191D01*
X138852909Y-125376191D02*
X138914814Y-125314286D01*
X138914814Y-125314286D02*
X139038623Y-125252381D01*
X139038623Y-125252381D02*
X139286242Y-125190476D01*
X139286242Y-125190476D02*
X139595766Y-125190476D01*
X139595766Y-125190476D02*
X139843385Y-125252381D01*
X139843385Y-125252381D02*
X139967195Y-125314286D01*
X139967195Y-125314286D02*
X140029100Y-125376191D01*
X140029100Y-125376191D02*
X140091004Y-125500000D01*
X140091004Y-125500000D02*
X140091004Y-125623810D01*
X140091004Y-125623810D02*
X140029100Y-125747619D01*
X140029100Y-125747619D02*
X139967195Y-125809524D01*
X139967195Y-125809524D02*
X139843385Y-125871429D01*
X139843385Y-125871429D02*
X139595766Y-125933333D01*
X139595766Y-125933333D02*
X139286242Y-125933333D01*
X139286242Y-125933333D02*
X139038623Y-125871429D01*
X139038623Y-125871429D02*
X138914814Y-125809524D01*
X138914814Y-125809524D02*
X138852909Y-125747619D01*
X138852909Y-125747619D02*
X138791004Y-125623810D01*
X139967195Y-124633334D02*
X140029100Y-124571429D01*
X140029100Y-124571429D02*
X140091004Y-124633334D01*
X140091004Y-124633334D02*
X140029100Y-124695238D01*
X140029100Y-124695238D02*
X139967195Y-124633334D01*
X139967195Y-124633334D02*
X140091004Y-124633334D01*
X138791004Y-123395238D02*
X138791004Y-124014286D01*
X138791004Y-124014286D02*
X139410052Y-124076190D01*
X139410052Y-124076190D02*
X139348147Y-124014286D01*
X139348147Y-124014286D02*
X139286242Y-123890476D01*
X139286242Y-123890476D02*
X139286242Y-123580952D01*
X139286242Y-123580952D02*
X139348147Y-123457143D01*
X139348147Y-123457143D02*
X139410052Y-123395238D01*
X139410052Y-123395238D02*
X139533861Y-123333333D01*
X139533861Y-123333333D02*
X139843385Y-123333333D01*
X139843385Y-123333333D02*
X139967195Y-123395238D01*
X139967195Y-123395238D02*
X140029100Y-123457143D01*
X140029100Y-123457143D02*
X140091004Y-123580952D01*
X140091004Y-123580952D02*
X140091004Y-123890476D01*
X140091004Y-123890476D02*
X140029100Y-124014286D01*
X140029100Y-124014286D02*
X139967195Y-124076190D01*
D10*
X152169104Y-119357142D02*
X152169104Y-118880952D01*
X152454819Y-119452380D02*
X151454819Y-119119047D01*
X151454819Y-119119047D02*
X152454819Y-118785714D01*
X152454819Y-118452380D02*
X151788152Y-118452380D01*
X151978628Y-118452380D02*
X151883390Y-118404761D01*
X151883390Y-118404761D02*
X151835771Y-118357142D01*
X151835771Y-118357142D02*
X151788152Y-118261904D01*
X151788152Y-118261904D02*
X151788152Y-118166666D01*
X152454819Y-117404761D02*
X151454819Y-117404761D01*
X152407200Y-117404761D02*
X152454819Y-117499999D01*
X152454819Y-117499999D02*
X152454819Y-117690475D01*
X152454819Y-117690475D02*
X152407200Y-117785713D01*
X152407200Y-117785713D02*
X152359580Y-117833332D01*
X152359580Y-117833332D02*
X152264342Y-117880951D01*
X152264342Y-117880951D02*
X151978628Y-117880951D01*
X151978628Y-117880951D02*
X151883390Y-117833332D01*
X151883390Y-117833332D02*
X151835771Y-117785713D01*
X151835771Y-117785713D02*
X151788152Y-117690475D01*
X151788152Y-117690475D02*
X151788152Y-117499999D01*
X151788152Y-117499999D02*
X151835771Y-117404761D01*
X151788152Y-116499999D02*
X152454819Y-116499999D01*
X151788152Y-116928570D02*
X152311961Y-116928570D01*
X152311961Y-116928570D02*
X152407200Y-116880951D01*
X152407200Y-116880951D02*
X152454819Y-116785713D01*
X152454819Y-116785713D02*
X152454819Y-116642856D01*
X152454819Y-116642856D02*
X152407200Y-116547618D01*
X152407200Y-116547618D02*
X152359580Y-116499999D01*
X152454819Y-116023808D02*
X151788152Y-116023808D01*
X151454819Y-116023808D02*
X151502438Y-116071427D01*
X151502438Y-116071427D02*
X151550057Y-116023808D01*
X151550057Y-116023808D02*
X151502438Y-115976189D01*
X151502438Y-115976189D02*
X151454819Y-116023808D01*
X151454819Y-116023808D02*
X151550057Y-116023808D01*
X151788152Y-115547618D02*
X152454819Y-115547618D01*
X151883390Y-115547618D02*
X151835771Y-115499999D01*
X151835771Y-115499999D02*
X151788152Y-115404761D01*
X151788152Y-115404761D02*
X151788152Y-115261904D01*
X151788152Y-115261904D02*
X151835771Y-115166666D01*
X151835771Y-115166666D02*
X151931009Y-115119047D01*
X151931009Y-115119047D02*
X152454819Y-115119047D01*
X152454819Y-114499999D02*
X152407200Y-114595237D01*
X152407200Y-114595237D02*
X152359580Y-114642856D01*
X152359580Y-114642856D02*
X152264342Y-114690475D01*
X152264342Y-114690475D02*
X151978628Y-114690475D01*
X151978628Y-114690475D02*
X151883390Y-114642856D01*
X151883390Y-114642856D02*
X151835771Y-114595237D01*
X151835771Y-114595237D02*
X151788152Y-114499999D01*
X151788152Y-114499999D02*
X151788152Y-114357142D01*
X151788152Y-114357142D02*
X151835771Y-114261904D01*
X151835771Y-114261904D02*
X151883390Y-114214285D01*
X151883390Y-114214285D02*
X151978628Y-114166666D01*
X151978628Y-114166666D02*
X152264342Y-114166666D01*
X152264342Y-114166666D02*
X152359580Y-114214285D01*
X152359580Y-114214285D02*
X152407200Y-114261904D01*
X152407200Y-114261904D02*
X152454819Y-114357142D01*
X152454819Y-114357142D02*
X152454819Y-114499999D01*
X152454819Y-112976189D02*
X151454819Y-112976189D01*
X151454819Y-112976189D02*
X152454819Y-112404761D01*
X152454819Y-112404761D02*
X151454819Y-112404761D01*
X152454819Y-111499999D02*
X151931009Y-111499999D01*
X151931009Y-111499999D02*
X151835771Y-111547618D01*
X151835771Y-111547618D02*
X151788152Y-111642856D01*
X151788152Y-111642856D02*
X151788152Y-111833332D01*
X151788152Y-111833332D02*
X151835771Y-111928570D01*
X152407200Y-111499999D02*
X152454819Y-111595237D01*
X152454819Y-111595237D02*
X152454819Y-111833332D01*
X152454819Y-111833332D02*
X152407200Y-111928570D01*
X152407200Y-111928570D02*
X152311961Y-111976189D01*
X152311961Y-111976189D02*
X152216723Y-111976189D01*
X152216723Y-111976189D02*
X152121485Y-111928570D01*
X152121485Y-111928570D02*
X152073866Y-111833332D01*
X152073866Y-111833332D02*
X152073866Y-111595237D01*
X152073866Y-111595237D02*
X152026247Y-111499999D01*
X151788152Y-111023808D02*
X152454819Y-111023808D01*
X151883390Y-111023808D02*
X151835771Y-110976189D01*
X151835771Y-110976189D02*
X151788152Y-110880951D01*
X151788152Y-110880951D02*
X151788152Y-110738094D01*
X151788152Y-110738094D02*
X151835771Y-110642856D01*
X151835771Y-110642856D02*
X151931009Y-110595237D01*
X151931009Y-110595237D02*
X152454819Y-110595237D01*
X152454819Y-109976189D02*
X152407200Y-110071427D01*
X152407200Y-110071427D02*
X152359580Y-110119046D01*
X152359580Y-110119046D02*
X152264342Y-110166665D01*
X152264342Y-110166665D02*
X151978628Y-110166665D01*
X151978628Y-110166665D02*
X151883390Y-110119046D01*
X151883390Y-110119046D02*
X151835771Y-110071427D01*
X151835771Y-110071427D02*
X151788152Y-109976189D01*
X151788152Y-109976189D02*
X151788152Y-109833332D01*
X151788152Y-109833332D02*
X151835771Y-109738094D01*
X151835771Y-109738094D02*
X151883390Y-109690475D01*
X151883390Y-109690475D02*
X151978628Y-109642856D01*
X151978628Y-109642856D02*
X152264342Y-109642856D01*
X152264342Y-109642856D02*
X152359580Y-109690475D01*
X152359580Y-109690475D02*
X152407200Y-109738094D01*
X152407200Y-109738094D02*
X152454819Y-109833332D01*
X152454819Y-109833332D02*
X152454819Y-109976189D01*
X144545180Y-87142856D02*
X145545180Y-87142856D01*
X145545180Y-87142856D02*
X145545180Y-86904761D01*
X145545180Y-86904761D02*
X145497561Y-86761904D01*
X145497561Y-86761904D02*
X145402323Y-86666666D01*
X145402323Y-86666666D02*
X145307085Y-86619047D01*
X145307085Y-86619047D02*
X145116609Y-86571428D01*
X145116609Y-86571428D02*
X144973752Y-86571428D01*
X144973752Y-86571428D02*
X144783276Y-86619047D01*
X144783276Y-86619047D02*
X144688038Y-86666666D01*
X144688038Y-86666666D02*
X144592800Y-86761904D01*
X144592800Y-86761904D02*
X144545180Y-86904761D01*
X144545180Y-86904761D02*
X144545180Y-87142856D01*
X144592800Y-86190475D02*
X144545180Y-86047618D01*
X144545180Y-86047618D02*
X144545180Y-85809523D01*
X144545180Y-85809523D02*
X144592800Y-85714285D01*
X144592800Y-85714285D02*
X144640419Y-85666666D01*
X144640419Y-85666666D02*
X144735657Y-85619047D01*
X144735657Y-85619047D02*
X144830895Y-85619047D01*
X144830895Y-85619047D02*
X144926133Y-85666666D01*
X144926133Y-85666666D02*
X144973752Y-85714285D01*
X144973752Y-85714285D02*
X145021371Y-85809523D01*
X145021371Y-85809523D02*
X145068990Y-85999999D01*
X145068990Y-85999999D02*
X145116609Y-86095237D01*
X145116609Y-86095237D02*
X145164228Y-86142856D01*
X145164228Y-86142856D02*
X145259466Y-86190475D01*
X145259466Y-86190475D02*
X145354704Y-86190475D01*
X145354704Y-86190475D02*
X145449942Y-86142856D01*
X145449942Y-86142856D02*
X145497561Y-86095237D01*
X145497561Y-86095237D02*
X145545180Y-85999999D01*
X145545180Y-85999999D02*
X145545180Y-85761904D01*
X145545180Y-85761904D02*
X145497561Y-85619047D01*
X145545180Y-85285713D02*
X145545180Y-84666666D01*
X145545180Y-84666666D02*
X145164228Y-84999999D01*
X145164228Y-84999999D02*
X145164228Y-84857142D01*
X145164228Y-84857142D02*
X145116609Y-84761904D01*
X145116609Y-84761904D02*
X145068990Y-84714285D01*
X145068990Y-84714285D02*
X144973752Y-84666666D01*
X144973752Y-84666666D02*
X144735657Y-84666666D01*
X144735657Y-84666666D02*
X144640419Y-84714285D01*
X144640419Y-84714285D02*
X144592800Y-84761904D01*
X144592800Y-84761904D02*
X144545180Y-84857142D01*
X144545180Y-84857142D02*
X144545180Y-85142856D01*
X144545180Y-85142856D02*
X144592800Y-85238094D01*
X144592800Y-85238094D02*
X144640419Y-85285713D01*
X145449942Y-84285713D02*
X145497561Y-84238094D01*
X145497561Y-84238094D02*
X145545180Y-84142856D01*
X145545180Y-84142856D02*
X145545180Y-83904761D01*
X145545180Y-83904761D02*
X145497561Y-83809523D01*
X145497561Y-83809523D02*
X145449942Y-83761904D01*
X145449942Y-83761904D02*
X145354704Y-83714285D01*
X145354704Y-83714285D02*
X145259466Y-83714285D01*
X145259466Y-83714285D02*
X145116609Y-83761904D01*
X145116609Y-83761904D02*
X144545180Y-84333332D01*
X144545180Y-84333332D02*
X144545180Y-83714285D01*
X145545180Y-83380951D02*
X145545180Y-82761904D01*
X145545180Y-82761904D02*
X145164228Y-83095237D01*
X145164228Y-83095237D02*
X145164228Y-82952380D01*
X145164228Y-82952380D02*
X145116609Y-82857142D01*
X145116609Y-82857142D02*
X145068990Y-82809523D01*
X145068990Y-82809523D02*
X144973752Y-82761904D01*
X144973752Y-82761904D02*
X144735657Y-82761904D01*
X144735657Y-82761904D02*
X144640419Y-82809523D01*
X144640419Y-82809523D02*
X144592800Y-82857142D01*
X144592800Y-82857142D02*
X144545180Y-82952380D01*
X144545180Y-82952380D02*
X144545180Y-83238094D01*
X144545180Y-83238094D02*
X144592800Y-83333332D01*
X144592800Y-83333332D02*
X144640419Y-83380951D01*
X144545180Y-81809523D02*
X144545180Y-82380951D01*
X144545180Y-82095237D02*
X145545180Y-82095237D01*
X145545180Y-82095237D02*
X145402323Y-82190475D01*
X145402323Y-82190475D02*
X145307085Y-82285713D01*
X145307085Y-82285713D02*
X145259466Y-82380951D01*
X164459580Y-109566666D02*
X164507200Y-109614285D01*
X164507200Y-109614285D02*
X164554819Y-109757142D01*
X164554819Y-109757142D02*
X164554819Y-109852380D01*
X164554819Y-109852380D02*
X164507200Y-109995237D01*
X164507200Y-109995237D02*
X164411961Y-110090475D01*
X164411961Y-110090475D02*
X164316723Y-110138094D01*
X164316723Y-110138094D02*
X164126247Y-110185713D01*
X164126247Y-110185713D02*
X163983390Y-110185713D01*
X163983390Y-110185713D02*
X163792914Y-110138094D01*
X163792914Y-110138094D02*
X163697676Y-110090475D01*
X163697676Y-110090475D02*
X163602438Y-109995237D01*
X163602438Y-109995237D02*
X163554819Y-109852380D01*
X163554819Y-109852380D02*
X163554819Y-109757142D01*
X163554819Y-109757142D02*
X163602438Y-109614285D01*
X163602438Y-109614285D02*
X163650057Y-109566666D01*
X164554819Y-108614285D02*
X164554819Y-109185713D01*
X164554819Y-108899999D02*
X163554819Y-108899999D01*
X163554819Y-108899999D02*
X163697676Y-108995237D01*
X163697676Y-108995237D02*
X163792914Y-109090475D01*
X163792914Y-109090475D02*
X163840533Y-109185713D01*
X165669833Y-131688580D02*
X165622214Y-131736200D01*
X165622214Y-131736200D02*
X165479357Y-131783819D01*
X165479357Y-131783819D02*
X165384119Y-131783819D01*
X165384119Y-131783819D02*
X165241262Y-131736200D01*
X165241262Y-131736200D02*
X165146024Y-131640961D01*
X165146024Y-131640961D02*
X165098405Y-131545723D01*
X165098405Y-131545723D02*
X165050786Y-131355247D01*
X165050786Y-131355247D02*
X165050786Y-131212390D01*
X165050786Y-131212390D02*
X165098405Y-131021914D01*
X165098405Y-131021914D02*
X165146024Y-130926676D01*
X165146024Y-130926676D02*
X165241262Y-130831438D01*
X165241262Y-130831438D02*
X165384119Y-130783819D01*
X165384119Y-130783819D02*
X165479357Y-130783819D01*
X165479357Y-130783819D02*
X165622214Y-130831438D01*
X165622214Y-130831438D02*
X165669833Y-130879057D01*
X166050786Y-130879057D02*
X166098405Y-130831438D01*
X166098405Y-130831438D02*
X166193643Y-130783819D01*
X166193643Y-130783819D02*
X166431738Y-130783819D01*
X166431738Y-130783819D02*
X166526976Y-130831438D01*
X166526976Y-130831438D02*
X166574595Y-130879057D01*
X166574595Y-130879057D02*
X166622214Y-130974295D01*
X166622214Y-130974295D02*
X166622214Y-131069533D01*
X166622214Y-131069533D02*
X166574595Y-131212390D01*
X166574595Y-131212390D02*
X166003167Y-131783819D01*
X166003167Y-131783819D02*
X166622214Y-131783819D01*
X177179580Y-98166666D02*
X177227200Y-98214285D01*
X177227200Y-98214285D02*
X177274819Y-98357142D01*
X177274819Y-98357142D02*
X177274819Y-98452380D01*
X177274819Y-98452380D02*
X177227200Y-98595237D01*
X177227200Y-98595237D02*
X177131961Y-98690475D01*
X177131961Y-98690475D02*
X177036723Y-98738094D01*
X177036723Y-98738094D02*
X176846247Y-98785713D01*
X176846247Y-98785713D02*
X176703390Y-98785713D01*
X176703390Y-98785713D02*
X176512914Y-98738094D01*
X176512914Y-98738094D02*
X176417676Y-98690475D01*
X176417676Y-98690475D02*
X176322438Y-98595237D01*
X176322438Y-98595237D02*
X176274819Y-98452380D01*
X176274819Y-98452380D02*
X176274819Y-98357142D01*
X176274819Y-98357142D02*
X176322438Y-98214285D01*
X176322438Y-98214285D02*
X176370057Y-98166666D01*
X176274819Y-97833332D02*
X176274819Y-97214285D01*
X176274819Y-97214285D02*
X176655771Y-97547618D01*
X176655771Y-97547618D02*
X176655771Y-97404761D01*
X176655771Y-97404761D02*
X176703390Y-97309523D01*
X176703390Y-97309523D02*
X176751009Y-97261904D01*
X176751009Y-97261904D02*
X176846247Y-97214285D01*
X176846247Y-97214285D02*
X177084342Y-97214285D01*
X177084342Y-97214285D02*
X177179580Y-97261904D01*
X177179580Y-97261904D02*
X177227200Y-97309523D01*
X177227200Y-97309523D02*
X177274819Y-97404761D01*
X177274819Y-97404761D02*
X177274819Y-97690475D01*
X177274819Y-97690475D02*
X177227200Y-97785713D01*
X177227200Y-97785713D02*
X177179580Y-97833332D01*
X168179580Y-109866666D02*
X168227200Y-109914285D01*
X168227200Y-109914285D02*
X168274819Y-110057142D01*
X168274819Y-110057142D02*
X168274819Y-110152380D01*
X168274819Y-110152380D02*
X168227200Y-110295237D01*
X168227200Y-110295237D02*
X168131961Y-110390475D01*
X168131961Y-110390475D02*
X168036723Y-110438094D01*
X168036723Y-110438094D02*
X167846247Y-110485713D01*
X167846247Y-110485713D02*
X167703390Y-110485713D01*
X167703390Y-110485713D02*
X167512914Y-110438094D01*
X167512914Y-110438094D02*
X167417676Y-110390475D01*
X167417676Y-110390475D02*
X167322438Y-110295237D01*
X167322438Y-110295237D02*
X167274819Y-110152380D01*
X167274819Y-110152380D02*
X167274819Y-110057142D01*
X167274819Y-110057142D02*
X167322438Y-109914285D01*
X167322438Y-109914285D02*
X167370057Y-109866666D01*
X167608152Y-109009523D02*
X168274819Y-109009523D01*
X167227200Y-109247618D02*
X167941485Y-109485713D01*
X167941485Y-109485713D02*
X167941485Y-108866666D01*
X142456905Y-92594819D02*
X142456905Y-91594819D01*
X142456905Y-91594819D02*
X142695000Y-91594819D01*
X142695000Y-91594819D02*
X142837857Y-91642438D01*
X142837857Y-91642438D02*
X142933095Y-91737676D01*
X142933095Y-91737676D02*
X142980714Y-91832914D01*
X142980714Y-91832914D02*
X143028333Y-92023390D01*
X143028333Y-92023390D02*
X143028333Y-92166247D01*
X143028333Y-92166247D02*
X142980714Y-92356723D01*
X142980714Y-92356723D02*
X142933095Y-92451961D01*
X142933095Y-92451961D02*
X142837857Y-92547200D01*
X142837857Y-92547200D02*
X142695000Y-92594819D01*
X142695000Y-92594819D02*
X142456905Y-92594819D01*
X143409286Y-91690057D02*
X143456905Y-91642438D01*
X143456905Y-91642438D02*
X143552143Y-91594819D01*
X143552143Y-91594819D02*
X143790238Y-91594819D01*
X143790238Y-91594819D02*
X143885476Y-91642438D01*
X143885476Y-91642438D02*
X143933095Y-91690057D01*
X143933095Y-91690057D02*
X143980714Y-91785295D01*
X143980714Y-91785295D02*
X143980714Y-91880533D01*
X143980714Y-91880533D02*
X143933095Y-92023390D01*
X143933095Y-92023390D02*
X143361667Y-92594819D01*
X143361667Y-92594819D02*
X143980714Y-92594819D01*
X148754819Y-93166666D02*
X148278628Y-93499999D01*
X148754819Y-93738094D02*
X147754819Y-93738094D01*
X147754819Y-93738094D02*
X147754819Y-93357142D01*
X147754819Y-93357142D02*
X147802438Y-93261904D01*
X147802438Y-93261904D02*
X147850057Y-93214285D01*
X147850057Y-93214285D02*
X147945295Y-93166666D01*
X147945295Y-93166666D02*
X148088152Y-93166666D01*
X148088152Y-93166666D02*
X148183390Y-93214285D01*
X148183390Y-93214285D02*
X148231009Y-93261904D01*
X148231009Y-93261904D02*
X148278628Y-93357142D01*
X148278628Y-93357142D02*
X148278628Y-93738094D01*
X148754819Y-92214285D02*
X148754819Y-92785713D01*
X148754819Y-92499999D02*
X147754819Y-92499999D01*
X147754819Y-92499999D02*
X147897676Y-92595237D01*
X147897676Y-92595237D02*
X147992914Y-92690475D01*
X147992914Y-92690475D02*
X148040533Y-92785713D01*
X165733333Y-122420319D02*
X165400000Y-121944128D01*
X165161905Y-122420319D02*
X165161905Y-121420319D01*
X165161905Y-121420319D02*
X165542857Y-121420319D01*
X165542857Y-121420319D02*
X165638095Y-121467938D01*
X165638095Y-121467938D02*
X165685714Y-121515557D01*
X165685714Y-121515557D02*
X165733333Y-121610795D01*
X165733333Y-121610795D02*
X165733333Y-121753652D01*
X165733333Y-121753652D02*
X165685714Y-121848890D01*
X165685714Y-121848890D02*
X165638095Y-121896509D01*
X165638095Y-121896509D02*
X165542857Y-121944128D01*
X165542857Y-121944128D02*
X165161905Y-121944128D01*
X166114286Y-121515557D02*
X166161905Y-121467938D01*
X166161905Y-121467938D02*
X166257143Y-121420319D01*
X166257143Y-121420319D02*
X166495238Y-121420319D01*
X166495238Y-121420319D02*
X166590476Y-121467938D01*
X166590476Y-121467938D02*
X166638095Y-121515557D01*
X166638095Y-121515557D02*
X166685714Y-121610795D01*
X166685714Y-121610795D02*
X166685714Y-121706033D01*
X166685714Y-121706033D02*
X166638095Y-121848890D01*
X166638095Y-121848890D02*
X166066667Y-122420319D01*
X166066667Y-122420319D02*
X166685714Y-122420319D01*
X155756819Y-85039666D02*
X155280628Y-85372999D01*
X155756819Y-85611094D02*
X154756819Y-85611094D01*
X154756819Y-85611094D02*
X154756819Y-85230142D01*
X154756819Y-85230142D02*
X154804438Y-85134904D01*
X154804438Y-85134904D02*
X154852057Y-85087285D01*
X154852057Y-85087285D02*
X154947295Y-85039666D01*
X154947295Y-85039666D02*
X155090152Y-85039666D01*
X155090152Y-85039666D02*
X155185390Y-85087285D01*
X155185390Y-85087285D02*
X155233009Y-85134904D01*
X155233009Y-85134904D02*
X155280628Y-85230142D01*
X155280628Y-85230142D02*
X155280628Y-85611094D01*
X154756819Y-84706332D02*
X154756819Y-84087285D01*
X154756819Y-84087285D02*
X155137771Y-84420618D01*
X155137771Y-84420618D02*
X155137771Y-84277761D01*
X155137771Y-84277761D02*
X155185390Y-84182523D01*
X155185390Y-84182523D02*
X155233009Y-84134904D01*
X155233009Y-84134904D02*
X155328247Y-84087285D01*
X155328247Y-84087285D02*
X155566342Y-84087285D01*
X155566342Y-84087285D02*
X155661580Y-84134904D01*
X155661580Y-84134904D02*
X155709200Y-84182523D01*
X155709200Y-84182523D02*
X155756819Y-84277761D01*
X155756819Y-84277761D02*
X155756819Y-84563475D01*
X155756819Y-84563475D02*
X155709200Y-84658713D01*
X155709200Y-84658713D02*
X155661580Y-84706332D01*
X150833333Y-89454819D02*
X150500000Y-88978628D01*
X150261905Y-89454819D02*
X150261905Y-88454819D01*
X150261905Y-88454819D02*
X150642857Y-88454819D01*
X150642857Y-88454819D02*
X150738095Y-88502438D01*
X150738095Y-88502438D02*
X150785714Y-88550057D01*
X150785714Y-88550057D02*
X150833333Y-88645295D01*
X150833333Y-88645295D02*
X150833333Y-88788152D01*
X150833333Y-88788152D02*
X150785714Y-88883390D01*
X150785714Y-88883390D02*
X150738095Y-88931009D01*
X150738095Y-88931009D02*
X150642857Y-88978628D01*
X150642857Y-88978628D02*
X150261905Y-88978628D01*
X151690476Y-88788152D02*
X151690476Y-89454819D01*
X151452381Y-88407200D02*
X151214286Y-89121485D01*
X151214286Y-89121485D02*
X151833333Y-89121485D01*
X152769833Y-78152819D02*
X152436500Y-77676628D01*
X152198405Y-78152819D02*
X152198405Y-77152819D01*
X152198405Y-77152819D02*
X152579357Y-77152819D01*
X152579357Y-77152819D02*
X152674595Y-77200438D01*
X152674595Y-77200438D02*
X152722214Y-77248057D01*
X152722214Y-77248057D02*
X152769833Y-77343295D01*
X152769833Y-77343295D02*
X152769833Y-77486152D01*
X152769833Y-77486152D02*
X152722214Y-77581390D01*
X152722214Y-77581390D02*
X152674595Y-77629009D01*
X152674595Y-77629009D02*
X152579357Y-77676628D01*
X152579357Y-77676628D02*
X152198405Y-77676628D01*
X153674595Y-77152819D02*
X153198405Y-77152819D01*
X153198405Y-77152819D02*
X153150786Y-77629009D01*
X153150786Y-77629009D02*
X153198405Y-77581390D01*
X153198405Y-77581390D02*
X153293643Y-77533771D01*
X153293643Y-77533771D02*
X153531738Y-77533771D01*
X153531738Y-77533771D02*
X153626976Y-77581390D01*
X153626976Y-77581390D02*
X153674595Y-77629009D01*
X153674595Y-77629009D02*
X153722214Y-77724247D01*
X153722214Y-77724247D02*
X153722214Y-77962342D01*
X153722214Y-77962342D02*
X153674595Y-78057580D01*
X153674595Y-78057580D02*
X153626976Y-78105200D01*
X153626976Y-78105200D02*
X153531738Y-78152819D01*
X153531738Y-78152819D02*
X153293643Y-78152819D01*
X153293643Y-78152819D02*
X153198405Y-78105200D01*
X153198405Y-78105200D02*
X153150786Y-78057580D01*
X170596595Y-123857819D02*
X170596595Y-124667342D01*
X170596595Y-124667342D02*
X170644214Y-124762580D01*
X170644214Y-124762580D02*
X170691833Y-124810200D01*
X170691833Y-124810200D02*
X170787071Y-124857819D01*
X170787071Y-124857819D02*
X170977547Y-124857819D01*
X170977547Y-124857819D02*
X171072785Y-124810200D01*
X171072785Y-124810200D02*
X171120404Y-124762580D01*
X171120404Y-124762580D02*
X171168023Y-124667342D01*
X171168023Y-124667342D02*
X171168023Y-123857819D01*
X171548976Y-123857819D02*
X172168023Y-123857819D01*
X172168023Y-123857819D02*
X171834690Y-124238771D01*
X171834690Y-124238771D02*
X171977547Y-124238771D01*
X171977547Y-124238771D02*
X172072785Y-124286390D01*
X172072785Y-124286390D02*
X172120404Y-124334009D01*
X172120404Y-124334009D02*
X172168023Y-124429247D01*
X172168023Y-124429247D02*
X172168023Y-124667342D01*
X172168023Y-124667342D02*
X172120404Y-124762580D01*
X172120404Y-124762580D02*
X172072785Y-124810200D01*
X172072785Y-124810200D02*
X171977547Y-124857819D01*
X171977547Y-124857819D02*
X171691833Y-124857819D01*
X171691833Y-124857819D02*
X171596595Y-124810200D01*
X171596595Y-124810200D02*
X171548976Y-124762580D01*
X160895833Y-76604819D02*
X160562500Y-76128628D01*
X160324405Y-76604819D02*
X160324405Y-75604819D01*
X160324405Y-75604819D02*
X160705357Y-75604819D01*
X160705357Y-75604819D02*
X160800595Y-75652438D01*
X160800595Y-75652438D02*
X160848214Y-75700057D01*
X160848214Y-75700057D02*
X160895833Y-75795295D01*
X160895833Y-75795295D02*
X160895833Y-75938152D01*
X160895833Y-75938152D02*
X160848214Y-76033390D01*
X160848214Y-76033390D02*
X160800595Y-76081009D01*
X160800595Y-76081009D02*
X160705357Y-76128628D01*
X160705357Y-76128628D02*
X160324405Y-76128628D01*
X161229167Y-75604819D02*
X161895833Y-75604819D01*
X161895833Y-75604819D02*
X161467262Y-76604819D01*
X152169104Y-124214285D02*
X152169104Y-123738095D01*
X152454819Y-124309523D02*
X151454819Y-123976190D01*
X151454819Y-123976190D02*
X152454819Y-123642857D01*
X152454819Y-122785714D02*
X152454819Y-123357142D01*
X152454819Y-123071428D02*
X151454819Y-123071428D01*
X151454819Y-123071428D02*
X151597676Y-123166666D01*
X151597676Y-123166666D02*
X151692914Y-123261904D01*
X151692914Y-123261904D02*
X151740533Y-123357142D01*
X150748095Y-137264819D02*
X150748095Y-138074342D01*
X150748095Y-138074342D02*
X150795714Y-138169580D01*
X150795714Y-138169580D02*
X150843333Y-138217200D01*
X150843333Y-138217200D02*
X150938571Y-138264819D01*
X150938571Y-138264819D02*
X151129047Y-138264819D01*
X151129047Y-138264819D02*
X151224285Y-138217200D01*
X151224285Y-138217200D02*
X151271904Y-138169580D01*
X151271904Y-138169580D02*
X151319523Y-138074342D01*
X151319523Y-138074342D02*
X151319523Y-137264819D01*
X151748095Y-138217200D02*
X151890952Y-138264819D01*
X151890952Y-138264819D02*
X152129047Y-138264819D01*
X152129047Y-138264819D02*
X152224285Y-138217200D01*
X152224285Y-138217200D02*
X152271904Y-138169580D01*
X152271904Y-138169580D02*
X152319523Y-138074342D01*
X152319523Y-138074342D02*
X152319523Y-137979104D01*
X152319523Y-137979104D02*
X152271904Y-137883866D01*
X152271904Y-137883866D02*
X152224285Y-137836247D01*
X152224285Y-137836247D02*
X152129047Y-137788628D01*
X152129047Y-137788628D02*
X151938571Y-137741009D01*
X151938571Y-137741009D02*
X151843333Y-137693390D01*
X151843333Y-137693390D02*
X151795714Y-137645771D01*
X151795714Y-137645771D02*
X151748095Y-137550533D01*
X151748095Y-137550533D02*
X151748095Y-137455295D01*
X151748095Y-137455295D02*
X151795714Y-137360057D01*
X151795714Y-137360057D02*
X151843333Y-137312438D01*
X151843333Y-137312438D02*
X151938571Y-137264819D01*
X151938571Y-137264819D02*
X152176666Y-137264819D01*
X152176666Y-137264819D02*
X152319523Y-137312438D01*
X153081428Y-137741009D02*
X153224285Y-137788628D01*
X153224285Y-137788628D02*
X153271904Y-137836247D01*
X153271904Y-137836247D02*
X153319523Y-137931485D01*
X153319523Y-137931485D02*
X153319523Y-138074342D01*
X153319523Y-138074342D02*
X153271904Y-138169580D01*
X153271904Y-138169580D02*
X153224285Y-138217200D01*
X153224285Y-138217200D02*
X153129047Y-138264819D01*
X153129047Y-138264819D02*
X152748095Y-138264819D01*
X152748095Y-138264819D02*
X152748095Y-137264819D01*
X152748095Y-137264819D02*
X153081428Y-137264819D01*
X153081428Y-137264819D02*
X153176666Y-137312438D01*
X153176666Y-137312438D02*
X153224285Y-137360057D01*
X153224285Y-137360057D02*
X153271904Y-137455295D01*
X153271904Y-137455295D02*
X153271904Y-137550533D01*
X153271904Y-137550533D02*
X153224285Y-137645771D01*
X153224285Y-137645771D02*
X153176666Y-137693390D01*
X153176666Y-137693390D02*
X153081428Y-137741009D01*
X153081428Y-137741009D02*
X152748095Y-137741009D01*
X160833333Y-73604819D02*
X160500000Y-73128628D01*
X160261905Y-73604819D02*
X160261905Y-72604819D01*
X160261905Y-72604819D02*
X160642857Y-72604819D01*
X160642857Y-72604819D02*
X160738095Y-72652438D01*
X160738095Y-72652438D02*
X160785714Y-72700057D01*
X160785714Y-72700057D02*
X160833333Y-72795295D01*
X160833333Y-72795295D02*
X160833333Y-72938152D01*
X160833333Y-72938152D02*
X160785714Y-73033390D01*
X160785714Y-73033390D02*
X160738095Y-73081009D01*
X160738095Y-73081009D02*
X160642857Y-73128628D01*
X160642857Y-73128628D02*
X160261905Y-73128628D01*
X161690476Y-72604819D02*
X161500000Y-72604819D01*
X161500000Y-72604819D02*
X161404762Y-72652438D01*
X161404762Y-72652438D02*
X161357143Y-72700057D01*
X161357143Y-72700057D02*
X161261905Y-72842914D01*
X161261905Y-72842914D02*
X161214286Y-73033390D01*
X161214286Y-73033390D02*
X161214286Y-73414342D01*
X161214286Y-73414342D02*
X161261905Y-73509580D01*
X161261905Y-73509580D02*
X161309524Y-73557200D01*
X161309524Y-73557200D02*
X161404762Y-73604819D01*
X161404762Y-73604819D02*
X161595238Y-73604819D01*
X161595238Y-73604819D02*
X161690476Y-73557200D01*
X161690476Y-73557200D02*
X161738095Y-73509580D01*
X161738095Y-73509580D02*
X161785714Y-73414342D01*
X161785714Y-73414342D02*
X161785714Y-73176247D01*
X161785714Y-73176247D02*
X161738095Y-73081009D01*
X161738095Y-73081009D02*
X161690476Y-73033390D01*
X161690476Y-73033390D02*
X161595238Y-72985771D01*
X161595238Y-72985771D02*
X161404762Y-72985771D01*
X161404762Y-72985771D02*
X161309524Y-73033390D01*
X161309524Y-73033390D02*
X161261905Y-73081009D01*
X161261905Y-73081009D02*
X161214286Y-73176247D01*
X160895833Y-79954819D02*
X160562500Y-79478628D01*
X160324405Y-79954819D02*
X160324405Y-78954819D01*
X160324405Y-78954819D02*
X160705357Y-78954819D01*
X160705357Y-78954819D02*
X160800595Y-79002438D01*
X160800595Y-79002438D02*
X160848214Y-79050057D01*
X160848214Y-79050057D02*
X160895833Y-79145295D01*
X160895833Y-79145295D02*
X160895833Y-79288152D01*
X160895833Y-79288152D02*
X160848214Y-79383390D01*
X160848214Y-79383390D02*
X160800595Y-79431009D01*
X160800595Y-79431009D02*
X160705357Y-79478628D01*
X160705357Y-79478628D02*
X160324405Y-79478628D01*
X161467262Y-79383390D02*
X161372024Y-79335771D01*
X161372024Y-79335771D02*
X161324405Y-79288152D01*
X161324405Y-79288152D02*
X161276786Y-79192914D01*
X161276786Y-79192914D02*
X161276786Y-79145295D01*
X161276786Y-79145295D02*
X161324405Y-79050057D01*
X161324405Y-79050057D02*
X161372024Y-79002438D01*
X161372024Y-79002438D02*
X161467262Y-78954819D01*
X161467262Y-78954819D02*
X161657738Y-78954819D01*
X161657738Y-78954819D02*
X161752976Y-79002438D01*
X161752976Y-79002438D02*
X161800595Y-79050057D01*
X161800595Y-79050057D02*
X161848214Y-79145295D01*
X161848214Y-79145295D02*
X161848214Y-79192914D01*
X161848214Y-79192914D02*
X161800595Y-79288152D01*
X161800595Y-79288152D02*
X161752976Y-79335771D01*
X161752976Y-79335771D02*
X161657738Y-79383390D01*
X161657738Y-79383390D02*
X161467262Y-79383390D01*
X161467262Y-79383390D02*
X161372024Y-79431009D01*
X161372024Y-79431009D02*
X161324405Y-79478628D01*
X161324405Y-79478628D02*
X161276786Y-79573866D01*
X161276786Y-79573866D02*
X161276786Y-79764342D01*
X161276786Y-79764342D02*
X161324405Y-79859580D01*
X161324405Y-79859580D02*
X161372024Y-79907200D01*
X161372024Y-79907200D02*
X161467262Y-79954819D01*
X161467262Y-79954819D02*
X161657738Y-79954819D01*
X161657738Y-79954819D02*
X161752976Y-79907200D01*
X161752976Y-79907200D02*
X161800595Y-79859580D01*
X161800595Y-79859580D02*
X161848214Y-79764342D01*
X161848214Y-79764342D02*
X161848214Y-79573866D01*
X161848214Y-79573866D02*
X161800595Y-79478628D01*
X161800595Y-79478628D02*
X161752976Y-79431009D01*
X161752976Y-79431009D02*
X161657738Y-79383390D01*
X175931009Y-83040714D02*
X175978628Y-82897857D01*
X175978628Y-82897857D02*
X176026247Y-82850238D01*
X176026247Y-82850238D02*
X176121485Y-82802619D01*
X176121485Y-82802619D02*
X176264342Y-82802619D01*
X176264342Y-82802619D02*
X176359580Y-82850238D01*
X176359580Y-82850238D02*
X176407200Y-82897857D01*
X176407200Y-82897857D02*
X176454819Y-82993095D01*
X176454819Y-82993095D02*
X176454819Y-83374047D01*
X176454819Y-83374047D02*
X175454819Y-83374047D01*
X175454819Y-83374047D02*
X175454819Y-83040714D01*
X175454819Y-83040714D02*
X175502438Y-82945476D01*
X175502438Y-82945476D02*
X175550057Y-82897857D01*
X175550057Y-82897857D02*
X175645295Y-82850238D01*
X175645295Y-82850238D02*
X175740533Y-82850238D01*
X175740533Y-82850238D02*
X175835771Y-82897857D01*
X175835771Y-82897857D02*
X175883390Y-82945476D01*
X175883390Y-82945476D02*
X175931009Y-83040714D01*
X175931009Y-83040714D02*
X175931009Y-83374047D01*
X175454819Y-82516904D02*
X175454819Y-81945476D01*
X176454819Y-82231190D02*
X175454819Y-82231190D01*
X176454819Y-81088333D02*
X176454819Y-81659761D01*
X176454819Y-81374047D02*
X175454819Y-81374047D01*
X175454819Y-81374047D02*
X175597676Y-81469285D01*
X175597676Y-81469285D02*
X175692914Y-81564523D01*
X175692914Y-81564523D02*
X175740533Y-81659761D01*
X168738095Y-95954819D02*
X168738095Y-96764342D01*
X168738095Y-96764342D02*
X168785714Y-96859580D01*
X168785714Y-96859580D02*
X168833333Y-96907200D01*
X168833333Y-96907200D02*
X168928571Y-96954819D01*
X168928571Y-96954819D02*
X169119047Y-96954819D01*
X169119047Y-96954819D02*
X169214285Y-96907200D01*
X169214285Y-96907200D02*
X169261904Y-96859580D01*
X169261904Y-96859580D02*
X169309523Y-96764342D01*
X169309523Y-96764342D02*
X169309523Y-95954819D01*
X170261904Y-95954819D02*
X169785714Y-95954819D01*
X169785714Y-95954819D02*
X169738095Y-96431009D01*
X169738095Y-96431009D02*
X169785714Y-96383390D01*
X169785714Y-96383390D02*
X169880952Y-96335771D01*
X169880952Y-96335771D02*
X170119047Y-96335771D01*
X170119047Y-96335771D02*
X170214285Y-96383390D01*
X170214285Y-96383390D02*
X170261904Y-96431009D01*
X170261904Y-96431009D02*
X170309523Y-96526247D01*
X170309523Y-96526247D02*
X170309523Y-96764342D01*
X170309523Y-96764342D02*
X170261904Y-96859580D01*
X170261904Y-96859580D02*
X170214285Y-96907200D01*
X170214285Y-96907200D02*
X170119047Y-96954819D01*
X170119047Y-96954819D02*
X169880952Y-96954819D01*
X169880952Y-96954819D02*
X169785714Y-96907200D01*
X169785714Y-96907200D02*
X169738095Y-96859580D01*
X151585237Y-148454819D02*
X151585237Y-149264342D01*
X151585237Y-149264342D02*
X151632856Y-149359580D01*
X151632856Y-149359580D02*
X151680475Y-149407200D01*
X151680475Y-149407200D02*
X151775713Y-149454819D01*
X151775713Y-149454819D02*
X151966189Y-149454819D01*
X151966189Y-149454819D02*
X152061427Y-149407200D01*
X152061427Y-149407200D02*
X152109046Y-149359580D01*
X152109046Y-149359580D02*
X152156665Y-149264342D01*
X152156665Y-149264342D02*
X152156665Y-148454819D01*
X152775713Y-149454819D02*
X152680475Y-149407200D01*
X152680475Y-149407200D02*
X152632856Y-149311961D01*
X152632856Y-149311961D02*
X152632856Y-148454819D01*
X153013809Y-148788152D02*
X153394761Y-148788152D01*
X153156666Y-148454819D02*
X153156666Y-149311961D01*
X153156666Y-149311961D02*
X153204285Y-149407200D01*
X153204285Y-149407200D02*
X153299523Y-149454819D01*
X153299523Y-149454819D02*
X153394761Y-149454819D01*
X153728095Y-149454819D02*
X153728095Y-148788152D01*
X153728095Y-148978628D02*
X153775714Y-148883390D01*
X153775714Y-148883390D02*
X153823333Y-148835771D01*
X153823333Y-148835771D02*
X153918571Y-148788152D01*
X153918571Y-148788152D02*
X154013809Y-148788152D01*
X154775714Y-149454819D02*
X154775714Y-148931009D01*
X154775714Y-148931009D02*
X154728095Y-148835771D01*
X154728095Y-148835771D02*
X154632857Y-148788152D01*
X154632857Y-148788152D02*
X154442381Y-148788152D01*
X154442381Y-148788152D02*
X154347143Y-148835771D01*
X154775714Y-149407200D02*
X154680476Y-149454819D01*
X154680476Y-149454819D02*
X154442381Y-149454819D01*
X154442381Y-149454819D02*
X154347143Y-149407200D01*
X154347143Y-149407200D02*
X154299524Y-149311961D01*
X154299524Y-149311961D02*
X154299524Y-149216723D01*
X154299524Y-149216723D02*
X154347143Y-149121485D01*
X154347143Y-149121485D02*
X154442381Y-149073866D01*
X154442381Y-149073866D02*
X154680476Y-149073866D01*
X154680476Y-149073866D02*
X154775714Y-149026247D01*
X155204286Y-149407200D02*
X155299524Y-149454819D01*
X155299524Y-149454819D02*
X155490000Y-149454819D01*
X155490000Y-149454819D02*
X155585238Y-149407200D01*
X155585238Y-149407200D02*
X155632857Y-149311961D01*
X155632857Y-149311961D02*
X155632857Y-149264342D01*
X155632857Y-149264342D02*
X155585238Y-149169104D01*
X155585238Y-149169104D02*
X155490000Y-149121485D01*
X155490000Y-149121485D02*
X155347143Y-149121485D01*
X155347143Y-149121485D02*
X155251905Y-149073866D01*
X155251905Y-149073866D02*
X155204286Y-148978628D01*
X155204286Y-148978628D02*
X155204286Y-148931009D01*
X155204286Y-148931009D02*
X155251905Y-148835771D01*
X155251905Y-148835771D02*
X155347143Y-148788152D01*
X155347143Y-148788152D02*
X155490000Y-148788152D01*
X155490000Y-148788152D02*
X155585238Y-148835771D01*
X156204286Y-149454819D02*
X156109048Y-149407200D01*
X156109048Y-149407200D02*
X156061429Y-149359580D01*
X156061429Y-149359580D02*
X156013810Y-149264342D01*
X156013810Y-149264342D02*
X156013810Y-148978628D01*
X156013810Y-148978628D02*
X156061429Y-148883390D01*
X156061429Y-148883390D02*
X156109048Y-148835771D01*
X156109048Y-148835771D02*
X156204286Y-148788152D01*
X156204286Y-148788152D02*
X156347143Y-148788152D01*
X156347143Y-148788152D02*
X156442381Y-148835771D01*
X156442381Y-148835771D02*
X156490000Y-148883390D01*
X156490000Y-148883390D02*
X156537619Y-148978628D01*
X156537619Y-148978628D02*
X156537619Y-149264342D01*
X156537619Y-149264342D02*
X156490000Y-149359580D01*
X156490000Y-149359580D02*
X156442381Y-149407200D01*
X156442381Y-149407200D02*
X156347143Y-149454819D01*
X156347143Y-149454819D02*
X156204286Y-149454819D01*
X156966191Y-148788152D02*
X156966191Y-149454819D01*
X156966191Y-148883390D02*
X157013810Y-148835771D01*
X157013810Y-148835771D02*
X157109048Y-148788152D01*
X157109048Y-148788152D02*
X157251905Y-148788152D01*
X157251905Y-148788152D02*
X157347143Y-148835771D01*
X157347143Y-148835771D02*
X157394762Y-148931009D01*
X157394762Y-148931009D02*
X157394762Y-149454819D01*
X157870953Y-149454819D02*
X157870953Y-148788152D01*
X157870953Y-148454819D02*
X157823334Y-148502438D01*
X157823334Y-148502438D02*
X157870953Y-148550057D01*
X157870953Y-148550057D02*
X157918572Y-148502438D01*
X157918572Y-148502438D02*
X157870953Y-148454819D01*
X157870953Y-148454819D02*
X157870953Y-148550057D01*
X158775714Y-149407200D02*
X158680476Y-149454819D01*
X158680476Y-149454819D02*
X158490000Y-149454819D01*
X158490000Y-149454819D02*
X158394762Y-149407200D01*
X158394762Y-149407200D02*
X158347143Y-149359580D01*
X158347143Y-149359580D02*
X158299524Y-149264342D01*
X158299524Y-149264342D02*
X158299524Y-148978628D01*
X158299524Y-148978628D02*
X158347143Y-148883390D01*
X158347143Y-148883390D02*
X158394762Y-148835771D01*
X158394762Y-148835771D02*
X158490000Y-148788152D01*
X158490000Y-148788152D02*
X158680476Y-148788152D01*
X158680476Y-148788152D02*
X158775714Y-148835771D01*
X158966191Y-149550057D02*
X159728095Y-149550057D01*
X159918572Y-149407200D02*
X160013810Y-149454819D01*
X160013810Y-149454819D02*
X160204286Y-149454819D01*
X160204286Y-149454819D02*
X160299524Y-149407200D01*
X160299524Y-149407200D02*
X160347143Y-149311961D01*
X160347143Y-149311961D02*
X160347143Y-149264342D01*
X160347143Y-149264342D02*
X160299524Y-149169104D01*
X160299524Y-149169104D02*
X160204286Y-149121485D01*
X160204286Y-149121485D02*
X160061429Y-149121485D01*
X160061429Y-149121485D02*
X159966191Y-149073866D01*
X159966191Y-149073866D02*
X159918572Y-148978628D01*
X159918572Y-148978628D02*
X159918572Y-148931009D01*
X159918572Y-148931009D02*
X159966191Y-148835771D01*
X159966191Y-148835771D02*
X160061429Y-148788152D01*
X160061429Y-148788152D02*
X160204286Y-148788152D01*
X160204286Y-148788152D02*
X160299524Y-148835771D01*
X161156667Y-149407200D02*
X161061429Y-149454819D01*
X161061429Y-149454819D02*
X160870953Y-149454819D01*
X160870953Y-149454819D02*
X160775715Y-149407200D01*
X160775715Y-149407200D02*
X160728096Y-149311961D01*
X160728096Y-149311961D02*
X160728096Y-148931009D01*
X160728096Y-148931009D02*
X160775715Y-148835771D01*
X160775715Y-148835771D02*
X160870953Y-148788152D01*
X160870953Y-148788152D02*
X161061429Y-148788152D01*
X161061429Y-148788152D02*
X161156667Y-148835771D01*
X161156667Y-148835771D02*
X161204286Y-148931009D01*
X161204286Y-148931009D02*
X161204286Y-149026247D01*
X161204286Y-149026247D02*
X160728096Y-149121485D01*
X161632858Y-148788152D02*
X161632858Y-149454819D01*
X161632858Y-148883390D02*
X161680477Y-148835771D01*
X161680477Y-148835771D02*
X161775715Y-148788152D01*
X161775715Y-148788152D02*
X161918572Y-148788152D01*
X161918572Y-148788152D02*
X162013810Y-148835771D01*
X162013810Y-148835771D02*
X162061429Y-148931009D01*
X162061429Y-148931009D02*
X162061429Y-149454819D01*
X162490001Y-149407200D02*
X162585239Y-149454819D01*
X162585239Y-149454819D02*
X162775715Y-149454819D01*
X162775715Y-149454819D02*
X162870953Y-149407200D01*
X162870953Y-149407200D02*
X162918572Y-149311961D01*
X162918572Y-149311961D02*
X162918572Y-149264342D01*
X162918572Y-149264342D02*
X162870953Y-149169104D01*
X162870953Y-149169104D02*
X162775715Y-149121485D01*
X162775715Y-149121485D02*
X162632858Y-149121485D01*
X162632858Y-149121485D02*
X162537620Y-149073866D01*
X162537620Y-149073866D02*
X162490001Y-148978628D01*
X162490001Y-148978628D02*
X162490001Y-148931009D01*
X162490001Y-148931009D02*
X162537620Y-148835771D01*
X162537620Y-148835771D02*
X162632858Y-148788152D01*
X162632858Y-148788152D02*
X162775715Y-148788152D01*
X162775715Y-148788152D02*
X162870953Y-148835771D01*
X163490001Y-149454819D02*
X163394763Y-149407200D01*
X163394763Y-149407200D02*
X163347144Y-149359580D01*
X163347144Y-149359580D02*
X163299525Y-149264342D01*
X163299525Y-149264342D02*
X163299525Y-148978628D01*
X163299525Y-148978628D02*
X163347144Y-148883390D01*
X163347144Y-148883390D02*
X163394763Y-148835771D01*
X163394763Y-148835771D02*
X163490001Y-148788152D01*
X163490001Y-148788152D02*
X163632858Y-148788152D01*
X163632858Y-148788152D02*
X163728096Y-148835771D01*
X163728096Y-148835771D02*
X163775715Y-148883390D01*
X163775715Y-148883390D02*
X163823334Y-148978628D01*
X163823334Y-148978628D02*
X163823334Y-149264342D01*
X163823334Y-149264342D02*
X163775715Y-149359580D01*
X163775715Y-149359580D02*
X163728096Y-149407200D01*
X163728096Y-149407200D02*
X163632858Y-149454819D01*
X163632858Y-149454819D02*
X163490001Y-149454819D01*
X164251906Y-149454819D02*
X164251906Y-148788152D01*
X164251906Y-148978628D02*
X164299525Y-148883390D01*
X164299525Y-148883390D02*
X164347144Y-148835771D01*
X164347144Y-148835771D02*
X164442382Y-148788152D01*
X164442382Y-148788152D02*
X164537620Y-148788152D01*
X159191009Y-145551904D02*
X159191009Y-145218571D01*
X159714819Y-145075714D02*
X159714819Y-145551904D01*
X159714819Y-145551904D02*
X158714819Y-145551904D01*
X158714819Y-145551904D02*
X158714819Y-145075714D01*
X159619580Y-144075714D02*
X159667200Y-144123333D01*
X159667200Y-144123333D02*
X159714819Y-144266190D01*
X159714819Y-144266190D02*
X159714819Y-144361428D01*
X159714819Y-144361428D02*
X159667200Y-144504285D01*
X159667200Y-144504285D02*
X159571961Y-144599523D01*
X159571961Y-144599523D02*
X159476723Y-144647142D01*
X159476723Y-144647142D02*
X159286247Y-144694761D01*
X159286247Y-144694761D02*
X159143390Y-144694761D01*
X159143390Y-144694761D02*
X158952914Y-144647142D01*
X158952914Y-144647142D02*
X158857676Y-144599523D01*
X158857676Y-144599523D02*
X158762438Y-144504285D01*
X158762438Y-144504285D02*
X158714819Y-144361428D01*
X158714819Y-144361428D02*
X158714819Y-144266190D01*
X158714819Y-144266190D02*
X158762438Y-144123333D01*
X158762438Y-144123333D02*
X158810057Y-144075714D01*
X159714819Y-143647142D02*
X158714819Y-143647142D01*
X159191009Y-143647142D02*
X159191009Y-143075714D01*
X159714819Y-143075714D02*
X158714819Y-143075714D01*
X158714819Y-142409047D02*
X158714819Y-142218571D01*
X158714819Y-142218571D02*
X158762438Y-142123333D01*
X158762438Y-142123333D02*
X158857676Y-142028095D01*
X158857676Y-142028095D02*
X159048152Y-141980476D01*
X159048152Y-141980476D02*
X159381485Y-141980476D01*
X159381485Y-141980476D02*
X159571961Y-142028095D01*
X159571961Y-142028095D02*
X159667200Y-142123333D01*
X159667200Y-142123333D02*
X159714819Y-142218571D01*
X159714819Y-142218571D02*
X159714819Y-142409047D01*
X159714819Y-142409047D02*
X159667200Y-142504285D01*
X159667200Y-142504285D02*
X159571961Y-142599523D01*
X159571961Y-142599523D02*
X159381485Y-142647142D01*
X159381485Y-142647142D02*
X159048152Y-142647142D01*
X159048152Y-142647142D02*
X158857676Y-142599523D01*
X158857676Y-142599523D02*
X158762438Y-142504285D01*
X158762438Y-142504285D02*
X158714819Y-142409047D01*
X161302438Y-144551904D02*
X161254819Y-144647142D01*
X161254819Y-144647142D02*
X161254819Y-144789999D01*
X161254819Y-144789999D02*
X161302438Y-144932856D01*
X161302438Y-144932856D02*
X161397676Y-145028094D01*
X161397676Y-145028094D02*
X161492914Y-145075713D01*
X161492914Y-145075713D02*
X161683390Y-145123332D01*
X161683390Y-145123332D02*
X161826247Y-145123332D01*
X161826247Y-145123332D02*
X162016723Y-145075713D01*
X162016723Y-145075713D02*
X162111961Y-145028094D01*
X162111961Y-145028094D02*
X162207200Y-144932856D01*
X162207200Y-144932856D02*
X162254819Y-144789999D01*
X162254819Y-144789999D02*
X162254819Y-144694761D01*
X162254819Y-144694761D02*
X162207200Y-144551904D01*
X162207200Y-144551904D02*
X162159580Y-144504285D01*
X162159580Y-144504285D02*
X161826247Y-144504285D01*
X161826247Y-144504285D02*
X161826247Y-144694761D01*
X162254819Y-144075713D02*
X161254819Y-144075713D01*
X161254819Y-144075713D02*
X162254819Y-143504285D01*
X162254819Y-143504285D02*
X161254819Y-143504285D01*
X162254819Y-143028094D02*
X161254819Y-143028094D01*
X161254819Y-143028094D02*
X161254819Y-142789999D01*
X161254819Y-142789999D02*
X161302438Y-142647142D01*
X161302438Y-142647142D02*
X161397676Y-142551904D01*
X161397676Y-142551904D02*
X161492914Y-142504285D01*
X161492914Y-142504285D02*
X161683390Y-142456666D01*
X161683390Y-142456666D02*
X161826247Y-142456666D01*
X161826247Y-142456666D02*
X162016723Y-142504285D01*
X162016723Y-142504285D02*
X162111961Y-142551904D01*
X162111961Y-142551904D02*
X162207200Y-142647142D01*
X162207200Y-142647142D02*
X162254819Y-142789999D01*
X162254819Y-142789999D02*
X162254819Y-143028094D01*
X156174819Y-145313808D02*
X156174819Y-144742380D01*
X157174819Y-145028094D02*
X156174819Y-145028094D01*
X157174819Y-143837618D02*
X156698628Y-144170951D01*
X157174819Y-144409046D02*
X156174819Y-144409046D01*
X156174819Y-144409046D02*
X156174819Y-144028094D01*
X156174819Y-144028094D02*
X156222438Y-143932856D01*
X156222438Y-143932856D02*
X156270057Y-143885237D01*
X156270057Y-143885237D02*
X156365295Y-143837618D01*
X156365295Y-143837618D02*
X156508152Y-143837618D01*
X156508152Y-143837618D02*
X156603390Y-143885237D01*
X156603390Y-143885237D02*
X156651009Y-143932856D01*
X156651009Y-143932856D02*
X156698628Y-144028094D01*
X156698628Y-144028094D02*
X156698628Y-144409046D01*
X157174819Y-143409046D02*
X156174819Y-143409046D01*
X156222438Y-142409047D02*
X156174819Y-142504285D01*
X156174819Y-142504285D02*
X156174819Y-142647142D01*
X156174819Y-142647142D02*
X156222438Y-142789999D01*
X156222438Y-142789999D02*
X156317676Y-142885237D01*
X156317676Y-142885237D02*
X156412914Y-142932856D01*
X156412914Y-142932856D02*
X156603390Y-142980475D01*
X156603390Y-142980475D02*
X156746247Y-142980475D01*
X156746247Y-142980475D02*
X156936723Y-142932856D01*
X156936723Y-142932856D02*
X157031961Y-142885237D01*
X157031961Y-142885237D02*
X157127200Y-142789999D01*
X157127200Y-142789999D02*
X157174819Y-142647142D01*
X157174819Y-142647142D02*
X157174819Y-142551904D01*
X157174819Y-142551904D02*
X157127200Y-142409047D01*
X157127200Y-142409047D02*
X157079580Y-142361428D01*
X157079580Y-142361428D02*
X156746247Y-142361428D01*
X156746247Y-142361428D02*
X156746247Y-142551904D01*
X153634819Y-145123332D02*
X154634819Y-144789999D01*
X154634819Y-144789999D02*
X153634819Y-144456666D01*
X154539580Y-143551904D02*
X154587200Y-143599523D01*
X154587200Y-143599523D02*
X154634819Y-143742380D01*
X154634819Y-143742380D02*
X154634819Y-143837618D01*
X154634819Y-143837618D02*
X154587200Y-143980475D01*
X154587200Y-143980475D02*
X154491961Y-144075713D01*
X154491961Y-144075713D02*
X154396723Y-144123332D01*
X154396723Y-144123332D02*
X154206247Y-144170951D01*
X154206247Y-144170951D02*
X154063390Y-144170951D01*
X154063390Y-144170951D02*
X153872914Y-144123332D01*
X153872914Y-144123332D02*
X153777676Y-144075713D01*
X153777676Y-144075713D02*
X153682438Y-143980475D01*
X153682438Y-143980475D02*
X153634819Y-143837618D01*
X153634819Y-143837618D02*
X153634819Y-143742380D01*
X153634819Y-143742380D02*
X153682438Y-143599523D01*
X153682438Y-143599523D02*
X153730057Y-143551904D01*
X154539580Y-142551904D02*
X154587200Y-142599523D01*
X154587200Y-142599523D02*
X154634819Y-142742380D01*
X154634819Y-142742380D02*
X154634819Y-142837618D01*
X154634819Y-142837618D02*
X154587200Y-142980475D01*
X154587200Y-142980475D02*
X154491961Y-143075713D01*
X154491961Y-143075713D02*
X154396723Y-143123332D01*
X154396723Y-143123332D02*
X154206247Y-143170951D01*
X154206247Y-143170951D02*
X154063390Y-143170951D01*
X154063390Y-143170951D02*
X153872914Y-143123332D01*
X153872914Y-143123332D02*
X153777676Y-143075713D01*
X153777676Y-143075713D02*
X153682438Y-142980475D01*
X153682438Y-142980475D02*
X153634819Y-142837618D01*
X153634819Y-142837618D02*
X153634819Y-142742380D01*
X153634819Y-142742380D02*
X153682438Y-142599523D01*
X153682438Y-142599523D02*
X153730057Y-142551904D01*
X160895833Y-83304819D02*
X160562500Y-82828628D01*
X160324405Y-83304819D02*
X160324405Y-82304819D01*
X160324405Y-82304819D02*
X160705357Y-82304819D01*
X160705357Y-82304819D02*
X160800595Y-82352438D01*
X160800595Y-82352438D02*
X160848214Y-82400057D01*
X160848214Y-82400057D02*
X160895833Y-82495295D01*
X160895833Y-82495295D02*
X160895833Y-82638152D01*
X160895833Y-82638152D02*
X160848214Y-82733390D01*
X160848214Y-82733390D02*
X160800595Y-82781009D01*
X160800595Y-82781009D02*
X160705357Y-82828628D01*
X160705357Y-82828628D02*
X160324405Y-82828628D01*
X161372024Y-83304819D02*
X161562500Y-83304819D01*
X161562500Y-83304819D02*
X161657738Y-83257200D01*
X161657738Y-83257200D02*
X161705357Y-83209580D01*
X161705357Y-83209580D02*
X161800595Y-83066723D01*
X161800595Y-83066723D02*
X161848214Y-82876247D01*
X161848214Y-82876247D02*
X161848214Y-82495295D01*
X161848214Y-82495295D02*
X161800595Y-82400057D01*
X161800595Y-82400057D02*
X161752976Y-82352438D01*
X161752976Y-82352438D02*
X161657738Y-82304819D01*
X161657738Y-82304819D02*
X161467262Y-82304819D01*
X161467262Y-82304819D02*
X161372024Y-82352438D01*
X161372024Y-82352438D02*
X161324405Y-82400057D01*
X161324405Y-82400057D02*
X161276786Y-82495295D01*
X161276786Y-82495295D02*
X161276786Y-82733390D01*
X161276786Y-82733390D02*
X161324405Y-82828628D01*
X161324405Y-82828628D02*
X161372024Y-82876247D01*
X161372024Y-82876247D02*
X161467262Y-82923866D01*
X161467262Y-82923866D02*
X161657738Y-82923866D01*
X161657738Y-82923866D02*
X161752976Y-82876247D01*
X161752976Y-82876247D02*
X161800595Y-82828628D01*
X161800595Y-82828628D02*
X161848214Y-82733390D01*
X160419642Y-86654819D02*
X160086309Y-86178628D01*
X159848214Y-86654819D02*
X159848214Y-85654819D01*
X159848214Y-85654819D02*
X160229166Y-85654819D01*
X160229166Y-85654819D02*
X160324404Y-85702438D01*
X160324404Y-85702438D02*
X160372023Y-85750057D01*
X160372023Y-85750057D02*
X160419642Y-85845295D01*
X160419642Y-85845295D02*
X160419642Y-85988152D01*
X160419642Y-85988152D02*
X160372023Y-86083390D01*
X160372023Y-86083390D02*
X160324404Y-86131009D01*
X160324404Y-86131009D02*
X160229166Y-86178628D01*
X160229166Y-86178628D02*
X159848214Y-86178628D01*
X161372023Y-86654819D02*
X160800595Y-86654819D01*
X161086309Y-86654819D02*
X161086309Y-85654819D01*
X161086309Y-85654819D02*
X160991071Y-85797676D01*
X160991071Y-85797676D02*
X160895833Y-85892914D01*
X160895833Y-85892914D02*
X160800595Y-85940533D01*
X161991071Y-85654819D02*
X162086309Y-85654819D01*
X162086309Y-85654819D02*
X162181547Y-85702438D01*
X162181547Y-85702438D02*
X162229166Y-85750057D01*
X162229166Y-85750057D02*
X162276785Y-85845295D01*
X162276785Y-85845295D02*
X162324404Y-86035771D01*
X162324404Y-86035771D02*
X162324404Y-86273866D01*
X162324404Y-86273866D02*
X162276785Y-86464342D01*
X162276785Y-86464342D02*
X162229166Y-86559580D01*
X162229166Y-86559580D02*
X162181547Y-86607200D01*
X162181547Y-86607200D02*
X162086309Y-86654819D01*
X162086309Y-86654819D02*
X161991071Y-86654819D01*
X161991071Y-86654819D02*
X161895833Y-86607200D01*
X161895833Y-86607200D02*
X161848214Y-86559580D01*
X161848214Y-86559580D02*
X161800595Y-86464342D01*
X161800595Y-86464342D02*
X161752976Y-86273866D01*
X161752976Y-86273866D02*
X161752976Y-86035771D01*
X161752976Y-86035771D02*
X161800595Y-85845295D01*
X161800595Y-85845295D02*
X161848214Y-85750057D01*
X161848214Y-85750057D02*
X161895833Y-85702438D01*
X161895833Y-85702438D02*
X161991071Y-85654819D01*
X156166667Y-93607200D02*
X156309524Y-93654819D01*
X156309524Y-93654819D02*
X156547619Y-93654819D01*
X156547619Y-93654819D02*
X156642857Y-93607200D01*
X156642857Y-93607200D02*
X156690476Y-93559580D01*
X156690476Y-93559580D02*
X156738095Y-93464342D01*
X156738095Y-93464342D02*
X156738095Y-93369104D01*
X156738095Y-93369104D02*
X156690476Y-93273866D01*
X156690476Y-93273866D02*
X156642857Y-93226247D01*
X156642857Y-93226247D02*
X156547619Y-93178628D01*
X156547619Y-93178628D02*
X156357143Y-93131009D01*
X156357143Y-93131009D02*
X156261905Y-93083390D01*
X156261905Y-93083390D02*
X156214286Y-93035771D01*
X156214286Y-93035771D02*
X156166667Y-92940533D01*
X156166667Y-92940533D02*
X156166667Y-92845295D01*
X156166667Y-92845295D02*
X156214286Y-92750057D01*
X156214286Y-92750057D02*
X156261905Y-92702438D01*
X156261905Y-92702438D02*
X156357143Y-92654819D01*
X156357143Y-92654819D02*
X156595238Y-92654819D01*
X156595238Y-92654819D02*
X156738095Y-92702438D01*
X157071429Y-92654819D02*
X157309524Y-93654819D01*
X157309524Y-93654819D02*
X157500000Y-92940533D01*
X157500000Y-92940533D02*
X157690476Y-93654819D01*
X157690476Y-93654819D02*
X157928572Y-92654819D01*
X158833333Y-93654819D02*
X158261905Y-93654819D01*
X158547619Y-93654819D02*
X158547619Y-92654819D01*
X158547619Y-92654819D02*
X158452381Y-92797676D01*
X158452381Y-92797676D02*
X158357143Y-92892914D01*
X158357143Y-92892914D02*
X158261905Y-92940533D01*
X160419642Y-90004819D02*
X160086309Y-89528628D01*
X159848214Y-90004819D02*
X159848214Y-89004819D01*
X159848214Y-89004819D02*
X160229166Y-89004819D01*
X160229166Y-89004819D02*
X160324404Y-89052438D01*
X160324404Y-89052438D02*
X160372023Y-89100057D01*
X160372023Y-89100057D02*
X160419642Y-89195295D01*
X160419642Y-89195295D02*
X160419642Y-89338152D01*
X160419642Y-89338152D02*
X160372023Y-89433390D01*
X160372023Y-89433390D02*
X160324404Y-89481009D01*
X160324404Y-89481009D02*
X160229166Y-89528628D01*
X160229166Y-89528628D02*
X159848214Y-89528628D01*
X161372023Y-90004819D02*
X160800595Y-90004819D01*
X161086309Y-90004819D02*
X161086309Y-89004819D01*
X161086309Y-89004819D02*
X160991071Y-89147676D01*
X160991071Y-89147676D02*
X160895833Y-89242914D01*
X160895833Y-89242914D02*
X160800595Y-89290533D01*
X162324404Y-90004819D02*
X161752976Y-90004819D01*
X162038690Y-90004819D02*
X162038690Y-89004819D01*
X162038690Y-89004819D02*
X161943452Y-89147676D01*
X161943452Y-89147676D02*
X161848214Y-89242914D01*
X161848214Y-89242914D02*
X161752976Y-89290533D01*
X141954819Y-85261904D02*
X142764342Y-85261904D01*
X142764342Y-85261904D02*
X142859580Y-85214285D01*
X142859580Y-85214285D02*
X142907200Y-85166666D01*
X142907200Y-85166666D02*
X142954819Y-85071428D01*
X142954819Y-85071428D02*
X142954819Y-84880952D01*
X142954819Y-84880952D02*
X142907200Y-84785714D01*
X142907200Y-84785714D02*
X142859580Y-84738095D01*
X142859580Y-84738095D02*
X142764342Y-84690476D01*
X142764342Y-84690476D02*
X141954819Y-84690476D01*
X142050057Y-84261904D02*
X142002438Y-84214285D01*
X142002438Y-84214285D02*
X141954819Y-84119047D01*
X141954819Y-84119047D02*
X141954819Y-83880952D01*
X141954819Y-83880952D02*
X142002438Y-83785714D01*
X142002438Y-83785714D02*
X142050057Y-83738095D01*
X142050057Y-83738095D02*
X142145295Y-83690476D01*
X142145295Y-83690476D02*
X142240533Y-83690476D01*
X142240533Y-83690476D02*
X142383390Y-83738095D01*
X142383390Y-83738095D02*
X142954819Y-84309523D01*
X142954819Y-84309523D02*
X142954819Y-83690476D01*
D11*
%TO.C,C1*%
X168690000Y-110302064D02*
X168690000Y-109097936D01*
X170510000Y-110302064D02*
X170510000Y-109097936D01*
%TO.C,C2*%
X164990000Y-127297936D02*
X164990000Y-128502064D01*
X166810000Y-127297936D02*
X166810000Y-128502064D01*
%TO.C,C3*%
X174090000Y-97397936D02*
X174090000Y-98602064D01*
X175910000Y-97397936D02*
X175910000Y-98602064D01*
%TO.C,C4*%
X165090000Y-109097936D02*
X165090000Y-110302064D01*
X166910000Y-109097936D02*
X166910000Y-110302064D01*
%TO.C,D2*%
X141635000Y-93864000D02*
X141635000Y-94020000D01*
X141635000Y-96180000D02*
X141635000Y-96336000D01*
X141635000Y-93864484D02*
G75*
G02*
X144867335Y-94021392I1560000J-1235516D01*
G01*
X142154039Y-94020000D02*
G75*
G02*
X144236130Y-94020163I1040961J-1080000D01*
G01*
X144236130Y-96179837D02*
G75*
G02*
X142154039Y-96180000I-1041130J1079837D01*
G01*
X144867335Y-96178608D02*
G75*
G02*
X141635000Y-96335516I-1672335J1078608D01*
G01*
%TO.C,R1*%
X148902064Y-94390000D02*
X147697936Y-94390000D01*
X148902064Y-96210000D02*
X147697936Y-96210000D01*
%TO.C,R2*%
X164990000Y-119202064D02*
X164990000Y-117997936D01*
X166810000Y-119202064D02*
X166810000Y-117997936D01*
%TO.C,R3*%
X152602064Y-84090000D02*
X151397936Y-84090000D01*
X152602064Y-85910000D02*
X151397936Y-85910000D01*
%TO.C,R4*%
X152090000Y-88397936D02*
X152090000Y-89602064D01*
X153910000Y-88397936D02*
X153910000Y-89602064D01*
%TO.C,R5*%
X152090000Y-80397936D02*
X152090000Y-81602064D01*
X153910000Y-80397936D02*
X153910000Y-81602064D01*
%TO.C,U3*%
X168735000Y-128975000D02*
X168735000Y-127025000D01*
X168735000Y-128975000D02*
X168735000Y-132425000D01*
X173855000Y-128975000D02*
X173855000Y-127025000D01*
X173855000Y-128975000D02*
X173855000Y-130925000D01*
%TO.C,R7*%
X160351248Y-77090000D02*
X161773752Y-77090000D01*
X160351248Y-78910000D02*
X161773752Y-78910000D01*
%TO.C,A1*%
X142990000Y-98310000D02*
X142990000Y-100980000D01*
X142990000Y-103520000D02*
X142990000Y-141750000D01*
X142990000Y-141750000D02*
X148070000Y-141750000D01*
X145660000Y-100980000D02*
X142990000Y-100980000D01*
X145660000Y-103520000D02*
X142990000Y-103520000D01*
X145660000Y-103520000D02*
X145660000Y-100980000D01*
X145660000Y-103520000D02*
X145660000Y-139080000D01*
X145660000Y-139080000D02*
X142990000Y-139080000D01*
X148070000Y-133870000D02*
X155950000Y-133870000D01*
X148070000Y-144290000D02*
X148070000Y-133870000D01*
X155950000Y-133870000D02*
X155950000Y-144290000D01*
X155950000Y-144290000D02*
X148070000Y-144290000D01*
X158360000Y-100980000D02*
X158360000Y-139080000D01*
X158360000Y-100980000D02*
X161030000Y-100980000D01*
X158360000Y-139080000D02*
X161030000Y-139080000D01*
X161030000Y-98310000D02*
X142990000Y-98310000D01*
X161030000Y-141750000D02*
X155950000Y-141750000D01*
X161030000Y-141750000D02*
X161030000Y-98310000D01*
%TO.C,R6*%
X160288748Y-74090000D02*
X161711252Y-74090000D01*
X160288748Y-75910000D02*
X161711252Y-75910000D01*
%TO.C,R8*%
X160351248Y-80440000D02*
X161773752Y-80440000D01*
X160351248Y-82260000D02*
X161773752Y-82260000D01*
%TO.C,BT1*%
X164785000Y-79715000D02*
X164785000Y-84795000D01*
X164785000Y-79715000D02*
X167960000Y-76540000D01*
X164785000Y-82255000D02*
X164785000Y-79715000D01*
X164785000Y-84795000D02*
X167960000Y-87970000D01*
X168595000Y-72095000D02*
X168595000Y-72730000D01*
X168595000Y-72730000D02*
X168595000Y-76540000D01*
X168595000Y-91780000D02*
X168595000Y-87970000D01*
X168595000Y-92415000D02*
X168595000Y-91780000D01*
X170500000Y-76540000D02*
X167960000Y-76540000D01*
X170500000Y-76540000D02*
X176215000Y-76540000D01*
X172405000Y-72095000D02*
X168595000Y-72095000D01*
X172405000Y-72730000D02*
X172405000Y-72095000D01*
X172405000Y-76540000D02*
X172405000Y-72730000D01*
X172405000Y-87970000D02*
X172405000Y-91780000D01*
X172405000Y-91780000D02*
X172405000Y-92415000D01*
X172405000Y-92415000D02*
X168595000Y-92415000D01*
X176215000Y-76540000D02*
X176215000Y-77810000D01*
X176215000Y-87970000D02*
X167960000Y-87970000D01*
X176215000Y-87970000D02*
X176215000Y-86700000D01*
X176215001Y-86699999D02*
G75*
G02*
X176215001Y-77810001I4444999J4444999D01*
G01*
%TO.C,U5*%
X166650000Y-93590000D02*
X170410000Y-93590000D01*
X166650000Y-100410000D02*
X170410000Y-100410000D01*
X170410000Y-93590000D02*
X170410000Y-94850000D01*
X170410000Y-100410000D02*
X170410000Y-99150000D01*
X165370000Y-93690000D02*
X165130000Y-93360000D01*
X165610000Y-93360000D01*
X165370000Y-93690000D01*
G36*
X165370000Y-93690000D02*
G01*
X165130000Y-93360000D01*
X165610000Y-93360000D01*
X165370000Y-93690000D01*
G37*
%TO.C,Ultrasonic_sensor*%
X152910000Y-146330000D02*
X159260000Y-146330000D01*
X152910000Y-148870000D02*
X152910000Y-146330000D01*
X152910000Y-148870000D02*
X163070000Y-148870000D01*
X159260000Y-146330000D02*
X163070000Y-146330000D01*
X163070000Y-146330000D02*
X163070000Y-148870000D01*
%TO.C,R9*%
X160351248Y-83790000D02*
X161773752Y-83790000D01*
X160351248Y-85610000D02*
X161773752Y-85610000D01*
%TO.C,R10*%
X160351248Y-87140000D02*
X161773752Y-87140000D01*
X160351248Y-88960000D02*
X161773752Y-88960000D01*
%TO.C,SW1*%
X152290000Y-94240000D02*
X162510000Y-94240000D01*
X162510000Y-96960000D01*
X152290000Y-96960000D01*
X152290000Y-94240000D01*
%TO.C,R11*%
X160351248Y-90490000D02*
X161773752Y-90490000D01*
X160351248Y-92310000D02*
X161773752Y-92310000D01*
%TO.C,U2*%
X138335000Y-80990000D02*
X138590000Y-80990000D01*
X138335000Y-84850000D02*
X138335000Y-80990000D01*
X138335000Y-84850000D02*
X138335000Y-88710000D01*
X138335000Y-88710000D02*
X138590000Y-88710000D01*
X148855000Y-80990000D02*
X148600000Y-80990000D01*
X148855000Y-84850000D02*
X148855000Y-80990000D01*
X148855000Y-84850000D02*
X148855000Y-88710000D01*
X148855000Y-88710000D02*
X148600000Y-88710000D01*
X149070000Y-80477500D02*
X148600000Y-80137500D01*
X149070000Y-79797500D01*
X149070000Y-80477500D01*
G36*
X149070000Y-80477500D02*
G01*
X148600000Y-80137500D01*
X149070000Y-79797500D01*
X149070000Y-80477500D01*
G37*
%TD*%
M02*
