%TF.GenerationSoftware,KiCad,Pcbnew,8.0.4*%
%TF.CreationDate,2025-04-29T00:29:20-04:00*%
%TF.ProjectId,main_board,6d61696e-5f62-46f6-9172-642e6b696361,rev?*%
%TF.SameCoordinates,Original*%
%TF.FileFunction,Drillmap*%
%TF.FilePolarity,Positive*%
%FSLAX45Y45*%
G04 Gerber Fmt 4.5, Leading zero omitted, Abs format (unit mm)*
G04 Created by KiCad (PCBNEW 8.0.4) date 2025-04-29 00:29:20*
%MOMM*%
%LPD*%
G01*
G04 APERTURE LIST*
%ADD10C,0.050000*%
%ADD11C,0.200000*%
%ADD12C,0.100000*%
G04 APERTURE END LIST*
D10*
X17780000Y-14224000D02*
X17780000Y-7874000D01*
X13716000Y-7874000D02*
X13716000Y-14224000D01*
X13716000Y-14986000D02*
X13716000Y-14224000D01*
X13716000Y-7137400D02*
X17780000Y-7137400D01*
X13716000Y-14986000D02*
X17780000Y-14986000D01*
X17780000Y-7874000D02*
X17780000Y-7162800D01*
X17780000Y-14224000D02*
X17780000Y-14986000D01*
X17780000Y-7162800D02*
X17780000Y-7137400D01*
X13716000Y-7874000D02*
X13716000Y-7137400D01*
D11*
D12*
X17215000Y-7535000D02*
X17305000Y-7625000D01*
X17305000Y-7535000D02*
X17215000Y-7625000D01*
X17215000Y-8335000D02*
X17305000Y-8425000D01*
X17305000Y-8335000D02*
X17215000Y-8425000D01*
D11*
X13974277Y-15299984D02*
X13974277Y-15099984D01*
X13974277Y-15099984D02*
X14021896Y-15099984D01*
X14021896Y-15099984D02*
X14050467Y-15109508D01*
X14050467Y-15109508D02*
X14069515Y-15128555D01*
X14069515Y-15128555D02*
X14079039Y-15147603D01*
X14079039Y-15147603D02*
X14088562Y-15185698D01*
X14088562Y-15185698D02*
X14088562Y-15214269D01*
X14088562Y-15214269D02*
X14079039Y-15252365D01*
X14079039Y-15252365D02*
X14069515Y-15271412D01*
X14069515Y-15271412D02*
X14050467Y-15290460D01*
X14050467Y-15290460D02*
X14021896Y-15299984D01*
X14021896Y-15299984D02*
X13974277Y-15299984D01*
X14174277Y-15299984D02*
X14174277Y-15166650D01*
X14174277Y-15204746D02*
X14183801Y-15185698D01*
X14183801Y-15185698D02*
X14193324Y-15176174D01*
X14193324Y-15176174D02*
X14212372Y-15166650D01*
X14212372Y-15166650D02*
X14231420Y-15166650D01*
X14298086Y-15299984D02*
X14298086Y-15166650D01*
X14298086Y-15099984D02*
X14288562Y-15109508D01*
X14288562Y-15109508D02*
X14298086Y-15119031D01*
X14298086Y-15119031D02*
X14307610Y-15109508D01*
X14307610Y-15109508D02*
X14298086Y-15099984D01*
X14298086Y-15099984D02*
X14298086Y-15119031D01*
X14421896Y-15299984D02*
X14402848Y-15290460D01*
X14402848Y-15290460D02*
X14393324Y-15271412D01*
X14393324Y-15271412D02*
X14393324Y-15099984D01*
X14526658Y-15299984D02*
X14507610Y-15290460D01*
X14507610Y-15290460D02*
X14498086Y-15271412D01*
X14498086Y-15271412D02*
X14498086Y-15099984D01*
X14755229Y-15299984D02*
X14755229Y-15099984D01*
X14755229Y-15099984D02*
X14821896Y-15242841D01*
X14821896Y-15242841D02*
X14888562Y-15099984D01*
X14888562Y-15099984D02*
X14888562Y-15299984D01*
X15069515Y-15299984D02*
X15069515Y-15195222D01*
X15069515Y-15195222D02*
X15059991Y-15176174D01*
X15059991Y-15176174D02*
X15040943Y-15166650D01*
X15040943Y-15166650D02*
X15002848Y-15166650D01*
X15002848Y-15166650D02*
X14983801Y-15176174D01*
X15069515Y-15290460D02*
X15050467Y-15299984D01*
X15050467Y-15299984D02*
X15002848Y-15299984D01*
X15002848Y-15299984D02*
X14983801Y-15290460D01*
X14983801Y-15290460D02*
X14974277Y-15271412D01*
X14974277Y-15271412D02*
X14974277Y-15252365D01*
X14974277Y-15252365D02*
X14983801Y-15233317D01*
X14983801Y-15233317D02*
X15002848Y-15223793D01*
X15002848Y-15223793D02*
X15050467Y-15223793D01*
X15050467Y-15223793D02*
X15069515Y-15214269D01*
X15164753Y-15166650D02*
X15164753Y-15366650D01*
X15164753Y-15176174D02*
X15183801Y-15166650D01*
X15183801Y-15166650D02*
X15221896Y-15166650D01*
X15221896Y-15166650D02*
X15240943Y-15176174D01*
X15240943Y-15176174D02*
X15250467Y-15185698D01*
X15250467Y-15185698D02*
X15259991Y-15204746D01*
X15259991Y-15204746D02*
X15259991Y-15261888D01*
X15259991Y-15261888D02*
X15250467Y-15280936D01*
X15250467Y-15280936D02*
X15240943Y-15290460D01*
X15240943Y-15290460D02*
X15221896Y-15299984D01*
X15221896Y-15299984D02*
X15183801Y-15299984D01*
X15183801Y-15299984D02*
X15164753Y-15290460D01*
X15345705Y-15280936D02*
X15355229Y-15290460D01*
X15355229Y-15290460D02*
X15345705Y-15299984D01*
X15345705Y-15299984D02*
X15336182Y-15290460D01*
X15336182Y-15290460D02*
X15345705Y-15280936D01*
X15345705Y-15280936D02*
X15345705Y-15299984D01*
X15345705Y-15176174D02*
X15355229Y-15185698D01*
X15355229Y-15185698D02*
X15345705Y-15195222D01*
X15345705Y-15195222D02*
X15336182Y-15185698D01*
X15336182Y-15185698D02*
X15345705Y-15176174D01*
X15345705Y-15176174D02*
X15345705Y-15195222D01*
D12*
X13623500Y-15583500D02*
X13713500Y-15673500D01*
X13713500Y-15583500D02*
X13623500Y-15673500D01*
D11*
X14012372Y-15519984D02*
X14031420Y-15519984D01*
X14031420Y-15519984D02*
X14050467Y-15529508D01*
X14050467Y-15529508D02*
X14059991Y-15539031D01*
X14059991Y-15539031D02*
X14069515Y-15558079D01*
X14069515Y-15558079D02*
X14079039Y-15596174D01*
X14079039Y-15596174D02*
X14079039Y-15643793D01*
X14079039Y-15643793D02*
X14069515Y-15681888D01*
X14069515Y-15681888D02*
X14059991Y-15700936D01*
X14059991Y-15700936D02*
X14050467Y-15710460D01*
X14050467Y-15710460D02*
X14031420Y-15719984D01*
X14031420Y-15719984D02*
X14012372Y-15719984D01*
X14012372Y-15719984D02*
X13993324Y-15710460D01*
X13993324Y-15710460D02*
X13983801Y-15700936D01*
X13983801Y-15700936D02*
X13974277Y-15681888D01*
X13974277Y-15681888D02*
X13964753Y-15643793D01*
X13964753Y-15643793D02*
X13964753Y-15596174D01*
X13964753Y-15596174D02*
X13974277Y-15558079D01*
X13974277Y-15558079D02*
X13983801Y-15539031D01*
X13983801Y-15539031D02*
X13993324Y-15529508D01*
X13993324Y-15529508D02*
X14012372Y-15519984D01*
X14164753Y-15700936D02*
X14174277Y-15710460D01*
X14174277Y-15710460D02*
X14164753Y-15719984D01*
X14164753Y-15719984D02*
X14155229Y-15710460D01*
X14155229Y-15710460D02*
X14164753Y-15700936D01*
X14164753Y-15700936D02*
X14164753Y-15719984D01*
X14269515Y-15719984D02*
X14307610Y-15719984D01*
X14307610Y-15719984D02*
X14326658Y-15710460D01*
X14326658Y-15710460D02*
X14336182Y-15700936D01*
X14336182Y-15700936D02*
X14355229Y-15672365D01*
X14355229Y-15672365D02*
X14364753Y-15634269D01*
X14364753Y-15634269D02*
X14364753Y-15558079D01*
X14364753Y-15558079D02*
X14355229Y-15539031D01*
X14355229Y-15539031D02*
X14345705Y-15529508D01*
X14345705Y-15529508D02*
X14326658Y-15519984D01*
X14326658Y-15519984D02*
X14288562Y-15519984D01*
X14288562Y-15519984D02*
X14269515Y-15529508D01*
X14269515Y-15529508D02*
X14259991Y-15539031D01*
X14259991Y-15539031D02*
X14250467Y-15558079D01*
X14250467Y-15558079D02*
X14250467Y-15605698D01*
X14250467Y-15605698D02*
X14259991Y-15624746D01*
X14259991Y-15624746D02*
X14269515Y-15634269D01*
X14269515Y-15634269D02*
X14288562Y-15643793D01*
X14288562Y-15643793D02*
X14326658Y-15643793D01*
X14326658Y-15643793D02*
X14345705Y-15634269D01*
X14345705Y-15634269D02*
X14355229Y-15624746D01*
X14355229Y-15624746D02*
X14364753Y-15605698D01*
X14488562Y-15519984D02*
X14507610Y-15519984D01*
X14507610Y-15519984D02*
X14526658Y-15529508D01*
X14526658Y-15529508D02*
X14536182Y-15539031D01*
X14536182Y-15539031D02*
X14545705Y-15558079D01*
X14545705Y-15558079D02*
X14555229Y-15596174D01*
X14555229Y-15596174D02*
X14555229Y-15643793D01*
X14555229Y-15643793D02*
X14545705Y-15681888D01*
X14545705Y-15681888D02*
X14536182Y-15700936D01*
X14536182Y-15700936D02*
X14526658Y-15710460D01*
X14526658Y-15710460D02*
X14507610Y-15719984D01*
X14507610Y-15719984D02*
X14488562Y-15719984D01*
X14488562Y-15719984D02*
X14469515Y-15710460D01*
X14469515Y-15710460D02*
X14459991Y-15700936D01*
X14459991Y-15700936D02*
X14450467Y-15681888D01*
X14450467Y-15681888D02*
X14440943Y-15643793D01*
X14440943Y-15643793D02*
X14440943Y-15596174D01*
X14440943Y-15596174D02*
X14450467Y-15558079D01*
X14450467Y-15558079D02*
X14459991Y-15539031D01*
X14459991Y-15539031D02*
X14469515Y-15529508D01*
X14469515Y-15529508D02*
X14488562Y-15519984D01*
X14679039Y-15519984D02*
X14698086Y-15519984D01*
X14698086Y-15519984D02*
X14717134Y-15529508D01*
X14717134Y-15529508D02*
X14726658Y-15539031D01*
X14726658Y-15539031D02*
X14736182Y-15558079D01*
X14736182Y-15558079D02*
X14745705Y-15596174D01*
X14745705Y-15596174D02*
X14745705Y-15643793D01*
X14745705Y-15643793D02*
X14736182Y-15681888D01*
X14736182Y-15681888D02*
X14726658Y-15700936D01*
X14726658Y-15700936D02*
X14717134Y-15710460D01*
X14717134Y-15710460D02*
X14698086Y-15719984D01*
X14698086Y-15719984D02*
X14679039Y-15719984D01*
X14679039Y-15719984D02*
X14659991Y-15710460D01*
X14659991Y-15710460D02*
X14650467Y-15700936D01*
X14650467Y-15700936D02*
X14640943Y-15681888D01*
X14640943Y-15681888D02*
X14631420Y-15643793D01*
X14631420Y-15643793D02*
X14631420Y-15596174D01*
X14631420Y-15596174D02*
X14640943Y-15558079D01*
X14640943Y-15558079D02*
X14650467Y-15539031D01*
X14650467Y-15539031D02*
X14659991Y-15529508D01*
X14659991Y-15529508D02*
X14679039Y-15519984D01*
X14831420Y-15719984D02*
X14831420Y-15586650D01*
X14831420Y-15605698D02*
X14840943Y-15596174D01*
X14840943Y-15596174D02*
X14859991Y-15586650D01*
X14859991Y-15586650D02*
X14888563Y-15586650D01*
X14888563Y-15586650D02*
X14907610Y-15596174D01*
X14907610Y-15596174D02*
X14917134Y-15615222D01*
X14917134Y-15615222D02*
X14917134Y-15719984D01*
X14917134Y-15615222D02*
X14926658Y-15596174D01*
X14926658Y-15596174D02*
X14945705Y-15586650D01*
X14945705Y-15586650D02*
X14974277Y-15586650D01*
X14974277Y-15586650D02*
X14993324Y-15596174D01*
X14993324Y-15596174D02*
X15002848Y-15615222D01*
X15002848Y-15615222D02*
X15002848Y-15719984D01*
X15098086Y-15719984D02*
X15098086Y-15586650D01*
X15098086Y-15605698D02*
X15107610Y-15596174D01*
X15107610Y-15596174D02*
X15126658Y-15586650D01*
X15126658Y-15586650D02*
X15155229Y-15586650D01*
X15155229Y-15586650D02*
X15174277Y-15596174D01*
X15174277Y-15596174D02*
X15183801Y-15615222D01*
X15183801Y-15615222D02*
X15183801Y-15719984D01*
X15183801Y-15615222D02*
X15193324Y-15596174D01*
X15193324Y-15596174D02*
X15212372Y-15586650D01*
X15212372Y-15586650D02*
X15240943Y-15586650D01*
X15240943Y-15586650D02*
X15259991Y-15596174D01*
X15259991Y-15596174D02*
X15269515Y-15615222D01*
X15269515Y-15615222D02*
X15269515Y-15719984D01*
X15659991Y-15510460D02*
X15488563Y-15767603D01*
X15917134Y-15519984D02*
X15936182Y-15519984D01*
X15936182Y-15519984D02*
X15955229Y-15529508D01*
X15955229Y-15529508D02*
X15964753Y-15539031D01*
X15964753Y-15539031D02*
X15974277Y-15558079D01*
X15974277Y-15558079D02*
X15983801Y-15596174D01*
X15983801Y-15596174D02*
X15983801Y-15643793D01*
X15983801Y-15643793D02*
X15974277Y-15681888D01*
X15974277Y-15681888D02*
X15964753Y-15700936D01*
X15964753Y-15700936D02*
X15955229Y-15710460D01*
X15955229Y-15710460D02*
X15936182Y-15719984D01*
X15936182Y-15719984D02*
X15917134Y-15719984D01*
X15917134Y-15719984D02*
X15898086Y-15710460D01*
X15898086Y-15710460D02*
X15888563Y-15700936D01*
X15888563Y-15700936D02*
X15879039Y-15681888D01*
X15879039Y-15681888D02*
X15869515Y-15643793D01*
X15869515Y-15643793D02*
X15869515Y-15596174D01*
X15869515Y-15596174D02*
X15879039Y-15558079D01*
X15879039Y-15558079D02*
X15888563Y-15539031D01*
X15888563Y-15539031D02*
X15898086Y-15529508D01*
X15898086Y-15529508D02*
X15917134Y-15519984D01*
X16069515Y-15700936D02*
X16079039Y-15710460D01*
X16079039Y-15710460D02*
X16069515Y-15719984D01*
X16069515Y-15719984D02*
X16059991Y-15710460D01*
X16059991Y-15710460D02*
X16069515Y-15700936D01*
X16069515Y-15700936D02*
X16069515Y-15719984D01*
X16202848Y-15519984D02*
X16221896Y-15519984D01*
X16221896Y-15519984D02*
X16240944Y-15529508D01*
X16240944Y-15529508D02*
X16250467Y-15539031D01*
X16250467Y-15539031D02*
X16259991Y-15558079D01*
X16259991Y-15558079D02*
X16269515Y-15596174D01*
X16269515Y-15596174D02*
X16269515Y-15643793D01*
X16269515Y-15643793D02*
X16259991Y-15681888D01*
X16259991Y-15681888D02*
X16250467Y-15700936D01*
X16250467Y-15700936D02*
X16240944Y-15710460D01*
X16240944Y-15710460D02*
X16221896Y-15719984D01*
X16221896Y-15719984D02*
X16202848Y-15719984D01*
X16202848Y-15719984D02*
X16183801Y-15710460D01*
X16183801Y-15710460D02*
X16174277Y-15700936D01*
X16174277Y-15700936D02*
X16164753Y-15681888D01*
X16164753Y-15681888D02*
X16155229Y-15643793D01*
X16155229Y-15643793D02*
X16155229Y-15596174D01*
X16155229Y-15596174D02*
X16164753Y-15558079D01*
X16164753Y-15558079D02*
X16174277Y-15539031D01*
X16174277Y-15539031D02*
X16183801Y-15529508D01*
X16183801Y-15529508D02*
X16202848Y-15519984D01*
X16336182Y-15519984D02*
X16459991Y-15519984D01*
X16459991Y-15519984D02*
X16393325Y-15596174D01*
X16393325Y-15596174D02*
X16421896Y-15596174D01*
X16421896Y-15596174D02*
X16440944Y-15605698D01*
X16440944Y-15605698D02*
X16450467Y-15615222D01*
X16450467Y-15615222D02*
X16459991Y-15634269D01*
X16459991Y-15634269D02*
X16459991Y-15681888D01*
X16459991Y-15681888D02*
X16450467Y-15700936D01*
X16450467Y-15700936D02*
X16440944Y-15710460D01*
X16440944Y-15710460D02*
X16421896Y-15719984D01*
X16421896Y-15719984D02*
X16364753Y-15719984D01*
X16364753Y-15719984D02*
X16345706Y-15710460D01*
X16345706Y-15710460D02*
X16336182Y-15700936D01*
X16640944Y-15519984D02*
X16545706Y-15519984D01*
X16545706Y-15519984D02*
X16536182Y-15615222D01*
X16536182Y-15615222D02*
X16545706Y-15605698D01*
X16545706Y-15605698D02*
X16564753Y-15596174D01*
X16564753Y-15596174D02*
X16612372Y-15596174D01*
X16612372Y-15596174D02*
X16631420Y-15605698D01*
X16631420Y-15605698D02*
X16640944Y-15615222D01*
X16640944Y-15615222D02*
X16650467Y-15634269D01*
X16650467Y-15634269D02*
X16650467Y-15681888D01*
X16650467Y-15681888D02*
X16640944Y-15700936D01*
X16640944Y-15700936D02*
X16631420Y-15710460D01*
X16631420Y-15710460D02*
X16612372Y-15719984D01*
X16612372Y-15719984D02*
X16564753Y-15719984D01*
X16564753Y-15719984D02*
X16545706Y-15710460D01*
X16545706Y-15710460D02*
X16536182Y-15700936D01*
X16821896Y-15586650D02*
X16821896Y-15719984D01*
X16774277Y-15510460D02*
X16726658Y-15653317D01*
X16726658Y-15653317D02*
X16850468Y-15653317D01*
X16917134Y-15519984D02*
X16917134Y-15558079D01*
X16993325Y-15519984D02*
X16993325Y-15558079D01*
X17288563Y-15796174D02*
X17279039Y-15786650D01*
X17279039Y-15786650D02*
X17259991Y-15758079D01*
X17259991Y-15758079D02*
X17250468Y-15739031D01*
X17250468Y-15739031D02*
X17240944Y-15710460D01*
X17240944Y-15710460D02*
X17231420Y-15662841D01*
X17231420Y-15662841D02*
X17231420Y-15624746D01*
X17231420Y-15624746D02*
X17240944Y-15577127D01*
X17240944Y-15577127D02*
X17250468Y-15548555D01*
X17250468Y-15548555D02*
X17259991Y-15529508D01*
X17259991Y-15529508D02*
X17279039Y-15500936D01*
X17279039Y-15500936D02*
X17288563Y-15491412D01*
X17355230Y-15539031D02*
X17364753Y-15529508D01*
X17364753Y-15529508D02*
X17383801Y-15519984D01*
X17383801Y-15519984D02*
X17431420Y-15519984D01*
X17431420Y-15519984D02*
X17450468Y-15529508D01*
X17450468Y-15529508D02*
X17459991Y-15539031D01*
X17459991Y-15539031D02*
X17469515Y-15558079D01*
X17469515Y-15558079D02*
X17469515Y-15577127D01*
X17469515Y-15577127D02*
X17459991Y-15605698D01*
X17459991Y-15605698D02*
X17345706Y-15719984D01*
X17345706Y-15719984D02*
X17469515Y-15719984D01*
X17707611Y-15719984D02*
X17707611Y-15519984D01*
X17793325Y-15719984D02*
X17793325Y-15615222D01*
X17793325Y-15615222D02*
X17783801Y-15596174D01*
X17783801Y-15596174D02*
X17764753Y-15586650D01*
X17764753Y-15586650D02*
X17736182Y-15586650D01*
X17736182Y-15586650D02*
X17717134Y-15596174D01*
X17717134Y-15596174D02*
X17707611Y-15605698D01*
X17917134Y-15719984D02*
X17898087Y-15710460D01*
X17898087Y-15710460D02*
X17888563Y-15700936D01*
X17888563Y-15700936D02*
X17879039Y-15681888D01*
X17879039Y-15681888D02*
X17879039Y-15624746D01*
X17879039Y-15624746D02*
X17888563Y-15605698D01*
X17888563Y-15605698D02*
X17898087Y-15596174D01*
X17898087Y-15596174D02*
X17917134Y-15586650D01*
X17917134Y-15586650D02*
X17945706Y-15586650D01*
X17945706Y-15586650D02*
X17964753Y-15596174D01*
X17964753Y-15596174D02*
X17974277Y-15605698D01*
X17974277Y-15605698D02*
X17983801Y-15624746D01*
X17983801Y-15624746D02*
X17983801Y-15681888D01*
X17983801Y-15681888D02*
X17974277Y-15700936D01*
X17974277Y-15700936D02*
X17964753Y-15710460D01*
X17964753Y-15710460D02*
X17945706Y-15719984D01*
X17945706Y-15719984D02*
X17917134Y-15719984D01*
X18098087Y-15719984D02*
X18079039Y-15710460D01*
X18079039Y-15710460D02*
X18069515Y-15691412D01*
X18069515Y-15691412D02*
X18069515Y-15519984D01*
X18250468Y-15710460D02*
X18231420Y-15719984D01*
X18231420Y-15719984D02*
X18193325Y-15719984D01*
X18193325Y-15719984D02*
X18174277Y-15710460D01*
X18174277Y-15710460D02*
X18164753Y-15691412D01*
X18164753Y-15691412D02*
X18164753Y-15615222D01*
X18164753Y-15615222D02*
X18174277Y-15596174D01*
X18174277Y-15596174D02*
X18193325Y-15586650D01*
X18193325Y-15586650D02*
X18231420Y-15586650D01*
X18231420Y-15586650D02*
X18250468Y-15596174D01*
X18250468Y-15596174D02*
X18259992Y-15615222D01*
X18259992Y-15615222D02*
X18259992Y-15634269D01*
X18259992Y-15634269D02*
X18164753Y-15653317D01*
X18336182Y-15710460D02*
X18355230Y-15719984D01*
X18355230Y-15719984D02*
X18393325Y-15719984D01*
X18393325Y-15719984D02*
X18412373Y-15710460D01*
X18412373Y-15710460D02*
X18421896Y-15691412D01*
X18421896Y-15691412D02*
X18421896Y-15681888D01*
X18421896Y-15681888D02*
X18412373Y-15662841D01*
X18412373Y-15662841D02*
X18393325Y-15653317D01*
X18393325Y-15653317D02*
X18364753Y-15653317D01*
X18364753Y-15653317D02*
X18345706Y-15643793D01*
X18345706Y-15643793D02*
X18336182Y-15624746D01*
X18336182Y-15624746D02*
X18336182Y-15615222D01*
X18336182Y-15615222D02*
X18345706Y-15596174D01*
X18345706Y-15596174D02*
X18364753Y-15586650D01*
X18364753Y-15586650D02*
X18393325Y-15586650D01*
X18393325Y-15586650D02*
X18412373Y-15596174D01*
X18488563Y-15796174D02*
X18498087Y-15786650D01*
X18498087Y-15786650D02*
X18517134Y-15758079D01*
X18517134Y-15758079D02*
X18526658Y-15739031D01*
X18526658Y-15739031D02*
X18536182Y-15710460D01*
X18536182Y-15710460D02*
X18545706Y-15662841D01*
X18545706Y-15662841D02*
X18545706Y-15624746D01*
X18545706Y-15624746D02*
X18536182Y-15577127D01*
X18536182Y-15577127D02*
X18526658Y-15548555D01*
X18526658Y-15548555D02*
X18517134Y-15529508D01*
X18517134Y-15529508D02*
X18498087Y-15500936D01*
X18498087Y-15500936D02*
X18488563Y-15491412D01*
X18850468Y-15796174D02*
X18840944Y-15786650D01*
X18840944Y-15786650D02*
X18821896Y-15758079D01*
X18821896Y-15758079D02*
X18812373Y-15739031D01*
X18812373Y-15739031D02*
X18802849Y-15710460D01*
X18802849Y-15710460D02*
X18793325Y-15662841D01*
X18793325Y-15662841D02*
X18793325Y-15624746D01*
X18793325Y-15624746D02*
X18802849Y-15577127D01*
X18802849Y-15577127D02*
X18812373Y-15548555D01*
X18812373Y-15548555D02*
X18821896Y-15529508D01*
X18821896Y-15529508D02*
X18840944Y-15500936D01*
X18840944Y-15500936D02*
X18850468Y-15491412D01*
X18926658Y-15586650D02*
X18926658Y-15719984D01*
X18926658Y-15605698D02*
X18936182Y-15596174D01*
X18936182Y-15596174D02*
X18955230Y-15586650D01*
X18955230Y-15586650D02*
X18983801Y-15586650D01*
X18983801Y-15586650D02*
X19002849Y-15596174D01*
X19002849Y-15596174D02*
X19012373Y-15615222D01*
X19012373Y-15615222D02*
X19012373Y-15719984D01*
X19136182Y-15719984D02*
X19117134Y-15710460D01*
X19117134Y-15710460D02*
X19107611Y-15700936D01*
X19107611Y-15700936D02*
X19098087Y-15681888D01*
X19098087Y-15681888D02*
X19098087Y-15624746D01*
X19098087Y-15624746D02*
X19107611Y-15605698D01*
X19107611Y-15605698D02*
X19117134Y-15596174D01*
X19117134Y-15596174D02*
X19136182Y-15586650D01*
X19136182Y-15586650D02*
X19164754Y-15586650D01*
X19164754Y-15586650D02*
X19183801Y-15596174D01*
X19183801Y-15596174D02*
X19193325Y-15605698D01*
X19193325Y-15605698D02*
X19202849Y-15624746D01*
X19202849Y-15624746D02*
X19202849Y-15681888D01*
X19202849Y-15681888D02*
X19193325Y-15700936D01*
X19193325Y-15700936D02*
X19183801Y-15710460D01*
X19183801Y-15710460D02*
X19164754Y-15719984D01*
X19164754Y-15719984D02*
X19136182Y-15719984D01*
X19259992Y-15586650D02*
X19336182Y-15586650D01*
X19288563Y-15519984D02*
X19288563Y-15691412D01*
X19288563Y-15691412D02*
X19298087Y-15710460D01*
X19298087Y-15710460D02*
X19317134Y-15719984D01*
X19317134Y-15719984D02*
X19336182Y-15719984D01*
X19555230Y-15586650D02*
X19555230Y-15786650D01*
X19555230Y-15596174D02*
X19574277Y-15586650D01*
X19574277Y-15586650D02*
X19612373Y-15586650D01*
X19612373Y-15586650D02*
X19631420Y-15596174D01*
X19631420Y-15596174D02*
X19640944Y-15605698D01*
X19640944Y-15605698D02*
X19650468Y-15624746D01*
X19650468Y-15624746D02*
X19650468Y-15681888D01*
X19650468Y-15681888D02*
X19640944Y-15700936D01*
X19640944Y-15700936D02*
X19631420Y-15710460D01*
X19631420Y-15710460D02*
X19612373Y-15719984D01*
X19612373Y-15719984D02*
X19574277Y-15719984D01*
X19574277Y-15719984D02*
X19555230Y-15710460D01*
X19764754Y-15719984D02*
X19745706Y-15710460D01*
X19745706Y-15710460D02*
X19736182Y-15691412D01*
X19736182Y-15691412D02*
X19736182Y-15519984D01*
X19926658Y-15719984D02*
X19926658Y-15615222D01*
X19926658Y-15615222D02*
X19917135Y-15596174D01*
X19917135Y-15596174D02*
X19898087Y-15586650D01*
X19898087Y-15586650D02*
X19859992Y-15586650D01*
X19859992Y-15586650D02*
X19840944Y-15596174D01*
X19926658Y-15710460D02*
X19907611Y-15719984D01*
X19907611Y-15719984D02*
X19859992Y-15719984D01*
X19859992Y-15719984D02*
X19840944Y-15710460D01*
X19840944Y-15710460D02*
X19831420Y-15691412D01*
X19831420Y-15691412D02*
X19831420Y-15672365D01*
X19831420Y-15672365D02*
X19840944Y-15653317D01*
X19840944Y-15653317D02*
X19859992Y-15643793D01*
X19859992Y-15643793D02*
X19907611Y-15643793D01*
X19907611Y-15643793D02*
X19926658Y-15634269D01*
X19993325Y-15586650D02*
X20069515Y-15586650D01*
X20021896Y-15519984D02*
X20021896Y-15691412D01*
X20021896Y-15691412D02*
X20031420Y-15710460D01*
X20031420Y-15710460D02*
X20050468Y-15719984D01*
X20050468Y-15719984D02*
X20069515Y-15719984D01*
X20212373Y-15710460D02*
X20193325Y-15719984D01*
X20193325Y-15719984D02*
X20155230Y-15719984D01*
X20155230Y-15719984D02*
X20136182Y-15710460D01*
X20136182Y-15710460D02*
X20126658Y-15691412D01*
X20126658Y-15691412D02*
X20126658Y-15615222D01*
X20126658Y-15615222D02*
X20136182Y-15596174D01*
X20136182Y-15596174D02*
X20155230Y-15586650D01*
X20155230Y-15586650D02*
X20193325Y-15586650D01*
X20193325Y-15586650D02*
X20212373Y-15596174D01*
X20212373Y-15596174D02*
X20221896Y-15615222D01*
X20221896Y-15615222D02*
X20221896Y-15634269D01*
X20221896Y-15634269D02*
X20126658Y-15653317D01*
X20393325Y-15719984D02*
X20393325Y-15519984D01*
X20393325Y-15710460D02*
X20374277Y-15719984D01*
X20374277Y-15719984D02*
X20336182Y-15719984D01*
X20336182Y-15719984D02*
X20317135Y-15710460D01*
X20317135Y-15710460D02*
X20307611Y-15700936D01*
X20307611Y-15700936D02*
X20298087Y-15681888D01*
X20298087Y-15681888D02*
X20298087Y-15624746D01*
X20298087Y-15624746D02*
X20307611Y-15605698D01*
X20307611Y-15605698D02*
X20317135Y-15596174D01*
X20317135Y-15596174D02*
X20336182Y-15586650D01*
X20336182Y-15586650D02*
X20374277Y-15586650D01*
X20374277Y-15586650D02*
X20393325Y-15596174D01*
X20469516Y-15796174D02*
X20479039Y-15786650D01*
X20479039Y-15786650D02*
X20498087Y-15758079D01*
X20498087Y-15758079D02*
X20507611Y-15739031D01*
X20507611Y-15739031D02*
X20517135Y-15710460D01*
X20517135Y-15710460D02*
X20526658Y-15662841D01*
X20526658Y-15662841D02*
X20526658Y-15624746D01*
X20526658Y-15624746D02*
X20517135Y-15577127D01*
X20517135Y-15577127D02*
X20507611Y-15548555D01*
X20507611Y-15548555D02*
X20498087Y-15529508D01*
X20498087Y-15529508D02*
X20479039Y-15500936D01*
X20479039Y-15500936D02*
X20469516Y-15491412D01*
M02*
