%TF.GenerationSoftware,KiCad,Pcbnew,8.0.8*%
%TF.CreationDate,2025-10-13T13:19:02-04:00*%
%TF.ProjectId,main_board,6d61696e-5f62-46f6-9172-642e6b696361,rev?*%
%TF.SameCoordinates,Original*%
%TF.FileFunction,Copper,L2,Bot*%
%TF.FilePolarity,Positive*%
%FSLAX46Y46*%
G04 Gerber Fmt 4.6, Leading zero omitted, Abs format (unit mm)*
G04 Created by KiCad (PCBNEW 8.0.8) date 2025-10-13 13:19:02*
%MOMM*%
%LPD*%
G01*
G04 APERTURE LIST*
G04 Aperture macros list*
%AMRoundRect*
0 Rectangle with rounded corners*
0 $1 Rounding radius*
0 $2 $3 $4 $5 $6 $7 $8 $9 X,Y pos of 4 corners*
0 Add a 4 corners polygon primitive as box body*
4,1,4,$2,$3,$4,$5,$6,$7,$8,$9,$2,$3,0*
0 Add four circle primitives for the rounded corners*
1,1,$1+$1,$2,$3*
1,1,$1+$1,$4,$5*
1,1,$1+$1,$6,$7*
1,1,$1+$1,$8,$9*
0 Add four rect primitives between the rounded corners*
20,1,$1+$1,$2,$3,$4,$5,0*
20,1,$1+$1,$4,$5,$6,$7,0*
20,1,$1+$1,$6,$7,$8,$9,0*
20,1,$1+$1,$8,$9,$2,$3,0*%
G04 Aperture macros list end*
%TA.AperFunction,ComponentPad*%
%ADD10R,1.800000X1.800000*%
%TD*%
%TA.AperFunction,ComponentPad*%
%ADD11C,1.800000*%
%TD*%
%TA.AperFunction,ComponentPad*%
%ADD12C,1.600000*%
%TD*%
%TA.AperFunction,ComponentPad*%
%ADD13R,1.600000X1.600000*%
%TD*%
%TA.AperFunction,ComponentPad*%
%ADD14O,1.600000X1.600000*%
%TD*%
%TA.AperFunction,ComponentPad*%
%ADD15R,1.500000X1.500000*%
%TD*%
%TA.AperFunction,ComponentPad*%
%ADD16R,1.200000X1.200000*%
%TD*%
%TA.AperFunction,ComponentPad*%
%ADD17C,1.200000*%
%TD*%
%TA.AperFunction,ComponentPad*%
%ADD18R,1.508000X1.508000*%
%TD*%
%TA.AperFunction,ComponentPad*%
%ADD19C,1.508000*%
%TD*%
%TA.AperFunction,ComponentPad*%
%ADD20C,1.524000*%
%TD*%
%TA.AperFunction,SMDPad,CuDef*%
%ADD21RoundRect,0.250000X-0.412500X-0.650000X0.412500X-0.650000X0.412500X0.650000X-0.412500X0.650000X0*%
%TD*%
%TA.AperFunction,SMDPad,CuDef*%
%ADD22RoundRect,0.250000X-0.625000X0.375000X-0.625000X-0.375000X0.625000X-0.375000X0.625000X0.375000X0*%
%TD*%
%TA.AperFunction,ComponentPad*%
%ADD23R,1.700000X1.700000*%
%TD*%
%TA.AperFunction,ComponentPad*%
%ADD24O,1.700000X1.700000*%
%TD*%
%TA.AperFunction,SMDPad,CuDef*%
%ADD25R,1.600000X0.700000*%
%TD*%
%TA.AperFunction,SMDPad,CuDef*%
%ADD26R,1.600000X1.400000*%
%TD*%
%TA.AperFunction,SMDPad,CuDef*%
%ADD27R,2.200000X1.400000*%
%TD*%
%TA.AperFunction,SMDPad,CuDef*%
%ADD28R,1.400000X1.800000*%
%TD*%
%TA.AperFunction,ViaPad*%
%ADD29C,0.800000*%
%TD*%
%TA.AperFunction,Conductor*%
%ADD30C,0.250000*%
%TD*%
G04 APERTURE END LIST*
D10*
%TO.P,D2,1,K*%
%TO.N,GND*%
X141925000Y-95100000D03*
D11*
%TO.P,D2,2,A*%
%TO.N,Net-(D2-A)*%
X144465000Y-95100000D03*
%TD*%
D12*
%TO.P,nRF24L01+1,1,3.3V*%
%TO.N,3V3*%
X139150000Y-75705000D03*
%TO.P,nRF24L01+1,2,CSN*%
%TO.N,nRF_CS*%
X141690000Y-75705000D03*
%TO.P,nRF24L01+1,3,MOSI*%
%TO.N,MOSI*%
X144230000Y-75705000D03*
%TO.P,nRF24L01+1,4,IRQ*%
%TO.N,unconnected-(nRF24L01+1-IRQ-Pad4)*%
X146770000Y-75705000D03*
%TO.P,nRF24L01+1,5,GND*%
%TO.N,GND*%
X139150000Y-73165000D03*
%TO.P,nRF24L01+1,6,CE*%
%TO.N,nRF_CE*%
X141690000Y-73165000D03*
%TO.P,nRF24L01+1,7,SCK*%
%TO.N,SCK*%
X144230000Y-73165000D03*
%TO.P,nRF24L01+1,8,MISO*%
%TO.N,MISO*%
X146770000Y-73165000D03*
%TD*%
D13*
%TO.P,A1,1,D1/TX*%
%TO.N,unconnected-(A1-D1{slash}TX-Pad1)*%
X144390000Y-102250000D03*
D14*
%TO.P,A1,2,D0/RX*%
%TO.N,unconnected-(A1-D0{slash}RX-Pad2)*%
X144390000Y-104790000D03*
%TO.P,A1,3,~{RESET}*%
%TO.N,unconnected-(A1-~{RESET}-Pad3)*%
X144390000Y-107330000D03*
%TO.P,A1,4,GND*%
%TO.N,GND*%
X144390000Y-109870000D03*
%TO.P,A1,5,D2*%
%TO.N,Net-(A1-D2)*%
X144390000Y-112410000D03*
%TO.P,A1,6,D3*%
%TO.N,unconnected-(A1-D3-Pad6)*%
X144390000Y-114950000D03*
%TO.P,A1,7,D4*%
%TO.N,unconnected-(A1-D4-Pad7)*%
X144390000Y-117490000D03*
%TO.P,A1,8,D5*%
%TO.N,unconnected-(A1-D5-Pad8)*%
X144390000Y-120030000D03*
%TO.P,A1,9,D6*%
%TO.N,nRF_CE*%
X144390000Y-122570000D03*
%TO.P,A1,10,D7*%
%TO.N,nRF_CS*%
X144390000Y-125110000D03*
%TO.P,A1,11,D8*%
%TO.N,Net-(A1-D8)*%
X144390000Y-127650000D03*
%TO.P,A1,12,D9*%
%TO.N,Net-(A1-D9)*%
X144390000Y-130190000D03*
%TO.P,A1,13,D10*%
%TO.N,SD_CS*%
X144390000Y-132730000D03*
%TO.P,A1,14,D11*%
%TO.N,MOSI*%
X144390000Y-135270000D03*
%TO.P,A1,15,D12*%
%TO.N,MISO*%
X144390000Y-137810000D03*
%TO.P,A1,16,D13*%
%TO.N,SCK*%
X159630000Y-137810000D03*
%TO.P,A1,17,3V3*%
%TO.N,3V3*%
X159630000Y-135270000D03*
%TO.P,A1,18,AREF*%
%TO.N,unconnected-(A1-AREF-Pad18)*%
X159630000Y-132730000D03*
%TO.P,A1,19,A0*%
%TO.N,unconnected-(A1-A0-Pad19)*%
X159630000Y-130190000D03*
%TO.P,A1,20,A1*%
%TO.N,unconnected-(A1-A1-Pad20)*%
X159630000Y-127650000D03*
%TO.P,A1,21,A2*%
%TO.N,unconnected-(A1-A2-Pad21)*%
X159630000Y-125110000D03*
%TO.P,A1,22,A3*%
%TO.N,Net-(A1-A3)*%
X159630000Y-122570000D03*
%TO.P,A1,23,A4*%
%TO.N,Net-(A1-A4)*%
X159630000Y-120030000D03*
%TO.P,A1,24,A5*%
%TO.N,Net-(A1-A5)*%
X159630000Y-117490000D03*
%TO.P,A1,25,A6*%
%TO.N,unconnected-(A1-A6-Pad25)*%
X159630000Y-114950000D03*
%TO.P,A1,26,A7*%
%TO.N,unconnected-(A1-A7-Pad26)*%
X159630000Y-112410000D03*
%TO.P,A1,27,+5V*%
%TO.N,5V*%
X159630000Y-109870000D03*
%TO.P,A1,28,~{RESET}*%
%TO.N,unconnected-(A1-~{RESET}-Pad28)*%
X159630000Y-107330000D03*
%TO.P,A1,29,GND*%
%TO.N,GND*%
X159630000Y-104790000D03*
%TO.P,A1,30,VIN*%
%TO.N,unconnected-(A1-VIN-Pad30)*%
X159630000Y-102250000D03*
%TD*%
D15*
%TO.P,SW1,1,B*%
%TO.N,Net-(SW1-B)*%
X157260000Y-94900000D03*
D12*
%TO.P,SW1,2,C*%
%TO.N,Net-(D1-K)*%
X154720000Y-94900000D03*
%TO.P,SW1,3,A*%
%TO.N,unconnected-(SW1-A-Pad3)*%
X159800000Y-94900000D03*
%TD*%
D16*
%TO.P,C5,1*%
%TO.N,3V3*%
X155027400Y-74500000D03*
D17*
%TO.P,C5,2*%
%TO.N,GND*%
X157027400Y-74500000D03*
%TD*%
D18*
%TO.P,J1,1,1*%
%TO.N,Net-(U1-B+)*%
X168200000Y-145925000D03*
D19*
%TO.P,J1,2,2*%
%TO.N,Net-(U1-BM)*%
X170700000Y-145925000D03*
%TO.P,J1,3,3*%
%TO.N,Net-(U1-B-)*%
X173200000Y-145925000D03*
%TD*%
D20*
%TO.P,U1,1,P-*%
%TO.N,GND*%
X174700000Y-138560000D03*
%TO.P,U1,2,P+*%
%TO.N,Net-(D1-K)*%
X169620000Y-138560000D03*
%TO.P,U1,3,B-*%
%TO.N,Net-(U1-B-)*%
X174700000Y-103000000D03*
%TO.P,U1,4,BM*%
%TO.N,Net-(U1-BM)*%
X164540000Y-138560000D03*
%TO.P,U1,5,B+*%
%TO.N,Net-(U1-B+)*%
X164540000Y-103000000D03*
%TD*%
%TO.P,U4,1,VIN*%
%TO.N,3V3*%
X146722500Y-145327500D03*
%TO.P,U4,2,GND*%
%TO.N,GND*%
X144182500Y-145327500D03*
%TO.P,U4,3,SCL*%
%TO.N,Net-(A1-A5)*%
X141642500Y-145327500D03*
%TO.P,U4,4,SDA*%
%TO.N,Net-(A1-A4)*%
X139102500Y-145327500D03*
%TD*%
D21*
%TO.P,C6,1*%
%TO.N,3V3*%
X154337500Y-78500000D03*
%TO.P,C6,2*%
%TO.N,GND*%
X157462500Y-78500000D03*
%TD*%
D22*
%TO.P,D1,1,K*%
%TO.N,Net-(D1-K)*%
X140000000Y-105100000D03*
%TO.P,D1,2,A*%
%TO.N,Net-(D1-A)*%
X140000000Y-107900000D03*
%TD*%
D12*
%TO.P,Ultrasonic_sensor1,1,GND*%
%TO.N,GND*%
X154180000Y-147600000D03*
%TO.P,Ultrasonic_sensor1,2,ECHO*%
%TO.N,Net-(A1-D8)*%
X156720000Y-147600000D03*
%TO.P,Ultrasonic_sensor1,3,TRIG*%
%TO.N,Net-(A1-D9)*%
X159260000Y-147600000D03*
%TO.P,Ultrasonic_sensor1,4,VCC*%
%TO.N,5V*%
X161800000Y-147600000D03*
%TD*%
D23*
%TO.P,J2,1,Pin_1*%
%TO.N,GND*%
X140000000Y-117540000D03*
D24*
%TO.P,J2,2,Pin_2*%
%TO.N,Net-(D1-A)*%
X140000000Y-115000000D03*
%TD*%
D25*
%TO.P,P1,1,DAT2*%
%TO.N,unconnected-(P1-DAT2-Pad1)*%
X162100000Y-83000000D03*
%TO.P,P1,2,DAT3/CS*%
%TO.N,Net-(P1-DAT3{slash}CS)*%
X162100000Y-81900000D03*
%TO.P,P1,3,CMD/MOSI*%
%TO.N,Net-(P1-CMD{slash}MOSI)*%
X162100000Y-80800000D03*
%TO.P,P1,4,VDD*%
%TO.N,3V3*%
X162100000Y-79700000D03*
%TO.P,P1,5,CLK/SCK*%
%TO.N,Net-(P1-CLK{slash}SCK)*%
X162100000Y-78600000D03*
%TO.P,P1,6,VSS*%
%TO.N,GND*%
X162100000Y-77500000D03*
%TO.P,P1,7,DAT0/MISO*%
%TO.N,MISO*%
X162100000Y-76400000D03*
%TO.P,P1,8,DAT1*%
%TO.N,unconnected-(P1-DAT1-Pad8)*%
X162100000Y-75300000D03*
%TO.P,P1,9,CD*%
%TO.N,unconnected-(P1-CD-Pad9)*%
X162100000Y-74200000D03*
D26*
%TO.P,P1,G1,GND*%
%TO.N,GND*%
X162700000Y-72900000D03*
D27*
%TO.P,P1,G2,GND*%
X172200000Y-72900000D03*
%TO.P,P1,G3,GND*%
X172200000Y-88600000D03*
D28*
%TO.P,P1,G4,GND*%
X162600000Y-87700000D03*
%TD*%
D29*
%TO.N,GND*%
X141050000Y-84500000D03*
X157400000Y-101900000D03*
X146300000Y-82100000D03*
X166300000Y-105200000D03*
X142800000Y-84500000D03*
%TO.N,Net-(A1-D2)*%
X147761000Y-110307000D03*
%TO.N,Net-(P1-CLK{slash}SCK)*%
X160046000Y-79405700D03*
%TO.N,MOSI*%
X157434000Y-76450400D03*
%TO.N,SD_CS*%
X160005000Y-91498100D03*
X148090000Y-107904000D03*
%TO.N,Net-(P1-DAT3{slash}CS)*%
X164014000Y-85875000D03*
%TO.N,Net-(P1-CMD{slash}MOSI)*%
X164239000Y-82413900D03*
%TO.N,MISO*%
X139739000Y-92912600D03*
X147781000Y-81895500D03*
%TO.N,3V3*%
X169093000Y-128946000D03*
%TO.N,5V*%
X165160000Y-100907000D03*
%TD*%
D30*
%TO.N,Net-(A1-A5)*%
X141642500Y-145327500D02*
X141642000Y-145327500D01*
X144054000Y-126380000D02*
X149613000Y-126380000D01*
X141642000Y-145327500D02*
X141642000Y-128792000D01*
X141642000Y-145328000D02*
X141642000Y-145327500D01*
X149613000Y-126380000D02*
X158503000Y-117490000D01*
X141642000Y-128792000D02*
X144054000Y-126380000D01*
X158503000Y-117490000D02*
X159630000Y-117490000D01*
%TO.N,nRF_CE*%
X144390000Y-121443000D02*
X144108000Y-121443000D01*
X143263000Y-120598000D02*
X143263000Y-109346000D01*
X144390000Y-122570000D02*
X144390000Y-121443000D01*
X140026000Y-106109000D02*
X139145000Y-106109000D01*
X143263000Y-109346000D02*
X140026000Y-106109000D01*
X140420000Y-74435000D02*
X141690000Y-73165000D01*
X138798000Y-74435000D02*
X140420000Y-74435000D01*
X139145000Y-106109000D02*
X138009000Y-104972000D01*
X144108000Y-121443000D02*
X143263000Y-120598000D01*
X138009000Y-104972000D02*
X138009000Y-75224600D01*
X138009000Y-75224600D02*
X138798000Y-74435000D01*
%TO.N,Net-(A1-D8)*%
X144390000Y-128777000D02*
X144390000Y-127650000D01*
X144108000Y-128777000D02*
X144390000Y-128777000D01*
X144777000Y-134000000D02*
X144048000Y-134000000D01*
X143263000Y-129622000D02*
X144108000Y-128777000D01*
X156720000Y-145943000D02*
X144777000Y-134000000D01*
X143263000Y-133216000D02*
X143263000Y-129622000D01*
X144048000Y-134000000D02*
X143263000Y-133216000D01*
X156720000Y-147600000D02*
X156720000Y-145943000D01*
%TO.N,Net-(A1-D2)*%
X147619000Y-110307000D02*
X147761000Y-110307000D01*
X144390000Y-112410000D02*
X145517000Y-112410000D01*
X145517000Y-112410000D02*
X147619000Y-110307000D01*
%TO.N,Net-(A1-D9)*%
X144672000Y-131317000D02*
X159260000Y-145905000D01*
X144390000Y-131317000D02*
X144672000Y-131317000D01*
X159260000Y-145905000D02*
X159260000Y-147600000D01*
X144390000Y-130190000D02*
X144390000Y-131317000D01*
%TO.N,Net-(D1-K)*%
X169620000Y-138560000D02*
X169830000Y-138350000D01*
X154720000Y-96653400D02*
X145241000Y-106132000D01*
X169830000Y-138350000D02*
X169830000Y-126096000D01*
X154720000Y-94900000D02*
X154720000Y-96653400D01*
X169830000Y-126096000D02*
X159954000Y-116220000D01*
X141032000Y-106132000D02*
X140000000Y-105100000D01*
X159954000Y-116220000D02*
X155328000Y-116220000D01*
X155328000Y-116220000D02*
X145241000Y-106132000D01*
X145241000Y-106132000D02*
X141032000Y-106132000D01*
%TO.N,Net-(D1-A)*%
X140000000Y-115000000D02*
X140000000Y-107900000D01*
%TO.N,Net-(P1-CLK{slash}SCK)*%
X162100000Y-78600000D02*
X160851000Y-78600000D01*
X160851000Y-78600000D02*
X160046000Y-79405700D01*
%TO.N,MOSI*%
X145502000Y-74433500D02*
X144230000Y-75705000D01*
X152798000Y-74433500D02*
X145502000Y-74433500D01*
X156027000Y-75044100D02*
X156027000Y-73837900D01*
X156027000Y-73837900D02*
X155763000Y-73573300D01*
X157434000Y-76450400D02*
X156027000Y-75044100D01*
X153658000Y-73573300D02*
X152798000Y-74433500D01*
X155763000Y-73573300D02*
X153658000Y-73573300D01*
%TO.N,SD_CS*%
X158650000Y-92853800D02*
X158650000Y-97344300D01*
X158650000Y-97344300D02*
X148090000Y-107904000D01*
X160005000Y-91498100D02*
X158650000Y-92853800D01*
%TO.N,Net-(U1-BM)*%
X164540000Y-138560000D02*
X170700000Y-144720000D01*
X170700000Y-144720000D02*
X170700000Y-145925000D01*
%TO.N,Net-(P1-DAT3{slash}CS)*%
X162100000Y-81900000D02*
X163227000Y-81900000D01*
X163227000Y-81900000D02*
X163227000Y-85087500D01*
X163227000Y-85087500D02*
X164014000Y-85875000D01*
%TO.N,Net-(P1-CMD{slash}MOSI)*%
X163227000Y-80800000D02*
X164239000Y-81812200D01*
X164239000Y-81812200D02*
X164239000Y-82413900D01*
X162100000Y-80800000D02*
X163227000Y-80800000D01*
%TO.N,MISO*%
X147781000Y-84871000D02*
X147781000Y-81895500D01*
X157679000Y-73105800D02*
X146829000Y-73105800D01*
X162100000Y-76400000D02*
X160973000Y-76400000D01*
X146829000Y-73105800D02*
X146770000Y-73165000D01*
X160973000Y-76400000D02*
X157679000Y-73105800D01*
X139739000Y-92912600D02*
X147781000Y-84871000D01*
%TO.N,3V3*%
X154337500Y-78500000D02*
X154338000Y-78500000D01*
X152679000Y-76841900D02*
X152679000Y-75921300D01*
X160530000Y-147928000D02*
X159728000Y-148730000D01*
X154101000Y-74500000D02*
X155027000Y-74500000D01*
X139150000Y-75705000D02*
X140287000Y-76841900D01*
X140287000Y-76841900D02*
X152679000Y-76841900D01*
X162769000Y-135270000D02*
X169093000Y-128946000D01*
X160541000Y-80132400D02*
X160973000Y-79700000D01*
X146722500Y-145327500D02*
X148424000Y-147029000D01*
X152679000Y-76841900D02*
X154338000Y-78500000D01*
X155970000Y-80132400D02*
X160541000Y-80132400D01*
X160798000Y-135270000D02*
X162769000Y-135270000D01*
X155027000Y-74500000D02*
X155027400Y-74500000D01*
X160798000Y-138235000D02*
X160530000Y-138504000D01*
X160798000Y-135270000D02*
X159630000Y-135270000D01*
X150126000Y-148730000D02*
X148424000Y-147029000D01*
X159728000Y-148730000D02*
X150126000Y-148730000D01*
X154338000Y-78500000D02*
X155970000Y-80132400D01*
X160798000Y-135270000D02*
X160798000Y-138235000D01*
X160973000Y-79700000D02*
X162100000Y-79700000D01*
X152679000Y-75921300D02*
X154101000Y-74500000D01*
X160530000Y-138504000D02*
X160530000Y-147928000D01*
%TO.N,5V*%
X159630000Y-110152000D02*
X162104000Y-107678000D01*
X159630000Y-109870000D02*
X159630000Y-110152000D01*
X162104000Y-107678000D02*
X162104000Y-103834000D01*
X170574000Y-147600000D02*
X171790000Y-146384000D01*
X162104000Y-103834000D02*
X165031000Y-100907000D01*
X159630000Y-110433000D02*
X159630000Y-110152000D01*
X161800000Y-147600000D02*
X170574000Y-147600000D01*
X171790000Y-122593000D02*
X159630000Y-110433000D01*
X171790000Y-146384000D02*
X171790000Y-122593000D01*
X165031000Y-100907000D02*
X165160000Y-100907000D01*
%TD*%
%TA.AperFunction,Conductor*%
%TO.N,GND*%
G36*
X177717539Y-67345185D02*
G01*
X177763294Y-67397989D01*
X177774500Y-67449500D01*
X177774500Y-149710500D01*
X177754815Y-149777539D01*
X177702011Y-149823294D01*
X177650500Y-149834500D01*
X137309500Y-149834500D01*
X137242461Y-149814815D01*
X137196706Y-149762011D01*
X137185500Y-149710500D01*
X137185500Y-145327500D01*
X138135343Y-145327500D01*
X138153926Y-145516181D01*
X138166565Y-145557846D01*
X138208963Y-145697615D01*
X138208964Y-145697618D01*
X138208965Y-145697619D01*
X138208966Y-145697622D01*
X138298334Y-145864818D01*
X138298338Y-145864825D01*
X138418616Y-146011383D01*
X138565174Y-146131661D01*
X138565181Y-146131665D01*
X138732377Y-146221033D01*
X138732378Y-146221033D01*
X138732385Y-146221037D01*
X138913817Y-146276073D01*
X138913816Y-146276073D01*
X138930733Y-146277739D01*
X139102500Y-146294657D01*
X139291183Y-146276073D01*
X139472615Y-146221037D01*
X139639824Y-146131662D01*
X139786383Y-146011383D01*
X139906662Y-145864824D01*
X139996037Y-145697615D01*
X140051073Y-145516183D01*
X140069657Y-145327500D01*
X140051073Y-145138817D01*
X139996037Y-144957385D01*
X139988008Y-144942364D01*
X139906665Y-144790181D01*
X139906661Y-144790174D01*
X139786383Y-144643616D01*
X139639825Y-144523338D01*
X139639818Y-144523334D01*
X139472622Y-144433966D01*
X139472619Y-144433965D01*
X139472618Y-144433964D01*
X139472615Y-144433963D01*
X139291183Y-144378927D01*
X139291181Y-144378926D01*
X139291183Y-144378926D01*
X139102500Y-144360343D01*
X138913818Y-144378926D01*
X138806694Y-144411421D01*
X138732385Y-144433963D01*
X138732382Y-144433964D01*
X138732380Y-144433965D01*
X138732377Y-144433966D01*
X138565181Y-144523334D01*
X138565174Y-144523338D01*
X138418616Y-144643616D01*
X138298338Y-144790174D01*
X138298334Y-144790181D01*
X138208966Y-144957377D01*
X138208965Y-144957380D01*
X138208964Y-144957382D01*
X138208963Y-144957385D01*
X138195199Y-145002759D01*
X138153926Y-145138818D01*
X138135343Y-145327500D01*
X137185500Y-145327500D01*
X137185500Y-105014711D01*
X137683480Y-105014711D01*
X137683498Y-105014848D01*
X137689593Y-105037595D01*
X137694540Y-105056057D01*
X137705494Y-105097007D01*
X137705628Y-105097507D01*
X137705683Y-105097640D01*
X137727099Y-105134734D01*
X137727113Y-105134788D01*
X137727126Y-105134781D01*
X137748449Y-105171751D01*
X137748532Y-105171859D01*
X137779089Y-105202416D01*
X137779116Y-105202466D01*
X137779128Y-105202455D01*
X138878837Y-106303132D01*
X138879078Y-106303406D01*
X138915438Y-106339765D01*
X138915466Y-106339816D01*
X138915478Y-106339805D01*
X138945025Y-106369378D01*
X138945135Y-106369462D01*
X138945138Y-106369465D01*
X138982822Y-106391222D01*
X138982818Y-106391230D01*
X138982862Y-106391245D01*
X139019228Y-106412262D01*
X139019232Y-106412263D01*
X139019239Y-106412267D01*
X139019364Y-106412319D01*
X139060388Y-106423311D01*
X139060387Y-106423312D01*
X139060418Y-106423319D01*
X139102004Y-106434482D01*
X139102013Y-106434482D01*
X139102144Y-106434499D01*
X139102147Y-106434500D01*
X139143697Y-106434500D01*
X139143728Y-106434500D01*
X139187710Y-106434519D01*
X139187714Y-106434517D01*
X139195619Y-106434521D01*
X139195955Y-106434500D01*
X139839811Y-106434500D01*
X139906850Y-106454185D01*
X139927492Y-106470819D01*
X140319492Y-106862819D01*
X140352977Y-106924142D01*
X140347993Y-106993834D01*
X140306121Y-107049767D01*
X140240657Y-107074184D01*
X140231811Y-107074500D01*
X139320730Y-107074500D01*
X139290300Y-107077353D01*
X139290298Y-107077353D01*
X139162119Y-107122206D01*
X139162117Y-107122207D01*
X139052850Y-107202850D01*
X138972207Y-107312117D01*
X138972206Y-107312119D01*
X138927353Y-107440298D01*
X138927353Y-107440300D01*
X138924500Y-107470730D01*
X138924500Y-108329269D01*
X138927353Y-108359699D01*
X138927353Y-108359701D01*
X138972206Y-108487880D01*
X138972207Y-108487882D01*
X139052850Y-108597150D01*
X139162118Y-108677793D01*
X139204845Y-108692744D01*
X139290299Y-108722646D01*
X139320730Y-108725500D01*
X139320734Y-108725500D01*
X139550500Y-108725500D01*
X139617539Y-108745185D01*
X139663294Y-108797989D01*
X139674500Y-108849500D01*
X139674500Y-113909417D01*
X139654815Y-113976456D01*
X139602011Y-114022211D01*
X139597951Y-114023979D01*
X139596045Y-114024768D01*
X139546395Y-114051307D01*
X139413550Y-114122315D01*
X139413548Y-114122316D01*
X139413547Y-114122317D01*
X139253589Y-114253589D01*
X139122317Y-114413547D01*
X139024769Y-114596043D01*
X138964699Y-114794067D01*
X138944417Y-115000000D01*
X138964699Y-115205932D01*
X138964700Y-115205934D01*
X139024768Y-115403954D01*
X139122315Y-115586450D01*
X139122317Y-115586452D01*
X139253589Y-115746410D01*
X139350209Y-115825702D01*
X139413550Y-115877685D01*
X139522694Y-115936024D01*
X139561267Y-115956642D01*
X139611111Y-116005605D01*
X139626571Y-116073743D01*
X139602739Y-116139422D01*
X139547181Y-116181791D01*
X139502813Y-116190000D01*
X139102155Y-116190000D01*
X139042627Y-116196401D01*
X139042620Y-116196403D01*
X138907913Y-116246645D01*
X138907906Y-116246649D01*
X138792812Y-116332809D01*
X138792809Y-116332812D01*
X138706649Y-116447906D01*
X138706645Y-116447913D01*
X138656403Y-116582620D01*
X138656401Y-116582627D01*
X138650000Y-116642155D01*
X138650000Y-117290000D01*
X139566988Y-117290000D01*
X139534075Y-117347007D01*
X139500000Y-117474174D01*
X139500000Y-117605826D01*
X139534075Y-117732993D01*
X139566988Y-117790000D01*
X138650000Y-117790000D01*
X138650000Y-118437844D01*
X138656401Y-118497372D01*
X138656403Y-118497379D01*
X138706645Y-118632086D01*
X138706649Y-118632093D01*
X138792809Y-118747187D01*
X138792812Y-118747190D01*
X138907906Y-118833350D01*
X138907913Y-118833354D01*
X139042620Y-118883596D01*
X139042627Y-118883598D01*
X139102155Y-118889999D01*
X139102172Y-118890000D01*
X139750000Y-118890000D01*
X139750000Y-117973012D01*
X139807007Y-118005925D01*
X139934174Y-118040000D01*
X140065826Y-118040000D01*
X140192993Y-118005925D01*
X140250000Y-117973012D01*
X140250000Y-118890000D01*
X140897828Y-118890000D01*
X140897844Y-118889999D01*
X140957372Y-118883598D01*
X140957379Y-118883596D01*
X141092086Y-118833354D01*
X141092093Y-118833350D01*
X141207187Y-118747190D01*
X141207190Y-118747187D01*
X141293350Y-118632093D01*
X141293354Y-118632086D01*
X141343596Y-118497379D01*
X141343598Y-118497372D01*
X141349999Y-118437844D01*
X141350000Y-118437827D01*
X141350000Y-117790000D01*
X140433012Y-117790000D01*
X140465925Y-117732993D01*
X140500000Y-117605826D01*
X140500000Y-117474174D01*
X140465925Y-117347007D01*
X140433012Y-117290000D01*
X141350000Y-117290000D01*
X141350000Y-116642172D01*
X141349999Y-116642155D01*
X141343598Y-116582627D01*
X141343596Y-116582620D01*
X141293354Y-116447913D01*
X141293350Y-116447906D01*
X141207190Y-116332812D01*
X141207187Y-116332809D01*
X141092093Y-116246649D01*
X141092086Y-116246645D01*
X140957379Y-116196403D01*
X140957372Y-116196401D01*
X140897844Y-116190000D01*
X140497187Y-116190000D01*
X140430148Y-116170315D01*
X140384393Y-116117511D01*
X140374449Y-116048353D01*
X140403474Y-115984797D01*
X140438733Y-115956642D01*
X140441169Y-115955340D01*
X140586450Y-115877685D01*
X140746410Y-115746410D01*
X140877685Y-115586450D01*
X140975232Y-115403954D01*
X141035300Y-115205934D01*
X141055583Y-115000000D01*
X141035300Y-114794066D01*
X140975232Y-114596046D01*
X140877685Y-114413550D01*
X140825148Y-114349533D01*
X140746410Y-114253589D01*
X140586452Y-114122317D01*
X140586453Y-114122317D01*
X140586450Y-114122315D01*
X140403954Y-114024768D01*
X140402049Y-114023979D01*
X140401203Y-114023298D01*
X140398581Y-114021896D01*
X140398846Y-114021398D01*
X140347645Y-113980138D01*
X140325579Y-113913844D01*
X140325500Y-113909417D01*
X140325500Y-108849500D01*
X140345185Y-108782461D01*
X140397989Y-108736706D01*
X140449500Y-108725500D01*
X140679270Y-108725500D01*
X140709699Y-108722646D01*
X140709701Y-108722646D01*
X140773790Y-108700219D01*
X140837882Y-108677793D01*
X140947150Y-108597150D01*
X141027793Y-108487882D01*
X141050219Y-108423790D01*
X141072646Y-108359701D01*
X141072646Y-108359699D01*
X141075500Y-108329269D01*
X141075500Y-107918189D01*
X141095185Y-107851150D01*
X141147989Y-107805395D01*
X141217147Y-107795451D01*
X141280703Y-107824476D01*
X141287181Y-107830508D01*
X142901181Y-109444508D01*
X142934666Y-109505831D01*
X142937500Y-109532189D01*
X142937500Y-120640852D01*
X142959682Y-120723640D01*
X142969638Y-120740883D01*
X143002535Y-120797862D01*
X143002537Y-120797864D01*
X143793655Y-121588982D01*
X143827140Y-121650305D01*
X143822156Y-121719997D01*
X143784639Y-121772516D01*
X143679116Y-121859116D01*
X143554090Y-122011460D01*
X143554086Y-122011467D01*
X143461188Y-122185266D01*
X143403975Y-122373870D01*
X143384659Y-122570000D01*
X143403975Y-122766129D01*
X143461188Y-122954733D01*
X143554086Y-123128532D01*
X143554090Y-123128539D01*
X143679116Y-123280883D01*
X143831460Y-123405909D01*
X143831467Y-123405913D01*
X144005266Y-123498811D01*
X144005269Y-123498811D01*
X144005273Y-123498814D01*
X144193868Y-123556024D01*
X144390000Y-123575341D01*
X144586132Y-123556024D01*
X144774727Y-123498814D01*
X144948538Y-123405910D01*
X145100883Y-123280883D01*
X145225910Y-123128538D01*
X145318814Y-122954727D01*
X145376024Y-122766132D01*
X145395341Y-122570000D01*
X145376024Y-122373868D01*
X145318814Y-122185273D01*
X145318811Y-122185269D01*
X145318811Y-122185266D01*
X145225913Y-122011467D01*
X145225909Y-122011460D01*
X145100883Y-121859116D01*
X144948539Y-121734090D01*
X144948532Y-121734085D01*
X144781047Y-121644563D01*
X144731202Y-121595601D01*
X144715500Y-121535205D01*
X144715500Y-121400149D01*
X144715500Y-121400147D01*
X144693318Y-121317362D01*
X144693314Y-121317355D01*
X144650469Y-121243144D01*
X144650463Y-121243136D01*
X144607524Y-121200197D01*
X144574039Y-121138874D01*
X144579023Y-121069182D01*
X144620895Y-121013249D01*
X144659205Y-120993857D01*
X144774727Y-120958814D01*
X144948538Y-120865910D01*
X145100883Y-120740883D01*
X145225910Y-120588538D01*
X145318814Y-120414727D01*
X145376024Y-120226132D01*
X145395341Y-120030000D01*
X145376024Y-119833868D01*
X145318814Y-119645273D01*
X145318811Y-119645269D01*
X145318811Y-119645266D01*
X145225913Y-119471467D01*
X145225909Y-119471460D01*
X145100883Y-119319116D01*
X144948539Y-119194090D01*
X144948532Y-119194086D01*
X144774733Y-119101188D01*
X144774727Y-119101186D01*
X144586132Y-119043976D01*
X144586129Y-119043975D01*
X144390000Y-119024659D01*
X144193870Y-119043975D01*
X144005266Y-119101188D01*
X143831467Y-119194086D01*
X143831461Y-119194090D01*
X143791164Y-119227161D01*
X143726854Y-119254473D01*
X143657987Y-119242682D01*
X143606427Y-119195529D01*
X143588500Y-119131307D01*
X143588500Y-118388692D01*
X143608185Y-118321653D01*
X143660989Y-118275898D01*
X143730147Y-118265954D01*
X143791165Y-118292839D01*
X143831460Y-118325909D01*
X143831467Y-118325913D01*
X144005266Y-118418811D01*
X144005269Y-118418811D01*
X144005273Y-118418814D01*
X144193868Y-118476024D01*
X144390000Y-118495341D01*
X144586132Y-118476024D01*
X144774727Y-118418814D01*
X144948538Y-118325910D01*
X145100883Y-118200883D01*
X145225910Y-118048538D01*
X145283872Y-117940099D01*
X145318811Y-117874733D01*
X145318811Y-117874732D01*
X145318814Y-117874727D01*
X145376024Y-117686132D01*
X145395341Y-117490000D01*
X145376024Y-117293868D01*
X145318814Y-117105273D01*
X145318811Y-117105269D01*
X145318811Y-117105266D01*
X145225913Y-116931467D01*
X145225909Y-116931460D01*
X145100883Y-116779116D01*
X144948539Y-116654090D01*
X144948532Y-116654086D01*
X144774733Y-116561188D01*
X144774727Y-116561186D01*
X144586132Y-116503976D01*
X144586129Y-116503975D01*
X144390000Y-116484659D01*
X144193870Y-116503975D01*
X144005266Y-116561188D01*
X143831467Y-116654086D01*
X143831461Y-116654090D01*
X143791164Y-116687161D01*
X143726854Y-116714473D01*
X143657987Y-116702682D01*
X143606427Y-116655529D01*
X143588500Y-116591307D01*
X143588500Y-115848692D01*
X143608185Y-115781653D01*
X143660989Y-115735898D01*
X143730147Y-115725954D01*
X143791165Y-115752839D01*
X143831460Y-115785909D01*
X143831467Y-115785913D01*
X144005266Y-115878811D01*
X144005269Y-115878811D01*
X144005273Y-115878814D01*
X144193868Y-115936024D01*
X144390000Y-115955341D01*
X144586132Y-115936024D01*
X144774727Y-115878814D01*
X144776840Y-115877685D01*
X144948532Y-115785913D01*
X144948538Y-115785910D01*
X145100883Y-115660883D01*
X145225910Y-115508538D01*
X145318814Y-115334727D01*
X145376024Y-115146132D01*
X145395341Y-114950000D01*
X145376024Y-114753868D01*
X145318814Y-114565273D01*
X145318811Y-114565269D01*
X145318811Y-114565266D01*
X145225913Y-114391467D01*
X145225909Y-114391460D01*
X145100883Y-114239116D01*
X144948539Y-114114090D01*
X144948532Y-114114086D01*
X144774733Y-114021188D01*
X144774727Y-114021186D01*
X144586132Y-113963976D01*
X144586129Y-113963975D01*
X144390000Y-113944659D01*
X144193870Y-113963975D01*
X144005266Y-114021188D01*
X143831467Y-114114086D01*
X143831461Y-114114090D01*
X143791164Y-114147161D01*
X143726854Y-114174473D01*
X143657987Y-114162682D01*
X143606427Y-114115529D01*
X143588500Y-114051307D01*
X143588500Y-113308692D01*
X143608185Y-113241653D01*
X143660989Y-113195898D01*
X143730147Y-113185954D01*
X143791165Y-113212839D01*
X143831460Y-113245909D01*
X143831467Y-113245913D01*
X144005266Y-113338811D01*
X144005269Y-113338811D01*
X144005273Y-113338814D01*
X144193868Y-113396024D01*
X144390000Y-113415341D01*
X144586132Y-113396024D01*
X144774727Y-113338814D01*
X144948538Y-113245910D01*
X145100883Y-113120883D01*
X145225910Y-112968538D01*
X145225910Y-112968536D01*
X145225914Y-112968532D01*
X145315437Y-112801047D01*
X145364399Y-112751202D01*
X145424795Y-112735500D01*
X145466011Y-112735500D01*
X145466209Y-112735512D01*
X145474221Y-112735510D01*
X145474225Y-112735511D01*
X145519118Y-112735500D01*
X145559853Y-112735500D01*
X145559855Y-112735499D01*
X145559925Y-112735490D01*
X145559930Y-112735490D01*
X145572533Y-112732109D01*
X145601701Y-112724287D01*
X145601702Y-112724291D01*
X145601731Y-112724277D01*
X145621077Y-112719094D01*
X145642311Y-112713406D01*
X145642687Y-112713308D01*
X145642698Y-112713303D01*
X145643287Y-112712955D01*
X145661541Y-112702409D01*
X145679731Y-112691902D01*
X145679744Y-112691893D01*
X145716862Y-112670465D01*
X145716861Y-112670465D01*
X145716898Y-112670444D01*
X145716907Y-112670437D01*
X145717117Y-112670223D01*
X145746325Y-112641000D01*
X145746346Y-112640981D01*
X145783481Y-112603846D01*
X145783607Y-112603700D01*
X147468008Y-110918497D01*
X147529322Y-110884999D01*
X147599015Y-110889967D01*
X147603168Y-110891600D01*
X147604238Y-110892044D01*
X147740361Y-110909964D01*
X147760999Y-110912682D01*
X147761000Y-110912682D01*
X147761001Y-110912682D01*
X147821257Y-110904749D01*
X147917762Y-110892044D01*
X148063841Y-110831536D01*
X148189282Y-110735282D01*
X148285536Y-110609841D01*
X148346044Y-110463762D01*
X148365454Y-110316326D01*
X148366682Y-110307001D01*
X148366682Y-110306998D01*
X148346044Y-110150239D01*
X148346044Y-110150238D01*
X148285536Y-110004159D01*
X148227049Y-109927938D01*
X148201857Y-109862772D01*
X148202130Y-109861440D01*
X148156159Y-109851437D01*
X148140108Y-109840985D01*
X148092134Y-109804174D01*
X148063842Y-109782464D01*
X147917762Y-109721956D01*
X147917760Y-109721955D01*
X147761001Y-109701318D01*
X147760999Y-109701318D01*
X147604239Y-109721955D01*
X147604237Y-109721956D01*
X147458160Y-109782463D01*
X147332718Y-109878718D01*
X147236463Y-110004160D01*
X147175956Y-110150237D01*
X147175956Y-110150238D01*
X147160283Y-110269278D01*
X147132016Y-110333174D01*
X147125046Y-110340751D01*
X145479727Y-111986853D01*
X145418412Y-112020353D01*
X145348719Y-112015385D01*
X145292776Y-111973527D01*
X145282667Y-111957646D01*
X145225913Y-111851467D01*
X145225909Y-111851460D01*
X145100883Y-111699116D01*
X144948539Y-111574090D01*
X144948532Y-111574086D01*
X144774733Y-111481188D01*
X144774727Y-111481186D01*
X144648997Y-111443046D01*
X144586129Y-111423975D01*
X144390000Y-111404659D01*
X144193870Y-111423975D01*
X144005266Y-111481188D01*
X143831467Y-111574086D01*
X143831461Y-111574090D01*
X143791164Y-111607161D01*
X143726854Y-111634473D01*
X143657987Y-111622682D01*
X143606427Y-111575529D01*
X143588500Y-111511307D01*
X143588500Y-111125287D01*
X143608185Y-111058248D01*
X143660989Y-111012493D01*
X143730147Y-111002549D01*
X143764905Y-111012905D01*
X143943673Y-111096265D01*
X143943682Y-111096269D01*
X144139999Y-111148872D01*
X144140000Y-111148871D01*
X144140000Y-110303012D01*
X144197007Y-110335925D01*
X144324174Y-110370000D01*
X144455826Y-110370000D01*
X144582993Y-110335925D01*
X144640000Y-110303012D01*
X144640000Y-111148872D01*
X144836317Y-111096269D01*
X144836326Y-111096265D01*
X145042482Y-111000134D01*
X145228820Y-110869657D01*
X145389657Y-110708820D01*
X145520134Y-110522482D01*
X145616265Y-110316326D01*
X145616269Y-110316317D01*
X145668872Y-110120000D01*
X144823012Y-110120000D01*
X144855925Y-110062993D01*
X144890000Y-109935826D01*
X144890000Y-109804174D01*
X144855925Y-109677007D01*
X144823012Y-109620000D01*
X145668872Y-109620000D01*
X145668872Y-109619999D01*
X145616269Y-109423682D01*
X145616265Y-109423673D01*
X145520134Y-109217517D01*
X145389657Y-109031179D01*
X145228820Y-108870342D01*
X145042482Y-108739865D01*
X144836328Y-108643734D01*
X144640000Y-108591127D01*
X144640000Y-109436988D01*
X144582993Y-109404075D01*
X144455826Y-109370000D01*
X144324174Y-109370000D01*
X144197007Y-109404075D01*
X144140000Y-109436988D01*
X144140000Y-108591127D01*
X143943671Y-108643734D01*
X143737517Y-108739866D01*
X143551182Y-108870339D01*
X143487103Y-108934417D01*
X143425779Y-108967901D01*
X143356088Y-108962915D01*
X143311742Y-108934415D01*
X141046508Y-106669181D01*
X141013023Y-106607858D01*
X141018007Y-106538166D01*
X141059879Y-106482233D01*
X141125343Y-106457816D01*
X141134189Y-106457500D01*
X143549576Y-106457500D01*
X143616615Y-106477185D01*
X143662370Y-106529989D01*
X143672314Y-106599147D01*
X143645429Y-106660165D01*
X143554090Y-106771460D01*
X143554086Y-106771467D01*
X143461188Y-106945266D01*
X143403975Y-107133870D01*
X143384659Y-107330000D01*
X143403975Y-107526129D01*
X143461188Y-107714733D01*
X143554086Y-107888532D01*
X143554090Y-107888539D01*
X143679116Y-108040883D01*
X143831460Y-108165909D01*
X143831467Y-108165913D01*
X144005266Y-108258811D01*
X144005269Y-108258811D01*
X144005273Y-108258814D01*
X144193868Y-108316024D01*
X144390000Y-108335341D01*
X144586132Y-108316024D01*
X144774727Y-108258814D01*
X144948538Y-108165910D01*
X145100883Y-108040883D01*
X145225910Y-107888538D01*
X145280934Y-107785595D01*
X145318811Y-107714733D01*
X145318811Y-107714732D01*
X145318814Y-107714727D01*
X145376024Y-107526132D01*
X145395341Y-107330000D01*
X145376024Y-107133868D01*
X145342737Y-107024136D01*
X145342113Y-106954269D01*
X145379361Y-106895156D01*
X145442655Y-106865565D01*
X145511899Y-106874890D01*
X145549083Y-106900463D01*
X148303277Y-109654931D01*
X148336759Y-109716256D01*
X148335793Y-109729749D01*
X148398551Y-109752309D01*
X148413113Y-109764777D01*
X155062556Y-116414880D01*
X155062581Y-116414908D01*
X155097858Y-116450185D01*
X155097860Y-116450190D01*
X155097862Y-116450189D01*
X155128125Y-116480455D01*
X155128135Y-116480462D01*
X155128138Y-116480465D01*
X155167250Y-116503046D01*
X155167249Y-116503047D01*
X155167255Y-116503049D01*
X155198936Y-116521342D01*
X155202394Y-116523490D01*
X155205210Y-116524353D01*
X155209503Y-116525231D01*
X155247252Y-116535345D01*
X155247261Y-116535350D01*
X155247262Y-116535348D01*
X155285138Y-116545500D01*
X155285147Y-116545500D01*
X155327983Y-116545500D01*
X155327984Y-116545500D01*
X155370836Y-116545502D01*
X155370840Y-116545500D01*
X155379458Y-116545501D01*
X155379487Y-116545500D01*
X158857223Y-116545500D01*
X158924262Y-116565185D01*
X158970017Y-116617989D01*
X158979961Y-116687147D01*
X158950936Y-116750703D01*
X158935887Y-116765354D01*
X158919116Y-116779117D01*
X158794090Y-116931460D01*
X158794085Y-116931467D01*
X158704563Y-117098953D01*
X158655601Y-117148798D01*
X158595205Y-117164500D01*
X158553465Y-117164500D01*
X158553449Y-117164499D01*
X158545853Y-117164499D01*
X158460148Y-117164499D01*
X158418755Y-117175590D01*
X158377360Y-117186682D01*
X158377355Y-117186685D01*
X158303144Y-117229530D01*
X158303136Y-117229536D01*
X149514492Y-126018181D01*
X149453169Y-126051666D01*
X149426811Y-126054500D01*
X145162777Y-126054500D01*
X145095738Y-126034815D01*
X145049983Y-125982011D01*
X145040039Y-125912853D01*
X145069064Y-125849297D01*
X145084113Y-125834646D01*
X145086182Y-125832947D01*
X145100883Y-125820883D01*
X145225910Y-125668538D01*
X145318814Y-125494727D01*
X145376024Y-125306132D01*
X145395341Y-125110000D01*
X145376024Y-124913868D01*
X145318814Y-124725273D01*
X145318811Y-124725269D01*
X145318811Y-124725266D01*
X145225913Y-124551467D01*
X145225909Y-124551460D01*
X145100883Y-124399116D01*
X144948539Y-124274090D01*
X144948532Y-124274086D01*
X144774733Y-124181188D01*
X144774727Y-124181186D01*
X144586132Y-124123976D01*
X144586129Y-124123975D01*
X144390000Y-124104659D01*
X144193870Y-124123975D01*
X144005266Y-124181188D01*
X143831467Y-124274086D01*
X143831460Y-124274090D01*
X143679116Y-124399116D01*
X143554090Y-124551460D01*
X143554086Y-124551467D01*
X143461188Y-124725266D01*
X143403975Y-124913870D01*
X143384659Y-125110000D01*
X143403975Y-125306129D01*
X143461188Y-125494733D01*
X143554086Y-125668532D01*
X143554090Y-125668539D01*
X143679116Y-125820883D01*
X143833521Y-125947601D01*
X143872855Y-126005347D01*
X143874726Y-126075192D01*
X143842537Y-126131135D01*
X141381537Y-128592135D01*
X141381533Y-128592141D01*
X141338681Y-128666362D01*
X141338680Y-128666364D01*
X141329686Y-128699934D01*
X141329686Y-128699936D01*
X141316500Y-128749147D01*
X141316500Y-144336059D01*
X141296815Y-144403098D01*
X141250954Y-144445417D01*
X141105177Y-144523336D01*
X141105174Y-144523338D01*
X140958616Y-144643616D01*
X140838338Y-144790174D01*
X140838334Y-144790181D01*
X140748966Y-144957377D01*
X140748965Y-144957380D01*
X140748964Y-144957382D01*
X140748963Y-144957385D01*
X140735199Y-145002759D01*
X140693926Y-145138818D01*
X140675343Y-145327500D01*
X140693926Y-145516181D01*
X140706565Y-145557846D01*
X140748963Y-145697615D01*
X140748964Y-145697618D01*
X140748965Y-145697619D01*
X140748966Y-145697622D01*
X140838334Y-145864818D01*
X140838338Y-145864825D01*
X140958616Y-146011383D01*
X141105174Y-146131661D01*
X141105181Y-146131665D01*
X141272377Y-146221033D01*
X141272378Y-146221033D01*
X141272385Y-146221037D01*
X141453817Y-146276073D01*
X141453816Y-146276073D01*
X141470733Y-146277739D01*
X141642500Y-146294657D01*
X141831183Y-146276073D01*
X142012615Y-146221037D01*
X142179824Y-146131662D01*
X142326383Y-146011383D01*
X142446662Y-145864824D01*
X142536037Y-145697615D01*
X142591073Y-145516183D01*
X142609657Y-145327500D01*
X142609657Y-145327499D01*
X142915679Y-145327499D01*
X142915679Y-145327500D01*
X142934924Y-145547476D01*
X142934926Y-145547486D01*
X142992075Y-145760770D01*
X142992080Y-145760784D01*
X143085398Y-145960905D01*
X143085401Y-145960911D01*
X143130758Y-146025687D01*
X143130758Y-146025688D01*
X143699537Y-145456909D01*
X143716575Y-145520493D01*
X143782401Y-145634507D01*
X143875493Y-145727599D01*
X143989507Y-145793425D01*
X144053090Y-145810462D01*
X143484310Y-146379240D01*
X143549090Y-146424599D01*
X143549092Y-146424600D01*
X143749215Y-146517919D01*
X143749229Y-146517924D01*
X143962513Y-146575073D01*
X143962523Y-146575075D01*
X144182499Y-146594321D01*
X144182501Y-146594321D01*
X144402476Y-146575075D01*
X144402486Y-146575073D01*
X144615770Y-146517924D01*
X144615784Y-146517919D01*
X144815907Y-146424600D01*
X144815917Y-146424594D01*
X144880688Y-146379241D01*
X144311910Y-145810462D01*
X144375493Y-145793425D01*
X144489507Y-145727599D01*
X144582599Y-145634507D01*
X144648425Y-145520493D01*
X144665462Y-145456909D01*
X145234241Y-146025688D01*
X145279594Y-145960917D01*
X145279600Y-145960907D01*
X145372919Y-145760784D01*
X145372924Y-145760770D01*
X145430073Y-145547486D01*
X145430075Y-145547476D01*
X145449321Y-145327500D01*
X145449321Y-145327499D01*
X145430075Y-145107523D01*
X145430073Y-145107513D01*
X145372924Y-144894229D01*
X145372920Y-144894220D01*
X145279596Y-144694086D01*
X145234241Y-144629311D01*
X145234240Y-144629310D01*
X144665462Y-145198089D01*
X144648425Y-145134507D01*
X144582599Y-145020493D01*
X144489507Y-144927401D01*
X144375493Y-144861575D01*
X144311909Y-144844537D01*
X144880688Y-144275758D01*
X144815911Y-144230401D01*
X144815905Y-144230398D01*
X144615784Y-144137080D01*
X144615770Y-144137075D01*
X144402486Y-144079926D01*
X144402476Y-144079924D01*
X144182501Y-144060679D01*
X144182499Y-144060679D01*
X143962523Y-144079924D01*
X143962513Y-144079926D01*
X143749229Y-144137075D01*
X143749220Y-144137079D01*
X143549090Y-144230401D01*
X143484311Y-144275758D01*
X144053091Y-144844537D01*
X143989507Y-144861575D01*
X143875493Y-144927401D01*
X143782401Y-145020493D01*
X143716575Y-145134507D01*
X143699537Y-145198090D01*
X143130758Y-144629311D01*
X143085401Y-144694090D01*
X142992079Y-144894220D01*
X142992075Y-144894229D01*
X142934926Y-145107513D01*
X142934924Y-145107523D01*
X142915679Y-145327499D01*
X142609657Y-145327499D01*
X142591073Y-145138817D01*
X142536037Y-144957385D01*
X142528008Y-144942364D01*
X142446665Y-144790181D01*
X142446661Y-144790174D01*
X142326383Y-144643616D01*
X142179825Y-144523338D01*
X142179818Y-144523333D01*
X142033047Y-144444883D01*
X141983202Y-144395921D01*
X141967500Y-144335525D01*
X141967500Y-137810000D01*
X143384659Y-137810000D01*
X143403975Y-138006129D01*
X143461188Y-138194733D01*
X143554086Y-138368532D01*
X143554090Y-138368539D01*
X143679116Y-138520883D01*
X143831460Y-138645909D01*
X143831467Y-138645913D01*
X144005266Y-138738811D01*
X144005269Y-138738811D01*
X144005273Y-138738814D01*
X144193868Y-138796024D01*
X144390000Y-138815341D01*
X144586132Y-138796024D01*
X144774727Y-138738814D01*
X144808695Y-138720658D01*
X144948532Y-138645913D01*
X144948538Y-138645910D01*
X145100883Y-138520883D01*
X145225910Y-138368538D01*
X145318814Y-138194727D01*
X145376024Y-138006132D01*
X145395341Y-137810000D01*
X145376024Y-137613868D01*
X145318814Y-137425273D01*
X145318811Y-137425269D01*
X145318811Y-137425266D01*
X145225913Y-137251467D01*
X145225909Y-137251460D01*
X145100883Y-137099116D01*
X144948539Y-136974090D01*
X144948532Y-136974086D01*
X144774733Y-136881188D01*
X144774727Y-136881186D01*
X144586132Y-136823976D01*
X144586129Y-136823975D01*
X144390000Y-136804659D01*
X144193870Y-136823975D01*
X144005266Y-136881188D01*
X143831467Y-136974086D01*
X143831460Y-136974090D01*
X143679116Y-137099116D01*
X143554090Y-137251460D01*
X143554086Y-137251467D01*
X143461188Y-137425266D01*
X143403975Y-137613870D01*
X143384659Y-137810000D01*
X141967500Y-137810000D01*
X141967500Y-128978188D01*
X141987185Y-128911149D01*
X142003814Y-128890512D01*
X143186692Y-127707633D01*
X143248013Y-127674150D01*
X143317705Y-127679134D01*
X143373638Y-127721006D01*
X143397774Y-127783162D01*
X143403975Y-127846129D01*
X143461188Y-128034733D01*
X143554086Y-128208532D01*
X143554090Y-128208539D01*
X143679116Y-128360883D01*
X143784638Y-128447483D01*
X143823972Y-128505229D01*
X143825843Y-128575073D01*
X143793654Y-128631017D01*
X143002537Y-129422135D01*
X143002533Y-129422141D01*
X142959681Y-129496361D01*
X142959682Y-129496362D01*
X142937500Y-129579147D01*
X142937500Y-133165071D01*
X142937467Y-133165575D01*
X142937500Y-133216987D01*
X142937500Y-133258877D01*
X142937521Y-133259038D01*
X142948732Y-133300773D01*
X142948752Y-133300848D01*
X142959683Y-133341643D01*
X142959759Y-133341826D01*
X142981121Y-133378772D01*
X142981141Y-133378849D01*
X142981159Y-133378839D01*
X142981160Y-133378840D01*
X143002535Y-133415862D01*
X143002537Y-133415864D01*
X143002566Y-133415902D01*
X143002657Y-133416021D01*
X143002661Y-133416025D01*
X143002663Y-133416028D01*
X143032472Y-133445799D01*
X143032528Y-133445855D01*
X143068675Y-133482002D01*
X143069048Y-133482329D01*
X143816926Y-134229253D01*
X143839242Y-134251569D01*
X143872727Y-134312892D01*
X143867743Y-134382584D01*
X143830226Y-134435103D01*
X143679116Y-134559116D01*
X143554090Y-134711460D01*
X143554086Y-134711467D01*
X143461188Y-134885266D01*
X143403975Y-135073870D01*
X143384659Y-135270000D01*
X143403975Y-135466129D01*
X143461188Y-135654733D01*
X143554086Y-135828532D01*
X143554090Y-135828539D01*
X143679116Y-135980883D01*
X143831460Y-136105909D01*
X143831467Y-136105913D01*
X144005266Y-136198811D01*
X144005269Y-136198811D01*
X144005273Y-136198814D01*
X144193868Y-136256024D01*
X144390000Y-136275341D01*
X144586132Y-136256024D01*
X144774727Y-136198814D01*
X144948538Y-136105910D01*
X145100883Y-135980883D01*
X145225910Y-135828538D01*
X145318814Y-135654727D01*
X145376024Y-135466132D01*
X145386798Y-135356736D01*
X145412958Y-135291949D01*
X145469993Y-135251590D01*
X145539793Y-135248473D01*
X145597882Y-135281209D01*
X156358181Y-146041507D01*
X156391666Y-146102830D01*
X156394500Y-146129188D01*
X156394500Y-146565205D01*
X156374815Y-146632244D01*
X156328953Y-146674563D01*
X156161467Y-146764085D01*
X156161460Y-146764090D01*
X156009116Y-146889116D01*
X155884090Y-147041460D01*
X155884086Y-147041467D01*
X155791188Y-147215266D01*
X155733975Y-147403870D01*
X155723725Y-147507945D01*
X155697564Y-147572732D01*
X155658459Y-147600402D01*
X155689383Y-147617930D01*
X155721891Y-147679776D01*
X155723725Y-147692055D01*
X155733975Y-147796129D01*
X155733976Y-147796132D01*
X155786977Y-147970853D01*
X155791188Y-147984733D01*
X155884086Y-148158532D01*
X155884090Y-148158539D01*
X155919623Y-148201835D01*
X155946936Y-148266144D01*
X155935145Y-148335012D01*
X155887993Y-148386572D01*
X155823770Y-148404500D01*
X155433888Y-148404500D01*
X155366849Y-148384815D01*
X155321094Y-148332011D01*
X155311150Y-148262853D01*
X155321506Y-148228095D01*
X155406265Y-148046326D01*
X155406269Y-148046317D01*
X155465139Y-147826610D01*
X155465141Y-147826599D01*
X155476794Y-147693402D01*
X155502246Y-147628333D01*
X155542031Y-147599524D01*
X155510325Y-147581092D01*
X155478493Y-147518894D01*
X155476794Y-147506597D01*
X155465141Y-147373400D01*
X155465139Y-147373389D01*
X155406269Y-147153682D01*
X155406264Y-147153668D01*
X155310136Y-146947521D01*
X155310132Y-146947513D01*
X155259025Y-146874526D01*
X154662962Y-147470589D01*
X154645925Y-147407007D01*
X154580099Y-147292993D01*
X154487007Y-147199901D01*
X154372993Y-147134075D01*
X154309408Y-147117037D01*
X154905472Y-146520974D01*
X154832478Y-146469863D01*
X154626331Y-146373735D01*
X154626317Y-146373730D01*
X154406610Y-146314860D01*
X154406599Y-146314858D01*
X154180002Y-146295034D01*
X154179998Y-146295034D01*
X153953400Y-146314858D01*
X153953389Y-146314860D01*
X153733682Y-146373730D01*
X153733673Y-146373734D01*
X153527516Y-146469866D01*
X153527512Y-146469868D01*
X153454526Y-146520973D01*
X153454526Y-146520974D01*
X154050590Y-147117037D01*
X153987007Y-147134075D01*
X153872993Y-147199901D01*
X153779901Y-147292993D01*
X153714075Y-147407007D01*
X153697037Y-147470590D01*
X153100974Y-146874526D01*
X153100973Y-146874526D01*
X153049868Y-146947512D01*
X153049866Y-146947516D01*
X152953734Y-147153673D01*
X152953730Y-147153682D01*
X152894860Y-147373389D01*
X152894858Y-147373400D01*
X152875034Y-147599997D01*
X152875034Y-147600000D01*
X152894858Y-147826599D01*
X152894860Y-147826610D01*
X152953730Y-148046317D01*
X152953734Y-148046326D01*
X153038494Y-148228095D01*
X153048986Y-148297173D01*
X153020466Y-148360957D01*
X152961990Y-148399196D01*
X152926112Y-148404500D01*
X150312111Y-148404500D01*
X150245072Y-148384815D01*
X150224456Y-148368207D01*
X148654439Y-146799112D01*
X147653906Y-145798579D01*
X147620421Y-145737256D01*
X147622925Y-145674904D01*
X147671073Y-145516183D01*
X147689657Y-145327500D01*
X147671073Y-145138817D01*
X147616037Y-144957385D01*
X147608008Y-144942364D01*
X147526665Y-144790181D01*
X147526661Y-144790174D01*
X147406383Y-144643616D01*
X147259825Y-144523338D01*
X147259818Y-144523334D01*
X147092622Y-144433966D01*
X147092619Y-144433965D01*
X147092618Y-144433964D01*
X147092615Y-144433963D01*
X146911183Y-144378927D01*
X146911181Y-144378926D01*
X146911183Y-144378926D01*
X146722500Y-144360343D01*
X146533818Y-144378926D01*
X146426694Y-144411421D01*
X146352385Y-144433963D01*
X146352382Y-144433964D01*
X146352380Y-144433965D01*
X146352377Y-144433966D01*
X146185181Y-144523334D01*
X146185174Y-144523338D01*
X146038616Y-144643616D01*
X145918338Y-144790174D01*
X145918334Y-144790181D01*
X145828966Y-144957377D01*
X145828965Y-144957380D01*
X145828964Y-144957382D01*
X145828963Y-144957385D01*
X145815199Y-145002759D01*
X145773926Y-145138818D01*
X145755343Y-145327500D01*
X145773926Y-145516181D01*
X145786565Y-145557846D01*
X145828963Y-145697615D01*
X145828964Y-145697618D01*
X145828965Y-145697619D01*
X145828966Y-145697622D01*
X145918334Y-145864818D01*
X145918338Y-145864825D01*
X146038616Y-146011383D01*
X146185174Y-146131661D01*
X146185181Y-146131665D01*
X146352377Y-146221033D01*
X146352378Y-146221033D01*
X146352385Y-146221037D01*
X146533817Y-146276073D01*
X146533816Y-146276073D01*
X146550733Y-146277739D01*
X146722500Y-146294657D01*
X146911183Y-146276073D01*
X147069904Y-146227925D01*
X147139770Y-146227303D01*
X147193579Y-146258906D01*
X148157924Y-147223251D01*
X148158071Y-147223418D01*
X148163593Y-147228937D01*
X148163594Y-147228938D01*
X148192517Y-147257844D01*
X148192543Y-147257870D01*
X148229928Y-147295255D01*
X148230100Y-147295405D01*
X149371275Y-148435909D01*
X149893888Y-148958215D01*
X149926138Y-148990465D01*
X149926159Y-148990481D01*
X149926210Y-148990520D01*
X149926214Y-148990522D01*
X149926215Y-148990523D01*
X149961650Y-149010968D01*
X149961671Y-149010991D01*
X149961676Y-149010984D01*
X149987839Y-149026088D01*
X150000362Y-149033318D01*
X150000363Y-149033318D01*
X150000373Y-149033324D01*
X150000428Y-149033347D01*
X150000446Y-149033351D01*
X150000450Y-149033354D01*
X150041316Y-149044291D01*
X150041343Y-149044308D01*
X150041346Y-149044300D01*
X150075268Y-149053388D01*
X150083147Y-149055500D01*
X150083155Y-149055500D01*
X150083169Y-149055502D01*
X150083231Y-149055509D01*
X150083243Y-149055513D01*
X150126082Y-149055500D01*
X150126096Y-149055500D01*
X159770851Y-149055500D01*
X159770853Y-149055500D01*
X159853639Y-149033318D01*
X159927862Y-148990465D01*
X160775420Y-148142906D01*
X160836741Y-148109423D01*
X160906432Y-148114407D01*
X160959685Y-148154272D01*
X160960225Y-148153829D01*
X160962028Y-148156026D01*
X160962366Y-148156279D01*
X160963182Y-148157432D01*
X161089116Y-148310883D01*
X161241460Y-148435909D01*
X161241467Y-148435913D01*
X161415266Y-148528811D01*
X161415269Y-148528811D01*
X161415273Y-148528814D01*
X161603868Y-148586024D01*
X161800000Y-148605341D01*
X161996132Y-148586024D01*
X162184727Y-148528814D01*
X162358538Y-148435910D01*
X162510883Y-148310883D01*
X162635910Y-148158538D01*
X162635910Y-148158536D01*
X162635914Y-148158532D01*
X162725437Y-147991047D01*
X162774399Y-147941202D01*
X162834795Y-147925500D01*
X170616851Y-147925500D01*
X170616853Y-147925500D01*
X170699639Y-147903318D01*
X170773862Y-147860465D01*
X171979652Y-146654672D01*
X171979657Y-146654669D01*
X171989860Y-146644465D01*
X171989862Y-146644465D01*
X172050465Y-146583862D01*
X172071891Y-146546750D01*
X172093318Y-146509639D01*
X172115501Y-146426853D01*
X172115501Y-146415913D01*
X172135186Y-146348874D01*
X172187990Y-146303119D01*
X172257148Y-146293175D01*
X172320704Y-146322200D01*
X172348859Y-146357460D01*
X172402519Y-146457851D01*
X172402523Y-146457857D01*
X172521800Y-146603199D01*
X172667142Y-146722476D01*
X172667148Y-146722481D01*
X172810516Y-146799112D01*
X172832961Y-146811109D01*
X173012882Y-146865688D01*
X173012884Y-146865689D01*
X173029660Y-146867341D01*
X173200000Y-146884118D01*
X173387115Y-146865689D01*
X173567039Y-146811109D01*
X173655005Y-146764090D01*
X173732851Y-146722481D01*
X173732853Y-146722478D01*
X173732857Y-146722477D01*
X173878199Y-146603199D01*
X173997477Y-146457857D01*
X173997478Y-146457853D01*
X173997481Y-146457851D01*
X174059862Y-146341143D01*
X174086109Y-146292039D01*
X174140689Y-146112115D01*
X174159118Y-145925000D01*
X174142341Y-145754660D01*
X174140689Y-145737884D01*
X174140688Y-145737882D01*
X174130755Y-145705138D01*
X174086109Y-145557961D01*
X174063777Y-145516181D01*
X173997481Y-145392148D01*
X173997476Y-145392142D01*
X173878199Y-145246800D01*
X173732857Y-145127523D01*
X173732851Y-145127518D01*
X173567040Y-145038891D01*
X173387117Y-144984311D01*
X173387115Y-144984310D01*
X173200000Y-144965882D01*
X173012884Y-144984310D01*
X173012882Y-144984311D01*
X172832959Y-145038891D01*
X172667148Y-145127518D01*
X172667142Y-145127523D01*
X172521800Y-145246800D01*
X172402523Y-145392142D01*
X172402518Y-145392148D01*
X172348858Y-145492541D01*
X172299896Y-145542386D01*
X172231758Y-145557846D01*
X172166078Y-145534014D01*
X172123710Y-145478457D01*
X172115500Y-145434088D01*
X172115500Y-138559999D01*
X173433179Y-138559999D01*
X173433179Y-138560000D01*
X173452424Y-138779976D01*
X173452426Y-138779986D01*
X173509575Y-138993270D01*
X173509580Y-138993284D01*
X173602898Y-139193405D01*
X173602901Y-139193411D01*
X173648258Y-139258187D01*
X173648258Y-139258188D01*
X174319000Y-138587446D01*
X174319000Y-138610160D01*
X174344964Y-138707061D01*
X174395124Y-138793940D01*
X174466060Y-138864876D01*
X174552939Y-138915036D01*
X174649840Y-138941000D01*
X174672553Y-138941000D01*
X174001810Y-139611740D01*
X174066590Y-139657099D01*
X174066592Y-139657100D01*
X174266715Y-139750419D01*
X174266729Y-139750424D01*
X174480013Y-139807573D01*
X174480023Y-139807575D01*
X174699999Y-139826821D01*
X174700001Y-139826821D01*
X174919976Y-139807575D01*
X174919986Y-139807573D01*
X175133270Y-139750424D01*
X175133284Y-139750419D01*
X175333407Y-139657100D01*
X175333417Y-139657094D01*
X175398188Y-139611741D01*
X174727448Y-138941000D01*
X174750160Y-138941000D01*
X174847061Y-138915036D01*
X174933940Y-138864876D01*
X175004876Y-138793940D01*
X175055036Y-138707061D01*
X175081000Y-138610160D01*
X175081000Y-138587447D01*
X175751741Y-139258188D01*
X175797094Y-139193417D01*
X175797100Y-139193407D01*
X175890419Y-138993284D01*
X175890424Y-138993270D01*
X175947573Y-138779986D01*
X175947575Y-138779976D01*
X175966821Y-138560000D01*
X175966821Y-138559999D01*
X175947575Y-138340023D01*
X175947573Y-138340013D01*
X175890424Y-138126729D01*
X175890420Y-138126720D01*
X175797096Y-137926586D01*
X175751741Y-137861811D01*
X175751740Y-137861810D01*
X175081000Y-138532551D01*
X175081000Y-138509840D01*
X175055036Y-138412939D01*
X175004876Y-138326060D01*
X174933940Y-138255124D01*
X174847061Y-138204964D01*
X174750160Y-138179000D01*
X174727447Y-138179000D01*
X175398188Y-137508258D01*
X175333411Y-137462901D01*
X175333405Y-137462898D01*
X175133284Y-137369580D01*
X175133270Y-137369575D01*
X174919986Y-137312426D01*
X174919976Y-137312424D01*
X174700001Y-137293179D01*
X174699999Y-137293179D01*
X174480023Y-137312424D01*
X174480013Y-137312426D01*
X174266729Y-137369575D01*
X174266720Y-137369579D01*
X174066590Y-137462901D01*
X174001811Y-137508258D01*
X174672554Y-138179000D01*
X174649840Y-138179000D01*
X174552939Y-138204964D01*
X174466060Y-138255124D01*
X174395124Y-138326060D01*
X174344964Y-138412939D01*
X174319000Y-138509840D01*
X174319000Y-138532553D01*
X173648258Y-137861811D01*
X173602901Y-137926590D01*
X173509579Y-138126720D01*
X173509575Y-138126729D01*
X173452426Y-138340013D01*
X173452424Y-138340023D01*
X173433179Y-138559999D01*
X172115500Y-138559999D01*
X172115500Y-122550149D01*
X172115500Y-122550147D01*
X172093318Y-122467361D01*
X172050465Y-122393138D01*
X160374072Y-110716745D01*
X160340587Y-110655422D01*
X160345571Y-110585730D01*
X160365896Y-110550404D01*
X160465910Y-110428538D01*
X160530873Y-110307001D01*
X160558811Y-110254733D01*
X160558811Y-110254732D01*
X160558814Y-110254727D01*
X160616024Y-110066132D01*
X160635341Y-109870000D01*
X160617507Y-109688929D01*
X160630526Y-109620285D01*
X160653226Y-109589099D01*
X162364465Y-107877862D01*
X162407317Y-107803639D01*
X162407318Y-107803638D01*
X162429500Y-107720853D01*
X162429500Y-104020188D01*
X162449185Y-103953149D01*
X162465814Y-103932511D01*
X163371811Y-103026514D01*
X163433132Y-102993031D01*
X163502823Y-102998015D01*
X163558757Y-103039887D01*
X163582893Y-103102042D01*
X163591426Y-103188681D01*
X163606650Y-103238867D01*
X163646463Y-103370115D01*
X163646464Y-103370118D01*
X163646465Y-103370119D01*
X163646466Y-103370122D01*
X163735834Y-103537318D01*
X163735838Y-103537325D01*
X163856116Y-103683883D01*
X164002674Y-103804161D01*
X164002681Y-103804165D01*
X164169877Y-103893533D01*
X164169878Y-103893533D01*
X164169885Y-103893537D01*
X164351317Y-103948573D01*
X164351316Y-103948573D01*
X164368233Y-103950239D01*
X164540000Y-103967157D01*
X164728683Y-103948573D01*
X164910115Y-103893537D01*
X165077324Y-103804162D01*
X165223883Y-103683883D01*
X165344162Y-103537324D01*
X165433537Y-103370115D01*
X165488573Y-103188683D01*
X165507157Y-103000000D01*
X173732843Y-103000000D01*
X173751426Y-103188681D01*
X173766650Y-103238867D01*
X173806463Y-103370115D01*
X173806464Y-103370118D01*
X173806465Y-103370119D01*
X173806466Y-103370122D01*
X173895834Y-103537318D01*
X173895838Y-103537325D01*
X174016116Y-103683883D01*
X174162674Y-103804161D01*
X174162681Y-103804165D01*
X174329877Y-103893533D01*
X174329878Y-103893533D01*
X174329885Y-103893537D01*
X174511317Y-103948573D01*
X174511316Y-103948573D01*
X174528233Y-103950239D01*
X174700000Y-103967157D01*
X174888683Y-103948573D01*
X175070115Y-103893537D01*
X175237324Y-103804162D01*
X175383883Y-103683883D01*
X175504162Y-103537324D01*
X175593537Y-103370115D01*
X175648573Y-103188683D01*
X175667157Y-103000000D01*
X175648573Y-102811317D01*
X175593537Y-102629885D01*
X175504162Y-102462676D01*
X175504161Y-102462674D01*
X175383883Y-102316116D01*
X175237325Y-102195838D01*
X175237318Y-102195834D01*
X175070122Y-102106466D01*
X175070119Y-102106465D01*
X175070118Y-102106464D01*
X175070115Y-102106463D01*
X174888683Y-102051427D01*
X174888681Y-102051426D01*
X174888683Y-102051426D01*
X174700000Y-102032843D01*
X174511318Y-102051426D01*
X174404194Y-102083921D01*
X174329885Y-102106463D01*
X174329882Y-102106464D01*
X174329880Y-102106465D01*
X174329877Y-102106466D01*
X174162681Y-102195834D01*
X174162674Y-102195838D01*
X174016116Y-102316116D01*
X173895838Y-102462674D01*
X173895834Y-102462681D01*
X173806466Y-102629877D01*
X173806465Y-102629880D01*
X173806464Y-102629882D01*
X173806463Y-102629885D01*
X173783921Y-102704194D01*
X173751426Y-102811318D01*
X173732843Y-103000000D01*
X165507157Y-103000000D01*
X165488573Y-102811317D01*
X165433537Y-102629885D01*
X165344162Y-102462676D01*
X165344161Y-102462674D01*
X165223883Y-102316116D01*
X165077325Y-102195838D01*
X165077318Y-102195834D01*
X164910122Y-102106466D01*
X164910119Y-102106465D01*
X164910118Y-102106464D01*
X164910115Y-102106463D01*
X164789160Y-102069772D01*
X164728681Y-102051426D01*
X164642042Y-102042893D01*
X164577255Y-102016732D01*
X164536897Y-101959697D01*
X164533780Y-101889897D01*
X164566514Y-101831811D01*
X164876150Y-101522175D01*
X164937471Y-101488692D01*
X164995925Y-101490084D01*
X165003236Y-101492043D01*
X165003238Y-101492044D01*
X165081619Y-101502363D01*
X165159999Y-101512682D01*
X165160000Y-101512682D01*
X165160001Y-101512682D01*
X165212254Y-101505802D01*
X165316762Y-101492044D01*
X165462841Y-101431536D01*
X165588282Y-101335282D01*
X165684536Y-101209841D01*
X165745044Y-101063762D01*
X165765682Y-100907000D01*
X165762667Y-100884102D01*
X165745044Y-100750239D01*
X165745044Y-100750238D01*
X165684536Y-100604159D01*
X165588282Y-100478718D01*
X165462841Y-100382464D01*
X165316762Y-100321956D01*
X165316760Y-100321955D01*
X165160001Y-100301318D01*
X165159999Y-100301318D01*
X165003239Y-100321955D01*
X165003237Y-100321956D01*
X164857160Y-100382463D01*
X164731718Y-100478718D01*
X164635463Y-100604160D01*
X164574956Y-100750237D01*
X164574956Y-100750238D01*
X164557332Y-100884102D01*
X164529065Y-100947998D01*
X164522074Y-100955597D01*
X161843537Y-103634135D01*
X161843533Y-103634141D01*
X161800681Y-103708361D01*
X161800682Y-103708362D01*
X161778500Y-103791147D01*
X161778500Y-107491810D01*
X161758815Y-107558849D01*
X161742181Y-107579491D01*
X160318111Y-109003560D01*
X160256788Y-109037045D01*
X160187096Y-109032061D01*
X160171977Y-109025237D01*
X160014733Y-108941188D01*
X160014727Y-108941186D01*
X159826132Y-108883976D01*
X159826129Y-108883975D01*
X159630000Y-108864659D01*
X159433870Y-108883975D01*
X159245266Y-108941188D01*
X159071467Y-109034086D01*
X159071460Y-109034090D01*
X158919116Y-109159116D01*
X158794090Y-109311460D01*
X158794086Y-109311467D01*
X158701188Y-109485266D01*
X158643975Y-109673870D01*
X158624659Y-109870000D01*
X158643975Y-110066129D01*
X158701188Y-110254733D01*
X158794086Y-110428532D01*
X158794090Y-110428539D01*
X158919116Y-110580883D01*
X159071460Y-110705909D01*
X159071467Y-110705913D01*
X159245266Y-110798811D01*
X159245269Y-110798811D01*
X159245273Y-110798814D01*
X159433868Y-110856024D01*
X159565895Y-110869027D01*
X159630682Y-110895188D01*
X159641422Y-110904749D01*
X159956266Y-111219593D01*
X159989751Y-111280916D01*
X159984767Y-111350608D01*
X159942895Y-111406541D01*
X159877431Y-111430958D01*
X159832592Y-111425935D01*
X159826134Y-111423976D01*
X159630000Y-111404659D01*
X159433870Y-111423975D01*
X159245266Y-111481188D01*
X159071467Y-111574086D01*
X159071460Y-111574090D01*
X158919116Y-111699116D01*
X158794090Y-111851460D01*
X158794086Y-111851467D01*
X158701188Y-112025266D01*
X158643975Y-112213870D01*
X158624659Y-112410000D01*
X158643975Y-112606129D01*
X158645107Y-112609862D01*
X158669994Y-112691903D01*
X158701188Y-112794733D01*
X158794086Y-112968532D01*
X158794090Y-112968539D01*
X158919116Y-113120883D01*
X159071460Y-113245909D01*
X159071467Y-113245913D01*
X159245266Y-113338811D01*
X159245269Y-113338811D01*
X159245273Y-113338814D01*
X159433868Y-113396024D01*
X159630000Y-113415341D01*
X159826132Y-113396024D01*
X160014727Y-113338814D01*
X160188538Y-113245910D01*
X160340883Y-113120883D01*
X160465910Y-112968538D01*
X160558814Y-112794727D01*
X160616024Y-112606132D01*
X160635341Y-112410000D01*
X160616024Y-112213868D01*
X160614065Y-112207413D01*
X160613440Y-112137547D01*
X160650686Y-112078432D01*
X160713979Y-112048839D01*
X160783224Y-112058163D01*
X160820406Y-112083733D01*
X171428181Y-122691508D01*
X171461666Y-122752831D01*
X171464500Y-122779189D01*
X171464500Y-145055450D01*
X171444815Y-145122489D01*
X171392011Y-145168244D01*
X171322853Y-145178188D01*
X171261837Y-145151305D01*
X171232857Y-145127523D01*
X171232854Y-145127521D01*
X171091046Y-145051722D01*
X171041202Y-145002759D01*
X171025500Y-144942364D01*
X171025500Y-144772855D01*
X171025501Y-144772842D01*
X171025501Y-144677149D01*
X171016516Y-144643616D01*
X171003318Y-144594362D01*
X170993294Y-144577000D01*
X170962313Y-144523338D01*
X170960466Y-144520139D01*
X170895531Y-144455204D01*
X170895520Y-144455194D01*
X165471406Y-139031079D01*
X165437921Y-138969756D01*
X165440425Y-138907404D01*
X165488573Y-138748683D01*
X165507157Y-138560000D01*
X165488573Y-138371317D01*
X165433537Y-138189885D01*
X165427719Y-138179000D01*
X165344165Y-138022681D01*
X165344161Y-138022674D01*
X165223883Y-137876116D01*
X165077325Y-137755838D01*
X165077318Y-137755834D01*
X164910122Y-137666466D01*
X164910119Y-137666465D01*
X164910118Y-137666464D01*
X164910115Y-137666463D01*
X164728683Y-137611427D01*
X164728681Y-137611426D01*
X164728683Y-137611426D01*
X164540000Y-137592843D01*
X164351318Y-137611426D01*
X164244194Y-137643921D01*
X164169885Y-137666463D01*
X164169882Y-137666464D01*
X164169880Y-137666465D01*
X164169877Y-137666466D01*
X164002681Y-137755834D01*
X164002674Y-137755838D01*
X163856116Y-137876116D01*
X163735838Y-138022674D01*
X163735834Y-138022681D01*
X163646466Y-138189877D01*
X163646465Y-138189880D01*
X163646464Y-138189882D01*
X163646463Y-138189885D01*
X163632962Y-138234394D01*
X163591426Y-138371318D01*
X163572843Y-138560000D01*
X163591426Y-138748681D01*
X163607587Y-138801957D01*
X163646463Y-138930115D01*
X163646464Y-138930118D01*
X163646465Y-138930119D01*
X163646466Y-138930122D01*
X163735834Y-139097318D01*
X163735838Y-139097325D01*
X163856116Y-139243883D01*
X164002674Y-139364161D01*
X164002681Y-139364165D01*
X164169877Y-139453533D01*
X164169878Y-139453533D01*
X164169885Y-139453537D01*
X164351317Y-139508573D01*
X164351316Y-139508573D01*
X164368233Y-139510239D01*
X164540000Y-139527157D01*
X164728683Y-139508573D01*
X164887404Y-139460425D01*
X164957270Y-139459803D01*
X165011079Y-139491406D01*
X170338181Y-144818507D01*
X170371666Y-144879830D01*
X170374500Y-144906188D01*
X170374500Y-144942364D01*
X170354815Y-145009403D01*
X170308954Y-145051722D01*
X170167145Y-145127521D01*
X170167142Y-145127523D01*
X170021800Y-145246800D01*
X169902523Y-145392142D01*
X169902518Y-145392148D01*
X169813891Y-145557959D01*
X169759311Y-145737882D01*
X169759310Y-145737884D01*
X169740882Y-145925000D01*
X169759310Y-146112115D01*
X169759311Y-146112117D01*
X169813891Y-146292040D01*
X169902518Y-146457851D01*
X169902523Y-146457857D01*
X170021800Y-146603199D01*
X170167142Y-146722476D01*
X170167148Y-146722481D01*
X170310516Y-146799112D01*
X170332961Y-146811109D01*
X170512882Y-146865688D01*
X170512884Y-146865689D01*
X170524997Y-146866881D01*
X170557024Y-146870036D01*
X170621811Y-146896196D01*
X170662171Y-146953230D01*
X170665288Y-147023030D01*
X170632553Y-147081120D01*
X170475490Y-147238182D01*
X170414169Y-147271666D01*
X170387811Y-147274500D01*
X162834795Y-147274500D01*
X162767756Y-147254815D01*
X162725437Y-147208953D01*
X162635914Y-147041467D01*
X162635909Y-147041460D01*
X162510883Y-146889116D01*
X162358539Y-146764090D01*
X162358532Y-146764086D01*
X162184733Y-146671188D01*
X162184727Y-146671186D01*
X161996132Y-146613976D01*
X161996129Y-146613975D01*
X161800000Y-146594659D01*
X161603870Y-146613975D01*
X161415266Y-146671188D01*
X161241467Y-146764086D01*
X161241460Y-146764090D01*
X161089115Y-146889117D01*
X161075352Y-146905888D01*
X161017605Y-146945222D01*
X160947761Y-146947091D01*
X160887993Y-146910903D01*
X160857278Y-146848146D01*
X160855500Y-146827222D01*
X160855500Y-145151247D01*
X167245500Y-145151247D01*
X167245500Y-146698752D01*
X167257131Y-146757229D01*
X167257132Y-146757230D01*
X167301447Y-146823552D01*
X167367769Y-146867867D01*
X167367770Y-146867868D01*
X167426247Y-146879499D01*
X167426250Y-146879500D01*
X167426252Y-146879500D01*
X168973750Y-146879500D01*
X168973751Y-146879499D01*
X168988568Y-146876552D01*
X169032229Y-146867868D01*
X169032229Y-146867867D01*
X169032231Y-146867867D01*
X169098552Y-146823552D01*
X169142867Y-146757231D01*
X169142867Y-146757229D01*
X169142868Y-146757229D01*
X169154499Y-146698752D01*
X169154500Y-146698750D01*
X169154500Y-145151249D01*
X169154499Y-145151247D01*
X169142868Y-145092770D01*
X169142867Y-145092769D01*
X169098552Y-145026447D01*
X169032230Y-144982132D01*
X169032229Y-144982131D01*
X168973752Y-144970500D01*
X168973748Y-144970500D01*
X167426252Y-144970500D01*
X167426247Y-144970500D01*
X167367770Y-144982131D01*
X167367769Y-144982132D01*
X167301447Y-145026447D01*
X167257132Y-145092769D01*
X167257131Y-145092770D01*
X167245500Y-145151247D01*
X160855500Y-145151247D01*
X160855500Y-138689698D01*
X160875185Y-138622659D01*
X160891656Y-138602180D01*
X161028103Y-138465224D01*
X161028266Y-138465061D01*
X161043365Y-138449960D01*
X161058465Y-138434862D01*
X161058467Y-138434857D01*
X161058835Y-138434378D01*
X161058837Y-138434376D01*
X161080053Y-138397470D01*
X161080054Y-138397469D01*
X161080069Y-138397477D01*
X161080163Y-138397278D01*
X161101318Y-138360638D01*
X161101319Y-138360632D01*
X161101365Y-138360524D01*
X161101551Y-138360073D01*
X161112473Y-138319009D01*
X161112532Y-138318788D01*
X161123501Y-138277848D01*
X161123577Y-138277258D01*
X161123580Y-138277247D01*
X161123500Y-138234394D01*
X161123500Y-135719500D01*
X161143185Y-135652461D01*
X161195989Y-135606706D01*
X161247500Y-135595500D01*
X162811851Y-135595500D01*
X162811853Y-135595500D01*
X162894639Y-135573318D01*
X162968862Y-135530465D01*
X168921315Y-129578009D01*
X168982636Y-129544526D01*
X169025180Y-129542753D01*
X169092999Y-129551682D01*
X169093000Y-129551682D01*
X169093001Y-129551682D01*
X169145254Y-129544802D01*
X169249762Y-129531044D01*
X169333047Y-129496545D01*
X169402517Y-129489077D01*
X169464996Y-129520352D01*
X169500648Y-129580441D01*
X169504500Y-129611107D01*
X169504500Y-137497262D01*
X169484815Y-137564301D01*
X169432011Y-137610056D01*
X169416493Y-137615923D01*
X169249885Y-137666463D01*
X169249882Y-137666464D01*
X169249880Y-137666465D01*
X169249877Y-137666466D01*
X169082681Y-137755834D01*
X169082674Y-137755838D01*
X168936116Y-137876116D01*
X168815838Y-138022674D01*
X168815834Y-138022681D01*
X168726466Y-138189877D01*
X168726465Y-138189880D01*
X168726464Y-138189882D01*
X168726463Y-138189885D01*
X168712962Y-138234394D01*
X168671426Y-138371318D01*
X168652843Y-138560000D01*
X168671426Y-138748681D01*
X168687587Y-138801957D01*
X168726463Y-138930115D01*
X168726464Y-138930118D01*
X168726465Y-138930119D01*
X168726466Y-138930122D01*
X168815834Y-139097318D01*
X168815838Y-139097325D01*
X168936116Y-139243883D01*
X169082674Y-139364161D01*
X169082681Y-139364165D01*
X169249877Y-139453533D01*
X169249878Y-139453533D01*
X169249885Y-139453537D01*
X169431317Y-139508573D01*
X169431316Y-139508573D01*
X169448233Y-139510239D01*
X169620000Y-139527157D01*
X169808683Y-139508573D01*
X169990115Y-139453537D01*
X170157324Y-139364162D01*
X170303883Y-139243883D01*
X170424162Y-139097324D01*
X170513537Y-138930115D01*
X170568573Y-138748683D01*
X170587157Y-138560000D01*
X170568573Y-138371317D01*
X170513537Y-138189885D01*
X170507719Y-138179000D01*
X170424165Y-138022681D01*
X170424161Y-138022674D01*
X170303883Y-137876116D01*
X170200835Y-137791546D01*
X170161501Y-137733800D01*
X170155500Y-137695693D01*
X170155500Y-126053149D01*
X170155500Y-126053147D01*
X170133318Y-125970362D01*
X170133318Y-125970361D01*
X170090465Y-125896138D01*
X160170510Y-115976183D01*
X160137025Y-115914860D01*
X160142009Y-115845168D01*
X160183881Y-115789235D01*
X160188274Y-115786126D01*
X160188535Y-115785911D01*
X160188538Y-115785910D01*
X160340883Y-115660883D01*
X160465910Y-115508538D01*
X160558814Y-115334727D01*
X160616024Y-115146132D01*
X160635341Y-114950000D01*
X160616024Y-114753868D01*
X160558814Y-114565273D01*
X160558811Y-114565269D01*
X160558811Y-114565266D01*
X160465913Y-114391467D01*
X160465909Y-114391460D01*
X160340883Y-114239116D01*
X160188539Y-114114090D01*
X160188532Y-114114086D01*
X160014733Y-114021188D01*
X160014727Y-114021186D01*
X159826132Y-113963976D01*
X159826129Y-113963975D01*
X159630000Y-113944659D01*
X159433870Y-113963975D01*
X159245266Y-114021188D01*
X159071467Y-114114086D01*
X159071460Y-114114090D01*
X158919116Y-114239116D01*
X158794090Y-114391460D01*
X158794086Y-114391467D01*
X158701188Y-114565266D01*
X158643975Y-114753870D01*
X158624659Y-114950000D01*
X158643975Y-115146129D01*
X158701188Y-115334733D01*
X158794086Y-115508532D01*
X158794090Y-115508539D01*
X158919116Y-115660882D01*
X158935887Y-115674646D01*
X158975222Y-115732392D01*
X158977093Y-115802236D01*
X158940906Y-115862005D01*
X158878150Y-115892721D01*
X158857223Y-115894500D01*
X155514203Y-115894500D01*
X155447164Y-115874815D01*
X155426517Y-115858177D01*
X150975322Y-111406541D01*
X148244573Y-108675521D01*
X148211092Y-108614197D01*
X148216080Y-108544506D01*
X148257954Y-108488574D01*
X148284802Y-108473286D01*
X148392841Y-108428536D01*
X148518282Y-108332282D01*
X148614536Y-108206841D01*
X148675044Y-108060762D01*
X148693814Y-107918189D01*
X148695682Y-107904001D01*
X148695682Y-107904000D01*
X148686754Y-107836188D01*
X148697519Y-107767156D01*
X148722010Y-107732327D01*
X149124348Y-107330000D01*
X158624659Y-107330000D01*
X158643975Y-107526129D01*
X158701188Y-107714733D01*
X158794086Y-107888532D01*
X158794090Y-107888539D01*
X158919116Y-108040883D01*
X159071460Y-108165909D01*
X159071467Y-108165913D01*
X159245266Y-108258811D01*
X159245269Y-108258811D01*
X159245273Y-108258814D01*
X159433868Y-108316024D01*
X159630000Y-108335341D01*
X159826132Y-108316024D01*
X160014727Y-108258814D01*
X160188538Y-108165910D01*
X160340883Y-108040883D01*
X160465910Y-107888538D01*
X160520934Y-107785595D01*
X160558811Y-107714733D01*
X160558811Y-107714732D01*
X160558814Y-107714727D01*
X160616024Y-107526132D01*
X160635341Y-107330000D01*
X160616024Y-107133868D01*
X160558814Y-106945273D01*
X160558811Y-106945269D01*
X160558811Y-106945266D01*
X160465913Y-106771467D01*
X160465909Y-106771460D01*
X160340883Y-106619116D01*
X160188539Y-106494090D01*
X160188532Y-106494086D01*
X160014733Y-106401188D01*
X160014727Y-106401186D01*
X159826132Y-106343976D01*
X159826129Y-106343975D01*
X159630000Y-106324659D01*
X159433870Y-106343975D01*
X159245266Y-106401188D01*
X159071467Y-106494086D01*
X159071460Y-106494090D01*
X158919116Y-106619116D01*
X158794090Y-106771460D01*
X158794086Y-106771467D01*
X158701188Y-106945266D01*
X158643975Y-107133870D01*
X158624659Y-107330000D01*
X149124348Y-107330000D01*
X151914428Y-104539999D01*
X158351127Y-104539999D01*
X158351128Y-104540000D01*
X159196988Y-104540000D01*
X159164075Y-104597007D01*
X159130000Y-104724174D01*
X159130000Y-104855826D01*
X159164075Y-104982993D01*
X159196988Y-105040000D01*
X158351128Y-105040000D01*
X158403730Y-105236317D01*
X158403734Y-105236326D01*
X158499865Y-105442482D01*
X158630342Y-105628820D01*
X158791179Y-105789657D01*
X158977517Y-105920134D01*
X159183673Y-106016265D01*
X159183682Y-106016269D01*
X159379999Y-106068872D01*
X159380000Y-106068871D01*
X159380000Y-105223012D01*
X159437007Y-105255925D01*
X159564174Y-105290000D01*
X159695826Y-105290000D01*
X159822993Y-105255925D01*
X159880000Y-105223012D01*
X159880000Y-106068872D01*
X160076317Y-106016269D01*
X160076326Y-106016265D01*
X160282482Y-105920134D01*
X160468820Y-105789657D01*
X160629657Y-105628820D01*
X160760134Y-105442482D01*
X160856265Y-105236326D01*
X160856269Y-105236317D01*
X160908872Y-105040000D01*
X160063012Y-105040000D01*
X160095925Y-104982993D01*
X160130000Y-104855826D01*
X160130000Y-104724174D01*
X160095925Y-104597007D01*
X160063012Y-104540000D01*
X160908872Y-104540000D01*
X160908872Y-104539999D01*
X160856269Y-104343682D01*
X160856265Y-104343673D01*
X160760134Y-104137517D01*
X160629657Y-103951179D01*
X160468820Y-103790342D01*
X160282482Y-103659865D01*
X160076328Y-103563734D01*
X159880000Y-103511127D01*
X159880000Y-104356988D01*
X159822993Y-104324075D01*
X159695826Y-104290000D01*
X159564174Y-104290000D01*
X159437007Y-104324075D01*
X159380000Y-104356988D01*
X159380000Y-103511127D01*
X159183671Y-103563734D01*
X158977517Y-103659865D01*
X158791179Y-103790342D01*
X158630342Y-103951179D01*
X158499865Y-104137517D01*
X158403734Y-104343673D01*
X158403730Y-104343682D01*
X158351127Y-104539999D01*
X151914428Y-104539999D01*
X154204492Y-102250000D01*
X158624659Y-102250000D01*
X158643975Y-102446129D01*
X158701188Y-102634733D01*
X158794086Y-102808532D01*
X158794090Y-102808539D01*
X158919116Y-102960883D01*
X159071460Y-103085909D01*
X159071467Y-103085913D01*
X159245266Y-103178811D01*
X159245269Y-103178811D01*
X159245273Y-103178814D01*
X159433868Y-103236024D01*
X159630000Y-103255341D01*
X159826132Y-103236024D01*
X160014727Y-103178814D01*
X160188538Y-103085910D01*
X160340883Y-102960883D01*
X160465910Y-102808538D01*
X160558814Y-102634727D01*
X160616024Y-102446132D01*
X160635341Y-102250000D01*
X160616024Y-102053868D01*
X160558814Y-101865273D01*
X160558811Y-101865269D01*
X160558811Y-101865266D01*
X160465913Y-101691467D01*
X160465909Y-101691460D01*
X160340883Y-101539116D01*
X160188539Y-101414090D01*
X160188532Y-101414086D01*
X160014733Y-101321188D01*
X160014727Y-101321186D01*
X159826132Y-101263976D01*
X159826129Y-101263975D01*
X159630000Y-101244659D01*
X159433870Y-101263975D01*
X159245266Y-101321188D01*
X159071467Y-101414086D01*
X159071460Y-101414090D01*
X158919116Y-101539116D01*
X158794090Y-101691460D01*
X158794086Y-101691467D01*
X158701188Y-101865266D01*
X158643975Y-102053870D01*
X158624659Y-102250000D01*
X154204492Y-102250000D01*
X158840951Y-97613672D01*
X158840965Y-97613661D01*
X158849860Y-97604765D01*
X158849862Y-97604765D01*
X158910465Y-97544162D01*
X158935680Y-97500488D01*
X158953316Y-97469943D01*
X158953316Y-97469941D01*
X158953317Y-97469940D01*
X158961772Y-97438384D01*
X158961773Y-97438384D01*
X158961773Y-97438378D01*
X158975500Y-97387157D01*
X158975501Y-97301452D01*
X158975500Y-97301448D01*
X158975500Y-95779816D01*
X158995185Y-95712777D01*
X159047989Y-95667022D01*
X159117147Y-95657078D01*
X159178163Y-95683961D01*
X159241462Y-95735910D01*
X159241466Y-95735912D01*
X159241467Y-95735913D01*
X159415266Y-95828811D01*
X159415269Y-95828811D01*
X159415273Y-95828814D01*
X159603868Y-95886024D01*
X159800000Y-95905341D01*
X159996132Y-95886024D01*
X160184727Y-95828814D01*
X160220145Y-95809883D01*
X160358532Y-95735913D01*
X160358534Y-95735912D01*
X160358538Y-95735910D01*
X160510883Y-95610883D01*
X160635910Y-95458538D01*
X160728814Y-95284727D01*
X160786024Y-95096132D01*
X160805341Y-94900000D01*
X160786024Y-94703868D01*
X160728814Y-94515273D01*
X160728811Y-94515269D01*
X160728811Y-94515266D01*
X160635913Y-94341467D01*
X160635909Y-94341460D01*
X160510883Y-94189116D01*
X160358539Y-94064090D01*
X160358532Y-94064086D01*
X160184733Y-93971188D01*
X160184727Y-93971186D01*
X159996132Y-93913976D01*
X159996129Y-93913975D01*
X159800000Y-93894659D01*
X159603870Y-93913975D01*
X159415266Y-93971188D01*
X159241467Y-94064086D01*
X159241460Y-94064091D01*
X159178165Y-94116036D01*
X159113855Y-94143349D01*
X159044987Y-94131558D01*
X158993427Y-94084406D01*
X158975500Y-94020183D01*
X158975500Y-93039921D01*
X158995185Y-92972882D01*
X159011796Y-92952262D01*
X159833477Y-92130155D01*
X159894790Y-92096657D01*
X159937362Y-92094877D01*
X160005000Y-92103782D01*
X160161762Y-92083144D01*
X160307841Y-92022636D01*
X160433282Y-91926382D01*
X160529536Y-91800941D01*
X160590044Y-91654862D01*
X160610682Y-91498100D01*
X160590044Y-91341338D01*
X160529536Y-91195259D01*
X160433282Y-91069818D01*
X160307841Y-90973564D01*
X160161762Y-90913056D01*
X160161760Y-90913055D01*
X160005001Y-90892418D01*
X160004999Y-90892418D01*
X159848239Y-90913055D01*
X159848237Y-90913056D01*
X159702160Y-90973563D01*
X159576718Y-91069818D01*
X159480463Y-91195260D01*
X159419956Y-91341337D01*
X159419955Y-91341339D01*
X159399318Y-91498098D01*
X159399318Y-91498101D01*
X159408270Y-91566101D01*
X159397504Y-91635137D01*
X159373035Y-91669945D01*
X158420488Y-92622984D01*
X158420466Y-92623005D01*
X158389507Y-92653964D01*
X158368321Y-92690679D01*
X158368309Y-92690699D01*
X158346662Y-92728195D01*
X158346650Y-92728240D01*
X158335769Y-92768889D01*
X158324500Y-92810947D01*
X158324500Y-92810949D01*
X158324498Y-92810957D01*
X158324489Y-92811025D01*
X158324500Y-92853884D01*
X158324500Y-93887015D01*
X158304815Y-93954054D01*
X158252011Y-93999809D01*
X158182853Y-94009753D01*
X158131609Y-93990117D01*
X158088230Y-93961132D01*
X158088229Y-93961131D01*
X158029752Y-93949500D01*
X158029748Y-93949500D01*
X156490252Y-93949500D01*
X156490247Y-93949500D01*
X156431770Y-93961131D01*
X156431769Y-93961132D01*
X156365447Y-94005447D01*
X156321132Y-94071769D01*
X156321131Y-94071770D01*
X156309500Y-94130247D01*
X156309500Y-95669752D01*
X156321131Y-95728229D01*
X156321132Y-95728230D01*
X156365447Y-95794552D01*
X156431769Y-95838867D01*
X156431770Y-95838868D01*
X156490247Y-95850499D01*
X156490250Y-95850500D01*
X156490252Y-95850500D01*
X158029750Y-95850500D01*
X158029751Y-95850499D01*
X158048450Y-95846780D01*
X158088229Y-95838868D01*
X158088231Y-95838867D01*
X158131608Y-95809883D01*
X158198285Y-95789004D01*
X158265665Y-95807488D01*
X158312356Y-95859466D01*
X158324500Y-95912984D01*
X158324500Y-97158106D01*
X158304815Y-97225145D01*
X158288180Y-97245788D01*
X148261693Y-107271990D01*
X148200369Y-107305475D01*
X148157829Y-107307247D01*
X148090003Y-107298318D01*
X148089999Y-107298318D01*
X147933239Y-107318955D01*
X147933237Y-107318956D01*
X147787160Y-107379463D01*
X147661718Y-107475718D01*
X147565463Y-107601160D01*
X147520742Y-107709127D01*
X147476901Y-107763530D01*
X147410607Y-107785595D01*
X147342907Y-107768316D01*
X147318495Y-107749351D01*
X146188372Y-106619116D01*
X145788992Y-106219696D01*
X145755511Y-106158372D01*
X145760499Y-106088681D01*
X145788996Y-106044341D01*
X154912790Y-96920934D01*
X154912807Y-96920920D01*
X154919862Y-96913865D01*
X154956789Y-96876937D01*
X154971784Y-96861942D01*
X154974121Y-96860027D01*
X154979075Y-96854743D01*
X154980476Y-96853296D01*
X154981454Y-96851660D01*
X154985557Y-96845020D01*
X154986736Y-96842399D01*
X155002602Y-96814918D01*
X155023315Y-96779045D01*
X155023315Y-96779041D01*
X155023318Y-96779038D01*
X155032444Y-96744977D01*
X155032446Y-96744974D01*
X155032445Y-96744974D01*
X155045500Y-96696258D01*
X155045502Y-96610554D01*
X155045500Y-96610549D01*
X155045501Y-96602969D01*
X155045500Y-96602935D01*
X155045500Y-95934794D01*
X155065185Y-95867755D01*
X155111047Y-95825436D01*
X155278532Y-95735913D01*
X155278534Y-95735912D01*
X155278538Y-95735910D01*
X155430883Y-95610883D01*
X155555910Y-95458538D01*
X155648814Y-95284727D01*
X155706024Y-95096132D01*
X155725341Y-94900000D01*
X155706024Y-94703868D01*
X155648814Y-94515273D01*
X155648811Y-94515269D01*
X155648811Y-94515266D01*
X155555913Y-94341467D01*
X155555909Y-94341460D01*
X155430883Y-94189116D01*
X155278539Y-94064090D01*
X155278532Y-94064086D01*
X155104733Y-93971188D01*
X155104727Y-93971186D01*
X154916132Y-93913976D01*
X154916129Y-93913975D01*
X154720000Y-93894659D01*
X154523870Y-93913975D01*
X154335266Y-93971188D01*
X154161467Y-94064086D01*
X154161460Y-94064090D01*
X154009116Y-94189116D01*
X153884090Y-94341460D01*
X153884086Y-94341467D01*
X153791188Y-94515266D01*
X153733975Y-94703870D01*
X153714659Y-94900000D01*
X153733975Y-95096129D01*
X153791188Y-95284733D01*
X153884086Y-95458532D01*
X153884090Y-95458539D01*
X154009116Y-95610883D01*
X154161460Y-95735909D01*
X154161467Y-95735913D01*
X154328953Y-95825436D01*
X154378797Y-95874398D01*
X154394500Y-95934794D01*
X154394500Y-96467205D01*
X154374815Y-96534244D01*
X154358179Y-96554888D01*
X145428610Y-105484080D01*
X145367287Y-105517564D01*
X145297595Y-105512578D01*
X145241662Y-105470705D01*
X145217247Y-105405240D01*
X145231573Y-105337944D01*
X145310597Y-105190099D01*
X145318814Y-105174727D01*
X145376024Y-104986132D01*
X145395341Y-104790000D01*
X145376024Y-104593868D01*
X145318814Y-104405273D01*
X145318811Y-104405269D01*
X145318811Y-104405266D01*
X145225913Y-104231467D01*
X145225909Y-104231460D01*
X145100883Y-104079116D01*
X144948539Y-103954090D01*
X144948532Y-103954086D01*
X144774733Y-103861188D01*
X144774727Y-103861186D01*
X144586132Y-103803976D01*
X144586129Y-103803975D01*
X144390000Y-103784659D01*
X144193870Y-103803975D01*
X144005266Y-103861188D01*
X143831467Y-103954086D01*
X143831460Y-103954090D01*
X143679116Y-104079116D01*
X143554090Y-104231460D01*
X143554086Y-104231467D01*
X143461188Y-104405266D01*
X143403975Y-104593870D01*
X143384659Y-104790000D01*
X143403975Y-104986129D01*
X143403976Y-104986132D01*
X143460297Y-105171798D01*
X143461188Y-105174733D01*
X143554086Y-105348532D01*
X143554090Y-105348539D01*
X143679116Y-105500883D01*
X143783620Y-105586647D01*
X143822954Y-105644392D01*
X143824825Y-105714237D01*
X143788637Y-105774005D01*
X143725882Y-105804721D01*
X143704955Y-105806500D01*
X141218189Y-105806500D01*
X141151150Y-105786815D01*
X141130508Y-105770181D01*
X141088179Y-105727852D01*
X141054694Y-105666529D01*
X141058819Y-105599216D01*
X141072646Y-105559701D01*
X141072646Y-105559699D01*
X141075500Y-105529269D01*
X141075500Y-104670730D01*
X141072646Y-104640300D01*
X141072646Y-104640298D01*
X141027793Y-104512119D01*
X141027792Y-104512117D01*
X140947150Y-104402850D01*
X140837882Y-104322207D01*
X140837880Y-104322206D01*
X140709700Y-104277353D01*
X140679270Y-104274500D01*
X140679266Y-104274500D01*
X139320734Y-104274500D01*
X139320730Y-104274500D01*
X139290300Y-104277353D01*
X139290298Y-104277353D01*
X139162119Y-104322206D01*
X139162117Y-104322207D01*
X139052850Y-104402850D01*
X138972207Y-104512117D01*
X138972206Y-104512119D01*
X138927353Y-104640298D01*
X138927353Y-104640300D01*
X138924500Y-104670730D01*
X138924500Y-105128226D01*
X138904815Y-105195265D01*
X138852011Y-105241020D01*
X138782853Y-105250964D01*
X138719297Y-105221939D01*
X138712780Y-105215869D01*
X138370780Y-104873568D01*
X138337322Y-104812230D01*
X138334500Y-104785925D01*
X138334500Y-101430247D01*
X143389500Y-101430247D01*
X143389500Y-103069752D01*
X143401131Y-103128229D01*
X143401132Y-103128230D01*
X143445447Y-103194552D01*
X143511769Y-103238867D01*
X143511770Y-103238868D01*
X143570247Y-103250499D01*
X143570250Y-103250500D01*
X143570252Y-103250500D01*
X145209750Y-103250500D01*
X145209751Y-103250499D01*
X145224568Y-103247552D01*
X145268229Y-103238868D01*
X145268229Y-103238867D01*
X145268231Y-103238867D01*
X145334552Y-103194552D01*
X145378867Y-103128231D01*
X145378867Y-103128229D01*
X145378868Y-103128229D01*
X145390499Y-103069752D01*
X145390500Y-103069750D01*
X145390500Y-101430249D01*
X145390499Y-101430247D01*
X145378868Y-101371770D01*
X145378867Y-101371769D01*
X145334552Y-101305447D01*
X145268230Y-101261132D01*
X145268229Y-101261131D01*
X145209752Y-101249500D01*
X145209748Y-101249500D01*
X143570252Y-101249500D01*
X143570247Y-101249500D01*
X143511770Y-101261131D01*
X143511769Y-101261132D01*
X143445447Y-101305447D01*
X143401132Y-101371769D01*
X143401131Y-101371770D01*
X143389500Y-101430247D01*
X138334500Y-101430247D01*
X138334500Y-94152155D01*
X140525000Y-94152155D01*
X140525000Y-94850000D01*
X141549722Y-94850000D01*
X141505667Y-94926306D01*
X141475000Y-95040756D01*
X141475000Y-95159244D01*
X141505667Y-95273694D01*
X141549722Y-95350000D01*
X140525000Y-95350000D01*
X140525000Y-96047844D01*
X140531401Y-96107372D01*
X140531403Y-96107379D01*
X140581645Y-96242086D01*
X140581649Y-96242093D01*
X140667809Y-96357187D01*
X140667812Y-96357190D01*
X140782906Y-96443350D01*
X140782913Y-96443354D01*
X140917620Y-96493596D01*
X140917627Y-96493598D01*
X140977155Y-96499999D01*
X140977172Y-96500000D01*
X141675000Y-96500000D01*
X141675000Y-95475277D01*
X141751306Y-95519333D01*
X141865756Y-95550000D01*
X141984244Y-95550000D01*
X142098694Y-95519333D01*
X142175000Y-95475277D01*
X142175000Y-96500000D01*
X142872828Y-96500000D01*
X142872844Y-96499999D01*
X142932372Y-96493598D01*
X142932379Y-96493596D01*
X143067086Y-96443354D01*
X143067093Y-96443350D01*
X143182187Y-96357190D01*
X143182190Y-96357187D01*
X143268350Y-96242093D01*
X143268354Y-96242086D01*
X143318596Y-96107379D01*
X143318598Y-96107372D01*
X143324999Y-96047844D01*
X143325000Y-96047827D01*
X143325000Y-95786511D01*
X143344685Y-95719472D01*
X143397489Y-95673717D01*
X143466647Y-95663773D01*
X143530203Y-95692798D01*
X143547954Y-95711784D01*
X143648237Y-95844581D01*
X143798958Y-95981980D01*
X143798960Y-95981982D01*
X143898141Y-96043392D01*
X143972363Y-96089348D01*
X144162544Y-96163024D01*
X144363024Y-96200500D01*
X144363026Y-96200500D01*
X144566974Y-96200500D01*
X144566976Y-96200500D01*
X144767456Y-96163024D01*
X144957637Y-96089348D01*
X145131041Y-95981981D01*
X145281764Y-95844579D01*
X145404673Y-95681821D01*
X145495582Y-95499250D01*
X145551397Y-95303083D01*
X145570215Y-95100000D01*
X145551397Y-94896917D01*
X145495582Y-94700750D01*
X145404673Y-94518179D01*
X145281764Y-94355421D01*
X145281762Y-94355418D01*
X145131041Y-94218019D01*
X145131039Y-94218017D01*
X144957642Y-94110655D01*
X144957635Y-94110651D01*
X144837435Y-94064086D01*
X144767456Y-94036976D01*
X144566976Y-93999500D01*
X144363024Y-93999500D01*
X144162544Y-94036976D01*
X144162541Y-94036976D01*
X144162541Y-94036977D01*
X143972364Y-94110651D01*
X143972357Y-94110655D01*
X143798960Y-94218017D01*
X143798958Y-94218019D01*
X143648237Y-94355419D01*
X143547954Y-94488215D01*
X143491845Y-94529851D01*
X143422133Y-94534542D01*
X143360951Y-94500800D01*
X143327724Y-94439337D01*
X143325000Y-94413488D01*
X143325000Y-94152172D01*
X143324999Y-94152155D01*
X143318598Y-94092627D01*
X143318596Y-94092620D01*
X143268354Y-93957913D01*
X143268350Y-93957906D01*
X143182190Y-93842812D01*
X143182187Y-93842809D01*
X143067093Y-93756649D01*
X143067086Y-93756645D01*
X142932379Y-93706403D01*
X142932372Y-93706401D01*
X142872844Y-93700000D01*
X142175000Y-93700000D01*
X142175000Y-94724722D01*
X142098694Y-94680667D01*
X141984244Y-94650000D01*
X141865756Y-94650000D01*
X141751306Y-94680667D01*
X141675000Y-94724722D01*
X141675000Y-93700000D01*
X140977155Y-93700000D01*
X140917627Y-93706401D01*
X140917620Y-93706403D01*
X140782913Y-93756645D01*
X140782906Y-93756649D01*
X140667812Y-93842809D01*
X140667809Y-93842812D01*
X140581649Y-93957906D01*
X140581645Y-93957913D01*
X140531403Y-94092620D01*
X140531401Y-94092627D01*
X140525000Y-94152155D01*
X138334500Y-94152155D01*
X138334500Y-92912598D01*
X139133318Y-92912598D01*
X139133318Y-92912601D01*
X139153955Y-93069360D01*
X139153956Y-93069362D01*
X139214464Y-93215441D01*
X139310718Y-93340882D01*
X139436159Y-93437136D01*
X139582238Y-93497644D01*
X139660619Y-93507963D01*
X139738999Y-93518282D01*
X139739000Y-93518282D01*
X139739001Y-93518282D01*
X139791254Y-93511402D01*
X139895762Y-93497644D01*
X140041841Y-93437136D01*
X140167282Y-93340882D01*
X140263536Y-93215441D01*
X140324044Y-93069362D01*
X140344682Y-92912600D01*
X140335755Y-92844796D01*
X140346520Y-92775764D01*
X140371012Y-92740933D01*
X143764270Y-89347844D01*
X170600000Y-89347844D01*
X170606401Y-89407372D01*
X170606403Y-89407379D01*
X170656645Y-89542086D01*
X170656649Y-89542093D01*
X170742809Y-89657187D01*
X170742812Y-89657190D01*
X170857906Y-89743350D01*
X170857913Y-89743354D01*
X170992620Y-89793596D01*
X170992627Y-89793598D01*
X171052155Y-89799999D01*
X171052172Y-89800000D01*
X171950000Y-89800000D01*
X172450000Y-89800000D01*
X173347828Y-89800000D01*
X173347844Y-89799999D01*
X173407372Y-89793598D01*
X173407379Y-89793596D01*
X173542086Y-89743354D01*
X173542093Y-89743350D01*
X173657187Y-89657190D01*
X173657190Y-89657187D01*
X173743350Y-89542093D01*
X173743354Y-89542086D01*
X173793596Y-89407379D01*
X173793598Y-89407372D01*
X173799999Y-89347844D01*
X173800000Y-89347827D01*
X173800000Y-88850000D01*
X172450000Y-88850000D01*
X172450000Y-89800000D01*
X171950000Y-89800000D01*
X171950000Y-88850000D01*
X170600000Y-88850000D01*
X170600000Y-89347844D01*
X143764270Y-89347844D01*
X144464305Y-88647844D01*
X161400000Y-88647844D01*
X161406401Y-88707372D01*
X161406403Y-88707379D01*
X161456645Y-88842086D01*
X161456649Y-88842093D01*
X161542809Y-88957187D01*
X161542812Y-88957190D01*
X161657906Y-89043350D01*
X161657913Y-89043354D01*
X161792620Y-89093596D01*
X161792627Y-89093598D01*
X161852155Y-89099999D01*
X161852172Y-89100000D01*
X162350000Y-89100000D01*
X162850000Y-89100000D01*
X163347828Y-89100000D01*
X163347844Y-89099999D01*
X163407372Y-89093598D01*
X163407379Y-89093596D01*
X163542086Y-89043354D01*
X163542093Y-89043350D01*
X163657187Y-88957190D01*
X163657190Y-88957187D01*
X163743350Y-88842093D01*
X163743354Y-88842086D01*
X163793596Y-88707379D01*
X163793598Y-88707372D01*
X163799999Y-88647844D01*
X163800000Y-88647827D01*
X163800000Y-87950000D01*
X162850000Y-87950000D01*
X162850000Y-89100000D01*
X162350000Y-89100000D01*
X162350000Y-87950000D01*
X161400000Y-87950000D01*
X161400000Y-88647844D01*
X144464305Y-88647844D01*
X145260033Y-87852155D01*
X170600000Y-87852155D01*
X170600000Y-88350000D01*
X171950000Y-88350000D01*
X172450000Y-88350000D01*
X173800000Y-88350000D01*
X173800000Y-87852172D01*
X173799999Y-87852155D01*
X173793598Y-87792627D01*
X173793596Y-87792620D01*
X173743354Y-87657913D01*
X173743350Y-87657906D01*
X173657190Y-87542812D01*
X173657187Y-87542809D01*
X173542093Y-87456649D01*
X173542086Y-87456645D01*
X173407379Y-87406403D01*
X173407372Y-87406401D01*
X173347844Y-87400000D01*
X172450000Y-87400000D01*
X172450000Y-88350000D01*
X171950000Y-88350000D01*
X171950000Y-87400000D01*
X171052155Y-87400000D01*
X170992627Y-87406401D01*
X170992620Y-87406403D01*
X170857913Y-87456645D01*
X170857906Y-87456649D01*
X170742812Y-87542809D01*
X170742809Y-87542812D01*
X170656649Y-87657906D01*
X170656645Y-87657913D01*
X170606403Y-87792620D01*
X170606401Y-87792627D01*
X170600000Y-87852155D01*
X145260033Y-87852155D01*
X146360088Y-86752155D01*
X161400000Y-86752155D01*
X161400000Y-87450000D01*
X162350000Y-87450000D01*
X162350000Y-86300000D01*
X161852155Y-86300000D01*
X161792627Y-86306401D01*
X161792620Y-86306403D01*
X161657913Y-86356645D01*
X161657906Y-86356649D01*
X161542812Y-86442809D01*
X161542809Y-86442812D01*
X161456649Y-86557906D01*
X161456645Y-86557913D01*
X161406403Y-86692620D01*
X161406401Y-86692627D01*
X161400000Y-86752155D01*
X146360088Y-86752155D01*
X147971955Y-85140368D01*
X147971967Y-85140359D01*
X147980860Y-85131465D01*
X147980862Y-85131465D01*
X148021354Y-85090972D01*
X148035240Y-85077086D01*
X148038285Y-85074445D01*
X148038973Y-85073671D01*
X148041284Y-85071215D01*
X148042457Y-85069254D01*
X148046557Y-85062620D01*
X148047735Y-85060001D01*
X148062324Y-85034731D01*
X148084315Y-84996646D01*
X148084315Y-84996644D01*
X148084790Y-84995822D01*
X148085865Y-84990863D01*
X148090646Y-84973017D01*
X148090649Y-84973013D01*
X148090648Y-84973013D01*
X148106500Y-84913861D01*
X148106502Y-84828155D01*
X148106500Y-84828150D01*
X148106501Y-84820570D01*
X148106500Y-84820536D01*
X148106500Y-82463798D01*
X148126185Y-82396759D01*
X148155010Y-82365425D01*
X148209282Y-82323782D01*
X148305536Y-82198341D01*
X148366044Y-82052262D01*
X148386682Y-81895500D01*
X148380112Y-81845599D01*
X148366044Y-81738739D01*
X148366044Y-81738738D01*
X148305536Y-81592659D01*
X148209282Y-81467218D01*
X148083841Y-81370964D01*
X148027884Y-81347786D01*
X147937762Y-81310456D01*
X147937760Y-81310455D01*
X147781001Y-81289818D01*
X147780999Y-81289818D01*
X147624239Y-81310455D01*
X147624237Y-81310456D01*
X147478160Y-81370963D01*
X147352718Y-81467218D01*
X147256463Y-81592660D01*
X147195956Y-81738737D01*
X147195955Y-81738739D01*
X147175318Y-81895498D01*
X147175318Y-81895501D01*
X147195955Y-82052260D01*
X147195956Y-82052262D01*
X147220310Y-82111059D01*
X147256464Y-82198341D01*
X147352718Y-82323782D01*
X147406987Y-82365424D01*
X147448189Y-82421849D01*
X147455500Y-82463798D01*
X147455500Y-84684804D01*
X147435815Y-84751843D01*
X147419179Y-84772487D01*
X139910700Y-92280592D01*
X139849376Y-92314076D01*
X139806837Y-92315848D01*
X139739003Y-92306918D01*
X139738999Y-92306918D01*
X139582239Y-92327555D01*
X139582237Y-92327556D01*
X139436160Y-92388063D01*
X139310718Y-92484318D01*
X139214463Y-92609760D01*
X139153956Y-92755837D01*
X139153955Y-92755839D01*
X139133318Y-92912598D01*
X138334500Y-92912598D01*
X138334500Y-76592202D01*
X138354185Y-76525163D01*
X138406989Y-76479408D01*
X138476147Y-76469464D01*
X138537166Y-76496350D01*
X138591459Y-76540908D01*
X138591467Y-76540913D01*
X138765266Y-76633811D01*
X138765269Y-76633811D01*
X138765273Y-76633814D01*
X138953868Y-76691024D01*
X139150000Y-76710341D01*
X139346132Y-76691024D01*
X139527919Y-76635878D01*
X139597785Y-76635255D01*
X139651591Y-76666854D01*
X140052932Y-77068159D01*
X140087137Y-77102364D01*
X140087153Y-77102376D01*
X140120736Y-77121762D01*
X140120744Y-77121770D01*
X140120746Y-77121768D01*
X140160610Y-77144784D01*
X140161362Y-77145226D01*
X140161366Y-77145228D01*
X140162260Y-77145460D01*
X140199790Y-77155514D01*
X140199793Y-77155516D01*
X140230735Y-77163806D01*
X140243304Y-77167174D01*
X140244110Y-77167396D01*
X140244144Y-77167401D01*
X140244157Y-77167400D01*
X140244161Y-77167402D01*
X140287013Y-77167400D01*
X140287015Y-77167400D01*
X152492883Y-77167400D01*
X152559922Y-77187085D01*
X152580538Y-77203693D01*
X153438157Y-78060847D01*
X153471659Y-78122160D01*
X153474500Y-78148551D01*
X153474500Y-79204269D01*
X153477353Y-79234699D01*
X153477353Y-79234701D01*
X153510789Y-79330252D01*
X153522207Y-79362882D01*
X153602850Y-79472150D01*
X153712118Y-79552793D01*
X153739745Y-79562460D01*
X153840299Y-79597646D01*
X153870730Y-79600500D01*
X153870734Y-79600500D01*
X154804270Y-79600500D01*
X154821656Y-79598869D01*
X154834699Y-79597646D01*
X154865166Y-79586984D01*
X154934942Y-79583422D01*
X154993811Y-79616355D01*
X155180459Y-79803048D01*
X155703790Y-80326508D01*
X155703865Y-80326593D01*
X155733614Y-80356341D01*
X155741556Y-80364283D01*
X155770038Y-80392772D01*
X155770111Y-80392845D01*
X155770140Y-80392867D01*
X155770242Y-80392925D01*
X155808958Y-80415278D01*
X155808956Y-80415280D01*
X155808968Y-80415284D01*
X155844253Y-80435661D01*
X155844326Y-80435703D01*
X155844347Y-80435712D01*
X155844355Y-80435715D01*
X155844358Y-80435715D01*
X155844362Y-80435718D01*
X155886057Y-80446889D01*
X155886072Y-80446898D01*
X155886074Y-80446894D01*
X155927107Y-80457895D01*
X155927112Y-80457895D01*
X155927146Y-80457900D01*
X155969960Y-80457900D01*
X156012813Y-80457905D01*
X156012815Y-80457904D01*
X156020743Y-80457905D01*
X156020836Y-80457900D01*
X160490068Y-80457900D01*
X160490433Y-80457923D01*
X160498295Y-80457919D01*
X160498298Y-80457920D01*
X160541150Y-80457900D01*
X160583853Y-80457900D01*
X160583856Y-80457899D01*
X160583967Y-80457884D01*
X160583994Y-80457880D01*
X160584003Y-80457880D01*
X160625362Y-80446777D01*
X160625364Y-80446786D01*
X160625412Y-80446763D01*
X160666638Y-80435718D01*
X160666642Y-80435715D01*
X160666651Y-80435713D01*
X160666777Y-80435661D01*
X160666777Y-80435660D01*
X160666779Y-80435660D01*
X160703581Y-80414388D01*
X160703640Y-80414374D01*
X160703632Y-80414359D01*
X160703634Y-80414358D01*
X160740862Y-80392865D01*
X160740866Y-80392860D01*
X160740874Y-80392856D01*
X160740962Y-80392789D01*
X160740975Y-80392775D01*
X160740982Y-80392772D01*
X160770107Y-80363618D01*
X160770157Y-80363590D01*
X160770147Y-80363580D01*
X160807234Y-80326493D01*
X160807473Y-80326217D01*
X160924262Y-80209320D01*
X160985567Y-80175810D01*
X161055261Y-80180762D01*
X161111214Y-80222608D01*
X161135661Y-80288061D01*
X161120841Y-80356341D01*
X161115087Y-80365849D01*
X161111133Y-80371765D01*
X161111131Y-80371770D01*
X161099500Y-80430247D01*
X161099500Y-81169752D01*
X161111131Y-81228229D01*
X161111132Y-81228230D01*
X161146465Y-81281109D01*
X161167343Y-81347786D01*
X161148859Y-81415166D01*
X161146465Y-81418891D01*
X161111132Y-81471769D01*
X161111131Y-81471770D01*
X161099500Y-81530247D01*
X161099500Y-82269752D01*
X161111131Y-82328229D01*
X161111132Y-82328230D01*
X161146465Y-82381109D01*
X161167343Y-82447786D01*
X161148859Y-82515166D01*
X161146465Y-82518891D01*
X161111132Y-82571769D01*
X161111131Y-82571770D01*
X161099500Y-82630247D01*
X161099500Y-83369752D01*
X161111131Y-83428229D01*
X161111132Y-83428230D01*
X161155447Y-83494552D01*
X161221769Y-83538867D01*
X161221770Y-83538868D01*
X161280247Y-83550499D01*
X161280250Y-83550500D01*
X161280252Y-83550500D01*
X162777500Y-83550500D01*
X162844539Y-83570185D01*
X162890294Y-83622989D01*
X162901500Y-83674500D01*
X162901500Y-85085849D01*
X162901485Y-85130248D01*
X162901498Y-85130347D01*
X162912392Y-85171004D01*
X162912397Y-85171042D01*
X162912402Y-85171041D01*
X162923649Y-85213071D01*
X162923667Y-85213113D01*
X162945299Y-85250580D01*
X162945319Y-85250614D01*
X162966475Y-85287285D01*
X162966537Y-85287365D01*
X162997921Y-85318748D01*
X162997950Y-85318777D01*
X163382045Y-85703117D01*
X163415511Y-85764451D01*
X163417275Y-85806953D01*
X163408318Y-85874995D01*
X163408318Y-85875001D01*
X163428955Y-86031760D01*
X163428957Y-86031765D01*
X163469121Y-86128730D01*
X163476590Y-86198199D01*
X163445315Y-86260678D01*
X163385226Y-86296330D01*
X163351149Y-86299690D01*
X163351149Y-86300000D01*
X163348014Y-86300000D01*
X163347953Y-86300006D01*
X163347841Y-86300000D01*
X162850000Y-86300000D01*
X162850000Y-87450000D01*
X163800000Y-87450000D01*
X163800000Y-86752172D01*
X163799999Y-86752155D01*
X163793598Y-86692627D01*
X163793597Y-86692623D01*
X163771138Y-86632408D01*
X163766154Y-86562717D01*
X163799638Y-86501393D01*
X163860961Y-86467908D01*
X163903504Y-86466135D01*
X163959237Y-86473472D01*
X164013999Y-86480682D01*
X164014000Y-86480682D01*
X164014001Y-86480682D01*
X164066254Y-86473802D01*
X164170762Y-86460044D01*
X164316841Y-86399536D01*
X164442282Y-86303282D01*
X164538536Y-86177841D01*
X164599044Y-86031762D01*
X164619682Y-85875000D01*
X164619681Y-85874995D01*
X164599044Y-85718239D01*
X164599044Y-85718238D01*
X164538536Y-85572159D01*
X164442282Y-85446718D01*
X164316841Y-85350464D01*
X164240274Y-85318749D01*
X164170762Y-85289956D01*
X164170760Y-85289955D01*
X164014002Y-85269318D01*
X164013997Y-85269318D01*
X163946404Y-85278216D01*
X163877369Y-85267450D01*
X163842512Y-85242931D01*
X163588791Y-84989048D01*
X163555325Y-84927714D01*
X163552500Y-84901395D01*
X163552500Y-83868995D01*
X171899499Y-83868995D01*
X171926418Y-84004322D01*
X171926421Y-84004332D01*
X171979221Y-84131804D01*
X171979228Y-84131817D01*
X172055885Y-84246541D01*
X172055888Y-84246545D01*
X172153454Y-84344111D01*
X172153458Y-84344114D01*
X172268182Y-84420771D01*
X172268195Y-84420778D01*
X172395667Y-84473578D01*
X172395672Y-84473580D01*
X172395676Y-84473580D01*
X172395677Y-84473581D01*
X172531004Y-84500500D01*
X172531007Y-84500500D01*
X172668995Y-84500500D01*
X172760041Y-84482389D01*
X172804328Y-84473580D01*
X172931811Y-84420775D01*
X173046542Y-84344114D01*
X173144114Y-84246542D01*
X173220775Y-84131811D01*
X173273580Y-84004328D01*
X173300500Y-83868993D01*
X173300500Y-83731007D01*
X173300500Y-83731004D01*
X173273581Y-83595677D01*
X173273580Y-83595676D01*
X173273580Y-83595672D01*
X173231695Y-83494552D01*
X173220778Y-83468195D01*
X173220771Y-83468182D01*
X173144114Y-83353458D01*
X173144111Y-83353454D01*
X173046545Y-83255888D01*
X173046541Y-83255885D01*
X172931817Y-83179228D01*
X172931804Y-83179221D01*
X172804332Y-83126421D01*
X172804322Y-83126418D01*
X172668995Y-83099500D01*
X172668993Y-83099500D01*
X172531007Y-83099500D01*
X172531005Y-83099500D01*
X172395677Y-83126418D01*
X172395667Y-83126421D01*
X172268195Y-83179221D01*
X172268182Y-83179228D01*
X172153458Y-83255885D01*
X172153454Y-83255888D01*
X172055888Y-83353454D01*
X172055885Y-83353458D01*
X171979228Y-83468182D01*
X171979221Y-83468195D01*
X171926421Y-83595667D01*
X171926418Y-83595677D01*
X171899500Y-83731004D01*
X171899500Y-83731007D01*
X171899500Y-83868993D01*
X171899500Y-83868995D01*
X171899499Y-83868995D01*
X163552500Y-83868995D01*
X163552500Y-82870957D01*
X163572185Y-82803918D01*
X163624989Y-82758163D01*
X163694147Y-82748219D01*
X163757703Y-82777244D01*
X163774873Y-82795468D01*
X163810718Y-82842182D01*
X163936159Y-82938436D01*
X164082238Y-82998944D01*
X164160619Y-83009263D01*
X164238999Y-83019582D01*
X164239000Y-83019582D01*
X164239001Y-83019582D01*
X164291254Y-83012702D01*
X164395762Y-82998944D01*
X164541841Y-82938436D01*
X164667282Y-82842182D01*
X164763536Y-82716741D01*
X164824044Y-82570662D01*
X164841395Y-82438867D01*
X164844682Y-82413901D01*
X164844682Y-82413898D01*
X164824044Y-82257139D01*
X164824044Y-82257138D01*
X164763536Y-82111059D01*
X164667282Y-81985618D01*
X164667280Y-81985616D01*
X164667279Y-81985615D01*
X164613012Y-81943974D01*
X164571810Y-81887546D01*
X164564500Y-81845599D01*
X164564500Y-81816993D01*
X164564505Y-81769390D01*
X164564504Y-81769389D01*
X164564505Y-81769380D01*
X164564501Y-81769366D01*
X164564500Y-81769356D01*
X164564500Y-81769347D01*
X164556298Y-81738737D01*
X164553587Y-81728616D01*
X164553585Y-81728610D01*
X164545958Y-81700138D01*
X164542771Y-81688240D01*
X164542354Y-81686582D01*
X164542351Y-81686574D01*
X164541537Y-81685209D01*
X164520218Y-81648283D01*
X164520210Y-81648271D01*
X164499485Y-81612364D01*
X164499465Y-81612338D01*
X164468992Y-81581865D01*
X164468986Y-81581854D01*
X164468984Y-81581857D01*
X163493472Y-80606153D01*
X163493417Y-80606090D01*
X163452312Y-80564985D01*
X163452306Y-80564974D01*
X163452304Y-80564977D01*
X163426887Y-80539555D01*
X163426886Y-80539554D01*
X163426881Y-80539549D01*
X163426867Y-80539538D01*
X163426862Y-80539535D01*
X163387411Y-80516757D01*
X163387407Y-80516753D01*
X163387407Y-80516755D01*
X163352654Y-80496686D01*
X163338903Y-80493001D01*
X163310751Y-80485458D01*
X163310744Y-80485453D01*
X163310744Y-80485456D01*
X163269871Y-80474500D01*
X163269853Y-80474500D01*
X163231793Y-80474500D01*
X163231774Y-80474499D01*
X163211047Y-80474497D01*
X163144010Y-80454803D01*
X163098263Y-80401992D01*
X163089447Y-80374685D01*
X163088867Y-80371769D01*
X163069572Y-80342892D01*
X163048693Y-80276215D01*
X163067177Y-80208834D01*
X163119155Y-80162144D01*
X163172673Y-80150000D01*
X172004710Y-80150000D01*
X172004710Y-78148630D01*
X163500858Y-78148630D01*
X163433819Y-78128945D01*
X163388064Y-78076141D01*
X163378120Y-78006983D01*
X163384676Y-77981296D01*
X163393597Y-77957376D01*
X163393598Y-77957372D01*
X163399999Y-77897844D01*
X163400000Y-77897827D01*
X163400000Y-77750000D01*
X160800000Y-77750000D01*
X160800000Y-77897844D01*
X160806401Y-77957372D01*
X160806403Y-77957379D01*
X160856645Y-78092086D01*
X160860897Y-78099872D01*
X160858041Y-78101431D01*
X160876898Y-78151993D01*
X160862044Y-78220266D01*
X160812637Y-78269669D01*
X160785359Y-78280596D01*
X160766176Y-78285745D01*
X160746480Y-78291022D01*
X160725346Y-78296686D01*
X160725236Y-78296732D01*
X160688143Y-78318168D01*
X160688104Y-78318191D01*
X160651113Y-78339549D01*
X160651043Y-78339603D01*
X160621171Y-78369500D01*
X160585112Y-78405559D01*
X160584879Y-78405824D01*
X160217414Y-78773609D01*
X160156106Y-78807121D01*
X160113511Y-78808905D01*
X160046003Y-78800018D01*
X160045998Y-78800018D01*
X159889239Y-78820655D01*
X159889237Y-78820656D01*
X159743160Y-78881163D01*
X159617718Y-78977418D01*
X159521463Y-79102860D01*
X159460956Y-79248937D01*
X159460955Y-79248939D01*
X159440318Y-79405698D01*
X159440318Y-79405701D01*
X159460955Y-79562460D01*
X159460956Y-79562462D01*
X159491188Y-79635448D01*
X159498657Y-79704916D01*
X159467382Y-79767396D01*
X159407293Y-79803048D01*
X159376627Y-79806900D01*
X158573189Y-79806900D01*
X158506150Y-79787215D01*
X158460395Y-79734411D01*
X158450451Y-79665253D01*
X158467650Y-79617803D01*
X158559356Y-79469124D01*
X158559358Y-79469119D01*
X158614505Y-79302697D01*
X158614506Y-79302690D01*
X158624999Y-79199986D01*
X158625000Y-79199973D01*
X158625000Y-78750000D01*
X156300001Y-78750000D01*
X156300001Y-79199986D01*
X156310494Y-79302697D01*
X156365641Y-79469119D01*
X156365643Y-79469124D01*
X156457350Y-79617803D01*
X156475790Y-79685195D01*
X156454868Y-79751859D01*
X156401226Y-79796629D01*
X156351811Y-79806900D01*
X156156221Y-79806900D01*
X156089182Y-79787215D01*
X156068529Y-79770570D01*
X155236808Y-78938644D01*
X155203331Y-78877317D01*
X155200500Y-78850974D01*
X155200500Y-77795730D01*
X155197646Y-77765300D01*
X155197646Y-77765298D01*
X155152793Y-77637119D01*
X155152792Y-77637117D01*
X155072150Y-77527850D01*
X154962882Y-77447207D01*
X154962880Y-77447206D01*
X154834700Y-77402353D01*
X154804270Y-77399500D01*
X154804266Y-77399500D01*
X153870734Y-77399500D01*
X153870730Y-77399500D01*
X153840305Y-77402353D01*
X153840299Y-77402354D01*
X153810053Y-77412937D01*
X153740274Y-77416496D01*
X153681444Y-77383599D01*
X153040842Y-76743343D01*
X153007341Y-76682029D01*
X153004500Y-76655638D01*
X153004500Y-76107552D01*
X153024185Y-76040513D01*
X153040836Y-76019853D01*
X154015940Y-75045230D01*
X154077270Y-75011762D01*
X154146960Y-75016764D01*
X154202883Y-75058649D01*
X154224386Y-75114037D01*
X154225711Y-75113774D01*
X154238531Y-75178229D01*
X154238532Y-75178230D01*
X154282847Y-75244552D01*
X154349169Y-75288867D01*
X154349170Y-75288868D01*
X154407647Y-75300499D01*
X154407650Y-75300500D01*
X154407652Y-75300500D01*
X155647150Y-75300500D01*
X155647151Y-75300499D01*
X155661885Y-75297568D01*
X155717610Y-75286485D01*
X155717925Y-75288071D01*
X155773382Y-75282107D01*
X155835863Y-75313380D01*
X155839029Y-75316435D01*
X156388223Y-75865355D01*
X156801943Y-76278869D01*
X156835444Y-76340183D01*
X156837223Y-76382756D01*
X156828318Y-76450398D01*
X156828318Y-76450401D01*
X156848955Y-76607160D01*
X156848956Y-76607162D01*
X156888783Y-76703314D01*
X156909464Y-76753241D01*
X157005718Y-76878682D01*
X157006045Y-76878933D01*
X157011961Y-76883473D01*
X157053163Y-76939901D01*
X157057316Y-77009647D01*
X157023103Y-77070567D01*
X156961385Y-77103319D01*
X156949075Y-77105205D01*
X156897303Y-77110494D01*
X156730880Y-77165641D01*
X156730875Y-77165643D01*
X156581654Y-77257684D01*
X156457684Y-77381654D01*
X156365643Y-77530875D01*
X156365641Y-77530880D01*
X156310494Y-77697302D01*
X156310493Y-77697309D01*
X156300000Y-77800013D01*
X156300000Y-78250000D01*
X158624999Y-78250000D01*
X158624999Y-77800028D01*
X158624998Y-77800013D01*
X158614505Y-77697302D01*
X158559358Y-77530880D01*
X158559356Y-77530875D01*
X158467315Y-77381654D01*
X158343345Y-77257684D01*
X158194124Y-77165643D01*
X158194119Y-77165641D01*
X158027697Y-77110494D01*
X158027689Y-77110493D01*
X157925621Y-77100065D01*
X157860929Y-77073668D01*
X157820778Y-77016487D01*
X157817915Y-76946676D01*
X157853250Y-76886400D01*
X157862030Y-76878933D01*
X157862277Y-76878686D01*
X157862279Y-76878684D01*
X157862282Y-76878682D01*
X157958536Y-76753241D01*
X158019044Y-76607162D01*
X158039682Y-76450400D01*
X158019044Y-76293638D01*
X157958536Y-76147559D01*
X157862282Y-76022118D01*
X157736841Y-75925864D01*
X157720774Y-75919209D01*
X157590762Y-75865356D01*
X157590760Y-75865355D01*
X157434002Y-75844718D01*
X157433997Y-75844718D01*
X157366002Y-75853669D01*
X157296967Y-75842903D01*
X157262163Y-75818436D01*
X157223554Y-75779846D01*
X157190056Y-75718535D01*
X157195024Y-75648842D01*
X157236881Y-75592898D01*
X157288432Y-75570258D01*
X157329721Y-75562540D01*
X157519812Y-75488899D01*
X157519816Y-75488897D01*
X157608086Y-75434241D01*
X157608086Y-75434240D01*
X156968700Y-74794854D01*
X156987904Y-74800000D01*
X157066896Y-74800000D01*
X157143196Y-74779556D01*
X157211605Y-74740060D01*
X157267460Y-74684205D01*
X157306956Y-74615796D01*
X157327400Y-74539496D01*
X157327400Y-74460504D01*
X157322254Y-74441301D01*
X157964865Y-75083912D01*
X157966647Y-75081553D01*
X157966648Y-75081551D01*
X158057513Y-74899069D01*
X158057516Y-74899063D01*
X158113302Y-74702992D01*
X158113303Y-74702989D01*
X158132113Y-74500000D01*
X158132113Y-74499999D01*
X158114707Y-74312162D01*
X158128122Y-74243593D01*
X158176479Y-74193161D01*
X158244425Y-74176878D01*
X158310387Y-74199915D01*
X158325861Y-74213041D01*
X158918232Y-74805448D01*
X160706685Y-76594009D01*
X160706710Y-76594037D01*
X160754697Y-76642024D01*
X160754698Y-76642026D01*
X160754699Y-76642026D01*
X160773265Y-76660593D01*
X160773581Y-76660827D01*
X160776303Y-76662292D01*
X160812082Y-76682949D01*
X160812084Y-76682950D01*
X160812087Y-76682952D01*
X160839794Y-76698950D01*
X160888008Y-76749519D01*
X160901228Y-76818126D01*
X160877058Y-76880645D01*
X160856646Y-76907911D01*
X160856645Y-76907913D01*
X160806403Y-77042620D01*
X160806401Y-77042627D01*
X160800000Y-77102155D01*
X160800000Y-77250000D01*
X163400000Y-77250000D01*
X163400000Y-77102172D01*
X163399999Y-77102155D01*
X163393598Y-77042627D01*
X163393596Y-77042620D01*
X163343354Y-76907913D01*
X163343350Y-76907906D01*
X163257190Y-76792812D01*
X163150188Y-76712709D01*
X163108318Y-76656775D01*
X163100500Y-76613443D01*
X163100500Y-76030249D01*
X163100499Y-76030247D01*
X163088868Y-75971770D01*
X163088867Y-75971768D01*
X163053535Y-75918892D01*
X163037910Y-75868995D01*
X171899499Y-75868995D01*
X171926418Y-76004322D01*
X171926421Y-76004332D01*
X171979221Y-76131804D01*
X171979228Y-76131817D01*
X172055885Y-76246541D01*
X172055888Y-76246545D01*
X172153454Y-76344111D01*
X172153458Y-76344114D01*
X172268182Y-76420771D01*
X172268195Y-76420778D01*
X172361532Y-76459439D01*
X172395672Y-76473580D01*
X172395676Y-76473580D01*
X172395677Y-76473581D01*
X172531004Y-76500500D01*
X172531007Y-76500500D01*
X172668995Y-76500500D01*
X172775029Y-76479408D01*
X172804328Y-76473580D01*
X172931811Y-76420775D01*
X173046542Y-76344114D01*
X173144114Y-76246542D01*
X173220775Y-76131811D01*
X173273580Y-76004328D01*
X173289188Y-75925863D01*
X173300500Y-75868995D01*
X173300500Y-75731004D01*
X173273581Y-75595677D01*
X173273580Y-75595676D01*
X173273580Y-75595672D01*
X173263053Y-75570258D01*
X173220778Y-75468195D01*
X173220771Y-75468182D01*
X173144114Y-75353458D01*
X173144111Y-75353454D01*
X173046545Y-75255888D01*
X173046541Y-75255885D01*
X172931817Y-75179228D01*
X172931804Y-75179221D01*
X172804332Y-75126421D01*
X172804322Y-75126418D01*
X172668995Y-75099500D01*
X172668993Y-75099500D01*
X172531007Y-75099500D01*
X172531005Y-75099500D01*
X172395677Y-75126418D01*
X172395667Y-75126421D01*
X172268195Y-75179221D01*
X172268182Y-75179228D01*
X172153458Y-75255885D01*
X172153454Y-75255888D01*
X172055888Y-75353454D01*
X172055885Y-75353458D01*
X171979228Y-75468182D01*
X171979221Y-75468195D01*
X171926421Y-75595667D01*
X171926418Y-75595677D01*
X171899500Y-75731004D01*
X171899500Y-75731007D01*
X171899500Y-75868993D01*
X171899500Y-75868995D01*
X171899499Y-75868995D01*
X163037910Y-75868995D01*
X163032656Y-75852215D01*
X163051140Y-75784835D01*
X163053535Y-75781108D01*
X163068926Y-75758075D01*
X163088867Y-75728231D01*
X163088868Y-75728229D01*
X163100499Y-75669752D01*
X163100500Y-75669750D01*
X163100500Y-74930249D01*
X163100499Y-74930247D01*
X163088868Y-74871770D01*
X163088867Y-74871768D01*
X163053535Y-74818892D01*
X163032656Y-74752215D01*
X163051140Y-74684835D01*
X163053535Y-74681108D01*
X163088867Y-74628231D01*
X163088868Y-74628229D01*
X163100499Y-74569752D01*
X163100500Y-74569750D01*
X163100500Y-74224000D01*
X163120185Y-74156961D01*
X163172989Y-74111206D01*
X163224500Y-74100000D01*
X163547828Y-74100000D01*
X163547844Y-74099999D01*
X163607372Y-74093598D01*
X163607379Y-74093596D01*
X163742086Y-74043354D01*
X163742093Y-74043350D01*
X163857187Y-73957190D01*
X163857190Y-73957187D01*
X163943350Y-73842093D01*
X163943354Y-73842086D01*
X163993596Y-73707379D01*
X163993598Y-73707372D01*
X163999999Y-73647844D01*
X170600000Y-73647844D01*
X170606401Y-73707372D01*
X170606403Y-73707379D01*
X170656645Y-73842086D01*
X170656649Y-73842093D01*
X170742809Y-73957187D01*
X170742812Y-73957190D01*
X170857906Y-74043350D01*
X170857913Y-74043354D01*
X170992620Y-74093596D01*
X170992627Y-74093598D01*
X171052155Y-74099999D01*
X171052172Y-74100000D01*
X171950000Y-74100000D01*
X172450000Y-74100000D01*
X173347828Y-74100000D01*
X173347844Y-74099999D01*
X173407372Y-74093598D01*
X173407379Y-74093596D01*
X173542086Y-74043354D01*
X173542093Y-74043350D01*
X173657187Y-73957190D01*
X173657190Y-73957187D01*
X173743350Y-73842093D01*
X173743354Y-73842086D01*
X173793596Y-73707379D01*
X173793598Y-73707372D01*
X173799999Y-73647844D01*
X173800000Y-73647827D01*
X173800000Y-73150000D01*
X172450000Y-73150000D01*
X172450000Y-74100000D01*
X171950000Y-74100000D01*
X171950000Y-73150000D01*
X170600000Y-73150000D01*
X170600000Y-73647844D01*
X163999999Y-73647844D01*
X164000000Y-73647827D01*
X164000000Y-73150000D01*
X161400000Y-73150000D01*
X161400000Y-73525500D01*
X161380315Y-73592539D01*
X161327511Y-73638294D01*
X161286153Y-73647291D01*
X161286312Y-73648903D01*
X161280247Y-73649500D01*
X161221770Y-73661131D01*
X161221769Y-73661132D01*
X161155447Y-73705447D01*
X161111132Y-73771769D01*
X161111131Y-73771770D01*
X161099500Y-73830247D01*
X161099500Y-74569752D01*
X161111131Y-74628229D01*
X161111132Y-74628230D01*
X161146465Y-74681109D01*
X161167343Y-74747786D01*
X161148859Y-74815166D01*
X161146465Y-74818891D01*
X161111132Y-74871769D01*
X161111131Y-74871770D01*
X161099500Y-74930247D01*
X161099500Y-75669752D01*
X161111131Y-75728229D01*
X161111132Y-75728231D01*
X161115564Y-75734863D01*
X161136443Y-75801540D01*
X161117959Y-75868921D01*
X161065981Y-75915611D01*
X160997011Y-75926788D01*
X160932947Y-75898903D01*
X160924779Y-75891434D01*
X159533428Y-74499999D01*
X157943793Y-72910267D01*
X157943786Y-72910259D01*
X157939465Y-72905938D01*
X157911759Y-72878232D01*
X157911758Y-72878230D01*
X157911758Y-72878231D01*
X157878870Y-72845341D01*
X157878869Y-72845340D01*
X157878866Y-72845337D01*
X157865131Y-72837407D01*
X157846373Y-72826577D01*
X157846372Y-72826576D01*
X157804648Y-72802486D01*
X157804643Y-72802483D01*
X157784270Y-72797024D01*
X157768208Y-72792720D01*
X157741444Y-72785548D01*
X157721860Y-72780300D01*
X157721856Y-72780300D01*
X157721853Y-72780300D01*
X157693294Y-72780300D01*
X157636157Y-72780298D01*
X157636156Y-72780298D01*
X157627533Y-72780298D01*
X157627505Y-72780300D01*
X147773152Y-72780300D01*
X147706113Y-72760615D01*
X147663794Y-72714753D01*
X147605914Y-72606467D01*
X147605909Y-72606460D01*
X147480883Y-72454116D01*
X147328539Y-72329090D01*
X147328532Y-72329086D01*
X147154733Y-72236188D01*
X147154727Y-72236186D01*
X146966132Y-72178976D01*
X146966129Y-72178975D01*
X146770000Y-72159659D01*
X146573870Y-72178975D01*
X146385266Y-72236188D01*
X146211467Y-72329086D01*
X146211460Y-72329090D01*
X146059116Y-72454116D01*
X145934090Y-72606460D01*
X145934086Y-72606467D01*
X145841188Y-72780266D01*
X145783975Y-72968870D01*
X145764659Y-73165000D01*
X145783975Y-73361129D01*
X145783976Y-73361132D01*
X145839105Y-73542868D01*
X145841188Y-73549733D01*
X145934086Y-73723532D01*
X145934090Y-73723539D01*
X146059116Y-73875883D01*
X146074060Y-73888147D01*
X146113394Y-73945893D01*
X146115265Y-74015737D01*
X146079077Y-74075505D01*
X146016322Y-74106221D01*
X145995395Y-74108000D01*
X145504585Y-74108000D01*
X145504574Y-74107999D01*
X145459205Y-74107990D01*
X145459156Y-74107997D01*
X145417941Y-74119040D01*
X145417934Y-74119041D01*
X145417923Y-74119045D01*
X145400537Y-74123700D01*
X145376386Y-74130167D01*
X145337208Y-74152787D01*
X145337189Y-74152798D01*
X145302160Y-74173013D01*
X145269190Y-74205982D01*
X145269175Y-74205996D01*
X144731750Y-74743210D01*
X144670420Y-74776683D01*
X144608091Y-74774173D01*
X144426130Y-74718975D01*
X144230000Y-74699659D01*
X144033870Y-74718975D01*
X143845266Y-74776188D01*
X143671467Y-74869086D01*
X143671460Y-74869090D01*
X143519116Y-74994116D01*
X143394090Y-75146460D01*
X143394086Y-75146467D01*
X143301188Y-75320266D01*
X143243975Y-75508870D01*
X143224659Y-75705000D01*
X143243975Y-75901129D01*
X143249460Y-75919209D01*
X143283143Y-76030249D01*
X143301188Y-76089733D01*
X143394086Y-76263532D01*
X143394091Y-76263539D01*
X143435285Y-76313735D01*
X143462598Y-76378045D01*
X143450807Y-76446913D01*
X143403655Y-76498473D01*
X143339432Y-76516400D01*
X142580568Y-76516400D01*
X142513529Y-76496715D01*
X142467774Y-76443911D01*
X142457830Y-76374753D01*
X142484715Y-76313735D01*
X142505500Y-76288407D01*
X142525910Y-76263538D01*
X142589659Y-76144273D01*
X142618811Y-76089733D01*
X142618811Y-76089732D01*
X142618814Y-76089727D01*
X142676024Y-75901132D01*
X142695341Y-75705000D01*
X142676024Y-75508868D01*
X142618814Y-75320273D01*
X142618811Y-75320269D01*
X142618811Y-75320266D01*
X142525913Y-75146467D01*
X142525909Y-75146460D01*
X142400883Y-74994116D01*
X142248539Y-74869090D01*
X142248532Y-74869086D01*
X142074733Y-74776188D01*
X142074727Y-74776186D01*
X141886132Y-74718976D01*
X141886129Y-74718975D01*
X141690000Y-74699659D01*
X141493870Y-74718975D01*
X141305266Y-74776188D01*
X141131467Y-74869086D01*
X141131460Y-74869090D01*
X140979116Y-74994116D01*
X140854090Y-75146460D01*
X140854086Y-75146467D01*
X140761188Y-75320266D01*
X140703975Y-75508870D01*
X140684659Y-75705000D01*
X140703975Y-75901129D01*
X140709460Y-75919209D01*
X140743143Y-76030249D01*
X140761188Y-76089733D01*
X140854086Y-76263532D01*
X140854091Y-76263539D01*
X140895285Y-76313735D01*
X140922598Y-76378045D01*
X140910807Y-76446913D01*
X140863655Y-76498473D01*
X140799432Y-76516400D01*
X140473177Y-76516400D01*
X140406138Y-76496715D01*
X140385500Y-76480085D01*
X140111892Y-76206501D01*
X140078404Y-76145179D01*
X140080909Y-76082820D01*
X140093743Y-76040513D01*
X140136024Y-75901132D01*
X140155341Y-75705000D01*
X140136024Y-75508868D01*
X140078814Y-75320273D01*
X140078811Y-75320269D01*
X140078811Y-75320266D01*
X139985913Y-75146467D01*
X139985909Y-75146460D01*
X139860883Y-74994117D01*
X139844113Y-74980354D01*
X139804778Y-74922608D01*
X139802907Y-74852764D01*
X139839094Y-74792995D01*
X139901850Y-74762279D01*
X139922777Y-74760500D01*
X140462851Y-74760500D01*
X140462853Y-74760500D01*
X140545639Y-74738318D01*
X140619862Y-74695465D01*
X141188454Y-74126871D01*
X141249775Y-74093388D01*
X141312126Y-74095892D01*
X141493868Y-74151024D01*
X141690000Y-74170341D01*
X141886132Y-74151024D01*
X142074727Y-74093814D01*
X142129312Y-74064638D01*
X142207585Y-74022800D01*
X142248538Y-74000910D01*
X142400883Y-73875883D01*
X142525910Y-73723538D01*
X142575413Y-73630925D01*
X142618811Y-73549733D01*
X142618811Y-73549732D01*
X142618814Y-73549727D01*
X142676024Y-73361132D01*
X142695341Y-73165000D01*
X143224659Y-73165000D01*
X143243975Y-73361129D01*
X143243976Y-73361132D01*
X143299105Y-73542868D01*
X143301188Y-73549733D01*
X143394086Y-73723532D01*
X143394090Y-73723539D01*
X143519116Y-73875883D01*
X143671460Y-74000909D01*
X143671467Y-74000913D01*
X143845266Y-74093811D01*
X143845269Y-74093811D01*
X143845273Y-74093814D01*
X144033868Y-74151024D01*
X144230000Y-74170341D01*
X144426132Y-74151024D01*
X144614727Y-74093814D01*
X144669312Y-74064638D01*
X144747585Y-74022800D01*
X144788538Y-74000910D01*
X144940883Y-73875883D01*
X145065910Y-73723538D01*
X145115413Y-73630925D01*
X145158811Y-73549733D01*
X145158811Y-73549732D01*
X145158814Y-73549727D01*
X145216024Y-73361132D01*
X145235341Y-73165000D01*
X145216024Y-72968868D01*
X145158814Y-72780273D01*
X145158811Y-72780269D01*
X145158811Y-72780266D01*
X145065913Y-72606467D01*
X145065909Y-72606460D01*
X144940883Y-72454116D01*
X144788539Y-72329090D01*
X144788532Y-72329086D01*
X144614733Y-72236188D01*
X144614727Y-72236186D01*
X144426132Y-72178976D01*
X144426129Y-72178975D01*
X144230000Y-72159659D01*
X144033870Y-72178975D01*
X143845266Y-72236188D01*
X143671467Y-72329086D01*
X143671460Y-72329090D01*
X143519116Y-72454116D01*
X143394090Y-72606460D01*
X143394086Y-72606467D01*
X143301188Y-72780266D01*
X143243975Y-72968870D01*
X143224659Y-73165000D01*
X142695341Y-73165000D01*
X142676024Y-72968868D01*
X142618814Y-72780273D01*
X142618811Y-72780269D01*
X142618811Y-72780266D01*
X142525913Y-72606467D01*
X142525909Y-72606460D01*
X142400883Y-72454116D01*
X142248539Y-72329090D01*
X142248532Y-72329086D01*
X142074733Y-72236188D01*
X142074727Y-72236186D01*
X141886132Y-72178976D01*
X141886129Y-72178975D01*
X141690000Y-72159659D01*
X141493870Y-72178975D01*
X141305266Y-72236188D01*
X141131467Y-72329086D01*
X141131460Y-72329090D01*
X140979116Y-72454116D01*
X140854090Y-72606460D01*
X140854086Y-72606467D01*
X140761188Y-72780266D01*
X140703975Y-72968870D01*
X140693725Y-73072945D01*
X140667564Y-73137732D01*
X140628459Y-73165402D01*
X140659383Y-73182930D01*
X140691891Y-73244776D01*
X140693725Y-73257055D01*
X140703975Y-73361129D01*
X140703976Y-73361132D01*
X140759106Y-73542870D01*
X140759729Y-73612735D01*
X140728126Y-73666545D01*
X140517848Y-73876823D01*
X140456525Y-73910308D01*
X140386833Y-73905324D01*
X140330900Y-73863452D01*
X140306483Y-73797988D01*
X140317785Y-73736736D01*
X140376267Y-73611321D01*
X140376269Y-73611317D01*
X140435139Y-73391610D01*
X140435141Y-73391599D01*
X140446794Y-73258402D01*
X140472246Y-73193333D01*
X140512031Y-73164524D01*
X140480325Y-73146092D01*
X140448493Y-73083894D01*
X140446794Y-73071597D01*
X140435141Y-72938400D01*
X140435139Y-72938389D01*
X140376269Y-72718682D01*
X140376264Y-72718668D01*
X140280136Y-72512521D01*
X140280132Y-72512513D01*
X140229025Y-72439526D01*
X139632962Y-73035590D01*
X139615925Y-72972007D01*
X139550099Y-72857993D01*
X139457007Y-72764901D01*
X139342993Y-72699075D01*
X139279408Y-72682037D01*
X139809291Y-72152155D01*
X161400000Y-72152155D01*
X161400000Y-72650000D01*
X162450000Y-72650000D01*
X162950000Y-72650000D01*
X164000000Y-72650000D01*
X164000000Y-72152172D01*
X163999999Y-72152155D01*
X170600000Y-72152155D01*
X170600000Y-72650000D01*
X171950000Y-72650000D01*
X172450000Y-72650000D01*
X173800000Y-72650000D01*
X173800000Y-72152172D01*
X173799999Y-72152155D01*
X173793598Y-72092627D01*
X173793596Y-72092620D01*
X173743354Y-71957913D01*
X173743350Y-71957906D01*
X173657190Y-71842812D01*
X173657187Y-71842809D01*
X173542093Y-71756649D01*
X173542086Y-71756645D01*
X173407379Y-71706403D01*
X173407372Y-71706401D01*
X173347844Y-71700000D01*
X172450000Y-71700000D01*
X172450000Y-72650000D01*
X171950000Y-72650000D01*
X171950000Y-71700000D01*
X171052155Y-71700000D01*
X170992627Y-71706401D01*
X170992620Y-71706403D01*
X170857913Y-71756645D01*
X170857906Y-71756649D01*
X170742812Y-71842809D01*
X170742809Y-71842812D01*
X170656649Y-71957906D01*
X170656645Y-71957913D01*
X170606403Y-72092620D01*
X170606401Y-72092627D01*
X170600000Y-72152155D01*
X163999999Y-72152155D01*
X163993598Y-72092627D01*
X163993596Y-72092620D01*
X163943354Y-71957913D01*
X163943350Y-71957906D01*
X163857190Y-71842812D01*
X163857187Y-71842809D01*
X163742093Y-71756649D01*
X163742086Y-71756645D01*
X163607379Y-71706403D01*
X163607372Y-71706401D01*
X163547844Y-71700000D01*
X162950000Y-71700000D01*
X162950000Y-72650000D01*
X162450000Y-72650000D01*
X162450000Y-71700000D01*
X161852155Y-71700000D01*
X161792627Y-71706401D01*
X161792620Y-71706403D01*
X161657913Y-71756645D01*
X161657906Y-71756649D01*
X161542812Y-71842809D01*
X161542809Y-71842812D01*
X161456649Y-71957906D01*
X161456645Y-71957913D01*
X161406403Y-72092620D01*
X161406401Y-72092627D01*
X161400000Y-72152155D01*
X139809291Y-72152155D01*
X139875472Y-72085974D01*
X139802478Y-72034863D01*
X139596331Y-71938735D01*
X139596317Y-71938730D01*
X139376610Y-71879860D01*
X139376599Y-71879858D01*
X139150002Y-71860034D01*
X139149998Y-71860034D01*
X138923400Y-71879858D01*
X138923389Y-71879860D01*
X138703682Y-71938730D01*
X138703673Y-71938734D01*
X138497516Y-72034866D01*
X138497512Y-72034868D01*
X138424526Y-72085973D01*
X138424526Y-72085974D01*
X139020590Y-72682037D01*
X138957007Y-72699075D01*
X138842993Y-72764901D01*
X138749901Y-72857993D01*
X138684075Y-72972007D01*
X138667037Y-73035590D01*
X138070974Y-72439526D01*
X138070973Y-72439526D01*
X138019868Y-72512512D01*
X138019866Y-72512516D01*
X137923734Y-72718673D01*
X137923730Y-72718682D01*
X137864860Y-72938389D01*
X137864858Y-72938400D01*
X137845034Y-73164997D01*
X137845034Y-73165002D01*
X137864858Y-73391599D01*
X137864860Y-73391610D01*
X137923730Y-73611317D01*
X137923735Y-73611331D01*
X138019863Y-73817478D01*
X138070974Y-73890472D01*
X138667037Y-73294409D01*
X138684075Y-73357993D01*
X138749901Y-73472007D01*
X138842993Y-73565099D01*
X138957007Y-73630925D01*
X139020590Y-73647962D01*
X138424526Y-74244024D01*
X138427874Y-74282289D01*
X138414107Y-74350789D01*
X138392061Y-74380744D01*
X137779156Y-74994117D01*
X137779123Y-74994149D01*
X137748508Y-75024764D01*
X137748477Y-75024804D01*
X137736694Y-75045232D01*
X137727356Y-75061420D01*
X137718014Y-75077600D01*
X137705672Y-75098978D01*
X137705640Y-75099056D01*
X137695087Y-75138497D01*
X137694572Y-75140423D01*
X137692954Y-75146462D01*
X137683496Y-75181758D01*
X137683483Y-75181861D01*
X137683500Y-75226023D01*
X137683500Y-104971913D01*
X137683480Y-105014711D01*
X137185500Y-105014711D01*
X137185500Y-69312058D01*
X137931732Y-69312058D01*
X137931732Y-69312059D01*
X137950999Y-69532286D01*
X137951001Y-69532296D01*
X138008215Y-69745824D01*
X138008217Y-69745828D01*
X138008218Y-69745832D01*
X138049222Y-69833765D01*
X138101647Y-69946191D01*
X138101648Y-69946193D01*
X138228451Y-70127288D01*
X138384770Y-70283607D01*
X138384773Y-70283609D01*
X138565866Y-70410411D01*
X138766227Y-70503841D01*
X138766233Y-70503842D01*
X138766234Y-70503843D01*
X138817629Y-70517614D01*
X138979768Y-70561059D01*
X139155953Y-70576473D01*
X139199999Y-70580327D01*
X139200000Y-70580327D01*
X139200001Y-70580327D01*
X139236705Y-70577115D01*
X139420232Y-70561059D01*
X139633773Y-70503841D01*
X139834134Y-70410411D01*
X140015227Y-70283609D01*
X140171550Y-70127286D01*
X140298352Y-69946193D01*
X140391782Y-69745832D01*
X140449000Y-69532291D01*
X140460574Y-69399999D01*
X174519673Y-69399999D01*
X174519673Y-69400000D01*
X174538940Y-69620227D01*
X174538942Y-69620237D01*
X174596156Y-69833765D01*
X174596158Y-69833769D01*
X174596159Y-69833773D01*
X174676573Y-70006221D01*
X174689588Y-70034132D01*
X174689589Y-70034134D01*
X174816392Y-70215229D01*
X174972711Y-70371548D01*
X174972714Y-70371550D01*
X175153807Y-70498352D01*
X175354168Y-70591782D01*
X175354174Y-70591783D01*
X175354175Y-70591784D01*
X175405570Y-70605555D01*
X175567709Y-70649000D01*
X175743894Y-70664414D01*
X175787940Y-70668268D01*
X175787941Y-70668268D01*
X175787942Y-70668268D01*
X175824646Y-70665056D01*
X176008173Y-70649000D01*
X176221714Y-70591782D01*
X176422075Y-70498352D01*
X176603168Y-70371550D01*
X176759491Y-70215227D01*
X176886293Y-70034134D01*
X176979723Y-69833773D01*
X177036941Y-69620232D01*
X177056209Y-69400000D01*
X177036941Y-69179768D01*
X176979723Y-68966227D01*
X176886293Y-68765866D01*
X176759491Y-68584773D01*
X176759489Y-68584770D01*
X176603170Y-68428451D01*
X176422075Y-68301648D01*
X176422073Y-68301647D01*
X176337163Y-68262053D01*
X176221714Y-68208218D01*
X176221710Y-68208217D01*
X176221706Y-68208215D01*
X176008178Y-68151001D01*
X176008168Y-68150999D01*
X175787942Y-68131732D01*
X175787940Y-68131732D01*
X175567713Y-68150999D01*
X175567703Y-68151001D01*
X175354175Y-68208215D01*
X175354166Y-68208219D01*
X175153808Y-68301647D01*
X175153806Y-68301648D01*
X174972711Y-68428451D01*
X174816392Y-68584770D01*
X174689589Y-68765865D01*
X174689588Y-68765867D01*
X174596160Y-68966225D01*
X174596156Y-68966234D01*
X174538942Y-69179762D01*
X174538940Y-69179772D01*
X174519673Y-69399999D01*
X140460574Y-69399999D01*
X140468268Y-69312059D01*
X140449000Y-69091827D01*
X140391782Y-68878286D01*
X140298352Y-68677925D01*
X140171550Y-68496832D01*
X140171548Y-68496829D01*
X140015229Y-68340510D01*
X139834134Y-68213707D01*
X139834132Y-68213706D01*
X139778057Y-68187558D01*
X139633773Y-68120277D01*
X139633769Y-68120276D01*
X139633765Y-68120274D01*
X139420237Y-68063060D01*
X139420227Y-68063058D01*
X139200001Y-68043791D01*
X139199999Y-68043791D01*
X138979772Y-68063058D01*
X138979762Y-68063060D01*
X138766234Y-68120274D01*
X138766225Y-68120278D01*
X138565867Y-68213706D01*
X138565865Y-68213707D01*
X138384770Y-68340510D01*
X138228451Y-68496829D01*
X138101648Y-68677924D01*
X138101647Y-68677926D01*
X138008219Y-68878284D01*
X138008215Y-68878293D01*
X137951001Y-69091821D01*
X137950999Y-69091831D01*
X137931732Y-69312058D01*
X137185500Y-69312058D01*
X137185500Y-67449500D01*
X137205185Y-67382461D01*
X137257989Y-67336706D01*
X137309500Y-67325500D01*
X177650500Y-67325500D01*
X177717539Y-67345185D01*
G37*
%TD.AperFunction*%
%TD*%
M02*
