%TF.GenerationSoftware,KiCad,Pcbnew,8.0.4*%
%TF.CreationDate,2025-04-29T00:29:36-04:00*%
%TF.ProjectId,main_board,6d61696e-5f62-46f6-9172-642e6b696361,rev?*%
%TF.SameCoordinates,Original*%
%TF.FileFunction,Copper,L2,Bot*%
%TF.FilePolarity,Positive*%
%FSLAX46Y46*%
G04 Gerber Fmt 4.6, Leading zero omitted, Abs format (unit mm)*
G04 Created by KiCad (PCBNEW 8.0.4) date 2025-04-29 00:29:36*
%MOMM*%
%LPD*%
G01*
G04 APERTURE LIST*
G04 Aperture macros list*
%AMRoundRect*
0 Rectangle with rounded corners*
0 $1 Rounding radius*
0 $2 $3 $4 $5 $6 $7 $8 $9 X,Y pos of 4 corners*
0 Add a 4 corners polygon primitive as box body*
4,1,4,$2,$3,$4,$5,$6,$7,$8,$9,$2,$3,0*
0 Add four circle primitives for the rounded corners*
1,1,$1+$1,$2,$3*
1,1,$1+$1,$4,$5*
1,1,$1+$1,$6,$7*
1,1,$1+$1,$8,$9*
0 Add four rect primitives between the rounded corners*
20,1,$1+$1,$2,$3,$4,$5,0*
20,1,$1+$1,$4,$5,$6,$7,0*
20,1,$1+$1,$6,$7,$8,$9,0*
20,1,$1+$1,$8,$9,$2,$3,0*%
G04 Aperture macros list end*
%TA.AperFunction,ComponentPad*%
%ADD10C,1.600000*%
%TD*%
%TA.AperFunction,ComponentPad*%
%ADD11R,1.500000X1.500000*%
%TD*%
%TA.AperFunction,ComponentPad*%
%ADD12R,1.800000X1.800000*%
%TD*%
%TA.AperFunction,ComponentPad*%
%ADD13C,1.800000*%
%TD*%
%TA.AperFunction,ComponentPad*%
%ADD14R,1.600000X1.600000*%
%TD*%
%TA.AperFunction,ComponentPad*%
%ADD15O,1.600000X1.600000*%
%TD*%
%TA.AperFunction,ComponentPad*%
%ADD16R,1.200000X1.200000*%
%TD*%
%TA.AperFunction,ComponentPad*%
%ADD17C,1.200000*%
%TD*%
%TA.AperFunction,ComponentPad*%
%ADD18R,1.508000X1.508000*%
%TD*%
%TA.AperFunction,ComponentPad*%
%ADD19C,1.508000*%
%TD*%
%TA.AperFunction,ComponentPad*%
%ADD20C,1.524000*%
%TD*%
%TA.AperFunction,SMDPad,CuDef*%
%ADD21RoundRect,0.250000X0.650000X-0.412500X0.650000X0.412500X-0.650000X0.412500X-0.650000X-0.412500X0*%
%TD*%
%TA.AperFunction,SMDPad,CuDef*%
%ADD22RoundRect,0.250001X-0.624999X0.462499X-0.624999X-0.462499X0.624999X-0.462499X0.624999X0.462499X0*%
%TD*%
%TA.AperFunction,ComponentPad*%
%ADD23R,1.700000X1.700000*%
%TD*%
%TA.AperFunction,ComponentPad*%
%ADD24O,1.700000X1.700000*%
%TD*%
%TA.AperFunction,SMDPad,CuDef*%
%ADD25R,1.600000X0.700000*%
%TD*%
%TA.AperFunction,SMDPad,CuDef*%
%ADD26R,1.600000X1.400000*%
%TD*%
%TA.AperFunction,SMDPad,CuDef*%
%ADD27R,2.200000X1.400000*%
%TD*%
%TA.AperFunction,SMDPad,CuDef*%
%ADD28R,1.400000X1.800000*%
%TD*%
%TA.AperFunction,ViaPad*%
%ADD29C,0.800000*%
%TD*%
%TA.AperFunction,Conductor*%
%ADD30C,0.250000*%
%TD*%
G04 APERTURE END LIST*
D10*
%TO.P,Ultrasonic_sensor1,1,GND*%
%TO.N,GND*%
X161800000Y-147600000D03*
%TO.P,Ultrasonic_sensor1,2,ECHO*%
%TO.N,Net-(A1-D8)*%
X159260000Y-147600000D03*
%TO.P,Ultrasonic_sensor1,3,TRIG*%
%TO.N,Net-(A1-D9)*%
X156720000Y-147600000D03*
%TO.P,Ultrasonic_sensor1,4,VCC*%
%TO.N,Net-(A1-+5V)*%
X154180000Y-147600000D03*
%TD*%
D11*
%TO.P,SW1,1,B*%
%TO.N,Net-(SW1-B)*%
X157400000Y-95600000D03*
D10*
%TO.P,SW1,2,C*%
%TO.N,Net-(D1-K)*%
X154860000Y-95600000D03*
%TO.P,SW1,3,A*%
%TO.N,unconnected-(SW1-A-Pad3)*%
X159940000Y-95600000D03*
%TD*%
D12*
%TO.P,D2,1,K*%
%TO.N,GND*%
X141925000Y-95100000D03*
D13*
%TO.P,D2,2,A*%
%TO.N,Net-(D2-A)*%
X144465000Y-95100000D03*
%TD*%
D10*
%TO.P,nRF24L01+1,1,3.3V*%
%TO.N,Net-(A1-3V3)*%
X139150000Y-75705000D03*
%TO.P,nRF24L01+1,2,CSN*%
%TO.N,Net-(A1-D6)*%
X141690000Y-75705000D03*
%TO.P,nRF24L01+1,3,MOSI*%
%TO.N,Net-(A1-D11)*%
X144230000Y-75705000D03*
%TO.P,nRF24L01+1,4,IRQ*%
%TO.N,Net-(A1-D3)*%
X146770000Y-75705000D03*
%TO.P,nRF24L01+1,5,GND*%
%TO.N,GND*%
X139150000Y-73165000D03*
%TO.P,nRF24L01+1,6,CE*%
%TO.N,Net-(A1-D7)*%
X141690000Y-73165000D03*
%TO.P,nRF24L01+1,7,SCK*%
%TO.N,Net-(A1-D13)*%
X144230000Y-73165000D03*
%TO.P,nRF24L01+1,8,MISO*%
%TO.N,Net-(A1-D12)*%
X146770000Y-73165000D03*
%TD*%
D14*
%TO.P,A1,1,D1/TX*%
%TO.N,unconnected-(A1-D1{slash}TX-Pad1)*%
X144390000Y-102250000D03*
D15*
%TO.P,A1,2,D0/RX*%
%TO.N,unconnected-(A1-D0{slash}RX-Pad2)*%
X144390000Y-104790000D03*
%TO.P,A1,3,~{RESET}*%
%TO.N,unconnected-(A1-~{RESET}-Pad3)*%
X144390000Y-107330000D03*
%TO.P,A1,4,GND*%
%TO.N,GND*%
X144390000Y-109870000D03*
%TO.P,A1,5,D2*%
%TO.N,Net-(A1-D2)*%
X144390000Y-112410000D03*
%TO.P,A1,6,D3*%
%TO.N,Net-(A1-D3)*%
X144390000Y-114950000D03*
%TO.P,A1,7,D4*%
%TO.N,unconnected-(A1-D4-Pad7)*%
X144390000Y-117490000D03*
%TO.P,A1,8,D5*%
%TO.N,unconnected-(A1-D5-Pad8)*%
X144390000Y-120030000D03*
%TO.P,A1,9,D6*%
%TO.N,Net-(A1-D6)*%
X144390000Y-122570000D03*
%TO.P,A1,10,D7*%
%TO.N,Net-(A1-D7)*%
X144390000Y-125110000D03*
%TO.P,A1,11,D8*%
%TO.N,Net-(A1-D8)*%
X144390000Y-127650000D03*
%TO.P,A1,12,D9*%
%TO.N,Net-(A1-D9)*%
X144390000Y-130190000D03*
%TO.P,A1,13,D10*%
%TO.N,Net-(A1-D10)*%
X144390000Y-132730000D03*
%TO.P,A1,14,D11*%
%TO.N,Net-(A1-D11)*%
X144390000Y-135270000D03*
%TO.P,A1,15,D12*%
%TO.N,Net-(A1-D12)*%
X144390000Y-137810000D03*
%TO.P,A1,16,D13*%
%TO.N,Net-(A1-D13)*%
X159630000Y-137810000D03*
%TO.P,A1,17,3V3*%
%TO.N,Net-(A1-3V3)*%
X159630000Y-135270000D03*
%TO.P,A1,18,AREF*%
%TO.N,unconnected-(A1-AREF-Pad18)*%
X159630000Y-132730000D03*
%TO.P,A1,19,A0*%
%TO.N,unconnected-(A1-A0-Pad19)*%
X159630000Y-130190000D03*
%TO.P,A1,20,A1*%
%TO.N,unconnected-(A1-A1-Pad20)*%
X159630000Y-127650000D03*
%TO.P,A1,21,A2*%
%TO.N,unconnected-(A1-A2-Pad21)*%
X159630000Y-125110000D03*
%TO.P,A1,22,A3*%
%TO.N,Net-(A1-A3)*%
X159630000Y-122570000D03*
%TO.P,A1,23,A4*%
%TO.N,Net-(A1-A4)*%
X159630000Y-120030000D03*
%TO.P,A1,24,A5*%
%TO.N,Net-(A1-A5)*%
X159630000Y-117490000D03*
%TO.P,A1,25,A6*%
%TO.N,unconnected-(A1-A6-Pad25)*%
X159630000Y-114950000D03*
%TO.P,A1,26,A7*%
%TO.N,unconnected-(A1-A7-Pad26)*%
X159630000Y-112410000D03*
%TO.P,A1,27,+5V*%
%TO.N,Net-(A1-+5V)*%
X159630000Y-109870000D03*
%TO.P,A1,28,~{RESET}*%
%TO.N,unconnected-(A1-~{RESET}-Pad28)*%
X159630000Y-107330000D03*
%TO.P,A1,29,GND*%
%TO.N,GND*%
X159630000Y-104790000D03*
%TO.P,A1,30,VIN*%
%TO.N,unconnected-(A1-VIN-Pad30)*%
X159630000Y-102250000D03*
%TD*%
D16*
%TO.P,C5,1*%
%TO.N,Net-(A1-3V3)*%
X155027400Y-74500000D03*
D17*
%TO.P,C5,2*%
%TO.N,GND*%
X157027400Y-74500000D03*
%TD*%
D18*
%TO.P,J1,1,1*%
%TO.N,Net-(U1-B+)*%
X168200000Y-145925000D03*
D19*
%TO.P,J1,2,2*%
%TO.N,Net-(U1-BM)*%
X170700000Y-145925000D03*
%TO.P,J1,3,3*%
%TO.N,Net-(U1-B-)*%
X173200000Y-145925000D03*
%TD*%
D20*
%TO.P,U1,1,P-*%
%TO.N,GND*%
X174700000Y-138560000D03*
%TO.P,U1,2,P+*%
%TO.N,Net-(D1-K)*%
X169620000Y-138560000D03*
%TO.P,U1,3,B-*%
%TO.N,Net-(U1-B-)*%
X174700000Y-103000000D03*
%TO.P,U1,4,BM*%
%TO.N,Net-(U1-BM)*%
X164540000Y-138560000D03*
%TO.P,U1,5,B+*%
%TO.N,Net-(U1-B+)*%
X164540000Y-103000000D03*
%TD*%
%TO.P,U4,1,VIN*%
%TO.N,Net-(A1-3V3)*%
X146722500Y-145327500D03*
%TO.P,U4,2,GND*%
%TO.N,GND*%
X144182500Y-145327500D03*
%TO.P,U4,3,SCL*%
%TO.N,Net-(A1-A5)*%
X141642500Y-145327500D03*
%TO.P,U4,4,SDA*%
%TO.N,Net-(A1-A4)*%
X139102500Y-145327500D03*
%TD*%
D21*
%TO.P,C6,1*%
%TO.N,Net-(A1-3V3)*%
X156000000Y-82562500D03*
%TO.P,C6,2*%
%TO.N,GND*%
X156000000Y-79437500D03*
%TD*%
D22*
%TO.P,D1,2,A*%
%TO.N,Net-(D1-A)*%
X140000000Y-107987500D03*
%TO.P,D1,1,K*%
%TO.N,Net-(D1-K)*%
X140000000Y-105012500D03*
%TD*%
D23*
%TO.P,J2,1,Pin_1*%
%TO.N,GND*%
X140000000Y-117540000D03*
D24*
%TO.P,J2,2,Pin_2*%
%TO.N,Net-(D1-A)*%
X140000000Y-115000000D03*
%TD*%
D25*
%TO.P,P1,1,DAT2*%
%TO.N,unconnected-(P1-DAT2-Pad1)*%
X162100000Y-83000000D03*
%TO.P,P1,2,DAT3/CS*%
%TO.N,Net-(P1-DAT3{slash}CS)*%
X162100000Y-81900000D03*
%TO.P,P1,3,CMD/MOSI*%
%TO.N,Net-(P1-CMD{slash}MOSI)*%
X162100000Y-80800000D03*
%TO.P,P1,4,VDD*%
%TO.N,Net-(A1-3V3)*%
X162100000Y-79700000D03*
%TO.P,P1,5,CLK/SCK*%
%TO.N,Net-(P1-CLK{slash}SCK)*%
X162100000Y-78600000D03*
%TO.P,P1,6,VSS*%
%TO.N,GND*%
X162100000Y-77500000D03*
%TO.P,P1,7,DAT0/MISO*%
%TO.N,Net-(A1-D12)*%
X162100000Y-76400000D03*
%TO.P,P1,8,DAT1*%
%TO.N,unconnected-(P1-DAT1-Pad8)*%
X162100000Y-75300000D03*
%TO.P,P1,9,CD*%
%TO.N,unconnected-(P1-CD-Pad9)*%
X162100000Y-74200000D03*
D26*
%TO.P,P1,G1,GND*%
%TO.N,GND*%
X162700000Y-72900000D03*
D27*
%TO.P,P1,G2,GND*%
X172200000Y-72900000D03*
%TO.P,P1,G3,GND*%
X172200000Y-88600000D03*
D28*
%TO.P,P1,G4,GND*%
X162600000Y-87700000D03*
%TD*%
D29*
%TO.N,Net-(P1-CMD{slash}MOSI)*%
X163897000Y-81613400D03*
%TO.N,Net-(P1-DAT3{slash}CS)*%
X161336000Y-84541500D03*
%TO.N,Net-(A1-+5V)*%
X165014000Y-101217000D03*
%TO.N,Net-(A1-D10)*%
X158733000Y-86209100D03*
%TO.N,Net-(P1-CLK{slash}SCK)*%
X160686000Y-79303300D03*
%TO.N,Net-(BT1-+)*%
X145632000Y-91144100D03*
X166150000Y-86492000D03*
%TO.N,Net-(A1-D2)*%
X153733000Y-102673000D03*
%TO.N,Net-(A1-A5)*%
X168936000Y-129864000D03*
%TO.N,Net-(A1-A4)*%
X167926000Y-132022000D03*
%TO.N,Net-(A1-D11)*%
X150055000Y-76200700D03*
%TO.N,GND*%
X158232000Y-91332300D03*
%TD*%
D30*
%TO.N,Net-(P1-CMD{slash}MOSI)*%
X163227000Y-80943100D02*
X163897000Y-81613400D01*
X163227000Y-80800000D02*
X163227000Y-80943100D01*
X162100000Y-80800000D02*
X163227000Y-80800000D01*
%TO.N,Net-(P1-DAT3{slash}CS)*%
X160973000Y-84179200D02*
X161336000Y-84541500D01*
X160973000Y-81900000D02*
X160973000Y-84179200D01*
X162100000Y-81900000D02*
X160973000Y-81900000D01*
%TO.N,Net-(U1-BM)*%
X170700000Y-144720000D02*
X170700000Y-145925000D01*
X164540000Y-138560000D02*
X170700000Y-144720000D01*
%TO.N,Net-(U1-B-)*%
X173200000Y-104500000D02*
X174700000Y-103000000D01*
X173200000Y-145925000D02*
X173200000Y-104500000D01*
%TO.N,Net-(A1-+5V)*%
X164761000Y-101217000D02*
X165014000Y-101217000D01*
X160757000Y-105222000D02*
X164761000Y-101217000D01*
X160757000Y-107898000D02*
X160757000Y-105222000D01*
X159912000Y-108743000D02*
X160757000Y-107898000D01*
X159630000Y-108743000D02*
X159912000Y-108743000D01*
X159630000Y-109870000D02*
X159630000Y-108743000D01*
%TO.N,Net-(A1-D10)*%
X148549000Y-86209100D02*
X158733000Y-86209100D01*
X138751000Y-96007600D02*
X148549000Y-86209100D01*
X138751000Y-121126000D02*
X138751000Y-96007600D01*
X144004000Y-126380000D02*
X138751000Y-121126000D01*
X144744000Y-126380000D02*
X144004000Y-126380000D01*
X145517000Y-127153000D02*
X144744000Y-126380000D01*
X145517000Y-130758000D02*
X145517000Y-127153000D01*
X144672000Y-131603000D02*
X145517000Y-130758000D01*
X144390000Y-131603000D02*
X144672000Y-131603000D01*
X144390000Y-132730000D02*
X144390000Y-131603000D01*
%TO.N,Net-(P1-CLK{slash}SCK)*%
X160973000Y-79016400D02*
X160686000Y-79303300D01*
X160973000Y-78600000D02*
X160973000Y-79016400D01*
X162100000Y-78600000D02*
X160973000Y-78600000D01*
%TO.N,Net-(D1-A)*%
X140000000Y-115000000D02*
X140000000Y-107988000D01*
X140000000Y-107988000D02*
X140000000Y-107987500D01*
%TO.N,Net-(D1-K)*%
X154860000Y-109304000D02*
X154860000Y-101908000D01*
X159236000Y-113680000D02*
X154860000Y-109304000D01*
X159967000Y-113680000D02*
X159236000Y-113680000D01*
X169689000Y-123402000D02*
X159967000Y-113680000D01*
X169689000Y-138491000D02*
X169689000Y-123402000D01*
X169620000Y-138560000D02*
X169689000Y-138491000D01*
X154860000Y-101908000D02*
X154860000Y-95600000D01*
X141565000Y-103448000D02*
X140782000Y-104230000D01*
X149882000Y-103448000D02*
X141565000Y-103448000D01*
X151422000Y-101908000D02*
X149882000Y-103448000D01*
X154860000Y-101908000D02*
X151422000Y-101908000D01*
%TO.N,Net-(BT1-+)*%
X155560000Y-91144100D02*
X145632000Y-91144100D01*
X160230000Y-86473300D02*
X155560000Y-91144100D01*
X166131000Y-86473300D02*
X160230000Y-86473300D01*
X166150000Y-86492000D02*
X166131000Y-86473300D01*
%TO.N,Net-(A1-D2)*%
X145517000Y-110890000D02*
X153733000Y-102673000D01*
X145517000Y-112410000D02*
X145517000Y-110890000D01*
X144390000Y-112410000D02*
X145517000Y-112410000D01*
%TO.N,Net-(A1-D8)*%
X158058000Y-146398000D02*
X159260000Y-147600000D01*
X152589000Y-146398000D02*
X158058000Y-146398000D01*
X152512000Y-146475000D02*
X152589000Y-146398000D01*
X146309000Y-146475000D02*
X152512000Y-146475000D01*
X145634000Y-145799000D02*
X146309000Y-146475000D01*
X145634000Y-145180000D02*
X145634000Y-145799000D01*
X144645000Y-144191000D02*
X145634000Y-145180000D01*
X143772000Y-144191000D02*
X144645000Y-144191000D01*
X143094000Y-144869000D02*
X143772000Y-144191000D01*
X143094000Y-145422000D02*
X143094000Y-144869000D01*
X142058000Y-146458000D02*
X143094000Y-145422000D01*
X138654000Y-146458000D02*
X142058000Y-146458000D01*
X137963000Y-145768000D02*
X138654000Y-146458000D01*
X137963000Y-134922000D02*
X137963000Y-145768000D01*
X144108000Y-128777000D02*
X137963000Y-134922000D01*
X144390000Y-128777000D02*
X144108000Y-128777000D01*
X144390000Y-127650000D02*
X144390000Y-128777000D01*
%TO.N,Net-(A1-3V3)*%
X140749000Y-77304400D02*
X139150000Y-75705000D01*
X154767000Y-77304400D02*
X140749000Y-77304400D01*
X154767000Y-80087200D02*
X154767000Y-77304400D01*
X156244000Y-81564000D02*
X154767000Y-80087200D01*
X157770000Y-80038300D02*
X156244000Y-81564000D01*
X161762000Y-80038300D02*
X157770000Y-80038300D01*
X162100000Y-79700000D02*
X161762000Y-80038300D01*
X156000000Y-81808100D02*
X156000000Y-82562500D01*
X156244000Y-81564000D02*
X156000000Y-81808100D01*
X155027000Y-75426700D02*
X155027000Y-74963300D01*
X154767000Y-75686800D02*
X155027000Y-75426700D01*
X154767000Y-77304400D02*
X154767000Y-75686800D01*
X155027000Y-74963300D02*
X155027000Y-74500000D01*
X155027400Y-74962900D02*
X155027400Y-74500000D01*
X155027000Y-74963300D02*
X155027400Y-74962900D01*
X146722500Y-145327500D02*
X146722500Y-145328000D01*
X148446000Y-145328000D02*
X146722500Y-145328000D01*
X158503000Y-135270000D02*
X148446000Y-145328000D01*
X159630000Y-135270000D02*
X158503000Y-135270000D01*
X146722500Y-145328000D02*
X146722000Y-145328000D01*
%TO.N,Net-(A1-D12)*%
X146883000Y-73052100D02*
X146770000Y-73165000D01*
X157625000Y-73052100D02*
X146883000Y-73052100D01*
X160973000Y-76400000D02*
X157625000Y-73052100D01*
X162100000Y-76400000D02*
X160973000Y-76400000D01*
%TO.N,Net-(A1-A5)*%
X168936000Y-127360000D02*
X168936000Y-129864000D01*
X159630000Y-118053000D02*
X168936000Y-127360000D01*
X159630000Y-117490000D02*
X159630000Y-118053000D01*
X152993000Y-133977000D02*
X141642500Y-145327500D01*
X167041000Y-133977000D02*
X152993000Y-133977000D01*
X168936000Y-132081000D02*
X167041000Y-133977000D01*
X168936000Y-129864000D02*
X168936000Y-132081000D01*
X141642500Y-145327500D02*
X141642000Y-145328000D01*
%TO.N,Net-(A1-A4)*%
X159630000Y-121157000D02*
X159630000Y-120030000D01*
X159348000Y-121157000D02*
X159630000Y-121157000D01*
X158498000Y-122007000D02*
X159348000Y-121157000D01*
X158498000Y-126380000D02*
X158498000Y-122007000D01*
X162284000Y-126380000D02*
X167926000Y-132022000D01*
X158498000Y-126380000D02*
X162284000Y-126380000D01*
X139551000Y-145328000D02*
X139103000Y-145328000D01*
X158498000Y-126380000D02*
X139551000Y-145328000D01*
X139103000Y-145328000D02*
X139102500Y-145327500D01*
%TO.N,Net-(A1-D13)*%
X142960000Y-74435000D02*
X144230000Y-73165000D01*
X138802000Y-74435000D02*
X142960000Y-74435000D01*
X138019000Y-75217900D02*
X138802000Y-74435000D01*
X138019000Y-76209500D02*
X138019000Y-75217900D01*
X147078000Y-85268200D02*
X138019000Y-76209500D01*
X171140000Y-85268200D02*
X147078000Y-85268200D01*
X173674000Y-87802000D02*
X171140000Y-85268200D01*
X173674000Y-99098700D02*
X173674000Y-87802000D01*
X171111000Y-101662000D02*
X173674000Y-99098700D01*
X171111000Y-138619000D02*
X171111000Y-101662000D01*
X170081000Y-139649000D02*
X171111000Y-138619000D01*
X167656000Y-139649000D02*
X170081000Y-139649000D01*
X165463000Y-137456000D02*
X167656000Y-139649000D01*
X161110000Y-137456000D02*
X165463000Y-137456000D01*
X160757000Y-137810000D02*
X161110000Y-137456000D01*
X159630000Y-137810000D02*
X160757000Y-137810000D01*
%TO.N,Net-(A1-D11)*%
X149424000Y-76831700D02*
X150055000Y-76200700D01*
X145357000Y-76831700D02*
X149424000Y-76831700D01*
X144230000Y-75705000D02*
X145357000Y-76831700D01*
%TO.N,GND*%
X156000000Y-79437500D02*
X158588000Y-76850000D01*
X159238000Y-77500000D02*
X162100000Y-77500000D01*
X158588000Y-76850000D02*
X159238000Y-77500000D01*
X170773000Y-72900000D02*
X172200000Y-72900000D01*
X170247000Y-73426700D02*
X170773000Y-72900000D01*
X163227000Y-73426700D02*
X170247000Y-73426700D01*
X140277000Y-72037600D02*
X139150000Y-73165000D01*
X144736000Y-72037600D02*
X140277000Y-72037600D01*
X145500000Y-72801100D02*
X144736000Y-72037600D01*
X145500000Y-73562300D02*
X145500000Y-72801100D01*
X146299000Y-74361700D02*
X145500000Y-73562300D01*
X153356000Y-74361700D02*
X146299000Y-74361700D01*
X154158000Y-73558900D02*
X153356000Y-74361700D01*
X156086000Y-73558900D02*
X154158000Y-73558900D01*
X157027000Y-74500000D02*
X156086000Y-73558900D01*
X158588000Y-76060100D02*
X157027000Y-74500000D01*
X158588000Y-76850000D02*
X158588000Y-76060100D01*
X164527000Y-88600000D02*
X172200000Y-88600000D01*
X163627000Y-87700000D02*
X164527000Y-88600000D01*
X162600000Y-87700000D02*
X163627000Y-87700000D01*
X144390000Y-110997000D02*
X144390000Y-109870000D01*
X144108000Y-110997000D02*
X144390000Y-110997000D01*
X141177000Y-113928000D02*
X144108000Y-110997000D01*
X141177000Y-115554000D02*
X141177000Y-113928000D01*
X140368000Y-116363000D02*
X141177000Y-115554000D01*
X140000000Y-116363000D02*
X140368000Y-116363000D01*
X140000000Y-117540000D02*
X140000000Y-116363000D01*
X158232000Y-91041500D02*
X158232000Y-91332300D01*
X161573000Y-87700000D02*
X158232000Y-91041500D01*
X162600000Y-87700000D02*
X161573000Y-87700000D01*
X143152000Y-95100000D02*
X141925000Y-95100000D01*
X143152000Y-94639900D02*
X143152000Y-95100000D01*
X143921000Y-93870600D02*
X143152000Y-94639900D01*
X156155000Y-93870600D02*
X143921000Y-93870600D01*
X156155000Y-93409100D02*
X156155000Y-93870600D01*
X158232000Y-91332300D02*
X156155000Y-93409100D01*
X159630000Y-103663000D02*
X159630000Y-104790000D01*
X159348000Y-103663000D02*
X159630000Y-103663000D01*
X156155000Y-100470000D02*
X159348000Y-103663000D01*
X156155000Y-93870600D02*
X156155000Y-100470000D01*
X160654000Y-148746000D02*
X161800000Y-147600000D01*
X147601000Y-148746000D02*
X160654000Y-148746000D01*
X144182000Y-145328000D02*
X147601000Y-148746000D01*
X163227000Y-77500000D02*
X163227000Y-73426700D01*
X162100000Y-77500000D02*
X163227000Y-77500000D01*
X163227000Y-73426700D02*
X162700000Y-72900000D01*
%TD*%
%TA.AperFunction,Conductor*%
%TO.N,GND*%
G36*
X153146530Y-102253185D02*
G01*
X153192285Y-102305989D01*
X153202229Y-102375147D01*
X153194052Y-102404953D01*
X153147956Y-102516237D01*
X153147955Y-102516239D01*
X153127318Y-102672998D01*
X153127318Y-102673002D01*
X153136251Y-102740862D01*
X153125485Y-102809897D01*
X153100999Y-102844722D01*
X145837342Y-110109262D01*
X145776020Y-110142751D01*
X145706329Y-110137770D01*
X145682292Y-110120000D01*
X144823012Y-110120000D01*
X144855925Y-110062993D01*
X144890000Y-109935826D01*
X144890000Y-109804174D01*
X144855925Y-109677007D01*
X144823012Y-109620000D01*
X145668872Y-109620000D01*
X145668872Y-109619999D01*
X145616269Y-109423682D01*
X145616265Y-109423673D01*
X145520134Y-109217517D01*
X145389657Y-109031179D01*
X145228820Y-108870342D01*
X145042482Y-108739865D01*
X144836328Y-108643734D01*
X144640000Y-108591127D01*
X144640000Y-109436988D01*
X144582993Y-109404075D01*
X144455826Y-109370000D01*
X144324174Y-109370000D01*
X144197007Y-109404075D01*
X144140000Y-109436988D01*
X144140000Y-108591127D01*
X143943671Y-108643734D01*
X143737517Y-108739865D01*
X143551179Y-108870342D01*
X143390342Y-109031179D01*
X143259865Y-109217517D01*
X143163734Y-109423673D01*
X143163730Y-109423682D01*
X143111127Y-109619999D01*
X143111128Y-109620000D01*
X143956988Y-109620000D01*
X143924075Y-109677007D01*
X143890000Y-109804174D01*
X143890000Y-109935826D01*
X143924075Y-110062993D01*
X143956988Y-110120000D01*
X143111128Y-110120000D01*
X143163730Y-110316317D01*
X143163734Y-110316326D01*
X143259865Y-110522482D01*
X143390342Y-110708820D01*
X143551179Y-110869657D01*
X143737517Y-111000134D01*
X143943673Y-111096265D01*
X143943682Y-111096269D01*
X144139999Y-111148872D01*
X144140000Y-111148871D01*
X144140000Y-110303012D01*
X144197007Y-110335925D01*
X144324174Y-110370000D01*
X144455826Y-110370000D01*
X144582993Y-110335925D01*
X144640000Y-110303012D01*
X144640000Y-111148872D01*
X144836317Y-111096269D01*
X144836326Y-111096266D01*
X145015095Y-111012904D01*
X145084172Y-111002412D01*
X145147956Y-111030931D01*
X145186196Y-111089408D01*
X145191500Y-111125286D01*
X145191500Y-111511307D01*
X145171815Y-111578346D01*
X145119011Y-111624101D01*
X145049853Y-111634045D01*
X144988836Y-111607161D01*
X144948538Y-111574090D01*
X144948532Y-111574086D01*
X144774733Y-111481188D01*
X144774727Y-111481186D01*
X144586132Y-111423976D01*
X144586129Y-111423975D01*
X144390000Y-111404659D01*
X144193870Y-111423975D01*
X144005266Y-111481188D01*
X143831467Y-111574086D01*
X143831460Y-111574090D01*
X143679116Y-111699116D01*
X143554090Y-111851460D01*
X143554086Y-111851467D01*
X143461188Y-112025266D01*
X143403975Y-112213870D01*
X143384659Y-112410000D01*
X143403975Y-112606129D01*
X143423046Y-112668997D01*
X143436489Y-112713314D01*
X143461188Y-112794733D01*
X143554086Y-112968532D01*
X143554090Y-112968539D01*
X143679116Y-113120883D01*
X143831460Y-113245909D01*
X143831467Y-113245913D01*
X144005266Y-113338811D01*
X144005269Y-113338811D01*
X144005273Y-113338814D01*
X144193868Y-113396024D01*
X144390000Y-113415341D01*
X144586132Y-113396024D01*
X144774727Y-113338814D01*
X144948538Y-113245910D01*
X145100883Y-113120883D01*
X145225910Y-112968538D01*
X145225910Y-112968536D01*
X145225914Y-112968532D01*
X145315437Y-112801047D01*
X145364399Y-112751202D01*
X145424795Y-112735500D01*
X145559851Y-112735500D01*
X145559853Y-112735500D01*
X145642638Y-112713318D01*
X145716862Y-112670465D01*
X145777465Y-112609862D01*
X145820318Y-112535638D01*
X145842500Y-112452853D01*
X145842500Y-111076172D01*
X145862185Y-111009133D01*
X145878810Y-110988499D01*
X153561354Y-103305020D01*
X153622674Y-103271533D01*
X153665223Y-103269759D01*
X153733000Y-103278682D01*
X153733001Y-103278682D01*
X153800777Y-103269759D01*
X153889762Y-103258044D01*
X154035841Y-103197536D01*
X154161282Y-103101282D01*
X154257536Y-102975841D01*
X154295939Y-102883127D01*
X154339780Y-102828724D01*
X154406074Y-102806659D01*
X154473773Y-102823938D01*
X154521384Y-102875075D01*
X154534500Y-102930580D01*
X154534500Y-109346852D01*
X154556682Y-109429640D01*
X154578108Y-109466750D01*
X154599535Y-109503862D01*
X154599536Y-109503863D01*
X154599537Y-109503864D01*
X158971194Y-113875520D01*
X158971204Y-113875531D01*
X158975534Y-113879861D01*
X158975535Y-113879862D01*
X159036138Y-113940465D01*
X159036140Y-113940466D01*
X159036141Y-113940467D01*
X159039779Y-113943259D01*
X159080980Y-113999688D01*
X159085132Y-114069434D01*
X159050918Y-114130353D01*
X159042954Y-114137485D01*
X158919116Y-114239116D01*
X158794090Y-114391460D01*
X158794086Y-114391467D01*
X158701188Y-114565266D01*
X158643975Y-114753870D01*
X158624659Y-114950000D01*
X158643975Y-115146129D01*
X158701188Y-115334733D01*
X158794086Y-115508532D01*
X158794090Y-115508539D01*
X158919116Y-115660883D01*
X159071460Y-115785909D01*
X159071467Y-115785913D01*
X159245266Y-115878811D01*
X159245269Y-115878811D01*
X159245273Y-115878814D01*
X159433868Y-115936024D01*
X159630000Y-115955341D01*
X159826132Y-115936024D01*
X160014727Y-115878814D01*
X160016840Y-115877685D01*
X160188532Y-115785913D01*
X160188538Y-115785910D01*
X160340883Y-115660883D01*
X160465910Y-115508538D01*
X160558814Y-115334727D01*
X160616024Y-115146132D01*
X160622315Y-115082252D01*
X160648475Y-115017466D01*
X160705509Y-114977107D01*
X160775309Y-114973990D01*
X160833399Y-115006726D01*
X169327181Y-123500508D01*
X169360666Y-123561831D01*
X169363500Y-123588189D01*
X169363500Y-127027809D01*
X169343815Y-127094848D01*
X169291011Y-127140603D01*
X169221853Y-127150547D01*
X169158297Y-127121522D01*
X169151814Y-127115486D01*
X160374043Y-118336771D01*
X160340561Y-118275446D01*
X160345550Y-118205754D01*
X160365876Y-118170429D01*
X160465909Y-118048539D01*
X160465913Y-118048532D01*
X160470474Y-118040000D01*
X160558814Y-117874727D01*
X160616024Y-117686132D01*
X160635341Y-117490000D01*
X160616024Y-117293868D01*
X160558814Y-117105273D01*
X160558811Y-117105269D01*
X160558811Y-117105266D01*
X160465913Y-116931467D01*
X160465909Y-116931460D01*
X160340883Y-116779116D01*
X160188539Y-116654090D01*
X160188532Y-116654086D01*
X160014733Y-116561188D01*
X160014727Y-116561186D01*
X159826132Y-116503976D01*
X159826129Y-116503975D01*
X159630000Y-116484659D01*
X159433870Y-116503975D01*
X159245266Y-116561188D01*
X159071467Y-116654086D01*
X159071460Y-116654090D01*
X158919116Y-116779116D01*
X158794090Y-116931460D01*
X158794086Y-116931467D01*
X158701188Y-117105266D01*
X158643975Y-117293870D01*
X158624659Y-117490000D01*
X158643975Y-117686129D01*
X158701188Y-117874733D01*
X158794086Y-118048532D01*
X158794090Y-118048539D01*
X158919116Y-118200883D01*
X159071460Y-118325909D01*
X159071467Y-118325913D01*
X159245266Y-118418811D01*
X159245269Y-118418811D01*
X159245273Y-118418814D01*
X159433868Y-118476024D01*
X159565865Y-118489024D01*
X159630650Y-118515183D01*
X159641396Y-118524749D01*
X159956183Y-118839570D01*
X159989665Y-118900895D01*
X159984676Y-118970587D01*
X159942802Y-119026518D01*
X159877336Y-119050932D01*
X159832506Y-119045909D01*
X159826133Y-119043976D01*
X159630000Y-119024659D01*
X159433870Y-119043975D01*
X159245266Y-119101188D01*
X159071467Y-119194086D01*
X159071460Y-119194090D01*
X158919116Y-119319116D01*
X158794090Y-119471460D01*
X158794086Y-119471467D01*
X158701188Y-119645266D01*
X158643975Y-119833870D01*
X158624659Y-120030000D01*
X158643975Y-120226129D01*
X158701188Y-120414733D01*
X158794086Y-120588532D01*
X158794090Y-120588539D01*
X158919116Y-120740883D01*
X159024639Y-120827483D01*
X159063973Y-120885228D01*
X159065844Y-120955073D01*
X159033655Y-121011017D01*
X158237537Y-121807135D01*
X158237533Y-121807141D01*
X158194681Y-121881361D01*
X158194682Y-121881362D01*
X158172500Y-121964147D01*
X158172500Y-126193816D01*
X158152815Y-126260855D01*
X158136184Y-126281495D01*
X139859618Y-144559025D01*
X139798295Y-144592512D01*
X139728604Y-144587529D01*
X139693269Y-144567199D01*
X139639825Y-144523338D01*
X139639818Y-144523334D01*
X139472622Y-144433966D01*
X139472619Y-144433965D01*
X139472618Y-144433964D01*
X139472615Y-144433963D01*
X139291183Y-144378927D01*
X139291181Y-144378926D01*
X139291183Y-144378926D01*
X139102500Y-144360343D01*
X138913818Y-144378926D01*
X138806694Y-144411421D01*
X138732385Y-144433963D01*
X138732382Y-144433964D01*
X138732380Y-144433965D01*
X138732377Y-144433966D01*
X138565181Y-144523334D01*
X138565174Y-144523338D01*
X138491165Y-144584077D01*
X138426855Y-144611390D01*
X138357987Y-144599599D01*
X138306427Y-144552447D01*
X138288500Y-144488224D01*
X138288500Y-137810000D01*
X143384659Y-137810000D01*
X143403975Y-138006129D01*
X143461188Y-138194733D01*
X143554086Y-138368532D01*
X143554090Y-138368539D01*
X143679116Y-138520883D01*
X143831460Y-138645909D01*
X143831467Y-138645913D01*
X144005266Y-138738811D01*
X144005269Y-138738811D01*
X144005273Y-138738814D01*
X144193868Y-138796024D01*
X144390000Y-138815341D01*
X144586132Y-138796024D01*
X144774727Y-138738814D01*
X144948538Y-138645910D01*
X145100883Y-138520883D01*
X145225910Y-138368538D01*
X145318814Y-138194727D01*
X145376024Y-138006132D01*
X145395341Y-137810000D01*
X145376024Y-137613868D01*
X145318814Y-137425273D01*
X145318811Y-137425269D01*
X145318811Y-137425266D01*
X145225913Y-137251467D01*
X145225909Y-137251460D01*
X145100883Y-137099116D01*
X144948539Y-136974090D01*
X144948532Y-136974086D01*
X144774733Y-136881188D01*
X144774727Y-136881186D01*
X144586132Y-136823976D01*
X144586129Y-136823975D01*
X144390000Y-136804659D01*
X144193870Y-136823975D01*
X144005266Y-136881188D01*
X143831467Y-136974086D01*
X143831460Y-136974090D01*
X143679116Y-137099116D01*
X143554090Y-137251460D01*
X143554086Y-137251467D01*
X143461188Y-137425266D01*
X143403975Y-137613870D01*
X143384659Y-137810000D01*
X138288500Y-137810000D01*
X138288500Y-135270000D01*
X143384659Y-135270000D01*
X143403975Y-135466129D01*
X143461188Y-135654733D01*
X143554086Y-135828532D01*
X143554090Y-135828539D01*
X143679116Y-135980883D01*
X143831460Y-136105909D01*
X143831467Y-136105913D01*
X144005266Y-136198811D01*
X144005269Y-136198811D01*
X144005273Y-136198814D01*
X144193868Y-136256024D01*
X144390000Y-136275341D01*
X144586132Y-136256024D01*
X144774727Y-136198814D01*
X144948538Y-136105910D01*
X145100883Y-135980883D01*
X145225910Y-135828538D01*
X145318814Y-135654727D01*
X145376024Y-135466132D01*
X145395341Y-135270000D01*
X145376024Y-135073868D01*
X145318814Y-134885273D01*
X145318811Y-134885269D01*
X145318811Y-134885266D01*
X145225913Y-134711467D01*
X145225909Y-134711460D01*
X145100883Y-134559116D01*
X144948539Y-134434090D01*
X144948532Y-134434086D01*
X144774733Y-134341188D01*
X144774727Y-134341186D01*
X144609422Y-134291041D01*
X144586129Y-134283975D01*
X144390000Y-134264659D01*
X144193870Y-134283975D01*
X144005266Y-134341188D01*
X143831467Y-134434086D01*
X143831460Y-134434090D01*
X143679116Y-134559116D01*
X143554090Y-134711460D01*
X143554086Y-134711467D01*
X143461188Y-134885266D01*
X143403975Y-135073870D01*
X143384659Y-135270000D01*
X138288500Y-135270000D01*
X138288500Y-135108188D01*
X138308185Y-135041149D01*
X138324814Y-135020512D01*
X143178712Y-130166613D01*
X143240033Y-130133130D01*
X143309725Y-130138114D01*
X143365658Y-130179986D01*
X143389794Y-130242142D01*
X143403975Y-130386129D01*
X143461188Y-130574733D01*
X143554086Y-130748532D01*
X143554090Y-130748539D01*
X143679116Y-130900883D01*
X143831460Y-131025909D01*
X143831467Y-131025913D01*
X144005268Y-131118812D01*
X144005270Y-131118812D01*
X144005273Y-131118814D01*
X144120790Y-131153856D01*
X144179228Y-131192153D01*
X144207684Y-131255965D01*
X144197124Y-131325032D01*
X144172476Y-131360196D01*
X144129536Y-131403136D01*
X144129530Y-131403144D01*
X144086685Y-131477355D01*
X144086682Y-131477362D01*
X144064500Y-131560147D01*
X144064500Y-131695205D01*
X144044815Y-131762244D01*
X143998953Y-131804563D01*
X143831467Y-131894085D01*
X143831460Y-131894090D01*
X143679116Y-132019116D01*
X143554090Y-132171460D01*
X143554086Y-132171467D01*
X143461188Y-132345266D01*
X143403975Y-132533870D01*
X143384659Y-132730000D01*
X143403975Y-132926129D01*
X143461188Y-133114733D01*
X143554086Y-133288532D01*
X143554090Y-133288539D01*
X143679116Y-133440883D01*
X143831460Y-133565909D01*
X143831467Y-133565913D01*
X144005266Y-133658811D01*
X144005269Y-133658811D01*
X144005273Y-133658814D01*
X144193868Y-133716024D01*
X144390000Y-133735341D01*
X144586132Y-133716024D01*
X144774727Y-133658814D01*
X144948538Y-133565910D01*
X145100883Y-133440883D01*
X145225910Y-133288538D01*
X145318814Y-133114727D01*
X145376024Y-132926132D01*
X145395341Y-132730000D01*
X145376024Y-132533868D01*
X145318814Y-132345273D01*
X145318811Y-132345269D01*
X145318811Y-132345266D01*
X145225913Y-132171467D01*
X145225909Y-132171460D01*
X145100883Y-132019116D01*
X144995360Y-131932515D01*
X144956026Y-131874769D01*
X144954155Y-131804924D01*
X144986342Y-131748983D01*
X145777465Y-130957862D01*
X145787489Y-130940500D01*
X145820318Y-130883638D01*
X145842500Y-130800853D01*
X145842500Y-127110147D01*
X145820318Y-127027362D01*
X145820318Y-127027361D01*
X145777465Y-126953138D01*
X144947348Y-126123021D01*
X144913863Y-126061698D01*
X144918847Y-125992006D01*
X144956364Y-125939487D01*
X145100883Y-125820883D01*
X145225909Y-125668539D01*
X145225913Y-125668532D01*
X145318811Y-125494733D01*
X145318811Y-125494732D01*
X145318814Y-125494727D01*
X145376024Y-125306132D01*
X145395341Y-125110000D01*
X145376024Y-124913868D01*
X145318814Y-124725273D01*
X145318811Y-124725269D01*
X145318811Y-124725266D01*
X145225913Y-124551467D01*
X145225909Y-124551460D01*
X145100883Y-124399116D01*
X144948539Y-124274090D01*
X144948532Y-124274086D01*
X144774733Y-124181188D01*
X144774727Y-124181186D01*
X144586132Y-124123976D01*
X144586129Y-124123975D01*
X144390000Y-124104659D01*
X144193870Y-124123975D01*
X144005266Y-124181188D01*
X143831467Y-124274086D01*
X143831460Y-124274090D01*
X143679116Y-124399116D01*
X143554090Y-124551460D01*
X143554086Y-124551467D01*
X143461188Y-124725266D01*
X143403975Y-124913870D01*
X143393309Y-125022170D01*
X143367148Y-125086957D01*
X143310114Y-125127316D01*
X143240313Y-125130433D01*
X143182216Y-125097689D01*
X143106711Y-125022170D01*
X141640845Y-123556024D01*
X140655009Y-122570000D01*
X143384659Y-122570000D01*
X143403975Y-122766129D01*
X143461188Y-122954733D01*
X143554086Y-123128532D01*
X143554090Y-123128539D01*
X143679116Y-123280883D01*
X143831460Y-123405909D01*
X143831467Y-123405913D01*
X144005266Y-123498811D01*
X144005269Y-123498811D01*
X144005273Y-123498814D01*
X144193868Y-123556024D01*
X144390000Y-123575341D01*
X144586132Y-123556024D01*
X144774727Y-123498814D01*
X144948538Y-123405910D01*
X145100883Y-123280883D01*
X145225910Y-123128538D01*
X145318814Y-122954727D01*
X145376024Y-122766132D01*
X145395341Y-122570000D01*
X145376024Y-122373868D01*
X145318814Y-122185273D01*
X145318811Y-122185269D01*
X145318811Y-122185266D01*
X145225913Y-122011467D01*
X145225909Y-122011460D01*
X145100883Y-121859116D01*
X144948539Y-121734090D01*
X144948532Y-121734086D01*
X144774733Y-121641188D01*
X144774727Y-121641186D01*
X144586132Y-121583976D01*
X144586129Y-121583975D01*
X144390000Y-121564659D01*
X144193870Y-121583975D01*
X144005266Y-121641188D01*
X143831467Y-121734086D01*
X143831460Y-121734090D01*
X143679116Y-121859116D01*
X143554090Y-122011460D01*
X143554086Y-122011467D01*
X143461188Y-122185266D01*
X143403975Y-122373870D01*
X143384659Y-122570000D01*
X140655009Y-122570000D01*
X139112810Y-121027507D01*
X139079331Y-120966181D01*
X139076500Y-120939834D01*
X139076500Y-120030000D01*
X143384659Y-120030000D01*
X143403975Y-120226129D01*
X143461188Y-120414733D01*
X143554086Y-120588532D01*
X143554090Y-120588539D01*
X143679116Y-120740883D01*
X143831460Y-120865909D01*
X143831467Y-120865913D01*
X144005266Y-120958811D01*
X144005269Y-120958811D01*
X144005273Y-120958814D01*
X144193868Y-121016024D01*
X144390000Y-121035341D01*
X144586132Y-121016024D01*
X144774727Y-120958814D01*
X144948538Y-120865910D01*
X145100883Y-120740883D01*
X145225910Y-120588538D01*
X145318814Y-120414727D01*
X145376024Y-120226132D01*
X145395341Y-120030000D01*
X145376024Y-119833868D01*
X145318814Y-119645273D01*
X145318811Y-119645269D01*
X145318811Y-119645266D01*
X145225913Y-119471467D01*
X145225909Y-119471460D01*
X145100883Y-119319116D01*
X144948539Y-119194090D01*
X144948532Y-119194086D01*
X144774733Y-119101188D01*
X144774727Y-119101186D01*
X144586132Y-119043976D01*
X144586129Y-119043975D01*
X144390000Y-119024659D01*
X144193870Y-119043975D01*
X144005266Y-119101188D01*
X143831467Y-119194086D01*
X143831460Y-119194090D01*
X143679116Y-119319116D01*
X143554090Y-119471460D01*
X143554086Y-119471467D01*
X143461188Y-119645266D01*
X143403975Y-119833870D01*
X143384659Y-120030000D01*
X139076500Y-120030000D01*
X139076500Y-119014000D01*
X139096185Y-118946961D01*
X139148989Y-118901206D01*
X139200500Y-118890000D01*
X139750000Y-118890000D01*
X139750000Y-117973012D01*
X139807007Y-118005925D01*
X139934174Y-118040000D01*
X140065826Y-118040000D01*
X140192993Y-118005925D01*
X140250000Y-117973012D01*
X140250000Y-118890000D01*
X140897828Y-118890000D01*
X140897844Y-118889999D01*
X140957372Y-118883598D01*
X140957379Y-118883596D01*
X141092086Y-118833354D01*
X141092093Y-118833350D01*
X141207187Y-118747190D01*
X141207190Y-118747187D01*
X141293350Y-118632093D01*
X141293354Y-118632086D01*
X141343596Y-118497379D01*
X141343598Y-118497372D01*
X141349999Y-118437844D01*
X141350000Y-118437827D01*
X141350000Y-117790000D01*
X140433012Y-117790000D01*
X140465925Y-117732993D01*
X140500000Y-117605826D01*
X140500000Y-117490000D01*
X143384659Y-117490000D01*
X143403975Y-117686129D01*
X143461188Y-117874733D01*
X143554086Y-118048532D01*
X143554090Y-118048539D01*
X143679116Y-118200883D01*
X143831460Y-118325909D01*
X143831467Y-118325913D01*
X144005266Y-118418811D01*
X144005269Y-118418811D01*
X144005273Y-118418814D01*
X144193868Y-118476024D01*
X144390000Y-118495341D01*
X144586132Y-118476024D01*
X144774727Y-118418814D01*
X144948538Y-118325910D01*
X145100883Y-118200883D01*
X145225910Y-118048538D01*
X145318814Y-117874727D01*
X145376024Y-117686132D01*
X145395341Y-117490000D01*
X145376024Y-117293868D01*
X145318814Y-117105273D01*
X145318811Y-117105269D01*
X145318811Y-117105266D01*
X145225913Y-116931467D01*
X145225909Y-116931460D01*
X145100883Y-116779116D01*
X144948539Y-116654090D01*
X144948532Y-116654086D01*
X144774733Y-116561188D01*
X144774727Y-116561186D01*
X144586132Y-116503976D01*
X144586129Y-116503975D01*
X144390000Y-116484659D01*
X144193870Y-116503975D01*
X144005266Y-116561188D01*
X143831467Y-116654086D01*
X143831460Y-116654090D01*
X143679116Y-116779116D01*
X143554090Y-116931460D01*
X143554086Y-116931467D01*
X143461188Y-117105266D01*
X143403975Y-117293870D01*
X143384659Y-117490000D01*
X140500000Y-117490000D01*
X140500000Y-117474174D01*
X140465925Y-117347007D01*
X140433012Y-117290000D01*
X141350000Y-117290000D01*
X141350000Y-116642172D01*
X141349999Y-116642155D01*
X141343598Y-116582627D01*
X141343596Y-116582620D01*
X141293354Y-116447913D01*
X141293350Y-116447906D01*
X141207190Y-116332812D01*
X141207187Y-116332809D01*
X141092093Y-116246649D01*
X141092086Y-116246645D01*
X140957379Y-116196403D01*
X140957372Y-116196401D01*
X140897844Y-116190000D01*
X140497187Y-116190000D01*
X140430148Y-116170315D01*
X140384393Y-116117511D01*
X140374449Y-116048353D01*
X140403474Y-115984797D01*
X140438733Y-115956642D01*
X140441169Y-115955340D01*
X140586450Y-115877685D01*
X140746410Y-115746410D01*
X140877685Y-115586450D01*
X140975232Y-115403954D01*
X141035300Y-115205934D01*
X141055583Y-115000000D01*
X141050658Y-114950000D01*
X143384659Y-114950000D01*
X143403975Y-115146129D01*
X143461188Y-115334733D01*
X143554086Y-115508532D01*
X143554090Y-115508539D01*
X143679116Y-115660883D01*
X143831460Y-115785909D01*
X143831467Y-115785913D01*
X144005266Y-115878811D01*
X144005269Y-115878811D01*
X144005273Y-115878814D01*
X144193868Y-115936024D01*
X144390000Y-115955341D01*
X144586132Y-115936024D01*
X144774727Y-115878814D01*
X144776840Y-115877685D01*
X144948532Y-115785913D01*
X144948538Y-115785910D01*
X145100883Y-115660883D01*
X145225910Y-115508538D01*
X145318814Y-115334727D01*
X145376024Y-115146132D01*
X145395341Y-114950000D01*
X145376024Y-114753868D01*
X145318814Y-114565273D01*
X145318811Y-114565269D01*
X145318811Y-114565266D01*
X145225913Y-114391467D01*
X145225909Y-114391460D01*
X145100883Y-114239116D01*
X144948539Y-114114090D01*
X144948532Y-114114086D01*
X144774733Y-114021188D01*
X144774727Y-114021186D01*
X144586132Y-113963976D01*
X144586129Y-113963975D01*
X144390000Y-113944659D01*
X144193870Y-113963975D01*
X144005266Y-114021188D01*
X143831467Y-114114086D01*
X143831460Y-114114090D01*
X143679116Y-114239116D01*
X143554090Y-114391460D01*
X143554086Y-114391467D01*
X143461188Y-114565266D01*
X143403975Y-114753870D01*
X143384659Y-114950000D01*
X141050658Y-114950000D01*
X141035300Y-114794066D01*
X140975232Y-114596046D01*
X140877685Y-114413550D01*
X140825702Y-114350209D01*
X140746410Y-114253589D01*
X140604935Y-114137485D01*
X140586450Y-114122315D01*
X140403954Y-114024768D01*
X140402049Y-114023979D01*
X140401203Y-114023298D01*
X140398581Y-114021896D01*
X140398846Y-114021398D01*
X140347645Y-113980138D01*
X140325579Y-113913844D01*
X140325500Y-113909417D01*
X140325500Y-109024499D01*
X140345185Y-108957460D01*
X140397989Y-108911705D01*
X140449500Y-108900499D01*
X140679258Y-108900499D01*
X140679264Y-108900499D01*
X140709698Y-108897646D01*
X140837882Y-108852793D01*
X140947150Y-108772150D01*
X141027793Y-108662882D01*
X141072646Y-108534698D01*
X141075500Y-108504265D01*
X141075499Y-107470736D01*
X141072646Y-107440302D01*
X141034050Y-107330000D01*
X143384659Y-107330000D01*
X143403975Y-107526129D01*
X143461188Y-107714733D01*
X143554086Y-107888532D01*
X143554090Y-107888539D01*
X143679116Y-108040883D01*
X143831460Y-108165909D01*
X143831467Y-108165913D01*
X144005266Y-108258811D01*
X144005269Y-108258811D01*
X144005273Y-108258814D01*
X144193868Y-108316024D01*
X144390000Y-108335341D01*
X144586132Y-108316024D01*
X144774727Y-108258814D01*
X144948538Y-108165910D01*
X145100883Y-108040883D01*
X145225910Y-107888538D01*
X145318814Y-107714727D01*
X145376024Y-107526132D01*
X145395341Y-107330000D01*
X145376024Y-107133868D01*
X145318814Y-106945273D01*
X145318811Y-106945269D01*
X145318811Y-106945266D01*
X145225913Y-106771467D01*
X145225909Y-106771460D01*
X145100883Y-106619116D01*
X144948539Y-106494090D01*
X144948532Y-106494086D01*
X144774733Y-106401188D01*
X144774727Y-106401186D01*
X144586132Y-106343976D01*
X144586129Y-106343975D01*
X144390000Y-106324659D01*
X144193870Y-106343975D01*
X144005266Y-106401188D01*
X143831467Y-106494086D01*
X143831460Y-106494090D01*
X143679116Y-106619116D01*
X143554090Y-106771460D01*
X143554086Y-106771467D01*
X143461188Y-106945266D01*
X143403975Y-107133870D01*
X143384659Y-107330000D01*
X141034050Y-107330000D01*
X141027793Y-107312118D01*
X140947150Y-107202850D01*
X140837882Y-107122207D01*
X140837881Y-107122206D01*
X140709695Y-107077353D01*
X140709698Y-107077353D01*
X140679268Y-107074500D01*
X139320741Y-107074500D01*
X139290301Y-107077354D01*
X139290297Y-107077355D01*
X139241453Y-107094446D01*
X139171674Y-107098007D01*
X139111047Y-107063277D01*
X139078821Y-107001283D01*
X139076500Y-106977404D01*
X139076500Y-106022595D01*
X139096185Y-105955556D01*
X139148989Y-105909801D01*
X139218147Y-105899857D01*
X139241453Y-105905553D01*
X139290302Y-105922646D01*
X139290301Y-105922646D01*
X139294271Y-105923018D01*
X139320735Y-105925500D01*
X140679264Y-105925499D01*
X140709698Y-105922646D01*
X140837882Y-105877793D01*
X140947150Y-105797150D01*
X141027793Y-105687882D01*
X141072646Y-105559698D01*
X141075500Y-105529265D01*
X141075499Y-104495736D01*
X141072646Y-104465302D01*
X141072645Y-104465300D01*
X141072510Y-104463856D01*
X141085850Y-104395272D01*
X141108313Y-104364573D01*
X141612024Y-103861186D01*
X141663452Y-103809791D01*
X141724786Y-103776325D01*
X141751105Y-103773500D01*
X143704955Y-103773500D01*
X143771994Y-103793185D01*
X143817749Y-103845989D01*
X143827693Y-103915147D01*
X143798668Y-103978703D01*
X143783620Y-103993353D01*
X143679116Y-104079116D01*
X143554090Y-104231460D01*
X143554086Y-104231467D01*
X143461188Y-104405266D01*
X143403975Y-104593870D01*
X143384659Y-104790000D01*
X143403975Y-104986129D01*
X143461188Y-105174733D01*
X143554086Y-105348532D01*
X143554090Y-105348539D01*
X143679116Y-105500883D01*
X143831460Y-105625909D01*
X143831467Y-105625913D01*
X144005266Y-105718811D01*
X144005269Y-105718811D01*
X144005273Y-105718814D01*
X144193868Y-105776024D01*
X144390000Y-105795341D01*
X144586132Y-105776024D01*
X144774727Y-105718814D01*
X144948538Y-105625910D01*
X145100883Y-105500883D01*
X145225910Y-105348538D01*
X145291442Y-105225936D01*
X145318811Y-105174733D01*
X145318811Y-105174732D01*
X145318814Y-105174727D01*
X145376024Y-104986132D01*
X145395341Y-104790000D01*
X145376024Y-104593868D01*
X145318814Y-104405273D01*
X145318811Y-104405269D01*
X145318811Y-104405266D01*
X145225913Y-104231467D01*
X145225909Y-104231460D01*
X145100883Y-104079116D01*
X144996380Y-103993353D01*
X144957046Y-103935608D01*
X144955175Y-103865763D01*
X144991363Y-103805995D01*
X145054118Y-103775279D01*
X145075045Y-103773500D01*
X149924851Y-103773500D01*
X149924853Y-103773500D01*
X150007639Y-103751318D01*
X150081862Y-103708465D01*
X151520508Y-102269819D01*
X151581831Y-102236334D01*
X151608189Y-102233500D01*
X153079491Y-102233500D01*
X153146530Y-102253185D01*
G37*
%TD.AperFunction*%
%TA.AperFunction,Conductor*%
G36*
X171020860Y-85613385D02*
G01*
X171041499Y-85630015D01*
X172599922Y-87188315D01*
X172633409Y-87249637D01*
X172628427Y-87319329D01*
X172586558Y-87375264D01*
X172521095Y-87399684D01*
X172512244Y-87400000D01*
X172450000Y-87400000D01*
X172450000Y-89800000D01*
X173224500Y-89800000D01*
X173291539Y-89819685D01*
X173337294Y-89872489D01*
X173348500Y-89924000D01*
X173348500Y-98912526D01*
X173328815Y-98979565D01*
X173312186Y-99000202D01*
X170884709Y-101427962D01*
X170850530Y-101462141D01*
X170829302Y-101498914D01*
X170829300Y-101498917D01*
X170807677Y-101536369D01*
X170795720Y-101581001D01*
X170785497Y-101619156D01*
X170785500Y-101667050D01*
X170785500Y-138250488D01*
X170765815Y-138317527D01*
X170713011Y-138363282D01*
X170643853Y-138373226D01*
X170580297Y-138344201D01*
X170542839Y-138286483D01*
X170513537Y-138189885D01*
X170484505Y-138135570D01*
X170424165Y-138022681D01*
X170424161Y-138022674D01*
X170303883Y-137876116D01*
X170157325Y-137755838D01*
X170157318Y-137755834D01*
X170080047Y-137714532D01*
X170030203Y-137665570D01*
X170014500Y-137605174D01*
X170014500Y-123359150D01*
X170014499Y-123359143D01*
X169996418Y-123291660D01*
X169992318Y-123276362D01*
X169992318Y-123276361D01*
X169949465Y-123202138D01*
X160178011Y-113430684D01*
X160144526Y-113369361D01*
X160149510Y-113299669D01*
X160187027Y-113247150D01*
X160340883Y-113120883D01*
X160465909Y-112968539D01*
X160465913Y-112968532D01*
X160558811Y-112794733D01*
X160558811Y-112794732D01*
X160558814Y-112794727D01*
X160616024Y-112606132D01*
X160635341Y-112410000D01*
X160616024Y-112213868D01*
X160558814Y-112025273D01*
X160558811Y-112025269D01*
X160558811Y-112025266D01*
X160465913Y-111851467D01*
X160465909Y-111851460D01*
X160340883Y-111699116D01*
X160188539Y-111574090D01*
X160188532Y-111574086D01*
X160014733Y-111481188D01*
X160014727Y-111481186D01*
X159826132Y-111423976D01*
X159826129Y-111423975D01*
X159630000Y-111404659D01*
X159433870Y-111423975D01*
X159245266Y-111481188D01*
X159071467Y-111574086D01*
X159071460Y-111574090D01*
X158919116Y-111699116D01*
X158794090Y-111851460D01*
X158794086Y-111851467D01*
X158701188Y-112025266D01*
X158643975Y-112213870D01*
X158632573Y-112329637D01*
X158606412Y-112394424D01*
X158549377Y-112434782D01*
X158479577Y-112437899D01*
X158421489Y-112405163D01*
X156914916Y-110898590D01*
X155221819Y-109205492D01*
X155188334Y-109144169D01*
X155185500Y-109117811D01*
X155185500Y-104539999D01*
X158351127Y-104539999D01*
X158351128Y-104540000D01*
X159196988Y-104540000D01*
X159164075Y-104597007D01*
X159130000Y-104724174D01*
X159130000Y-104855826D01*
X159164075Y-104982993D01*
X159196988Y-105040000D01*
X158351128Y-105040000D01*
X158403730Y-105236317D01*
X158403734Y-105236326D01*
X158499865Y-105442482D01*
X158630342Y-105628820D01*
X158791179Y-105789657D01*
X158977517Y-105920134D01*
X159183673Y-106016265D01*
X159183682Y-106016269D01*
X159379999Y-106068872D01*
X159380000Y-106068871D01*
X159380000Y-105223012D01*
X159437007Y-105255925D01*
X159564174Y-105290000D01*
X159695826Y-105290000D01*
X159822993Y-105255925D01*
X159880000Y-105223012D01*
X159880000Y-106068872D01*
X160076317Y-106016269D01*
X160076326Y-106016265D01*
X160255095Y-105932905D01*
X160324173Y-105922413D01*
X160387957Y-105950933D01*
X160426196Y-106009409D01*
X160431500Y-106045287D01*
X160431500Y-106431307D01*
X160411815Y-106498346D01*
X160359011Y-106544101D01*
X160289853Y-106554045D01*
X160228836Y-106527161D01*
X160188538Y-106494090D01*
X160188532Y-106494086D01*
X160014733Y-106401188D01*
X160014727Y-106401186D01*
X159826132Y-106343976D01*
X159826129Y-106343975D01*
X159630000Y-106324659D01*
X159433870Y-106343975D01*
X159245266Y-106401188D01*
X159071467Y-106494086D01*
X159071460Y-106494090D01*
X158919116Y-106619116D01*
X158794090Y-106771460D01*
X158794086Y-106771467D01*
X158701188Y-106945266D01*
X158643975Y-107133870D01*
X158624659Y-107330000D01*
X158643975Y-107526129D01*
X158701188Y-107714733D01*
X158794086Y-107888532D01*
X158794090Y-107888539D01*
X158919116Y-108040883D01*
X159071460Y-108165909D01*
X159071467Y-108165913D01*
X159245268Y-108258812D01*
X159245270Y-108258812D01*
X159245273Y-108258814D01*
X159360790Y-108293856D01*
X159419228Y-108332153D01*
X159447684Y-108395965D01*
X159437124Y-108465032D01*
X159412476Y-108500196D01*
X159369536Y-108543136D01*
X159369530Y-108543144D01*
X159326685Y-108617355D01*
X159326682Y-108617362D01*
X159304500Y-108700147D01*
X159304500Y-108835205D01*
X159284815Y-108902244D01*
X159238953Y-108944563D01*
X159071467Y-109034085D01*
X159071460Y-109034090D01*
X158919116Y-109159116D01*
X158794090Y-109311460D01*
X158794086Y-109311467D01*
X158701188Y-109485266D01*
X158643975Y-109673870D01*
X158624659Y-109870000D01*
X158643975Y-110066129D01*
X158701188Y-110254733D01*
X158794086Y-110428532D01*
X158794090Y-110428539D01*
X158919116Y-110580883D01*
X159071460Y-110705909D01*
X159071467Y-110705913D01*
X159245266Y-110798811D01*
X159245269Y-110798811D01*
X159245273Y-110798814D01*
X159433868Y-110856024D01*
X159630000Y-110875341D01*
X159826132Y-110856024D01*
X160014727Y-110798814D01*
X160079149Y-110764380D01*
X160155687Y-110723469D01*
X160188538Y-110705910D01*
X160340883Y-110580883D01*
X160465910Y-110428538D01*
X160525893Y-110316317D01*
X160558811Y-110254733D01*
X160558811Y-110254732D01*
X160558814Y-110254727D01*
X160616024Y-110066132D01*
X160635341Y-109870000D01*
X160616024Y-109673868D01*
X160558814Y-109485273D01*
X160558811Y-109485269D01*
X160558811Y-109485266D01*
X160465913Y-109311467D01*
X160465909Y-109311460D01*
X160340883Y-109159116D01*
X160235360Y-109072515D01*
X160196026Y-109014769D01*
X160194155Y-108944924D01*
X160226342Y-108888983D01*
X161017465Y-108097862D01*
X161027489Y-108080500D01*
X161060318Y-108023638D01*
X161082500Y-107940853D01*
X161082500Y-105408154D01*
X161102185Y-105341115D01*
X161118804Y-105320488D01*
X163375423Y-103063305D01*
X163436740Y-103029814D01*
X163506432Y-103034790D01*
X163562371Y-103076654D01*
X163586516Y-103138823D01*
X163591426Y-103188681D01*
X163609772Y-103249160D01*
X163646463Y-103370115D01*
X163646464Y-103370118D01*
X163646465Y-103370119D01*
X163646466Y-103370122D01*
X163735834Y-103537318D01*
X163735838Y-103537325D01*
X163856116Y-103683883D01*
X164002674Y-103804161D01*
X164002681Y-103804165D01*
X164169877Y-103893533D01*
X164169878Y-103893533D01*
X164169885Y-103893537D01*
X164351317Y-103948573D01*
X164351316Y-103948573D01*
X164368233Y-103950239D01*
X164540000Y-103967157D01*
X164728683Y-103948573D01*
X164910115Y-103893537D01*
X165077324Y-103804162D01*
X165223883Y-103683883D01*
X165344162Y-103537324D01*
X165433537Y-103370115D01*
X165488573Y-103188683D01*
X165507157Y-103000000D01*
X165488573Y-102811317D01*
X165433537Y-102629885D01*
X165372792Y-102516239D01*
X165344165Y-102462681D01*
X165344161Y-102462674D01*
X165223883Y-102316116D01*
X165077325Y-102195838D01*
X165077318Y-102195834D01*
X164910122Y-102106466D01*
X164910119Y-102106465D01*
X164910118Y-102106464D01*
X164910115Y-102106463D01*
X164728683Y-102051427D01*
X164728681Y-102051426D01*
X164728683Y-102051426D01*
X164678543Y-102046488D01*
X164613756Y-102020326D01*
X164573397Y-101963291D01*
X164570281Y-101893491D01*
X164603004Y-101835418D01*
X164642463Y-101795948D01*
X164703780Y-101762457D01*
X164773472Y-101767433D01*
X164777591Y-101769053D01*
X164857238Y-101802044D01*
X164935619Y-101812363D01*
X165013999Y-101822682D01*
X165014000Y-101822682D01*
X165014001Y-101822682D01*
X165066254Y-101815802D01*
X165170762Y-101802044D01*
X165316841Y-101741536D01*
X165442282Y-101645282D01*
X165538536Y-101519841D01*
X165599044Y-101373762D01*
X165619682Y-101217000D01*
X165599044Y-101060238D01*
X165538536Y-100914159D01*
X165442282Y-100788718D01*
X165316841Y-100692464D01*
X165170762Y-100631956D01*
X165170760Y-100631955D01*
X165014001Y-100611318D01*
X165013999Y-100611318D01*
X164857239Y-100631955D01*
X164857237Y-100631956D01*
X164711160Y-100692463D01*
X164585718Y-100788718D01*
X164489463Y-100914160D01*
X164428956Y-101060237D01*
X164427118Y-101067098D01*
X164395036Y-101122670D01*
X161075473Y-104443061D01*
X161014154Y-104476554D01*
X160944462Y-104471578D01*
X160888523Y-104429714D01*
X160868006Y-104387485D01*
X160856268Y-104343679D01*
X160856265Y-104343673D01*
X160760134Y-104137517D01*
X160629657Y-103951179D01*
X160468820Y-103790342D01*
X160282482Y-103659865D01*
X160076328Y-103563734D01*
X159880000Y-103511127D01*
X159880000Y-104356988D01*
X159822993Y-104324075D01*
X159695826Y-104290000D01*
X159564174Y-104290000D01*
X159437007Y-104324075D01*
X159380000Y-104356988D01*
X159380000Y-103511127D01*
X159183671Y-103563734D01*
X158977517Y-103659865D01*
X158791179Y-103790342D01*
X158630342Y-103951179D01*
X158499865Y-104137517D01*
X158403734Y-104343673D01*
X158403730Y-104343682D01*
X158351127Y-104539999D01*
X155185500Y-104539999D01*
X155185500Y-102250000D01*
X158624659Y-102250000D01*
X158643975Y-102446129D01*
X158701188Y-102634733D01*
X158794086Y-102808532D01*
X158794090Y-102808539D01*
X158919116Y-102960883D01*
X159071460Y-103085909D01*
X159071467Y-103085913D01*
X159245266Y-103178811D01*
X159245269Y-103178811D01*
X159245273Y-103178814D01*
X159433868Y-103236024D01*
X159630000Y-103255341D01*
X159826132Y-103236024D01*
X160014727Y-103178814D01*
X160038701Y-103166000D01*
X160188532Y-103085913D01*
X160188538Y-103085910D01*
X160340883Y-102960883D01*
X160465910Y-102808538D01*
X160558814Y-102634727D01*
X160616024Y-102446132D01*
X160635341Y-102250000D01*
X160616024Y-102053868D01*
X160558814Y-101865273D01*
X160558811Y-101865269D01*
X160558811Y-101865266D01*
X160465913Y-101691467D01*
X160465909Y-101691460D01*
X160340883Y-101539116D01*
X160188539Y-101414090D01*
X160188532Y-101414086D01*
X160014733Y-101321188D01*
X160014727Y-101321186D01*
X159826132Y-101263976D01*
X159826129Y-101263975D01*
X159630000Y-101244659D01*
X159433870Y-101263975D01*
X159245266Y-101321188D01*
X159071467Y-101414086D01*
X159071460Y-101414090D01*
X158919116Y-101539116D01*
X158794090Y-101691460D01*
X158794086Y-101691467D01*
X158701188Y-101865266D01*
X158643975Y-102053870D01*
X158624659Y-102250000D01*
X155185500Y-102250000D01*
X155185500Y-96634794D01*
X155205185Y-96567755D01*
X155251047Y-96525436D01*
X155404611Y-96443354D01*
X155418538Y-96435910D01*
X155570883Y-96310883D01*
X155695910Y-96158538D01*
X155788814Y-95984727D01*
X155846024Y-95796132D01*
X155865341Y-95600000D01*
X155846024Y-95403868D01*
X155788814Y-95215273D01*
X155788811Y-95215269D01*
X155788811Y-95215266D01*
X155695913Y-95041467D01*
X155695909Y-95041460D01*
X155570883Y-94889116D01*
X155499151Y-94830247D01*
X156449500Y-94830247D01*
X156449500Y-96369752D01*
X156461131Y-96428229D01*
X156461132Y-96428230D01*
X156505447Y-96494552D01*
X156571769Y-96538867D01*
X156571770Y-96538868D01*
X156630247Y-96550499D01*
X156630250Y-96550500D01*
X156630252Y-96550500D01*
X158169750Y-96550500D01*
X158169751Y-96550499D01*
X158188450Y-96546780D01*
X158228229Y-96538868D01*
X158228229Y-96538867D01*
X158228231Y-96538867D01*
X158294552Y-96494552D01*
X158338867Y-96428231D01*
X158338867Y-96428229D01*
X158338868Y-96428229D01*
X158350499Y-96369752D01*
X158350500Y-96369750D01*
X158350500Y-95600000D01*
X158934659Y-95600000D01*
X158953975Y-95796129D01*
X159011188Y-95984733D01*
X159104086Y-96158532D01*
X159104090Y-96158539D01*
X159229116Y-96310883D01*
X159381460Y-96435909D01*
X159381467Y-96435913D01*
X159555266Y-96528811D01*
X159555269Y-96528811D01*
X159555273Y-96528814D01*
X159743868Y-96586024D01*
X159940000Y-96605341D01*
X160136132Y-96586024D01*
X160324727Y-96528814D01*
X160390612Y-96493598D01*
X160484611Y-96443354D01*
X160498538Y-96435910D01*
X160650883Y-96310883D01*
X160775910Y-96158538D01*
X160868814Y-95984727D01*
X160926024Y-95796132D01*
X160945341Y-95600000D01*
X160926024Y-95403868D01*
X160868814Y-95215273D01*
X160868811Y-95215269D01*
X160868811Y-95215266D01*
X160775913Y-95041467D01*
X160775909Y-95041460D01*
X160650883Y-94889116D01*
X160498539Y-94764090D01*
X160498532Y-94764086D01*
X160324733Y-94671188D01*
X160324727Y-94671186D01*
X160136132Y-94613976D01*
X160136129Y-94613975D01*
X159940000Y-94594659D01*
X159743870Y-94613975D01*
X159555266Y-94671188D01*
X159381467Y-94764086D01*
X159381460Y-94764090D01*
X159229116Y-94889116D01*
X159104090Y-95041460D01*
X159104086Y-95041467D01*
X159011188Y-95215266D01*
X158953975Y-95403870D01*
X158934659Y-95600000D01*
X158350500Y-95600000D01*
X158350500Y-94830249D01*
X158350499Y-94830247D01*
X158338868Y-94771770D01*
X158338867Y-94771769D01*
X158294552Y-94705447D01*
X158228230Y-94661132D01*
X158228229Y-94661131D01*
X158169752Y-94649500D01*
X158169748Y-94649500D01*
X156630252Y-94649500D01*
X156630247Y-94649500D01*
X156571770Y-94661131D01*
X156571769Y-94661132D01*
X156505447Y-94705447D01*
X156461132Y-94771769D01*
X156461131Y-94771770D01*
X156449500Y-94830247D01*
X155499151Y-94830247D01*
X155418539Y-94764090D01*
X155418532Y-94764086D01*
X155244733Y-94671188D01*
X155244727Y-94671186D01*
X155056132Y-94613976D01*
X155056129Y-94613975D01*
X154860000Y-94594659D01*
X154663870Y-94613975D01*
X154475266Y-94671188D01*
X154301467Y-94764086D01*
X154301460Y-94764090D01*
X154149116Y-94889116D01*
X154024090Y-95041460D01*
X154024086Y-95041467D01*
X153931188Y-95215266D01*
X153873975Y-95403870D01*
X153854659Y-95600000D01*
X153873975Y-95796129D01*
X153931188Y-95984733D01*
X154024086Y-96158532D01*
X154024090Y-96158539D01*
X154149116Y-96310883D01*
X154301460Y-96435909D01*
X154301467Y-96435913D01*
X154468953Y-96525436D01*
X154518797Y-96574398D01*
X154534500Y-96634794D01*
X154534500Y-101458500D01*
X154514815Y-101525539D01*
X154462011Y-101571294D01*
X154410500Y-101582500D01*
X151379147Y-101582500D01*
X151296359Y-101604682D01*
X151222138Y-101647535D01*
X151222135Y-101647537D01*
X149783492Y-103086181D01*
X149722169Y-103119666D01*
X149695811Y-103122500D01*
X145514500Y-103122500D01*
X145447461Y-103102815D01*
X145401706Y-103050011D01*
X145390500Y-102998500D01*
X145390500Y-101430249D01*
X145390499Y-101430247D01*
X145378868Y-101371770D01*
X145378867Y-101371769D01*
X145334552Y-101305447D01*
X145268230Y-101261132D01*
X145268229Y-101261131D01*
X145209752Y-101249500D01*
X145209748Y-101249500D01*
X143570252Y-101249500D01*
X143570247Y-101249500D01*
X143511770Y-101261131D01*
X143511769Y-101261132D01*
X143445447Y-101305447D01*
X143401132Y-101371769D01*
X143401131Y-101371770D01*
X143389500Y-101430247D01*
X143389500Y-102998500D01*
X143369815Y-103065539D01*
X143317011Y-103111294D01*
X143265500Y-103122500D01*
X141566692Y-103122500D01*
X141566676Y-103122499D01*
X141522250Y-103122485D01*
X141522147Y-103122499D01*
X141481097Y-103133498D01*
X141481063Y-103133507D01*
X141439406Y-103144655D01*
X141402463Y-103165984D01*
X141402435Y-103166000D01*
X141365176Y-103187497D01*
X141333936Y-103218736D01*
X141333910Y-103218761D01*
X140588162Y-103964033D01*
X140587971Y-103964202D01*
X140582638Y-103969535D01*
X140551437Y-104000735D01*
X140488922Y-104063210D01*
X140427590Y-104096674D01*
X140401270Y-104099500D01*
X139320741Y-104099500D01*
X139290301Y-104102354D01*
X139290297Y-104102355D01*
X139241453Y-104119446D01*
X139171674Y-104123007D01*
X139111047Y-104088277D01*
X139078821Y-104026283D01*
X139076500Y-104002404D01*
X139076500Y-96193781D01*
X139096185Y-96126742D01*
X139112811Y-96106107D01*
X140359248Y-94859606D01*
X140420566Y-94826123D01*
X140490258Y-94831106D01*
X140519658Y-94850000D01*
X141549722Y-94850000D01*
X141505667Y-94926306D01*
X141475000Y-95040756D01*
X141475000Y-95159244D01*
X141505667Y-95273694D01*
X141549722Y-95350000D01*
X140525000Y-95350000D01*
X140525000Y-96047844D01*
X140531401Y-96107372D01*
X140531403Y-96107379D01*
X140581645Y-96242086D01*
X140581649Y-96242093D01*
X140667809Y-96357187D01*
X140667812Y-96357190D01*
X140782906Y-96443350D01*
X140782913Y-96443354D01*
X140917620Y-96493596D01*
X140917627Y-96493598D01*
X140977155Y-96499999D01*
X140977172Y-96500000D01*
X141675000Y-96500000D01*
X141675000Y-95475277D01*
X141751306Y-95519333D01*
X141865756Y-95550000D01*
X141984244Y-95550000D01*
X142098694Y-95519333D01*
X142175000Y-95475277D01*
X142175000Y-96500000D01*
X142872828Y-96500000D01*
X142872844Y-96499999D01*
X142932372Y-96493598D01*
X142932379Y-96493596D01*
X143067086Y-96443354D01*
X143067093Y-96443350D01*
X143182187Y-96357190D01*
X143182190Y-96357187D01*
X143268350Y-96242093D01*
X143268354Y-96242086D01*
X143318596Y-96107379D01*
X143318598Y-96107372D01*
X143324999Y-96047844D01*
X143325000Y-96047827D01*
X143325000Y-95786511D01*
X143344685Y-95719472D01*
X143397489Y-95673717D01*
X143466647Y-95663773D01*
X143530203Y-95692798D01*
X143547954Y-95711784D01*
X143648237Y-95844581D01*
X143798958Y-95981980D01*
X143798960Y-95981982D01*
X143898141Y-96043392D01*
X143972363Y-96089348D01*
X144162544Y-96163024D01*
X144363024Y-96200500D01*
X144363026Y-96200500D01*
X144566974Y-96200500D01*
X144566976Y-96200500D01*
X144767456Y-96163024D01*
X144957637Y-96089348D01*
X145131041Y-95981981D01*
X145281764Y-95844579D01*
X145404673Y-95681821D01*
X145495582Y-95499250D01*
X145551397Y-95303083D01*
X145570215Y-95100000D01*
X145551397Y-94896917D01*
X145495582Y-94700750D01*
X145404673Y-94518179D01*
X145281764Y-94355421D01*
X145281762Y-94355418D01*
X145131041Y-94218019D01*
X145131039Y-94218017D01*
X144957642Y-94110655D01*
X144957635Y-94110651D01*
X144862546Y-94073814D01*
X144767456Y-94036976D01*
X144566976Y-93999500D01*
X144363024Y-93999500D01*
X144162544Y-94036976D01*
X144162541Y-94036976D01*
X144162541Y-94036977D01*
X143972364Y-94110651D01*
X143972357Y-94110655D01*
X143798960Y-94218017D01*
X143798958Y-94218019D01*
X143648237Y-94355419D01*
X143547954Y-94488215D01*
X143491845Y-94529851D01*
X143422133Y-94534542D01*
X143360951Y-94500800D01*
X143327724Y-94439337D01*
X143325000Y-94413488D01*
X143325000Y-94152172D01*
X143324999Y-94152155D01*
X143318598Y-94092627D01*
X143318596Y-94092620D01*
X143268354Y-93957913D01*
X143268350Y-93957906D01*
X143182190Y-93842812D01*
X143182187Y-93842809D01*
X143067093Y-93756649D01*
X143067086Y-93756645D01*
X142932379Y-93706403D01*
X142932372Y-93706401D01*
X142872844Y-93700000D01*
X142175000Y-93700000D01*
X142175000Y-94724722D01*
X142098694Y-94680667D01*
X141984244Y-94650000D01*
X141865756Y-94650000D01*
X141751306Y-94680667D01*
X141675000Y-94724722D01*
X141675000Y-93692040D01*
X141651089Y-93648251D01*
X141656073Y-93578559D01*
X141684568Y-93534219D01*
X144074567Y-91144098D01*
X145026318Y-91144098D01*
X145026318Y-91144101D01*
X145046955Y-91300860D01*
X145046956Y-91300862D01*
X145089972Y-91404713D01*
X145107464Y-91446941D01*
X145203718Y-91572382D01*
X145329159Y-91668636D01*
X145475238Y-91729144D01*
X145553619Y-91739463D01*
X145631999Y-91749782D01*
X145632000Y-91749782D01*
X145632001Y-91749782D01*
X145684254Y-91742902D01*
X145788762Y-91729144D01*
X145934841Y-91668636D01*
X146060282Y-91572382D01*
X146101923Y-91518113D01*
X146158351Y-91476911D01*
X146200299Y-91469600D01*
X155509054Y-91469600D01*
X155509130Y-91469604D01*
X155517172Y-91469603D01*
X155517175Y-91469604D01*
X155566150Y-91469600D01*
X155602853Y-91469600D01*
X155602859Y-91469600D01*
X155602876Y-91469597D01*
X155602881Y-91469597D01*
X155647948Y-91457516D01*
X155647962Y-91457516D01*
X155647962Y-91457513D01*
X155681869Y-91448428D01*
X155685687Y-91447535D01*
X155685707Y-91447527D01*
X155689025Y-91445466D01*
X155723975Y-91425283D01*
X155723984Y-91425281D01*
X155723983Y-91425279D01*
X155723985Y-91425278D01*
X155756753Y-91406359D01*
X155759812Y-91404713D01*
X155759833Y-91404697D01*
X155761862Y-91402569D01*
X155789041Y-91375384D01*
X155789049Y-91375380D01*
X155789048Y-91375379D01*
X155806201Y-91358225D01*
X155820465Y-91343962D01*
X155820465Y-91343960D01*
X155826829Y-91337597D01*
X155826867Y-91337552D01*
X157816234Y-89347844D01*
X170600000Y-89347844D01*
X170606401Y-89407372D01*
X170606403Y-89407379D01*
X170656645Y-89542086D01*
X170656649Y-89542093D01*
X170742809Y-89657187D01*
X170742812Y-89657190D01*
X170857906Y-89743350D01*
X170857913Y-89743354D01*
X170992620Y-89793596D01*
X170992627Y-89793598D01*
X171052155Y-89799999D01*
X171052172Y-89800000D01*
X171950000Y-89800000D01*
X171950000Y-88850000D01*
X170600000Y-88850000D01*
X170600000Y-89347844D01*
X157816234Y-89347844D01*
X158516114Y-88647844D01*
X161400000Y-88647844D01*
X161406401Y-88707372D01*
X161406403Y-88707379D01*
X161456645Y-88842086D01*
X161456649Y-88842093D01*
X161542809Y-88957187D01*
X161542812Y-88957190D01*
X161657906Y-89043350D01*
X161657913Y-89043354D01*
X161792620Y-89093596D01*
X161792627Y-89093598D01*
X161852155Y-89099999D01*
X161852172Y-89100000D01*
X162350000Y-89100000D01*
X162850000Y-89100000D01*
X163347828Y-89100000D01*
X163347844Y-89099999D01*
X163407372Y-89093598D01*
X163407379Y-89093596D01*
X163542086Y-89043354D01*
X163542093Y-89043350D01*
X163657187Y-88957190D01*
X163657190Y-88957187D01*
X163743350Y-88842093D01*
X163743354Y-88842086D01*
X163793596Y-88707379D01*
X163793598Y-88707372D01*
X163799999Y-88647844D01*
X163800000Y-88647827D01*
X163800000Y-87950000D01*
X162850000Y-87950000D01*
X162850000Y-89100000D01*
X162350000Y-89100000D01*
X162350000Y-87950000D01*
X161400000Y-87950000D01*
X161400000Y-88647844D01*
X158516114Y-88647844D01*
X159311667Y-87852155D01*
X170600000Y-87852155D01*
X170600000Y-88350000D01*
X171950000Y-88350000D01*
X171950000Y-87400000D01*
X171052155Y-87400000D01*
X170992627Y-87406401D01*
X170992620Y-87406403D01*
X170857913Y-87456645D01*
X170857906Y-87456649D01*
X170742812Y-87542809D01*
X170742809Y-87542812D01*
X170656649Y-87657906D01*
X170656645Y-87657913D01*
X170606403Y-87792620D01*
X170606401Y-87792627D01*
X170600000Y-87852155D01*
X159311667Y-87852155D01*
X160328523Y-86835125D01*
X160389844Y-86801636D01*
X160416212Y-86798800D01*
X161276000Y-86798800D01*
X161343039Y-86818485D01*
X161388794Y-86871289D01*
X161400000Y-86922800D01*
X161400000Y-87450000D01*
X163800000Y-87450000D01*
X163800000Y-86922800D01*
X163819685Y-86855761D01*
X163872489Y-86810006D01*
X163924000Y-86798800D01*
X165567352Y-86798800D01*
X165634391Y-86818485D01*
X165665728Y-86847314D01*
X165684124Y-86871289D01*
X165721718Y-86920282D01*
X165847159Y-87016536D01*
X165993238Y-87077044D01*
X166071619Y-87087363D01*
X166149999Y-87097682D01*
X166150000Y-87097682D01*
X166150001Y-87097682D01*
X166202254Y-87090802D01*
X166306762Y-87077044D01*
X166452841Y-87016536D01*
X166578282Y-86920282D01*
X166674536Y-86794841D01*
X166735044Y-86648762D01*
X166755682Y-86492000D01*
X166735044Y-86335238D01*
X166674536Y-86189159D01*
X166578282Y-86063718D01*
X166452841Y-85967464D01*
X166442153Y-85963037D01*
X166306762Y-85906956D01*
X166306760Y-85906955D01*
X166150001Y-85886318D01*
X166149999Y-85886318D01*
X165993239Y-85906955D01*
X165993237Y-85906956D01*
X165847160Y-85967463D01*
X165721716Y-86063719D01*
X165694426Y-86099286D01*
X165637998Y-86140489D01*
X165596050Y-86147800D01*
X160280946Y-86147800D01*
X160280869Y-86147795D01*
X160223864Y-86147799D01*
X160223850Y-86147800D01*
X160187140Y-86147800D01*
X160187112Y-86147804D01*
X160142044Y-86159884D01*
X160142037Y-86159886D01*
X160104347Y-86169985D01*
X160066018Y-86192118D01*
X160066013Y-86192121D01*
X160030127Y-86212840D01*
X160000953Y-86242018D01*
X159965246Y-86277725D01*
X159965189Y-86277788D01*
X157200102Y-89043350D01*
X155527921Y-90715819D01*
X155461477Y-90782274D01*
X155400157Y-90815764D01*
X155373788Y-90818600D01*
X146200299Y-90818600D01*
X146133260Y-90798915D01*
X146101923Y-90770086D01*
X146060283Y-90715819D01*
X146060282Y-90715818D01*
X145934841Y-90619564D01*
X145788762Y-90559056D01*
X145788760Y-90559055D01*
X145632001Y-90538418D01*
X145631999Y-90538418D01*
X145475239Y-90559055D01*
X145475237Y-90559056D01*
X145329160Y-90619563D01*
X145203718Y-90715818D01*
X145107463Y-90841260D01*
X145046956Y-90987337D01*
X145046955Y-90987339D01*
X145026318Y-91144098D01*
X144074567Y-91144098D01*
X148383320Y-86835126D01*
X148647512Y-86570921D01*
X148708834Y-86537434D01*
X148735195Y-86534600D01*
X158164701Y-86534600D01*
X158231740Y-86554285D01*
X158263076Y-86583113D01*
X158304718Y-86637382D01*
X158430159Y-86733636D01*
X158576238Y-86794144D01*
X158633146Y-86801636D01*
X158732999Y-86814782D01*
X158733000Y-86814782D01*
X158733001Y-86814782D01*
X158785254Y-86807902D01*
X158889762Y-86794144D01*
X159035841Y-86733636D01*
X159161282Y-86637382D01*
X159257536Y-86511941D01*
X159318044Y-86365862D01*
X159338682Y-86209100D01*
X159336446Y-86192118D01*
X159318044Y-86052339D01*
X159318044Y-86052338D01*
X159257536Y-85906259D01*
X159170770Y-85793184D01*
X159145578Y-85728017D01*
X159159616Y-85659573D01*
X159208430Y-85609583D01*
X159269148Y-85593700D01*
X170953821Y-85593700D01*
X171020860Y-85613385D01*
G37*
%TD.AperFunction*%
%TA.AperFunction,Conductor*%
G36*
X177717539Y-71419185D02*
G01*
X177763294Y-71471989D01*
X177774500Y-71523500D01*
X177774500Y-149710500D01*
X177754815Y-149777539D01*
X177702011Y-149823294D01*
X177650500Y-149834500D01*
X137309500Y-149834500D01*
X137242461Y-149814815D01*
X137196706Y-149762011D01*
X137185500Y-149710500D01*
X137185500Y-145717693D01*
X137637463Y-145717693D01*
X137637500Y-145768235D01*
X137637500Y-145810871D01*
X137637526Y-145811068D01*
X137648614Y-145852333D01*
X137648625Y-145852421D01*
X137648637Y-145852418D01*
X137659685Y-145893650D01*
X137659766Y-145893845D01*
X137659772Y-145893856D01*
X137659773Y-145893858D01*
X137681095Y-145930727D01*
X137681137Y-145930800D01*
X137681140Y-145930805D01*
X137702535Y-145967862D01*
X137702538Y-145967866D01*
X137702679Y-145968049D01*
X137732413Y-145997741D01*
X137732411Y-145997742D01*
X137732476Y-145997803D01*
X137768717Y-146034044D01*
X137769138Y-146034411D01*
X138410516Y-146674862D01*
X138423901Y-146688228D01*
X138423898Y-146688230D01*
X138423964Y-146688291D01*
X138454137Y-146718464D01*
X138454327Y-146718610D01*
X138491684Y-146740142D01*
X138491763Y-146740188D01*
X138528360Y-146761318D01*
X138528517Y-146761383D01*
X138528575Y-146761407D01*
X138528579Y-146761408D01*
X138528581Y-146761409D01*
X138569947Y-146772460D01*
X138570026Y-146772508D01*
X138570033Y-146772484D01*
X138593767Y-146778843D01*
X138611147Y-146783500D01*
X138611156Y-146783500D01*
X138611376Y-146783529D01*
X138611383Y-146783531D01*
X138611389Y-146783530D01*
X138611390Y-146783531D01*
X138654236Y-146783500D01*
X142100851Y-146783500D01*
X142100853Y-146783500D01*
X142183639Y-146761318D01*
X142257862Y-146718465D01*
X142952087Y-146024239D01*
X143013406Y-145990757D01*
X143083097Y-145995741D01*
X143122088Y-146024929D01*
X143130758Y-146025688D01*
X143801500Y-145354946D01*
X143801500Y-145377660D01*
X143827464Y-145474561D01*
X143877624Y-145561440D01*
X143948560Y-145632376D01*
X144035439Y-145682536D01*
X144132340Y-145708500D01*
X144155053Y-145708500D01*
X143484310Y-146379240D01*
X143549090Y-146424599D01*
X143549092Y-146424600D01*
X143749215Y-146517919D01*
X143749229Y-146517924D01*
X143962513Y-146575073D01*
X143962523Y-146575075D01*
X144182499Y-146594321D01*
X144182501Y-146594321D01*
X144402476Y-146575075D01*
X144402486Y-146575073D01*
X144615770Y-146517924D01*
X144615784Y-146517919D01*
X144815907Y-146424600D01*
X144815917Y-146424594D01*
X144880688Y-146379241D01*
X144209948Y-145708500D01*
X144232660Y-145708500D01*
X144329561Y-145682536D01*
X144416440Y-145632376D01*
X144487376Y-145561440D01*
X144537536Y-145474561D01*
X144563500Y-145377660D01*
X144563500Y-145354947D01*
X145234241Y-146025688D01*
X145248681Y-146024424D01*
X145272465Y-146005413D01*
X145341963Y-145998218D01*
X145404319Y-146029739D01*
X145407212Y-146032544D01*
X146042767Y-146669041D01*
X146043161Y-146669489D01*
X146061901Y-146688228D01*
X146079226Y-146705553D01*
X146108946Y-146735317D01*
X146108948Y-146735319D01*
X146109133Y-146735460D01*
X146109138Y-146735465D01*
X146146085Y-146756796D01*
X146146150Y-146756864D01*
X146146164Y-146756842D01*
X146183137Y-146778225D01*
X146183143Y-146778226D01*
X146183356Y-146778315D01*
X146183362Y-146778318D01*
X146224055Y-146789221D01*
X146224138Y-146789272D01*
X146224146Y-146789246D01*
X146251987Y-146796728D01*
X146265907Y-146800469D01*
X146265908Y-146800469D01*
X146266140Y-146800500D01*
X146308079Y-146800500D01*
X146351612Y-146800532D01*
X146351614Y-146800531D01*
X146359344Y-146800537D01*
X146359925Y-146800500D01*
X152554851Y-146800500D01*
X152554853Y-146800500D01*
X152637639Y-146778318D01*
X152703811Y-146740112D01*
X152765812Y-146723500D01*
X153342859Y-146723500D01*
X153409898Y-146743185D01*
X153455653Y-146795989D01*
X153465597Y-146865147D01*
X153438712Y-146926165D01*
X153344090Y-147041460D01*
X153344086Y-147041467D01*
X153251188Y-147215266D01*
X153193975Y-147403870D01*
X153174659Y-147600000D01*
X153193975Y-147796129D01*
X153193976Y-147796132D01*
X153241729Y-147953553D01*
X153251188Y-147984733D01*
X153344086Y-148158532D01*
X153344090Y-148158539D01*
X153469116Y-148310883D01*
X153621460Y-148435909D01*
X153621467Y-148435913D01*
X153795266Y-148528811D01*
X153795269Y-148528811D01*
X153795273Y-148528814D01*
X153983868Y-148586024D01*
X154180000Y-148605341D01*
X154376132Y-148586024D01*
X154564727Y-148528814D01*
X154738538Y-148435910D01*
X154890883Y-148310883D01*
X155015910Y-148158538D01*
X155075893Y-148046317D01*
X155108811Y-147984733D01*
X155108811Y-147984732D01*
X155108814Y-147984727D01*
X155166024Y-147796132D01*
X155185341Y-147600000D01*
X155166024Y-147403868D01*
X155108814Y-147215273D01*
X155108811Y-147215269D01*
X155108811Y-147215266D01*
X155015913Y-147041467D01*
X155015909Y-147041460D01*
X154921288Y-146926165D01*
X154893975Y-146861855D01*
X154905766Y-146792988D01*
X154952918Y-146741427D01*
X155017141Y-146723500D01*
X155882859Y-146723500D01*
X155949898Y-146743185D01*
X155995653Y-146795989D01*
X156005597Y-146865147D01*
X155978712Y-146926165D01*
X155884090Y-147041460D01*
X155884086Y-147041467D01*
X155791188Y-147215266D01*
X155733975Y-147403870D01*
X155714659Y-147600000D01*
X155733975Y-147796129D01*
X155733976Y-147796132D01*
X155781729Y-147953553D01*
X155791188Y-147984733D01*
X155884086Y-148158532D01*
X155884090Y-148158539D01*
X156009116Y-148310883D01*
X156161460Y-148435909D01*
X156161467Y-148435913D01*
X156335266Y-148528811D01*
X156335269Y-148528811D01*
X156335273Y-148528814D01*
X156523868Y-148586024D01*
X156720000Y-148605341D01*
X156916132Y-148586024D01*
X157104727Y-148528814D01*
X157278538Y-148435910D01*
X157430883Y-148310883D01*
X157555910Y-148158538D01*
X157615893Y-148046317D01*
X157648811Y-147984733D01*
X157648811Y-147984732D01*
X157648814Y-147984727D01*
X157706024Y-147796132D01*
X157725341Y-147600000D01*
X157706024Y-147403868D01*
X157648814Y-147215273D01*
X157648811Y-147215269D01*
X157648811Y-147215266D01*
X157555913Y-147041467D01*
X157555909Y-147041460D01*
X157461288Y-146926165D01*
X157433975Y-146861855D01*
X157445766Y-146792988D01*
X157492918Y-146741427D01*
X157557141Y-146723500D01*
X157871811Y-146723500D01*
X157938850Y-146743185D01*
X157959492Y-146759819D01*
X158298126Y-147098452D01*
X158331611Y-147159775D01*
X158329106Y-147222128D01*
X158273975Y-147403869D01*
X158254659Y-147600000D01*
X158273975Y-147796129D01*
X158273976Y-147796132D01*
X158321729Y-147953553D01*
X158331188Y-147984733D01*
X158424086Y-148158532D01*
X158424090Y-148158539D01*
X158549116Y-148310883D01*
X158701460Y-148435909D01*
X158701467Y-148435913D01*
X158875266Y-148528811D01*
X158875269Y-148528811D01*
X158875273Y-148528814D01*
X159063868Y-148586024D01*
X159260000Y-148605341D01*
X159456132Y-148586024D01*
X159644727Y-148528814D01*
X159818538Y-148435910D01*
X159970883Y-148310883D01*
X160095910Y-148158538D01*
X160155893Y-148046317D01*
X160188811Y-147984733D01*
X160188811Y-147984732D01*
X160188814Y-147984727D01*
X160246024Y-147796132D01*
X160256274Y-147692054D01*
X160282434Y-147627268D01*
X160320299Y-147600474D01*
X160437967Y-147600474D01*
X160469674Y-147618906D01*
X160501505Y-147681103D01*
X160503205Y-147693401D01*
X160514858Y-147826600D01*
X160514860Y-147826610D01*
X160573730Y-148046317D01*
X160573735Y-148046331D01*
X160669863Y-148252478D01*
X160720974Y-148325472D01*
X161317037Y-147729409D01*
X161334075Y-147792993D01*
X161399901Y-147907007D01*
X161492993Y-148000099D01*
X161607007Y-148065925D01*
X161670590Y-148082962D01*
X161074526Y-148679025D01*
X161147513Y-148730132D01*
X161147521Y-148730136D01*
X161353668Y-148826264D01*
X161353682Y-148826269D01*
X161573389Y-148885139D01*
X161573400Y-148885141D01*
X161799998Y-148904966D01*
X161800002Y-148904966D01*
X162026599Y-148885141D01*
X162026610Y-148885139D01*
X162246317Y-148826269D01*
X162246331Y-148826264D01*
X162452478Y-148730136D01*
X162525471Y-148679024D01*
X161929409Y-148082962D01*
X161992993Y-148065925D01*
X162107007Y-148000099D01*
X162200099Y-147907007D01*
X162265925Y-147792993D01*
X162282962Y-147729409D01*
X162879024Y-148325471D01*
X162930136Y-148252478D01*
X163026264Y-148046331D01*
X163026269Y-148046317D01*
X163085139Y-147826610D01*
X163085141Y-147826599D01*
X163104966Y-147600002D01*
X163104966Y-147599997D01*
X163085141Y-147373400D01*
X163085139Y-147373389D01*
X163026269Y-147153682D01*
X163026264Y-147153668D01*
X162930136Y-146947521D01*
X162930132Y-146947513D01*
X162879025Y-146874526D01*
X162282962Y-147470589D01*
X162265925Y-147407007D01*
X162200099Y-147292993D01*
X162107007Y-147199901D01*
X161992993Y-147134075D01*
X161929410Y-147117037D01*
X162525472Y-146520974D01*
X162452478Y-146469863D01*
X162246331Y-146373735D01*
X162246317Y-146373730D01*
X162026610Y-146314860D01*
X162026599Y-146314858D01*
X161800002Y-146295034D01*
X161799998Y-146295034D01*
X161573400Y-146314858D01*
X161573389Y-146314860D01*
X161353682Y-146373730D01*
X161353673Y-146373734D01*
X161147516Y-146469866D01*
X161147512Y-146469868D01*
X161074526Y-146520973D01*
X161074526Y-146520974D01*
X161670590Y-147117037D01*
X161607007Y-147134075D01*
X161492993Y-147199901D01*
X161399901Y-147292993D01*
X161334075Y-147407007D01*
X161317037Y-147470589D01*
X160720974Y-146874526D01*
X160720973Y-146874526D01*
X160669868Y-146947512D01*
X160669866Y-146947516D01*
X160573734Y-147153673D01*
X160573730Y-147153682D01*
X160514860Y-147373389D01*
X160514858Y-147373399D01*
X160503205Y-147506598D01*
X160477752Y-147571666D01*
X160437967Y-147600474D01*
X160320299Y-147600474D01*
X160321538Y-147599597D01*
X160290615Y-147582069D01*
X160258108Y-147520222D01*
X160256274Y-147507943D01*
X160246024Y-147403871D01*
X160246024Y-147403870D01*
X160246024Y-147403868D01*
X160188814Y-147215273D01*
X160188811Y-147215269D01*
X160188811Y-147215266D01*
X160095913Y-147041467D01*
X160095909Y-147041460D01*
X159970883Y-146889116D01*
X159818539Y-146764090D01*
X159818532Y-146764086D01*
X159644733Y-146671188D01*
X159644727Y-146671186D01*
X159456132Y-146613976D01*
X159456129Y-146613975D01*
X159260000Y-146594659D01*
X159063869Y-146613975D01*
X158882128Y-146669106D01*
X158812261Y-146669729D01*
X158758452Y-146638126D01*
X158257864Y-146137537D01*
X158257863Y-146137536D01*
X158257862Y-146137535D01*
X158213834Y-146112115D01*
X158183640Y-146094682D01*
X158142246Y-146083591D01*
X158100853Y-146072500D01*
X152546147Y-146072500D01*
X152463362Y-146094682D01*
X152463359Y-146094683D01*
X152399310Y-146131662D01*
X152399305Y-146131665D01*
X152397183Y-146132890D01*
X152335188Y-146149500D01*
X147555210Y-146149500D01*
X147488171Y-146129815D01*
X147442416Y-146077011D01*
X147432472Y-146007853D01*
X147459357Y-145946835D01*
X147526661Y-145864825D01*
X147526665Y-145864818D01*
X147533292Y-145852421D01*
X147545862Y-145828903D01*
X147604582Y-145719047D01*
X147653544Y-145669203D01*
X147713940Y-145653500D01*
X148394512Y-145653500D01*
X148394540Y-145653501D01*
X148403158Y-145653500D01*
X148403163Y-145653502D01*
X148446015Y-145653500D01*
X148446017Y-145653500D01*
X148488866Y-145653500D01*
X148488906Y-145653494D01*
X148489615Y-145653298D01*
X148526726Y-145643351D01*
X148526736Y-145643351D01*
X148526736Y-145643349D01*
X148563432Y-145633517D01*
X148567380Y-145632745D01*
X148567941Y-145632557D01*
X148571872Y-145631371D01*
X148574400Y-145630029D01*
X148578063Y-145627609D01*
X148606749Y-145611046D01*
X148642705Y-145590287D01*
X148646268Y-145588370D01*
X148646356Y-145588301D01*
X148649805Y-145584523D01*
X148676366Y-145557961D01*
X148706465Y-145527862D01*
X148706466Y-145527860D01*
X148713512Y-145520814D01*
X148713530Y-145520791D01*
X149083037Y-145151247D01*
X167245500Y-145151247D01*
X167245500Y-146698752D01*
X167257131Y-146757229D01*
X167257132Y-146757230D01*
X167301447Y-146823552D01*
X167367769Y-146867867D01*
X167367770Y-146867868D01*
X167426247Y-146879499D01*
X167426250Y-146879500D01*
X167426252Y-146879500D01*
X168973750Y-146879500D01*
X168973751Y-146879499D01*
X168988568Y-146876552D01*
X169032229Y-146867868D01*
X169032229Y-146867867D01*
X169032231Y-146867867D01*
X169098552Y-146823552D01*
X169142867Y-146757231D01*
X169142867Y-146757229D01*
X169142868Y-146757229D01*
X169153146Y-146705553D01*
X169154500Y-146698748D01*
X169154500Y-145151252D01*
X169154500Y-145151249D01*
X169154499Y-145151247D01*
X169142868Y-145092770D01*
X169142867Y-145092769D01*
X169098552Y-145026447D01*
X169032230Y-144982132D01*
X169032229Y-144982131D01*
X168973752Y-144970500D01*
X168973748Y-144970500D01*
X167426252Y-144970500D01*
X167426247Y-144970500D01*
X167367770Y-144982131D01*
X167367769Y-144982132D01*
X167301447Y-145026447D01*
X167257132Y-145092769D01*
X167257131Y-145092770D01*
X167245500Y-145151247D01*
X149083037Y-145151247D01*
X158540264Y-135693081D01*
X158601585Y-135659594D01*
X158671277Y-135664575D01*
X158727212Y-135706444D01*
X158737307Y-135722306D01*
X158794086Y-135828532D01*
X158794090Y-135828539D01*
X158919116Y-135980883D01*
X159071460Y-136105909D01*
X159071467Y-136105913D01*
X159245266Y-136198811D01*
X159245269Y-136198811D01*
X159245273Y-136198814D01*
X159433868Y-136256024D01*
X159630000Y-136275341D01*
X159826132Y-136256024D01*
X160014727Y-136198814D01*
X160188538Y-136105910D01*
X160340883Y-135980883D01*
X160465910Y-135828538D01*
X160558814Y-135654727D01*
X160616024Y-135466132D01*
X160635341Y-135270000D01*
X160616024Y-135073868D01*
X160558814Y-134885273D01*
X160558811Y-134885269D01*
X160558811Y-134885266D01*
X160465913Y-134711467D01*
X160465909Y-134711460D01*
X160340883Y-134559116D01*
X160296087Y-134522353D01*
X160256753Y-134464607D01*
X160254882Y-134394762D01*
X160291070Y-134334994D01*
X160353826Y-134304279D01*
X160374752Y-134302500D01*
X166990061Y-134302500D01*
X166990275Y-134302513D01*
X166998229Y-134302511D01*
X166998233Y-134302512D01*
X167042949Y-134302500D01*
X167083853Y-134302500D01*
X167083857Y-134302500D01*
X167083940Y-134302489D01*
X167099621Y-134298282D01*
X167126616Y-134291041D01*
X167126654Y-134291041D01*
X167126652Y-134291032D01*
X167165911Y-134280513D01*
X167166691Y-134280313D01*
X167166704Y-134280307D01*
X167167560Y-134279799D01*
X167203857Y-134258829D01*
X167240862Y-134237465D01*
X167240861Y-134237465D01*
X167240894Y-134237447D01*
X167240927Y-134237413D01*
X167240930Y-134237412D01*
X167269358Y-134208967D01*
X167269381Y-134208946D01*
X167307379Y-134170948D01*
X167307524Y-134170781D01*
X169151797Y-132325536D01*
X169213110Y-132292036D01*
X169282803Y-132297002D01*
X169338748Y-132338858D01*
X169363182Y-132404316D01*
X169363500Y-132413195D01*
X169363500Y-137540033D01*
X169343815Y-137607072D01*
X169291011Y-137652827D01*
X169275498Y-137658693D01*
X169249881Y-137666464D01*
X169082681Y-137755834D01*
X169082674Y-137755838D01*
X168936116Y-137876116D01*
X168815838Y-138022674D01*
X168815834Y-138022681D01*
X168726466Y-138189877D01*
X168726465Y-138189880D01*
X168726464Y-138189882D01*
X168726463Y-138189885D01*
X168721889Y-138204964D01*
X168671426Y-138371318D01*
X168652843Y-138560000D01*
X168671426Y-138748681D01*
X168689772Y-138809160D01*
X168726463Y-138930115D01*
X168726464Y-138930118D01*
X168726465Y-138930119D01*
X168726466Y-138930122D01*
X168815834Y-139097318D01*
X168815835Y-139097319D01*
X168815838Y-139097324D01*
X168835133Y-139120835D01*
X168862446Y-139185144D01*
X168850655Y-139254012D01*
X168803504Y-139305572D01*
X168739280Y-139323500D01*
X167842189Y-139323500D01*
X167775150Y-139303815D01*
X167754508Y-139287181D01*
X165662864Y-137195537D01*
X165662862Y-137195535D01*
X165625750Y-137174108D01*
X165588640Y-137152682D01*
X165547246Y-137141591D01*
X165505853Y-137130500D01*
X165505852Y-137130500D01*
X161160894Y-137130500D01*
X161159799Y-137130429D01*
X161152393Y-137130439D01*
X161152392Y-137130439D01*
X161109798Y-137130499D01*
X161109537Y-137130500D01*
X161067137Y-137130500D01*
X161066745Y-137130552D01*
X161066696Y-137130558D01*
X161025483Y-137141663D01*
X161004133Y-137147384D01*
X160984349Y-137152685D01*
X160984317Y-137152699D01*
X160983941Y-137152854D01*
X160947069Y-137174211D01*
X160946924Y-137174295D01*
X160910124Y-137195543D01*
X160909780Y-137195807D01*
X160879899Y-137225772D01*
X160879780Y-137225892D01*
X160844353Y-137261320D01*
X160843637Y-137262137D01*
X160719672Y-137386454D01*
X160658397Y-137420026D01*
X160588698Y-137415140D01*
X160532705Y-137373348D01*
X160522509Y-137357350D01*
X160465913Y-137251467D01*
X160465909Y-137251460D01*
X160340883Y-137099116D01*
X160188539Y-136974090D01*
X160188532Y-136974086D01*
X160014733Y-136881188D01*
X160014727Y-136881186D01*
X159826132Y-136823976D01*
X159826129Y-136823975D01*
X159630000Y-136804659D01*
X159433870Y-136823975D01*
X159245266Y-136881188D01*
X159071467Y-136974086D01*
X159071460Y-136974090D01*
X158919116Y-137099116D01*
X158794090Y-137251460D01*
X158794086Y-137251467D01*
X158701188Y-137425266D01*
X158643975Y-137613870D01*
X158624659Y-137810000D01*
X158643975Y-138006129D01*
X158701188Y-138194733D01*
X158794086Y-138368532D01*
X158794090Y-138368539D01*
X158919116Y-138520883D01*
X159071460Y-138645909D01*
X159071467Y-138645913D01*
X159245266Y-138738811D01*
X159245269Y-138738811D01*
X159245273Y-138738814D01*
X159433868Y-138796024D01*
X159630000Y-138815341D01*
X159826132Y-138796024D01*
X160014727Y-138738814D01*
X160188538Y-138645910D01*
X160340883Y-138520883D01*
X160465910Y-138368538D01*
X160465910Y-138368536D01*
X160465914Y-138368532D01*
X160555437Y-138201047D01*
X160604399Y-138151202D01*
X160664795Y-138135500D01*
X160706106Y-138135500D01*
X160707200Y-138135570D01*
X160714603Y-138135559D01*
X160714608Y-138135561D01*
X160757369Y-138135500D01*
X160757462Y-138135500D01*
X160799853Y-138135500D01*
X160800312Y-138135439D01*
X160800313Y-138135439D01*
X160841516Y-138124336D01*
X160882638Y-138113318D01*
X160882640Y-138113316D01*
X160883064Y-138113140D01*
X160883068Y-138113140D01*
X160883071Y-138113138D01*
X160883074Y-138113137D01*
X160919922Y-138091793D01*
X160920075Y-138091704D01*
X160941401Y-138079391D01*
X160956862Y-138070465D01*
X160956869Y-138070457D01*
X160957043Y-138070325D01*
X160957175Y-138070223D01*
X160957222Y-138070186D01*
X160957230Y-138070182D01*
X160957346Y-138070066D01*
X160987094Y-138040233D01*
X160987219Y-138040108D01*
X161004653Y-138022674D01*
X161017465Y-138009862D01*
X161017466Y-138009860D01*
X161022758Y-138004568D01*
X161023470Y-138003752D01*
X161208757Y-137817940D01*
X161270032Y-137784371D01*
X161296561Y-137781500D01*
X163671590Y-137781500D01*
X163738629Y-137801185D01*
X163784384Y-137853989D01*
X163794328Y-137923147D01*
X163767443Y-137984165D01*
X163735838Y-138022674D01*
X163735834Y-138022681D01*
X163646466Y-138189877D01*
X163646465Y-138189880D01*
X163646464Y-138189882D01*
X163646463Y-138189885D01*
X163641889Y-138204964D01*
X163591426Y-138371318D01*
X163572843Y-138560000D01*
X163591426Y-138748681D01*
X163609772Y-138809160D01*
X163646463Y-138930115D01*
X163646464Y-138930118D01*
X163646465Y-138930119D01*
X163646466Y-138930122D01*
X163735834Y-139097318D01*
X163735838Y-139097325D01*
X163856116Y-139243883D01*
X164002674Y-139364161D01*
X164002681Y-139364165D01*
X164169877Y-139453533D01*
X164169878Y-139453533D01*
X164169885Y-139453537D01*
X164351317Y-139508573D01*
X164351316Y-139508573D01*
X164368233Y-139510239D01*
X164540000Y-139527157D01*
X164728683Y-139508573D01*
X164887404Y-139460425D01*
X164957270Y-139459803D01*
X165011079Y-139491406D01*
X170338181Y-144818507D01*
X170371666Y-144879830D01*
X170374500Y-144906188D01*
X170374500Y-144942364D01*
X170354815Y-145009403D01*
X170308954Y-145051722D01*
X170167145Y-145127521D01*
X170167142Y-145127523D01*
X170021800Y-145246800D01*
X169902523Y-145392142D01*
X169902518Y-145392148D01*
X169813892Y-145557958D01*
X169759311Y-145737882D01*
X169759310Y-145737884D01*
X169740882Y-145925000D01*
X169759310Y-146112115D01*
X169759311Y-146112117D01*
X169813891Y-146292040D01*
X169902518Y-146457851D01*
X169902523Y-146457857D01*
X170021800Y-146603199D01*
X170125487Y-146688291D01*
X170162249Y-146718461D01*
X170167142Y-146722476D01*
X170167148Y-146722481D01*
X170313055Y-146800469D01*
X170332961Y-146811109D01*
X170512882Y-146865688D01*
X170512884Y-146865689D01*
X170529660Y-146867341D01*
X170700000Y-146884118D01*
X170887115Y-146865689D01*
X171067039Y-146811109D01*
X171155005Y-146764090D01*
X171232851Y-146722481D01*
X171232853Y-146722478D01*
X171232857Y-146722477D01*
X171378199Y-146603199D01*
X171497477Y-146457857D01*
X171497478Y-146457853D01*
X171497481Y-146457851D01*
X171586108Y-146292040D01*
X171586109Y-146292039D01*
X171640689Y-146112115D01*
X171659118Y-145925000D01*
X172240882Y-145925000D01*
X172259310Y-146112115D01*
X172259311Y-146112117D01*
X172313891Y-146292040D01*
X172402518Y-146457851D01*
X172402523Y-146457857D01*
X172521800Y-146603199D01*
X172625487Y-146688291D01*
X172662249Y-146718461D01*
X172667142Y-146722476D01*
X172667148Y-146722481D01*
X172813055Y-146800469D01*
X172832961Y-146811109D01*
X173012882Y-146865688D01*
X173012884Y-146865689D01*
X173029660Y-146867341D01*
X173200000Y-146884118D01*
X173387115Y-146865689D01*
X173567039Y-146811109D01*
X173655005Y-146764090D01*
X173732851Y-146722481D01*
X173732853Y-146722478D01*
X173732857Y-146722477D01*
X173878199Y-146603199D01*
X173997477Y-146457857D01*
X173997478Y-146457853D01*
X173997481Y-146457851D01*
X174086108Y-146292040D01*
X174086109Y-146292039D01*
X174140689Y-146112115D01*
X174159118Y-145925000D01*
X174140689Y-145737885D01*
X174086109Y-145557961D01*
X174086108Y-145557960D01*
X174086108Y-145557958D01*
X173997481Y-145392148D01*
X173997476Y-145392142D01*
X173986811Y-145379147D01*
X173976086Y-145366078D01*
X173878199Y-145246800D01*
X173732857Y-145127523D01*
X173732854Y-145127521D01*
X173591046Y-145051722D01*
X173541202Y-145002759D01*
X173525500Y-144942364D01*
X173525500Y-139382770D01*
X173545185Y-139315731D01*
X173597989Y-139269976D01*
X173644478Y-139261968D01*
X174319000Y-138587446D01*
X174319000Y-138610160D01*
X174344964Y-138707061D01*
X174395124Y-138793940D01*
X174466060Y-138864876D01*
X174552939Y-138915036D01*
X174649840Y-138941000D01*
X174672553Y-138941000D01*
X174001810Y-139611740D01*
X174066590Y-139657099D01*
X174066592Y-139657100D01*
X174266715Y-139750419D01*
X174266729Y-139750424D01*
X174480013Y-139807573D01*
X174480023Y-139807575D01*
X174699999Y-139826821D01*
X174700001Y-139826821D01*
X174919976Y-139807575D01*
X174919986Y-139807573D01*
X175133270Y-139750424D01*
X175133284Y-139750419D01*
X175333407Y-139657100D01*
X175333417Y-139657094D01*
X175398188Y-139611741D01*
X174727448Y-138941000D01*
X174750160Y-138941000D01*
X174847061Y-138915036D01*
X174933940Y-138864876D01*
X175004876Y-138793940D01*
X175055036Y-138707061D01*
X175081000Y-138610160D01*
X175081000Y-138587447D01*
X175751741Y-139258188D01*
X175797094Y-139193417D01*
X175797100Y-139193407D01*
X175890419Y-138993284D01*
X175890424Y-138993270D01*
X175947573Y-138779986D01*
X175947575Y-138779976D01*
X175966821Y-138560000D01*
X175966821Y-138559999D01*
X175947575Y-138340023D01*
X175947573Y-138340013D01*
X175890424Y-138126729D01*
X175890420Y-138126720D01*
X175797096Y-137926586D01*
X175751741Y-137861811D01*
X175751740Y-137861810D01*
X175081000Y-138532551D01*
X175081000Y-138509840D01*
X175055036Y-138412939D01*
X175004876Y-138326060D01*
X174933940Y-138255124D01*
X174847061Y-138204964D01*
X174750160Y-138179000D01*
X174727448Y-138179000D01*
X175398188Y-137508259D01*
X175398187Y-137508258D01*
X175333411Y-137462901D01*
X175333405Y-137462898D01*
X175133284Y-137369580D01*
X175133270Y-137369575D01*
X174919986Y-137312426D01*
X174919976Y-137312424D01*
X174700001Y-137293179D01*
X174699999Y-137293179D01*
X174480023Y-137312424D01*
X174480013Y-137312426D01*
X174266729Y-137369575D01*
X174266720Y-137369579D01*
X174066590Y-137462901D01*
X174001811Y-137508258D01*
X174672553Y-138179000D01*
X174649840Y-138179000D01*
X174552939Y-138204964D01*
X174466060Y-138255124D01*
X174395124Y-138326060D01*
X174344964Y-138412939D01*
X174319000Y-138509840D01*
X174319000Y-138532553D01*
X173643906Y-137857459D01*
X173591807Y-137846989D01*
X173541624Y-137798373D01*
X173525500Y-137737228D01*
X173525500Y-104686188D01*
X173545185Y-104619149D01*
X173561815Y-104598511D01*
X174228922Y-103931403D01*
X174290243Y-103897920D01*
X174352591Y-103900424D01*
X174511317Y-103948573D01*
X174700000Y-103967157D01*
X174888683Y-103948573D01*
X175070115Y-103893537D01*
X175237324Y-103804162D01*
X175383883Y-103683883D01*
X175504162Y-103537324D01*
X175593537Y-103370115D01*
X175648573Y-103188683D01*
X175667157Y-103000000D01*
X175648573Y-102811317D01*
X175593537Y-102629885D01*
X175532792Y-102516239D01*
X175504165Y-102462681D01*
X175504161Y-102462674D01*
X175383883Y-102316116D01*
X175237325Y-102195838D01*
X175237318Y-102195834D01*
X175070122Y-102106466D01*
X175070119Y-102106465D01*
X175070118Y-102106464D01*
X175070115Y-102106463D01*
X174888683Y-102051427D01*
X174888681Y-102051426D01*
X174888683Y-102051426D01*
X174700000Y-102032843D01*
X174511318Y-102051426D01*
X174404194Y-102083921D01*
X174329885Y-102106463D01*
X174329882Y-102106464D01*
X174329880Y-102106465D01*
X174329877Y-102106466D01*
X174162681Y-102195834D01*
X174162674Y-102195838D01*
X174016116Y-102316116D01*
X173895838Y-102462674D01*
X173895834Y-102462681D01*
X173806466Y-102629877D01*
X173806465Y-102629880D01*
X173806464Y-102629882D01*
X173806463Y-102629885D01*
X173793384Y-102673002D01*
X173751426Y-102811318D01*
X173732843Y-103000000D01*
X173751426Y-103188681D01*
X173799573Y-103347402D01*
X173800196Y-103417269D01*
X173768593Y-103471078D01*
X172939537Y-104300135D01*
X172939533Y-104300141D01*
X172896681Y-104374361D01*
X172896682Y-104374362D01*
X172874500Y-104457147D01*
X172874500Y-144942364D01*
X172854815Y-145009403D01*
X172808954Y-145051722D01*
X172667145Y-145127521D01*
X172667142Y-145127523D01*
X172521800Y-145246800D01*
X172402523Y-145392142D01*
X172402518Y-145392148D01*
X172313892Y-145557958D01*
X172259311Y-145737882D01*
X172259310Y-145737884D01*
X172240882Y-145925000D01*
X171659118Y-145925000D01*
X171640689Y-145737885D01*
X171586109Y-145557961D01*
X171586108Y-145557960D01*
X171586108Y-145557958D01*
X171497481Y-145392148D01*
X171497476Y-145392142D01*
X171486811Y-145379147D01*
X171476086Y-145366078D01*
X171378199Y-145246800D01*
X171232857Y-145127523D01*
X171232854Y-145127521D01*
X171091046Y-145051722D01*
X171041202Y-145002759D01*
X171025500Y-144942364D01*
X171025500Y-144772855D01*
X171025501Y-144772842D01*
X171025501Y-144677149D01*
X171025501Y-144677148D01*
X171003318Y-144594362D01*
X170987636Y-144567199D01*
X170960469Y-144520144D01*
X170960466Y-144520140D01*
X170960465Y-144520138D01*
X170899862Y-144459535D01*
X170899861Y-144459534D01*
X170895531Y-144455204D01*
X170895520Y-144455194D01*
X165471406Y-139031079D01*
X165437921Y-138969756D01*
X165440425Y-138907404D01*
X165488573Y-138748683D01*
X165507157Y-138560000D01*
X165488573Y-138371317D01*
X165445290Y-138228633D01*
X165444668Y-138158769D01*
X165481916Y-138099657D01*
X165545210Y-138070066D01*
X165614455Y-138079391D01*
X165651633Y-138104960D01*
X167395534Y-139848861D01*
X167395535Y-139848862D01*
X167456138Y-139909465D01*
X167456140Y-139909466D01*
X167456144Y-139909469D01*
X167530355Y-139952314D01*
X167530362Y-139952318D01*
X167613147Y-139974500D01*
X167613149Y-139974500D01*
X170123851Y-139974500D01*
X170123853Y-139974500D01*
X170206639Y-139952318D01*
X170280862Y-139909465D01*
X171371465Y-138818862D01*
X171414318Y-138744639D01*
X171436500Y-138661853D01*
X171436500Y-138576147D01*
X171436500Y-101848172D01*
X171456185Y-101781133D01*
X171472810Y-101760499D01*
X173900292Y-99332734D01*
X173930544Y-99302482D01*
X173934313Y-99299041D01*
X173934378Y-99298957D01*
X173936298Y-99295389D01*
X173944891Y-99280503D01*
X173953921Y-99264862D01*
X173953925Y-99264855D01*
X173974343Y-99229491D01*
X173977103Y-99225202D01*
X173977365Y-99224700D01*
X173978342Y-99220523D01*
X173987116Y-99187768D01*
X173987118Y-99187763D01*
X173989354Y-99179417D01*
X173999336Y-99142162D01*
X173999497Y-99141582D01*
X173999502Y-99141545D01*
X173999500Y-99107254D01*
X173999500Y-87853492D01*
X173999501Y-87853463D01*
X173999500Y-87844843D01*
X173999502Y-87844840D01*
X173999500Y-87787703D01*
X173999500Y-87759147D01*
X173999500Y-87759137D01*
X173986329Y-87709993D01*
X173986327Y-87709986D01*
X173977561Y-87677270D01*
X173977323Y-87676352D01*
X173976908Y-87675648D01*
X173954621Y-87637050D01*
X173936297Y-87605311D01*
X173934829Y-87602582D01*
X173934591Y-87602262D01*
X173909142Y-87576815D01*
X173909142Y-87576814D01*
X173909139Y-87576812D01*
X173868036Y-87535709D01*
X173868012Y-87535689D01*
X171377820Y-85045693D01*
X171377820Y-85045692D01*
X171377816Y-85045689D01*
X171339858Y-85007731D01*
X171299048Y-84984171D01*
X171299047Y-84984170D01*
X171265636Y-84964881D01*
X171265622Y-84964875D01*
X171217569Y-84952002D01*
X171217563Y-84952000D01*
X171183752Y-84942940D01*
X171182899Y-84942704D01*
X171182855Y-84942698D01*
X171182840Y-84942698D01*
X171125703Y-84942700D01*
X162005373Y-84942700D01*
X161938334Y-84923015D01*
X161892579Y-84870211D01*
X161882635Y-84801053D01*
X161890810Y-84771251D01*
X161921044Y-84698262D01*
X161941682Y-84541500D01*
X161941681Y-84541495D01*
X161921044Y-84384739D01*
X161921044Y-84384738D01*
X161860536Y-84238659D01*
X161764282Y-84113218D01*
X161638841Y-84016964D01*
X161492762Y-83956456D01*
X161492760Y-83956455D01*
X161406315Y-83945075D01*
X161342418Y-83916808D01*
X161310880Y-83868995D01*
X171899499Y-83868995D01*
X171926418Y-84004322D01*
X171926421Y-84004332D01*
X171979221Y-84131804D01*
X171979228Y-84131817D01*
X172055885Y-84246541D01*
X172055888Y-84246545D01*
X172153454Y-84344111D01*
X172153458Y-84344114D01*
X172268182Y-84420771D01*
X172268195Y-84420778D01*
X172395602Y-84473551D01*
X172395672Y-84473580D01*
X172395676Y-84473580D01*
X172395677Y-84473581D01*
X172531004Y-84500500D01*
X172531007Y-84500500D01*
X172668995Y-84500500D01*
X172760041Y-84482389D01*
X172804328Y-84473580D01*
X172931811Y-84420775D01*
X173046542Y-84344114D01*
X173144114Y-84246542D01*
X173220775Y-84131811D01*
X173221913Y-84129065D01*
X173273578Y-84004332D01*
X173273580Y-84004328D01*
X173300500Y-83868993D01*
X173300500Y-83731007D01*
X173300500Y-83731004D01*
X173273581Y-83595677D01*
X173273580Y-83595676D01*
X173273580Y-83595672D01*
X173231695Y-83494552D01*
X173220778Y-83468195D01*
X173220771Y-83468182D01*
X173144114Y-83353458D01*
X173144111Y-83353454D01*
X173046545Y-83255888D01*
X173046541Y-83255885D01*
X172931817Y-83179228D01*
X172931804Y-83179221D01*
X172804332Y-83126421D01*
X172804322Y-83126418D01*
X172668995Y-83099500D01*
X172668993Y-83099500D01*
X172531007Y-83099500D01*
X172531005Y-83099500D01*
X172395677Y-83126418D01*
X172395667Y-83126421D01*
X172268195Y-83179221D01*
X172268182Y-83179228D01*
X172153458Y-83255885D01*
X172153454Y-83255888D01*
X172055888Y-83353454D01*
X172055885Y-83353458D01*
X171979228Y-83468182D01*
X171979221Y-83468195D01*
X171926421Y-83595667D01*
X171926418Y-83595677D01*
X171899500Y-83731004D01*
X171899500Y-83731007D01*
X171899500Y-83868993D01*
X171899500Y-83868995D01*
X171899499Y-83868995D01*
X161310880Y-83868995D01*
X161303947Y-83858484D01*
X161298500Y-83822136D01*
X161298500Y-83674500D01*
X161318185Y-83607461D01*
X161370989Y-83561706D01*
X161422500Y-83550500D01*
X162919750Y-83550500D01*
X162919751Y-83550499D01*
X162934568Y-83547552D01*
X162978229Y-83538868D01*
X162978229Y-83538867D01*
X162978231Y-83538867D01*
X163044552Y-83494552D01*
X163088867Y-83428231D01*
X163088867Y-83428229D01*
X163088868Y-83428229D01*
X163100499Y-83369752D01*
X163100500Y-83369750D01*
X163100500Y-82630249D01*
X163100499Y-82630247D01*
X163088868Y-82571770D01*
X163088867Y-82571768D01*
X163053535Y-82518892D01*
X163032656Y-82452215D01*
X163051140Y-82384835D01*
X163053535Y-82381108D01*
X163088867Y-82328231D01*
X163088868Y-82328229D01*
X163100499Y-82269752D01*
X163100500Y-82269750D01*
X163100500Y-81883051D01*
X163120185Y-81816012D01*
X163172989Y-81770257D01*
X163242147Y-81760313D01*
X163305703Y-81789338D01*
X163339061Y-81835599D01*
X163372462Y-81916238D01*
X163372463Y-81916239D01*
X163372464Y-81916241D01*
X163468718Y-82041682D01*
X163594159Y-82137936D01*
X163740238Y-82198444D01*
X163818619Y-82208763D01*
X163896999Y-82219082D01*
X163897000Y-82219082D01*
X163897001Y-82219082D01*
X163949254Y-82212202D01*
X164053762Y-82198444D01*
X164199841Y-82137936D01*
X164325282Y-82041682D01*
X164421536Y-81916241D01*
X164482044Y-81770162D01*
X164495802Y-81665654D01*
X164502682Y-81613401D01*
X164502682Y-81613398D01*
X164482044Y-81456639D01*
X164482044Y-81456638D01*
X164421536Y-81310559D01*
X164325282Y-81185118D01*
X164199841Y-81088864D01*
X164053762Y-81028356D01*
X164053760Y-81028355D01*
X163897001Y-81007718D01*
X163896999Y-81007718D01*
X163829340Y-81016625D01*
X163760304Y-81005859D01*
X163725454Y-80981347D01*
X163588799Y-80844630D01*
X163555328Y-80783300D01*
X163552604Y-80757945D01*
X163552500Y-80757154D01*
X163552500Y-80757147D01*
X163530318Y-80674362D01*
X163529236Y-80672488D01*
X163487469Y-80600144D01*
X163487463Y-80600136D01*
X163426863Y-80539536D01*
X163426855Y-80539530D01*
X163352644Y-80496685D01*
X163352640Y-80496683D01*
X163352638Y-80496682D01*
X163269853Y-80474500D01*
X163269852Y-80474500D01*
X163211066Y-80474500D01*
X163144027Y-80454815D01*
X163098272Y-80402011D01*
X163089449Y-80374691D01*
X163088868Y-80371770D01*
X163088867Y-80371768D01*
X163069572Y-80342892D01*
X163048693Y-80276215D01*
X163067177Y-80208834D01*
X163119155Y-80162144D01*
X163172673Y-80150000D01*
X172004710Y-80150000D01*
X172004710Y-78148630D01*
X163500858Y-78148630D01*
X163433819Y-78128945D01*
X163388064Y-78076141D01*
X163378120Y-78006983D01*
X163384676Y-77981296D01*
X163393597Y-77957376D01*
X163393598Y-77957372D01*
X163399999Y-77897844D01*
X163400000Y-77897827D01*
X163400000Y-77750000D01*
X160800000Y-77750000D01*
X160800000Y-77897844D01*
X160806401Y-77957372D01*
X160806403Y-77957379D01*
X160856645Y-78092086D01*
X160856647Y-78092089D01*
X160877057Y-78119353D01*
X160901475Y-78184817D01*
X160886624Y-78253090D01*
X160839792Y-78301052D01*
X160773138Y-78339534D01*
X160712536Y-78400136D01*
X160712530Y-78400144D01*
X160669685Y-78474355D01*
X160669682Y-78474362D01*
X160647500Y-78557147D01*
X160647500Y-78593941D01*
X160627815Y-78660980D01*
X160575011Y-78706735D01*
X160539689Y-78716880D01*
X160529238Y-78718256D01*
X160383160Y-78778763D01*
X160257718Y-78875018D01*
X160161463Y-79000460D01*
X160100956Y-79146537D01*
X160100955Y-79146539D01*
X160080318Y-79303298D01*
X160080318Y-79303301D01*
X160100955Y-79460060D01*
X160100956Y-79460062D01*
X160134626Y-79541348D01*
X160142095Y-79610816D01*
X160110820Y-79673296D01*
X160050731Y-79708948D01*
X160020065Y-79712800D01*
X157774793Y-79712800D01*
X157727176Y-79712794D01*
X157727153Y-79712797D01*
X157689267Y-79722949D01*
X157689260Y-79722951D01*
X157644373Y-79734974D01*
X157608225Y-79755845D01*
X157608212Y-79755853D01*
X157585987Y-79768681D01*
X157518085Y-79785145D01*
X157452061Y-79762285D01*
X157408877Y-79707358D01*
X157406256Y-79693756D01*
X157400000Y-79687500D01*
X156250000Y-79687500D01*
X156250000Y-80599999D01*
X156448412Y-80599999D01*
X156515451Y-80619684D01*
X156561206Y-80672488D01*
X156571150Y-80741646D01*
X156542125Y-80805202D01*
X156536085Y-80811689D01*
X156331681Y-81016053D01*
X156270354Y-81049532D01*
X156200663Y-81044541D01*
X156156333Y-81016050D01*
X155786325Y-80646092D01*
X155752836Y-80584771D01*
X155750000Y-80558405D01*
X155750000Y-79187500D01*
X156250000Y-79187500D01*
X157399999Y-79187500D01*
X157399999Y-78975028D01*
X157399998Y-78975013D01*
X157389505Y-78872302D01*
X157334358Y-78705880D01*
X157334356Y-78705875D01*
X157242315Y-78556654D01*
X157118345Y-78432684D01*
X156969124Y-78340643D01*
X156969119Y-78340641D01*
X156802697Y-78285494D01*
X156802690Y-78285493D01*
X156699986Y-78275000D01*
X156250000Y-78275000D01*
X156250000Y-79187500D01*
X155750000Y-79187500D01*
X155750000Y-78275000D01*
X155300028Y-78275000D01*
X155300008Y-78275002D01*
X155229100Y-78282245D01*
X155160408Y-78269475D01*
X155109524Y-78221594D01*
X155092500Y-78158887D01*
X155092500Y-75872937D01*
X155112185Y-75805898D01*
X155128802Y-75785273D01*
X155141652Y-75772418D01*
X155256208Y-75657817D01*
X155256226Y-75657808D01*
X155256222Y-75657804D01*
X155270079Y-75643947D01*
X155286845Y-75627181D01*
X155287483Y-75626558D01*
X155287793Y-75626009D01*
X155309188Y-75588935D01*
X155329859Y-75553132D01*
X155330349Y-75552305D01*
X155330350Y-75552301D01*
X155330620Y-75551240D01*
X155335568Y-75532760D01*
X155341323Y-75511268D01*
X155341328Y-75511250D01*
X155348019Y-75486274D01*
X155352500Y-75469553D01*
X155352500Y-75469546D01*
X155352508Y-75469488D01*
X155352501Y-75434240D01*
X156446711Y-75434240D01*
X156534985Y-75488897D01*
X156725078Y-75562539D01*
X156925472Y-75600000D01*
X157129328Y-75600000D01*
X157329722Y-75562539D01*
X157519812Y-75488899D01*
X157519816Y-75488897D01*
X157608086Y-75434241D01*
X157608086Y-75434240D01*
X157027401Y-74853553D01*
X157027400Y-74853553D01*
X156446711Y-75434240D01*
X155352501Y-75434240D01*
X155352500Y-75426336D01*
X155352500Y-75424500D01*
X155372185Y-75357461D01*
X155424989Y-75311706D01*
X155476500Y-75300500D01*
X155647150Y-75300500D01*
X155647151Y-75300499D01*
X155661968Y-75297552D01*
X155705629Y-75288868D01*
X155705629Y-75288867D01*
X155705631Y-75288867D01*
X155771952Y-75244552D01*
X155816267Y-75178231D01*
X155816267Y-75178229D01*
X155816268Y-75178229D01*
X155827899Y-75119752D01*
X155827900Y-75119750D01*
X155827900Y-75086111D01*
X155847585Y-75019072D01*
X155900389Y-74973317D01*
X155969547Y-74963373D01*
X156033103Y-74992398D01*
X156062901Y-75030840D01*
X156088152Y-75081553D01*
X156089933Y-75083911D01*
X156673846Y-74500000D01*
X156089933Y-73916087D01*
X156088155Y-73918442D01*
X156088154Y-73918444D01*
X156062900Y-73969161D01*
X156015397Y-74020398D01*
X155947734Y-74037819D01*
X155881393Y-74015893D01*
X155837439Y-73961581D01*
X155827900Y-73913889D01*
X155827900Y-73880249D01*
X155827899Y-73880247D01*
X155816268Y-73821770D01*
X155816267Y-73821769D01*
X155771952Y-73755447D01*
X155705630Y-73711132D01*
X155705629Y-73711131D01*
X155647152Y-73699500D01*
X155647148Y-73699500D01*
X154407652Y-73699500D01*
X154407647Y-73699500D01*
X154349170Y-73711131D01*
X154349169Y-73711132D01*
X154282847Y-73755447D01*
X154238532Y-73821769D01*
X154238531Y-73821770D01*
X154226900Y-73880247D01*
X154226900Y-75119752D01*
X154238531Y-75178229D01*
X154238532Y-75178230D01*
X154282847Y-75244552D01*
X154349169Y-75288867D01*
X154349170Y-75288868D01*
X154406858Y-75300342D01*
X154407652Y-75300500D01*
X154407662Y-75300500D01*
X154411649Y-75300893D01*
X154413615Y-75301686D01*
X154413626Y-75301689D01*
X154413625Y-75301690D01*
X154476439Y-75327047D01*
X154516803Y-75384078D01*
X154519927Y-75453878D01*
X154506907Y-75486274D01*
X154485496Y-75523377D01*
X154485484Y-75523399D01*
X154463666Y-75561188D01*
X154456767Y-75586955D01*
X154453275Y-75600000D01*
X154452188Y-75604059D01*
X154452182Y-75604078D01*
X154441496Y-75643961D01*
X154441490Y-75644003D01*
X154441500Y-75687164D01*
X154441500Y-76854900D01*
X154421815Y-76921939D01*
X154369011Y-76967694D01*
X154317500Y-76978900D01*
X150368832Y-76978900D01*
X150301793Y-76959215D01*
X150256038Y-76906411D01*
X150246094Y-76837253D01*
X150275119Y-76773697D01*
X150321379Y-76740339D01*
X150357841Y-76725236D01*
X150483282Y-76628982D01*
X150579536Y-76503541D01*
X150640044Y-76357462D01*
X150660682Y-76200700D01*
X150651613Y-76131817D01*
X150640044Y-76043939D01*
X150640044Y-76043938D01*
X150579536Y-75897859D01*
X150483282Y-75772418D01*
X150357841Y-75676164D01*
X150342356Y-75669750D01*
X150211762Y-75615656D01*
X150211760Y-75615655D01*
X150055001Y-75595018D01*
X150054999Y-75595018D01*
X149898239Y-75615655D01*
X149898237Y-75615656D01*
X149752160Y-75676163D01*
X149626718Y-75772418D01*
X149530463Y-75897860D01*
X149469956Y-76043937D01*
X149469955Y-76043939D01*
X149449318Y-76200698D01*
X149449318Y-76200701D01*
X149458246Y-76268518D01*
X149447480Y-76337553D01*
X149422989Y-76372384D01*
X149325490Y-76469882D01*
X149264170Y-76503366D01*
X149237811Y-76506200D01*
X147668939Y-76506200D01*
X147601900Y-76486515D01*
X147556145Y-76433711D01*
X147546201Y-76364553D01*
X147573085Y-76303536D01*
X147586501Y-76287186D01*
X147605910Y-76263538D01*
X147669701Y-76144194D01*
X147698811Y-76089733D01*
X147698811Y-76089732D01*
X147698814Y-76089727D01*
X147756024Y-75901132D01*
X147775341Y-75705000D01*
X147756024Y-75508868D01*
X147698814Y-75320273D01*
X147698811Y-75320269D01*
X147698811Y-75320266D01*
X147605913Y-75146467D01*
X147605909Y-75146460D01*
X147480883Y-74994116D01*
X147328539Y-74869090D01*
X147328532Y-74869086D01*
X147154733Y-74776188D01*
X147154727Y-74776186D01*
X146966132Y-74718976D01*
X146966129Y-74718975D01*
X146770000Y-74699659D01*
X146573870Y-74718975D01*
X146385266Y-74776188D01*
X146211467Y-74869086D01*
X146211460Y-74869090D01*
X146059116Y-74994116D01*
X145934090Y-75146460D01*
X145934086Y-75146467D01*
X145841188Y-75320266D01*
X145783975Y-75508870D01*
X145764659Y-75705000D01*
X145783975Y-75901129D01*
X145783976Y-75901132D01*
X145839148Y-76083010D01*
X145841188Y-76089733D01*
X145934086Y-76263532D01*
X145934090Y-76263538D01*
X145966915Y-76303536D01*
X145994227Y-76367846D01*
X145982436Y-76436713D01*
X145935283Y-76488273D01*
X145871061Y-76506200D01*
X145543155Y-76506200D01*
X145476116Y-76486515D01*
X145455485Y-76469893D01*
X145422296Y-76436713D01*
X145237891Y-76252356D01*
X145191930Y-76206407D01*
X145158437Y-76145088D01*
X145160940Y-76082718D01*
X145172704Y-76043937D01*
X145216024Y-75901132D01*
X145235341Y-75705000D01*
X145216024Y-75508868D01*
X145158814Y-75320273D01*
X145158811Y-75320269D01*
X145158811Y-75320266D01*
X145065913Y-75146467D01*
X145065909Y-75146460D01*
X144940883Y-74994116D01*
X144788539Y-74869090D01*
X144788532Y-74869086D01*
X144614733Y-74776188D01*
X144614727Y-74776186D01*
X144426132Y-74718976D01*
X144426129Y-74718975D01*
X144230000Y-74699659D01*
X144033870Y-74718975D01*
X143845266Y-74776188D01*
X143671467Y-74869086D01*
X143671460Y-74869090D01*
X143519116Y-74994116D01*
X143394090Y-75146460D01*
X143394086Y-75146467D01*
X143301188Y-75320266D01*
X143243975Y-75508870D01*
X143224659Y-75705000D01*
X143243975Y-75901129D01*
X143243976Y-75901132D01*
X143299148Y-76083010D01*
X143301188Y-76089733D01*
X143394086Y-76263532D01*
X143394090Y-76263539D01*
X143519116Y-76415883D01*
X143671460Y-76540909D01*
X143671467Y-76540913D01*
X143845266Y-76633811D01*
X143845269Y-76633811D01*
X143845273Y-76633814D01*
X144033868Y-76691024D01*
X144230000Y-76710341D01*
X144426132Y-76691024D01*
X144608018Y-76635848D01*
X144677885Y-76635225D01*
X144731683Y-76666816D01*
X144832101Y-76767207D01*
X144865595Y-76828526D01*
X144860620Y-76898218D01*
X144818756Y-76954157D01*
X144753295Y-76978583D01*
X144744432Y-76978900D01*
X140935221Y-76978900D01*
X140868182Y-76959215D01*
X140847529Y-76942570D01*
X140799523Y-76894552D01*
X140111818Y-76206675D01*
X140078341Y-76145349D01*
X140080850Y-76083012D01*
X140136024Y-75901132D01*
X140155341Y-75705000D01*
X140136024Y-75508868D01*
X140078814Y-75320273D01*
X140078811Y-75320269D01*
X140078811Y-75320266D01*
X139985913Y-75146467D01*
X139985909Y-75146460D01*
X139860883Y-74994117D01*
X139844113Y-74980354D01*
X139804778Y-74922608D01*
X139802907Y-74852764D01*
X139839094Y-74792995D01*
X139901850Y-74762279D01*
X139922777Y-74760500D01*
X140917223Y-74760500D01*
X140984262Y-74780185D01*
X141030017Y-74832989D01*
X141039961Y-74902147D01*
X141010936Y-74965703D01*
X140995887Y-74980354D01*
X140979116Y-74994117D01*
X140854090Y-75146460D01*
X140854086Y-75146467D01*
X140761188Y-75320266D01*
X140703975Y-75508870D01*
X140684659Y-75705000D01*
X140703975Y-75901129D01*
X140703976Y-75901132D01*
X140759148Y-76083010D01*
X140761188Y-76089733D01*
X140854086Y-76263532D01*
X140854090Y-76263539D01*
X140979116Y-76415883D01*
X141131460Y-76540909D01*
X141131467Y-76540913D01*
X141305266Y-76633811D01*
X141305269Y-76633811D01*
X141305273Y-76633814D01*
X141493868Y-76691024D01*
X141690000Y-76710341D01*
X141886132Y-76691024D01*
X142074727Y-76633814D01*
X142112839Y-76613443D01*
X142248532Y-76540913D01*
X142248538Y-76540910D01*
X142400883Y-76415883D01*
X142525910Y-76263538D01*
X142589701Y-76144194D01*
X142618811Y-76089733D01*
X142618811Y-76089732D01*
X142618814Y-76089727D01*
X142676024Y-75901132D01*
X142695341Y-75705000D01*
X142676024Y-75508868D01*
X142618814Y-75320273D01*
X142618811Y-75320269D01*
X142618811Y-75320266D01*
X142525913Y-75146467D01*
X142525909Y-75146460D01*
X142400883Y-74994117D01*
X142384113Y-74980354D01*
X142344778Y-74922608D01*
X142342907Y-74852764D01*
X142379094Y-74792995D01*
X142441850Y-74762279D01*
X142462777Y-74760500D01*
X143002851Y-74760500D01*
X143002853Y-74760500D01*
X143085639Y-74738318D01*
X143159862Y-74695465D01*
X143728454Y-74126871D01*
X143789775Y-74093388D01*
X143852126Y-74095892D01*
X144033868Y-74151024D01*
X144230000Y-74170341D01*
X144426132Y-74151024D01*
X144614727Y-74093814D01*
X144646175Y-74077005D01*
X144720998Y-74037011D01*
X144788538Y-74000910D01*
X144940883Y-73875883D01*
X145065910Y-73723538D01*
X145115413Y-73630925D01*
X145158811Y-73549733D01*
X145158813Y-73549728D01*
X145158814Y-73549727D01*
X145216024Y-73361132D01*
X145235341Y-73165000D01*
X145764659Y-73165000D01*
X145783975Y-73361129D01*
X145789308Y-73378709D01*
X145839105Y-73542868D01*
X145841188Y-73549733D01*
X145934086Y-73723532D01*
X145934090Y-73723539D01*
X146059116Y-73875883D01*
X146211460Y-74000909D01*
X146211467Y-74000913D01*
X146385266Y-74093811D01*
X146385269Y-74093811D01*
X146385273Y-74093814D01*
X146573868Y-74151024D01*
X146770000Y-74170341D01*
X146966132Y-74151024D01*
X147154727Y-74093814D01*
X147186175Y-74077005D01*
X147260998Y-74037011D01*
X147328538Y-74000910D01*
X147480883Y-73875883D01*
X147605910Y-73723538D01*
X147698814Y-73549727D01*
X147712089Y-73505964D01*
X147724333Y-73465604D01*
X147762630Y-73407166D01*
X147826443Y-73378709D01*
X147842993Y-73377600D01*
X156329324Y-73377600D01*
X156396363Y-73397285D01*
X156442118Y-73450089D01*
X156452498Y-73515891D01*
X156446712Y-73565759D01*
X157086098Y-74205145D01*
X157066896Y-74200000D01*
X156987904Y-74200000D01*
X156911604Y-74220444D01*
X156843195Y-74259940D01*
X156787340Y-74315795D01*
X156747844Y-74384204D01*
X156727400Y-74460504D01*
X156727400Y-74539496D01*
X156747844Y-74615796D01*
X156787340Y-74684205D01*
X156843195Y-74740060D01*
X156911604Y-74779556D01*
X156987904Y-74800000D01*
X157066896Y-74800000D01*
X157143196Y-74779556D01*
X157211605Y-74740060D01*
X157267460Y-74684205D01*
X157306956Y-74615796D01*
X157327400Y-74539496D01*
X157327400Y-74460504D01*
X157322254Y-74441301D01*
X157964865Y-75083912D01*
X157966647Y-75081553D01*
X157966648Y-75081551D01*
X158057513Y-74899069D01*
X158057516Y-74899063D01*
X158113302Y-74702992D01*
X158113303Y-74702989D01*
X158132113Y-74500000D01*
X158114729Y-74312404D01*
X158128144Y-74243834D01*
X158176501Y-74193402D01*
X158244447Y-74177119D01*
X158310409Y-74200156D01*
X158325880Y-74213279D01*
X160727377Y-76614704D01*
X160773271Y-76660598D01*
X160773585Y-76660831D01*
X160776331Y-76662309D01*
X160798767Y-76675261D01*
X160798770Y-76675264D01*
X160798771Y-76675264D01*
X160839791Y-76698947D01*
X160888007Y-76749514D01*
X160901229Y-76818121D01*
X160877058Y-76880644D01*
X160856649Y-76907906D01*
X160856645Y-76907913D01*
X160806403Y-77042620D01*
X160806401Y-77042627D01*
X160800000Y-77102155D01*
X160800000Y-77250000D01*
X163400000Y-77250000D01*
X163400000Y-77102172D01*
X163399999Y-77102155D01*
X163393598Y-77042627D01*
X163393596Y-77042620D01*
X163343354Y-76907913D01*
X163343350Y-76907906D01*
X163257190Y-76792812D01*
X163150188Y-76712709D01*
X163108318Y-76656775D01*
X163100500Y-76613443D01*
X163100500Y-76030249D01*
X163100499Y-76030247D01*
X163088868Y-75971770D01*
X163088867Y-75971768D01*
X163053535Y-75918892D01*
X163037910Y-75868995D01*
X171899499Y-75868995D01*
X171926418Y-76004322D01*
X171926421Y-76004332D01*
X171979221Y-76131804D01*
X171979228Y-76131817D01*
X172055885Y-76246541D01*
X172055888Y-76246545D01*
X172153454Y-76344111D01*
X172153458Y-76344114D01*
X172268182Y-76420771D01*
X172268195Y-76420778D01*
X172386947Y-76469966D01*
X172395672Y-76473580D01*
X172395676Y-76473580D01*
X172395677Y-76473581D01*
X172531004Y-76500500D01*
X172531007Y-76500500D01*
X172668995Y-76500500D01*
X172760041Y-76482389D01*
X172804328Y-76473580D01*
X172931811Y-76420775D01*
X173046542Y-76344114D01*
X173144114Y-76246542D01*
X173220775Y-76131811D01*
X173273580Y-76004328D01*
X173288988Y-75926866D01*
X173300500Y-75868995D01*
X173300500Y-75731004D01*
X173273581Y-75595677D01*
X173273580Y-75595676D01*
X173273580Y-75595672D01*
X173273309Y-75595018D01*
X173220778Y-75468195D01*
X173220771Y-75468182D01*
X173144114Y-75353458D01*
X173144111Y-75353454D01*
X173046545Y-75255888D01*
X173046541Y-75255885D01*
X172931817Y-75179228D01*
X172931804Y-75179221D01*
X172804332Y-75126421D01*
X172804322Y-75126418D01*
X172668995Y-75099500D01*
X172668993Y-75099500D01*
X172531007Y-75099500D01*
X172531005Y-75099500D01*
X172395677Y-75126418D01*
X172395667Y-75126421D01*
X172268195Y-75179221D01*
X172268182Y-75179228D01*
X172153458Y-75255885D01*
X172153454Y-75255888D01*
X172055888Y-75353454D01*
X172055885Y-75353458D01*
X171979228Y-75468182D01*
X171979221Y-75468195D01*
X171926421Y-75595667D01*
X171926418Y-75595677D01*
X171899500Y-75731004D01*
X171899500Y-75731007D01*
X171899500Y-75868993D01*
X171899500Y-75868995D01*
X171899499Y-75868995D01*
X163037910Y-75868995D01*
X163032656Y-75852215D01*
X163051140Y-75784835D01*
X163053535Y-75781108D01*
X163088867Y-75728231D01*
X163088868Y-75728229D01*
X163100499Y-75669752D01*
X163100500Y-75669750D01*
X163100500Y-74930249D01*
X163100499Y-74930247D01*
X163088868Y-74871770D01*
X163088867Y-74871768D01*
X163053535Y-74818892D01*
X163032656Y-74752215D01*
X163051140Y-74684835D01*
X163053535Y-74681108D01*
X163088867Y-74628231D01*
X163088868Y-74628229D01*
X163100499Y-74569752D01*
X163100500Y-74569750D01*
X163100500Y-74224000D01*
X163120185Y-74156961D01*
X163172989Y-74111206D01*
X163224500Y-74100000D01*
X163547828Y-74100000D01*
X163547844Y-74099999D01*
X163607372Y-74093598D01*
X163607379Y-74093596D01*
X163742086Y-74043354D01*
X163742093Y-74043350D01*
X163857187Y-73957190D01*
X163857190Y-73957187D01*
X163943350Y-73842093D01*
X163943354Y-73842086D01*
X163993596Y-73707379D01*
X163993598Y-73707372D01*
X163999999Y-73647844D01*
X170600000Y-73647844D01*
X170606401Y-73707372D01*
X170606403Y-73707379D01*
X170656645Y-73842086D01*
X170656649Y-73842093D01*
X170742809Y-73957187D01*
X170742812Y-73957190D01*
X170857906Y-74043350D01*
X170857913Y-74043354D01*
X170992620Y-74093596D01*
X170992627Y-74093598D01*
X171052155Y-74099999D01*
X171052172Y-74100000D01*
X171950000Y-74100000D01*
X172450000Y-74100000D01*
X173347828Y-74100000D01*
X173347844Y-74099999D01*
X173407372Y-74093598D01*
X173407379Y-74093596D01*
X173542086Y-74043354D01*
X173542093Y-74043350D01*
X173657187Y-73957190D01*
X173657190Y-73957187D01*
X173743350Y-73842093D01*
X173743354Y-73842086D01*
X173793596Y-73707379D01*
X173793598Y-73707372D01*
X173799999Y-73647844D01*
X173800000Y-73647827D01*
X173800000Y-73150000D01*
X172450000Y-73150000D01*
X172450000Y-74100000D01*
X171950000Y-74100000D01*
X171950000Y-73150000D01*
X170600000Y-73150000D01*
X170600000Y-73647844D01*
X163999999Y-73647844D01*
X164000000Y-73647827D01*
X164000000Y-73150000D01*
X161400000Y-73150000D01*
X161400000Y-73525500D01*
X161380315Y-73592539D01*
X161327511Y-73638294D01*
X161286153Y-73647291D01*
X161286312Y-73648903D01*
X161280247Y-73649500D01*
X161221770Y-73661131D01*
X161221769Y-73661132D01*
X161155447Y-73705447D01*
X161111132Y-73771769D01*
X161111131Y-73771770D01*
X161099500Y-73830247D01*
X161099500Y-74569752D01*
X161111131Y-74628229D01*
X161111132Y-74628230D01*
X161146465Y-74681109D01*
X161167343Y-74747786D01*
X161148859Y-74815166D01*
X161146465Y-74818891D01*
X161111132Y-74871769D01*
X161111131Y-74871770D01*
X161099500Y-74930247D01*
X161099500Y-75669752D01*
X161111131Y-75728229D01*
X161111132Y-75728230D01*
X161115617Y-75734942D01*
X161136495Y-75801619D01*
X161118011Y-75868999D01*
X161066032Y-75915690D01*
X160997062Y-75926866D01*
X160932999Y-75898981D01*
X160924835Y-75891516D01*
X157842732Y-72809505D01*
X157842732Y-72809504D01*
X157842728Y-72809501D01*
X157824862Y-72791634D01*
X157790684Y-72771902D01*
X157773598Y-72762037D01*
X157773596Y-72762035D01*
X157752248Y-72749711D01*
X157750756Y-72748820D01*
X157750651Y-72748785D01*
X157750635Y-72748780D01*
X157690029Y-72732542D01*
X157690028Y-72732541D01*
X157667849Y-72726599D01*
X157667848Y-72726599D01*
X157582142Y-72726600D01*
X147744448Y-72726600D01*
X147677409Y-72706915D01*
X147635089Y-72661053D01*
X147605910Y-72606462D01*
X147567887Y-72560131D01*
X147480883Y-72454116D01*
X147328539Y-72329090D01*
X147328532Y-72329086D01*
X147154733Y-72236188D01*
X147154727Y-72236186D01*
X146966132Y-72178976D01*
X146966129Y-72178975D01*
X146770000Y-72159659D01*
X146573870Y-72178975D01*
X146385266Y-72236188D01*
X146211467Y-72329086D01*
X146211460Y-72329090D01*
X146059116Y-72454116D01*
X145934090Y-72606460D01*
X145934086Y-72606467D01*
X145841188Y-72780266D01*
X145783975Y-72968870D01*
X145764659Y-73165000D01*
X145235341Y-73165000D01*
X145216024Y-72968868D01*
X145158814Y-72780273D01*
X145158811Y-72780269D01*
X145158811Y-72780266D01*
X145065913Y-72606467D01*
X145065909Y-72606460D01*
X144940883Y-72454116D01*
X144788539Y-72329090D01*
X144788532Y-72329086D01*
X144614733Y-72236188D01*
X144614727Y-72236186D01*
X144426132Y-72178976D01*
X144426129Y-72178975D01*
X144230000Y-72159659D01*
X144033870Y-72178975D01*
X143845266Y-72236188D01*
X143671467Y-72329086D01*
X143671460Y-72329090D01*
X143519116Y-72454116D01*
X143394090Y-72606460D01*
X143394086Y-72606467D01*
X143301188Y-72780266D01*
X143243975Y-72968870D01*
X143224659Y-73165000D01*
X143243975Y-73361129D01*
X143243976Y-73361132D01*
X143299106Y-73542870D01*
X143299729Y-73612735D01*
X143268126Y-73666545D01*
X142861492Y-74073181D01*
X142800169Y-74106666D01*
X142773811Y-74109500D01*
X142462777Y-74109500D01*
X142395738Y-74089815D01*
X142349983Y-74037011D01*
X142340039Y-73967853D01*
X142369064Y-73904297D01*
X142384113Y-73889646D01*
X142395559Y-73880252D01*
X142400883Y-73875883D01*
X142525910Y-73723538D01*
X142575413Y-73630925D01*
X142618811Y-73549733D01*
X142618813Y-73549728D01*
X142618814Y-73549727D01*
X142676024Y-73361132D01*
X142695341Y-73165000D01*
X142676024Y-72968868D01*
X142618814Y-72780273D01*
X142618811Y-72780269D01*
X142618811Y-72780266D01*
X142525913Y-72606467D01*
X142525909Y-72606460D01*
X142400883Y-72454116D01*
X142248539Y-72329090D01*
X142248532Y-72329086D01*
X142074733Y-72236188D01*
X142074727Y-72236186D01*
X141886132Y-72178976D01*
X141886129Y-72178975D01*
X141690000Y-72159659D01*
X141493870Y-72178975D01*
X141305266Y-72236188D01*
X141131467Y-72329086D01*
X141131460Y-72329090D01*
X140979116Y-72454116D01*
X140854090Y-72606460D01*
X140854086Y-72606467D01*
X140761188Y-72780266D01*
X140703975Y-72968870D01*
X140693725Y-73072945D01*
X140667564Y-73137732D01*
X140628459Y-73165402D01*
X140659383Y-73182930D01*
X140691891Y-73244776D01*
X140693725Y-73257055D01*
X140703975Y-73361129D01*
X140709308Y-73378709D01*
X140759105Y-73542868D01*
X140761188Y-73549733D01*
X140854086Y-73723532D01*
X140854090Y-73723539D01*
X140979116Y-73875882D01*
X140995887Y-73889646D01*
X141035222Y-73947392D01*
X141037093Y-74017236D01*
X141000906Y-74077005D01*
X140938150Y-74107721D01*
X140917223Y-74109500D01*
X140313863Y-74109500D01*
X140246824Y-74089815D01*
X140201069Y-74037011D01*
X140191125Y-73967853D01*
X140212288Y-73914376D01*
X140280133Y-73817482D01*
X140376265Y-73611326D01*
X140376269Y-73611317D01*
X140435139Y-73391610D01*
X140435141Y-73391599D01*
X140446794Y-73258402D01*
X140472246Y-73193333D01*
X140512031Y-73164524D01*
X140480325Y-73146092D01*
X140448493Y-73083894D01*
X140446794Y-73071597D01*
X140435141Y-72938400D01*
X140435139Y-72938389D01*
X140376269Y-72718682D01*
X140376264Y-72718668D01*
X140280136Y-72512521D01*
X140280132Y-72512513D01*
X140229025Y-72439526D01*
X139632962Y-73035589D01*
X139615925Y-72972007D01*
X139550099Y-72857993D01*
X139457007Y-72764901D01*
X139342993Y-72699075D01*
X139279410Y-72682037D01*
X139809291Y-72152155D01*
X161400000Y-72152155D01*
X161400000Y-72650000D01*
X162450000Y-72650000D01*
X162950000Y-72650000D01*
X164000000Y-72650000D01*
X164000000Y-72152172D01*
X163999999Y-72152155D01*
X170600000Y-72152155D01*
X170600000Y-72650000D01*
X171950000Y-72650000D01*
X172450000Y-72650000D01*
X173800000Y-72650000D01*
X173800000Y-72152172D01*
X173799999Y-72152155D01*
X173793598Y-72092627D01*
X173793596Y-72092620D01*
X173743354Y-71957913D01*
X173743350Y-71957906D01*
X173657190Y-71842812D01*
X173657187Y-71842809D01*
X173542093Y-71756649D01*
X173542086Y-71756645D01*
X173407379Y-71706403D01*
X173407372Y-71706401D01*
X173347844Y-71700000D01*
X172450000Y-71700000D01*
X172450000Y-72650000D01*
X171950000Y-72650000D01*
X171950000Y-71700000D01*
X171052155Y-71700000D01*
X170992627Y-71706401D01*
X170992620Y-71706403D01*
X170857913Y-71756645D01*
X170857906Y-71756649D01*
X170742812Y-71842809D01*
X170742809Y-71842812D01*
X170656649Y-71957906D01*
X170656645Y-71957913D01*
X170606403Y-72092620D01*
X170606401Y-72092627D01*
X170600000Y-72152155D01*
X163999999Y-72152155D01*
X163993598Y-72092627D01*
X163993596Y-72092620D01*
X163943354Y-71957913D01*
X163943350Y-71957906D01*
X163857190Y-71842812D01*
X163857187Y-71842809D01*
X163742093Y-71756649D01*
X163742086Y-71756645D01*
X163607379Y-71706403D01*
X163607372Y-71706401D01*
X163547844Y-71700000D01*
X162950000Y-71700000D01*
X162950000Y-72650000D01*
X162450000Y-72650000D01*
X162450000Y-71700000D01*
X161852155Y-71700000D01*
X161792627Y-71706401D01*
X161792620Y-71706403D01*
X161657913Y-71756645D01*
X161657906Y-71756649D01*
X161542812Y-71842809D01*
X161542809Y-71842812D01*
X161456649Y-71957906D01*
X161456645Y-71957913D01*
X161406403Y-72092620D01*
X161406401Y-72092627D01*
X161400000Y-72152155D01*
X139809291Y-72152155D01*
X139875472Y-72085974D01*
X139802478Y-72034863D01*
X139596331Y-71938735D01*
X139596317Y-71938730D01*
X139376610Y-71879860D01*
X139376599Y-71879858D01*
X139150002Y-71860034D01*
X139149998Y-71860034D01*
X138923400Y-71879858D01*
X138923389Y-71879860D01*
X138703682Y-71938730D01*
X138703673Y-71938734D01*
X138497516Y-72034866D01*
X138497512Y-72034868D01*
X138424526Y-72085973D01*
X138424526Y-72085974D01*
X139020590Y-72682037D01*
X138957007Y-72699075D01*
X138842993Y-72764901D01*
X138749901Y-72857993D01*
X138684075Y-72972007D01*
X138667037Y-73035589D01*
X138070974Y-72439526D01*
X138070973Y-72439526D01*
X138019868Y-72512512D01*
X138019866Y-72512516D01*
X137923734Y-72718673D01*
X137923730Y-72718682D01*
X137864860Y-72938389D01*
X137864858Y-72938400D01*
X137845034Y-73164997D01*
X137845034Y-73165002D01*
X137864858Y-73391599D01*
X137864860Y-73391610D01*
X137923730Y-73611317D01*
X137923735Y-73611331D01*
X138019863Y-73817478D01*
X138070974Y-73890472D01*
X138667037Y-73294409D01*
X138684075Y-73357993D01*
X138749901Y-73472007D01*
X138842993Y-73565099D01*
X138957007Y-73630925D01*
X139020590Y-73647962D01*
X138424526Y-74244024D01*
X138428183Y-74285822D01*
X138414416Y-74354322D01*
X138392331Y-74384316D01*
X137823949Y-74952628D01*
X137823902Y-74952670D01*
X137782456Y-74994116D01*
X137758541Y-75018027D01*
X137758537Y-75018033D01*
X137736491Y-75056219D01*
X137736487Y-75056226D01*
X137715688Y-75092243D01*
X137715682Y-75092260D01*
X137713742Y-75099500D01*
X137706340Y-75127123D01*
X137701158Y-75146460D01*
X137693503Y-75175020D01*
X137693501Y-75175031D01*
X137693501Y-75175039D01*
X137693500Y-75175047D01*
X137693500Y-75209308D01*
X137693498Y-75255888D01*
X137693497Y-75268970D01*
X137693500Y-75269015D01*
X137693500Y-76159041D01*
X137693499Y-76159059D01*
X137693499Y-76252356D01*
X137693500Y-76252358D01*
X137703038Y-76287951D01*
X137713324Y-76326339D01*
X137715684Y-76335144D01*
X137735855Y-76370080D01*
X137735857Y-76370085D01*
X137735859Y-76370085D01*
X137758537Y-76409366D01*
X137775818Y-76426646D01*
X137775833Y-76426660D01*
X137819139Y-76469966D01*
X137819140Y-76469966D01*
X146847945Y-85498472D01*
X146878276Y-85528803D01*
X146878586Y-85529033D01*
X146881334Y-85530512D01*
X146919455Y-85552520D01*
X146919458Y-85552521D01*
X146948929Y-85569535D01*
X146951936Y-85571404D01*
X146952365Y-85571519D01*
X146952367Y-85571520D01*
X146978352Y-85578482D01*
X146995471Y-85583069D01*
X146995476Y-85583070D01*
X147035147Y-85593700D01*
X147035149Y-85593700D01*
X147035153Y-85593701D01*
X147120859Y-85593700D01*
X158196852Y-85593700D01*
X158263891Y-85613385D01*
X158309646Y-85666189D01*
X158319590Y-85735347D01*
X158295228Y-85793186D01*
X158263077Y-85835086D01*
X158206649Y-85876289D01*
X158164701Y-85883600D01*
X148599454Y-85883600D01*
X148599437Y-85883599D01*
X148591844Y-85883599D01*
X148548996Y-85883599D01*
X148548990Y-85883600D01*
X148506147Y-85883600D01*
X148506143Y-85883600D01*
X148506139Y-85883601D01*
X148496000Y-85886318D01*
X148471485Y-85892886D01*
X148471486Y-85892887D01*
X148423364Y-85905781D01*
X148423352Y-85905785D01*
X148422212Y-85906343D01*
X148419899Y-85907780D01*
X148390858Y-85924548D01*
X148349145Y-85948630D01*
X148349131Y-85948639D01*
X148349130Y-85948641D01*
X148334742Y-85963031D01*
X148334735Y-85963038D01*
X148285440Y-86012331D01*
X148285410Y-86012363D01*
X138529730Y-95768542D01*
X138529728Y-95768544D01*
X138490542Y-95807729D01*
X138490534Y-95807738D01*
X138490532Y-95807741D01*
X138469991Y-95843318D01*
X138469992Y-95843319D01*
X138447679Y-95881965D01*
X138440672Y-95908123D01*
X138440671Y-95908126D01*
X138425499Y-95964750D01*
X138425500Y-96007609D01*
X138425500Y-121125981D01*
X138425495Y-121168842D01*
X138425500Y-121168879D01*
X138425698Y-121169592D01*
X138436339Y-121209305D01*
X138436340Y-121209316D01*
X138436342Y-121209316D01*
X138447675Y-121251627D01*
X138465579Y-121282637D01*
X138465580Y-121282638D01*
X138490516Y-121325837D01*
X138490518Y-121325839D01*
X138490527Y-121325854D01*
X138521524Y-121356851D01*
X138521531Y-121356863D01*
X138521534Y-121356861D01*
X143737527Y-126573846D01*
X143737583Y-126573910D01*
X143777826Y-126614153D01*
X143777832Y-126614163D01*
X143777834Y-126614162D01*
X143810396Y-126646730D01*
X143809072Y-126648053D01*
X143844316Y-126695115D01*
X143849313Y-126764805D01*
X143815840Y-126826135D01*
X143806807Y-126834323D01*
X143679116Y-126939116D01*
X143554090Y-127091460D01*
X143554086Y-127091467D01*
X143461188Y-127265266D01*
X143403975Y-127453870D01*
X143384659Y-127650000D01*
X143403975Y-127846129D01*
X143461188Y-128034733D01*
X143554086Y-128208532D01*
X143554090Y-128208539D01*
X143679116Y-128360883D01*
X143784638Y-128447483D01*
X143823972Y-128505229D01*
X143825843Y-128575073D01*
X143793654Y-128631017D01*
X137702537Y-134722135D01*
X137702533Y-134722141D01*
X137659681Y-134796361D01*
X137659682Y-134796362D01*
X137637500Y-134879147D01*
X137637500Y-145717125D01*
X137637463Y-145717693D01*
X137185500Y-145717693D01*
X137185500Y-71523500D01*
X137205185Y-71456461D01*
X137257989Y-71410706D01*
X137309500Y-71399500D01*
X177650500Y-71399500D01*
X177717539Y-71419185D01*
G37*
%TD.AperFunction*%
%TD*%
M02*
