%TF.GenerationSoftware,KiCad,Pcbnew,8.0.8*%
%TF.CreationDate,2025-06-12T14:13:02-04:00*%
%TF.ProjectId,main_board,6d61696e-5f62-46f6-9172-642e6b696361,rev?*%
%TF.SameCoordinates,Original*%
%TF.FileFunction,Copper,L1,Top*%
%TF.FilePolarity,Positive*%
%FSLAX46Y46*%
G04 Gerber Fmt 4.6, Leading zero omitted, Abs format (unit mm)*
G04 Created by KiCad (PCBNEW 8.0.8) date 2025-06-12 14:13:02*
%MOMM*%
%LPD*%
G01*
G04 APERTURE LIST*
G04 Aperture macros list*
%AMRoundRect*
0 Rectangle with rounded corners*
0 $1 Rounding radius*
0 $2 $3 $4 $5 $6 $7 $8 $9 X,Y pos of 4 corners*
0 Add a 4 corners polygon primitive as box body*
4,1,4,$2,$3,$4,$5,$6,$7,$8,$9,$2,$3,0*
0 Add four circle primitives for the rounded corners*
1,1,$1+$1,$2,$3*
1,1,$1+$1,$4,$5*
1,1,$1+$1,$6,$7*
1,1,$1+$1,$8,$9*
0 Add four rect primitives between the rounded corners*
20,1,$1+$1,$2,$3,$4,$5,0*
20,1,$1+$1,$4,$5,$6,$7,0*
20,1,$1+$1,$6,$7,$8,$9,0*
20,1,$1+$1,$8,$9,$2,$3,0*%
G04 Aperture macros list end*
%TA.AperFunction,SMDPad,CuDef*%
%ADD10RoundRect,0.250001X0.624999X-0.462499X0.624999X0.462499X-0.624999X0.462499X-0.624999X-0.462499X0*%
%TD*%
%TA.AperFunction,SMDPad,CuDef*%
%ADD11RoundRect,0.250001X-0.624999X0.462499X-0.624999X-0.462499X0.624999X-0.462499X0.624999X0.462499X0*%
%TD*%
%TA.AperFunction,ComponentPad*%
%ADD12R,1.800000X1.800000*%
%TD*%
%TA.AperFunction,ComponentPad*%
%ADD13C,1.800000*%
%TD*%
%TA.AperFunction,ComponentPad*%
%ADD14C,1.600000*%
%TD*%
%TA.AperFunction,SMDPad,CuDef*%
%ADD15RoundRect,0.250001X0.462499X0.624999X-0.462499X0.624999X-0.462499X-0.624999X0.462499X-0.624999X0*%
%TD*%
%TA.AperFunction,SMDPad,CuDef*%
%ADD16RoundRect,0.250001X-0.462499X-0.624999X0.462499X-0.624999X0.462499X0.624999X-0.462499X0.624999X0*%
%TD*%
%TA.AperFunction,SMDPad,CuDef*%
%ADD17RoundRect,0.150000X0.150000X-0.825000X0.150000X0.825000X-0.150000X0.825000X-0.150000X-0.825000X0*%
%TD*%
%TA.AperFunction,SMDPad,CuDef*%
%ADD18RoundRect,0.250000X-0.412500X-0.650000X0.412500X-0.650000X0.412500X0.650000X-0.412500X0.650000X0*%
%TD*%
%TA.AperFunction,ComponentPad*%
%ADD19R,1.600000X1.600000*%
%TD*%
%TA.AperFunction,ComponentPad*%
%ADD20O,1.600000X1.600000*%
%TD*%
%TA.AperFunction,SMDPad,CuDef*%
%ADD21R,3.500000X3.500000*%
%TD*%
%TA.AperFunction,SMDPad,CuDef*%
%ADD22C,8.000000*%
%TD*%
%TA.AperFunction,SMDPad,CuDef*%
%ADD23RoundRect,0.375000X-0.625000X-0.375000X0.625000X-0.375000X0.625000X0.375000X-0.625000X0.375000X0*%
%TD*%
%TA.AperFunction,SMDPad,CuDef*%
%ADD24RoundRect,0.500000X-0.500000X-1.400000X0.500000X-1.400000X0.500000X1.400000X-0.500000X1.400000X0*%
%TD*%
%TA.AperFunction,ComponentPad*%
%ADD25R,1.500000X1.500000*%
%TD*%
%TA.AperFunction,SMDPad,CuDef*%
%ADD26RoundRect,0.150000X-0.150000X0.875000X-0.150000X-0.875000X0.150000X-0.875000X0.150000X0.875000X0*%
%TD*%
%TA.AperFunction,ComponentPad*%
%ADD27R,1.200000X1.200000*%
%TD*%
%TA.AperFunction,ComponentPad*%
%ADD28C,1.200000*%
%TD*%
%TA.AperFunction,ComponentPad*%
%ADD29R,1.508000X1.508000*%
%TD*%
%TA.AperFunction,ComponentPad*%
%ADD30C,1.508000*%
%TD*%
%TA.AperFunction,ComponentPad*%
%ADD31C,1.524000*%
%TD*%
%TA.AperFunction,ComponentPad*%
%ADD32R,1.700000X1.700000*%
%TD*%
%TA.AperFunction,ComponentPad*%
%ADD33O,1.700000X1.700000*%
%TD*%
%TA.AperFunction,ViaPad*%
%ADD34C,0.800000*%
%TD*%
%TA.AperFunction,Conductor*%
%ADD35C,0.250000*%
%TD*%
G04 APERTURE END LIST*
D10*
%TO.P,C1,1*%
%TO.N,3V3*%
X169600000Y-111187500D03*
%TO.P,C1,2*%
%TO.N,GND*%
X169600000Y-108212500D03*
%TD*%
D11*
%TO.P,C2,1*%
%TO.N,Net-(SW1-B)*%
X165900000Y-126412500D03*
%TO.P,C2,2*%
%TO.N,Net-(U3-IN-)*%
X165900000Y-129387500D03*
%TD*%
%TO.P,C3,1*%
%TO.N,GND*%
X175000000Y-96512500D03*
%TO.P,C3,2*%
%TO.N,5V*%
X175000000Y-99487500D03*
%TD*%
%TO.P,C4,1*%
%TO.N,GND*%
X166000000Y-108212500D03*
%TO.P,C4,2*%
%TO.N,Net-(U3-IN-)*%
X166000000Y-111187500D03*
%TD*%
D12*
%TO.P,D2,1,K*%
%TO.N,GND*%
X141925000Y-95100000D03*
D13*
%TO.P,D2,2,A*%
%TO.N,Net-(D2-A)*%
X144465000Y-95100000D03*
%TD*%
D14*
%TO.P,nRF24L01+1,1,3.3V*%
%TO.N,3V3*%
X139150000Y-75705000D03*
%TO.P,nRF24L01+1,2,CSN*%
%TO.N,nRF_CS*%
X141690000Y-75705000D03*
%TO.P,nRF24L01+1,3,MOSI*%
%TO.N,MOSI*%
X144230000Y-75705000D03*
%TO.P,nRF24L01+1,4,IRQ*%
%TO.N,unconnected-(nRF24L01+1-IRQ-Pad4)*%
X146770000Y-75705000D03*
%TO.P,nRF24L01+1,5,GND*%
%TO.N,GND*%
X139150000Y-73165000D03*
%TO.P,nRF24L01+1,6,CE*%
%TO.N,nRF_CE*%
X141690000Y-73165000D03*
%TO.P,nRF24L01+1,7,SCK*%
%TO.N,SCK*%
X144230000Y-73165000D03*
%TO.P,nRF24L01+1,8,MISO*%
%TO.N,MISO*%
X146770000Y-73165000D03*
%TD*%
D15*
%TO.P,R1,1*%
%TO.N,Net-(A1-A3)*%
X149787500Y-95300000D03*
%TO.P,R1,2*%
%TO.N,Net-(D2-A)*%
X146812500Y-95300000D03*
%TD*%
D10*
%TO.P,R2,1*%
%TO.N,Net-(SW1-B)*%
X165900000Y-120087500D03*
%TO.P,R2,2*%
%TO.N,Net-(U3-IN-)*%
X165900000Y-117112500D03*
%TD*%
D15*
%TO.P,R3,1*%
%TO.N,3V3*%
X157287500Y-86200000D03*
%TO.P,R3,2*%
%TO.N,Net-(A1-A4)*%
X154312500Y-86200000D03*
%TD*%
%TO.P,R4,1*%
%TO.N,3V3*%
X157287500Y-90000000D03*
%TO.P,R4,2*%
%TO.N,Net-(A1-A5)*%
X154312500Y-90000000D03*
%TD*%
D16*
%TO.P,R5,1*%
%TO.N,Net-(A1-D2)*%
X154212500Y-82300000D03*
%TO.P,R5,2*%
%TO.N,3V3*%
X157187500Y-82300000D03*
%TD*%
D17*
%TO.P,U3,1,A1*%
%TO.N,unconnected-(U3-A1-Pad1)*%
X169390000Y-131450000D03*
%TO.P,U3,2,A0*%
%TO.N,unconnected-(U3-A0-Pad2)*%
X170660000Y-131450000D03*
%TO.P,U3,3,SDA*%
%TO.N,Net-(A1-A4)*%
X171930000Y-131450000D03*
%TO.P,U3,4,SCL*%
%TO.N,Net-(A1-A5)*%
X173200000Y-131450000D03*
%TO.P,U3,5,VS*%
%TO.N,3V3*%
X173200000Y-126500000D03*
%TO.P,U3,6,GND*%
%TO.N,GND*%
X171930000Y-126500000D03*
%TO.P,U3,7,IN-*%
%TO.N,Net-(U3-IN-)*%
X170660000Y-126500000D03*
%TO.P,U3,8,IN+*%
%TO.N,Net-(SW1-B)*%
X169390000Y-126500000D03*
%TD*%
D18*
%TO.P,R7,1*%
%TO.N,SCK*%
X161337500Y-77500000D03*
%TO.P,R7,2*%
%TO.N,Net-(P1-CLK{slash}SCK)*%
X164462500Y-77500000D03*
%TD*%
D19*
%TO.P,A1,1,D1/TX*%
%TO.N,unconnected-(A1-D1{slash}TX-Pad1)*%
X144390000Y-102250000D03*
D20*
%TO.P,A1,2,D0/RX*%
%TO.N,unconnected-(A1-D0{slash}RX-Pad2)*%
X144390000Y-104790000D03*
%TO.P,A1,3,~{RESET}*%
%TO.N,unconnected-(A1-~{RESET}-Pad3)*%
X144390000Y-107330000D03*
%TO.P,A1,4,GND*%
%TO.N,GND*%
X144390000Y-109870000D03*
%TO.P,A1,5,D2*%
%TO.N,Net-(A1-D2)*%
X144390000Y-112410000D03*
%TO.P,A1,6,D3*%
%TO.N,unconnected-(A1-D3-Pad6)*%
X144390000Y-114950000D03*
%TO.P,A1,7,D4*%
%TO.N,unconnected-(A1-D4-Pad7)*%
X144390000Y-117490000D03*
%TO.P,A1,8,D5*%
%TO.N,unconnected-(A1-D5-Pad8)*%
X144390000Y-120030000D03*
%TO.P,A1,9,D6*%
%TO.N,nRF_CE*%
X144390000Y-122570000D03*
%TO.P,A1,10,D7*%
%TO.N,nRF_CS*%
X144390000Y-125110000D03*
%TO.P,A1,11,D8*%
%TO.N,Net-(A1-D8)*%
X144390000Y-127650000D03*
%TO.P,A1,12,D9*%
%TO.N,Net-(A1-D9)*%
X144390000Y-130190000D03*
%TO.P,A1,13,D10*%
%TO.N,SD_CS*%
X144390000Y-132730000D03*
%TO.P,A1,14,D11*%
%TO.N,MOSI*%
X144390000Y-135270000D03*
%TO.P,A1,15,D12*%
%TO.N,MISO*%
X144390000Y-137810000D03*
%TO.P,A1,16,D13*%
%TO.N,SCK*%
X159630000Y-137810000D03*
%TO.P,A1,17,3V3*%
%TO.N,3V3*%
X159630000Y-135270000D03*
%TO.P,A1,18,AREF*%
%TO.N,unconnected-(A1-AREF-Pad18)*%
X159630000Y-132730000D03*
%TO.P,A1,19,A0*%
%TO.N,unconnected-(A1-A0-Pad19)*%
X159630000Y-130190000D03*
%TO.P,A1,20,A1*%
%TO.N,unconnected-(A1-A1-Pad20)*%
X159630000Y-127650000D03*
%TO.P,A1,21,A2*%
%TO.N,unconnected-(A1-A2-Pad21)*%
X159630000Y-125110000D03*
%TO.P,A1,22,A3*%
%TO.N,Net-(A1-A3)*%
X159630000Y-122570000D03*
%TO.P,A1,23,A4*%
%TO.N,Net-(A1-A4)*%
X159630000Y-120030000D03*
%TO.P,A1,24,A5*%
%TO.N,Net-(A1-A5)*%
X159630000Y-117490000D03*
%TO.P,A1,25,A6*%
%TO.N,unconnected-(A1-A6-Pad25)*%
X159630000Y-114950000D03*
%TO.P,A1,26,A7*%
%TO.N,unconnected-(A1-A7-Pad26)*%
X159630000Y-112410000D03*
%TO.P,A1,27,+5V*%
%TO.N,5V*%
X159630000Y-109870000D03*
%TO.P,A1,28,~{RESET}*%
%TO.N,unconnected-(A1-~{RESET}-Pad28)*%
X159630000Y-107330000D03*
%TO.P,A1,29,GND*%
%TO.N,GND*%
X159630000Y-104790000D03*
%TO.P,A1,30,VIN*%
%TO.N,unconnected-(A1-VIN-Pad30)*%
X159630000Y-102250000D03*
%TD*%
D18*
%TO.P,R6,1*%
%TO.N,GND*%
X161275000Y-74500000D03*
%TO.P,R6,2*%
%TO.N,Net-(P1-CLK{slash}SCK)*%
X164400000Y-74500000D03*
%TD*%
%TO.P,R8,1*%
%TO.N,GND*%
X161337500Y-80850000D03*
%TO.P,R8,2*%
%TO.N,Net-(P1-CMD{slash}MOSI)*%
X164462500Y-80850000D03*
%TD*%
D21*
%TO.P,BT1,1,+*%
%TO.N,Net-(BT1-+)*%
X171300000Y-73845000D03*
X171300000Y-90355000D03*
D22*
%TO.P,BT1,2,-*%
%TO.N,GND*%
X171300000Y-82100000D03*
%TD*%
D23*
%TO.P,U5,1,VI*%
%TO.N,Net-(U3-IN-)*%
X165350000Y-94700000D03*
%TO.P,U5,2,GND*%
%TO.N,GND*%
X165350000Y-97000000D03*
D24*
X171650000Y-97000000D03*
D23*
%TO.P,U5,3,VO*%
%TO.N,5V*%
X165350000Y-99300000D03*
%TD*%
D18*
%TO.P,R9,1*%
%TO.N,MOSI*%
X161337500Y-84200000D03*
%TO.P,R9,2*%
%TO.N,Net-(P1-CMD{slash}MOSI)*%
X164462500Y-84200000D03*
%TD*%
%TO.P,R10,1*%
%TO.N,GND*%
X161337500Y-87550000D03*
%TO.P,R10,2*%
%TO.N,Net-(P1-DAT3{slash}CS)*%
X164462500Y-87550000D03*
%TD*%
D25*
%TO.P,SW1,1,B*%
%TO.N,Net-(SW1-B)*%
X157260000Y-94900000D03*
D14*
%TO.P,SW1,2,C*%
%TO.N,Net-(D1-K)*%
X154720000Y-94900000D03*
%TO.P,SW1,3,A*%
%TO.N,unconnected-(SW1-A-Pad3)*%
X159800000Y-94900000D03*
%TD*%
D18*
%TO.P,R11,1*%
%TO.N,SD_CS*%
X161337500Y-90900000D03*
%TO.P,R11,2*%
%TO.N,Net-(P1-DAT3{slash}CS)*%
X164462500Y-90900000D03*
%TD*%
D26*
%TO.P,U2,1,32KHZ*%
%TO.N,unconnected-(U2-32KHZ-Pad1)*%
X149945000Y-79945000D03*
%TO.P,U2,2,VCC*%
%TO.N,3V3*%
X148675000Y-79945000D03*
%TO.P,U2,3,~{INT}/SQW*%
%TO.N,Net-(A1-D2)*%
X147405000Y-79945000D03*
%TO.P,U2,4,~{RST}*%
%TO.N,unconnected-(U2-~{RST}-Pad4)*%
X146135000Y-79945000D03*
%TO.P,U2,5,GND*%
%TO.N,GND*%
X144865000Y-79945000D03*
%TO.P,U2,6,GND*%
X143595000Y-79945000D03*
%TO.P,U2,7,GND*%
X142325000Y-79945000D03*
%TO.P,U2,8,GND*%
X141055000Y-79945000D03*
%TO.P,U2,9,GND*%
X141055000Y-89245000D03*
%TO.P,U2,10,GND*%
X142325000Y-89245000D03*
%TO.P,U2,11,GND*%
X143595000Y-89245000D03*
%TO.P,U2,12,GND*%
X144865000Y-89245000D03*
%TO.P,U2,13,GND*%
X146135000Y-89245000D03*
%TO.P,U2,14,VBAT*%
%TO.N,Net-(BT1-+)*%
X147405000Y-89245000D03*
%TO.P,U2,15,SDA*%
%TO.N,Net-(A1-A4)*%
X148675000Y-89245000D03*
%TO.P,U2,16,SCL*%
%TO.N,Net-(A1-A5)*%
X149945000Y-89245000D03*
%TD*%
D27*
%TO.P,C5,1*%
%TO.N,3V3*%
X155027400Y-74500000D03*
D28*
%TO.P,C5,2*%
%TO.N,GND*%
X157027400Y-74500000D03*
%TD*%
D29*
%TO.P,J1,1,1*%
%TO.N,Net-(U1-B+)*%
X168200000Y-145925000D03*
D30*
%TO.P,J1,2,2*%
%TO.N,Net-(U1-BM)*%
X170700000Y-145925000D03*
%TO.P,J1,3,3*%
%TO.N,Net-(U1-B-)*%
X173200000Y-145925000D03*
%TD*%
D31*
%TO.P,U1,1,P-*%
%TO.N,GND*%
X174700000Y-138560000D03*
%TO.P,U1,2,P+*%
%TO.N,Net-(D1-K)*%
X169620000Y-138560000D03*
%TO.P,U1,3,B-*%
%TO.N,Net-(U1-B-)*%
X174700000Y-103000000D03*
%TO.P,U1,4,BM*%
%TO.N,Net-(U1-BM)*%
X164540000Y-138560000D03*
%TO.P,U1,5,B+*%
%TO.N,Net-(U1-B+)*%
X164540000Y-103000000D03*
%TD*%
%TO.P,U4,1,VIN*%
%TO.N,3V3*%
X146722500Y-145327500D03*
%TO.P,U4,2,GND*%
%TO.N,GND*%
X144182500Y-145327500D03*
%TO.P,U4,3,SCL*%
%TO.N,Net-(A1-A5)*%
X141642500Y-145327500D03*
%TO.P,U4,4,SDA*%
%TO.N,Net-(A1-A4)*%
X139102500Y-145327500D03*
%TD*%
D14*
%TO.P,Ultrasonic_sensor1,1,GND*%
%TO.N,GND*%
X154180000Y-147600000D03*
%TO.P,Ultrasonic_sensor1,2,ECHO*%
%TO.N,Net-(A1-D8)*%
X156720000Y-147600000D03*
%TO.P,Ultrasonic_sensor1,3,TRIG*%
%TO.N,Net-(A1-D9)*%
X159260000Y-147600000D03*
%TO.P,Ultrasonic_sensor1,4,VCC*%
%TO.N,5V*%
X161800000Y-147600000D03*
%TD*%
D32*
%TO.P,J2,1,Pin_1*%
%TO.N,GND*%
X140000000Y-117540000D03*
D33*
%TO.P,J2,2,Pin_2*%
%TO.N,Net-(D1-A)*%
X140000000Y-115000000D03*
%TD*%
D34*
%TO.N,GND*%
X157400000Y-101900000D03*
X146300000Y-82100000D03*
X166300000Y-105200000D03*
X142800000Y-84500000D03*
%TO.N,Net-(A1-D2)*%
X147761000Y-110307000D03*
%TO.N,Net-(P1-CLK{slash}SCK)*%
X160046000Y-79405700D03*
%TO.N,MOSI*%
X157434000Y-76450400D03*
%TO.N,SD_CS*%
X160005000Y-91498100D03*
X148090000Y-107904000D03*
%TO.N,Net-(P1-DAT3{slash}CS)*%
X164014000Y-85875000D03*
%TO.N,Net-(P1-CMD{slash}MOSI)*%
X164239000Y-82413900D03*
%TO.N,MISO*%
X139739000Y-92912600D03*
X147781000Y-81895500D03*
%TO.N,3V3*%
X169093000Y-128946000D03*
%TO.N,5V*%
X165160000Y-100907000D03*
%TD*%
D35*
%TO.N,Net-(A1-A4)*%
X159630000Y-120030000D02*
X159630000Y-118903000D01*
X154226000Y-97788700D02*
X148675000Y-92237500D01*
X165033000Y-130466000D02*
X165033000Y-134077000D01*
X171930000Y-131067000D02*
X170934000Y-130071000D01*
X159630000Y-118903000D02*
X159348000Y-118903000D01*
X167746000Y-130466000D02*
X165033000Y-130466000D01*
X165033000Y-130466000D02*
X161945000Y-127378000D01*
X171930000Y-131450000D02*
X171930000Y-131067000D01*
X154226000Y-113781000D02*
X154226000Y-97788700D01*
X161945000Y-122345000D02*
X159630000Y-120030000D01*
X151252000Y-86200000D02*
X148675000Y-88776900D01*
X159348000Y-118903000D02*
X154226000Y-113781000D01*
X139102500Y-145327500D02*
X139102000Y-145328000D01*
X148675000Y-92237500D02*
X148675000Y-89245000D01*
X170934000Y-130071000D02*
X168141000Y-130071000D01*
X154312000Y-86200000D02*
X154312500Y-86200000D01*
X140248000Y-146473000D02*
X139102000Y-145328000D01*
X154312000Y-86200000D02*
X151252000Y-86200000D01*
X152637000Y-146473000D02*
X140248000Y-146473000D01*
X168141000Y-130071000D02*
X167746000Y-130466000D01*
X148675000Y-88776900D02*
X148675000Y-89245000D01*
X161945000Y-127378000D02*
X161945000Y-122345000D01*
X165033000Y-134077000D02*
X152637000Y-146473000D01*
%TO.N,Net-(A1-A5)*%
X141056000Y-144740000D02*
X141642000Y-145328000D01*
X153262000Y-146925000D02*
X139139000Y-146925000D01*
X154312000Y-90000000D02*
X154312000Y-90000200D01*
X139139000Y-146925000D02*
X138012000Y-145798000D01*
X149945000Y-89245000D02*
X153558000Y-89245000D01*
X154312000Y-90000000D02*
X154312000Y-90000200D01*
X138720000Y-144153000D02*
X140468000Y-144153000D01*
X173200000Y-131450000D02*
X173200000Y-131921000D01*
X138012000Y-144861000D02*
X138720000Y-144153000D01*
X138012000Y-145798000D02*
X138012000Y-144861000D01*
X173200000Y-131921000D02*
X172273000Y-132848000D01*
X156174000Y-91861800D02*
X156174000Y-113189000D01*
X156174000Y-113189000D02*
X159348000Y-116363000D01*
X172273000Y-132848000D02*
X167339000Y-132848000D01*
X154312500Y-90000000D02*
X154312000Y-90000000D01*
X153558000Y-89245000D02*
X154312000Y-90000000D01*
X141055000Y-144740000D02*
X141056000Y-144740000D01*
X167339000Y-132848000D02*
X153262000Y-146925000D01*
X141642000Y-145328000D02*
X141055000Y-144740000D01*
X159348000Y-116363000D02*
X159630000Y-116363000D01*
X141642500Y-145327500D02*
X141642000Y-145328000D01*
X140468000Y-144153000D02*
X141055000Y-144740000D01*
X154312000Y-90000200D02*
X156174000Y-91861800D01*
X159630000Y-116363000D02*
X159630000Y-117490000D01*
%TO.N,Net-(A1-A3)*%
X159630000Y-121443000D02*
X159630000Y-122570000D01*
X149798000Y-111796000D02*
X159445000Y-121443000D01*
X159445000Y-121443000D02*
X159630000Y-121443000D01*
X149793000Y-95305100D02*
X149798000Y-95310200D01*
X149798000Y-95310200D02*
X149798000Y-111796000D01*
X149788000Y-95300000D02*
X149793000Y-95305100D01*
X149793000Y-95305100D02*
X149792600Y-95305100D01*
X149792600Y-95305100D02*
X149787500Y-95300000D01*
%TO.N,Net-(A1-D2)*%
X154212000Y-82300200D02*
X154212000Y-82300000D01*
X147030000Y-80319700D02*
X147030000Y-82174100D01*
X147506000Y-82649800D02*
X153863000Y-82649800D01*
X148691000Y-93657400D02*
X146770000Y-91736500D01*
X154212000Y-82300200D02*
X154212300Y-82300200D01*
X154212300Y-82300200D02*
X154212500Y-82300000D01*
X147761000Y-110307000D02*
X149346000Y-108722000D01*
X146770000Y-83385800D02*
X147506000Y-82649800D01*
X147030000Y-82174100D02*
X147506000Y-82649800D01*
X146770000Y-91736500D02*
X146770000Y-83385800D01*
X149346000Y-108722000D02*
X149346000Y-102415000D01*
X149346000Y-102415000D02*
X148691000Y-101760000D01*
X154212000Y-82300400D02*
X154212000Y-82300200D01*
X153863000Y-82649800D02*
X154038000Y-82474900D01*
X148691000Y-101760000D02*
X148691000Y-93657400D01*
X154038000Y-82474900D02*
X154212000Y-82300400D01*
X147405000Y-79945000D02*
X147030000Y-80319700D01*
%TO.N,Net-(BT1-+)*%
X151205000Y-84989200D02*
X155022000Y-84989200D01*
X165091000Y-92224800D02*
X166961000Y-90355000D01*
X155641000Y-85608100D02*
X155641000Y-90273800D01*
X171300000Y-75921700D02*
X171300000Y-73845000D01*
X157592000Y-92224800D02*
X165091000Y-92224800D01*
X166961000Y-80261000D02*
X171300000Y-75921700D01*
X147405000Y-88789200D02*
X151205000Y-84989200D01*
X166961000Y-90355000D02*
X171300000Y-90355000D01*
X155022000Y-84989200D02*
X155641000Y-85608100D01*
X155641000Y-90273800D02*
X157592000Y-92224800D01*
X147405000Y-89245000D02*
X147405000Y-88789200D01*
X166961000Y-90355000D02*
X166961000Y-80261000D01*
%TO.N,Net-(U3-IN-)*%
X166000000Y-111188000D02*
X165900000Y-111288000D01*
X166981000Y-118193000D02*
X170660000Y-121872000D01*
X165900000Y-117112000D02*
X165900000Y-117112500D01*
X165350000Y-94700000D02*
X163432000Y-96618500D01*
X170660000Y-126500000D02*
X170660000Y-126884000D01*
X167353000Y-127934000D02*
X165900200Y-129387700D01*
X170660000Y-126884000D02*
X169609000Y-127934000D01*
X166000000Y-111188000D02*
X166000000Y-111187500D01*
X169609000Y-127934000D02*
X167353000Y-127934000D01*
X170660000Y-121872000D02*
X170660000Y-126500000D01*
X165900000Y-129387500D02*
X165900200Y-129387700D01*
X165900000Y-117112000D02*
X166981000Y-118193000D01*
X166981000Y-118193000D02*
X166980000Y-118193000D01*
X163432000Y-96618500D02*
X163432000Y-108619000D01*
X166980000Y-118193000D02*
X165900000Y-117112000D01*
X165900200Y-129387700D02*
X165900000Y-129388000D01*
X165900000Y-111288000D02*
X165900000Y-117112000D01*
X163432000Y-108619000D02*
X166000000Y-111188000D01*
%TO.N,Net-(D2-A)*%
X144665000Y-95300000D02*
X144465000Y-95100000D01*
X146812000Y-95300000D02*
X144665000Y-95300000D01*
X146812000Y-95300000D02*
X146812500Y-95300000D01*
%TO.N,Net-(P1-CLK{slash}SCK)*%
X164462000Y-77500000D02*
X164462500Y-77500000D01*
X164400000Y-77500000D02*
X164462000Y-77500000D01*
X164400000Y-77500000D02*
X164400000Y-74500000D01*
X160046000Y-79405700D02*
X162494000Y-79405700D01*
X162494000Y-79405700D02*
X164400000Y-77500000D01*
%TO.N,MOSI*%
X140420000Y-92519900D02*
X140420000Y-75370400D01*
X141238000Y-74551900D02*
X143077000Y-74551900D01*
X144390000Y-134143000D02*
X144108000Y-134143000D01*
X157434000Y-76450400D02*
X157434000Y-80296200D01*
X161338000Y-84199800D02*
X161338000Y-84200000D01*
X142097000Y-132132000D02*
X142097000Y-97533900D01*
X140512000Y-92611600D02*
X140420000Y-92519900D01*
X161338000Y-84199400D02*
X161338000Y-84199800D01*
X140420000Y-75370400D02*
X141238000Y-74551900D01*
X144108000Y-134143000D02*
X142097000Y-132132000D01*
X160362000Y-83223900D02*
X161338000Y-84199400D01*
X157434000Y-80296200D02*
X160362000Y-83223900D01*
X142097000Y-97533900D02*
X140512000Y-95948800D01*
X161337500Y-84200000D02*
X161338000Y-84200000D01*
X140512000Y-95948800D02*
X140512000Y-92611600D01*
X160362000Y-83223900D02*
X161338000Y-84199800D01*
X143077000Y-74551900D02*
X144230000Y-75705000D01*
X144390000Y-135270000D02*
X144390000Y-134143000D01*
%TO.N,SD_CS*%
X145517000Y-130758000D02*
X145517000Y-110477000D01*
X144390000Y-132730000D02*
X144390000Y-131603000D01*
X144672000Y-131603000D02*
X145517000Y-130758000D01*
X161337500Y-90900000D02*
X160604000Y-90900000D01*
X145517000Y-110477000D02*
X148090000Y-107904000D01*
X161338000Y-90900000D02*
X161337500Y-90900000D01*
X144390000Y-131603000D02*
X144672000Y-131603000D01*
X160604000Y-90900000D02*
X160005000Y-91498100D01*
%TO.N,Net-(U1-B-)*%
X174700000Y-132112000D02*
X174700000Y-103000000D01*
X173200000Y-145925000D02*
X173200000Y-133612000D01*
X173200000Y-133612000D02*
X174700000Y-132112000D01*
%TO.N,Net-(U1-B+)*%
X170226000Y-147006000D02*
X173674000Y-147006000D01*
X169281000Y-145925000D02*
X169281000Y-146060000D01*
X175792000Y-144887000D02*
X175792000Y-102532000D01*
X175792000Y-102532000D02*
X175147000Y-101887000D01*
X168200000Y-145925000D02*
X169281000Y-145925000D01*
X173674000Y-147006000D02*
X175792000Y-144887000D01*
X165653000Y-101887000D02*
X164540000Y-103000000D01*
X175147000Y-101887000D02*
X165653000Y-101887000D01*
X169281000Y-146060000D02*
X170226000Y-147006000D01*
%TO.N,Net-(P1-DAT3{slash}CS)*%
X164462000Y-88372000D02*
X164462000Y-89636000D01*
X164462000Y-89636000D02*
X164462500Y-89636500D01*
X164462500Y-86895800D02*
X164462500Y-87550000D01*
X164462500Y-88371500D02*
X164462500Y-87550000D01*
X164462000Y-88372000D02*
X164462500Y-88371500D01*
X164462000Y-87529400D02*
X164462000Y-88372000D01*
X164014000Y-85875000D02*
X164462000Y-86323300D01*
X164462000Y-86323300D02*
X164462000Y-86895300D01*
X164462000Y-89636000D02*
X164462000Y-90900000D01*
X164462000Y-86895300D02*
X164462000Y-87467400D01*
X164462000Y-86895300D02*
X164462500Y-86895800D01*
X164462500Y-89636500D02*
X164462500Y-90900000D01*
%TO.N,Net-(P1-CMD{slash}MOSI)*%
X164350000Y-84088200D02*
X164351000Y-84088200D01*
X164351000Y-84088200D02*
X164406000Y-84144100D01*
X164462000Y-81854700D02*
X164462000Y-81520100D01*
X164462000Y-81854700D02*
X164462000Y-81520100D01*
X164239000Y-82413900D02*
X164462000Y-82190300D01*
X164406000Y-84144100D02*
X164434000Y-84172000D01*
X164406000Y-84144100D02*
X164407000Y-84144100D01*
X164239000Y-83976400D02*
X164350000Y-84088200D01*
X164462000Y-84200000D02*
X164434000Y-84172000D01*
X164407000Y-84144100D02*
X164462000Y-84200000D01*
X164462000Y-81855200D02*
X164462000Y-81854700D01*
X164462500Y-84200000D02*
X164462000Y-84200000D01*
X164406000Y-84144100D02*
X164350000Y-84088200D01*
X164462500Y-80850000D02*
X164462000Y-80850000D01*
X164462000Y-82190300D02*
X164462000Y-81855200D01*
X164239000Y-82413900D02*
X164239000Y-83976400D01*
X164434000Y-84172000D02*
X164406000Y-84144100D01*
X164434000Y-84172000D02*
X164462000Y-84200000D01*
X164462000Y-81520100D02*
X164462000Y-80850000D01*
X164462000Y-81855200D02*
X164462000Y-81854700D01*
%TO.N,Net-(SW1-B)*%
X165900000Y-122756000D02*
X165900000Y-121422000D01*
X161605000Y-100321000D02*
X157260000Y-95976700D01*
X157260000Y-95976700D02*
X157260000Y-94900000D01*
X165900000Y-122756000D02*
X165900000Y-121422000D01*
X165900000Y-120088000D02*
X165899800Y-120087700D01*
X169390000Y-126500000D02*
X169302000Y-126412000D01*
X165900000Y-121422000D02*
X165900000Y-120088000D01*
X165900000Y-121422000D02*
X165900000Y-120088000D01*
X161605000Y-115792000D02*
X161605000Y-100321000D01*
X165900000Y-126412000D02*
X165900000Y-122756000D01*
X165899800Y-120087700D02*
X161605000Y-115792000D01*
X165900000Y-120087500D02*
X165899800Y-120087700D01*
X165900500Y-126412000D02*
X165900000Y-126412000D01*
X165900500Y-126412000D02*
X165900000Y-126412500D01*
X169302000Y-126412000D02*
X165900500Y-126412000D01*
%TO.N,SCK*%
X161338000Y-77406100D02*
X161338000Y-77429500D01*
X147025000Y-124360000D02*
X147025000Y-109996000D01*
X159348000Y-136683000D02*
X147025000Y-124360000D01*
X161338000Y-77429500D02*
X161338000Y-77430000D01*
X148855000Y-108268000D02*
X148855000Y-105264000D01*
X145500000Y-74435000D02*
X144230000Y-73165000D01*
X144230000Y-73165000D02*
X145414000Y-71980500D01*
X145414000Y-71980500D02*
X155912000Y-71980500D01*
X161338000Y-77453000D02*
X161338000Y-77476500D01*
X148387000Y-108634000D02*
X148489000Y-108634000D01*
X161338000Y-77430000D02*
X161338000Y-77453000D01*
X161337500Y-77477000D02*
X161337500Y-77500000D01*
X148205000Y-94786700D02*
X145500000Y-92081500D01*
X161338000Y-77430000D02*
X161338000Y-77453000D01*
X148489000Y-108634000D02*
X148855000Y-108268000D01*
X161338000Y-77476500D02*
X161337500Y-77477000D01*
X159630000Y-136683000D02*
X159348000Y-136683000D01*
X148205000Y-104614000D02*
X148205000Y-94786700D01*
X161338000Y-77429500D02*
X161338000Y-77430000D01*
X145500000Y-92081500D02*
X145500000Y-74435000D01*
X155912000Y-71980500D02*
X161338000Y-77406100D01*
X159630000Y-137810000D02*
X159630000Y-136683000D01*
X161338000Y-77476500D02*
X161338000Y-77500000D01*
X147025000Y-109996000D02*
X148387000Y-108634000D01*
X148855000Y-105264000D02*
X148205000Y-104614000D01*
%TO.N,MISO*%
X148032000Y-81644000D02*
X147781000Y-81895500D01*
X141637000Y-134212000D02*
X141637000Y-109821000D01*
X148032000Y-74427300D02*
X148032000Y-81644000D01*
X141637000Y-109821000D02*
X139739000Y-107924000D01*
X146770000Y-73165000D02*
X148032000Y-74427300D01*
X139739000Y-107924000D02*
X139739000Y-92912600D01*
X144390000Y-136683000D02*
X144108000Y-136683000D01*
X144108000Y-136683000D02*
X141637000Y-134212000D01*
X144390000Y-137810000D02*
X144390000Y-136683000D01*
%TO.N,3V3*%
X171179000Y-128946000D02*
X169093000Y-128946000D01*
X139012000Y-75842500D02*
X139012000Y-110037000D01*
X148675000Y-79450600D02*
X148675000Y-79945000D01*
X146722500Y-145327500D02*
X146722000Y-145328000D01*
X157288000Y-86199500D02*
X157288000Y-86200000D01*
X173200000Y-114788000D02*
X173200000Y-126500000D01*
X139150000Y-75705000D02*
X139012000Y-75842500D01*
X169600000Y-111188000D02*
X173200000Y-114788000D01*
X141177000Y-139782000D02*
X146722000Y-145328000D01*
X157287500Y-86200000D02*
X157288000Y-86200000D01*
X149578000Y-78547600D02*
X148675000Y-79450600D01*
X155027400Y-74500000D02*
X155027000Y-74500000D01*
X141177000Y-112201000D02*
X141177000Y-139782000D01*
X155027000Y-80139900D02*
X157188000Y-82299800D01*
X157187500Y-82300000D02*
X157188000Y-82300000D01*
X155027000Y-74500000D02*
X155027000Y-78547600D01*
X157287500Y-90000000D02*
X157288000Y-90000000D01*
X157288000Y-86199500D02*
X157288000Y-86200000D01*
X169600000Y-111188000D02*
X169600000Y-111187500D01*
X139012000Y-110037000D02*
X141177000Y-112201000D01*
X157188000Y-82300000D02*
X157188000Y-82299800D01*
X157188000Y-86100000D02*
X157288000Y-86199500D01*
X173200000Y-126925000D02*
X171179000Y-128946000D01*
X173200000Y-126500000D02*
X173200000Y-126925000D01*
X157288000Y-86200000D02*
X157288000Y-90000000D01*
X157188000Y-82299800D02*
X157188000Y-82300000D01*
X157188000Y-82300000D02*
X157188000Y-86100000D01*
X155027000Y-78547600D02*
X149578000Y-78547600D01*
X155027000Y-78547600D02*
X155027000Y-80139900D01*
%TO.N,nRF_CS*%
X141690000Y-90723000D02*
X141690000Y-75705000D01*
X144390000Y-125110000D02*
X144390000Y-123983000D01*
X143195000Y-123070000D02*
X143195000Y-92227900D01*
X144108000Y-123983000D02*
X143195000Y-123070000D01*
X144390000Y-123983000D02*
X144108000Y-123983000D01*
X143195000Y-92227900D02*
X141690000Y-90723000D01*
%TO.N,5V*%
X175000000Y-99487500D02*
X165350000Y-99487500D01*
X165350000Y-100716000D02*
X165350000Y-99487500D01*
X165160000Y-100907000D02*
X165350000Y-100716000D01*
X165350000Y-99487500D02*
X165350000Y-99300000D01*
%TD*%
%TA.AperFunction,Conductor*%
%TO.N,GND*%
G36*
X174319000Y-138610160D02*
G01*
X174344964Y-138707061D01*
X174395124Y-138793940D01*
X174466060Y-138864876D01*
X174552939Y-138915036D01*
X174649840Y-138941000D01*
X174672552Y-138941000D01*
X174001810Y-139611740D01*
X174066590Y-139657099D01*
X174066592Y-139657100D01*
X174266715Y-139750419D01*
X174266729Y-139750424D01*
X174480013Y-139807573D01*
X174480023Y-139807575D01*
X174699999Y-139826821D01*
X174700001Y-139826821D01*
X174919976Y-139807575D01*
X174919986Y-139807573D01*
X175133270Y-139750424D01*
X175133279Y-139750420D01*
X175290095Y-139677297D01*
X175359173Y-139666805D01*
X175422957Y-139695325D01*
X175461196Y-139753801D01*
X175466500Y-139789679D01*
X175466500Y-144700872D01*
X175446815Y-144767911D01*
X175430202Y-144788533D01*
X174356640Y-145862601D01*
X174295325Y-145896100D01*
X174225632Y-145891132D01*
X174169688Y-145849274D01*
X174145535Y-145787092D01*
X174140689Y-145737885D01*
X174140688Y-145737882D01*
X174121673Y-145675199D01*
X174086109Y-145557961D01*
X174069566Y-145527011D01*
X173997481Y-145392148D01*
X173997476Y-145392142D01*
X173878199Y-145246800D01*
X173732857Y-145127523D01*
X173732854Y-145127521D01*
X173591046Y-145051722D01*
X173541202Y-145002759D01*
X173525500Y-144942364D01*
X173525500Y-139382770D01*
X173545185Y-139315731D01*
X173597989Y-139269976D01*
X173644478Y-139261968D01*
X174319000Y-138587446D01*
X174319000Y-138610160D01*
G37*
%TD.AperFunction*%
%TA.AperFunction,Conductor*%
G36*
X175397012Y-103766883D02*
G01*
X175448572Y-103814034D01*
X175466500Y-103878258D01*
X175466500Y-137330320D01*
X175446815Y-137397359D01*
X175394011Y-137443114D01*
X175324853Y-137453058D01*
X175290096Y-137442702D01*
X175133284Y-137369580D01*
X175133270Y-137369575D01*
X174919986Y-137312426D01*
X174919976Y-137312424D01*
X174700001Y-137293179D01*
X174699999Y-137293179D01*
X174480023Y-137312424D01*
X174480013Y-137312426D01*
X174266729Y-137369575D01*
X174266720Y-137369579D01*
X174066590Y-137462901D01*
X174001811Y-137508258D01*
X174672553Y-138179000D01*
X174649840Y-138179000D01*
X174552939Y-138204964D01*
X174466060Y-138255124D01*
X174395124Y-138326060D01*
X174344964Y-138412939D01*
X174319000Y-138509840D01*
X174319000Y-138532553D01*
X173643906Y-137857459D01*
X173591807Y-137846989D01*
X173541624Y-137798373D01*
X173525500Y-137737228D01*
X173525500Y-133798189D01*
X173545185Y-133731150D01*
X173561819Y-133710508D01*
X174163865Y-133108462D01*
X174960465Y-132311862D01*
X174995266Y-132251584D01*
X175003318Y-132237638D01*
X175025500Y-132154853D01*
X175025500Y-103991706D01*
X175045185Y-103924667D01*
X175091045Y-103882349D01*
X175237324Y-103804162D01*
X175263835Y-103782404D01*
X175328144Y-103755092D01*
X175397012Y-103766883D01*
G37*
%TD.AperFunction*%
%TA.AperFunction,Conductor*%
G36*
X142175000Y-96500000D02*
G01*
X142745500Y-96500000D01*
X142812539Y-96519685D01*
X142858294Y-96572489D01*
X142869500Y-96624000D01*
X142869500Y-123112852D01*
X142891682Y-123195640D01*
X142913108Y-123232750D01*
X142934535Y-123269862D01*
X142934537Y-123269864D01*
X143793655Y-124128982D01*
X143827140Y-124190305D01*
X143822156Y-124259997D01*
X143784639Y-124312516D01*
X143679116Y-124399116D01*
X143554090Y-124551460D01*
X143554086Y-124551467D01*
X143461188Y-124725266D01*
X143403975Y-124913870D01*
X143384659Y-125110000D01*
X143403975Y-125306129D01*
X143403976Y-125306132D01*
X143456662Y-125479815D01*
X143461188Y-125494733D01*
X143554086Y-125668532D01*
X143554090Y-125668539D01*
X143679116Y-125820883D01*
X143831460Y-125945909D01*
X143831467Y-125945913D01*
X144005266Y-126038811D01*
X144005269Y-126038811D01*
X144005273Y-126038814D01*
X144193868Y-126096024D01*
X144390000Y-126115341D01*
X144586132Y-126096024D01*
X144774727Y-126038814D01*
X144792080Y-126029539D01*
X144948532Y-125945913D01*
X144948538Y-125945910D01*
X144988835Y-125912839D01*
X145053144Y-125885526D01*
X145122012Y-125897317D01*
X145173572Y-125944469D01*
X145191500Y-126008692D01*
X145191500Y-126751307D01*
X145171815Y-126818346D01*
X145119011Y-126864101D01*
X145049853Y-126874045D01*
X144988836Y-126847161D01*
X144948538Y-126814090D01*
X144948532Y-126814086D01*
X144774733Y-126721188D01*
X144774727Y-126721186D01*
X144586132Y-126663976D01*
X144586129Y-126663975D01*
X144390000Y-126644659D01*
X144193870Y-126663975D01*
X144005266Y-126721188D01*
X143831467Y-126814086D01*
X143831460Y-126814090D01*
X143679116Y-126939116D01*
X143554090Y-127091460D01*
X143554086Y-127091467D01*
X143461188Y-127265266D01*
X143403975Y-127453870D01*
X143384659Y-127650000D01*
X143403975Y-127846129D01*
X143461188Y-128034733D01*
X143554086Y-128208532D01*
X143554090Y-128208539D01*
X143679116Y-128360883D01*
X143831460Y-128485909D01*
X143831467Y-128485913D01*
X144005266Y-128578811D01*
X144005269Y-128578811D01*
X144005273Y-128578814D01*
X144193868Y-128636024D01*
X144390000Y-128655341D01*
X144586132Y-128636024D01*
X144774727Y-128578814D01*
X144787502Y-128571986D01*
X144948532Y-128485913D01*
X144948538Y-128485910D01*
X144988835Y-128452839D01*
X145053144Y-128425526D01*
X145122012Y-128437317D01*
X145173572Y-128484469D01*
X145191500Y-128548692D01*
X145191500Y-129291307D01*
X145171815Y-129358346D01*
X145119011Y-129404101D01*
X145049853Y-129414045D01*
X144988836Y-129387161D01*
X144948538Y-129354090D01*
X144948532Y-129354086D01*
X144774733Y-129261188D01*
X144774727Y-129261186D01*
X144586132Y-129203976D01*
X144586129Y-129203975D01*
X144390000Y-129184659D01*
X144193870Y-129203975D01*
X144005266Y-129261188D01*
X143831467Y-129354086D01*
X143831460Y-129354090D01*
X143679116Y-129479116D01*
X143554090Y-129631460D01*
X143554086Y-129631467D01*
X143461188Y-129805266D01*
X143403975Y-129993870D01*
X143384659Y-130190000D01*
X143403975Y-130386129D01*
X143461188Y-130574733D01*
X143554086Y-130748532D01*
X143554090Y-130748539D01*
X143679116Y-130900883D01*
X143831460Y-131025909D01*
X143831467Y-131025913D01*
X144005268Y-131118812D01*
X144005270Y-131118812D01*
X144005273Y-131118814D01*
X144120790Y-131153856D01*
X144179228Y-131192153D01*
X144207684Y-131255965D01*
X144197124Y-131325032D01*
X144172476Y-131360196D01*
X144129536Y-131403136D01*
X144129530Y-131403144D01*
X144086685Y-131477355D01*
X144086682Y-131477362D01*
X144064500Y-131560147D01*
X144064500Y-131695205D01*
X144044815Y-131762244D01*
X143998953Y-131804563D01*
X143831467Y-131894085D01*
X143831460Y-131894090D01*
X143679116Y-132019116D01*
X143554090Y-132171460D01*
X143554086Y-132171467D01*
X143461188Y-132345266D01*
X143403975Y-132533870D01*
X143389794Y-132677856D01*
X143363633Y-132742644D01*
X143306598Y-132783002D01*
X143236798Y-132786119D01*
X143178710Y-132753383D01*
X142458819Y-132033492D01*
X142425334Y-131972169D01*
X142422500Y-131945811D01*
X142422500Y-97548194D01*
X142422502Y-97491057D01*
X142422500Y-97491049D01*
X142422500Y-97491047D01*
X142415856Y-97466254D01*
X142400322Y-97408271D01*
X142400319Y-97408265D01*
X142400318Y-97408262D01*
X142380435Y-97373823D01*
X142359304Y-97337221D01*
X142357832Y-97334485D01*
X142357600Y-97334173D01*
X142325821Y-97302394D01*
X142149438Y-97126000D01*
X141686910Y-96663442D01*
X141653428Y-96602120D01*
X141658415Y-96532429D01*
X141675000Y-96506623D01*
X141675000Y-95475277D01*
X141751306Y-95519333D01*
X141865756Y-95550000D01*
X141984244Y-95550000D01*
X142098694Y-95519333D01*
X142175000Y-95475277D01*
X142175000Y-96500000D01*
G37*
%TD.AperFunction*%
%TA.AperFunction,Conductor*%
G36*
X173906015Y-102232185D02*
G01*
X173951770Y-102284989D01*
X173961714Y-102354147D01*
X173934829Y-102415165D01*
X173895838Y-102462674D01*
X173895834Y-102462681D01*
X173806466Y-102629877D01*
X173806465Y-102629880D01*
X173806464Y-102629882D01*
X173806463Y-102629885D01*
X173783921Y-102704194D01*
X173751426Y-102811318D01*
X173732843Y-103000000D01*
X173751426Y-103188681D01*
X173769772Y-103249160D01*
X173806463Y-103370115D01*
X173806464Y-103370118D01*
X173806465Y-103370119D01*
X173806466Y-103370122D01*
X173895834Y-103537318D01*
X173895838Y-103537325D01*
X174016116Y-103683883D01*
X174162674Y-103804161D01*
X174162677Y-103804163D01*
X174181145Y-103814034D01*
X174308954Y-103882349D01*
X174358797Y-103931309D01*
X174374500Y-103991706D01*
X174374500Y-131925811D01*
X174354815Y-131992850D01*
X174338181Y-132013492D01*
X173906285Y-132445387D01*
X173844962Y-132478872D01*
X173775270Y-132473888D01*
X173719337Y-132432016D01*
X173694920Y-132366552D01*
X173695899Y-132339833D01*
X173700500Y-132308260D01*
X173700500Y-130591740D01*
X173690573Y-130523607D01*
X173639198Y-130418517D01*
X173639196Y-130418515D01*
X173639196Y-130418514D01*
X173556485Y-130335803D01*
X173451391Y-130284426D01*
X173383261Y-130274500D01*
X173383260Y-130274500D01*
X173016740Y-130274500D01*
X173016739Y-130274500D01*
X172948608Y-130284426D01*
X172843514Y-130335803D01*
X172760803Y-130418514D01*
X172709426Y-130523608D01*
X172699500Y-130591739D01*
X172699500Y-131909811D01*
X172679815Y-131976850D01*
X172663181Y-131997492D01*
X172642181Y-132018492D01*
X172580858Y-132051977D01*
X172511166Y-132046993D01*
X172455233Y-132005121D01*
X172430816Y-131939657D01*
X172430500Y-131930811D01*
X172430500Y-130591739D01*
X172420573Y-130523608D01*
X172420573Y-130523607D01*
X172369198Y-130418517D01*
X172369196Y-130418515D01*
X172369196Y-130418514D01*
X172286485Y-130335803D01*
X172181391Y-130284426D01*
X172113261Y-130274500D01*
X172113260Y-130274500D01*
X171746740Y-130274500D01*
X171746739Y-130274500D01*
X171678330Y-130284467D01*
X171609153Y-130274654D01*
X171572771Y-130249444D01*
X171133864Y-129810537D01*
X171133862Y-129810535D01*
X171096750Y-129789108D01*
X171059640Y-129767682D01*
X171018246Y-129756591D01*
X170976853Y-129745500D01*
X169355409Y-129745500D01*
X169288370Y-129725815D01*
X169242615Y-129673011D01*
X169232671Y-129603853D01*
X169261696Y-129540297D01*
X169307955Y-129506939D01*
X169395841Y-129470536D01*
X169521282Y-129374282D01*
X169562923Y-129320013D01*
X169619351Y-129278811D01*
X169661299Y-129271500D01*
X171221851Y-129271500D01*
X171221853Y-129271500D01*
X171304639Y-129249318D01*
X171378862Y-129206465D01*
X172879430Y-127705894D01*
X172940751Y-127672411D01*
X172984984Y-127670873D01*
X173016740Y-127675500D01*
X173016742Y-127675500D01*
X173383261Y-127675500D01*
X173415017Y-127670873D01*
X173451393Y-127665573D01*
X173556483Y-127614198D01*
X173639198Y-127531483D01*
X173690573Y-127426393D01*
X173700500Y-127358260D01*
X173700500Y-125641740D01*
X173690573Y-125573607D01*
X173639198Y-125468517D01*
X173639196Y-125468515D01*
X173639196Y-125468514D01*
X173561819Y-125391137D01*
X173528334Y-125329814D01*
X173525500Y-125303456D01*
X173525500Y-114745149D01*
X173525500Y-114745147D01*
X173507543Y-114678130D01*
X173507542Y-114678122D01*
X173503318Y-114662362D01*
X173503318Y-114662361D01*
X173481891Y-114625250D01*
X173460465Y-114588138D01*
X173399862Y-114527535D01*
X173399861Y-114527534D01*
X173395531Y-114523204D01*
X173395520Y-114523194D01*
X170708240Y-111835913D01*
X170674755Y-111774590D01*
X170672463Y-111736655D01*
X170673747Y-111722952D01*
X170675500Y-111704265D01*
X170675499Y-110670736D01*
X170672646Y-110640302D01*
X170627793Y-110512118D01*
X170547150Y-110402850D01*
X170437882Y-110322207D01*
X170437881Y-110322206D01*
X170309695Y-110277353D01*
X170309698Y-110277353D01*
X170279268Y-110274500D01*
X168920741Y-110274500D01*
X168890301Y-110277354D01*
X168890300Y-110277354D01*
X168762118Y-110322206D01*
X168652850Y-110402850D01*
X168572206Y-110512118D01*
X168527353Y-110640302D01*
X168524500Y-110670731D01*
X168524500Y-111704258D01*
X168527354Y-111734698D01*
X168527354Y-111734699D01*
X168572206Y-111862881D01*
X168572207Y-111862882D01*
X168652850Y-111972150D01*
X168762118Y-112052793D01*
X168890302Y-112097646D01*
X168890301Y-112097646D01*
X168894271Y-112098018D01*
X168920735Y-112100500D01*
X170000810Y-112100499D01*
X170067849Y-112120184D01*
X170088491Y-112136818D01*
X172838181Y-114886507D01*
X172871666Y-114947830D01*
X172874500Y-114974188D01*
X172874500Y-125288248D01*
X172854815Y-125355287D01*
X172802011Y-125401042D01*
X172732853Y-125410986D01*
X172669297Y-125381961D01*
X172643768Y-125351369D01*
X172597685Y-125273447D01*
X172597678Y-125273438D01*
X172481561Y-125157321D01*
X172481552Y-125157314D01*
X172340196Y-125073717D01*
X172340193Y-125073716D01*
X172182494Y-125027900D01*
X172182497Y-125027900D01*
X172180000Y-125027703D01*
X172180000Y-126376000D01*
X172160315Y-126443039D01*
X172107511Y-126488794D01*
X172056000Y-126500000D01*
X171804000Y-126500000D01*
X171736961Y-126480315D01*
X171691206Y-126427511D01*
X171680000Y-126376000D01*
X171680000Y-125027703D01*
X171677503Y-125027900D01*
X171519806Y-125073716D01*
X171519803Y-125073717D01*
X171378447Y-125157314D01*
X171378438Y-125157321D01*
X171262321Y-125273438D01*
X171262314Y-125273447D01*
X171216232Y-125351369D01*
X171165163Y-125399053D01*
X171096421Y-125411556D01*
X171031832Y-125384911D01*
X170991902Y-125327575D01*
X170985500Y-125288248D01*
X170985500Y-121924855D01*
X170985501Y-121924842D01*
X170985501Y-121829148D01*
X170976095Y-121794045D01*
X170963318Y-121746361D01*
X170941891Y-121709250D01*
X170920465Y-121672138D01*
X170859862Y-121611535D01*
X170859861Y-121611534D01*
X170855531Y-121607204D01*
X170855520Y-121607194D01*
X167180862Y-117932535D01*
X167008325Y-117759998D01*
X166974840Y-117698675D01*
X166972548Y-117660737D01*
X166972645Y-117659700D01*
X166972646Y-117659698D01*
X166975500Y-117629265D01*
X166975499Y-116595736D01*
X166972646Y-116565302D01*
X166927793Y-116437118D01*
X166847150Y-116327850D01*
X166737882Y-116247207D01*
X166737881Y-116247206D01*
X166609695Y-116202353D01*
X166609698Y-116202353D01*
X166579269Y-116199500D01*
X166579265Y-116199500D01*
X166349500Y-116199500D01*
X166282461Y-116179815D01*
X166236706Y-116127011D01*
X166225500Y-116075500D01*
X166225500Y-112224499D01*
X166245185Y-112157460D01*
X166297989Y-112111705D01*
X166349500Y-112100499D01*
X166679258Y-112100499D01*
X166679264Y-112100499D01*
X166709698Y-112097646D01*
X166837882Y-112052793D01*
X166947150Y-111972150D01*
X167027793Y-111862882D01*
X167072646Y-111734698D01*
X167075500Y-111704265D01*
X167075499Y-110670736D01*
X167072646Y-110640302D01*
X167027793Y-110512118D01*
X166947150Y-110402850D01*
X166837882Y-110322207D01*
X166837881Y-110322206D01*
X166709695Y-110277353D01*
X166709698Y-110277353D01*
X166679269Y-110274500D01*
X166679265Y-110274500D01*
X165598469Y-110274500D01*
X165531430Y-110254815D01*
X165510771Y-110238164D01*
X165509532Y-110236925D01*
X164416377Y-109143344D01*
X163998181Y-108724985D01*
X164625000Y-108724985D01*
X164635493Y-108827689D01*
X164635494Y-108827696D01*
X164690641Y-108994118D01*
X164690643Y-108994123D01*
X164782684Y-109143344D01*
X164906655Y-109267315D01*
X165055876Y-109359356D01*
X165055881Y-109359358D01*
X165222303Y-109414505D01*
X165222310Y-109414506D01*
X165325014Y-109424999D01*
X165325027Y-109425000D01*
X165750000Y-109425000D01*
X166250000Y-109425000D01*
X166674973Y-109425000D01*
X166674985Y-109424999D01*
X166777689Y-109414506D01*
X166777696Y-109414505D01*
X166944118Y-109359358D01*
X166944123Y-109359356D01*
X167093344Y-109267315D01*
X167217315Y-109143344D01*
X167309356Y-108994123D01*
X167309358Y-108994118D01*
X167364505Y-108827696D01*
X167364506Y-108827689D01*
X167374999Y-108724985D01*
X168225000Y-108724985D01*
X168235493Y-108827689D01*
X168235494Y-108827696D01*
X168290641Y-108994118D01*
X168290643Y-108994123D01*
X168382684Y-109143344D01*
X168506655Y-109267315D01*
X168655876Y-109359356D01*
X168655881Y-109359358D01*
X168822303Y-109414505D01*
X168822310Y-109414506D01*
X168925014Y-109424999D01*
X168925027Y-109425000D01*
X169350000Y-109425000D01*
X169850000Y-109425000D01*
X170274973Y-109425000D01*
X170274985Y-109424999D01*
X170377689Y-109414506D01*
X170377696Y-109414505D01*
X170544118Y-109359358D01*
X170544123Y-109359356D01*
X170693344Y-109267315D01*
X170817315Y-109143344D01*
X170909356Y-108994123D01*
X170909358Y-108994118D01*
X170964505Y-108827696D01*
X170964506Y-108827689D01*
X170974999Y-108724985D01*
X170975000Y-108724972D01*
X170975000Y-108462500D01*
X169850000Y-108462500D01*
X169850000Y-109425000D01*
X169350000Y-109425000D01*
X169350000Y-108462500D01*
X168225000Y-108462500D01*
X168225000Y-108724985D01*
X167374999Y-108724985D01*
X167375000Y-108724972D01*
X167375000Y-108462500D01*
X166250000Y-108462500D01*
X166250000Y-109425000D01*
X165750000Y-109425000D01*
X165750000Y-108462500D01*
X164625000Y-108462500D01*
X164625000Y-108724985D01*
X163998181Y-108724985D01*
X163793802Y-108520526D01*
X163760329Y-108459196D01*
X163757500Y-108432862D01*
X163757500Y-107700014D01*
X164625000Y-107700014D01*
X164625000Y-107962500D01*
X165750000Y-107962500D01*
X166250000Y-107962500D01*
X167375000Y-107962500D01*
X167375000Y-107700027D01*
X167374999Y-107700014D01*
X168225000Y-107700014D01*
X168225000Y-107962500D01*
X169350000Y-107962500D01*
X169850000Y-107962500D01*
X170975000Y-107962500D01*
X170975000Y-107700027D01*
X170974999Y-107700014D01*
X170964506Y-107597310D01*
X170964505Y-107597303D01*
X170909358Y-107430881D01*
X170909356Y-107430876D01*
X170817315Y-107281655D01*
X170693344Y-107157684D01*
X170544123Y-107065643D01*
X170544118Y-107065641D01*
X170377696Y-107010494D01*
X170377689Y-107010493D01*
X170274985Y-107000000D01*
X169850000Y-107000000D01*
X169850000Y-107962500D01*
X169350000Y-107962500D01*
X169350000Y-107000000D01*
X168925014Y-107000000D01*
X168822310Y-107010493D01*
X168822303Y-107010494D01*
X168655881Y-107065641D01*
X168655876Y-107065643D01*
X168506655Y-107157684D01*
X168382684Y-107281655D01*
X168290643Y-107430876D01*
X168290641Y-107430881D01*
X168235494Y-107597303D01*
X168235493Y-107597310D01*
X168225000Y-107700014D01*
X167374999Y-107700014D01*
X167364506Y-107597310D01*
X167364505Y-107597303D01*
X167309358Y-107430881D01*
X167309356Y-107430876D01*
X167217315Y-107281655D01*
X167093344Y-107157684D01*
X166944123Y-107065643D01*
X166944118Y-107065641D01*
X166777696Y-107010494D01*
X166777689Y-107010493D01*
X166674985Y-107000000D01*
X166250000Y-107000000D01*
X166250000Y-107962500D01*
X165750000Y-107962500D01*
X165750000Y-107000000D01*
X165325014Y-107000000D01*
X165222310Y-107010493D01*
X165222303Y-107010494D01*
X165055881Y-107065641D01*
X165055876Y-107065643D01*
X164906655Y-107157684D01*
X164782684Y-107281655D01*
X164690643Y-107430876D01*
X164690641Y-107430881D01*
X164635494Y-107597303D01*
X164635493Y-107597310D01*
X164625000Y-107700014D01*
X163757500Y-107700014D01*
X163757500Y-103865126D01*
X163777185Y-103798087D01*
X163829989Y-103752332D01*
X163899147Y-103742388D01*
X163960163Y-103769272D01*
X164002676Y-103804162D01*
X164002677Y-103804162D01*
X164002679Y-103804164D01*
X164002681Y-103804165D01*
X164169877Y-103893533D01*
X164169878Y-103893533D01*
X164169885Y-103893537D01*
X164351317Y-103948573D01*
X164351316Y-103948573D01*
X164368233Y-103950239D01*
X164540000Y-103967157D01*
X164728683Y-103948573D01*
X164910115Y-103893537D01*
X165077324Y-103804162D01*
X165223883Y-103683883D01*
X165344162Y-103537324D01*
X165433537Y-103370115D01*
X165488573Y-103188683D01*
X165507157Y-103000000D01*
X165488573Y-102811317D01*
X165440424Y-102652591D01*
X165439802Y-102582730D01*
X165471403Y-102528922D01*
X165751507Y-102248819D01*
X165812830Y-102215334D01*
X165839188Y-102212500D01*
X173838976Y-102212500D01*
X173906015Y-102232185D01*
G37*
%TD.AperFunction*%
%TA.AperFunction,Conductor*%
G36*
X156877539Y-95870185D02*
G01*
X156923294Y-95922989D01*
X156934500Y-95974500D01*
X156934500Y-96019568D01*
X156946610Y-96064747D01*
X156946611Y-96064761D01*
X156946613Y-96064761D01*
X156956684Y-96102351D01*
X156956702Y-96102394D01*
X156957067Y-96103014D01*
X156977202Y-96137881D01*
X156977203Y-96137882D01*
X156999535Y-96176562D01*
X156999537Y-96176565D01*
X156999551Y-96176583D01*
X157030576Y-96207603D01*
X157030583Y-96207610D01*
X157066391Y-96243418D01*
X157066435Y-96243456D01*
X161243175Y-100419522D01*
X161276664Y-100480841D01*
X161279500Y-100507209D01*
X161279500Y-115785923D01*
X161279494Y-115834819D01*
X161279498Y-115834849D01*
X161279530Y-115834964D01*
X161289844Y-115873457D01*
X161289845Y-115873469D01*
X161289847Y-115873469D01*
X161301674Y-115917624D01*
X161323224Y-115954950D01*
X161323227Y-115954963D01*
X161323230Y-115954962D01*
X161344513Y-115991834D01*
X161344533Y-115991860D01*
X161377915Y-116025242D01*
X164791707Y-119439749D01*
X164825186Y-119501076D01*
X164827476Y-119538996D01*
X164824500Y-119570739D01*
X164824500Y-120604258D01*
X164827354Y-120634698D01*
X164827354Y-120634699D01*
X164872206Y-120762881D01*
X164872207Y-120762882D01*
X164952850Y-120872150D01*
X165062118Y-120952793D01*
X165190302Y-120997646D01*
X165190301Y-120997646D01*
X165194867Y-120998074D01*
X165220735Y-121000500D01*
X165450500Y-121000499D01*
X165517539Y-121020183D01*
X165563294Y-121072987D01*
X165574500Y-121124499D01*
X165574500Y-125375500D01*
X165554815Y-125442539D01*
X165502011Y-125488294D01*
X165450501Y-125499500D01*
X165220742Y-125499500D01*
X165190301Y-125502354D01*
X165190300Y-125502354D01*
X165062118Y-125547206D01*
X164952850Y-125627850D01*
X164872206Y-125737118D01*
X164827353Y-125865302D01*
X164824500Y-125895731D01*
X164824500Y-126929258D01*
X164827354Y-126959698D01*
X164827354Y-126959699D01*
X164872206Y-127087881D01*
X164874849Y-127091462D01*
X164952850Y-127197150D01*
X165062118Y-127277793D01*
X165190302Y-127322646D01*
X165190301Y-127322646D01*
X165194271Y-127323018D01*
X165220735Y-127325500D01*
X166579264Y-127325499D01*
X166609698Y-127322646D01*
X166737882Y-127277793D01*
X166847150Y-127197150D01*
X166927793Y-127087882D01*
X166972646Y-126959698D01*
X166975500Y-126929265D01*
X166975500Y-126861500D01*
X166995185Y-126794461D01*
X167047989Y-126748706D01*
X167099500Y-126737500D01*
X168765500Y-126737500D01*
X168832539Y-126757185D01*
X168878294Y-126809989D01*
X168889500Y-126861500D01*
X168889500Y-127358260D01*
X168899426Y-127426392D01*
X168899426Y-127426393D01*
X168901210Y-127430041D01*
X168902020Y-127434786D01*
X168902270Y-127435595D01*
X168902163Y-127435627D01*
X168912968Y-127498914D01*
X168885625Y-127563211D01*
X168827860Y-127602517D01*
X168789809Y-127608500D01*
X167404016Y-127608500D01*
X167403757Y-127608483D01*
X167351347Y-127608499D01*
X167351312Y-127608500D01*
X167310093Y-127608500D01*
X167267914Y-127619815D01*
X167267880Y-127619825D01*
X167227340Y-127630687D01*
X167227280Y-127630712D01*
X167190152Y-127652164D01*
X167190121Y-127652182D01*
X167153095Y-127673559D01*
X167124009Y-127702663D01*
X167123986Y-127702686D01*
X167087052Y-127739621D01*
X167086895Y-127739800D01*
X166388973Y-128438154D01*
X166327661Y-128471658D01*
X166301265Y-128474500D01*
X165220741Y-128474500D01*
X165190301Y-128477354D01*
X165190300Y-128477354D01*
X165062118Y-128522206D01*
X164952850Y-128602850D01*
X164872206Y-128712118D01*
X164827353Y-128840302D01*
X164824500Y-128870731D01*
X164824500Y-129497811D01*
X164804815Y-129564850D01*
X164752011Y-129610605D01*
X164682853Y-129620549D01*
X164619297Y-129591524D01*
X164612819Y-129585492D01*
X162306819Y-127279492D01*
X162273334Y-127218169D01*
X162270500Y-127191811D01*
X162270500Y-122302149D01*
X162270500Y-122302147D01*
X162248318Y-122219362D01*
X162228633Y-122185266D01*
X162205469Y-122145144D01*
X162205463Y-122145136D01*
X160591873Y-120531546D01*
X160558388Y-120470223D01*
X160560894Y-120407869D01*
X160616023Y-120226134D01*
X160616024Y-120226132D01*
X160635341Y-120030000D01*
X160616024Y-119833868D01*
X160558814Y-119645273D01*
X160558811Y-119645269D01*
X160558811Y-119645266D01*
X160465913Y-119471467D01*
X160465909Y-119471460D01*
X160340883Y-119319116D01*
X160188539Y-119194090D01*
X160188532Y-119194085D01*
X160021047Y-119104563D01*
X159971202Y-119055601D01*
X159955500Y-118995205D01*
X159955500Y-118860149D01*
X159955500Y-118860147D01*
X159933318Y-118777362D01*
X159933314Y-118777355D01*
X159890469Y-118703144D01*
X159890463Y-118703136D01*
X159847524Y-118660197D01*
X159814039Y-118598874D01*
X159819023Y-118529182D01*
X159860895Y-118473249D01*
X159899205Y-118453857D01*
X160014727Y-118418814D01*
X160188538Y-118325910D01*
X160340883Y-118200883D01*
X160465910Y-118048538D01*
X160558814Y-117874727D01*
X160616024Y-117686132D01*
X160635341Y-117490000D01*
X160616024Y-117293868D01*
X160558814Y-117105273D01*
X160558811Y-117105269D01*
X160558811Y-117105266D01*
X160465913Y-116931467D01*
X160465909Y-116931460D01*
X160340883Y-116779116D01*
X160188539Y-116654090D01*
X160188532Y-116654085D01*
X160021047Y-116564563D01*
X159971202Y-116515601D01*
X159955500Y-116455205D01*
X159955500Y-116320149D01*
X159955500Y-116320147D01*
X159933318Y-116237362D01*
X159933314Y-116237355D01*
X159890469Y-116163144D01*
X159890463Y-116163136D01*
X159847524Y-116120197D01*
X159814039Y-116058874D01*
X159819023Y-115989182D01*
X159860895Y-115933249D01*
X159899205Y-115913857D01*
X160014727Y-115878814D01*
X160188538Y-115785910D01*
X160340883Y-115660883D01*
X160465910Y-115508538D01*
X160558814Y-115334727D01*
X160616024Y-115146132D01*
X160635341Y-114950000D01*
X160616024Y-114753868D01*
X160558814Y-114565273D01*
X160558811Y-114565269D01*
X160558811Y-114565266D01*
X160465913Y-114391467D01*
X160465909Y-114391460D01*
X160340883Y-114239116D01*
X160188539Y-114114090D01*
X160188532Y-114114086D01*
X160014733Y-114021188D01*
X160014727Y-114021186D01*
X159828519Y-113964700D01*
X159826129Y-113963975D01*
X159630000Y-113944659D01*
X159433870Y-113963975D01*
X159245266Y-114021188D01*
X159071467Y-114114086D01*
X159071460Y-114114090D01*
X158919116Y-114239116D01*
X158794090Y-114391460D01*
X158794086Y-114391467D01*
X158701188Y-114565266D01*
X158643975Y-114753870D01*
X158629794Y-114897856D01*
X158603633Y-114962644D01*
X158546598Y-115003002D01*
X158476798Y-115006119D01*
X158418710Y-114973383D01*
X156535819Y-113090492D01*
X156502334Y-113029169D01*
X156499500Y-113002811D01*
X156499500Y-112410000D01*
X158624659Y-112410000D01*
X158643975Y-112606129D01*
X158701188Y-112794733D01*
X158794086Y-112968532D01*
X158794090Y-112968539D01*
X158919116Y-113120883D01*
X159071460Y-113245909D01*
X159071467Y-113245913D01*
X159245266Y-113338811D01*
X159245269Y-113338811D01*
X159245273Y-113338814D01*
X159433868Y-113396024D01*
X159630000Y-113415341D01*
X159826132Y-113396024D01*
X160014727Y-113338814D01*
X160059954Y-113314640D01*
X160101632Y-113292362D01*
X160188538Y-113245910D01*
X160340883Y-113120883D01*
X160465910Y-112968538D01*
X160558814Y-112794727D01*
X160616024Y-112606132D01*
X160635341Y-112410000D01*
X160616024Y-112213868D01*
X160558814Y-112025273D01*
X160558811Y-112025269D01*
X160558811Y-112025266D01*
X160465913Y-111851467D01*
X160465909Y-111851460D01*
X160340883Y-111699116D01*
X160188539Y-111574090D01*
X160188532Y-111574086D01*
X160014733Y-111481188D01*
X160014727Y-111481186D01*
X159826132Y-111423976D01*
X159826129Y-111423975D01*
X159630000Y-111404659D01*
X159433870Y-111423975D01*
X159245266Y-111481188D01*
X159071467Y-111574086D01*
X159071460Y-111574090D01*
X158919116Y-111699116D01*
X158794090Y-111851460D01*
X158794086Y-111851467D01*
X158701188Y-112025266D01*
X158643975Y-112213870D01*
X158624659Y-112410000D01*
X156499500Y-112410000D01*
X156499500Y-109870000D01*
X158624659Y-109870000D01*
X158643975Y-110066129D01*
X158643976Y-110066132D01*
X158695765Y-110236858D01*
X158701188Y-110254733D01*
X158794086Y-110428532D01*
X158794090Y-110428539D01*
X158919116Y-110580883D01*
X159071460Y-110705909D01*
X159071467Y-110705913D01*
X159245266Y-110798811D01*
X159245269Y-110798811D01*
X159245273Y-110798814D01*
X159433868Y-110856024D01*
X159630000Y-110875341D01*
X159826132Y-110856024D01*
X160014727Y-110798814D01*
X160188538Y-110705910D01*
X160340883Y-110580883D01*
X160465910Y-110428538D01*
X160530873Y-110307001D01*
X160558811Y-110254733D01*
X160558811Y-110254732D01*
X160558814Y-110254727D01*
X160616024Y-110066132D01*
X160635341Y-109870000D01*
X160616024Y-109673868D01*
X160558814Y-109485273D01*
X160558811Y-109485269D01*
X160558811Y-109485266D01*
X160465913Y-109311467D01*
X160465909Y-109311460D01*
X160340883Y-109159116D01*
X160188539Y-109034090D01*
X160188532Y-109034086D01*
X160014733Y-108941188D01*
X160014727Y-108941186D01*
X159888997Y-108903046D01*
X159826129Y-108883975D01*
X159630000Y-108864659D01*
X159433870Y-108883975D01*
X159245266Y-108941188D01*
X159071467Y-109034086D01*
X159071460Y-109034090D01*
X158919116Y-109159116D01*
X158794090Y-109311460D01*
X158794086Y-109311467D01*
X158701188Y-109485266D01*
X158643975Y-109673870D01*
X158624659Y-109870000D01*
X156499500Y-109870000D01*
X156499500Y-107330000D01*
X158624659Y-107330000D01*
X158643975Y-107526129D01*
X158701188Y-107714733D01*
X158794086Y-107888532D01*
X158794090Y-107888539D01*
X158919116Y-108040883D01*
X159071460Y-108165909D01*
X159071467Y-108165913D01*
X159245266Y-108258811D01*
X159245269Y-108258811D01*
X159245273Y-108258814D01*
X159433868Y-108316024D01*
X159630000Y-108335341D01*
X159826132Y-108316024D01*
X160014727Y-108258814D01*
X160188538Y-108165910D01*
X160340883Y-108040883D01*
X160465910Y-107888538D01*
X160541436Y-107747239D01*
X160558811Y-107714733D01*
X160558811Y-107714732D01*
X160558814Y-107714727D01*
X160616024Y-107526132D01*
X160635341Y-107330000D01*
X160616024Y-107133868D01*
X160558814Y-106945273D01*
X160558811Y-106945269D01*
X160558811Y-106945266D01*
X160465913Y-106771467D01*
X160465909Y-106771460D01*
X160340883Y-106619116D01*
X160188539Y-106494090D01*
X160188532Y-106494086D01*
X160014733Y-106401188D01*
X160014727Y-106401186D01*
X159826132Y-106343976D01*
X159826129Y-106343975D01*
X159630000Y-106324659D01*
X159433870Y-106343975D01*
X159245266Y-106401188D01*
X159071467Y-106494086D01*
X159071460Y-106494090D01*
X158919116Y-106619116D01*
X158794090Y-106771460D01*
X158794086Y-106771467D01*
X158701188Y-106945266D01*
X158643975Y-107133870D01*
X158624659Y-107330000D01*
X156499500Y-107330000D01*
X156499500Y-104539999D01*
X158351127Y-104539999D01*
X158351128Y-104540000D01*
X159196988Y-104540000D01*
X159164075Y-104597007D01*
X159130000Y-104724174D01*
X159130000Y-104855826D01*
X159164075Y-104982993D01*
X159196988Y-105040000D01*
X158351128Y-105040000D01*
X158403730Y-105236317D01*
X158403734Y-105236326D01*
X158499865Y-105442482D01*
X158630342Y-105628820D01*
X158791179Y-105789657D01*
X158977517Y-105920134D01*
X159183673Y-106016265D01*
X159183682Y-106016269D01*
X159379999Y-106068872D01*
X159380000Y-106068871D01*
X159380000Y-105223012D01*
X159437007Y-105255925D01*
X159564174Y-105290000D01*
X159695826Y-105290000D01*
X159822993Y-105255925D01*
X159880000Y-105223012D01*
X159880000Y-106068872D01*
X160076317Y-106016269D01*
X160076326Y-106016265D01*
X160282482Y-105920134D01*
X160468820Y-105789657D01*
X160629657Y-105628820D01*
X160760134Y-105442482D01*
X160856265Y-105236326D01*
X160856269Y-105236317D01*
X160908872Y-105040000D01*
X160063012Y-105040000D01*
X160095925Y-104982993D01*
X160130000Y-104855826D01*
X160130000Y-104724174D01*
X160095925Y-104597007D01*
X160063012Y-104540000D01*
X160908872Y-104540000D01*
X160908872Y-104539999D01*
X160856269Y-104343682D01*
X160856265Y-104343673D01*
X160760134Y-104137517D01*
X160629657Y-103951179D01*
X160468820Y-103790342D01*
X160282482Y-103659865D01*
X160076328Y-103563734D01*
X159880000Y-103511127D01*
X159880000Y-104356988D01*
X159822993Y-104324075D01*
X159695826Y-104290000D01*
X159564174Y-104290000D01*
X159437007Y-104324075D01*
X159380000Y-104356988D01*
X159380000Y-103511127D01*
X159183671Y-103563734D01*
X158977517Y-103659865D01*
X158791179Y-103790342D01*
X158630342Y-103951179D01*
X158499865Y-104137517D01*
X158403734Y-104343673D01*
X158403730Y-104343682D01*
X158351127Y-104539999D01*
X156499500Y-104539999D01*
X156499500Y-102250000D01*
X158624659Y-102250000D01*
X158643975Y-102446129D01*
X158643976Y-102446132D01*
X158686057Y-102584855D01*
X158701188Y-102634733D01*
X158794086Y-102808532D01*
X158794090Y-102808539D01*
X158919116Y-102960883D01*
X159071460Y-103085909D01*
X159071467Y-103085913D01*
X159245266Y-103178811D01*
X159245269Y-103178811D01*
X159245273Y-103178814D01*
X159433868Y-103236024D01*
X159630000Y-103255341D01*
X159826132Y-103236024D01*
X160014727Y-103178814D01*
X160188538Y-103085910D01*
X160340883Y-102960883D01*
X160465910Y-102808538D01*
X160558814Y-102634727D01*
X160616024Y-102446132D01*
X160635341Y-102250000D01*
X160616024Y-102053868D01*
X160558814Y-101865273D01*
X160558811Y-101865269D01*
X160558811Y-101865266D01*
X160465913Y-101691467D01*
X160465909Y-101691460D01*
X160340883Y-101539116D01*
X160188539Y-101414090D01*
X160188532Y-101414086D01*
X160014733Y-101321188D01*
X160014727Y-101321186D01*
X159826132Y-101263976D01*
X159826129Y-101263975D01*
X159630000Y-101244659D01*
X159433870Y-101263975D01*
X159245266Y-101321188D01*
X159071467Y-101414086D01*
X159071460Y-101414090D01*
X158919116Y-101539116D01*
X158794090Y-101691460D01*
X158794086Y-101691467D01*
X158701188Y-101865266D01*
X158643975Y-102053870D01*
X158624659Y-102250000D01*
X156499500Y-102250000D01*
X156499500Y-95974500D01*
X156519185Y-95907461D01*
X156571989Y-95861706D01*
X156623500Y-95850500D01*
X156810500Y-95850500D01*
X156877539Y-95870185D01*
G37*
%TD.AperFunction*%
%TA.AperFunction,Conductor*%
G36*
X144640000Y-111148872D02*
G01*
X144836317Y-111096269D01*
X144836326Y-111096265D01*
X145015095Y-111012905D01*
X145084173Y-111002413D01*
X145147957Y-111030933D01*
X145186196Y-111089409D01*
X145191500Y-111125287D01*
X145191500Y-111511307D01*
X145171815Y-111578346D01*
X145119011Y-111624101D01*
X145049853Y-111634045D01*
X144988836Y-111607161D01*
X144948538Y-111574090D01*
X144948532Y-111574086D01*
X144774733Y-111481188D01*
X144774727Y-111481186D01*
X144586132Y-111423976D01*
X144586129Y-111423975D01*
X144390000Y-111404659D01*
X144193870Y-111423975D01*
X144005266Y-111481188D01*
X143831467Y-111574086D01*
X143831460Y-111574090D01*
X143723165Y-111662967D01*
X143658855Y-111690280D01*
X143589988Y-111678489D01*
X143538427Y-111631337D01*
X143520500Y-111567114D01*
X143520500Y-111086378D01*
X143540185Y-111019339D01*
X143592989Y-110973584D01*
X143662147Y-110963640D01*
X143715626Y-110984805D01*
X143737514Y-111000132D01*
X143737516Y-111000133D01*
X143943673Y-111096265D01*
X143943682Y-111096269D01*
X144139999Y-111148872D01*
X144140000Y-111148871D01*
X144140000Y-110303012D01*
X144197007Y-110335925D01*
X144324174Y-110370000D01*
X144455826Y-110370000D01*
X144582993Y-110335925D01*
X144640000Y-110303012D01*
X144640000Y-111148872D01*
G37*
%TD.AperFunction*%
%TA.AperFunction,Conductor*%
G36*
X145842540Y-95645185D02*
G01*
X145888295Y-95697989D01*
X145899501Y-95749500D01*
X145899501Y-95979264D01*
X145901526Y-96000868D01*
X145902354Y-96009698D01*
X145902354Y-96009699D01*
X145947206Y-96137881D01*
X145947207Y-96137882D01*
X146027850Y-96247150D01*
X146137118Y-96327793D01*
X146265302Y-96372646D01*
X146265301Y-96372646D01*
X146269271Y-96373018D01*
X146295735Y-96375500D01*
X147329264Y-96375499D01*
X147359698Y-96372646D01*
X147487882Y-96327793D01*
X147597150Y-96247150D01*
X147655730Y-96167775D01*
X147711377Y-96125526D01*
X147781033Y-96120067D01*
X147842583Y-96153134D01*
X147876484Y-96214228D01*
X147879500Y-96241410D01*
X147879500Y-104656852D01*
X147901682Y-104739640D01*
X147915472Y-104763524D01*
X147944535Y-104813862D01*
X148227680Y-105097007D01*
X148493181Y-105362507D01*
X148526666Y-105423830D01*
X148529500Y-105450188D01*
X148529500Y-107250490D01*
X148509815Y-107317529D01*
X148457011Y-107363284D01*
X148387853Y-107373228D01*
X148358048Y-107365051D01*
X148246765Y-107318957D01*
X148246760Y-107318955D01*
X148090001Y-107298318D01*
X148089999Y-107298318D01*
X147933239Y-107318955D01*
X147933237Y-107318956D01*
X147787160Y-107379463D01*
X147661718Y-107475718D01*
X147565463Y-107601160D01*
X147504956Y-107747237D01*
X147504955Y-107747239D01*
X147484318Y-107903998D01*
X147484318Y-107904001D01*
X147493246Y-107971817D01*
X147482480Y-108040852D01*
X147457988Y-108075683D01*
X145872472Y-109661199D01*
X145811149Y-109694684D01*
X145741457Y-109689700D01*
X145685524Y-109647828D01*
X145665016Y-109605611D01*
X145616269Y-109423682D01*
X145616265Y-109423673D01*
X145520134Y-109217517D01*
X145389657Y-109031179D01*
X145228820Y-108870342D01*
X145042482Y-108739865D01*
X144836328Y-108643734D01*
X144640000Y-108591127D01*
X144640000Y-109436988D01*
X144582993Y-109404075D01*
X144455826Y-109370000D01*
X144324174Y-109370000D01*
X144197007Y-109404075D01*
X144140000Y-109436988D01*
X144140000Y-108591127D01*
X143943671Y-108643734D01*
X143737516Y-108739866D01*
X143737512Y-108739868D01*
X143715623Y-108755196D01*
X143649417Y-108777523D01*
X143581650Y-108760513D01*
X143533837Y-108709565D01*
X143520500Y-108653621D01*
X143520500Y-108172885D01*
X143540185Y-108105846D01*
X143592989Y-108060091D01*
X143662147Y-108050147D01*
X143723163Y-108077031D01*
X143758274Y-108105846D01*
X143831460Y-108165909D01*
X143831467Y-108165913D01*
X144005266Y-108258811D01*
X144005269Y-108258811D01*
X144005273Y-108258814D01*
X144193868Y-108316024D01*
X144390000Y-108335341D01*
X144586132Y-108316024D01*
X144774727Y-108258814D01*
X144948538Y-108165910D01*
X145100883Y-108040883D01*
X145225910Y-107888538D01*
X145301436Y-107747239D01*
X145318811Y-107714733D01*
X145318811Y-107714732D01*
X145318814Y-107714727D01*
X145376024Y-107526132D01*
X145395341Y-107330000D01*
X145376024Y-107133868D01*
X145318814Y-106945273D01*
X145318811Y-106945269D01*
X145318811Y-106945266D01*
X145225913Y-106771467D01*
X145225909Y-106771460D01*
X145100883Y-106619116D01*
X144948539Y-106494090D01*
X144948532Y-106494086D01*
X144774733Y-106401188D01*
X144774727Y-106401186D01*
X144586132Y-106343976D01*
X144586129Y-106343975D01*
X144390000Y-106324659D01*
X144193870Y-106343975D01*
X144005266Y-106401188D01*
X143831467Y-106494086D01*
X143831460Y-106494090D01*
X143723165Y-106582967D01*
X143658855Y-106610280D01*
X143589988Y-106598489D01*
X143538427Y-106551337D01*
X143520500Y-106487114D01*
X143520500Y-105632885D01*
X143540185Y-105565846D01*
X143592989Y-105520091D01*
X143662147Y-105510147D01*
X143723163Y-105537031D01*
X143758274Y-105565846D01*
X143831460Y-105625909D01*
X143831467Y-105625913D01*
X144005266Y-105718811D01*
X144005269Y-105718811D01*
X144005273Y-105718814D01*
X144193868Y-105776024D01*
X144390000Y-105795341D01*
X144586132Y-105776024D01*
X144774727Y-105718814D01*
X144948538Y-105625910D01*
X145100883Y-105500883D01*
X145225910Y-105348538D01*
X145285893Y-105236317D01*
X145318811Y-105174733D01*
X145318811Y-105174732D01*
X145318814Y-105174727D01*
X145376024Y-104986132D01*
X145395341Y-104790000D01*
X145376024Y-104593868D01*
X145318814Y-104405273D01*
X145318811Y-104405269D01*
X145318811Y-104405266D01*
X145225913Y-104231467D01*
X145225909Y-104231460D01*
X145100883Y-104079116D01*
X144948539Y-103954090D01*
X144948532Y-103954086D01*
X144774733Y-103861188D01*
X144774727Y-103861186D01*
X144586752Y-103804164D01*
X144586129Y-103803975D01*
X144390000Y-103784659D01*
X144193870Y-103803975D01*
X144005266Y-103861188D01*
X143831467Y-103954086D01*
X143831460Y-103954090D01*
X143723165Y-104042967D01*
X143658855Y-104070280D01*
X143589988Y-104058489D01*
X143538427Y-104011337D01*
X143520500Y-103947114D01*
X143520500Y-103374500D01*
X143540185Y-103307461D01*
X143592989Y-103261706D01*
X143644500Y-103250500D01*
X145209750Y-103250500D01*
X145209751Y-103250499D01*
X145224568Y-103247552D01*
X145268229Y-103238868D01*
X145268229Y-103238867D01*
X145268231Y-103238867D01*
X145334552Y-103194552D01*
X145378867Y-103128231D01*
X145378867Y-103128229D01*
X145378868Y-103128229D01*
X145390499Y-103069752D01*
X145390500Y-103069750D01*
X145390500Y-101430249D01*
X145390499Y-101430247D01*
X145378868Y-101371770D01*
X145378867Y-101371769D01*
X145334552Y-101305447D01*
X145268230Y-101261132D01*
X145268229Y-101261131D01*
X145209752Y-101249500D01*
X145209748Y-101249500D01*
X143644500Y-101249500D01*
X143577461Y-101229815D01*
X143531706Y-101177011D01*
X143520500Y-101125500D01*
X143520500Y-96008965D01*
X143540185Y-95941926D01*
X143592989Y-95896171D01*
X143662147Y-95886227D01*
X143725703Y-95915252D01*
X143728038Y-95917328D01*
X143798958Y-95981980D01*
X143798960Y-95981982D01*
X143843725Y-96009699D01*
X143972363Y-96089348D01*
X144162544Y-96163024D01*
X144363024Y-96200500D01*
X144363026Y-96200500D01*
X144566974Y-96200500D01*
X144566976Y-96200500D01*
X144767456Y-96163024D01*
X144957637Y-96089348D01*
X145131041Y-95981981D01*
X145281764Y-95844579D01*
X145404673Y-95681821D01*
X145404672Y-95681821D01*
X145408128Y-95677246D01*
X145409671Y-95678411D01*
X145455207Y-95637590D01*
X145508613Y-95625500D01*
X145775501Y-95625500D01*
X145842540Y-95645185D01*
G37*
%TD.AperFunction*%
%TA.AperFunction,Conductor*%
G36*
X142957838Y-74897085D02*
G01*
X142978483Y-74913721D01*
X143268145Y-75203408D01*
X143301627Y-75264732D01*
X143299121Y-75327080D01*
X143243975Y-75508869D01*
X143224659Y-75705000D01*
X143243975Y-75901129D01*
X143251478Y-75925863D01*
X143288309Y-76047279D01*
X143301188Y-76089733D01*
X143394086Y-76263532D01*
X143394090Y-76263539D01*
X143519116Y-76415883D01*
X143671460Y-76540909D01*
X143671467Y-76540913D01*
X143845266Y-76633811D01*
X143845269Y-76633811D01*
X143845273Y-76633814D01*
X144033868Y-76691024D01*
X144230000Y-76710341D01*
X144426132Y-76691024D01*
X144614727Y-76633814D01*
X144664590Y-76607162D01*
X144788532Y-76540913D01*
X144788538Y-76540910D01*
X144940883Y-76415883D01*
X144954646Y-76399113D01*
X145012392Y-76359778D01*
X145082236Y-76357907D01*
X145142005Y-76394094D01*
X145172721Y-76456850D01*
X145174500Y-76477777D01*
X145174500Y-78313470D01*
X145154815Y-78380509D01*
X145134654Y-78404542D01*
X145115000Y-78422702D01*
X145115000Y-81467295D01*
X145134671Y-81485479D01*
X145170538Y-81545440D01*
X145174500Y-81576535D01*
X145174500Y-87613470D01*
X145154815Y-87680509D01*
X145134654Y-87704542D01*
X145115000Y-87722702D01*
X145115000Y-88995000D01*
X145138181Y-89018181D01*
X145171666Y-89079504D01*
X145174500Y-89105862D01*
X145174500Y-89384138D01*
X145154815Y-89451177D01*
X145138181Y-89471819D01*
X145115000Y-89495000D01*
X145115000Y-90767295D01*
X145134671Y-90785479D01*
X145170538Y-90845440D01*
X145174500Y-90876535D01*
X145174500Y-92061637D01*
X145174498Y-92124359D01*
X145174502Y-92124393D01*
X145174745Y-92125268D01*
X145185128Y-92164017D01*
X145185129Y-92164021D01*
X145196679Y-92207134D01*
X145221167Y-92249547D01*
X145221168Y-92249552D01*
X145221169Y-92249552D01*
X145239530Y-92281357D01*
X145239535Y-92281362D01*
X145278637Y-92320464D01*
X146963496Y-94005448D01*
X146970870Y-94012822D01*
X147004353Y-94074146D01*
X146999366Y-94143838D01*
X146957493Y-94199770D01*
X146892027Y-94224184D01*
X146883186Y-94224500D01*
X146295741Y-94224500D01*
X146265301Y-94227354D01*
X146265300Y-94227354D01*
X146137118Y-94272206D01*
X146027850Y-94352850D01*
X145947206Y-94462118D01*
X145902353Y-94590302D01*
X145899500Y-94620731D01*
X145899500Y-94850500D01*
X145879815Y-94917539D01*
X145827011Y-94963294D01*
X145775500Y-94974500D01*
X145667111Y-94974500D01*
X145600072Y-94954815D01*
X145554317Y-94902011D01*
X145547847Y-94884441D01*
X145495582Y-94700750D01*
X145404673Y-94518179D01*
X145281764Y-94355421D01*
X145281762Y-94355418D01*
X145131041Y-94218019D01*
X145131039Y-94218017D01*
X144957642Y-94110655D01*
X144957635Y-94110651D01*
X144837435Y-94064086D01*
X144767456Y-94036976D01*
X144566976Y-93999500D01*
X144363024Y-93999500D01*
X144162544Y-94036976D01*
X144162541Y-94036976D01*
X144162541Y-94036977D01*
X143972364Y-94110651D01*
X143972357Y-94110655D01*
X143798962Y-94218016D01*
X143728038Y-94282672D01*
X143665234Y-94313288D01*
X143595846Y-94305090D01*
X143541907Y-94260680D01*
X143520539Y-94194158D01*
X143520500Y-94191034D01*
X143520500Y-92279394D01*
X143520501Y-92279365D01*
X143520500Y-92270745D01*
X143520502Y-92270742D01*
X143520500Y-92207128D01*
X143520500Y-92185047D01*
X143520500Y-92185040D01*
X143503672Y-92122243D01*
X143503671Y-92122241D01*
X143498315Y-92102252D01*
X143475073Y-92062000D01*
X143475071Y-92061997D01*
X143474863Y-92061637D01*
X143457293Y-92031204D01*
X143455827Y-92028480D01*
X143455593Y-92028164D01*
X143440258Y-92012831D01*
X143389903Y-91962476D01*
X143389876Y-91962452D01*
X142535684Y-91108316D01*
X142409044Y-90981684D01*
X142375557Y-90920362D01*
X142380539Y-90850670D01*
X142422408Y-90794735D01*
X142487872Y-90770316D01*
X142496722Y-90770000D01*
X142540634Y-90770000D01*
X142540649Y-90769999D01*
X142577489Y-90767100D01*
X142577495Y-90767099D01*
X142735193Y-90721283D01*
X142735196Y-90721282D01*
X142876552Y-90637685D01*
X142882722Y-90632900D01*
X142884546Y-90635252D01*
X142933595Y-90608445D01*
X143003288Y-90613402D01*
X143036063Y-90634465D01*
X143037278Y-90632900D01*
X143043447Y-90637685D01*
X143184801Y-90721281D01*
X143342514Y-90767100D01*
X143342511Y-90767100D01*
X143344998Y-90767295D01*
X143345000Y-90767295D01*
X143845000Y-90767295D01*
X143845001Y-90767295D01*
X143847486Y-90767100D01*
X144005198Y-90721281D01*
X144146552Y-90637685D01*
X144152722Y-90632900D01*
X144154546Y-90635252D01*
X144203595Y-90608445D01*
X144273288Y-90613402D01*
X144306063Y-90634465D01*
X144307278Y-90632900D01*
X144313447Y-90637685D01*
X144454801Y-90721281D01*
X144612514Y-90767100D01*
X144612511Y-90767100D01*
X144614998Y-90767295D01*
X144615000Y-90767295D01*
X144615000Y-89495000D01*
X143845000Y-89495000D01*
X143845000Y-90767295D01*
X143345000Y-90767295D01*
X143345000Y-89495000D01*
X142139500Y-89495000D01*
X142072461Y-89475315D01*
X142026706Y-89422511D01*
X142015500Y-89371000D01*
X142015500Y-89105862D01*
X142035185Y-89038823D01*
X142051819Y-89018181D01*
X142075000Y-88995000D01*
X142075000Y-87722703D01*
X142575000Y-87722703D01*
X142575000Y-88995000D01*
X143345000Y-88995000D01*
X143345000Y-87722703D01*
X143845000Y-87722703D01*
X143845000Y-88995000D01*
X144615000Y-88995000D01*
X144615000Y-87722703D01*
X144612503Y-87722900D01*
X144454806Y-87768716D01*
X144454803Y-87768717D01*
X144313447Y-87852314D01*
X144307278Y-87857100D01*
X144305457Y-87854753D01*
X144256358Y-87881564D01*
X144186666Y-87876580D01*
X144153930Y-87855541D01*
X144152722Y-87857100D01*
X144146552Y-87852314D01*
X144005196Y-87768717D01*
X144005193Y-87768716D01*
X143847494Y-87722900D01*
X143847497Y-87722900D01*
X143845000Y-87722703D01*
X143345000Y-87722703D01*
X143342503Y-87722900D01*
X143184806Y-87768716D01*
X143184803Y-87768717D01*
X143043447Y-87852314D01*
X143037278Y-87857100D01*
X143035457Y-87854753D01*
X142986358Y-87881564D01*
X142916666Y-87876580D01*
X142883930Y-87855541D01*
X142882722Y-87857100D01*
X142876552Y-87852314D01*
X142735196Y-87768717D01*
X142735193Y-87768716D01*
X142577494Y-87722900D01*
X142577497Y-87722900D01*
X142575000Y-87722703D01*
X142075000Y-87722703D01*
X142075000Y-87722702D01*
X142055346Y-87704542D01*
X142019468Y-87644588D01*
X142015500Y-87613470D01*
X142015500Y-81576535D01*
X142035185Y-81509496D01*
X142055329Y-81485479D01*
X142075000Y-81467295D01*
X142575000Y-81467295D01*
X142575001Y-81467295D01*
X142577486Y-81467100D01*
X142735198Y-81421281D01*
X142876552Y-81337685D01*
X142882722Y-81332900D01*
X142884546Y-81335252D01*
X142933595Y-81308445D01*
X143003288Y-81313402D01*
X143036063Y-81334465D01*
X143037278Y-81332900D01*
X143043447Y-81337685D01*
X143184801Y-81421281D01*
X143342514Y-81467100D01*
X143342511Y-81467100D01*
X143344998Y-81467295D01*
X143345000Y-81467295D01*
X143845000Y-81467295D01*
X143845001Y-81467295D01*
X143847486Y-81467100D01*
X144005198Y-81421281D01*
X144146552Y-81337685D01*
X144152722Y-81332900D01*
X144154546Y-81335252D01*
X144203595Y-81308445D01*
X144273288Y-81313402D01*
X144306063Y-81334465D01*
X144307278Y-81332900D01*
X144313447Y-81337685D01*
X144454801Y-81421281D01*
X144612514Y-81467100D01*
X144612511Y-81467100D01*
X144614998Y-81467295D01*
X144615000Y-81467295D01*
X144615000Y-80195000D01*
X143845000Y-80195000D01*
X143845000Y-81467295D01*
X143345000Y-81467295D01*
X143345000Y-80195000D01*
X142575000Y-80195000D01*
X142575000Y-81467295D01*
X142075000Y-81467295D01*
X142075000Y-80195000D01*
X142051819Y-80171819D01*
X142018334Y-80110496D01*
X142015500Y-80084138D01*
X142015500Y-79805862D01*
X142035185Y-79738823D01*
X142051819Y-79718181D01*
X142075000Y-79695000D01*
X142075000Y-78422703D01*
X142575000Y-78422703D01*
X142575000Y-79695000D01*
X143345000Y-79695000D01*
X143345000Y-78422703D01*
X143845000Y-78422703D01*
X143845000Y-79695000D01*
X144615000Y-79695000D01*
X144615000Y-78422703D01*
X144612503Y-78422900D01*
X144454806Y-78468716D01*
X144454803Y-78468717D01*
X144313447Y-78552314D01*
X144307278Y-78557100D01*
X144305457Y-78554753D01*
X144256358Y-78581564D01*
X144186666Y-78576580D01*
X144153930Y-78555541D01*
X144152722Y-78557100D01*
X144146552Y-78552314D01*
X144005196Y-78468717D01*
X144005193Y-78468716D01*
X143847494Y-78422900D01*
X143847497Y-78422900D01*
X143845000Y-78422703D01*
X143345000Y-78422703D01*
X143342503Y-78422900D01*
X143184806Y-78468716D01*
X143184803Y-78468717D01*
X143043447Y-78552314D01*
X143037278Y-78557100D01*
X143035457Y-78554753D01*
X142986358Y-78581564D01*
X142916666Y-78576580D01*
X142883930Y-78555541D01*
X142882722Y-78557100D01*
X142876552Y-78552314D01*
X142735196Y-78468717D01*
X142735193Y-78468716D01*
X142577494Y-78422900D01*
X142577497Y-78422900D01*
X142575000Y-78422703D01*
X142075000Y-78422703D01*
X142075000Y-78422702D01*
X142055346Y-78404542D01*
X142019468Y-78344588D01*
X142015500Y-78313470D01*
X142015500Y-76739794D01*
X142035185Y-76672755D01*
X142081047Y-76630436D01*
X142248532Y-76540913D01*
X142248538Y-76540910D01*
X142400883Y-76415883D01*
X142525910Y-76263538D01*
X142587902Y-76147559D01*
X142618811Y-76089733D01*
X142618811Y-76089732D01*
X142618814Y-76089727D01*
X142676024Y-75901132D01*
X142695341Y-75705000D01*
X142676024Y-75508868D01*
X142618814Y-75320273D01*
X142618811Y-75320269D01*
X142618811Y-75320266D01*
X142525913Y-75146467D01*
X142525911Y-75146465D01*
X142525910Y-75146462D01*
X142503986Y-75119748D01*
X142471420Y-75080065D01*
X142444107Y-75015755D01*
X142455898Y-74946887D01*
X142503050Y-74895327D01*
X142567273Y-74877400D01*
X142890799Y-74877400D01*
X142957838Y-74897085D01*
G37*
%TD.AperFunction*%
%TA.AperFunction,Conductor*%
G36*
X140950703Y-76384064D02*
G01*
X140965354Y-76399113D01*
X140979117Y-76415883D01*
X141131460Y-76540909D01*
X141131467Y-76540913D01*
X141298953Y-76630436D01*
X141348797Y-76679398D01*
X141364500Y-76739794D01*
X141364500Y-78313470D01*
X141344815Y-78380509D01*
X141324654Y-78404542D01*
X141305000Y-78422702D01*
X141305000Y-79695000D01*
X141328181Y-79718181D01*
X141361666Y-79779504D01*
X141364500Y-79805862D01*
X141364500Y-80084138D01*
X141344815Y-80151177D01*
X141328181Y-80171819D01*
X141305000Y-80195000D01*
X141305000Y-81467295D01*
X141324671Y-81485479D01*
X141360538Y-81545440D01*
X141364500Y-81576535D01*
X141364500Y-87613470D01*
X141344815Y-87680509D01*
X141324654Y-87704542D01*
X141305000Y-87722702D01*
X141305000Y-88995000D01*
X141328181Y-89018181D01*
X141361666Y-89079504D01*
X141364500Y-89105862D01*
X141364500Y-89384138D01*
X141344815Y-89451177D01*
X141328181Y-89471819D01*
X141305000Y-89495000D01*
X141305000Y-90767295D01*
X141322523Y-90783493D01*
X141330032Y-90785071D01*
X141379788Y-90834123D01*
X141384393Y-90844086D01*
X141384507Y-90844033D01*
X141386691Y-90848659D01*
X141402787Y-90876535D01*
X141407976Y-90885521D01*
X141429535Y-90922862D01*
X141429540Y-90922867D01*
X141429542Y-90922870D01*
X141444742Y-90938069D01*
X141444745Y-90938072D01*
X141495967Y-90989294D01*
X141495989Y-90989313D01*
X142833178Y-92326413D01*
X142866665Y-92387735D01*
X142869500Y-92414097D01*
X142869500Y-93576000D01*
X142849815Y-93643039D01*
X142797011Y-93688794D01*
X142745500Y-93700000D01*
X142175000Y-93700000D01*
X142175000Y-94724722D01*
X142098694Y-94680667D01*
X141984244Y-94650000D01*
X141865756Y-94650000D01*
X141751306Y-94680667D01*
X141675000Y-94724722D01*
X141675000Y-93700000D01*
X140977172Y-93700000D01*
X140977145Y-93700001D01*
X140974737Y-93700260D01*
X140974183Y-93700160D01*
X140973847Y-93700178D01*
X140973842Y-93700098D01*
X140905979Y-93687845D01*
X140854849Y-93640227D01*
X140837500Y-93576969D01*
X140837500Y-92662510D01*
X140837581Y-92661253D01*
X140837569Y-92653924D01*
X140837570Y-92653921D01*
X140837500Y-92611068D01*
X140837500Y-92568747D01*
X140837500Y-92568746D01*
X140837430Y-92568221D01*
X140837430Y-92568216D01*
X140826333Y-92527073D01*
X140815318Y-92485962D01*
X140815315Y-92485958D01*
X140815315Y-92485955D01*
X140815113Y-92485467D01*
X140793868Y-92448808D01*
X140793910Y-92448783D01*
X140793766Y-92448632D01*
X140772467Y-92411740D01*
X140771120Y-92409985D01*
X140770444Y-92408237D01*
X140768554Y-92404963D01*
X140767892Y-92403970D01*
X140767861Y-92403916D01*
X140768608Y-92403486D01*
X140745929Y-92344814D01*
X140745500Y-92334504D01*
X140745500Y-90876535D01*
X140765185Y-90809496D01*
X140785329Y-90785479D01*
X140805000Y-90767295D01*
X140805000Y-87722702D01*
X140785346Y-87704542D01*
X140749468Y-87644588D01*
X140745500Y-87613470D01*
X140745500Y-81576535D01*
X140765185Y-81509496D01*
X140785329Y-81485479D01*
X140805000Y-81467295D01*
X140805000Y-78422702D01*
X140785346Y-78404542D01*
X140749468Y-78344588D01*
X140745500Y-78313470D01*
X140745500Y-76477777D01*
X140765185Y-76410738D01*
X140817989Y-76364983D01*
X140887147Y-76355039D01*
X140950703Y-76384064D01*
G37*
%TD.AperFunction*%
%TA.AperFunction,Conductor*%
G36*
X146623834Y-81079362D02*
G01*
X146679767Y-81121234D01*
X146704184Y-81186698D01*
X146704500Y-81195544D01*
X146704500Y-82123231D01*
X146704483Y-82123495D01*
X146704500Y-82174325D01*
X146704500Y-82217006D01*
X146715313Y-82257310D01*
X146715318Y-82257348D01*
X146715322Y-82257347D01*
X146726686Y-82299758D01*
X146726705Y-82299804D01*
X146726721Y-82299832D01*
X146726722Y-82299834D01*
X146740857Y-82324300D01*
X146747981Y-82336629D01*
X146747990Y-82336664D01*
X146747998Y-82336660D01*
X146769537Y-82373966D01*
X146769596Y-82374042D01*
X146799674Y-82404102D01*
X146799673Y-82404102D01*
X146799701Y-82404128D01*
X146835760Y-82440187D01*
X146835944Y-82440348D01*
X146957863Y-82562191D01*
X146991367Y-82623504D01*
X146986404Y-82693197D01*
X146957890Y-82737581D01*
X146509537Y-83185935D01*
X146509535Y-83185938D01*
X146474195Y-83247149D01*
X146466682Y-83260161D01*
X146448560Y-83327793D01*
X146448559Y-83327794D01*
X146444501Y-83342940D01*
X146444500Y-83342949D01*
X146444500Y-87613470D01*
X146424815Y-87680509D01*
X146404654Y-87704542D01*
X146385000Y-87722702D01*
X146385000Y-90767295D01*
X146404671Y-90785479D01*
X146440538Y-90845440D01*
X146444500Y-90876535D01*
X146444500Y-91686045D01*
X146444499Y-91686063D01*
X146444500Y-91736130D01*
X146444500Y-91779356D01*
X146444502Y-91779366D01*
X146450436Y-91801509D01*
X146450436Y-91801512D01*
X146450437Y-91801512D01*
X146466680Y-91862132D01*
X146466683Y-91862142D01*
X146466684Y-91862143D01*
X146466686Y-91862147D01*
X146472462Y-91872150D01*
X146496032Y-91912975D01*
X146509537Y-91936365D01*
X146521774Y-91948601D01*
X146579032Y-92005859D01*
X146579046Y-92005870D01*
X148329180Y-93755912D01*
X148362666Y-93817234D01*
X148365500Y-93843595D01*
X148365500Y-94187490D01*
X148345815Y-94254529D01*
X148293011Y-94300284D01*
X148223853Y-94310228D01*
X148160297Y-94281203D01*
X148153816Y-94275168D01*
X145861816Y-91982998D01*
X145828333Y-91921674D01*
X145825500Y-91895320D01*
X145825500Y-90876535D01*
X145845185Y-90809496D01*
X145865329Y-90785479D01*
X145885000Y-90767295D01*
X145885000Y-89495000D01*
X145861819Y-89471819D01*
X145828334Y-89410496D01*
X145825500Y-89384138D01*
X145825500Y-89105862D01*
X145845185Y-89038823D01*
X145861819Y-89018181D01*
X145885000Y-88995000D01*
X145885000Y-87722702D01*
X145865346Y-87704542D01*
X145829468Y-87644588D01*
X145825500Y-87613470D01*
X145825500Y-81294500D01*
X145845185Y-81227461D01*
X145897989Y-81181706D01*
X145949500Y-81170500D01*
X146318261Y-81170500D01*
X146340971Y-81167191D01*
X146386393Y-81160573D01*
X146491483Y-81109198D01*
X146491485Y-81109196D01*
X146492819Y-81107863D01*
X146495092Y-81106621D01*
X146499847Y-81103227D01*
X146500257Y-81103801D01*
X146554142Y-81074378D01*
X146623834Y-81079362D01*
G37*
%TD.AperFunction*%
%TA.AperFunction,Conductor*%
G36*
X177717539Y-71419185D02*
G01*
X177763294Y-71471989D01*
X177774500Y-71523500D01*
X177774500Y-149710500D01*
X177754815Y-149777539D01*
X177702011Y-149823294D01*
X177650500Y-149834500D01*
X137309500Y-149834500D01*
X137242461Y-149814815D01*
X137196706Y-149762011D01*
X137185500Y-149710500D01*
X137185500Y-144818147D01*
X137686500Y-144818147D01*
X137686500Y-145755147D01*
X137686500Y-145840853D01*
X137692327Y-145862601D01*
X137708682Y-145923640D01*
X137730108Y-145960750D01*
X137751535Y-145997862D01*
X137751536Y-145997863D01*
X137751537Y-145997864D01*
X138874194Y-147120520D01*
X138874204Y-147120531D01*
X138878534Y-147124861D01*
X138878535Y-147124862D01*
X138939138Y-147185465D01*
X138974704Y-147205999D01*
X139013361Y-147228318D01*
X139096147Y-147250501D01*
X139096149Y-147250501D01*
X139189449Y-147250501D01*
X139189465Y-147250500D01*
X152770289Y-147250500D01*
X152837328Y-147270185D01*
X152883083Y-147322989D01*
X152893817Y-147385307D01*
X152875034Y-147599998D01*
X152875034Y-147600002D01*
X152894858Y-147826599D01*
X152894860Y-147826610D01*
X152953730Y-148046317D01*
X152953735Y-148046331D01*
X153049863Y-148252478D01*
X153100974Y-148325472D01*
X153697037Y-147729408D01*
X153714075Y-147792993D01*
X153779901Y-147907007D01*
X153872993Y-148000099D01*
X153987007Y-148065925D01*
X154050590Y-148082962D01*
X153454526Y-148679025D01*
X153527513Y-148730132D01*
X153527521Y-148730136D01*
X153733668Y-148826264D01*
X153733682Y-148826269D01*
X153953389Y-148885139D01*
X153953400Y-148885141D01*
X154179998Y-148904966D01*
X154180002Y-148904966D01*
X154406599Y-148885141D01*
X154406610Y-148885139D01*
X154626317Y-148826269D01*
X154626331Y-148826264D01*
X154832478Y-148730136D01*
X154905471Y-148679024D01*
X154309409Y-148082962D01*
X154372993Y-148065925D01*
X154487007Y-148000099D01*
X154580099Y-147907007D01*
X154645925Y-147792993D01*
X154662962Y-147729409D01*
X155259024Y-148325471D01*
X155310136Y-148252478D01*
X155406264Y-148046331D01*
X155406269Y-148046317D01*
X155465139Y-147826610D01*
X155465141Y-147826599D01*
X155476794Y-147693402D01*
X155502246Y-147628333D01*
X155540818Y-147600402D01*
X155658459Y-147600402D01*
X155689383Y-147617930D01*
X155721891Y-147679776D01*
X155723725Y-147692055D01*
X155733975Y-147796129D01*
X155733976Y-147796132D01*
X155781729Y-147953553D01*
X155791188Y-147984733D01*
X155884086Y-148158532D01*
X155884090Y-148158539D01*
X156009116Y-148310883D01*
X156161460Y-148435909D01*
X156161467Y-148435913D01*
X156335266Y-148528811D01*
X156335269Y-148528811D01*
X156335273Y-148528814D01*
X156523868Y-148586024D01*
X156720000Y-148605341D01*
X156916132Y-148586024D01*
X157104727Y-148528814D01*
X157278538Y-148435910D01*
X157430883Y-148310883D01*
X157555910Y-148158538D01*
X157615893Y-148046317D01*
X157648811Y-147984733D01*
X157648811Y-147984732D01*
X157648814Y-147984727D01*
X157706024Y-147796132D01*
X157725341Y-147600000D01*
X158254659Y-147600000D01*
X158273975Y-147796129D01*
X158273976Y-147796132D01*
X158321729Y-147953553D01*
X158331188Y-147984733D01*
X158424086Y-148158532D01*
X158424090Y-148158539D01*
X158549116Y-148310883D01*
X158701460Y-148435909D01*
X158701467Y-148435913D01*
X158875266Y-148528811D01*
X158875269Y-148528811D01*
X158875273Y-148528814D01*
X159063868Y-148586024D01*
X159260000Y-148605341D01*
X159456132Y-148586024D01*
X159644727Y-148528814D01*
X159818538Y-148435910D01*
X159970883Y-148310883D01*
X160095910Y-148158538D01*
X160155893Y-148046317D01*
X160188811Y-147984733D01*
X160188811Y-147984732D01*
X160188814Y-147984727D01*
X160246024Y-147796132D01*
X160265341Y-147600000D01*
X160794659Y-147600000D01*
X160813975Y-147796129D01*
X160813976Y-147796132D01*
X160861729Y-147953553D01*
X160871188Y-147984733D01*
X160964086Y-148158532D01*
X160964090Y-148158539D01*
X161089116Y-148310883D01*
X161241460Y-148435909D01*
X161241467Y-148435913D01*
X161415266Y-148528811D01*
X161415269Y-148528811D01*
X161415273Y-148528814D01*
X161603868Y-148586024D01*
X161800000Y-148605341D01*
X161996132Y-148586024D01*
X162184727Y-148528814D01*
X162358538Y-148435910D01*
X162510883Y-148310883D01*
X162635910Y-148158538D01*
X162695893Y-148046317D01*
X162728811Y-147984733D01*
X162728811Y-147984732D01*
X162728814Y-147984727D01*
X162786024Y-147796132D01*
X162805341Y-147600000D01*
X162786024Y-147403868D01*
X162728814Y-147215273D01*
X162728811Y-147215269D01*
X162728811Y-147215266D01*
X162635913Y-147041467D01*
X162635909Y-147041460D01*
X162510883Y-146889116D01*
X162358539Y-146764090D01*
X162358532Y-146764086D01*
X162184733Y-146671188D01*
X162184727Y-146671186D01*
X161996132Y-146613976D01*
X161996129Y-146613975D01*
X161800000Y-146594659D01*
X161603870Y-146613975D01*
X161415266Y-146671188D01*
X161241467Y-146764086D01*
X161241460Y-146764090D01*
X161089116Y-146889116D01*
X160964090Y-147041460D01*
X160964086Y-147041467D01*
X160871188Y-147215266D01*
X160813975Y-147403870D01*
X160794659Y-147600000D01*
X160265341Y-147600000D01*
X160246024Y-147403868D01*
X160188814Y-147215273D01*
X160188811Y-147215269D01*
X160188811Y-147215266D01*
X160095913Y-147041467D01*
X160095909Y-147041460D01*
X159970883Y-146889116D01*
X159818539Y-146764090D01*
X159818532Y-146764086D01*
X159644733Y-146671188D01*
X159644727Y-146671186D01*
X159456132Y-146613976D01*
X159456129Y-146613975D01*
X159260000Y-146594659D01*
X159063870Y-146613975D01*
X158875266Y-146671188D01*
X158701467Y-146764086D01*
X158701460Y-146764090D01*
X158549116Y-146889116D01*
X158424090Y-147041460D01*
X158424086Y-147041467D01*
X158331188Y-147215266D01*
X158273975Y-147403870D01*
X158254659Y-147600000D01*
X157725341Y-147600000D01*
X157706024Y-147403868D01*
X157648814Y-147215273D01*
X157648811Y-147215269D01*
X157648811Y-147215266D01*
X157555913Y-147041467D01*
X157555909Y-147041460D01*
X157430883Y-146889116D01*
X157278539Y-146764090D01*
X157278532Y-146764086D01*
X157104733Y-146671188D01*
X157104727Y-146671186D01*
X156916132Y-146613976D01*
X156916129Y-146613975D01*
X156720000Y-146594659D01*
X156523870Y-146613975D01*
X156335266Y-146671188D01*
X156161467Y-146764086D01*
X156161460Y-146764090D01*
X156009116Y-146889116D01*
X155884090Y-147041460D01*
X155884086Y-147041467D01*
X155791188Y-147215266D01*
X155733975Y-147403870D01*
X155723725Y-147507945D01*
X155697564Y-147572732D01*
X155658459Y-147600402D01*
X155540818Y-147600402D01*
X155542031Y-147599524D01*
X155510325Y-147581092D01*
X155478493Y-147518894D01*
X155476794Y-147506597D01*
X155465141Y-147373400D01*
X155465139Y-147373389D01*
X155406269Y-147153682D01*
X155406264Y-147153668D01*
X155310136Y-146947521D01*
X155310132Y-146947513D01*
X155259025Y-146874526D01*
X154662962Y-147470589D01*
X154645925Y-147407007D01*
X154580099Y-147292993D01*
X154487007Y-147199901D01*
X154372993Y-147134075D01*
X154309408Y-147117037D01*
X154905472Y-146520974D01*
X154832478Y-146469863D01*
X154626331Y-146373735D01*
X154626319Y-146373731D01*
X154555589Y-146354779D01*
X154495929Y-146318414D01*
X154465400Y-146255567D01*
X154473695Y-146186191D01*
X154499997Y-146147329D01*
X162087327Y-138560000D01*
X163572843Y-138560000D01*
X163591426Y-138748681D01*
X163609409Y-138807963D01*
X163646463Y-138930115D01*
X163646464Y-138930118D01*
X163646465Y-138930119D01*
X163646466Y-138930122D01*
X163735834Y-139097318D01*
X163735838Y-139097325D01*
X163856116Y-139243883D01*
X164002674Y-139364161D01*
X164002681Y-139364165D01*
X164169877Y-139453533D01*
X164169878Y-139453533D01*
X164169885Y-139453537D01*
X164351317Y-139508573D01*
X164351316Y-139508573D01*
X164368233Y-139510239D01*
X164540000Y-139527157D01*
X164728683Y-139508573D01*
X164910115Y-139453537D01*
X165077324Y-139364162D01*
X165223883Y-139243883D01*
X165344162Y-139097324D01*
X165433537Y-138930115D01*
X165488573Y-138748683D01*
X165507157Y-138560000D01*
X168652843Y-138560000D01*
X168671426Y-138748681D01*
X168689409Y-138807963D01*
X168726463Y-138930115D01*
X168726464Y-138930118D01*
X168726465Y-138930119D01*
X168726466Y-138930122D01*
X168815834Y-139097318D01*
X168815838Y-139097325D01*
X168936116Y-139243883D01*
X169082674Y-139364161D01*
X169082681Y-139364165D01*
X169249877Y-139453533D01*
X169249878Y-139453533D01*
X169249885Y-139453537D01*
X169431317Y-139508573D01*
X169431316Y-139508573D01*
X169448233Y-139510239D01*
X169620000Y-139527157D01*
X169808683Y-139508573D01*
X169990115Y-139453537D01*
X170157324Y-139364162D01*
X170303883Y-139243883D01*
X170424162Y-139097324D01*
X170513537Y-138930115D01*
X170568573Y-138748683D01*
X170587157Y-138560000D01*
X170568573Y-138371317D01*
X170513537Y-138189885D01*
X170424162Y-138022676D01*
X170424161Y-138022674D01*
X170303883Y-137876116D01*
X170157325Y-137755838D01*
X170157318Y-137755834D01*
X169990122Y-137666466D01*
X169990119Y-137666465D01*
X169990118Y-137666464D01*
X169990115Y-137666463D01*
X169808683Y-137611427D01*
X169808681Y-137611426D01*
X169808683Y-137611426D01*
X169620000Y-137592843D01*
X169431318Y-137611426D01*
X169324194Y-137643921D01*
X169249885Y-137666463D01*
X169249882Y-137666464D01*
X169249880Y-137666465D01*
X169249877Y-137666466D01*
X169082681Y-137755834D01*
X169082674Y-137755838D01*
X168936116Y-137876116D01*
X168815838Y-138022674D01*
X168815834Y-138022681D01*
X168726466Y-138189877D01*
X168726465Y-138189880D01*
X168726464Y-138189882D01*
X168726463Y-138189885D01*
X168721889Y-138204964D01*
X168671426Y-138371318D01*
X168652843Y-138560000D01*
X165507157Y-138560000D01*
X165488573Y-138371317D01*
X165433537Y-138189885D01*
X165344162Y-138022676D01*
X165344161Y-138022674D01*
X165223883Y-137876116D01*
X165077325Y-137755838D01*
X165077318Y-137755834D01*
X164910122Y-137666466D01*
X164910119Y-137666465D01*
X164910118Y-137666464D01*
X164910115Y-137666463D01*
X164728683Y-137611427D01*
X164728681Y-137611426D01*
X164728683Y-137611426D01*
X164540000Y-137592843D01*
X164351318Y-137611426D01*
X164244194Y-137643921D01*
X164169885Y-137666463D01*
X164169882Y-137666464D01*
X164169880Y-137666465D01*
X164169877Y-137666466D01*
X164002681Y-137755834D01*
X164002674Y-137755838D01*
X163856116Y-137876116D01*
X163735838Y-138022674D01*
X163735834Y-138022681D01*
X163646466Y-138189877D01*
X163646465Y-138189880D01*
X163646464Y-138189882D01*
X163646463Y-138189885D01*
X163641889Y-138204964D01*
X163591426Y-138371318D01*
X163572843Y-138560000D01*
X162087327Y-138560000D01*
X167437508Y-133209819D01*
X167498831Y-133176334D01*
X167525189Y-133173500D01*
X172315851Y-133173500D01*
X172315853Y-133173500D01*
X172398639Y-133151318D01*
X172472862Y-133108465D01*
X172919851Y-132661474D01*
X172981172Y-132627991D01*
X173012253Y-132625785D01*
X173012253Y-132625500D01*
X173016272Y-132625500D01*
X173016512Y-132625483D01*
X173016734Y-132625499D01*
X173016740Y-132625500D01*
X173016746Y-132625500D01*
X173383258Y-132625500D01*
X173383260Y-132625500D01*
X173414828Y-132620900D01*
X173484003Y-132630712D01*
X173536894Y-132676367D01*
X173556706Y-132743368D01*
X173537149Y-132810445D01*
X173520387Y-132831285D01*
X172939537Y-133412135D01*
X172939533Y-133412141D01*
X172896681Y-133486361D01*
X172896682Y-133486362D01*
X172874500Y-133569147D01*
X172874500Y-144942364D01*
X172854815Y-145009403D01*
X172808954Y-145051722D01*
X172667145Y-145127521D01*
X172667142Y-145127523D01*
X172521800Y-145246800D01*
X172402523Y-145392142D01*
X172402518Y-145392148D01*
X172313891Y-145557959D01*
X172259311Y-145737882D01*
X172259310Y-145737884D01*
X172240882Y-145925000D01*
X172259310Y-146112115D01*
X172259311Y-146112117D01*
X172313891Y-146292040D01*
X172402518Y-146457851D01*
X172402524Y-146457858D01*
X172418918Y-146477835D01*
X172446231Y-146542145D01*
X172434440Y-146611013D01*
X172387287Y-146662573D01*
X172323065Y-146680500D01*
X171576935Y-146680500D01*
X171509896Y-146660815D01*
X171464141Y-146608011D01*
X171454197Y-146538853D01*
X171481082Y-146477835D01*
X171487624Y-146469863D01*
X171497477Y-146457857D01*
X171497478Y-146457853D01*
X171497481Y-146457851D01*
X171579146Y-146305066D01*
X171586109Y-146292039D01*
X171640689Y-146112115D01*
X171659118Y-145925000D01*
X171640689Y-145737885D01*
X171586109Y-145557961D01*
X171569566Y-145527011D01*
X171497481Y-145392148D01*
X171497476Y-145392142D01*
X171378199Y-145246800D01*
X171232857Y-145127523D01*
X171232851Y-145127518D01*
X171067040Y-145038891D01*
X170887117Y-144984311D01*
X170887115Y-144984310D01*
X170700000Y-144965882D01*
X170512884Y-144984310D01*
X170512882Y-144984311D01*
X170332959Y-145038891D01*
X170167148Y-145127518D01*
X170167142Y-145127523D01*
X170021800Y-145246800D01*
X169902523Y-145392142D01*
X169902518Y-145392148D01*
X169813891Y-145557958D01*
X169769841Y-145703169D01*
X169731543Y-145761607D01*
X169667731Y-145790063D01*
X169598664Y-145779502D01*
X169546271Y-145733277D01*
X169543792Y-145729169D01*
X169541465Y-145725138D01*
X169480863Y-145664536D01*
X169480855Y-145664530D01*
X169406644Y-145621685D01*
X169406640Y-145621683D01*
X169406638Y-145621682D01*
X169323853Y-145599500D01*
X169323852Y-145599500D01*
X169278500Y-145599500D01*
X169211461Y-145579815D01*
X169165706Y-145527011D01*
X169154500Y-145475500D01*
X169154500Y-145151249D01*
X169154499Y-145151247D01*
X169142868Y-145092770D01*
X169142867Y-145092769D01*
X169098552Y-145026447D01*
X169032230Y-144982132D01*
X169032229Y-144982131D01*
X168973752Y-144970500D01*
X168973748Y-144970500D01*
X167426252Y-144970500D01*
X167426247Y-144970500D01*
X167367770Y-144982131D01*
X167367769Y-144982132D01*
X167301447Y-145026447D01*
X167257132Y-145092769D01*
X167257131Y-145092770D01*
X167245500Y-145151247D01*
X167245500Y-146698752D01*
X167257131Y-146757229D01*
X167257132Y-146757230D01*
X167301447Y-146823552D01*
X167367769Y-146867867D01*
X167367770Y-146867868D01*
X167426247Y-146879499D01*
X167426250Y-146879500D01*
X167426252Y-146879500D01*
X168973750Y-146879500D01*
X168973751Y-146879499D01*
X168988568Y-146876552D01*
X169032229Y-146867868D01*
X169032229Y-146867867D01*
X169032231Y-146867867D01*
X169098552Y-146823552D01*
X169142867Y-146757231D01*
X169142867Y-146757229D01*
X169142868Y-146757229D01*
X169154499Y-146698752D01*
X169154500Y-146698750D01*
X169154500Y-146693523D01*
X169174185Y-146626484D01*
X169226989Y-146580729D01*
X169296147Y-146570785D01*
X169359703Y-146599810D01*
X169366224Y-146605884D01*
X169959198Y-147199486D01*
X169959907Y-147200196D01*
X169960195Y-147200523D01*
X169996627Y-147236954D01*
X169996660Y-147237015D01*
X169996674Y-147237002D01*
X170025995Y-147266354D01*
X170025999Y-147266357D01*
X170026001Y-147266359D01*
X170026003Y-147266360D01*
X170026072Y-147266413D01*
X170026131Y-147266458D01*
X170026138Y-147266465D01*
X170029495Y-147268403D01*
X170063769Y-147288191D01*
X170063762Y-147288201D01*
X170063825Y-147288222D01*
X170100201Y-147309251D01*
X170100202Y-147309251D01*
X170100209Y-147309255D01*
X170100363Y-147309319D01*
X170141325Y-147320294D01*
X170141385Y-147320331D01*
X170141391Y-147320312D01*
X170151361Y-147322989D01*
X170182975Y-147331478D01*
X170182976Y-147331478D01*
X170183140Y-147331500D01*
X170183147Y-147331500D01*
X170224875Y-147331500D01*
X170224899Y-147331500D01*
X170268681Y-147331523D01*
X170268684Y-147331522D01*
X170276539Y-147331526D01*
X170276951Y-147331500D01*
X173622961Y-147331500D01*
X173623141Y-147331511D01*
X173631221Y-147331509D01*
X173631224Y-147331510D01*
X173674077Y-147331500D01*
X173716853Y-147331500D01*
X173716862Y-147331497D01*
X173716881Y-147331495D01*
X173716917Y-147331490D01*
X173716930Y-147331490D01*
X173758172Y-147320428D01*
X173758176Y-147320427D01*
X173758177Y-147320431D01*
X173758199Y-147320420D01*
X173799638Y-147309318D01*
X173799642Y-147309315D01*
X173799701Y-147309291D01*
X173799703Y-147309289D01*
X173799710Y-147309288D01*
X173836454Y-147288061D01*
X173836482Y-147288054D01*
X173836478Y-147288048D01*
X173873862Y-147266465D01*
X173873861Y-147266465D01*
X173873908Y-147266439D01*
X173873910Y-147266437D01*
X173874265Y-147266076D01*
X173878535Y-147261802D01*
X173903539Y-147236786D01*
X173903568Y-147236771D01*
X173903562Y-147236765D01*
X173920429Y-147219897D01*
X173934465Y-147205862D01*
X173934465Y-147205860D01*
X173940698Y-147199628D01*
X173940814Y-147199493D01*
X176020732Y-145118593D01*
X176020753Y-145118574D01*
X176052084Y-145087243D01*
X176052486Y-145086847D01*
X176052491Y-145086840D01*
X176052689Y-145086493D01*
X176074136Y-145049326D01*
X176074138Y-145049320D01*
X176095148Y-145012932D01*
X176095339Y-145012608D01*
X176095340Y-145012603D01*
X176095437Y-145012233D01*
X176096195Y-145009403D01*
X176107144Y-144968498D01*
X176107158Y-144968475D01*
X176107152Y-144968474D01*
X176113039Y-144946500D01*
X176117500Y-144929853D01*
X176117500Y-144929849D01*
X176117502Y-144929842D01*
X176117511Y-144929779D01*
X176117500Y-144882637D01*
X176117500Y-102584855D01*
X176117501Y-102584842D01*
X176117501Y-102489148D01*
X176110407Y-102462674D01*
X176095318Y-102406361D01*
X176073458Y-102368500D01*
X176068082Y-102359189D01*
X176052467Y-102332141D01*
X176052466Y-102332140D01*
X176052465Y-102332138D01*
X175991862Y-102271535D01*
X175991861Y-102271534D01*
X175987531Y-102267204D01*
X175987520Y-102267194D01*
X175346864Y-101626537D01*
X175346863Y-101626536D01*
X175346862Y-101626535D01*
X175301195Y-101600169D01*
X175272640Y-101583682D01*
X175231246Y-101572591D01*
X175189853Y-101561500D01*
X175189852Y-101561500D01*
X165703465Y-101561500D01*
X165703449Y-101561499D01*
X165695853Y-101561499D01*
X165658762Y-101561499D01*
X165591723Y-101541814D01*
X165545968Y-101489010D01*
X165536024Y-101419852D01*
X165565049Y-101356296D01*
X165583269Y-101339128D01*
X165588282Y-101335282D01*
X165684536Y-101209841D01*
X165745044Y-101063762D01*
X165765682Y-100907000D01*
X165745044Y-100750238D01*
X165684938Y-100605131D01*
X165675500Y-100557679D01*
X165675500Y-100374500D01*
X165695185Y-100307461D01*
X165747989Y-100261706D01*
X165799500Y-100250500D01*
X166012713Y-100250500D01*
X166012720Y-100250500D01*
X166125236Y-100235687D01*
X166265233Y-100177698D01*
X166385451Y-100085451D01*
X166477698Y-99965233D01*
X166509048Y-99889548D01*
X166552888Y-99835144D01*
X166619183Y-99813079D01*
X166623609Y-99813000D01*
X173800501Y-99813000D01*
X173867540Y-99832685D01*
X173913295Y-99885489D01*
X173924501Y-99937000D01*
X173924501Y-100004264D01*
X173927354Y-100034697D01*
X173927354Y-100034698D01*
X173927354Y-100034699D01*
X173972206Y-100162881D01*
X173972207Y-100162882D01*
X174052850Y-100272150D01*
X174162118Y-100352793D01*
X174290302Y-100397646D01*
X174290301Y-100397646D01*
X174294271Y-100398018D01*
X174320735Y-100400500D01*
X175679264Y-100400499D01*
X175709698Y-100397646D01*
X175837882Y-100352793D01*
X175947150Y-100272150D01*
X176027793Y-100162882D01*
X176072646Y-100034698D01*
X176075500Y-100004265D01*
X176075499Y-98970736D01*
X176072646Y-98940302D01*
X176027793Y-98812118D01*
X175947150Y-98702850D01*
X175866506Y-98643332D01*
X175837881Y-98622206D01*
X175709695Y-98577353D01*
X175709698Y-98577353D01*
X175679268Y-98574500D01*
X174320741Y-98574500D01*
X174290301Y-98577354D01*
X174290300Y-98577354D01*
X174162118Y-98622206D01*
X174052850Y-98702850D01*
X173972206Y-98812118D01*
X173927353Y-98940302D01*
X173924500Y-98970731D01*
X173924500Y-99038000D01*
X173904815Y-99105039D01*
X173852011Y-99150794D01*
X173800500Y-99162000D01*
X173080073Y-99162000D01*
X173013034Y-99142315D01*
X172967279Y-99089511D01*
X172957335Y-99020353D01*
X172983972Y-98959638D01*
X172989278Y-98953130D01*
X173083442Y-98772861D01*
X173139390Y-98577328D01*
X173139391Y-98577325D01*
X173149999Y-98458000D01*
X173150000Y-98457998D01*
X173150000Y-97250000D01*
X170150000Y-97250000D01*
X170150000Y-98458000D01*
X170160608Y-98577325D01*
X170160609Y-98577328D01*
X170216557Y-98772861D01*
X170310721Y-98953130D01*
X170316028Y-98959638D01*
X170343138Y-99024034D01*
X170331129Y-99092864D01*
X170283815Y-99144275D01*
X170219927Y-99162000D01*
X166674500Y-99162000D01*
X166607461Y-99142315D01*
X166561706Y-99089511D01*
X166550500Y-99038000D01*
X166550500Y-98887286D01*
X166550499Y-98887272D01*
X166549750Y-98881586D01*
X166535687Y-98774764D01*
X166477698Y-98634767D01*
X166385451Y-98514549D01*
X166265233Y-98422302D01*
X166265230Y-98422301D01*
X166258785Y-98417355D01*
X166259651Y-98416225D01*
X166217490Y-98372007D01*
X166204268Y-98303399D01*
X166230236Y-98238535D01*
X166272612Y-98204100D01*
X166449022Y-98116609D01*
X166449025Y-98116607D01*
X166597366Y-97997367D01*
X166597367Y-97997366D01*
X166716607Y-97849025D01*
X166716609Y-97849022D01*
X166801168Y-97678523D01*
X166847102Y-97493824D01*
X166850000Y-97451096D01*
X166850000Y-97250000D01*
X165474000Y-97250000D01*
X165406961Y-97230315D01*
X165361206Y-97177511D01*
X165350000Y-97126000D01*
X165350000Y-97024985D01*
X173625000Y-97024985D01*
X173635493Y-97127689D01*
X173635494Y-97127696D01*
X173690641Y-97294118D01*
X173690643Y-97294123D01*
X173782684Y-97443344D01*
X173906655Y-97567315D01*
X174055876Y-97659356D01*
X174055881Y-97659358D01*
X174222303Y-97714505D01*
X174222310Y-97714506D01*
X174325014Y-97724999D01*
X174325027Y-97725000D01*
X174750000Y-97725000D01*
X175250000Y-97725000D01*
X175674973Y-97725000D01*
X175674985Y-97724999D01*
X175777689Y-97714506D01*
X175777696Y-97714505D01*
X175944118Y-97659358D01*
X175944123Y-97659356D01*
X176093344Y-97567315D01*
X176217315Y-97443344D01*
X176309356Y-97294123D01*
X176309358Y-97294118D01*
X176364505Y-97127696D01*
X176364506Y-97127689D01*
X176374999Y-97024985D01*
X176375000Y-97024972D01*
X176375000Y-96762500D01*
X175250000Y-96762500D01*
X175250000Y-97725000D01*
X174750000Y-97725000D01*
X174750000Y-96762500D01*
X173625000Y-96762500D01*
X173625000Y-97024985D01*
X165350000Y-97024985D01*
X165350000Y-96874000D01*
X165369685Y-96806961D01*
X165422489Y-96761206D01*
X165474000Y-96750000D01*
X166850000Y-96750000D01*
X166850000Y-96548903D01*
X166847102Y-96506175D01*
X166801168Y-96321476D01*
X166716609Y-96150977D01*
X166716607Y-96150974D01*
X166597367Y-96002633D01*
X166597366Y-96002632D01*
X166449025Y-95883392D01*
X166272611Y-95795899D01*
X166221299Y-95748478D01*
X166203770Y-95680843D01*
X166225589Y-95614468D01*
X166259311Y-95583331D01*
X166258785Y-95582645D01*
X166265230Y-95577698D01*
X166265233Y-95577698D01*
X166311757Y-95541999D01*
X170150000Y-95541999D01*
X170150000Y-96750000D01*
X171400000Y-96750000D01*
X171900000Y-96750000D01*
X173150000Y-96750000D01*
X173150000Y-96000014D01*
X173625000Y-96000014D01*
X173625000Y-96262500D01*
X174750000Y-96262500D01*
X175250000Y-96262500D01*
X176375000Y-96262500D01*
X176375000Y-96000027D01*
X176374999Y-96000014D01*
X176364506Y-95897310D01*
X176364505Y-95897303D01*
X176309358Y-95730881D01*
X176309356Y-95730876D01*
X176217315Y-95581655D01*
X176093344Y-95457684D01*
X175944123Y-95365643D01*
X175944118Y-95365641D01*
X175777696Y-95310494D01*
X175777689Y-95310493D01*
X175674985Y-95300000D01*
X175250000Y-95300000D01*
X175250000Y-96262500D01*
X174750000Y-96262500D01*
X174750000Y-95300000D01*
X174325014Y-95300000D01*
X174222310Y-95310493D01*
X174222303Y-95310494D01*
X174055881Y-95365641D01*
X174055876Y-95365643D01*
X173906655Y-95457684D01*
X173782684Y-95581655D01*
X173690643Y-95730876D01*
X173690641Y-95730881D01*
X173635494Y-95897303D01*
X173635493Y-95897310D01*
X173625000Y-96000014D01*
X173150000Y-96000014D01*
X173150000Y-95542002D01*
X173149999Y-95541999D01*
X173139391Y-95422674D01*
X173139390Y-95422671D01*
X173083442Y-95227138D01*
X172989278Y-95046870D01*
X172860753Y-94889246D01*
X172703129Y-94760721D01*
X172522861Y-94666557D01*
X172327328Y-94610609D01*
X172327325Y-94610608D01*
X172208000Y-94600000D01*
X171900000Y-94600000D01*
X171900000Y-96750000D01*
X171400000Y-96750000D01*
X171400000Y-94600000D01*
X171091999Y-94600000D01*
X170972674Y-94610608D01*
X170972671Y-94610609D01*
X170777138Y-94666557D01*
X170596870Y-94760721D01*
X170439246Y-94889246D01*
X170310721Y-95046870D01*
X170216557Y-95227138D01*
X170160609Y-95422671D01*
X170160608Y-95422674D01*
X170150000Y-95541999D01*
X166311757Y-95541999D01*
X166385451Y-95485451D01*
X166477698Y-95365233D01*
X166535687Y-95225236D01*
X166550500Y-95112720D01*
X166550500Y-94287280D01*
X166535687Y-94174764D01*
X166477698Y-94034767D01*
X166385451Y-93914549D01*
X166265233Y-93822302D01*
X166265229Y-93822300D01*
X166201801Y-93796027D01*
X166125236Y-93764313D01*
X166111171Y-93762461D01*
X166012727Y-93749500D01*
X166012720Y-93749500D01*
X164687280Y-93749500D01*
X164687272Y-93749500D01*
X164574764Y-93764313D01*
X164574763Y-93764313D01*
X164434770Y-93822300D01*
X164434767Y-93822301D01*
X164434767Y-93822302D01*
X164314549Y-93914549D01*
X164244800Y-94005448D01*
X164222300Y-94034770D01*
X164164313Y-94174763D01*
X164164313Y-94174764D01*
X164149500Y-94287272D01*
X164149500Y-95112727D01*
X164164313Y-95225235D01*
X164164314Y-95225239D01*
X164191293Y-95290373D01*
X164198762Y-95359842D01*
X164167486Y-95422321D01*
X164164425Y-95425495D01*
X163202194Y-96387978D01*
X163171519Y-96418653D01*
X163158860Y-96440586D01*
X163150330Y-96455365D01*
X163143236Y-96467651D01*
X163128671Y-96492879D01*
X163122761Y-96514948D01*
X163117551Y-96534401D01*
X163114131Y-96547163D01*
X163106498Y-96575650D01*
X163106494Y-96575688D01*
X163106500Y-96622438D01*
X163106500Y-108616440D01*
X163106490Y-108661792D01*
X163106497Y-108661843D01*
X163117361Y-108702387D01*
X163117364Y-108702410D01*
X163117367Y-108702410D01*
X163127396Y-108739868D01*
X163128666Y-108744609D01*
X163128681Y-108744635D01*
X163128682Y-108744638D01*
X163149999Y-108781560D01*
X163150008Y-108781577D01*
X163150011Y-108781581D01*
X163171500Y-108818818D01*
X163171532Y-108818860D01*
X163202328Y-108849655D01*
X163202346Y-108849673D01*
X164891720Y-110539705D01*
X164925193Y-110601034D01*
X164927481Y-110638944D01*
X164927354Y-110640301D01*
X164927354Y-110640302D01*
X164924501Y-110670731D01*
X164924500Y-110670739D01*
X164924500Y-111704258D01*
X164927354Y-111734698D01*
X164927354Y-111734699D01*
X164972206Y-111862881D01*
X164972207Y-111862882D01*
X165052850Y-111972150D01*
X165162118Y-112052793D01*
X165290302Y-112097646D01*
X165290301Y-112097646D01*
X165294867Y-112098074D01*
X165320735Y-112100500D01*
X165450500Y-112100499D01*
X165517539Y-112120183D01*
X165563294Y-112172987D01*
X165574500Y-112224499D01*
X165574500Y-116075500D01*
X165554815Y-116142539D01*
X165502011Y-116188294D01*
X165450501Y-116199500D01*
X165220742Y-116199500D01*
X165190301Y-116202354D01*
X165190300Y-116202354D01*
X165062118Y-116247206D01*
X164952850Y-116327850D01*
X164872206Y-116437118D01*
X164827353Y-116565302D01*
X164824500Y-116595731D01*
X164824500Y-117629258D01*
X164827354Y-117659698D01*
X164827354Y-117659699D01*
X164872206Y-117787881D01*
X164872207Y-117787882D01*
X164952850Y-117897150D01*
X165062118Y-117977793D01*
X165190302Y-118022646D01*
X165190301Y-118022646D01*
X165194271Y-118023018D01*
X165220735Y-118025500D01*
X166301143Y-118025499D01*
X166368182Y-118045184D01*
X166388865Y-118061858D01*
X166713761Y-118387054D01*
X166714003Y-118387330D01*
X166750814Y-118424141D01*
X166750842Y-118424193D01*
X166750854Y-118424182D01*
X166781953Y-118455310D01*
X166790210Y-118462537D01*
X168553807Y-120226134D01*
X170298181Y-121970507D01*
X170331666Y-122031830D01*
X170334500Y-122058188D01*
X170334500Y-125303456D01*
X170314815Y-125370495D01*
X170298181Y-125391137D01*
X170220803Y-125468514D01*
X170169426Y-125573608D01*
X170159500Y-125641739D01*
X170159500Y-126872519D01*
X170139815Y-126939558D01*
X170123139Y-126960242D01*
X170102139Y-126981222D01*
X170040800Y-127014678D01*
X169971111Y-127009660D01*
X169915197Y-126967762D01*
X169890812Y-126902286D01*
X169890500Y-126893499D01*
X169890500Y-125641739D01*
X169880573Y-125573608D01*
X169880573Y-125573607D01*
X169829198Y-125468517D01*
X169829196Y-125468515D01*
X169829196Y-125468514D01*
X169746485Y-125385803D01*
X169641391Y-125334426D01*
X169573261Y-125324500D01*
X169573260Y-125324500D01*
X169206740Y-125324500D01*
X169206739Y-125324500D01*
X169138608Y-125334426D01*
X169033514Y-125385803D01*
X168950803Y-125468514D01*
X168899426Y-125573608D01*
X168889500Y-125641739D01*
X168889500Y-125962500D01*
X168869815Y-126029539D01*
X168817011Y-126075294D01*
X168765500Y-126086500D01*
X167099499Y-126086500D01*
X167032460Y-126066815D01*
X166986705Y-126014011D01*
X166975499Y-125962500D01*
X166975499Y-125895741D01*
X166975499Y-125895736D01*
X166972646Y-125865302D01*
X166927793Y-125737118D01*
X166847150Y-125627850D01*
X166737882Y-125547207D01*
X166737881Y-125547206D01*
X166609695Y-125502353D01*
X166609698Y-125502353D01*
X166579269Y-125499500D01*
X166579265Y-125499500D01*
X166349500Y-125499500D01*
X166282461Y-125479815D01*
X166236706Y-125427011D01*
X166225500Y-125375500D01*
X166225500Y-121124499D01*
X166245185Y-121057460D01*
X166297989Y-121011705D01*
X166349500Y-121000499D01*
X166579258Y-121000499D01*
X166579264Y-121000499D01*
X166609698Y-120997646D01*
X166737882Y-120952793D01*
X166847150Y-120872150D01*
X166927793Y-120762882D01*
X166972646Y-120634698D01*
X166975500Y-120604265D01*
X166975499Y-119570736D01*
X166972646Y-119540302D01*
X166927793Y-119412118D01*
X166847150Y-119302850D01*
X166751850Y-119232516D01*
X166737881Y-119222206D01*
X166609695Y-119177353D01*
X166609698Y-119177353D01*
X166579269Y-119174500D01*
X166579265Y-119174500D01*
X165498440Y-119174500D01*
X165431401Y-119154815D01*
X165410750Y-119138172D01*
X161966810Y-115693510D01*
X161933331Y-115632183D01*
X161930500Y-115605838D01*
X161930500Y-100372496D01*
X161930504Y-100372425D01*
X161930503Y-100363829D01*
X161930504Y-100363827D01*
X161930500Y-100314852D01*
X161930500Y-100278147D01*
X161930500Y-100278132D01*
X161918386Y-100232940D01*
X161918383Y-100232928D01*
X161915836Y-100223422D01*
X161909101Y-100198287D01*
X161908404Y-100195393D01*
X161908400Y-100195383D01*
X161907028Y-100193121D01*
X161885438Y-100155732D01*
X161885434Y-100155725D01*
X161866133Y-100122295D01*
X161865522Y-100121207D01*
X161865467Y-100121134D01*
X161834424Y-100090097D01*
X161834415Y-100090088D01*
X161799248Y-100054920D01*
X161799190Y-100054869D01*
X160093546Y-98349500D01*
X157805865Y-96062187D01*
X157772376Y-96000868D01*
X157777355Y-95931176D01*
X157819222Y-95875239D01*
X157884684Y-95850817D01*
X157893540Y-95850500D01*
X158029750Y-95850500D01*
X158029751Y-95850499D01*
X158044568Y-95847552D01*
X158088229Y-95838868D01*
X158088229Y-95838867D01*
X158088231Y-95838867D01*
X158154552Y-95794552D01*
X158198867Y-95728231D01*
X158198867Y-95728229D01*
X158198868Y-95728229D01*
X158207552Y-95684568D01*
X158210500Y-95669748D01*
X158210500Y-94900000D01*
X158794659Y-94900000D01*
X158813975Y-95096129D01*
X158813976Y-95096132D01*
X158853716Y-95227138D01*
X158871188Y-95284733D01*
X158964086Y-95458532D01*
X158964090Y-95458539D01*
X159089116Y-95610883D01*
X159241460Y-95735909D01*
X159241467Y-95735913D01*
X159415266Y-95828811D01*
X159415269Y-95828811D01*
X159415273Y-95828814D01*
X159603868Y-95886024D01*
X159800000Y-95905341D01*
X159996132Y-95886024D01*
X160184727Y-95828814D01*
X160358538Y-95735910D01*
X160510883Y-95610883D01*
X160635910Y-95458538D01*
X160717309Y-95306251D01*
X160728811Y-95284733D01*
X160728811Y-95284732D01*
X160728814Y-95284727D01*
X160786024Y-95096132D01*
X160805341Y-94900000D01*
X160786024Y-94703868D01*
X160728814Y-94515273D01*
X160728811Y-94515269D01*
X160728811Y-94515266D01*
X160635913Y-94341467D01*
X160635909Y-94341460D01*
X160510883Y-94189116D01*
X160358539Y-94064090D01*
X160358532Y-94064086D01*
X160184733Y-93971188D01*
X160184727Y-93971186D01*
X159996132Y-93913976D01*
X159996129Y-93913975D01*
X159800000Y-93894659D01*
X159603870Y-93913975D01*
X159415266Y-93971188D01*
X159241467Y-94064086D01*
X159241460Y-94064090D01*
X159089116Y-94189116D01*
X158964090Y-94341460D01*
X158964086Y-94341467D01*
X158871188Y-94515266D01*
X158813975Y-94703870D01*
X158794659Y-94900000D01*
X158210500Y-94900000D01*
X158210500Y-94130252D01*
X158210500Y-94130249D01*
X158210499Y-94130247D01*
X158198868Y-94071770D01*
X158198867Y-94071769D01*
X158154552Y-94005447D01*
X158088230Y-93961132D01*
X158088229Y-93961131D01*
X158029752Y-93949500D01*
X158029748Y-93949500D01*
X156623500Y-93949500D01*
X156556461Y-93929815D01*
X156510706Y-93877011D01*
X156499500Y-93825500D01*
X156499500Y-91913064D01*
X156499505Y-91912975D01*
X156499504Y-91904620D01*
X156499505Y-91904618D01*
X156499503Y-91892007D01*
X156519178Y-91824967D01*
X156571975Y-91779205D01*
X156641133Y-91769252D01*
X156704692Y-91798267D01*
X156711184Y-91804311D01*
X157327194Y-92420320D01*
X157327204Y-92420331D01*
X157392139Y-92485266D01*
X157423000Y-92503083D01*
X157466122Y-92527979D01*
X157466353Y-92528114D01*
X157466361Y-92528117D01*
X157466362Y-92528118D01*
X157549147Y-92550301D01*
X157549150Y-92550301D01*
X157642449Y-92550301D01*
X157642465Y-92550300D01*
X165082411Y-92550300D01*
X165082414Y-92550300D01*
X165133835Y-92550303D01*
X165133846Y-92550300D01*
X165133853Y-92550300D01*
X165173508Y-92539674D01*
X165173510Y-92539674D01*
X165204930Y-92531256D01*
X165214120Y-92528794D01*
X165216845Y-92528126D01*
X165216901Y-92528103D01*
X165220036Y-92526155D01*
X165252014Y-92507691D01*
X165252025Y-92507689D01*
X165252024Y-92507687D01*
X165287693Y-92487097D01*
X165291095Y-92485266D01*
X165291136Y-92485235D01*
X165294189Y-92481936D01*
X165305867Y-92470258D01*
X165319098Y-92457029D01*
X165319100Y-92457026D01*
X165754528Y-92021645D01*
X167059498Y-90716813D01*
X167120823Y-90683332D01*
X167147175Y-90680500D01*
X169225500Y-90680500D01*
X169292539Y-90700185D01*
X169338294Y-90752989D01*
X169349500Y-90804500D01*
X169349500Y-92124752D01*
X169361131Y-92183229D01*
X169361132Y-92183230D01*
X169405447Y-92249552D01*
X169471769Y-92293867D01*
X169471770Y-92293868D01*
X169530247Y-92305499D01*
X169530250Y-92305500D01*
X169530252Y-92305500D01*
X173069750Y-92305500D01*
X173069751Y-92305499D01*
X173084568Y-92302552D01*
X173128229Y-92293868D01*
X173128229Y-92293867D01*
X173128231Y-92293867D01*
X173194552Y-92249552D01*
X173238867Y-92183231D01*
X173238867Y-92183229D01*
X173238868Y-92183229D01*
X173247666Y-92138995D01*
X173250500Y-92124748D01*
X173250500Y-88585252D01*
X173250500Y-88585249D01*
X173250499Y-88585247D01*
X173238868Y-88526770D01*
X173238867Y-88526769D01*
X173194552Y-88460447D01*
X173128230Y-88416132D01*
X173128229Y-88416131D01*
X173069752Y-88404500D01*
X173069748Y-88404500D01*
X169530252Y-88404500D01*
X169530247Y-88404500D01*
X169471770Y-88416131D01*
X169471769Y-88416132D01*
X169405447Y-88460447D01*
X169361132Y-88526769D01*
X169361131Y-88526770D01*
X169349500Y-88585247D01*
X169349500Y-89905500D01*
X169329815Y-89972539D01*
X169277011Y-90018294D01*
X169225500Y-90029500D01*
X167410500Y-90029500D01*
X167343461Y-90009815D01*
X167297706Y-89957011D01*
X167286500Y-89905500D01*
X167286500Y-85456007D01*
X168297544Y-85456007D01*
X168297544Y-85456009D01*
X168585234Y-85694904D01*
X168585243Y-85694911D01*
X168928525Y-85930064D01*
X168928532Y-85930068D01*
X169292025Y-86132532D01*
X169292053Y-86132546D01*
X169672662Y-86300601D01*
X169672669Y-86300604D01*
X170067203Y-86432839D01*
X170472238Y-86528102D01*
X170472246Y-86528104D01*
X170884339Y-86585588D01*
X171300000Y-86604806D01*
X171715660Y-86585588D01*
X172127753Y-86528104D01*
X172127761Y-86528102D01*
X172532796Y-86432839D01*
X172927330Y-86300604D01*
X172927337Y-86300601D01*
X173307946Y-86132546D01*
X173307974Y-86132532D01*
X173671467Y-85930068D01*
X173671474Y-85930064D01*
X174014756Y-85694911D01*
X174014765Y-85694904D01*
X174302454Y-85456008D01*
X174302454Y-85456007D01*
X173195594Y-84349147D01*
X173162109Y-84287824D01*
X173167093Y-84218132D01*
X173180174Y-84192574D01*
X173220770Y-84131818D01*
X173220775Y-84131811D01*
X173273580Y-84004328D01*
X173275489Y-83994726D01*
X173307870Y-83932817D01*
X173368584Y-83898240D01*
X173438354Y-83901976D01*
X173484788Y-83931234D01*
X174656007Y-85102454D01*
X174656008Y-85102454D01*
X174894904Y-84814765D01*
X174894911Y-84814756D01*
X175130064Y-84471474D01*
X175130068Y-84471467D01*
X175332532Y-84107974D01*
X175332546Y-84107946D01*
X175500601Y-83727337D01*
X175500604Y-83727330D01*
X175632839Y-83332796D01*
X175728102Y-82927761D01*
X175728104Y-82927753D01*
X175785588Y-82515660D01*
X175804806Y-82100000D01*
X175785588Y-81684339D01*
X175728104Y-81272246D01*
X175728102Y-81272238D01*
X175632839Y-80867203D01*
X175500604Y-80472669D01*
X175500601Y-80472662D01*
X175332546Y-80092053D01*
X175332532Y-80092025D01*
X175130068Y-79728532D01*
X175130064Y-79728525D01*
X174894911Y-79385243D01*
X174894904Y-79385234D01*
X174656009Y-79097544D01*
X174656007Y-79097544D01*
X171653553Y-82099999D01*
X171653553Y-82100000D01*
X172468764Y-82915211D01*
X172502249Y-82976534D01*
X172497265Y-83046225D01*
X172455393Y-83102159D01*
X172405278Y-83124509D01*
X172395673Y-83126419D01*
X172395667Y-83126421D01*
X172268195Y-83179221D01*
X172268177Y-83179231D01*
X172207423Y-83219826D01*
X172140746Y-83240704D01*
X172073366Y-83222219D01*
X172050852Y-83204405D01*
X171300000Y-82453553D01*
X168297544Y-85456007D01*
X167286500Y-85456007D01*
X167286500Y-84604125D01*
X167306185Y-84537086D01*
X167358989Y-84491331D01*
X167428147Y-84481387D01*
X167491703Y-84510412D01*
X167512800Y-84534048D01*
X167705088Y-84814756D01*
X167705095Y-84814765D01*
X167943989Y-85102454D01*
X167943991Y-85102454D01*
X174302454Y-78743991D01*
X174302454Y-78743989D01*
X174014765Y-78505095D01*
X174014756Y-78505088D01*
X173671474Y-78269935D01*
X173671467Y-78269931D01*
X173307974Y-78067467D01*
X173307946Y-78067453D01*
X172927337Y-77899398D01*
X172927330Y-77899395D01*
X172532796Y-77767160D01*
X172127761Y-77671897D01*
X172127753Y-77671895D01*
X171715660Y-77614411D01*
X171300000Y-77595193D01*
X170884339Y-77614411D01*
X170472246Y-77671895D01*
X170472238Y-77671897D01*
X170292376Y-77714200D01*
X170222610Y-77710387D01*
X170165981Y-77669461D01*
X170140468Y-77604416D01*
X170154171Y-77535903D01*
X170176298Y-77505820D01*
X171517197Y-76164829D01*
X171551803Y-76130223D01*
X171554127Y-76128318D01*
X171559047Y-76123070D01*
X171560696Y-76121366D01*
X171562302Y-76118382D01*
X171578845Y-76089727D01*
X171599612Y-76053755D01*
X171602027Y-76050098D01*
X171603608Y-76047121D01*
X171603781Y-76046569D01*
X171604867Y-76041560D01*
X171616029Y-75999900D01*
X171625281Y-75965367D01*
X171625496Y-75964592D01*
X171625501Y-75964552D01*
X171625501Y-75964544D01*
X171625502Y-75964541D01*
X171625501Y-75919502D01*
X171645184Y-75852462D01*
X171697987Y-75806707D01*
X171749501Y-75795500D01*
X171783117Y-75795500D01*
X171850156Y-75815185D01*
X171895911Y-75867989D01*
X171904734Y-75895309D01*
X171926418Y-76004320D01*
X171926421Y-76004332D01*
X171979221Y-76131804D01*
X171979228Y-76131817D01*
X172055885Y-76246541D01*
X172055888Y-76246545D01*
X172153454Y-76344111D01*
X172153458Y-76344114D01*
X172268182Y-76420771D01*
X172268195Y-76420778D01*
X172355282Y-76456850D01*
X172395672Y-76473580D01*
X172395676Y-76473580D01*
X172395677Y-76473581D01*
X172531004Y-76500500D01*
X172531007Y-76500500D01*
X172668995Y-76500500D01*
X172783228Y-76477777D01*
X172804328Y-76473580D01*
X172931811Y-76420775D01*
X173046542Y-76344114D01*
X173144114Y-76246542D01*
X173220775Y-76131811D01*
X173225102Y-76121366D01*
X173253102Y-76053766D01*
X173273580Y-76004328D01*
X173294108Y-75901129D01*
X173300500Y-75868995D01*
X173300500Y-75731004D01*
X173274431Y-75599951D01*
X173273580Y-75595672D01*
X173259937Y-75562734D01*
X173250500Y-75515287D01*
X173250500Y-72075249D01*
X173250499Y-72075247D01*
X173238868Y-72016770D01*
X173238867Y-72016769D01*
X173194552Y-71950447D01*
X173128230Y-71906132D01*
X173128229Y-71906131D01*
X173069752Y-71894500D01*
X173069748Y-71894500D01*
X169530252Y-71894500D01*
X169530247Y-71894500D01*
X169471770Y-71906131D01*
X169471769Y-71906132D01*
X169405447Y-71950447D01*
X169361132Y-72016769D01*
X169361131Y-72016770D01*
X169349500Y-72075247D01*
X169349500Y-75614752D01*
X169361131Y-75673229D01*
X169361132Y-75673230D01*
X169405447Y-75739552D01*
X169471769Y-75783867D01*
X169471770Y-75783868D01*
X169530247Y-75795499D01*
X169530250Y-75795500D01*
X169530252Y-75795500D01*
X170666534Y-75795500D01*
X170733573Y-75815185D01*
X170779328Y-75867989D01*
X170789272Y-75937147D01*
X170760247Y-76000703D01*
X170754224Y-76007171D01*
X169485201Y-77276281D01*
X166729569Y-80032102D01*
X166729569Y-80032103D01*
X166700534Y-80061139D01*
X166700528Y-80061145D01*
X166680205Y-80096350D01*
X166680204Y-80096351D01*
X166657685Y-80135355D01*
X166657677Y-80135373D01*
X166648247Y-80170574D01*
X166648246Y-80170576D01*
X166635498Y-80218154D01*
X166635500Y-80265538D01*
X166635500Y-90168795D01*
X166615815Y-90235834D01*
X166599177Y-90256481D01*
X165537177Y-91318367D01*
X165475852Y-91351849D01*
X165406160Y-91346860D01*
X165350229Y-91304986D01*
X165325815Y-91239520D01*
X165325500Y-91230681D01*
X165325500Y-90195730D01*
X165322646Y-90165300D01*
X165322646Y-90165298D01*
X165277793Y-90037119D01*
X165277792Y-90037117D01*
X165197150Y-89927850D01*
X165087882Y-89847207D01*
X165087880Y-89847206D01*
X164959700Y-89802353D01*
X164929270Y-89799500D01*
X164929266Y-89799500D01*
X164912000Y-89799500D01*
X164844961Y-89779815D01*
X164799206Y-89727011D01*
X164788000Y-89675500D01*
X164788000Y-89589354D01*
X164787500Y-89581724D01*
X164787500Y-88774500D01*
X164807185Y-88707461D01*
X164859989Y-88661706D01*
X164911500Y-88650500D01*
X164929270Y-88650500D01*
X164959699Y-88647646D01*
X164959701Y-88647646D01*
X165023790Y-88625219D01*
X165087882Y-88602793D01*
X165197150Y-88522150D01*
X165277793Y-88412882D01*
X165304436Y-88336740D01*
X165322646Y-88284701D01*
X165322646Y-88284699D01*
X165325500Y-88254269D01*
X165325500Y-86845730D01*
X165322646Y-86815300D01*
X165322646Y-86815298D01*
X165277793Y-86687119D01*
X165277792Y-86687117D01*
X165197150Y-86577850D01*
X165087882Y-86497207D01*
X165087880Y-86497206D01*
X164959700Y-86452353D01*
X164929270Y-86449500D01*
X164929266Y-86449500D01*
X164911500Y-86449500D01*
X164844461Y-86429815D01*
X164798706Y-86377011D01*
X164787500Y-86325500D01*
X164787500Y-86324377D01*
X164787515Y-86280556D01*
X164787502Y-86280454D01*
X164776715Y-86240195D01*
X164776717Y-86240194D01*
X164776703Y-86240154D01*
X164770144Y-86215643D01*
X164765360Y-86197763D01*
X164765356Y-86197756D01*
X164765319Y-86197666D01*
X164765318Y-86197662D01*
X164765315Y-86197657D01*
X164765314Y-86197654D01*
X164743890Y-86160547D01*
X164743868Y-86160510D01*
X164735774Y-86146481D01*
X164722532Y-86123526D01*
X164722530Y-86123524D01*
X164722529Y-86123522D01*
X164722465Y-86123438D01*
X164691182Y-86092155D01*
X164645950Y-86046893D01*
X164612485Y-85985559D01*
X164610721Y-85943059D01*
X164619682Y-85875000D01*
X164599044Y-85718238D01*
X164538536Y-85572159D01*
X164538535Y-85572158D01*
X164538535Y-85572157D01*
X164483156Y-85499986D01*
X164457962Y-85434817D01*
X164472000Y-85366372D01*
X164520814Y-85316383D01*
X164581532Y-85300500D01*
X164929270Y-85300500D01*
X164959699Y-85297646D01*
X164959701Y-85297646D01*
X165023790Y-85275219D01*
X165087882Y-85252793D01*
X165197150Y-85172150D01*
X165277793Y-85062882D01*
X165300219Y-84998790D01*
X165322646Y-84934701D01*
X165322646Y-84934699D01*
X165325500Y-84904269D01*
X165325500Y-83495730D01*
X165322646Y-83465300D01*
X165322646Y-83465298D01*
X165289006Y-83369163D01*
X165277793Y-83337118D01*
X165197150Y-83227850D01*
X165087882Y-83147207D01*
X165087880Y-83147206D01*
X164959700Y-83102353D01*
X164929270Y-83099500D01*
X164929266Y-83099500D01*
X164697230Y-83099500D01*
X164630191Y-83079815D01*
X164584436Y-83027011D01*
X164574492Y-82957853D01*
X164603517Y-82894297D01*
X164621744Y-82877124D01*
X164667282Y-82842182D01*
X164763536Y-82716741D01*
X164824044Y-82570662D01*
X164844682Y-82413900D01*
X164843395Y-82404128D01*
X164824072Y-82257348D01*
X164824044Y-82257138D01*
X164807399Y-82216953D01*
X164796939Y-82191699D01*
X164787500Y-82144247D01*
X164787500Y-82074500D01*
X164807185Y-82007461D01*
X164859989Y-81961706D01*
X164911500Y-81950500D01*
X164929270Y-81950500D01*
X164959699Y-81947646D01*
X164959701Y-81947646D01*
X165031882Y-81922388D01*
X165087882Y-81902793D01*
X165197150Y-81822150D01*
X165277793Y-81712882D01*
X165307298Y-81628562D01*
X165322646Y-81584701D01*
X165322646Y-81584699D01*
X165325500Y-81554269D01*
X165325500Y-80145730D01*
X165322646Y-80115300D01*
X165322646Y-80115298D01*
X165284059Y-80005025D01*
X165277793Y-79987118D01*
X165197150Y-79877850D01*
X165087882Y-79797207D01*
X165087880Y-79797206D01*
X164959700Y-79752353D01*
X164929270Y-79749500D01*
X164929266Y-79749500D01*
X163995734Y-79749500D01*
X163995730Y-79749500D01*
X163965300Y-79752353D01*
X163965298Y-79752353D01*
X163837119Y-79797206D01*
X163837117Y-79797207D01*
X163727850Y-79877850D01*
X163647207Y-79987117D01*
X163647206Y-79987119D01*
X163602353Y-80115298D01*
X163602353Y-80115300D01*
X163599500Y-80145730D01*
X163599500Y-81554269D01*
X163602353Y-81584699D01*
X163602353Y-81584701D01*
X163638099Y-81686853D01*
X163647207Y-81712882D01*
X163727850Y-81822150D01*
X163759185Y-81845276D01*
X163801436Y-81900924D01*
X163806894Y-81970580D01*
X163783927Y-82020532D01*
X163714464Y-82111057D01*
X163653956Y-82257137D01*
X163653955Y-82257139D01*
X163633318Y-82413898D01*
X163633318Y-82413901D01*
X163653955Y-82570660D01*
X163653956Y-82570662D01*
X163714464Y-82716741D01*
X163810718Y-82842182D01*
X163864987Y-82883824D01*
X163906189Y-82940249D01*
X163913500Y-82982198D01*
X163913500Y-83032497D01*
X163893815Y-83099536D01*
X163844854Y-83141960D01*
X163845333Y-83142865D01*
X163841430Y-83144927D01*
X163841011Y-83145291D01*
X163839886Y-83145743D01*
X163837120Y-83147205D01*
X163727850Y-83227850D01*
X163647207Y-83337117D01*
X163647206Y-83337119D01*
X163602353Y-83465298D01*
X163602353Y-83465300D01*
X163599500Y-83495730D01*
X163599500Y-84904269D01*
X163602353Y-84934699D01*
X163602353Y-84934701D01*
X163643403Y-85052011D01*
X163647207Y-85062882D01*
X163727849Y-85172149D01*
X163733368Y-85179626D01*
X163730295Y-85181893D01*
X163755001Y-85227139D01*
X163750017Y-85296831D01*
X163709322Y-85351872D01*
X163585720Y-85446716D01*
X163585719Y-85446717D01*
X163585718Y-85446718D01*
X163552276Y-85490301D01*
X163489463Y-85572160D01*
X163428956Y-85718237D01*
X163428955Y-85718239D01*
X163408318Y-85874998D01*
X163408318Y-85875001D01*
X163428955Y-86031760D01*
X163428956Y-86031762D01*
X163482300Y-86160547D01*
X163489464Y-86177841D01*
X163585718Y-86303282D01*
X163709322Y-86398126D01*
X163750524Y-86454554D01*
X163754679Y-86524300D01*
X163730426Y-86568202D01*
X163733368Y-86570374D01*
X163727850Y-86577849D01*
X163727850Y-86577850D01*
X163725614Y-86580880D01*
X163647207Y-86687117D01*
X163647206Y-86687119D01*
X163602353Y-86815298D01*
X163602353Y-86815300D01*
X163599500Y-86845730D01*
X163599500Y-88254269D01*
X163602353Y-88284699D01*
X163602353Y-88284701D01*
X163644274Y-88404500D01*
X163647207Y-88412882D01*
X163727850Y-88522150D01*
X163837118Y-88602793D01*
X163879845Y-88617744D01*
X163965299Y-88647646D01*
X163995730Y-88650500D01*
X163995734Y-88650500D01*
X164012500Y-88650500D01*
X164079539Y-88670185D01*
X164125294Y-88722989D01*
X164136500Y-88774500D01*
X164136500Y-89675500D01*
X164116815Y-89742539D01*
X164064011Y-89788294D01*
X164012500Y-89799500D01*
X163995730Y-89799500D01*
X163965300Y-89802353D01*
X163965298Y-89802353D01*
X163837119Y-89847206D01*
X163837117Y-89847207D01*
X163727850Y-89927850D01*
X163647207Y-90037117D01*
X163647206Y-90037119D01*
X163602353Y-90165298D01*
X163602353Y-90165300D01*
X163599500Y-90195730D01*
X163599500Y-91604269D01*
X163602353Y-91634699D01*
X163602354Y-91634701D01*
X163637221Y-91734345D01*
X163640783Y-91804124D01*
X163606055Y-91864751D01*
X163544061Y-91896979D01*
X163520180Y-91899300D01*
X162279820Y-91899300D01*
X162212781Y-91879615D01*
X162167026Y-91826811D01*
X162157082Y-91757653D01*
X162162779Y-91734345D01*
X162197645Y-91634701D01*
X162197646Y-91634699D01*
X162200500Y-91604269D01*
X162200500Y-90195730D01*
X162197646Y-90165300D01*
X162197646Y-90165298D01*
X162152793Y-90037119D01*
X162152792Y-90037117D01*
X162072150Y-89927850D01*
X161962882Y-89847207D01*
X161962880Y-89847206D01*
X161834700Y-89802353D01*
X161804270Y-89799500D01*
X161804266Y-89799500D01*
X160870734Y-89799500D01*
X160870730Y-89799500D01*
X160840300Y-89802353D01*
X160840298Y-89802353D01*
X160712119Y-89847206D01*
X160712117Y-89847207D01*
X160602850Y-89927850D01*
X160522207Y-90037117D01*
X160522206Y-90037119D01*
X160477353Y-90165298D01*
X160477353Y-90165300D01*
X160474500Y-90195730D01*
X160474500Y-90527291D01*
X160454815Y-90594330D01*
X160412423Y-90634722D01*
X160411505Y-90635252D01*
X160404316Y-90639395D01*
X160404145Y-90639526D01*
X160373649Y-90670022D01*
X160177151Y-90866224D01*
X160115803Y-90899663D01*
X160073351Y-90901416D01*
X160005001Y-90892418D01*
X160004998Y-90892418D01*
X159848239Y-90913055D01*
X159848237Y-90913056D01*
X159702160Y-90973563D01*
X159576718Y-91069818D01*
X159480463Y-91195260D01*
X159419956Y-91341337D01*
X159419955Y-91341339D01*
X159399318Y-91498098D01*
X159399318Y-91498101D01*
X159419955Y-91654860D01*
X159419956Y-91654862D01*
X159450188Y-91727848D01*
X159457657Y-91797316D01*
X159426382Y-91859796D01*
X159366293Y-91895448D01*
X159335627Y-91899300D01*
X157778188Y-91899300D01*
X157711149Y-91879615D01*
X157690507Y-91862981D01*
X157114707Y-91287180D01*
X157081222Y-91225857D01*
X157086206Y-91156165D01*
X157128078Y-91100232D01*
X157193542Y-91075815D01*
X157202388Y-91075499D01*
X157804258Y-91075499D01*
X157804264Y-91075499D01*
X157834698Y-91072646D01*
X157962882Y-91027793D01*
X158072150Y-90947150D01*
X158152793Y-90837882D01*
X158197646Y-90709698D01*
X158200500Y-90679265D01*
X158200499Y-89320736D01*
X158197646Y-89290302D01*
X158152793Y-89162118D01*
X158072150Y-89052850D01*
X157962882Y-88972207D01*
X157962881Y-88972206D01*
X157834695Y-88927353D01*
X157834698Y-88927353D01*
X157804269Y-88924500D01*
X157804265Y-88924500D01*
X157737500Y-88924500D01*
X157670461Y-88904815D01*
X157624706Y-88852011D01*
X157613500Y-88800500D01*
X157613500Y-88249986D01*
X160175001Y-88249986D01*
X160185494Y-88352697D01*
X160240641Y-88519119D01*
X160240643Y-88519124D01*
X160332684Y-88668345D01*
X160456654Y-88792315D01*
X160605875Y-88884356D01*
X160605880Y-88884358D01*
X160772302Y-88939505D01*
X160772309Y-88939506D01*
X160875019Y-88949999D01*
X161087499Y-88949999D01*
X161587500Y-88949999D01*
X161799972Y-88949999D01*
X161799986Y-88949998D01*
X161902697Y-88939505D01*
X162069119Y-88884358D01*
X162069124Y-88884356D01*
X162218345Y-88792315D01*
X162342315Y-88668345D01*
X162434356Y-88519124D01*
X162434358Y-88519119D01*
X162489505Y-88352697D01*
X162489506Y-88352690D01*
X162499999Y-88249986D01*
X162500000Y-88249973D01*
X162500000Y-87800000D01*
X161587500Y-87800000D01*
X161587500Y-88949999D01*
X161087499Y-88949999D01*
X161087500Y-88949998D01*
X161087500Y-87800000D01*
X160175001Y-87800000D01*
X160175001Y-88249986D01*
X157613500Y-88249986D01*
X157613500Y-87399499D01*
X157633185Y-87332460D01*
X157685989Y-87286705D01*
X157737500Y-87275499D01*
X157804258Y-87275499D01*
X157804264Y-87275499D01*
X157834698Y-87272646D01*
X157962882Y-87227793D01*
X158072150Y-87147150D01*
X158152793Y-87037882D01*
X158197646Y-86909698D01*
X158200500Y-86879265D01*
X158200500Y-86850013D01*
X160175000Y-86850013D01*
X160175000Y-87300000D01*
X161087500Y-87300000D01*
X161587500Y-87300000D01*
X162499999Y-87300000D01*
X162499999Y-86850028D01*
X162499998Y-86850013D01*
X162489505Y-86747302D01*
X162434358Y-86580880D01*
X162434356Y-86580875D01*
X162342315Y-86431654D01*
X162218345Y-86307684D01*
X162069124Y-86215643D01*
X162069119Y-86215641D01*
X161902697Y-86160494D01*
X161902690Y-86160493D01*
X161799986Y-86150000D01*
X161587500Y-86150000D01*
X161587500Y-87300000D01*
X161087500Y-87300000D01*
X161087500Y-86150000D01*
X160875029Y-86150000D01*
X160875012Y-86150001D01*
X160772302Y-86160494D01*
X160605880Y-86215641D01*
X160605875Y-86215643D01*
X160456654Y-86307684D01*
X160332684Y-86431654D01*
X160240643Y-86580875D01*
X160240641Y-86580880D01*
X160185494Y-86747302D01*
X160185493Y-86747309D01*
X160175000Y-86850013D01*
X158200500Y-86850013D01*
X158200499Y-85520736D01*
X158197646Y-85490302D01*
X158152793Y-85362118D01*
X158072150Y-85252850D01*
X157976006Y-85181893D01*
X157962881Y-85172206D01*
X157834695Y-85127353D01*
X157834698Y-85127353D01*
X157804269Y-85124500D01*
X157804265Y-85124500D01*
X157637500Y-85124500D01*
X157570461Y-85104815D01*
X157524706Y-85052011D01*
X157513500Y-85000500D01*
X157513500Y-83499499D01*
X157533185Y-83432460D01*
X157585989Y-83386705D01*
X157637500Y-83375499D01*
X157704258Y-83375499D01*
X157704264Y-83375499D01*
X157734698Y-83372646D01*
X157862882Y-83327793D01*
X157972150Y-83247150D01*
X158052793Y-83137882D01*
X158097646Y-83009698D01*
X158100500Y-82979265D01*
X158100499Y-81722274D01*
X158120184Y-81655236D01*
X158172987Y-81609481D01*
X158242146Y-81599537D01*
X158305702Y-81628562D01*
X158312169Y-81634582D01*
X160095954Y-83418184D01*
X160096049Y-83418293D01*
X160101585Y-83423826D01*
X160101586Y-83423828D01*
X160130934Y-83453161D01*
X160438177Y-83760372D01*
X160471665Y-83821692D01*
X160474500Y-83848057D01*
X160474500Y-84904269D01*
X160477353Y-84934699D01*
X160477353Y-84934701D01*
X160518403Y-85052011D01*
X160522207Y-85062882D01*
X160602850Y-85172150D01*
X160712118Y-85252793D01*
X160754845Y-85267744D01*
X160840299Y-85297646D01*
X160870730Y-85300500D01*
X160870734Y-85300500D01*
X161804270Y-85300500D01*
X161834699Y-85297646D01*
X161834701Y-85297646D01*
X161898790Y-85275219D01*
X161962882Y-85252793D01*
X162072150Y-85172150D01*
X162152793Y-85062882D01*
X162175219Y-84998790D01*
X162197646Y-84934701D01*
X162197646Y-84934699D01*
X162200500Y-84904269D01*
X162200500Y-83495730D01*
X162197646Y-83465300D01*
X162197646Y-83465298D01*
X162164006Y-83369163D01*
X162152793Y-83337118D01*
X162072150Y-83227850D01*
X161962882Y-83147207D01*
X161962880Y-83147206D01*
X161834700Y-83102353D01*
X161804270Y-83099500D01*
X161804266Y-83099500D01*
X160870734Y-83099500D01*
X160870730Y-83099500D01*
X160840305Y-83102353D01*
X160840295Y-83102355D01*
X160810518Y-83112774D01*
X160740739Y-83116335D01*
X160681907Y-83083435D01*
X160592992Y-82994565D01*
X160592979Y-82994543D01*
X160592975Y-82994548D01*
X159148265Y-81549986D01*
X160175001Y-81549986D01*
X160185494Y-81652697D01*
X160240641Y-81819119D01*
X160240643Y-81819124D01*
X160332684Y-81968345D01*
X160456654Y-82092315D01*
X160605875Y-82184356D01*
X160605880Y-82184358D01*
X160772302Y-82239505D01*
X160772309Y-82239506D01*
X160875019Y-82249999D01*
X161087499Y-82249999D01*
X161587500Y-82249999D01*
X161799972Y-82249999D01*
X161799986Y-82249998D01*
X161902697Y-82239505D01*
X162069119Y-82184358D01*
X162069124Y-82184356D01*
X162218345Y-82092315D01*
X162342315Y-81968345D01*
X162434356Y-81819124D01*
X162434358Y-81819119D01*
X162489505Y-81652697D01*
X162489506Y-81652690D01*
X162499999Y-81549986D01*
X162500000Y-81549973D01*
X162500000Y-81100000D01*
X161587500Y-81100000D01*
X161587500Y-82249999D01*
X161087499Y-82249999D01*
X161087500Y-82249998D01*
X161087500Y-81100000D01*
X160175001Y-81100000D01*
X160175001Y-81549986D01*
X159148265Y-81549986D01*
X157795823Y-80197683D01*
X157762335Y-80136361D01*
X157759500Y-80109997D01*
X157759500Y-79405698D01*
X159440318Y-79405698D01*
X159440318Y-79405701D01*
X159460955Y-79562460D01*
X159460956Y-79562462D01*
X159521464Y-79708541D01*
X159617718Y-79833982D01*
X159743159Y-79930236D01*
X159889238Y-79990744D01*
X159964125Y-80000603D01*
X160045999Y-80011382D01*
X160051850Y-80011382D01*
X160118889Y-80031067D01*
X160164644Y-80083871D01*
X160175021Y-80146856D01*
X160175161Y-80146864D01*
X160175128Y-80147503D01*
X160175208Y-80147987D01*
X160175000Y-80150018D01*
X160175000Y-80600000D01*
X162499999Y-80600000D01*
X162499999Y-80150028D01*
X162499998Y-80150013D01*
X162489505Y-80047302D01*
X162438293Y-79892755D01*
X162435891Y-79822927D01*
X162471623Y-79762885D01*
X162529064Y-79734225D01*
X162528826Y-79733337D01*
X162528867Y-79733326D01*
X162529075Y-79733284D01*
X162533127Y-79732198D01*
X162534143Y-79731692D01*
X162536215Y-79731370D01*
X162536849Y-79731200D01*
X162536853Y-79731200D01*
X162572909Y-79721538D01*
X162572922Y-79721538D01*
X162572922Y-79721535D01*
X162596078Y-79715332D01*
X162614783Y-79710322D01*
X162619444Y-79709275D01*
X162619494Y-79709255D01*
X162623030Y-79707059D01*
X162653622Y-79689396D01*
X162653632Y-79689394D01*
X162653631Y-79689392D01*
X162673649Y-79677836D01*
X162690712Y-79667987D01*
X162693836Y-79666306D01*
X162693854Y-79666292D01*
X162696073Y-79663953D01*
X162725663Y-79634363D01*
X163760015Y-78600173D01*
X163821337Y-78566695D01*
X163888641Y-78570822D01*
X163965299Y-78597646D01*
X163995730Y-78600500D01*
X163995734Y-78600500D01*
X164929270Y-78600500D01*
X164959699Y-78597646D01*
X164959701Y-78597646D01*
X165023790Y-78575219D01*
X165087882Y-78552793D01*
X165197150Y-78472150D01*
X165277793Y-78362882D01*
X165304298Y-78287135D01*
X165322646Y-78234701D01*
X165322646Y-78234699D01*
X165325500Y-78204269D01*
X165325500Y-76795730D01*
X165322646Y-76765300D01*
X165322646Y-76765298D01*
X165277793Y-76637119D01*
X165277792Y-76637117D01*
X165197150Y-76527850D01*
X165087882Y-76447207D01*
X165087880Y-76447206D01*
X164959700Y-76402353D01*
X164929270Y-76399500D01*
X164929266Y-76399500D01*
X164849500Y-76399500D01*
X164782461Y-76379815D01*
X164736706Y-76327011D01*
X164725500Y-76275500D01*
X164725500Y-75724500D01*
X164745185Y-75657461D01*
X164797989Y-75611706D01*
X164849500Y-75600500D01*
X164866770Y-75600500D01*
X164897199Y-75597646D01*
X164897201Y-75597646D01*
X164967245Y-75573136D01*
X165025382Y-75552793D01*
X165134650Y-75472150D01*
X165215293Y-75362882D01*
X165256593Y-75244854D01*
X165260146Y-75234701D01*
X165260146Y-75234699D01*
X165263000Y-75204269D01*
X165263000Y-73795730D01*
X165260146Y-73765300D01*
X165260146Y-73765298D01*
X165215293Y-73637119D01*
X165215292Y-73637117D01*
X165191841Y-73605342D01*
X165134650Y-73527850D01*
X165025382Y-73447207D01*
X165025380Y-73447206D01*
X164897200Y-73402353D01*
X164866770Y-73399500D01*
X164866766Y-73399500D01*
X163933234Y-73399500D01*
X163933230Y-73399500D01*
X163902800Y-73402353D01*
X163902798Y-73402353D01*
X163774619Y-73447206D01*
X163774617Y-73447207D01*
X163665350Y-73527850D01*
X163584707Y-73637117D01*
X163584706Y-73637119D01*
X163539853Y-73765298D01*
X163539853Y-73765300D01*
X163537000Y-73795730D01*
X163537000Y-75204269D01*
X163539853Y-75234699D01*
X163539853Y-75234701D01*
X163578663Y-75345610D01*
X163584707Y-75362882D01*
X163665350Y-75472150D01*
X163774618Y-75552793D01*
X163802471Y-75562539D01*
X163902799Y-75597646D01*
X163933230Y-75600500D01*
X163933234Y-75600500D01*
X163950500Y-75600500D01*
X164017539Y-75620185D01*
X164063294Y-75672989D01*
X164074500Y-75724500D01*
X164074500Y-76279197D01*
X164054815Y-76346236D01*
X164002011Y-76391991D01*
X163972481Y-76399879D01*
X163972670Y-76400744D01*
X163965298Y-76402353D01*
X163837119Y-76447206D01*
X163837117Y-76447207D01*
X163727850Y-76527850D01*
X163647207Y-76637117D01*
X163647206Y-76637119D01*
X163602353Y-76765298D01*
X163602353Y-76765300D01*
X163599500Y-76795730D01*
X163599500Y-77788715D01*
X163579815Y-77855754D01*
X163563174Y-77876403D01*
X163274393Y-78165139D01*
X162424420Y-79014980D01*
X162395507Y-79043888D01*
X162334182Y-79077368D01*
X162307833Y-79080200D01*
X160614299Y-79080200D01*
X160547260Y-79060515D01*
X160515923Y-79031686D01*
X160474283Y-78977419D01*
X160474282Y-78977418D01*
X160348841Y-78881164D01*
X160306237Y-78863517D01*
X160202762Y-78820656D01*
X160202760Y-78820655D01*
X160046001Y-78800018D01*
X160045999Y-78800018D01*
X159889239Y-78820655D01*
X159889237Y-78820656D01*
X159743160Y-78881163D01*
X159617718Y-78977418D01*
X159521463Y-79102860D01*
X159460956Y-79248937D01*
X159460955Y-79248939D01*
X159440318Y-79405698D01*
X157759500Y-79405698D01*
X157759500Y-77018698D01*
X157779185Y-76951659D01*
X157808010Y-76920325D01*
X157862282Y-76878682D01*
X157958536Y-76753241D01*
X158019044Y-76607162D01*
X158039682Y-76450400D01*
X158034460Y-76410738D01*
X158019044Y-76293639D01*
X158019044Y-76293638D01*
X157958536Y-76147559D01*
X157862282Y-76022118D01*
X157736841Y-75925864D01*
X157674397Y-75899999D01*
X157590762Y-75865356D01*
X157590760Y-75865355D01*
X157434001Y-75844718D01*
X157433999Y-75844718D01*
X157277239Y-75865355D01*
X157277237Y-75865356D01*
X157131160Y-75925863D01*
X157005718Y-76022118D01*
X156909463Y-76147560D01*
X156848956Y-76293637D01*
X156848955Y-76293639D01*
X156828318Y-76450398D01*
X156828318Y-76450401D01*
X156848955Y-76607160D01*
X156848956Y-76607162D01*
X156895101Y-76718567D01*
X156909464Y-76753241D01*
X157005718Y-76878682D01*
X157059987Y-76920324D01*
X157101189Y-76976749D01*
X157108500Y-77018698D01*
X157108500Y-80245741D01*
X157108497Y-80245791D01*
X157108497Y-80253362D01*
X157108497Y-80253364D01*
X157108500Y-80302888D01*
X157108500Y-80303865D01*
X157108500Y-80339064D01*
X157118649Y-80376928D01*
X157118650Y-80376937D01*
X157118651Y-80376937D01*
X157130452Y-80420980D01*
X157130697Y-80421928D01*
X157130712Y-80421964D01*
X157131741Y-80423676D01*
X157150953Y-80456949D01*
X157150955Y-80456952D01*
X157173540Y-80496071D01*
X157198930Y-80521457D01*
X157239962Y-80562489D01*
X157239987Y-80562510D01*
X157393585Y-80716092D01*
X157690336Y-81012814D01*
X157723824Y-81074136D01*
X157718843Y-81143828D01*
X157676974Y-81199763D01*
X157611511Y-81224184D01*
X157602659Y-81224500D01*
X156670738Y-81224500D01*
X156639028Y-81227473D01*
X156570444Y-81214130D01*
X156539798Y-81191718D01*
X155388841Y-80041347D01*
X155355341Y-79980032D01*
X155352500Y-79953643D01*
X155352500Y-75434240D01*
X156446711Y-75434240D01*
X156534985Y-75488897D01*
X156725078Y-75562539D01*
X156925472Y-75600000D01*
X157129328Y-75600000D01*
X157329722Y-75562539D01*
X157519812Y-75488899D01*
X157519816Y-75488897D01*
X157608086Y-75434241D01*
X157608086Y-75434240D01*
X157027401Y-74853553D01*
X157027400Y-74853553D01*
X156446711Y-75434240D01*
X155352500Y-75434240D01*
X155352500Y-75424500D01*
X155372185Y-75357461D01*
X155424989Y-75311706D01*
X155476500Y-75300500D01*
X155647150Y-75300500D01*
X155647151Y-75300499D01*
X155661968Y-75297552D01*
X155705629Y-75288868D01*
X155705629Y-75288867D01*
X155705631Y-75288867D01*
X155771952Y-75244552D01*
X155816267Y-75178231D01*
X155816267Y-75178229D01*
X155816268Y-75178229D01*
X155827899Y-75119752D01*
X155827900Y-75119750D01*
X155827900Y-75086111D01*
X155847585Y-75019072D01*
X155900389Y-74973317D01*
X155969547Y-74963373D01*
X156033103Y-74992398D01*
X156062901Y-75030840D01*
X156088152Y-75081553D01*
X156089933Y-75083911D01*
X156673846Y-74500000D01*
X156089933Y-73916087D01*
X156088155Y-73918442D01*
X156088154Y-73918444D01*
X156062900Y-73969161D01*
X156015397Y-74020398D01*
X155947734Y-74037819D01*
X155881393Y-74015893D01*
X155837439Y-73961581D01*
X155827900Y-73913889D01*
X155827900Y-73880249D01*
X155827899Y-73880247D01*
X155816268Y-73821770D01*
X155816267Y-73821769D01*
X155771952Y-73755447D01*
X155705630Y-73711132D01*
X155705629Y-73711131D01*
X155647152Y-73699500D01*
X155647148Y-73699500D01*
X154407652Y-73699500D01*
X154407647Y-73699500D01*
X154349170Y-73711131D01*
X154349169Y-73711132D01*
X154282847Y-73755447D01*
X154238532Y-73821769D01*
X154238531Y-73821770D01*
X154226900Y-73880247D01*
X154226900Y-75119752D01*
X154238531Y-75178229D01*
X154238532Y-75178230D01*
X154282847Y-75244552D01*
X154349169Y-75288867D01*
X154349170Y-75288868D01*
X154407647Y-75300499D01*
X154407650Y-75300500D01*
X154407652Y-75300500D01*
X154577500Y-75300500D01*
X154644539Y-75320185D01*
X154690294Y-75372989D01*
X154701500Y-75424500D01*
X154701500Y-78098100D01*
X154681815Y-78165139D01*
X154629011Y-78210894D01*
X154577500Y-78222100D01*
X149535147Y-78222100D01*
X149452359Y-78244282D01*
X149378138Y-78287135D01*
X149378135Y-78287137D01*
X148978636Y-78686635D01*
X148917313Y-78720120D01*
X148873082Y-78721659D01*
X148858260Y-78719500D01*
X148491740Y-78719500D01*
X148491733Y-78719501D01*
X148490464Y-78719593D01*
X148490035Y-78719500D01*
X148487253Y-78719500D01*
X148487253Y-78718897D01*
X148422177Y-78704806D01*
X148372725Y-78655448D01*
X148357500Y-78595917D01*
X148357500Y-74427525D01*
X148357506Y-74384486D01*
X148357503Y-74384476D01*
X148357500Y-74384452D01*
X148357500Y-74384447D01*
X148347445Y-74346922D01*
X148347445Y-74346907D01*
X148347441Y-74346909D01*
X148347441Y-74346908D01*
X148335333Y-74301698D01*
X148335331Y-74301695D01*
X148335327Y-74301678D01*
X148329448Y-74291496D01*
X148313419Y-74263732D01*
X148292811Y-74228028D01*
X148292504Y-74227487D01*
X148292472Y-74227444D01*
X148258910Y-74193883D01*
X148258902Y-74193868D01*
X148258899Y-74193872D01*
X147731822Y-73666669D01*
X147698345Y-73605342D01*
X147700854Y-73543002D01*
X147729913Y-73447207D01*
X147756024Y-73361132D01*
X147775341Y-73165000D01*
X147756024Y-72968868D01*
X147698814Y-72780273D01*
X147698811Y-72780269D01*
X147698811Y-72780266D01*
X147605913Y-72606467D01*
X147605909Y-72606460D01*
X147525650Y-72508665D01*
X147498337Y-72444355D01*
X147510128Y-72375488D01*
X147557280Y-72323927D01*
X147621503Y-72306000D01*
X155725820Y-72306000D01*
X155792859Y-72325685D01*
X155813498Y-72342316D01*
X156722867Y-73251618D01*
X156756354Y-73312939D01*
X156751372Y-73382631D01*
X156709503Y-73438566D01*
X156679983Y-73454928D01*
X156534997Y-73511096D01*
X156534981Y-73511104D01*
X156446712Y-73565757D01*
X156446711Y-73565758D01*
X157086099Y-74205145D01*
X157066896Y-74200000D01*
X156987904Y-74200000D01*
X156911604Y-74220444D01*
X156843195Y-74259940D01*
X156787340Y-74315795D01*
X156747844Y-74384204D01*
X156727400Y-74460504D01*
X156727400Y-74539496D01*
X156747844Y-74615796D01*
X156787340Y-74684205D01*
X156843195Y-74740060D01*
X156911604Y-74779556D01*
X156987904Y-74800000D01*
X157066896Y-74800000D01*
X157143196Y-74779556D01*
X157211605Y-74740060D01*
X157267460Y-74684205D01*
X157306956Y-74615796D01*
X157327400Y-74539496D01*
X157327400Y-74460504D01*
X157322254Y-74441300D01*
X157964865Y-75083912D01*
X157966647Y-75081553D01*
X157966648Y-75081551D01*
X158057513Y-74899069D01*
X158057514Y-74899068D01*
X158069081Y-74858413D01*
X158106359Y-74799319D01*
X158169669Y-74769760D01*
X158238908Y-74779121D01*
X158276023Y-74804658D01*
X160438180Y-76966654D01*
X160471665Y-77027973D01*
X160474500Y-77054336D01*
X160474500Y-78204269D01*
X160477353Y-78234699D01*
X160477353Y-78234701D01*
X160522206Y-78362880D01*
X160522207Y-78362882D01*
X160602850Y-78472150D01*
X160712118Y-78552793D01*
X160724427Y-78557100D01*
X160840299Y-78597646D01*
X160870730Y-78600500D01*
X160870734Y-78600500D01*
X161804270Y-78600500D01*
X161834699Y-78597646D01*
X161834701Y-78597646D01*
X161898790Y-78575219D01*
X161962882Y-78552793D01*
X162072150Y-78472150D01*
X162152793Y-78362882D01*
X162179298Y-78287135D01*
X162197646Y-78234701D01*
X162197646Y-78234699D01*
X162200500Y-78204269D01*
X162200500Y-76795730D01*
X162197646Y-76765300D01*
X162197646Y-76765298D01*
X162152793Y-76637119D01*
X162152792Y-76637117D01*
X162072150Y-76527850D01*
X161962882Y-76447207D01*
X161962880Y-76447206D01*
X161834700Y-76402353D01*
X161804270Y-76399500D01*
X161804266Y-76399500D01*
X160870734Y-76399500D01*
X160870733Y-76399500D01*
X160856478Y-76400836D01*
X160787894Y-76387493D01*
X160757229Y-76365062D01*
X160751945Y-76359778D01*
X160439420Y-76047277D01*
X160405935Y-75985957D01*
X160410917Y-75916265D01*
X160452786Y-75860330D01*
X160518249Y-75835910D01*
X160566104Y-75841888D01*
X160709802Y-75889505D01*
X160709809Y-75889506D01*
X160812519Y-75899999D01*
X161024999Y-75899999D01*
X161525000Y-75899999D01*
X161737472Y-75899999D01*
X161737486Y-75899998D01*
X161840197Y-75889505D01*
X162006619Y-75834358D01*
X162006624Y-75834356D01*
X162155845Y-75742315D01*
X162279815Y-75618345D01*
X162371856Y-75469124D01*
X162371858Y-75469119D01*
X162427005Y-75302697D01*
X162427006Y-75302690D01*
X162437499Y-75199986D01*
X162437500Y-75199973D01*
X162437500Y-74750000D01*
X161525000Y-74750000D01*
X161525000Y-75899999D01*
X161024999Y-75899999D01*
X161025000Y-75899998D01*
X161025000Y-74750000D01*
X160112501Y-74750000D01*
X160112501Y-75199986D01*
X160122994Y-75302697D01*
X160170629Y-75446448D01*
X160173031Y-75516276D01*
X160137299Y-75576318D01*
X160074779Y-75607511D01*
X160005320Y-75599951D01*
X159965245Y-75573136D01*
X158191991Y-73800013D01*
X160112500Y-73800013D01*
X160112500Y-74250000D01*
X161025000Y-74250000D01*
X161525000Y-74250000D01*
X162437499Y-74250000D01*
X162437499Y-73800028D01*
X162437498Y-73800013D01*
X162427005Y-73697302D01*
X162371858Y-73530880D01*
X162371856Y-73530875D01*
X162279815Y-73381654D01*
X162155845Y-73257684D01*
X162006624Y-73165643D01*
X162006619Y-73165641D01*
X161840197Y-73110494D01*
X161840190Y-73110493D01*
X161737486Y-73100000D01*
X161525000Y-73100000D01*
X161525000Y-74250000D01*
X161025000Y-74250000D01*
X161025000Y-73100000D01*
X160812529Y-73100000D01*
X160812512Y-73100001D01*
X160709802Y-73110494D01*
X160543380Y-73165641D01*
X160543375Y-73165643D01*
X160394154Y-73257684D01*
X160270184Y-73381654D01*
X160178143Y-73530875D01*
X160178141Y-73530880D01*
X160122994Y-73697302D01*
X160122993Y-73697309D01*
X160112500Y-73800013D01*
X158191991Y-73800013D01*
X156152493Y-71760666D01*
X156111859Y-71720032D01*
X156081506Y-71702509D01*
X156081503Y-71702507D01*
X156037635Y-71677180D01*
X155994517Y-71665628D01*
X155994513Y-71665627D01*
X155955768Y-71655245D01*
X155954893Y-71655002D01*
X155954859Y-71654998D01*
X155954841Y-71654998D01*
X155897704Y-71655000D01*
X145464883Y-71655000D01*
X145464712Y-71654989D01*
X145413963Y-71654999D01*
X145413931Y-71655000D01*
X145371111Y-71655000D01*
X145329891Y-71666053D01*
X145329873Y-71666058D01*
X145288329Y-71677190D01*
X145252435Y-71697924D01*
X145252413Y-71697936D01*
X145214113Y-71720048D01*
X145185649Y-71748523D01*
X145185636Y-71748536D01*
X145148132Y-71786041D01*
X145148025Y-71786163D01*
X144731327Y-72203036D01*
X144670011Y-72236534D01*
X144607633Y-72234034D01*
X144426132Y-72178976D01*
X144426129Y-72178975D01*
X144230000Y-72159659D01*
X144033870Y-72178975D01*
X143845266Y-72236188D01*
X143671467Y-72329086D01*
X143671460Y-72329090D01*
X143519116Y-72454116D01*
X143394090Y-72606460D01*
X143394086Y-72606467D01*
X143301188Y-72780266D01*
X143243975Y-72968870D01*
X143224659Y-73165000D01*
X143243975Y-73361129D01*
X143243976Y-73361132D01*
X143291729Y-73518553D01*
X143301188Y-73549733D01*
X143394086Y-73723532D01*
X143394090Y-73723539D01*
X143519116Y-73875883D01*
X143671460Y-74000909D01*
X143671467Y-74000913D01*
X143845266Y-74093811D01*
X143845269Y-74093811D01*
X143845273Y-74093814D01*
X144033868Y-74151024D01*
X144230000Y-74170341D01*
X144426132Y-74151024D01*
X144607870Y-74095893D01*
X144677736Y-74095270D01*
X144731546Y-74126873D01*
X145138181Y-74533508D01*
X145171666Y-74594831D01*
X145174500Y-74621189D01*
X145174500Y-74932222D01*
X145154815Y-74999261D01*
X145102011Y-75045016D01*
X145032853Y-75054960D01*
X144969297Y-75025935D01*
X144954648Y-75010888D01*
X144940884Y-74994117D01*
X144788539Y-74869090D01*
X144788532Y-74869086D01*
X144614733Y-74776188D01*
X144614727Y-74776186D01*
X144426132Y-74718976D01*
X144426129Y-74718975D01*
X144230000Y-74699659D01*
X144033865Y-74718976D01*
X143852179Y-74774091D01*
X143782312Y-74774715D01*
X143728498Y-74743108D01*
X143725450Y-74740060D01*
X143480737Y-74495325D01*
X143343317Y-74357893D01*
X143343293Y-74357866D01*
X143294788Y-74309361D01*
X143294786Y-74309359D01*
X143276873Y-74291444D01*
X143276870Y-74291442D01*
X143276863Y-74291435D01*
X143235321Y-74267450D01*
X143235319Y-74267449D01*
X143202645Y-74248583D01*
X143156110Y-74236114D01*
X143156108Y-74236114D01*
X143119864Y-74226401D01*
X143119860Y-74226401D01*
X143119860Y-74226400D01*
X143119853Y-74226400D01*
X143077015Y-74226400D01*
X143077009Y-74226399D01*
X143034161Y-74226398D01*
X143034159Y-74226398D01*
X143025538Y-74226398D01*
X143025510Y-74226400D01*
X142319842Y-74226400D01*
X142252803Y-74206715D01*
X142207048Y-74153911D01*
X142197104Y-74084753D01*
X142226129Y-74021197D01*
X142244213Y-74005243D01*
X142243829Y-74004775D01*
X142400883Y-73875883D01*
X142491636Y-73765301D01*
X142525910Y-73723538D01*
X142610246Y-73565757D01*
X142618811Y-73549733D01*
X142618811Y-73549732D01*
X142618814Y-73549727D01*
X142676024Y-73361132D01*
X142695341Y-73165000D01*
X142676024Y-72968868D01*
X142618814Y-72780273D01*
X142618811Y-72780269D01*
X142618811Y-72780266D01*
X142525913Y-72606467D01*
X142525909Y-72606460D01*
X142400883Y-72454116D01*
X142248539Y-72329090D01*
X142248532Y-72329086D01*
X142074733Y-72236188D01*
X142074727Y-72236186D01*
X141886132Y-72178976D01*
X141886129Y-72178975D01*
X141690000Y-72159659D01*
X141493870Y-72178975D01*
X141305266Y-72236188D01*
X141131467Y-72329086D01*
X141131460Y-72329090D01*
X140979116Y-72454116D01*
X140854090Y-72606460D01*
X140854086Y-72606467D01*
X140761188Y-72780266D01*
X140703975Y-72968870D01*
X140693725Y-73072945D01*
X140667564Y-73137732D01*
X140628459Y-73165402D01*
X140659383Y-73182930D01*
X140691891Y-73244776D01*
X140693725Y-73257055D01*
X140703975Y-73361129D01*
X140703976Y-73361132D01*
X140751729Y-73518553D01*
X140761188Y-73549733D01*
X140854086Y-73723532D01*
X140854090Y-73723539D01*
X140979116Y-73875883D01*
X141131460Y-74000909D01*
X141131463Y-74000911D01*
X141156986Y-74014553D01*
X141206831Y-74063515D01*
X141222292Y-74131653D01*
X141198461Y-74197333D01*
X141142904Y-74239702D01*
X141130631Y-74243686D01*
X141112314Y-74248594D01*
X141075336Y-74269958D01*
X141075308Y-74269974D01*
X141038093Y-74291460D01*
X141008632Y-74320939D01*
X140972124Y-74357447D01*
X140971958Y-74357635D01*
X140190584Y-75139487D01*
X140171765Y-75158306D01*
X140110442Y-75191791D01*
X140040750Y-75186807D01*
X139988231Y-75149290D01*
X139860883Y-74994116D01*
X139708539Y-74869090D01*
X139708532Y-74869086D01*
X139534733Y-74776188D01*
X139534727Y-74776186D01*
X139346132Y-74718976D01*
X139346129Y-74718975D01*
X139242055Y-74708725D01*
X139177267Y-74682564D01*
X139149596Y-74643459D01*
X139132069Y-74674383D01*
X139070223Y-74706891D01*
X139057945Y-74708725D01*
X138953870Y-74718975D01*
X138765266Y-74776188D01*
X138591467Y-74869086D01*
X138591460Y-74869090D01*
X138439116Y-74994116D01*
X138314090Y-75146460D01*
X138314086Y-75146467D01*
X138221188Y-75320266D01*
X138163975Y-75508870D01*
X138144659Y-75705000D01*
X138163975Y-75901129D01*
X138171478Y-75925863D01*
X138208309Y-76047279D01*
X138221188Y-76089733D01*
X138314086Y-76263532D01*
X138314090Y-76263539D01*
X138439116Y-76415883D01*
X138591459Y-76540908D01*
X138591460Y-76540908D01*
X138591462Y-76540910D01*
X138620953Y-76556673D01*
X138670797Y-76605634D01*
X138686500Y-76666031D01*
X138686500Y-109986163D01*
X138686488Y-109986349D01*
X138686500Y-110037075D01*
X138686500Y-110079890D01*
X138697677Y-110121566D01*
X138697676Y-110121566D01*
X138697684Y-110121593D01*
X138708692Y-110162677D01*
X138730726Y-110200821D01*
X138730739Y-110200844D01*
X138751532Y-110236858D01*
X138751583Y-110236925D01*
X138781889Y-110267216D01*
X138817820Y-110303147D01*
X138817951Y-110303261D01*
X140815163Y-112299550D01*
X140848660Y-112360863D01*
X140851500Y-112387249D01*
X140851500Y-114077659D01*
X140831815Y-114144698D01*
X140779011Y-114190453D01*
X140709853Y-114200397D01*
X140648836Y-114173513D01*
X140586452Y-114122317D01*
X140586453Y-114122317D01*
X140586450Y-114122315D01*
X140403954Y-114024768D01*
X140205934Y-113964700D01*
X140205932Y-113964699D01*
X140205934Y-113964699D01*
X140000000Y-113944417D01*
X139794067Y-113964699D01*
X139618692Y-114017898D01*
X139607855Y-114021186D01*
X139596043Y-114024769D01*
X139546395Y-114051307D01*
X139413550Y-114122315D01*
X139413548Y-114122316D01*
X139413547Y-114122317D01*
X139253589Y-114253589D01*
X139122317Y-114413547D01*
X139122315Y-114413550D01*
X139083643Y-114485898D01*
X139024769Y-114596043D01*
X138964699Y-114794067D01*
X138944417Y-115000000D01*
X138964699Y-115205932D01*
X138994734Y-115304944D01*
X139024768Y-115403954D01*
X139122315Y-115586450D01*
X139156969Y-115628677D01*
X139253589Y-115746410D01*
X139301737Y-115785923D01*
X139413550Y-115877685D01*
X139558124Y-115954962D01*
X139561267Y-115956642D01*
X139611111Y-116005605D01*
X139626571Y-116073743D01*
X139602739Y-116139422D01*
X139547181Y-116181791D01*
X139502813Y-116190000D01*
X139102155Y-116190000D01*
X139042627Y-116196401D01*
X139042620Y-116196403D01*
X138907913Y-116246645D01*
X138907906Y-116246649D01*
X138792812Y-116332809D01*
X138792809Y-116332812D01*
X138706649Y-116447906D01*
X138706645Y-116447913D01*
X138656403Y-116582620D01*
X138656401Y-116582627D01*
X138650000Y-116642155D01*
X138650000Y-117290000D01*
X139566988Y-117290000D01*
X139534075Y-117347007D01*
X139500000Y-117474174D01*
X139500000Y-117605826D01*
X139534075Y-117732993D01*
X139566988Y-117790000D01*
X138650000Y-117790000D01*
X138650000Y-118437844D01*
X138656401Y-118497372D01*
X138656403Y-118497379D01*
X138706645Y-118632086D01*
X138706649Y-118632093D01*
X138792809Y-118747187D01*
X138792812Y-118747190D01*
X138907906Y-118833350D01*
X138907913Y-118833354D01*
X139042620Y-118883596D01*
X139042627Y-118883598D01*
X139102155Y-118889999D01*
X139102172Y-118890000D01*
X139750000Y-118890000D01*
X139750000Y-117973012D01*
X139807007Y-118005925D01*
X139934174Y-118040000D01*
X140065826Y-118040000D01*
X140192993Y-118005925D01*
X140250000Y-117973012D01*
X140250000Y-118890000D01*
X140727500Y-118890000D01*
X140794539Y-118909685D01*
X140840294Y-118962489D01*
X140851500Y-119014000D01*
X140851500Y-139781982D01*
X140851495Y-139824838D01*
X140851502Y-139824886D01*
X140851699Y-139825596D01*
X140862968Y-139867652D01*
X140862969Y-139867664D01*
X140862971Y-139867664D01*
X140873672Y-139907618D01*
X140873679Y-139907634D01*
X140886667Y-139930130D01*
X140896178Y-139946602D01*
X140896182Y-139946616D01*
X140896185Y-139946615D01*
X140916522Y-139981849D01*
X140916527Y-139981855D01*
X140949783Y-140015110D01*
X140949792Y-140015119D01*
X144975978Y-144042032D01*
X145009458Y-144103358D01*
X145004467Y-144173049D01*
X144962590Y-144228979D01*
X144897124Y-144253390D01*
X144828852Y-144238532D01*
X144817159Y-144231275D01*
X144815912Y-144230402D01*
X144815907Y-144230399D01*
X144615784Y-144137080D01*
X144615770Y-144137075D01*
X144402486Y-144079926D01*
X144402476Y-144079924D01*
X144182501Y-144060679D01*
X144182499Y-144060679D01*
X143962523Y-144079924D01*
X143962513Y-144079926D01*
X143749229Y-144137075D01*
X143749220Y-144137079D01*
X143549090Y-144230401D01*
X143484311Y-144275758D01*
X144155053Y-144946500D01*
X144132340Y-144946500D01*
X144035439Y-144972464D01*
X143948560Y-145022624D01*
X143877624Y-145093560D01*
X143827464Y-145180439D01*
X143801500Y-145277340D01*
X143801500Y-145300053D01*
X143130758Y-144629311D01*
X143085401Y-144694090D01*
X142992079Y-144894220D01*
X142992075Y-144894229D01*
X142934926Y-145107513D01*
X142934924Y-145107523D01*
X142915679Y-145327499D01*
X142915679Y-145327500D01*
X142934924Y-145547476D01*
X142934926Y-145547486D01*
X142992075Y-145760770D01*
X142992080Y-145760784D01*
X143085401Y-145960912D01*
X143085743Y-145961504D01*
X143085814Y-145961797D01*
X143087689Y-145965818D01*
X143086880Y-145966194D01*
X143102213Y-146029405D01*
X143079359Y-146095431D01*
X143024436Y-146138619D01*
X142978354Y-146147500D01*
X142476852Y-146147500D01*
X142409813Y-146127815D01*
X142364058Y-146075011D01*
X142354114Y-146005853D01*
X142380999Y-145944835D01*
X142446661Y-145864825D01*
X142446665Y-145864818D01*
X142447850Y-145862601D01*
X142536037Y-145697615D01*
X142591073Y-145516183D01*
X142609657Y-145327500D01*
X142591073Y-145138817D01*
X142536037Y-144957385D01*
X142521302Y-144929817D01*
X142446665Y-144790181D01*
X142446661Y-144790174D01*
X142326383Y-144643616D01*
X142179825Y-144523338D01*
X142179818Y-144523334D01*
X142012622Y-144433966D01*
X142012619Y-144433965D01*
X142012618Y-144433964D01*
X142012615Y-144433963D01*
X141831183Y-144378927D01*
X141831181Y-144378926D01*
X141831183Y-144378926D01*
X141642500Y-144360343D01*
X141453817Y-144378926D01*
X141295095Y-144427073D01*
X141225228Y-144427696D01*
X141171420Y-144396093D01*
X140667864Y-143892537D01*
X140667862Y-143892535D01*
X140630750Y-143871108D01*
X140593640Y-143849682D01*
X140552246Y-143838591D01*
X140510853Y-143827500D01*
X138762853Y-143827500D01*
X138677147Y-143827500D01*
X138594359Y-143849682D01*
X138520138Y-143892535D01*
X138520135Y-143892537D01*
X137751537Y-144661135D01*
X137751533Y-144661141D01*
X137708681Y-144735361D01*
X137708682Y-144735362D01*
X137686500Y-144818147D01*
X137185500Y-144818147D01*
X137185500Y-73164997D01*
X137845034Y-73164997D01*
X137845034Y-73165002D01*
X137864858Y-73391599D01*
X137864860Y-73391610D01*
X137923730Y-73611317D01*
X137923735Y-73611331D01*
X138019863Y-73817478D01*
X138070974Y-73890472D01*
X138667037Y-73294409D01*
X138684075Y-73357993D01*
X138749901Y-73472007D01*
X138842993Y-73565099D01*
X138957007Y-73630925D01*
X139020590Y-73647962D01*
X138424526Y-74244025D01*
X138497513Y-74295132D01*
X138497521Y-74295136D01*
X138703668Y-74391264D01*
X138703682Y-74391269D01*
X138923389Y-74450139D01*
X138923400Y-74450141D01*
X139056597Y-74461794D01*
X139121666Y-74487246D01*
X139150474Y-74527031D01*
X139168907Y-74495325D01*
X139231104Y-74463494D01*
X139243402Y-74461794D01*
X139376599Y-74450141D01*
X139376610Y-74450139D01*
X139596317Y-74391269D01*
X139596331Y-74391264D01*
X139802478Y-74295136D01*
X139875471Y-74244024D01*
X139279409Y-73647962D01*
X139342993Y-73630925D01*
X139457007Y-73565099D01*
X139550099Y-73472007D01*
X139615925Y-73357993D01*
X139632962Y-73294409D01*
X140229024Y-73890471D01*
X140280136Y-73817478D01*
X140376264Y-73611331D01*
X140376269Y-73611317D01*
X140435139Y-73391610D01*
X140435141Y-73391599D01*
X140446794Y-73258402D01*
X140472246Y-73193333D01*
X140512031Y-73164524D01*
X140480325Y-73146092D01*
X140448493Y-73083894D01*
X140446794Y-73071597D01*
X140435141Y-72938400D01*
X140435139Y-72938389D01*
X140376269Y-72718682D01*
X140376264Y-72718668D01*
X140280136Y-72512521D01*
X140280132Y-72512513D01*
X140229025Y-72439526D01*
X139632962Y-73035589D01*
X139615925Y-72972007D01*
X139550099Y-72857993D01*
X139457007Y-72764901D01*
X139342993Y-72699075D01*
X139279408Y-72682037D01*
X139875472Y-72085974D01*
X139802478Y-72034863D01*
X139596331Y-71938735D01*
X139596317Y-71938730D01*
X139376610Y-71879860D01*
X139376599Y-71879858D01*
X139150002Y-71860034D01*
X139149998Y-71860034D01*
X138923400Y-71879858D01*
X138923389Y-71879860D01*
X138703682Y-71938730D01*
X138703673Y-71938734D01*
X138497516Y-72034866D01*
X138497512Y-72034868D01*
X138424526Y-72085973D01*
X138424526Y-72085974D01*
X139020590Y-72682037D01*
X138957007Y-72699075D01*
X138842993Y-72764901D01*
X138749901Y-72857993D01*
X138684075Y-72972007D01*
X138667037Y-73035590D01*
X138070974Y-72439526D01*
X138070973Y-72439526D01*
X138019868Y-72512512D01*
X138019866Y-72512516D01*
X137923734Y-72718673D01*
X137923730Y-72718682D01*
X137864860Y-72938389D01*
X137864858Y-72938400D01*
X137845034Y-73164997D01*
X137185500Y-73164997D01*
X137185500Y-71523500D01*
X137205185Y-71456461D01*
X137257989Y-71410706D01*
X137309500Y-71399500D01*
X177650500Y-71399500D01*
X177717539Y-71419185D01*
G37*
%TD.AperFunction*%
%TD*%
M02*
