%TF.GenerationSoftware,KiCad,Pcbnew,8.0.4*%
%TF.CreationDate,2025-04-29T00:29:36-04:00*%
%TF.ProjectId,main_board,6d61696e-5f62-46f6-9172-642e6b696361,rev?*%
%TF.SameCoordinates,Original*%
%TF.FileFunction,Copper,L1,Top*%
%TF.FilePolarity,Positive*%
%FSLAX46Y46*%
G04 Gerber Fmt 4.6, Leading zero omitted, Abs format (unit mm)*
G04 Created by KiCad (PCBNEW 8.0.4) date 2025-04-29 00:29:36*
%MOMM*%
%LPD*%
G01*
G04 APERTURE LIST*
G04 Aperture macros list*
%AMRoundRect*
0 Rectangle with rounded corners*
0 $1 Rounding radius*
0 $2 $3 $4 $5 $6 $7 $8 $9 X,Y pos of 4 corners*
0 Add a 4 corners polygon primitive as box body*
4,1,4,$2,$3,$4,$5,$6,$7,$8,$9,$2,$3,0*
0 Add four circle primitives for the rounded corners*
1,1,$1+$1,$2,$3*
1,1,$1+$1,$4,$5*
1,1,$1+$1,$6,$7*
1,1,$1+$1,$8,$9*
0 Add four rect primitives between the rounded corners*
20,1,$1+$1,$2,$3,$4,$5,0*
20,1,$1+$1,$4,$5,$6,$7,0*
20,1,$1+$1,$6,$7,$8,$9,0*
20,1,$1+$1,$8,$9,$2,$3,0*%
G04 Aperture macros list end*
%TA.AperFunction,ComponentPad*%
%ADD10C,1.600000*%
%TD*%
%TA.AperFunction,ComponentPad*%
%ADD11R,1.500000X1.500000*%
%TD*%
%TA.AperFunction,SMDPad,CuDef*%
%ADD12RoundRect,0.250001X0.624999X-0.462499X0.624999X0.462499X-0.624999X0.462499X-0.624999X-0.462499X0*%
%TD*%
%TA.AperFunction,SMDPad,CuDef*%
%ADD13RoundRect,0.250001X-0.624999X0.462499X-0.624999X-0.462499X0.624999X-0.462499X0.624999X0.462499X0*%
%TD*%
%TA.AperFunction,ComponentPad*%
%ADD14R,1.800000X1.800000*%
%TD*%
%TA.AperFunction,ComponentPad*%
%ADD15C,1.800000*%
%TD*%
%TA.AperFunction,SMDPad,CuDef*%
%ADD16RoundRect,0.250001X0.462499X0.624999X-0.462499X0.624999X-0.462499X-0.624999X0.462499X-0.624999X0*%
%TD*%
%TA.AperFunction,SMDPad,CuDef*%
%ADD17RoundRect,0.150000X0.150000X-0.825000X0.150000X0.825000X-0.150000X0.825000X-0.150000X-0.825000X0*%
%TD*%
%TA.AperFunction,SMDPad,CuDef*%
%ADD18RoundRect,0.250000X-0.412500X-0.650000X0.412500X-0.650000X0.412500X0.650000X-0.412500X0.650000X0*%
%TD*%
%TA.AperFunction,ComponentPad*%
%ADD19R,1.600000X1.600000*%
%TD*%
%TA.AperFunction,ComponentPad*%
%ADD20O,1.600000X1.600000*%
%TD*%
%TA.AperFunction,SMDPad,CuDef*%
%ADD21R,3.500000X3.500000*%
%TD*%
%TA.AperFunction,SMDPad,CuDef*%
%ADD22C,8.000000*%
%TD*%
%TA.AperFunction,SMDPad,CuDef*%
%ADD23RoundRect,0.375000X-0.625000X-0.375000X0.625000X-0.375000X0.625000X0.375000X-0.625000X0.375000X0*%
%TD*%
%TA.AperFunction,SMDPad,CuDef*%
%ADD24RoundRect,0.500000X-0.500000X-1.400000X0.500000X-1.400000X0.500000X1.400000X-0.500000X1.400000X0*%
%TD*%
%TA.AperFunction,SMDPad,CuDef*%
%ADD25RoundRect,0.150000X-0.150000X0.875000X-0.150000X-0.875000X0.150000X-0.875000X0.150000X0.875000X0*%
%TD*%
%TA.AperFunction,ComponentPad*%
%ADD26R,1.200000X1.200000*%
%TD*%
%TA.AperFunction,ComponentPad*%
%ADD27C,1.200000*%
%TD*%
%TA.AperFunction,ComponentPad*%
%ADD28R,1.508000X1.508000*%
%TD*%
%TA.AperFunction,ComponentPad*%
%ADD29C,1.508000*%
%TD*%
%TA.AperFunction,ComponentPad*%
%ADD30C,1.524000*%
%TD*%
%TA.AperFunction,ComponentPad*%
%ADD31R,1.700000X1.700000*%
%TD*%
%TA.AperFunction,ComponentPad*%
%ADD32O,1.700000X1.700000*%
%TD*%
%TA.AperFunction,ViaPad*%
%ADD33C,0.800000*%
%TD*%
%TA.AperFunction,Conductor*%
%ADD34C,0.250000*%
%TD*%
G04 APERTURE END LIST*
D10*
%TO.P,Ultrasonic_sensor1,1,GND*%
%TO.N,GND*%
X161800000Y-147600000D03*
%TO.P,Ultrasonic_sensor1,2,ECHO*%
%TO.N,Net-(A1-D8)*%
X159260000Y-147600000D03*
%TO.P,Ultrasonic_sensor1,3,TRIG*%
%TO.N,Net-(A1-D9)*%
X156720000Y-147600000D03*
%TO.P,Ultrasonic_sensor1,4,VCC*%
%TO.N,Net-(A1-+5V)*%
X154180000Y-147600000D03*
%TD*%
D11*
%TO.P,SW1,1,B*%
%TO.N,Net-(SW1-B)*%
X157400000Y-95600000D03*
D10*
%TO.P,SW1,2,C*%
%TO.N,Net-(D1-K)*%
X154860000Y-95600000D03*
%TO.P,SW1,3,A*%
%TO.N,unconnected-(SW1-A-Pad3)*%
X159940000Y-95600000D03*
%TD*%
D12*
%TO.P,C1,1*%
%TO.N,Net-(A1-3V3)*%
X169600000Y-111187500D03*
%TO.P,C1,2*%
%TO.N,GND*%
X169600000Y-108212500D03*
%TD*%
D13*
%TO.P,C2,1*%
%TO.N,Net-(SW1-B)*%
X165900000Y-126412500D03*
%TO.P,C2,2*%
%TO.N,Net-(U3-IN-)*%
X165900000Y-129387500D03*
%TD*%
%TO.P,C3,1*%
%TO.N,GND*%
X175000000Y-96512500D03*
%TO.P,C3,2*%
%TO.N,Net-(A1-+5V)*%
X175000000Y-99487500D03*
%TD*%
%TO.P,C4,1*%
%TO.N,GND*%
X166000000Y-108212500D03*
%TO.P,C4,2*%
%TO.N,Net-(U3-IN-)*%
X166000000Y-111187500D03*
%TD*%
D14*
%TO.P,D2,1,K*%
%TO.N,GND*%
X141925000Y-95100000D03*
D15*
%TO.P,D2,2,A*%
%TO.N,Net-(D2-A)*%
X144465000Y-95100000D03*
%TD*%
D10*
%TO.P,nRF24L01+1,1,3.3V*%
%TO.N,Net-(A1-3V3)*%
X139150000Y-75705000D03*
%TO.P,nRF24L01+1,2,CSN*%
%TO.N,Net-(A1-D6)*%
X141690000Y-75705000D03*
%TO.P,nRF24L01+1,3,MOSI*%
%TO.N,Net-(A1-D11)*%
X144230000Y-75705000D03*
%TO.P,nRF24L01+1,4,IRQ*%
%TO.N,Net-(A1-D3)*%
X146770000Y-75705000D03*
%TO.P,nRF24L01+1,5,GND*%
%TO.N,GND*%
X139150000Y-73165000D03*
%TO.P,nRF24L01+1,6,CE*%
%TO.N,Net-(A1-D7)*%
X141690000Y-73165000D03*
%TO.P,nRF24L01+1,7,SCK*%
%TO.N,Net-(A1-D13)*%
X144230000Y-73165000D03*
%TO.P,nRF24L01+1,8,MISO*%
%TO.N,Net-(A1-D12)*%
X146770000Y-73165000D03*
%TD*%
D16*
%TO.P,R1,1*%
%TO.N,Net-(A1-A3)*%
X149787500Y-95300000D03*
%TO.P,R1,2*%
%TO.N,Net-(D2-A)*%
X146812500Y-95300000D03*
%TD*%
D12*
%TO.P,R2,1*%
%TO.N,Net-(SW1-B)*%
X165900000Y-120087500D03*
%TO.P,R2,2*%
%TO.N,Net-(U3-IN-)*%
X165900000Y-117112500D03*
%TD*%
D16*
%TO.P,R3,1*%
%TO.N,Net-(A1-3V3)*%
X153487500Y-85000000D03*
%TO.P,R3,2*%
%TO.N,Net-(A1-A4)*%
X150512500Y-85000000D03*
%TD*%
D13*
%TO.P,R4,1*%
%TO.N,Net-(A1-3V3)*%
X153000000Y-87512500D03*
%TO.P,R4,2*%
%TO.N,Net-(A1-A5)*%
X153000000Y-90487500D03*
%TD*%
%TO.P,R5,1*%
%TO.N,Net-(A1-D2)*%
X153000000Y-79512500D03*
%TO.P,R5,2*%
%TO.N,Net-(A1-3V3)*%
X153000000Y-82487500D03*
%TD*%
D17*
%TO.P,U3,1,A1*%
%TO.N,unconnected-(U3-A1-Pad1)*%
X169390000Y-131450000D03*
%TO.P,U3,2,A0*%
%TO.N,unconnected-(U3-A0-Pad2)*%
X170660000Y-131450000D03*
%TO.P,U3,3,SDA*%
%TO.N,Net-(A1-A4)*%
X171930000Y-131450000D03*
%TO.P,U3,4,SCL*%
%TO.N,Net-(A1-A5)*%
X173200000Y-131450000D03*
%TO.P,U3,5,VS*%
%TO.N,Net-(A1-3V3)*%
X173200000Y-126500000D03*
%TO.P,U3,6,GND*%
%TO.N,GND*%
X171930000Y-126500000D03*
%TO.P,U3,7,IN-*%
%TO.N,Net-(U3-IN-)*%
X170660000Y-126500000D03*
%TO.P,U3,8,IN+*%
%TO.N,Net-(SW1-B)*%
X169390000Y-126500000D03*
%TD*%
D18*
%TO.P,R7,1*%
%TO.N,Net-(A1-D10)*%
X159500000Y-78000000D03*
%TO.P,R7,2*%
%TO.N,Net-(P1-CLK{slash}SCK)*%
X162625000Y-78000000D03*
%TD*%
D19*
%TO.P,A1,1,D1/TX*%
%TO.N,unconnected-(A1-D1{slash}TX-Pad1)*%
X144390000Y-102250000D03*
D20*
%TO.P,A1,2,D0/RX*%
%TO.N,unconnected-(A1-D0{slash}RX-Pad2)*%
X144390000Y-104790000D03*
%TO.P,A1,3,~{RESET}*%
%TO.N,unconnected-(A1-~{RESET}-Pad3)*%
X144390000Y-107330000D03*
%TO.P,A1,4,GND*%
%TO.N,GND*%
X144390000Y-109870000D03*
%TO.P,A1,5,D2*%
%TO.N,Net-(A1-D2)*%
X144390000Y-112410000D03*
%TO.P,A1,6,D3*%
%TO.N,Net-(A1-D3)*%
X144390000Y-114950000D03*
%TO.P,A1,7,D4*%
%TO.N,unconnected-(A1-D4-Pad7)*%
X144390000Y-117490000D03*
%TO.P,A1,8,D5*%
%TO.N,unconnected-(A1-D5-Pad8)*%
X144390000Y-120030000D03*
%TO.P,A1,9,D6*%
%TO.N,Net-(A1-D6)*%
X144390000Y-122570000D03*
%TO.P,A1,10,D7*%
%TO.N,Net-(A1-D7)*%
X144390000Y-125110000D03*
%TO.P,A1,11,D8*%
%TO.N,Net-(A1-D8)*%
X144390000Y-127650000D03*
%TO.P,A1,12,D9*%
%TO.N,Net-(A1-D9)*%
X144390000Y-130190000D03*
%TO.P,A1,13,D10*%
%TO.N,Net-(A1-D10)*%
X144390000Y-132730000D03*
%TO.P,A1,14,D11*%
%TO.N,Net-(A1-D11)*%
X144390000Y-135270000D03*
%TO.P,A1,15,D12*%
%TO.N,Net-(A1-D12)*%
X144390000Y-137810000D03*
%TO.P,A1,16,D13*%
%TO.N,Net-(A1-D13)*%
X159630000Y-137810000D03*
%TO.P,A1,17,3V3*%
%TO.N,Net-(A1-3V3)*%
X159630000Y-135270000D03*
%TO.P,A1,18,AREF*%
%TO.N,unconnected-(A1-AREF-Pad18)*%
X159630000Y-132730000D03*
%TO.P,A1,19,A0*%
%TO.N,unconnected-(A1-A0-Pad19)*%
X159630000Y-130190000D03*
%TO.P,A1,20,A1*%
%TO.N,unconnected-(A1-A1-Pad20)*%
X159630000Y-127650000D03*
%TO.P,A1,21,A2*%
%TO.N,unconnected-(A1-A2-Pad21)*%
X159630000Y-125110000D03*
%TO.P,A1,22,A3*%
%TO.N,Net-(A1-A3)*%
X159630000Y-122570000D03*
%TO.P,A1,23,A4*%
%TO.N,Net-(A1-A4)*%
X159630000Y-120030000D03*
%TO.P,A1,24,A5*%
%TO.N,Net-(A1-A5)*%
X159630000Y-117490000D03*
%TO.P,A1,25,A6*%
%TO.N,unconnected-(A1-A6-Pad25)*%
X159630000Y-114950000D03*
%TO.P,A1,26,A7*%
%TO.N,unconnected-(A1-A7-Pad26)*%
X159630000Y-112410000D03*
%TO.P,A1,27,+5V*%
%TO.N,Net-(A1-+5V)*%
X159630000Y-109870000D03*
%TO.P,A1,28,~{RESET}*%
%TO.N,unconnected-(A1-~{RESET}-Pad28)*%
X159630000Y-107330000D03*
%TO.P,A1,29,GND*%
%TO.N,GND*%
X159630000Y-104790000D03*
%TO.P,A1,30,VIN*%
%TO.N,unconnected-(A1-VIN-Pad30)*%
X159630000Y-102250000D03*
%TD*%
D18*
%TO.P,R6,1*%
%TO.N,GND*%
X159437500Y-75000000D03*
%TO.P,R6,2*%
%TO.N,Net-(P1-CLK{slash}SCK)*%
X162562500Y-75000000D03*
%TD*%
%TO.P,R8,1*%
%TO.N,GND*%
X159500000Y-81350000D03*
%TO.P,R8,2*%
%TO.N,Net-(P1-CMD{slash}MOSI)*%
X162625000Y-81350000D03*
%TD*%
D21*
%TO.P,BT1,1,+*%
%TO.N,Net-(BT1-+)*%
X170500000Y-74000000D03*
X170500000Y-90510000D03*
D22*
%TO.P,BT1,2,-*%
%TO.N,GND*%
X170500000Y-82255000D03*
%TD*%
D23*
%TO.P,U5,1,VI*%
%TO.N,Net-(U3-IN-)*%
X165350000Y-94700000D03*
%TO.P,U5,2,GND*%
%TO.N,GND*%
X165350000Y-97000000D03*
D24*
X171650000Y-97000000D03*
D23*
%TO.P,U5,3,VO*%
%TO.N,Net-(A1-+5V)*%
X165350000Y-99300000D03*
%TD*%
D18*
%TO.P,R9,1*%
%TO.N,Net-(A1-D11)*%
X159500000Y-84700000D03*
%TO.P,R9,2*%
%TO.N,Net-(P1-CMD{slash}MOSI)*%
X162625000Y-84700000D03*
%TD*%
%TO.P,R10,1*%
%TO.N,GND*%
X159500000Y-88050000D03*
%TO.P,R10,2*%
%TO.N,Net-(P1-DAT3{slash}CS)*%
X162625000Y-88050000D03*
%TD*%
%TO.P,R11,1*%
%TO.N,Net-(A1-D11)*%
X159500000Y-91400000D03*
%TO.P,R11,2*%
%TO.N,Net-(P1-DAT3{slash}CS)*%
X162625000Y-91400000D03*
%TD*%
D25*
%TO.P,U2,1,32KHZ*%
%TO.N,unconnected-(U2-32KHZ-Pad1)*%
X148040000Y-80200000D03*
%TO.P,U2,2,VCC*%
%TO.N,Net-(A1-3V3)*%
X146770000Y-80200000D03*
%TO.P,U2,3,~{INT}/SQW*%
%TO.N,Net-(A1-D2)*%
X145500000Y-80200000D03*
%TO.P,U2,4,~{RST}*%
%TO.N,unconnected-(U2-~{RST}-Pad4)*%
X144230000Y-80200000D03*
%TO.P,U2,5,GND*%
%TO.N,GND*%
X142960000Y-80200000D03*
%TO.P,U2,6,GND*%
X141690000Y-80200000D03*
%TO.P,U2,7,GND*%
X140420000Y-80200000D03*
%TO.P,U2,8,GND*%
X139150000Y-80200000D03*
%TO.P,U2,9,GND*%
X139150000Y-89500000D03*
%TO.P,U2,10,GND*%
X140420000Y-89500000D03*
%TO.P,U2,11,GND*%
X141690000Y-89500000D03*
%TO.P,U2,12,GND*%
X142960000Y-89500000D03*
%TO.P,U2,13,GND*%
X144230000Y-89500000D03*
%TO.P,U2,14,VBAT*%
%TO.N,Net-(BT1-+)*%
X145500000Y-89500000D03*
%TO.P,U2,15,SDA*%
%TO.N,Net-(A1-A4)*%
X146770000Y-89500000D03*
%TO.P,U2,16,SCL*%
%TO.N,Net-(A1-A5)*%
X148040000Y-89500000D03*
%TD*%
D26*
%TO.P,C5,1*%
%TO.N,Net-(A1-3V3)*%
X155027400Y-74500000D03*
D27*
%TO.P,C5,2*%
%TO.N,GND*%
X157027400Y-74500000D03*
%TD*%
D28*
%TO.P,J1,1,1*%
%TO.N,Net-(U1-B+)*%
X168200000Y-145925000D03*
D29*
%TO.P,J1,2,2*%
%TO.N,Net-(U1-BM)*%
X170700000Y-145925000D03*
%TO.P,J1,3,3*%
%TO.N,Net-(U1-B-)*%
X173200000Y-145925000D03*
%TD*%
D30*
%TO.P,U1,1,P-*%
%TO.N,GND*%
X174700000Y-138560000D03*
%TO.P,U1,2,P+*%
%TO.N,Net-(D1-K)*%
X169620000Y-138560000D03*
%TO.P,U1,3,B-*%
%TO.N,Net-(U1-B-)*%
X174700000Y-103000000D03*
%TO.P,U1,4,BM*%
%TO.N,Net-(U1-BM)*%
X164540000Y-138560000D03*
%TO.P,U1,5,B+*%
%TO.N,Net-(U1-B+)*%
X164540000Y-103000000D03*
%TD*%
%TO.P,U4,1,VIN*%
%TO.N,Net-(A1-3V3)*%
X146722500Y-145327500D03*
%TO.P,U4,2,GND*%
%TO.N,GND*%
X144182500Y-145327500D03*
%TO.P,U4,3,SCL*%
%TO.N,Net-(A1-A5)*%
X141642500Y-145327500D03*
%TO.P,U4,4,SDA*%
%TO.N,Net-(A1-A4)*%
X139102500Y-145327500D03*
%TD*%
D31*
%TO.P,J2,1,Pin_1*%
%TO.N,GND*%
X140000000Y-117540000D03*
D32*
%TO.P,J2,2,Pin_2*%
%TO.N,Net-(D1-A)*%
X140000000Y-115000000D03*
%TD*%
D33*
%TO.N,Net-(P1-CMD{slash}MOSI)*%
X163897000Y-81613400D03*
%TO.N,Net-(P1-DAT3{slash}CS)*%
X161336000Y-84541500D03*
%TO.N,Net-(A1-+5V)*%
X165014000Y-101217000D03*
%TO.N,Net-(A1-D10)*%
X158733000Y-86209100D03*
%TO.N,Net-(P1-CLK{slash}SCK)*%
X160686000Y-79303300D03*
%TO.N,Net-(BT1-+)*%
X145632000Y-91144100D03*
X166150000Y-86492000D03*
%TO.N,Net-(A1-D2)*%
X153733000Y-102673000D03*
%TO.N,Net-(A1-A5)*%
X168936000Y-129864000D03*
%TO.N,Net-(A1-A4)*%
X167926000Y-132022000D03*
%TO.N,Net-(A1-D11)*%
X150055000Y-76200700D03*
%TO.N,GND*%
X158232000Y-91332300D03*
%TD*%
D34*
%TO.N,Net-(SW1-B)*%
X165988000Y-126500000D02*
X165944000Y-126456000D01*
X169390000Y-126500000D02*
X165988000Y-126500000D01*
X165944000Y-126456000D02*
X165900000Y-126412000D01*
X165944000Y-126456000D02*
X165900000Y-126412000D01*
X165900000Y-126412000D02*
X165900000Y-126412500D01*
X165900000Y-122756200D02*
X165900000Y-120087500D01*
X165900000Y-126412000D02*
X165900000Y-122756200D01*
X157400000Y-96676700D02*
X157400000Y-95600000D01*
X162054000Y-101330000D02*
X157400000Y-96676700D01*
X162054000Y-116241000D02*
X162054000Y-101330000D01*
X165900000Y-120088000D02*
X162054000Y-116241000D01*
X165900000Y-122756200D02*
X165900000Y-120088000D01*
%TO.N,Net-(P1-CMD{slash}MOSI)*%
X162888000Y-84436600D02*
X162625000Y-84700000D01*
X162888000Y-81613400D02*
X162888000Y-84436600D01*
X163897000Y-81613400D02*
X162888000Y-81613400D01*
X162888000Y-81613400D02*
X162625000Y-81350000D01*
%TO.N,Net-(P1-DAT3{slash}CS)*%
X161336000Y-86760600D02*
X162625000Y-88050000D01*
X161336000Y-84541500D02*
X161336000Y-86760600D01*
X162625000Y-88050000D02*
X162625000Y-91400000D01*
%TO.N,Net-(U1-B+)*%
X166334000Y-103000000D02*
X164540000Y-103000000D01*
X175795000Y-112461000D02*
X166334000Y-103000000D01*
X175795000Y-139078000D02*
X175795000Y-112461000D01*
X169281000Y-145592000D02*
X175795000Y-139078000D01*
X169281000Y-145925000D02*
X169281000Y-145592000D01*
X168200000Y-145925000D02*
X169281000Y-145925000D01*
%TO.N,Net-(A1-+5V)*%
X159630000Y-110810000D02*
X159630000Y-109870000D01*
X160764000Y-111944000D02*
X159630000Y-110810000D01*
X160764000Y-130695000D02*
X160764000Y-111944000D01*
X159999000Y-131460000D02*
X160764000Y-130695000D01*
X159243000Y-131460000D02*
X159999000Y-131460000D01*
X158132000Y-132571000D02*
X159243000Y-131460000D01*
X158132000Y-147860000D02*
X158132000Y-132571000D01*
X157208000Y-148784000D02*
X158132000Y-147860000D01*
X155364000Y-148784000D02*
X157208000Y-148784000D01*
X154180000Y-147600000D02*
X155364000Y-148784000D01*
X165014000Y-99823500D02*
X165014000Y-101217000D01*
X165350000Y-99487500D02*
X165014000Y-99823500D01*
X165350000Y-99300000D02*
X165350000Y-99487500D01*
X165350000Y-99487500D02*
X175000000Y-99487500D01*
%TO.N,Net-(A1-D10)*%
X158503000Y-85979400D02*
X158733000Y-86209100D01*
X158503000Y-83755000D02*
X158503000Y-85979400D01*
X159233000Y-83025000D02*
X158503000Y-83755000D01*
X159783000Y-83025000D02*
X159233000Y-83025000D01*
X160502000Y-82306000D02*
X159783000Y-83025000D01*
X160502000Y-80465800D02*
X160502000Y-82306000D01*
X159500000Y-79464200D02*
X160502000Y-80465800D01*
X159500000Y-78000000D02*
X159500000Y-79464200D01*
%TO.N,Net-(P1-CLK{slash}SCK)*%
X161259000Y-79303300D02*
X162562000Y-78000000D01*
X160686000Y-79303300D02*
X161259000Y-79303300D01*
X162625000Y-78000000D02*
X162562000Y-78000000D01*
X162562000Y-78000000D02*
X162562000Y-77250000D01*
X162562000Y-77250000D02*
X162562000Y-76500000D01*
X162562500Y-77249500D02*
X162562500Y-75000000D01*
X162562000Y-77250000D02*
X162562500Y-77249500D01*
%TO.N,Net-(D2-A)*%
X144665000Y-95300000D02*
X144465000Y-95100000D01*
X146812000Y-95300000D02*
X144665000Y-95300000D01*
X146812000Y-95300000D02*
X146812500Y-95300000D01*
%TO.N,Net-(U3-IN-)*%
X165900000Y-117112000D02*
X166981000Y-118193000D01*
X170660000Y-121872000D02*
X170660000Y-126500000D01*
X166981000Y-118193000D02*
X170660000Y-121872000D01*
X166980000Y-118193000D02*
X165900000Y-117112000D01*
X166981000Y-118193000D02*
X166980000Y-118193000D01*
X162982000Y-108170000D02*
X166000000Y-111188000D01*
X162982000Y-97067600D02*
X162982000Y-108170000D01*
X165350000Y-94700000D02*
X162982000Y-97067600D01*
X166000000Y-111188000D02*
X166000000Y-111187500D01*
X165900000Y-111288000D02*
X165900000Y-117112000D01*
X166000000Y-111188000D02*
X165900000Y-111288000D01*
X165900000Y-117112000D02*
X165900000Y-117112500D01*
X165900100Y-129387500D02*
X165900300Y-129387700D01*
X165900000Y-129387500D02*
X165900100Y-129387500D01*
X166604000Y-128684000D02*
X165900300Y-129387700D01*
X168915000Y-128684000D02*
X166604000Y-128684000D01*
X170660000Y-126939000D02*
X168915000Y-128684000D01*
X170660000Y-126500000D02*
X170660000Y-126939000D01*
X165900300Y-129387700D02*
X165900000Y-129388000D01*
%TO.N,Net-(BT1-+)*%
X145632000Y-89632200D02*
X145632000Y-91144100D01*
X145500000Y-89500000D02*
X145632000Y-89632200D01*
X166150000Y-88236500D02*
X166150000Y-86492000D01*
X168423000Y-90510000D02*
X166150000Y-88236500D01*
X170500000Y-90510000D02*
X168423000Y-90510000D01*
X170500000Y-76076700D02*
X170500000Y-74000000D01*
X166150000Y-80426900D02*
X170500000Y-76076700D01*
X166150000Y-84023000D02*
X166150000Y-80426900D01*
X166151000Y-84024500D02*
X166150000Y-84023000D01*
X166151000Y-85142000D02*
X166151000Y-84024500D01*
X166150000Y-85143500D02*
X166151000Y-85142000D01*
X166150000Y-86492000D02*
X166150000Y-85143500D01*
%TO.N,Net-(A1-D3)*%
X147934000Y-74541000D02*
X146770000Y-75705000D01*
X147934000Y-72710900D02*
X147934000Y-74541000D01*
X147182000Y-71958600D02*
X147934000Y-72710900D01*
X143830000Y-71958600D02*
X147182000Y-71958600D01*
X143082000Y-72706300D02*
X143830000Y-71958600D01*
X143082000Y-75936300D02*
X143082000Y-72706300D01*
X140467000Y-78551400D02*
X143082000Y-75936300D01*
X139076000Y-78551400D02*
X140467000Y-78551400D01*
X138502000Y-79125800D02*
X139076000Y-78551400D01*
X138502000Y-108217000D02*
X138502000Y-79125800D01*
X144108000Y-113823000D02*
X138502000Y-108217000D01*
X144390000Y-113823000D02*
X144108000Y-113823000D01*
X144390000Y-114950000D02*
X144390000Y-113823000D01*
%TO.N,Net-(A1-D9)*%
X156720000Y-143365000D02*
X156720000Y-147600000D01*
X144672000Y-131317000D02*
X156720000Y-143365000D01*
X144390000Y-131317000D02*
X144672000Y-131317000D01*
X144390000Y-130190000D02*
X144390000Y-131317000D01*
%TO.N,Net-(A1-D2)*%
X145500000Y-79749700D02*
X145500000Y-80200000D01*
X146459000Y-78790500D02*
X145500000Y-79749700D01*
X152278000Y-78790500D02*
X146459000Y-78790500D01*
X153000000Y-79512500D02*
X152278000Y-78790500D01*
X153733000Y-95133300D02*
X153733000Y-102673000D01*
X154203000Y-94663900D02*
X153733000Y-95133300D01*
X154203000Y-89755600D02*
X154203000Y-94663900D01*
X153045000Y-88598100D02*
X154203000Y-89755600D01*
X152129000Y-88598100D02*
X153045000Y-88598100D01*
X151797000Y-88266100D02*
X152129000Y-88598100D01*
X151797000Y-84335700D02*
X151797000Y-88266100D01*
X150988000Y-83526200D02*
X151797000Y-84335700D01*
X148359000Y-83526200D02*
X150988000Y-83526200D01*
X145500000Y-80667300D02*
X148359000Y-83526200D01*
X145500000Y-80200000D02*
X145500000Y-80667300D01*
%TO.N,Net-(A1-D6)*%
X144390000Y-121443000D02*
X144390000Y-122570000D01*
X144108000Y-121443000D02*
X144390000Y-121443000D01*
X143263000Y-120598000D02*
X144108000Y-121443000D01*
X143263000Y-114618000D02*
X143263000Y-120598000D01*
X138050000Y-109405000D02*
X143263000Y-114618000D01*
X138050000Y-78938700D02*
X138050000Y-109405000D01*
X138889000Y-78099700D02*
X138050000Y-78938700D01*
X139295000Y-78099700D02*
X138889000Y-78099700D01*
X141690000Y-75705000D02*
X139295000Y-78099700D01*
%TO.N,Net-(A1-A3)*%
X149788000Y-111805000D02*
X149788000Y-107678500D01*
X159426000Y-121443000D02*
X149788000Y-111805000D01*
X159630000Y-121443000D02*
X159426000Y-121443000D01*
X159630000Y-122570000D02*
X159630000Y-121443000D01*
X149788000Y-107678500D02*
X149788000Y-103552000D01*
X149787500Y-107678000D02*
X149787500Y-95300000D01*
X149788000Y-107678500D02*
X149787500Y-107678000D01*
%TO.N,Net-(A1-D7)*%
X144390000Y-123983000D02*
X144390000Y-125110000D01*
X144108000Y-123983000D02*
X144390000Y-123983000D01*
X137598000Y-117474000D02*
X144108000Y-123983000D01*
X137598000Y-78751600D02*
X137598000Y-117474000D01*
X138702000Y-77648000D02*
X137598000Y-78751600D01*
X138862000Y-77648000D02*
X138702000Y-77648000D01*
X140420000Y-76089800D02*
X138862000Y-77648000D01*
X140420000Y-74435000D02*
X140420000Y-76089800D01*
X141690000Y-73165000D02*
X140420000Y-74435000D01*
%TO.N,Net-(A1-3V3)*%
X171569000Y-127808000D02*
X171296000Y-127536000D01*
X172360000Y-127808000D02*
X171569000Y-127808000D01*
X173200000Y-126968000D02*
X172360000Y-127808000D01*
X173200000Y-126500000D02*
X173200000Y-126968000D01*
X159630000Y-134143000D02*
X159630000Y-135270000D01*
X159896000Y-134143000D02*
X159630000Y-134143000D01*
X164256000Y-129783000D02*
X159896000Y-134143000D01*
X156314000Y-90826700D02*
X153000000Y-87512500D01*
X156314000Y-96710900D02*
X156314000Y-90826700D01*
X161244000Y-101641000D02*
X156314000Y-96710900D01*
X161244000Y-126772000D02*
X161244000Y-101641000D01*
X164256000Y-129783000D02*
X161244000Y-126772000D01*
X164909000Y-130436000D02*
X164256000Y-129783000D01*
X167296000Y-130436000D02*
X164909000Y-130436000D01*
X168596000Y-129137000D02*
X167296000Y-130436000D01*
X169695000Y-129137000D02*
X168596000Y-129137000D01*
X171296000Y-127536000D02*
X169695000Y-129137000D01*
X153000000Y-81906500D02*
X153000000Y-82487500D01*
X155027000Y-79879100D02*
X153000000Y-81906500D01*
X155027000Y-74500000D02*
X155027000Y-79879100D01*
X146770000Y-80694700D02*
X146770000Y-80200000D01*
X147982000Y-81906500D02*
X146770000Y-80694700D01*
X153000000Y-81906500D02*
X147982000Y-81906500D01*
X153488000Y-85000000D02*
X153488000Y-84999800D01*
X153488000Y-85000000D02*
X153488000Y-84999800D01*
X153488000Y-87025000D02*
X153488000Y-85000000D01*
X153000000Y-87512500D02*
X153488000Y-87025000D01*
X153000000Y-84512500D02*
X153000000Y-82487500D01*
X153488000Y-84999800D02*
X153000000Y-84512500D01*
X171296000Y-112884000D02*
X169600000Y-111188000D01*
X171296000Y-127536000D02*
X171296000Y-112884000D01*
X169600000Y-111188000D02*
X169600000Y-111187500D01*
X155027400Y-74500000D02*
X155027000Y-74500000D01*
X153487500Y-85000000D02*
X153488000Y-85000000D01*
%TO.N,Net-(A1-D12)*%
X144390000Y-136683000D02*
X144390000Y-137810000D01*
X144108000Y-136683000D02*
X144390000Y-136683000D01*
X143213000Y-135788000D02*
X144108000Y-136683000D01*
X143213000Y-129741000D02*
X143213000Y-135788000D01*
X144034000Y-128920000D02*
X143213000Y-129741000D01*
X144774000Y-128920000D02*
X144034000Y-128920000D01*
X148304000Y-125390000D02*
X144774000Y-128920000D01*
X148304000Y-92785800D02*
X148304000Y-125390000D01*
X146143000Y-90624100D02*
X148304000Y-92785800D01*
X146143000Y-88224100D02*
X146143000Y-90624100D01*
X144862000Y-86943500D02*
X146143000Y-88224100D01*
X144862000Y-78663600D02*
X144862000Y-86943500D01*
X145500000Y-78025700D02*
X144862000Y-78663600D01*
X145500000Y-74435000D02*
X145500000Y-78025700D01*
X146770000Y-73165000D02*
X145500000Y-74435000D01*
%TO.N,Net-(A1-A5)*%
X149028000Y-90487500D02*
X153000000Y-90487500D01*
X148040000Y-89500000D02*
X149028000Y-90487500D01*
X159630000Y-116363000D02*
X159630000Y-117490000D01*
X159348000Y-116363000D02*
X159630000Y-116363000D01*
X153000000Y-110015000D02*
X159348000Y-116363000D01*
X153000000Y-90487500D02*
X153000000Y-110015000D01*
X172064000Y-129864000D02*
X168936000Y-129864000D01*
X173200000Y-130999000D02*
X172064000Y-129864000D01*
X173200000Y-131450000D02*
X173200000Y-130999000D01*
%TO.N,Net-(A1-A4)*%
X159630000Y-118903000D02*
X159630000Y-120030000D01*
X159348000Y-118903000D02*
X159630000Y-118903000D01*
X150828000Y-110383000D02*
X159348000Y-118903000D01*
X150828000Y-94047700D02*
X150828000Y-110383000D01*
X146770000Y-89990000D02*
X150828000Y-94047700D01*
X146770000Y-89500000D02*
X146770000Y-89990000D01*
X171930000Y-131892000D02*
X171930000Y-131450000D01*
X171060000Y-132762000D02*
X171930000Y-131892000D01*
X168666000Y-132762000D02*
X171060000Y-132762000D01*
X167926000Y-132022000D02*
X168666000Y-132762000D01*
X147981500Y-87530800D02*
X148825000Y-86687200D01*
X147981700Y-87530800D02*
X150512500Y-85000000D01*
X147981500Y-87530800D02*
X147981700Y-87530800D01*
X146770000Y-88742500D02*
X147981500Y-87530800D01*
X146770000Y-89500000D02*
X146770000Y-88742500D01*
%TO.N,Net-(A1-D11)*%
X143595000Y-76340000D02*
X144230000Y-75705000D01*
X143595000Y-86684400D02*
X143595000Y-76340000D01*
X144873000Y-87962100D02*
X143595000Y-86684400D01*
X144873000Y-91523900D02*
X144873000Y-87962100D01*
X145666000Y-92317000D02*
X144873000Y-91523900D01*
X145779000Y-92317000D02*
X145666000Y-92317000D01*
X147853000Y-94390800D02*
X145779000Y-92317000D01*
X147853000Y-123310000D02*
X147853000Y-94390800D01*
X144783000Y-126380000D02*
X147853000Y-123310000D01*
X144051000Y-126380000D02*
X144783000Y-126380000D01*
X142744000Y-127688000D02*
X144051000Y-126380000D01*
X142744000Y-137802000D02*
X142744000Y-127688000D01*
X143905000Y-138963000D02*
X142744000Y-137802000D01*
X144859000Y-138963000D02*
X143905000Y-138963000D01*
X145565000Y-138257000D02*
X144859000Y-138963000D01*
X145565000Y-136445000D02*
X145565000Y-138257000D01*
X144390000Y-135270000D02*
X145565000Y-136445000D01*
X160503000Y-85702900D02*
X159500000Y-84700000D01*
X160503000Y-90397100D02*
X160503000Y-85702900D01*
X159500000Y-91400000D02*
X160503000Y-90397100D01*
X152687000Y-73568600D02*
X150055000Y-76200700D01*
X163013000Y-73568600D02*
X152687000Y-73568600D01*
X163649000Y-74204500D02*
X163013000Y-73568600D01*
X163649000Y-78891000D02*
X163649000Y-74204500D01*
X162479000Y-80060700D02*
X163649000Y-78891000D01*
X161952000Y-80060700D02*
X162479000Y-80060700D01*
X161070000Y-80943000D02*
X161952000Y-80060700D01*
X161070000Y-83130000D02*
X161070000Y-80943000D01*
X159500000Y-84700000D02*
X161070000Y-83130000D01*
%TO.N,GND*%
X140420000Y-89500000D02*
X139150000Y-89500000D01*
X139150000Y-80200000D02*
X140420000Y-80200000D01*
X141690000Y-80200000D02*
X142960000Y-80200000D01*
X171930000Y-126500000D02*
X171930000Y-125171000D01*
X157527000Y-75000000D02*
X158482000Y-75000000D01*
X157027000Y-74500000D02*
X157527000Y-75000000D01*
X174700000Y-138560000D02*
X173735000Y-137595000D01*
X173899000Y-137431000D02*
X173735000Y-137595000D01*
X173899000Y-125536000D02*
X173899000Y-137431000D01*
X173534000Y-125171000D02*
X173899000Y-125536000D01*
X171930000Y-125171000D02*
X173534000Y-125171000D01*
X163730000Y-147600000D02*
X161800000Y-147600000D01*
X173735000Y-137595000D02*
X163730000Y-147600000D01*
X141055000Y-89500000D02*
X141055000Y-80200000D01*
X170322000Y-95671900D02*
X171650000Y-97000000D01*
X166678000Y-95671900D02*
X170322000Y-95671900D01*
X170500000Y-86000600D02*
X170500000Y-82255000D01*
X172876000Y-88376500D02*
X170500000Y-86000600D01*
X172876000Y-95774100D02*
X172876000Y-88376500D01*
X171650000Y-97000000D02*
X172876000Y-95774100D01*
X174262000Y-95774100D02*
X175000000Y-96512500D01*
X172876000Y-95774100D02*
X174262000Y-95774100D01*
X166678000Y-95671900D02*
X165350000Y-97000000D01*
X171930000Y-110542000D02*
X171930000Y-125171000D01*
X169600000Y-108212000D02*
X171930000Y-110542000D01*
X166000000Y-108212000D02*
X169600000Y-108212000D01*
X163451000Y-105664000D02*
X166000000Y-108212000D01*
X163451000Y-98898700D02*
X163451000Y-105664000D01*
X165350000Y-97000000D02*
X163451000Y-98898700D01*
X158502000Y-91332300D02*
X158232000Y-91332300D01*
X158502000Y-92283200D02*
X158502000Y-91332300D01*
X158884000Y-92666000D02*
X158502000Y-92283200D01*
X165304000Y-92666000D02*
X158884000Y-92666000D01*
X166678000Y-94040600D02*
X165304000Y-92666000D01*
X166678000Y-95671900D02*
X166678000Y-94040600D01*
X158502000Y-89048300D02*
X159500000Y-88050000D01*
X158502000Y-91332300D02*
X158502000Y-89048300D01*
X158482000Y-80332500D02*
X159500000Y-81350000D01*
X158482000Y-75000000D02*
X158482000Y-80332500D01*
X157999000Y-86549300D02*
X159500000Y-88050000D01*
X157999000Y-82850700D02*
X157999000Y-86549300D01*
X159500000Y-81350000D02*
X157999000Y-82850700D01*
X141925000Y-106482000D02*
X141925000Y-95100000D01*
X144186000Y-108743000D02*
X141925000Y-106482000D01*
X144390000Y-108743000D02*
X144186000Y-108743000D01*
X144390000Y-109870000D02*
X144390000Y-108743000D01*
X141690000Y-93638300D02*
X141690000Y-89500000D01*
X141925000Y-93873300D02*
X141690000Y-93638300D01*
X141925000Y-95100000D02*
X141925000Y-93873300D01*
X144230000Y-89500000D02*
X142960000Y-89500000D01*
X142960000Y-89500000D02*
X141690000Y-89500000D01*
X158482000Y-75000000D02*
X159437500Y-75000000D01*
X159437500Y-75000000D02*
X159438000Y-75000000D01*
X141690000Y-89500000D02*
X141055000Y-89500000D01*
X141055000Y-89500000D02*
X140420000Y-89500000D01*
X140420000Y-80200000D02*
X141055000Y-80200000D01*
X141055000Y-80200000D02*
X141690000Y-80200000D01*
%TD*%
%TA.AperFunction,Conductor*%
%TO.N,GND*%
G36*
X177717539Y-71419185D02*
G01*
X177763294Y-71471989D01*
X177774500Y-71523500D01*
X177774500Y-149710500D01*
X177754815Y-149777539D01*
X177702011Y-149823294D01*
X177650500Y-149834500D01*
X137309500Y-149834500D01*
X137242461Y-149814815D01*
X137196706Y-149762011D01*
X137185500Y-149710500D01*
X137185500Y-145327500D01*
X138135343Y-145327500D01*
X138153926Y-145516181D01*
X138166599Y-145557959D01*
X138208963Y-145697615D01*
X138208964Y-145697618D01*
X138208965Y-145697619D01*
X138208966Y-145697622D01*
X138298334Y-145864818D01*
X138298338Y-145864825D01*
X138418616Y-146011383D01*
X138565174Y-146131661D01*
X138565181Y-146131665D01*
X138732377Y-146221033D01*
X138732378Y-146221033D01*
X138732385Y-146221037D01*
X138913817Y-146276073D01*
X138913816Y-146276073D01*
X138930733Y-146277739D01*
X139102500Y-146294657D01*
X139291183Y-146276073D01*
X139472615Y-146221037D01*
X139639824Y-146131662D01*
X139786383Y-146011383D01*
X139906662Y-145864824D01*
X139996037Y-145697615D01*
X140051073Y-145516183D01*
X140069657Y-145327500D01*
X140675343Y-145327500D01*
X140693926Y-145516181D01*
X140706599Y-145557959D01*
X140748963Y-145697615D01*
X140748964Y-145697618D01*
X140748965Y-145697619D01*
X140748966Y-145697622D01*
X140838334Y-145864818D01*
X140838338Y-145864825D01*
X140958616Y-146011383D01*
X141105174Y-146131661D01*
X141105181Y-146131665D01*
X141272377Y-146221033D01*
X141272378Y-146221033D01*
X141272385Y-146221037D01*
X141453817Y-146276073D01*
X141453816Y-146276073D01*
X141470733Y-146277739D01*
X141642500Y-146294657D01*
X141831183Y-146276073D01*
X142012615Y-146221037D01*
X142179824Y-146131662D01*
X142326383Y-146011383D01*
X142446662Y-145864824D01*
X142536037Y-145697615D01*
X142591073Y-145516183D01*
X142609657Y-145327500D01*
X142609657Y-145327499D01*
X142915679Y-145327499D01*
X142915679Y-145327500D01*
X142934924Y-145547476D01*
X142934926Y-145547486D01*
X142992075Y-145760770D01*
X142992080Y-145760784D01*
X143085398Y-145960905D01*
X143085401Y-145960911D01*
X143130758Y-146025687D01*
X143130759Y-146025688D01*
X143801500Y-145354947D01*
X143801500Y-145377660D01*
X143827464Y-145474561D01*
X143877624Y-145561440D01*
X143948560Y-145632376D01*
X144035439Y-145682536D01*
X144132340Y-145708500D01*
X144155053Y-145708500D01*
X143484310Y-146379240D01*
X143549090Y-146424599D01*
X143549092Y-146424600D01*
X143749215Y-146517919D01*
X143749229Y-146517924D01*
X143962513Y-146575073D01*
X143962523Y-146575075D01*
X144182499Y-146594321D01*
X144182501Y-146594321D01*
X144402476Y-146575075D01*
X144402486Y-146575073D01*
X144615770Y-146517924D01*
X144615784Y-146517919D01*
X144815907Y-146424600D01*
X144815917Y-146424594D01*
X144880688Y-146379241D01*
X144209948Y-145708500D01*
X144232660Y-145708500D01*
X144329561Y-145682536D01*
X144416440Y-145632376D01*
X144487376Y-145561440D01*
X144537536Y-145474561D01*
X144563500Y-145377660D01*
X144563500Y-145354947D01*
X145234241Y-146025688D01*
X145279594Y-145960917D01*
X145279600Y-145960907D01*
X145372919Y-145760784D01*
X145372924Y-145760770D01*
X145430073Y-145547486D01*
X145430075Y-145547476D01*
X145449321Y-145327500D01*
X145755343Y-145327500D01*
X145773926Y-145516181D01*
X145786599Y-145557959D01*
X145828963Y-145697615D01*
X145828964Y-145697618D01*
X145828965Y-145697619D01*
X145828966Y-145697622D01*
X145918334Y-145864818D01*
X145918338Y-145864825D01*
X146038616Y-146011383D01*
X146185174Y-146131661D01*
X146185181Y-146131665D01*
X146352377Y-146221033D01*
X146352378Y-146221033D01*
X146352385Y-146221037D01*
X146533817Y-146276073D01*
X146533816Y-146276073D01*
X146550733Y-146277739D01*
X146722500Y-146294657D01*
X146911183Y-146276073D01*
X147092615Y-146221037D01*
X147259824Y-146131662D01*
X147406383Y-146011383D01*
X147526662Y-145864824D01*
X147616037Y-145697615D01*
X147671073Y-145516183D01*
X147689657Y-145327500D01*
X147671073Y-145138817D01*
X147616037Y-144957385D01*
X147589190Y-144907158D01*
X147526665Y-144790181D01*
X147526661Y-144790174D01*
X147406383Y-144643616D01*
X147259825Y-144523338D01*
X147259818Y-144523334D01*
X147092622Y-144433966D01*
X147092619Y-144433965D01*
X147092618Y-144433964D01*
X147092615Y-144433963D01*
X146911183Y-144378927D01*
X146911181Y-144378926D01*
X146911183Y-144378926D01*
X146722500Y-144360343D01*
X146533818Y-144378926D01*
X146426694Y-144411421D01*
X146352385Y-144433963D01*
X146352382Y-144433964D01*
X146352380Y-144433965D01*
X146352377Y-144433966D01*
X146185181Y-144523334D01*
X146185174Y-144523338D01*
X146038616Y-144643616D01*
X145918338Y-144790174D01*
X145918334Y-144790181D01*
X145828966Y-144957377D01*
X145828965Y-144957380D01*
X145828964Y-144957382D01*
X145828963Y-144957385D01*
X145809173Y-145022624D01*
X145773926Y-145138818D01*
X145755343Y-145327500D01*
X145449321Y-145327500D01*
X145449321Y-145327499D01*
X145430075Y-145107523D01*
X145430073Y-145107513D01*
X145372924Y-144894229D01*
X145372920Y-144894220D01*
X145279596Y-144694086D01*
X145234241Y-144629311D01*
X145234240Y-144629310D01*
X144563500Y-145300051D01*
X144563500Y-145277340D01*
X144537536Y-145180439D01*
X144487376Y-145093560D01*
X144416440Y-145022624D01*
X144329561Y-144972464D01*
X144232660Y-144946500D01*
X144209948Y-144946500D01*
X144880688Y-144275759D01*
X144880687Y-144275758D01*
X144815911Y-144230401D01*
X144815905Y-144230398D01*
X144615784Y-144137080D01*
X144615770Y-144137075D01*
X144402486Y-144079926D01*
X144402476Y-144079924D01*
X144182501Y-144060679D01*
X144182499Y-144060679D01*
X143962523Y-144079924D01*
X143962513Y-144079926D01*
X143749229Y-144137075D01*
X143749220Y-144137079D01*
X143549090Y-144230401D01*
X143484311Y-144275758D01*
X144155053Y-144946500D01*
X144132340Y-144946500D01*
X144035439Y-144972464D01*
X143948560Y-145022624D01*
X143877624Y-145093560D01*
X143827464Y-145180439D01*
X143801500Y-145277340D01*
X143801500Y-145300052D01*
X143130758Y-144629311D01*
X143085401Y-144694090D01*
X142992079Y-144894220D01*
X142992075Y-144894229D01*
X142934926Y-145107513D01*
X142934924Y-145107523D01*
X142915679Y-145327499D01*
X142609657Y-145327499D01*
X142591073Y-145138817D01*
X142536037Y-144957385D01*
X142509190Y-144907158D01*
X142446665Y-144790181D01*
X142446661Y-144790174D01*
X142326383Y-144643616D01*
X142179825Y-144523338D01*
X142179818Y-144523334D01*
X142012622Y-144433966D01*
X142012619Y-144433965D01*
X142012618Y-144433964D01*
X142012615Y-144433963D01*
X141831183Y-144378927D01*
X141831181Y-144378926D01*
X141831183Y-144378926D01*
X141642500Y-144360343D01*
X141453818Y-144378926D01*
X141346694Y-144411421D01*
X141272385Y-144433963D01*
X141272382Y-144433964D01*
X141272380Y-144433965D01*
X141272377Y-144433966D01*
X141105181Y-144523334D01*
X141105174Y-144523338D01*
X140958616Y-144643616D01*
X140838338Y-144790174D01*
X140838334Y-144790181D01*
X140748966Y-144957377D01*
X140748965Y-144957380D01*
X140748964Y-144957382D01*
X140748963Y-144957385D01*
X140729173Y-145022624D01*
X140693926Y-145138818D01*
X140675343Y-145327500D01*
X140069657Y-145327500D01*
X140051073Y-145138817D01*
X139996037Y-144957385D01*
X139969190Y-144907158D01*
X139906665Y-144790181D01*
X139906661Y-144790174D01*
X139786383Y-144643616D01*
X139639825Y-144523338D01*
X139639818Y-144523334D01*
X139472622Y-144433966D01*
X139472619Y-144433965D01*
X139472618Y-144433964D01*
X139472615Y-144433963D01*
X139291183Y-144378927D01*
X139291181Y-144378926D01*
X139291183Y-144378926D01*
X139102500Y-144360343D01*
X138913818Y-144378926D01*
X138806694Y-144411421D01*
X138732385Y-144433963D01*
X138732382Y-144433964D01*
X138732380Y-144433965D01*
X138732377Y-144433966D01*
X138565181Y-144523334D01*
X138565174Y-144523338D01*
X138418616Y-144643616D01*
X138298338Y-144790174D01*
X138298334Y-144790181D01*
X138208966Y-144957377D01*
X138208965Y-144957380D01*
X138208964Y-144957382D01*
X138208963Y-144957385D01*
X138189173Y-145022624D01*
X138153926Y-145138818D01*
X138135343Y-145327500D01*
X137185500Y-145327500D01*
X137185500Y-117821189D01*
X137205185Y-117754150D01*
X137257989Y-117708395D01*
X137327147Y-117698451D01*
X137390703Y-117727476D01*
X137397181Y-117733508D01*
X137405177Y-117741504D01*
X137405218Y-117741539D01*
X143793641Y-124128981D01*
X143827130Y-124190302D01*
X143822151Y-124259994D01*
X143784631Y-124312522D01*
X143679116Y-124399116D01*
X143554090Y-124551460D01*
X143554086Y-124551467D01*
X143461188Y-124725266D01*
X143403975Y-124913870D01*
X143384659Y-125110000D01*
X143403975Y-125306129D01*
X143403976Y-125306132D01*
X143456662Y-125479815D01*
X143461188Y-125494733D01*
X143554086Y-125668532D01*
X143554090Y-125668539D01*
X143679116Y-125820883D01*
X143831866Y-125946242D01*
X143871200Y-126003988D01*
X143873071Y-126073832D01*
X143840913Y-126129744D01*
X143822304Y-126148368D01*
X143822274Y-126148397D01*
X143785250Y-126185421D01*
X143785038Y-126185661D01*
X142514869Y-127456803D01*
X142483508Y-127488164D01*
X142483475Y-127488208D01*
X142462144Y-127525187D01*
X142462122Y-127525225D01*
X142440676Y-127562370D01*
X142440633Y-127562475D01*
X142429340Y-127604684D01*
X142429330Y-127604724D01*
X142418498Y-127645151D01*
X142418483Y-127645270D01*
X142418500Y-127689424D01*
X142418500Y-137844852D01*
X142440682Y-137927640D01*
X142462108Y-137964750D01*
X142483535Y-138001862D01*
X143705138Y-139223465D01*
X143779361Y-139266318D01*
X143862147Y-139288500D01*
X143862149Y-139288500D01*
X144901851Y-139288500D01*
X144901853Y-139288500D01*
X144984639Y-139266318D01*
X145058862Y-139223465D01*
X145754652Y-138527672D01*
X145754657Y-138527669D01*
X145764860Y-138517465D01*
X145764862Y-138517465D01*
X145825465Y-138456862D01*
X145862364Y-138392951D01*
X145868318Y-138382639D01*
X145890501Y-138299853D01*
X145890501Y-138214147D01*
X145890501Y-138206552D01*
X145890500Y-138206534D01*
X145890500Y-136402149D01*
X145890500Y-136402147D01*
X145868318Y-136319362D01*
X145868318Y-136319361D01*
X145825465Y-136245138D01*
X145351873Y-135771546D01*
X145318388Y-135710223D01*
X145320894Y-135647869D01*
X145376024Y-135466132D01*
X145395341Y-135270000D01*
X145376024Y-135073868D01*
X145318814Y-134885273D01*
X145318811Y-134885269D01*
X145318811Y-134885266D01*
X145225913Y-134711467D01*
X145225909Y-134711460D01*
X145100883Y-134559116D01*
X144948539Y-134434090D01*
X144948532Y-134434086D01*
X144774733Y-134341188D01*
X144774727Y-134341186D01*
X144586132Y-134283976D01*
X144586129Y-134283975D01*
X144390000Y-134264659D01*
X144193870Y-134283975D01*
X144005266Y-134341188D01*
X143831467Y-134434086D01*
X143831460Y-134434091D01*
X143741165Y-134508194D01*
X143676854Y-134535507D01*
X143607987Y-134523716D01*
X143556427Y-134476563D01*
X143538500Y-134412341D01*
X143538500Y-133587658D01*
X143558185Y-133520619D01*
X143610989Y-133474864D01*
X143680147Y-133464920D01*
X143741165Y-133491805D01*
X143831460Y-133565909D01*
X143831467Y-133565913D01*
X144005266Y-133658811D01*
X144005269Y-133658811D01*
X144005273Y-133658814D01*
X144193868Y-133716024D01*
X144390000Y-133735341D01*
X144586132Y-133716024D01*
X144774727Y-133658814D01*
X144948538Y-133565910D01*
X145100883Y-133440883D01*
X145225910Y-133288538D01*
X145272362Y-133201632D01*
X145318811Y-133114733D01*
X145318812Y-133114730D01*
X145318814Y-133114727D01*
X145376024Y-132926132D01*
X145390205Y-132782141D01*
X145416366Y-132717356D01*
X145473400Y-132676997D01*
X145543200Y-132673880D01*
X145601289Y-132706616D01*
X156358181Y-143463508D01*
X156391666Y-143524831D01*
X156394500Y-143551189D01*
X156394500Y-146565205D01*
X156374815Y-146632244D01*
X156328953Y-146674563D01*
X156161467Y-146764085D01*
X156161460Y-146764090D01*
X156009116Y-146889116D01*
X155884090Y-147041460D01*
X155884086Y-147041467D01*
X155791188Y-147215266D01*
X155733975Y-147403870D01*
X155714659Y-147600000D01*
X155733975Y-147796129D01*
X155733976Y-147796132D01*
X155781729Y-147953553D01*
X155791188Y-147984733D01*
X155884086Y-148158532D01*
X155884091Y-148158539D01*
X155963939Y-148255835D01*
X155991252Y-148320145D01*
X155979461Y-148389013D01*
X155932309Y-148440573D01*
X155868086Y-148458500D01*
X155550189Y-148458500D01*
X155483150Y-148438815D01*
X155462508Y-148422181D01*
X155141873Y-148101546D01*
X155108388Y-148040223D01*
X155110894Y-147977869D01*
X155166024Y-147796132D01*
X155185341Y-147600000D01*
X155166024Y-147403868D01*
X155108814Y-147215273D01*
X155108811Y-147215269D01*
X155108811Y-147215266D01*
X155015913Y-147041467D01*
X155015909Y-147041460D01*
X154890883Y-146889116D01*
X154738539Y-146764090D01*
X154738532Y-146764086D01*
X154564733Y-146671188D01*
X154564727Y-146671186D01*
X154376132Y-146613976D01*
X154376129Y-146613975D01*
X154180000Y-146594659D01*
X153983870Y-146613975D01*
X153795266Y-146671188D01*
X153621467Y-146764086D01*
X153621460Y-146764090D01*
X153469116Y-146889116D01*
X153344090Y-147041460D01*
X153344086Y-147041467D01*
X153251188Y-147215266D01*
X153193975Y-147403870D01*
X153174659Y-147600000D01*
X153193975Y-147796129D01*
X153193976Y-147796132D01*
X153241729Y-147953553D01*
X153251188Y-147984733D01*
X153344086Y-148158532D01*
X153344090Y-148158539D01*
X153469116Y-148310883D01*
X153621460Y-148435909D01*
X153621467Y-148435913D01*
X153795266Y-148528811D01*
X153795269Y-148528811D01*
X153795273Y-148528814D01*
X153983868Y-148586024D01*
X154180000Y-148605341D01*
X154376132Y-148586024D01*
X154557870Y-148530893D01*
X154627736Y-148530270D01*
X154681546Y-148561873D01*
X155164138Y-149044465D01*
X155238361Y-149087318D01*
X155321147Y-149109500D01*
X155321149Y-149109500D01*
X157250851Y-149109500D01*
X157250853Y-149109500D01*
X157333639Y-149087318D01*
X157407862Y-149044465D01*
X158268616Y-148183709D01*
X158329937Y-148150226D01*
X158399628Y-148155210D01*
X158452148Y-148192727D01*
X158549116Y-148310883D01*
X158701460Y-148435909D01*
X158701467Y-148435913D01*
X158875266Y-148528811D01*
X158875269Y-148528811D01*
X158875273Y-148528814D01*
X159063868Y-148586024D01*
X159260000Y-148605341D01*
X159456132Y-148586024D01*
X159644727Y-148528814D01*
X159699312Y-148499638D01*
X159818532Y-148435913D01*
X159818538Y-148435910D01*
X159970883Y-148310883D01*
X160095910Y-148158538D01*
X160159638Y-148039311D01*
X160188811Y-147984733D01*
X160188811Y-147984732D01*
X160188814Y-147984727D01*
X160246024Y-147796132D01*
X160256274Y-147692054D01*
X160282434Y-147627268D01*
X160320299Y-147600474D01*
X160437967Y-147600474D01*
X160469674Y-147618906D01*
X160501505Y-147681103D01*
X160503205Y-147693401D01*
X160514858Y-147826600D01*
X160514860Y-147826610D01*
X160573730Y-148046317D01*
X160573735Y-148046331D01*
X160669863Y-148252478D01*
X160720974Y-148325472D01*
X161317037Y-147729409D01*
X161334075Y-147792993D01*
X161399901Y-147907007D01*
X161492993Y-148000099D01*
X161607007Y-148065925D01*
X161670590Y-148082962D01*
X161074526Y-148679025D01*
X161147513Y-148730132D01*
X161147521Y-148730136D01*
X161353668Y-148826264D01*
X161353682Y-148826269D01*
X161573389Y-148885139D01*
X161573400Y-148885141D01*
X161799998Y-148904966D01*
X161800002Y-148904966D01*
X162026599Y-148885141D01*
X162026610Y-148885139D01*
X162246317Y-148826269D01*
X162246331Y-148826264D01*
X162452478Y-148730136D01*
X162525471Y-148679024D01*
X161929409Y-148082962D01*
X161992993Y-148065925D01*
X162107007Y-148000099D01*
X162200099Y-147907007D01*
X162265925Y-147792993D01*
X162282962Y-147729409D01*
X162879024Y-148325471D01*
X162930136Y-148252478D01*
X163026264Y-148046331D01*
X163026269Y-148046317D01*
X163085139Y-147826610D01*
X163085141Y-147826599D01*
X163104966Y-147600002D01*
X163104966Y-147599997D01*
X163085141Y-147373400D01*
X163085139Y-147373389D01*
X163026269Y-147153682D01*
X163026264Y-147153668D01*
X162930136Y-146947521D01*
X162930132Y-146947513D01*
X162879025Y-146874526D01*
X162282962Y-147470589D01*
X162265925Y-147407007D01*
X162200099Y-147292993D01*
X162107007Y-147199901D01*
X161992993Y-147134075D01*
X161929410Y-147117037D01*
X162525472Y-146520974D01*
X162452478Y-146469863D01*
X162246331Y-146373735D01*
X162246317Y-146373730D01*
X162026610Y-146314860D01*
X162026599Y-146314858D01*
X161800002Y-146295034D01*
X161799998Y-146295034D01*
X161573400Y-146314858D01*
X161573389Y-146314860D01*
X161353682Y-146373730D01*
X161353673Y-146373734D01*
X161147516Y-146469866D01*
X161147512Y-146469868D01*
X161074526Y-146520973D01*
X161074526Y-146520974D01*
X161670590Y-147117037D01*
X161607007Y-147134075D01*
X161492993Y-147199901D01*
X161399901Y-147292993D01*
X161334075Y-147407007D01*
X161317037Y-147470589D01*
X160720974Y-146874526D01*
X160720973Y-146874526D01*
X160669868Y-146947512D01*
X160669866Y-146947516D01*
X160573734Y-147153673D01*
X160573730Y-147153682D01*
X160514860Y-147373389D01*
X160514858Y-147373399D01*
X160503205Y-147506598D01*
X160477752Y-147571666D01*
X160437967Y-147600474D01*
X160320299Y-147600474D01*
X160321538Y-147599597D01*
X160290615Y-147582069D01*
X160258108Y-147520222D01*
X160256274Y-147507943D01*
X160246024Y-147403871D01*
X160246024Y-147403870D01*
X160246024Y-147403868D01*
X160188814Y-147215273D01*
X160188811Y-147215269D01*
X160188811Y-147215266D01*
X160095913Y-147041467D01*
X160095909Y-147041460D01*
X159970883Y-146889116D01*
X159818539Y-146764090D01*
X159818532Y-146764086D01*
X159644733Y-146671188D01*
X159644727Y-146671186D01*
X159456132Y-146613976D01*
X159456129Y-146613975D01*
X159260000Y-146594659D01*
X159063870Y-146613975D01*
X158875266Y-146671188D01*
X158701467Y-146764086D01*
X158701460Y-146764091D01*
X158660165Y-146797981D01*
X158595855Y-146825294D01*
X158526987Y-146813503D01*
X158475427Y-146766351D01*
X158457500Y-146702128D01*
X158457500Y-138227341D01*
X158477185Y-138160302D01*
X158529989Y-138114547D01*
X158599147Y-138104603D01*
X158662703Y-138133628D01*
X158698736Y-138189152D01*
X158698856Y-138189103D01*
X158699122Y-138189747D01*
X158700161Y-138191347D01*
X158701187Y-138194730D01*
X158794086Y-138368532D01*
X158794090Y-138368539D01*
X158919116Y-138520883D01*
X159071460Y-138645909D01*
X159071467Y-138645913D01*
X159245266Y-138738811D01*
X159245269Y-138738811D01*
X159245273Y-138738814D01*
X159433868Y-138796024D01*
X159630000Y-138815341D01*
X159826132Y-138796024D01*
X160014727Y-138738814D01*
X160188538Y-138645910D01*
X160293219Y-138560000D01*
X163572843Y-138560000D01*
X163591426Y-138748681D01*
X163609772Y-138809160D01*
X163646463Y-138930115D01*
X163646464Y-138930118D01*
X163646465Y-138930119D01*
X163646466Y-138930122D01*
X163735834Y-139097318D01*
X163735838Y-139097325D01*
X163856116Y-139243883D01*
X164002674Y-139364161D01*
X164002681Y-139364165D01*
X164169877Y-139453533D01*
X164169878Y-139453533D01*
X164169885Y-139453537D01*
X164351317Y-139508573D01*
X164351316Y-139508573D01*
X164368233Y-139510239D01*
X164540000Y-139527157D01*
X164728683Y-139508573D01*
X164910115Y-139453537D01*
X165077324Y-139364162D01*
X165223883Y-139243883D01*
X165344162Y-139097324D01*
X165433537Y-138930115D01*
X165488573Y-138748683D01*
X165507157Y-138560000D01*
X168652843Y-138560000D01*
X168671426Y-138748681D01*
X168689772Y-138809160D01*
X168726463Y-138930115D01*
X168726464Y-138930118D01*
X168726465Y-138930119D01*
X168726466Y-138930122D01*
X168815834Y-139097318D01*
X168815838Y-139097325D01*
X168936116Y-139243883D01*
X169082674Y-139364161D01*
X169082681Y-139364165D01*
X169249877Y-139453533D01*
X169249878Y-139453533D01*
X169249885Y-139453537D01*
X169431317Y-139508573D01*
X169431316Y-139508573D01*
X169448233Y-139510239D01*
X169620000Y-139527157D01*
X169808683Y-139508573D01*
X169990115Y-139453537D01*
X170157324Y-139364162D01*
X170303883Y-139243883D01*
X170424162Y-139097324D01*
X170513537Y-138930115D01*
X170568573Y-138748683D01*
X170587157Y-138560000D01*
X170568573Y-138371317D01*
X170513537Y-138189885D01*
X170513533Y-138189877D01*
X170424165Y-138022681D01*
X170424161Y-138022674D01*
X170303883Y-137876116D01*
X170157325Y-137755838D01*
X170157318Y-137755834D01*
X169990122Y-137666466D01*
X169990119Y-137666465D01*
X169990118Y-137666464D01*
X169990115Y-137666463D01*
X169808683Y-137611427D01*
X169808681Y-137611426D01*
X169808683Y-137611426D01*
X169620000Y-137592843D01*
X169431318Y-137611426D01*
X169329973Y-137642169D01*
X169249885Y-137666463D01*
X169249882Y-137666464D01*
X169249880Y-137666465D01*
X169249877Y-137666466D01*
X169082681Y-137755834D01*
X169082674Y-137755838D01*
X168936116Y-137876116D01*
X168815838Y-138022674D01*
X168815834Y-138022681D01*
X168726466Y-138189877D01*
X168726465Y-138189880D01*
X168726464Y-138189882D01*
X168726463Y-138189885D01*
X168715101Y-138227341D01*
X168671426Y-138371318D01*
X168652843Y-138560000D01*
X165507157Y-138560000D01*
X165488573Y-138371317D01*
X165433537Y-138189885D01*
X165433533Y-138189877D01*
X165344165Y-138022681D01*
X165344161Y-138022674D01*
X165223883Y-137876116D01*
X165077325Y-137755838D01*
X165077318Y-137755834D01*
X164910122Y-137666466D01*
X164910119Y-137666465D01*
X164910118Y-137666464D01*
X164910115Y-137666463D01*
X164728683Y-137611427D01*
X164728681Y-137611426D01*
X164728683Y-137611426D01*
X164540000Y-137592843D01*
X164351318Y-137611426D01*
X164249973Y-137642169D01*
X164169885Y-137666463D01*
X164169882Y-137666464D01*
X164169880Y-137666465D01*
X164169877Y-137666466D01*
X164002681Y-137755834D01*
X164002674Y-137755838D01*
X163856116Y-137876116D01*
X163735838Y-138022674D01*
X163735834Y-138022681D01*
X163646466Y-138189877D01*
X163646465Y-138189880D01*
X163646464Y-138189882D01*
X163646463Y-138189885D01*
X163635101Y-138227341D01*
X163591426Y-138371318D01*
X163572843Y-138560000D01*
X160293219Y-138560000D01*
X160340883Y-138520883D01*
X160465910Y-138368538D01*
X160526531Y-138255124D01*
X160558811Y-138194733D01*
X160558812Y-138194730D01*
X160558814Y-138194727D01*
X160616024Y-138006132D01*
X160635341Y-137810000D01*
X160616024Y-137613868D01*
X160558814Y-137425273D01*
X160558811Y-137425269D01*
X160558811Y-137425266D01*
X160465913Y-137251467D01*
X160465909Y-137251460D01*
X160340883Y-137099116D01*
X160188539Y-136974090D01*
X160188532Y-136974086D01*
X160014733Y-136881188D01*
X160014727Y-136881186D01*
X159864454Y-136835601D01*
X159826129Y-136823975D01*
X159630000Y-136804659D01*
X159433870Y-136823975D01*
X159245266Y-136881188D01*
X159071467Y-136974086D01*
X159071460Y-136974090D01*
X158919116Y-137099116D01*
X158794090Y-137251460D01*
X158794086Y-137251467D01*
X158701186Y-137425270D01*
X158700160Y-137428655D01*
X158699139Y-137430211D01*
X158698856Y-137430897D01*
X158698725Y-137430843D01*
X158661861Y-137487093D01*
X158598049Y-137515549D01*
X158528982Y-137504987D01*
X158476589Y-137458762D01*
X158457500Y-137392658D01*
X158457500Y-135687341D01*
X158477185Y-135620302D01*
X158529989Y-135574547D01*
X158599147Y-135564603D01*
X158662703Y-135593628D01*
X158698736Y-135649152D01*
X158698856Y-135649103D01*
X158699122Y-135649747D01*
X158700161Y-135651347D01*
X158701187Y-135654730D01*
X158794086Y-135828532D01*
X158794090Y-135828539D01*
X158919116Y-135980883D01*
X159071460Y-136105909D01*
X159071467Y-136105913D01*
X159245266Y-136198811D01*
X159245269Y-136198811D01*
X159245273Y-136198814D01*
X159433868Y-136256024D01*
X159630000Y-136275341D01*
X159826132Y-136256024D01*
X160014727Y-136198814D01*
X160069312Y-136169638D01*
X160188532Y-136105913D01*
X160188538Y-136105910D01*
X160340883Y-135980883D01*
X160465910Y-135828538D01*
X160529638Y-135709311D01*
X160558811Y-135654733D01*
X160558812Y-135654730D01*
X160558814Y-135654727D01*
X160616024Y-135466132D01*
X160635341Y-135270000D01*
X160616024Y-135073868D01*
X160558814Y-134885273D01*
X160558811Y-134885269D01*
X160558811Y-134885266D01*
X160465913Y-134711467D01*
X160465909Y-134711460D01*
X160340883Y-134559116D01*
X160226572Y-134465303D01*
X160187238Y-134407557D01*
X160185367Y-134337712D01*
X160217554Y-134281771D01*
X164168322Y-130331004D01*
X164229641Y-130297522D01*
X164299333Y-130302506D01*
X164343680Y-130331007D01*
X164648534Y-130635861D01*
X164648535Y-130635862D01*
X164709138Y-130696465D01*
X164709140Y-130696466D01*
X164709144Y-130696469D01*
X164783355Y-130739314D01*
X164783362Y-130739318D01*
X164866147Y-130761500D01*
X167294575Y-130761500D01*
X167294592Y-130761500D01*
X167338728Y-130761517D01*
X167338738Y-130761514D01*
X167338850Y-130761500D01*
X167338853Y-130761500D01*
X167363300Y-130754949D01*
X167379600Y-130750582D01*
X167379602Y-130750589D01*
X167379642Y-130750570D01*
X167421522Y-130739366D01*
X167421525Y-130739363D01*
X167421540Y-130739360D01*
X167421618Y-130739328D01*
X167421633Y-130739319D01*
X167421638Y-130739318D01*
X167458879Y-130717815D01*
X167458925Y-130717804D01*
X167458919Y-130717793D01*
X167458921Y-130717792D01*
X167495761Y-130696542D01*
X167495764Y-130696538D01*
X167495788Y-130696525D01*
X167495836Y-130696488D01*
X167495855Y-130696468D01*
X167495862Y-130696465D01*
X167526950Y-130665376D01*
X167526953Y-130665373D01*
X167526959Y-130665379D01*
X167526982Y-130665343D01*
X168167369Y-130025449D01*
X168228703Y-129991990D01*
X168298392Y-129997001D01*
X168354310Y-130038894D01*
X168369575Y-130065713D01*
X168411463Y-130166839D01*
X168411464Y-130166841D01*
X168507718Y-130292282D01*
X168633159Y-130388536D01*
X168779238Y-130449044D01*
X168783174Y-130449562D01*
X168786250Y-130450922D01*
X168787088Y-130451147D01*
X168787053Y-130451277D01*
X168847070Y-130477824D01*
X168885545Y-130536146D01*
X168889459Y-130587242D01*
X168889824Y-130587269D01*
X168889647Y-130589702D01*
X168889699Y-130590375D01*
X168889500Y-130591741D01*
X168889500Y-132225811D01*
X168869815Y-132292850D01*
X168817011Y-132338605D01*
X168747853Y-132348549D01*
X168684297Y-132319524D01*
X168677819Y-132313492D01*
X168558011Y-132193684D01*
X168524526Y-132132361D01*
X168522753Y-132089816D01*
X168531682Y-132021999D01*
X168531682Y-132021998D01*
X168515859Y-131901811D01*
X168511044Y-131865238D01*
X168450536Y-131719159D01*
X168354282Y-131593718D01*
X168228841Y-131497464D01*
X168082762Y-131436956D01*
X168082760Y-131436955D01*
X167926001Y-131416318D01*
X167925999Y-131416318D01*
X167769239Y-131436955D01*
X167769237Y-131436956D01*
X167623160Y-131497463D01*
X167497718Y-131593718D01*
X167401463Y-131719160D01*
X167340956Y-131865237D01*
X167340955Y-131865239D01*
X167320318Y-132021998D01*
X167320318Y-132022001D01*
X167340955Y-132178760D01*
X167340956Y-132178762D01*
X167399261Y-132319524D01*
X167401464Y-132324841D01*
X167497718Y-132450282D01*
X167623159Y-132546536D01*
X167769238Y-132607044D01*
X167834023Y-132615573D01*
X167925999Y-132627682D01*
X167925999Y-132627681D01*
X167926000Y-132627682D01*
X167993817Y-132618753D01*
X168062852Y-132629518D01*
X168097684Y-132654011D01*
X168466138Y-133022465D01*
X168540361Y-133065318D01*
X168623147Y-133087500D01*
X168623149Y-133087500D01*
X171102851Y-133087500D01*
X171102853Y-133087500D01*
X171185639Y-133065318D01*
X171259862Y-133022465D01*
X171624269Y-132658055D01*
X171685588Y-132624573D01*
X171729822Y-132623035D01*
X171746740Y-132625500D01*
X171746743Y-132625500D01*
X172113261Y-132625500D01*
X172135971Y-132622191D01*
X172181393Y-132615573D01*
X172286483Y-132564198D01*
X172369198Y-132481483D01*
X172420573Y-132376393D01*
X172430500Y-132308260D01*
X172430500Y-130989477D01*
X172450185Y-130922438D01*
X172502989Y-130876683D01*
X172572147Y-130866739D01*
X172635703Y-130895764D01*
X172642136Y-130901750D01*
X172662842Y-130922438D01*
X172663144Y-130922740D01*
X172696655Y-130984049D01*
X172699500Y-131010459D01*
X172699500Y-132308260D01*
X172709426Y-132376391D01*
X172760803Y-132481485D01*
X172843514Y-132564196D01*
X172843515Y-132564196D01*
X172843517Y-132564198D01*
X172948607Y-132615573D01*
X172970433Y-132618753D01*
X173016739Y-132625500D01*
X173016740Y-132625500D01*
X173383261Y-132625500D01*
X173405971Y-132622191D01*
X173451393Y-132615573D01*
X173556483Y-132564198D01*
X173639198Y-132481483D01*
X173690573Y-132376393D01*
X173700500Y-132308260D01*
X173700500Y-130591740D01*
X173690573Y-130523607D01*
X173639198Y-130418517D01*
X173639196Y-130418515D01*
X173639196Y-130418514D01*
X173556485Y-130335803D01*
X173451391Y-130284426D01*
X173383261Y-130274500D01*
X173383260Y-130274500D01*
X173016740Y-130274500D01*
X173016739Y-130274500D01*
X173007271Y-130275879D01*
X172938095Y-130266063D01*
X172901756Y-130240894D01*
X172294429Y-129634102D01*
X172294433Y-129634097D01*
X172294390Y-129634063D01*
X172263859Y-129603532D01*
X172263751Y-129603449D01*
X172226781Y-129582126D01*
X172226735Y-129582099D01*
X172189641Y-129560683D01*
X172189509Y-129560628D01*
X172185918Y-129559667D01*
X172148343Y-129549616D01*
X172148344Y-129549610D01*
X172148295Y-129549603D01*
X172130188Y-129544752D01*
X172106845Y-129538497D01*
X172106717Y-129538481D01*
X172106714Y-129538480D01*
X172063876Y-129538499D01*
X172063856Y-129538500D01*
X170053189Y-129538500D01*
X169986150Y-129518815D01*
X169940395Y-129466011D01*
X169930451Y-129396853D01*
X169959476Y-129333297D01*
X169965508Y-129326819D01*
X170271621Y-129020706D01*
X171210044Y-128082281D01*
X171271365Y-128048798D01*
X171341056Y-128053782D01*
X171361582Y-128065152D01*
X171362037Y-128064365D01*
X171362148Y-128064429D01*
X171363335Y-128065220D01*
X171379178Y-128074328D01*
X171406249Y-128089891D01*
X171406414Y-128090063D01*
X171406447Y-128090005D01*
X171443360Y-128111317D01*
X171443369Y-128111322D01*
X171443432Y-128111348D01*
X171443553Y-128111398D01*
X171443909Y-128111545D01*
X171443916Y-128111546D01*
X171443918Y-128111548D01*
X171485059Y-128122491D01*
X171485259Y-128122612D01*
X171485276Y-128122549D01*
X171496837Y-128125646D01*
X171526147Y-128133500D01*
X171526150Y-128133500D01*
X171526157Y-128133502D01*
X171526745Y-128133579D01*
X171569597Y-128133500D01*
X172317147Y-128133500D01*
X172402853Y-128133500D01*
X172485639Y-128111318D01*
X172559862Y-128068465D01*
X172917054Y-127711271D01*
X172978375Y-127677788D01*
X173013713Y-127675280D01*
X173016737Y-127675499D01*
X173016740Y-127675500D01*
X173016743Y-127675500D01*
X173383261Y-127675500D01*
X173405971Y-127672191D01*
X173451393Y-127665573D01*
X173556483Y-127614198D01*
X173639198Y-127531483D01*
X173690573Y-127426393D01*
X173700500Y-127358260D01*
X173700500Y-125641740D01*
X173690573Y-125573607D01*
X173639198Y-125468517D01*
X173639196Y-125468515D01*
X173639196Y-125468514D01*
X173556485Y-125385803D01*
X173451391Y-125334426D01*
X173383261Y-125324500D01*
X173383260Y-125324500D01*
X173016740Y-125324500D01*
X173016739Y-125324500D01*
X172948608Y-125334426D01*
X172843513Y-125385804D01*
X172835153Y-125391773D01*
X172834358Y-125390660D01*
X172782500Y-125418972D01*
X172712809Y-125413983D01*
X172656879Y-125372107D01*
X172649419Y-125360925D01*
X172597684Y-125273446D01*
X172597678Y-125273438D01*
X172481561Y-125157321D01*
X172481552Y-125157314D01*
X172340196Y-125073717D01*
X172340193Y-125073716D01*
X172182494Y-125027900D01*
X172182497Y-125027900D01*
X172180000Y-125027703D01*
X172180000Y-126626000D01*
X172160315Y-126693039D01*
X172107511Y-126738794D01*
X172056000Y-126750000D01*
X171804000Y-126750000D01*
X171736961Y-126730315D01*
X171691206Y-126677511D01*
X171680000Y-126626000D01*
X171680000Y-125027702D01*
X171661346Y-125010466D01*
X171625468Y-124950512D01*
X171621500Y-124919394D01*
X171621500Y-112841149D01*
X171621499Y-112841145D01*
X171606858Y-112786501D01*
X171599318Y-112758361D01*
X171556465Y-112684138D01*
X170708240Y-111835913D01*
X170674755Y-111774590D01*
X170672463Y-111736655D01*
X170675291Y-111706492D01*
X170675500Y-111704265D01*
X170675499Y-110670736D01*
X170672646Y-110640302D01*
X170627793Y-110512118D01*
X170547150Y-110402850D01*
X170437882Y-110322207D01*
X170437881Y-110322206D01*
X170309695Y-110277353D01*
X170309698Y-110277353D01*
X170279268Y-110274500D01*
X168920741Y-110274500D01*
X168890301Y-110277354D01*
X168890300Y-110277354D01*
X168762118Y-110322206D01*
X168652850Y-110402850D01*
X168572206Y-110512118D01*
X168527353Y-110640302D01*
X168524500Y-110670731D01*
X168524500Y-111704258D01*
X168527354Y-111734698D01*
X168527354Y-111734699D01*
X168572206Y-111862881D01*
X168572207Y-111862882D01*
X168652850Y-111972150D01*
X168762118Y-112052793D01*
X168890302Y-112097646D01*
X168890301Y-112097646D01*
X168894271Y-112098018D01*
X168920735Y-112100500D01*
X170000810Y-112100499D01*
X170067849Y-112120184D01*
X170088491Y-112136818D01*
X170934181Y-112982508D01*
X170967666Y-113043831D01*
X170970500Y-113070189D01*
X170970500Y-121422811D01*
X170950815Y-121489850D01*
X170898011Y-121535605D01*
X170828853Y-121545549D01*
X170765297Y-121516524D01*
X170758819Y-121510492D01*
X167008325Y-117759998D01*
X166974840Y-117698675D01*
X166972548Y-117660737D01*
X166972645Y-117659700D01*
X166972646Y-117659698D01*
X166975500Y-117629265D01*
X166975499Y-116595736D01*
X166972646Y-116565302D01*
X166927793Y-116437118D01*
X166847150Y-116327850D01*
X166737882Y-116247207D01*
X166737881Y-116247206D01*
X166609695Y-116202353D01*
X166609698Y-116202353D01*
X166579269Y-116199500D01*
X166579265Y-116199500D01*
X166349500Y-116199500D01*
X166282461Y-116179815D01*
X166236706Y-116127011D01*
X166225500Y-116075500D01*
X166225500Y-112224499D01*
X166245185Y-112157460D01*
X166297989Y-112111705D01*
X166349500Y-112100499D01*
X166679258Y-112100499D01*
X166679264Y-112100499D01*
X166709698Y-112097646D01*
X166837882Y-112052793D01*
X166947150Y-111972150D01*
X167027793Y-111862882D01*
X167072646Y-111734698D01*
X167075500Y-111704265D01*
X167075499Y-110670736D01*
X167072646Y-110640302D01*
X167027793Y-110512118D01*
X166947150Y-110402850D01*
X166837882Y-110322207D01*
X166837881Y-110322206D01*
X166709695Y-110277353D01*
X166709698Y-110277353D01*
X166679269Y-110274500D01*
X166679265Y-110274500D01*
X165598189Y-110274500D01*
X165531150Y-110254815D01*
X165510508Y-110238181D01*
X163997312Y-108724985D01*
X164625000Y-108724985D01*
X164635493Y-108827689D01*
X164635494Y-108827696D01*
X164690641Y-108994118D01*
X164690643Y-108994123D01*
X164782684Y-109143344D01*
X164906655Y-109267315D01*
X165055876Y-109359356D01*
X165055881Y-109359358D01*
X165222303Y-109414505D01*
X165222310Y-109414506D01*
X165325014Y-109424999D01*
X165325027Y-109425000D01*
X165750000Y-109425000D01*
X166250000Y-109425000D01*
X166674973Y-109425000D01*
X166674985Y-109424999D01*
X166777689Y-109414506D01*
X166777696Y-109414505D01*
X166944118Y-109359358D01*
X166944123Y-109359356D01*
X167093344Y-109267315D01*
X167217315Y-109143344D01*
X167309356Y-108994123D01*
X167309358Y-108994118D01*
X167364505Y-108827696D01*
X167364506Y-108827689D01*
X167374999Y-108724985D01*
X168225000Y-108724985D01*
X168235493Y-108827689D01*
X168235494Y-108827696D01*
X168290641Y-108994118D01*
X168290643Y-108994123D01*
X168382684Y-109143344D01*
X168506655Y-109267315D01*
X168655876Y-109359356D01*
X168655881Y-109359358D01*
X168822303Y-109414505D01*
X168822310Y-109414506D01*
X168925014Y-109424999D01*
X168925027Y-109425000D01*
X169350000Y-109425000D01*
X169350000Y-108462500D01*
X168225000Y-108462500D01*
X168225000Y-108724985D01*
X167374999Y-108724985D01*
X167375000Y-108724972D01*
X167375000Y-108462500D01*
X166250000Y-108462500D01*
X166250000Y-109425000D01*
X165750000Y-109425000D01*
X165750000Y-108462500D01*
X164625000Y-108462500D01*
X164625000Y-108724985D01*
X163997312Y-108724985D01*
X163343819Y-108071492D01*
X163310334Y-108010169D01*
X163307500Y-107983811D01*
X163307500Y-107700014D01*
X164625000Y-107700014D01*
X164625000Y-107962500D01*
X165750000Y-107962500D01*
X166250000Y-107962500D01*
X167375000Y-107962500D01*
X167375000Y-107700027D01*
X167374999Y-107700014D01*
X168225000Y-107700014D01*
X168225000Y-107962500D01*
X169350000Y-107962500D01*
X169350000Y-107000000D01*
X168925014Y-107000000D01*
X168822310Y-107010493D01*
X168822303Y-107010494D01*
X168655881Y-107065641D01*
X168655876Y-107065643D01*
X168506655Y-107157684D01*
X168382684Y-107281655D01*
X168290643Y-107430876D01*
X168290641Y-107430881D01*
X168235494Y-107597303D01*
X168235493Y-107597310D01*
X168225000Y-107700014D01*
X167374999Y-107700014D01*
X167364506Y-107597310D01*
X167364505Y-107597303D01*
X167309358Y-107430881D01*
X167309356Y-107430876D01*
X167217315Y-107281655D01*
X167093344Y-107157684D01*
X166944123Y-107065643D01*
X166944118Y-107065641D01*
X166777696Y-107010494D01*
X166777689Y-107010493D01*
X166674985Y-107000000D01*
X166250000Y-107000000D01*
X166250000Y-107962500D01*
X165750000Y-107962500D01*
X165750000Y-107000000D01*
X165325014Y-107000000D01*
X165222310Y-107010493D01*
X165222303Y-107010494D01*
X165055881Y-107065641D01*
X165055876Y-107065643D01*
X164906655Y-107157684D01*
X164782684Y-107281655D01*
X164690643Y-107430876D01*
X164690641Y-107430881D01*
X164635494Y-107597303D01*
X164635493Y-107597310D01*
X164625000Y-107700014D01*
X163307500Y-107700014D01*
X163307500Y-103000000D01*
X163572843Y-103000000D01*
X163591426Y-103188681D01*
X163606650Y-103238867D01*
X163646463Y-103370115D01*
X163646464Y-103370118D01*
X163646465Y-103370119D01*
X163646466Y-103370122D01*
X163735834Y-103537318D01*
X163735838Y-103537325D01*
X163856116Y-103683883D01*
X164002674Y-103804161D01*
X164002681Y-103804165D01*
X164169877Y-103893533D01*
X164169878Y-103893533D01*
X164169885Y-103893537D01*
X164351317Y-103948573D01*
X164351316Y-103948573D01*
X164368233Y-103950239D01*
X164540000Y-103967157D01*
X164728683Y-103948573D01*
X164910115Y-103893537D01*
X165077324Y-103804162D01*
X165223883Y-103683883D01*
X165344162Y-103537324D01*
X165422349Y-103391047D01*
X165471311Y-103341203D01*
X165531707Y-103325500D01*
X166147811Y-103325500D01*
X166214850Y-103345185D01*
X166235492Y-103361819D01*
X169813681Y-106940008D01*
X169847166Y-107001331D01*
X169850000Y-107027689D01*
X169850000Y-109425000D01*
X170274973Y-109425000D01*
X170274985Y-109424999D01*
X170377689Y-109414506D01*
X170377696Y-109414505D01*
X170544118Y-109359358D01*
X170544123Y-109359356D01*
X170693344Y-109267315D01*
X170817315Y-109143344D01*
X170909356Y-108994123D01*
X170909358Y-108994118D01*
X170964505Y-108827696D01*
X170964506Y-108827689D01*
X170974999Y-108724985D01*
X170975000Y-108724972D01*
X170975000Y-108400688D01*
X170994685Y-108333649D01*
X171047489Y-108287894D01*
X171116647Y-108277950D01*
X171180203Y-108306975D01*
X171186681Y-108313007D01*
X175433181Y-112559507D01*
X175466666Y-112620830D01*
X175469500Y-112647188D01*
X175469500Y-137331719D01*
X175449815Y-137398758D01*
X175397011Y-137444513D01*
X175327853Y-137454457D01*
X175293096Y-137444101D01*
X175133284Y-137369580D01*
X175133270Y-137369575D01*
X174919986Y-137312426D01*
X174919976Y-137312424D01*
X174700001Y-137293179D01*
X174699999Y-137293179D01*
X174480023Y-137312424D01*
X174480013Y-137312426D01*
X174266729Y-137369575D01*
X174266720Y-137369579D01*
X174066590Y-137462901D01*
X174001811Y-137508258D01*
X174672553Y-138179000D01*
X174649840Y-138179000D01*
X174552939Y-138204964D01*
X174466060Y-138255124D01*
X174395124Y-138326060D01*
X174344964Y-138412939D01*
X174319000Y-138509840D01*
X174319000Y-138532553D01*
X173648258Y-137861811D01*
X173602901Y-137926590D01*
X173509579Y-138126720D01*
X173509575Y-138126729D01*
X173452426Y-138340013D01*
X173452424Y-138340023D01*
X173433179Y-138559999D01*
X173433179Y-138560000D01*
X173452424Y-138779976D01*
X173452426Y-138779986D01*
X173509575Y-138993270D01*
X173509580Y-138993284D01*
X173602898Y-139193405D01*
X173602901Y-139193411D01*
X173648258Y-139258187D01*
X173648259Y-139258188D01*
X174319000Y-138587447D01*
X174319000Y-138610160D01*
X174344964Y-138707061D01*
X174395124Y-138793940D01*
X174466060Y-138864876D01*
X174552939Y-138915036D01*
X174649840Y-138941000D01*
X174672551Y-138941000D01*
X174001810Y-139611740D01*
X174066590Y-139657099D01*
X174066592Y-139657100D01*
X174266715Y-139750419D01*
X174266729Y-139750424D01*
X174371208Y-139778419D01*
X174430869Y-139814784D01*
X174461398Y-139877631D01*
X174453103Y-139947006D01*
X174426796Y-139985875D01*
X169320617Y-145092055D01*
X169259294Y-145125540D01*
X169189602Y-145120556D01*
X169133669Y-145078684D01*
X169129850Y-145073288D01*
X169098552Y-145026448D01*
X169092830Y-145022624D01*
X169032230Y-144982132D01*
X169032229Y-144982131D01*
X168973752Y-144970500D01*
X168973748Y-144970500D01*
X167426252Y-144970500D01*
X167426247Y-144970500D01*
X167367770Y-144982131D01*
X167367769Y-144982132D01*
X167301447Y-145026447D01*
X167257132Y-145092769D01*
X167257131Y-145092770D01*
X167245500Y-145151247D01*
X167245500Y-146698752D01*
X167257131Y-146757229D01*
X167257132Y-146757230D01*
X167301447Y-146823552D01*
X167367769Y-146867867D01*
X167367770Y-146867868D01*
X167426247Y-146879499D01*
X167426250Y-146879500D01*
X167426252Y-146879500D01*
X168973750Y-146879500D01*
X168973751Y-146879499D01*
X168988568Y-146876552D01*
X169032229Y-146867868D01*
X169032229Y-146867867D01*
X169032231Y-146867867D01*
X169098552Y-146823552D01*
X169142867Y-146757231D01*
X169142867Y-146757229D01*
X169142868Y-146757229D01*
X169154499Y-146698752D01*
X169154500Y-146698750D01*
X169154500Y-146374500D01*
X169174185Y-146307461D01*
X169226989Y-146261706D01*
X169278500Y-146250500D01*
X169323851Y-146250500D01*
X169323853Y-146250500D01*
X169406638Y-146228318D01*
X169480862Y-146185465D01*
X169541465Y-146124862D01*
X169543791Y-146120832D01*
X169594353Y-146072615D01*
X169662960Y-146059388D01*
X169727826Y-146085351D01*
X169768358Y-146142263D01*
X169769841Y-146146831D01*
X169813891Y-146292040D01*
X169902518Y-146457851D01*
X169902523Y-146457857D01*
X170021800Y-146603199D01*
X170167142Y-146722476D01*
X170167148Y-146722481D01*
X170308400Y-146797981D01*
X170332961Y-146811109D01*
X170512882Y-146865688D01*
X170512884Y-146865689D01*
X170529660Y-146867341D01*
X170700000Y-146884118D01*
X170887115Y-146865689D01*
X171067039Y-146811109D01*
X171155005Y-146764090D01*
X171232851Y-146722481D01*
X171232853Y-146722478D01*
X171232857Y-146722477D01*
X171378199Y-146603199D01*
X171497477Y-146457857D01*
X171497478Y-146457853D01*
X171497481Y-146457851D01*
X171573912Y-146314858D01*
X171586109Y-146292039D01*
X171640689Y-146112115D01*
X171659118Y-145925000D01*
X172240882Y-145925000D01*
X172259310Y-146112115D01*
X172259311Y-146112117D01*
X172313891Y-146292040D01*
X172402518Y-146457851D01*
X172402523Y-146457857D01*
X172521800Y-146603199D01*
X172667142Y-146722476D01*
X172667148Y-146722481D01*
X172808400Y-146797981D01*
X172832961Y-146811109D01*
X173012882Y-146865688D01*
X173012884Y-146865689D01*
X173029660Y-146867341D01*
X173200000Y-146884118D01*
X173387115Y-146865689D01*
X173567039Y-146811109D01*
X173655005Y-146764090D01*
X173732851Y-146722481D01*
X173732853Y-146722478D01*
X173732857Y-146722477D01*
X173878199Y-146603199D01*
X173997477Y-146457857D01*
X173997478Y-146457853D01*
X173997481Y-146457851D01*
X174073912Y-146314858D01*
X174086109Y-146292039D01*
X174140689Y-146112115D01*
X174159118Y-145925000D01*
X174140689Y-145737885D01*
X174086109Y-145557961D01*
X174063777Y-145516181D01*
X173997481Y-145392148D01*
X173997476Y-145392142D01*
X173878199Y-145246800D01*
X173732857Y-145127523D01*
X173732851Y-145127518D01*
X173567040Y-145038891D01*
X173387117Y-144984311D01*
X173387115Y-144984310D01*
X173200000Y-144965882D01*
X173012884Y-144984310D01*
X173012882Y-144984311D01*
X172832959Y-145038891D01*
X172667148Y-145127518D01*
X172667142Y-145127523D01*
X172521800Y-145246800D01*
X172402523Y-145392142D01*
X172402518Y-145392148D01*
X172313891Y-145557959D01*
X172259311Y-145737882D01*
X172259310Y-145737884D01*
X172240882Y-145925000D01*
X171659118Y-145925000D01*
X171640689Y-145737885D01*
X171586109Y-145557961D01*
X171563777Y-145516181D01*
X171497481Y-145392148D01*
X171497476Y-145392142D01*
X171378199Y-145246800D01*
X171232857Y-145127523D01*
X171232851Y-145127518D01*
X171067040Y-145038891D01*
X170887117Y-144984311D01*
X170887115Y-144984310D01*
X170700000Y-144965882D01*
X170699995Y-144965882D01*
X170675995Y-144968245D01*
X170607350Y-144955224D01*
X170556641Y-144907158D01*
X170539969Y-144839306D01*
X170562626Y-144773213D01*
X170576158Y-144757167D01*
X176055465Y-139277862D01*
X176098318Y-139203639D01*
X176120500Y-139120853D01*
X176120500Y-139035147D01*
X176120500Y-112513855D01*
X176120501Y-112513842D01*
X176120501Y-112418149D01*
X176120501Y-112418148D01*
X176098318Y-112335362D01*
X176098314Y-112335355D01*
X176055469Y-112261144D01*
X176055466Y-112261140D01*
X176055465Y-112261138D01*
X175994862Y-112200535D01*
X175994861Y-112200534D01*
X175990531Y-112196204D01*
X175990520Y-112196194D01*
X166794327Y-103000000D01*
X173732843Y-103000000D01*
X173751426Y-103188681D01*
X173766650Y-103238867D01*
X173806463Y-103370115D01*
X173806464Y-103370118D01*
X173806465Y-103370119D01*
X173806466Y-103370122D01*
X173895834Y-103537318D01*
X173895838Y-103537325D01*
X174016116Y-103683883D01*
X174162674Y-103804161D01*
X174162681Y-103804165D01*
X174329877Y-103893533D01*
X174329878Y-103893533D01*
X174329885Y-103893537D01*
X174511317Y-103948573D01*
X174511316Y-103948573D01*
X174528233Y-103950239D01*
X174700000Y-103967157D01*
X174888683Y-103948573D01*
X175070115Y-103893537D01*
X175237324Y-103804162D01*
X175383883Y-103683883D01*
X175504162Y-103537324D01*
X175593537Y-103370115D01*
X175648573Y-103188683D01*
X175667157Y-103000000D01*
X175648573Y-102811317D01*
X175593537Y-102629885D01*
X175532792Y-102516239D01*
X175504165Y-102462681D01*
X175504161Y-102462674D01*
X175383883Y-102316116D01*
X175237325Y-102195838D01*
X175237318Y-102195834D01*
X175070122Y-102106466D01*
X175070119Y-102106465D01*
X175070118Y-102106464D01*
X175070115Y-102106463D01*
X174888683Y-102051427D01*
X174888681Y-102051426D01*
X174888683Y-102051426D01*
X174700000Y-102032843D01*
X174511318Y-102051426D01*
X174404194Y-102083921D01*
X174329885Y-102106463D01*
X174329882Y-102106464D01*
X174329880Y-102106465D01*
X174329877Y-102106466D01*
X174162681Y-102195834D01*
X174162674Y-102195838D01*
X174016116Y-102316116D01*
X173895838Y-102462674D01*
X173895834Y-102462681D01*
X173806466Y-102629877D01*
X173806465Y-102629880D01*
X173806464Y-102629882D01*
X173806463Y-102629885D01*
X173786201Y-102696682D01*
X173751426Y-102811318D01*
X173732843Y-103000000D01*
X166794327Y-103000000D01*
X166533864Y-102739537D01*
X166533863Y-102739536D01*
X166533862Y-102739535D01*
X166496750Y-102718108D01*
X166459640Y-102696682D01*
X166418246Y-102685591D01*
X166376853Y-102674500D01*
X166376852Y-102674500D01*
X165531707Y-102674500D01*
X165464668Y-102654815D01*
X165422349Y-102608953D01*
X165344165Y-102462681D01*
X165344161Y-102462674D01*
X165223883Y-102316116D01*
X165077325Y-102195838D01*
X165077318Y-102195834D01*
X164910122Y-102106466D01*
X164910119Y-102106465D01*
X164910118Y-102106464D01*
X164910115Y-102106463D01*
X164728683Y-102051427D01*
X164728681Y-102051426D01*
X164728683Y-102051426D01*
X164540000Y-102032843D01*
X164351318Y-102051426D01*
X164244194Y-102083921D01*
X164169885Y-102106463D01*
X164169882Y-102106464D01*
X164169880Y-102106465D01*
X164169877Y-102106466D01*
X164002681Y-102195834D01*
X164002674Y-102195838D01*
X163856116Y-102316116D01*
X163735838Y-102462674D01*
X163735834Y-102462681D01*
X163646466Y-102629877D01*
X163646465Y-102629880D01*
X163646464Y-102629882D01*
X163646463Y-102629885D01*
X163626201Y-102696682D01*
X163591426Y-102811318D01*
X163572843Y-103000000D01*
X163307500Y-103000000D01*
X163307500Y-97451096D01*
X163850000Y-97451096D01*
X163852897Y-97493824D01*
X163898831Y-97678523D01*
X163983390Y-97849022D01*
X163983392Y-97849025D01*
X164102632Y-97997366D01*
X164102633Y-97997367D01*
X164250974Y-98116607D01*
X164250977Y-98116609D01*
X164427387Y-98204100D01*
X164478700Y-98251521D01*
X164496229Y-98319156D01*
X164474410Y-98385531D01*
X164440689Y-98416670D01*
X164441215Y-98417355D01*
X164434769Y-98422301D01*
X164434767Y-98422302D01*
X164314549Y-98514549D01*
X164231941Y-98622206D01*
X164222300Y-98634770D01*
X164164313Y-98774763D01*
X164164313Y-98774764D01*
X164149500Y-98887272D01*
X164149500Y-99712727D01*
X164162461Y-99811171D01*
X164164313Y-99825236D01*
X164222302Y-99965233D01*
X164314549Y-100085451D01*
X164434767Y-100177698D01*
X164574764Y-100235687D01*
X164580685Y-100236466D01*
X164644579Y-100264730D01*
X164683052Y-100323054D01*
X164688500Y-100359405D01*
X164688500Y-100648699D01*
X164668815Y-100715738D01*
X164639988Y-100747074D01*
X164585720Y-100788715D01*
X164489463Y-100914160D01*
X164428956Y-101060237D01*
X164428955Y-101060239D01*
X164408318Y-101216998D01*
X164408318Y-101217001D01*
X164428955Y-101373760D01*
X164428956Y-101373762D01*
X164487609Y-101515364D01*
X164489464Y-101519841D01*
X164585718Y-101645282D01*
X164711159Y-101741536D01*
X164857238Y-101802044D01*
X164935619Y-101812363D01*
X165013999Y-101822682D01*
X165014000Y-101822682D01*
X165014001Y-101822682D01*
X165066254Y-101815802D01*
X165170762Y-101802044D01*
X165316841Y-101741536D01*
X165442282Y-101645282D01*
X165538536Y-101519841D01*
X165599044Y-101373762D01*
X165619682Y-101217000D01*
X165608246Y-101130138D01*
X165599044Y-101060239D01*
X165599044Y-101060238D01*
X165538536Y-100914159D01*
X165442282Y-100788718D01*
X165442280Y-100788716D01*
X165442279Y-100788715D01*
X165388012Y-100747074D01*
X165346810Y-100690646D01*
X165339500Y-100648699D01*
X165339500Y-100374500D01*
X165359185Y-100307461D01*
X165411989Y-100261706D01*
X165463500Y-100250500D01*
X166012713Y-100250500D01*
X166012720Y-100250500D01*
X166125236Y-100235687D01*
X166265233Y-100177698D01*
X166385451Y-100085451D01*
X166477698Y-99965233D01*
X166509048Y-99889548D01*
X166552888Y-99835144D01*
X166619183Y-99813079D01*
X166623609Y-99813000D01*
X173800501Y-99813000D01*
X173867540Y-99832685D01*
X173913295Y-99885489D01*
X173924501Y-99937000D01*
X173924501Y-100004264D01*
X173927354Y-100034697D01*
X173927354Y-100034698D01*
X173927354Y-100034699D01*
X173972206Y-100162881D01*
X173972207Y-100162882D01*
X174052850Y-100272150D01*
X174162118Y-100352793D01*
X174290302Y-100397646D01*
X174290301Y-100397646D01*
X174294271Y-100398018D01*
X174320735Y-100400500D01*
X175679264Y-100400499D01*
X175709698Y-100397646D01*
X175837882Y-100352793D01*
X175947150Y-100272150D01*
X176027793Y-100162882D01*
X176072646Y-100034698D01*
X176075500Y-100004265D01*
X176075499Y-98970736D01*
X176072646Y-98940302D01*
X176027793Y-98812118D01*
X175947150Y-98702850D01*
X175866506Y-98643332D01*
X175837881Y-98622206D01*
X175709695Y-98577353D01*
X175709698Y-98577353D01*
X175679268Y-98574500D01*
X174320741Y-98574500D01*
X174290301Y-98577354D01*
X174290300Y-98577354D01*
X174162118Y-98622206D01*
X174052850Y-98702850D01*
X173972206Y-98812118D01*
X173927353Y-98940302D01*
X173924500Y-98970731D01*
X173924500Y-99038000D01*
X173904815Y-99105039D01*
X173852011Y-99150794D01*
X173800500Y-99162000D01*
X173080073Y-99162000D01*
X173013034Y-99142315D01*
X172967279Y-99089511D01*
X172957335Y-99020353D01*
X172983972Y-98959638D01*
X172989278Y-98953130D01*
X173083442Y-98772861D01*
X173139390Y-98577328D01*
X173139391Y-98577325D01*
X173149999Y-98458000D01*
X173150000Y-98457998D01*
X173150000Y-97250000D01*
X170150000Y-97250000D01*
X170150000Y-98458000D01*
X170160608Y-98577325D01*
X170160609Y-98577328D01*
X170216557Y-98772861D01*
X170310721Y-98953130D01*
X170316028Y-98959638D01*
X170343138Y-99024034D01*
X170331129Y-99092864D01*
X170283815Y-99144275D01*
X170219927Y-99162000D01*
X166674500Y-99162000D01*
X166607461Y-99142315D01*
X166561706Y-99089511D01*
X166550500Y-99038000D01*
X166550500Y-98887286D01*
X166550499Y-98887272D01*
X166549750Y-98881586D01*
X166535687Y-98774764D01*
X166477698Y-98634767D01*
X166385451Y-98514549D01*
X166265233Y-98422302D01*
X166265230Y-98422301D01*
X166258785Y-98417355D01*
X166259651Y-98416225D01*
X166217490Y-98372007D01*
X166204268Y-98303399D01*
X166230236Y-98238535D01*
X166272612Y-98204100D01*
X166449022Y-98116609D01*
X166449025Y-98116607D01*
X166597366Y-97997367D01*
X166597367Y-97997366D01*
X166716607Y-97849025D01*
X166716609Y-97849022D01*
X166801168Y-97678523D01*
X166847102Y-97493824D01*
X166850000Y-97451096D01*
X166850000Y-97250000D01*
X163850000Y-97250000D01*
X163850000Y-97451096D01*
X163307500Y-97451096D01*
X163307500Y-97253812D01*
X163327185Y-97186773D01*
X163343826Y-97166123D01*
X163484987Y-97024985D01*
X173625000Y-97024985D01*
X173635493Y-97127689D01*
X173635494Y-97127696D01*
X173690641Y-97294118D01*
X173690643Y-97294123D01*
X173782684Y-97443344D01*
X173906655Y-97567315D01*
X174055876Y-97659356D01*
X174055881Y-97659358D01*
X174222303Y-97714505D01*
X174222310Y-97714506D01*
X174325014Y-97724999D01*
X174325027Y-97725000D01*
X174750000Y-97725000D01*
X175250000Y-97725000D01*
X175674973Y-97725000D01*
X175674985Y-97724999D01*
X175777689Y-97714506D01*
X175777696Y-97714505D01*
X175944118Y-97659358D01*
X175944123Y-97659356D01*
X176093344Y-97567315D01*
X176217315Y-97443344D01*
X176309356Y-97294123D01*
X176309358Y-97294118D01*
X176364505Y-97127696D01*
X176364506Y-97127689D01*
X176374999Y-97024985D01*
X176375000Y-97024972D01*
X176375000Y-96762500D01*
X175250000Y-96762500D01*
X175250000Y-97725000D01*
X174750000Y-97725000D01*
X174750000Y-96762500D01*
X173625000Y-96762500D01*
X173625000Y-97024985D01*
X163484987Y-97024985D01*
X163723702Y-96786310D01*
X163785028Y-96752832D01*
X163811376Y-96750000D01*
X166850000Y-96750000D01*
X166850000Y-96548903D01*
X166847102Y-96506175D01*
X166801168Y-96321476D01*
X166716609Y-96150977D01*
X166716607Y-96150974D01*
X166597367Y-96002633D01*
X166597366Y-96002632D01*
X166449025Y-95883392D01*
X166272611Y-95795899D01*
X166221299Y-95748478D01*
X166203770Y-95680843D01*
X166225589Y-95614468D01*
X166259311Y-95583331D01*
X166258785Y-95582645D01*
X166265230Y-95577698D01*
X166265233Y-95577698D01*
X166311757Y-95541999D01*
X170150000Y-95541999D01*
X170150000Y-96750000D01*
X171400000Y-96750000D01*
X171900000Y-96750000D01*
X173150000Y-96750000D01*
X173150000Y-96000014D01*
X173625000Y-96000014D01*
X173625000Y-96262500D01*
X174750000Y-96262500D01*
X175250000Y-96262500D01*
X176375000Y-96262500D01*
X176375000Y-96000027D01*
X176374999Y-96000014D01*
X176364506Y-95897310D01*
X176364505Y-95897303D01*
X176309358Y-95730881D01*
X176309356Y-95730876D01*
X176217315Y-95581655D01*
X176093344Y-95457684D01*
X175944123Y-95365643D01*
X175944118Y-95365641D01*
X175777696Y-95310494D01*
X175777689Y-95310493D01*
X175674985Y-95300000D01*
X175250000Y-95300000D01*
X175250000Y-96262500D01*
X174750000Y-96262500D01*
X174750000Y-95300000D01*
X174325014Y-95300000D01*
X174222310Y-95310493D01*
X174222303Y-95310494D01*
X174055881Y-95365641D01*
X174055876Y-95365643D01*
X173906655Y-95457684D01*
X173782684Y-95581655D01*
X173690643Y-95730876D01*
X173690641Y-95730881D01*
X173635494Y-95897303D01*
X173635493Y-95897310D01*
X173625000Y-96000014D01*
X173150000Y-96000014D01*
X173150000Y-95542002D01*
X173149999Y-95541999D01*
X173139391Y-95422674D01*
X173139390Y-95422671D01*
X173083442Y-95227138D01*
X172989278Y-95046870D01*
X172860753Y-94889246D01*
X172703129Y-94760721D01*
X172522861Y-94666557D01*
X172327328Y-94610609D01*
X172327325Y-94610608D01*
X172208000Y-94600000D01*
X171900000Y-94600000D01*
X171900000Y-96750000D01*
X171400000Y-96750000D01*
X171400000Y-94600000D01*
X171091999Y-94600000D01*
X170972674Y-94610608D01*
X170972671Y-94610609D01*
X170777138Y-94666557D01*
X170596870Y-94760721D01*
X170439246Y-94889246D01*
X170310721Y-95046870D01*
X170216557Y-95227138D01*
X170160609Y-95422671D01*
X170160608Y-95422674D01*
X170150000Y-95541999D01*
X166311757Y-95541999D01*
X166385451Y-95485451D01*
X166477698Y-95365233D01*
X166535687Y-95225236D01*
X166550500Y-95112720D01*
X166550500Y-94287280D01*
X166535687Y-94174764D01*
X166477698Y-94034767D01*
X166385451Y-93914549D01*
X166265233Y-93822302D01*
X166265229Y-93822300D01*
X166180574Y-93787235D01*
X166125236Y-93764313D01*
X166111171Y-93762461D01*
X166012727Y-93749500D01*
X166012720Y-93749500D01*
X164687280Y-93749500D01*
X164687272Y-93749500D01*
X164574764Y-93764313D01*
X164574763Y-93764313D01*
X164434770Y-93822300D01*
X164434767Y-93822301D01*
X164434767Y-93822302D01*
X164314549Y-93914549D01*
X164239147Y-94012815D01*
X164222300Y-94034770D01*
X164164313Y-94174763D01*
X164164313Y-94174764D01*
X164149500Y-94287272D01*
X164149500Y-95112727D01*
X164164313Y-95225235D01*
X164164314Y-95225239D01*
X164191173Y-95290083D01*
X164198642Y-95359552D01*
X164167366Y-95422031D01*
X164164286Y-95425224D01*
X162786487Y-96802790D01*
X162786436Y-96802836D01*
X162769591Y-96819682D01*
X162752737Y-96836536D01*
X162721552Y-96867716D01*
X162721541Y-96867727D01*
X162699380Y-96906110D01*
X162699377Y-96906115D01*
X162678685Y-96941947D01*
X162668488Y-96980007D01*
X162668485Y-96980018D01*
X162656503Y-97024716D01*
X162656500Y-97024739D01*
X162656500Y-97061461D01*
X162656495Y-97119023D01*
X162656500Y-97119094D01*
X162656500Y-108212852D01*
X162678682Y-108295640D01*
X162688709Y-108313007D01*
X162721535Y-108369862D01*
X163821574Y-109469901D01*
X164891674Y-110540000D01*
X164925159Y-110601323D01*
X164927451Y-110639257D01*
X164924500Y-110670729D01*
X164924500Y-111704258D01*
X164927354Y-111734698D01*
X164927354Y-111734699D01*
X164972206Y-111862881D01*
X164972207Y-111862882D01*
X165052850Y-111972150D01*
X165162118Y-112052793D01*
X165290302Y-112097646D01*
X165290301Y-112097646D01*
X165294867Y-112098074D01*
X165320735Y-112100500D01*
X165450500Y-112100499D01*
X165517539Y-112120183D01*
X165563294Y-112172987D01*
X165574500Y-112224499D01*
X165574500Y-116075500D01*
X165554815Y-116142539D01*
X165502011Y-116188294D01*
X165450501Y-116199500D01*
X165220742Y-116199500D01*
X165190301Y-116202354D01*
X165190300Y-116202354D01*
X165062118Y-116247206D01*
X164952850Y-116327850D01*
X164872206Y-116437118D01*
X164827353Y-116565302D01*
X164824500Y-116595731D01*
X164824500Y-117629258D01*
X164827354Y-117659698D01*
X164827354Y-117659699D01*
X164872206Y-117787881D01*
X164872207Y-117787882D01*
X164952850Y-117897150D01*
X165062118Y-117977793D01*
X165190302Y-118022646D01*
X165190301Y-118022646D01*
X165194271Y-118023018D01*
X165220735Y-118025500D01*
X166301310Y-118025499D01*
X166368349Y-118045184D01*
X166388991Y-118061818D01*
X166715694Y-118388520D01*
X166715704Y-118388531D01*
X166720034Y-118392861D01*
X166720035Y-118392862D01*
X166780638Y-118453465D01*
X166780640Y-118453466D01*
X166784477Y-118457303D01*
X166788534Y-118460861D01*
X168553805Y-120226132D01*
X170298181Y-121970507D01*
X170331666Y-122031830D01*
X170334500Y-122058188D01*
X170334500Y-125303456D01*
X170314815Y-125370495D01*
X170298181Y-125391137D01*
X170220803Y-125468514D01*
X170169426Y-125573608D01*
X170159500Y-125641739D01*
X170159500Y-126927811D01*
X170139815Y-126994850D01*
X170123181Y-127015492D01*
X170102181Y-127036492D01*
X170040858Y-127069977D01*
X169971166Y-127064993D01*
X169915233Y-127023121D01*
X169890816Y-126957657D01*
X169890500Y-126948811D01*
X169890500Y-125641739D01*
X169880573Y-125573608D01*
X169880573Y-125573607D01*
X169829198Y-125468517D01*
X169829196Y-125468515D01*
X169829196Y-125468514D01*
X169746485Y-125385803D01*
X169641391Y-125334426D01*
X169573261Y-125324500D01*
X169573260Y-125324500D01*
X169206740Y-125324500D01*
X169206739Y-125324500D01*
X169138608Y-125334426D01*
X169033514Y-125385803D01*
X168950803Y-125468514D01*
X168899426Y-125573608D01*
X168889500Y-125641739D01*
X168889500Y-126050500D01*
X168869815Y-126117539D01*
X168817011Y-126163294D01*
X168765500Y-126174500D01*
X167099499Y-126174500D01*
X167032460Y-126154815D01*
X166986705Y-126102011D01*
X166975499Y-126050500D01*
X166975499Y-125895741D01*
X166975499Y-125895736D01*
X166972646Y-125865302D01*
X166927793Y-125737118D01*
X166847150Y-125627850D01*
X166737882Y-125547207D01*
X166737881Y-125547206D01*
X166609695Y-125502353D01*
X166609698Y-125502353D01*
X166579269Y-125499500D01*
X166579265Y-125499500D01*
X166349500Y-125499500D01*
X166282461Y-125479815D01*
X166236706Y-125427011D01*
X166225500Y-125375500D01*
X166225500Y-121124499D01*
X166245185Y-121057460D01*
X166297989Y-121011705D01*
X166349500Y-121000499D01*
X166579258Y-121000499D01*
X166579264Y-121000499D01*
X166609698Y-120997646D01*
X166737882Y-120952793D01*
X166847150Y-120872150D01*
X166927793Y-120762882D01*
X166972646Y-120634698D01*
X166975500Y-120604265D01*
X166975499Y-119570736D01*
X166972646Y-119540302D01*
X166927793Y-119412118D01*
X166847150Y-119302850D01*
X166765625Y-119242682D01*
X166737881Y-119222206D01*
X166609695Y-119177353D01*
X166609698Y-119177353D01*
X166579269Y-119174500D01*
X166579265Y-119174500D01*
X165498458Y-119174500D01*
X165431419Y-119154815D01*
X165410766Y-119138171D01*
X162415808Y-116142511D01*
X162382331Y-116081184D01*
X162379500Y-116054840D01*
X162379500Y-101381497D01*
X162379504Y-101381426D01*
X162379503Y-101372829D01*
X162379504Y-101372828D01*
X162379500Y-101321186D01*
X162379500Y-101287147D01*
X162379500Y-101287135D01*
X162379499Y-101287132D01*
X162368115Y-101244659D01*
X162357521Y-101205120D01*
X162357330Y-101204385D01*
X162357318Y-101204355D01*
X162336351Y-101168045D01*
X162336352Y-101168044D01*
X162336344Y-101168035D01*
X162314886Y-101130867D01*
X162314490Y-101130168D01*
X162314463Y-101130133D01*
X162314451Y-101130121D01*
X162314450Y-101130119D01*
X162287851Y-101103524D01*
X162287850Y-101103523D01*
X162287850Y-101103522D01*
X162287844Y-101103517D01*
X162247496Y-101063169D01*
X162247444Y-101063124D01*
X157945862Y-96762188D01*
X157912373Y-96700867D01*
X157917352Y-96631175D01*
X157959219Y-96575238D01*
X158024682Y-96550817D01*
X158033537Y-96550500D01*
X158169750Y-96550500D01*
X158169751Y-96550499D01*
X158184568Y-96547552D01*
X158228229Y-96538868D01*
X158228229Y-96538867D01*
X158228231Y-96538867D01*
X158294552Y-96494552D01*
X158338867Y-96428231D01*
X158338867Y-96428229D01*
X158338868Y-96428229D01*
X158347552Y-96384568D01*
X158350500Y-96369748D01*
X158350500Y-95600000D01*
X158934659Y-95600000D01*
X158953975Y-95796129D01*
X159011188Y-95984733D01*
X159104086Y-96158532D01*
X159104090Y-96158539D01*
X159229116Y-96310883D01*
X159381460Y-96435909D01*
X159381467Y-96435913D01*
X159555266Y-96528811D01*
X159555269Y-96528811D01*
X159555273Y-96528814D01*
X159743868Y-96586024D01*
X159940000Y-96605341D01*
X160136132Y-96586024D01*
X160324727Y-96528814D01*
X160379572Y-96499499D01*
X160484611Y-96443354D01*
X160498538Y-96435910D01*
X160650883Y-96310883D01*
X160775910Y-96158538D01*
X160835141Y-96047724D01*
X160868811Y-95984733D01*
X160868811Y-95984732D01*
X160868814Y-95984727D01*
X160926024Y-95796132D01*
X160945341Y-95600000D01*
X160926024Y-95403868D01*
X160868814Y-95215273D01*
X160868811Y-95215269D01*
X160868811Y-95215266D01*
X160775913Y-95041467D01*
X160775909Y-95041460D01*
X160650883Y-94889116D01*
X160498539Y-94764090D01*
X160498532Y-94764086D01*
X160324733Y-94671188D01*
X160324727Y-94671186D01*
X160136132Y-94613976D01*
X160136129Y-94613975D01*
X159940000Y-94594659D01*
X159743870Y-94613975D01*
X159555266Y-94671188D01*
X159381467Y-94764086D01*
X159381460Y-94764090D01*
X159229116Y-94889116D01*
X159104090Y-95041460D01*
X159104086Y-95041467D01*
X159011188Y-95215266D01*
X158953975Y-95403870D01*
X158934659Y-95600000D01*
X158350500Y-95600000D01*
X158350500Y-94830252D01*
X158350500Y-94830249D01*
X158350499Y-94830247D01*
X158338868Y-94771770D01*
X158338867Y-94771769D01*
X158294552Y-94705447D01*
X158228230Y-94661132D01*
X158228229Y-94661131D01*
X158169752Y-94649500D01*
X158169748Y-94649500D01*
X156763500Y-94649500D01*
X156696461Y-94629815D01*
X156650706Y-94577011D01*
X156639500Y-94525500D01*
X156639500Y-90835497D01*
X156639500Y-90823598D01*
X156639502Y-90783857D01*
X156639500Y-90783849D01*
X156639500Y-90783847D01*
X156623866Y-90725500D01*
X156623087Y-90722594D01*
X156621206Y-90715572D01*
X156618345Y-90704892D01*
X156617439Y-90701019D01*
X156617434Y-90701007D01*
X156615339Y-90697633D01*
X156592208Y-90657570D01*
X156592206Y-90657565D01*
X156592206Y-90657566D01*
X156576312Y-90630035D01*
X156574834Y-90627288D01*
X156574599Y-90626972D01*
X156541225Y-90593598D01*
X156541223Y-90593595D01*
X156541223Y-90593596D01*
X154697724Y-88749986D01*
X158337501Y-88749986D01*
X158347994Y-88852697D01*
X158403141Y-89019119D01*
X158403143Y-89019124D01*
X158495184Y-89168345D01*
X158619154Y-89292315D01*
X158768375Y-89384356D01*
X158768380Y-89384358D01*
X158934802Y-89439505D01*
X158934809Y-89439506D01*
X159037519Y-89449999D01*
X159249999Y-89449999D01*
X159250000Y-89449998D01*
X159250000Y-88300000D01*
X158337501Y-88300000D01*
X158337501Y-88749986D01*
X154697724Y-88749986D01*
X154108275Y-88160502D01*
X154074792Y-88099177D01*
X154072501Y-88061244D01*
X154072646Y-88059698D01*
X154075500Y-88029265D01*
X154075499Y-86995736D01*
X154072646Y-86965302D01*
X154027793Y-86837118D01*
X153947150Y-86727850D01*
X153863865Y-86666383D01*
X153821616Y-86610737D01*
X153813500Y-86566614D01*
X153813500Y-86199499D01*
X153833185Y-86132460D01*
X153885989Y-86086705D01*
X153937500Y-86075499D01*
X154004258Y-86075499D01*
X154004264Y-86075499D01*
X154034698Y-86072646D01*
X154162882Y-86027793D01*
X154272150Y-85947150D01*
X154352793Y-85837882D01*
X154397646Y-85709698D01*
X154400500Y-85679265D01*
X154400499Y-84320736D01*
X154397646Y-84290302D01*
X154352793Y-84162118D01*
X154272150Y-84052850D01*
X154175673Y-83981647D01*
X154162881Y-83972206D01*
X154034695Y-83927353D01*
X154034698Y-83927353D01*
X154004269Y-83924500D01*
X154004265Y-83924500D01*
X153449500Y-83924500D01*
X153382461Y-83904815D01*
X153336706Y-83852011D01*
X153325500Y-83800500D01*
X153325500Y-83524499D01*
X153345185Y-83457460D01*
X153397989Y-83411705D01*
X153449500Y-83400499D01*
X153679258Y-83400499D01*
X153679264Y-83400499D01*
X153709698Y-83397646D01*
X153837882Y-83352793D01*
X153947150Y-83272150D01*
X154027793Y-83162882D01*
X154072646Y-83034698D01*
X154075500Y-83004265D01*
X154075499Y-81970736D01*
X154072646Y-81940302D01*
X154027793Y-81812118D01*
X153947150Y-81702850D01*
X153900080Y-81668111D01*
X153857831Y-81612464D01*
X153852374Y-81542807D01*
X153885441Y-81481258D01*
X153885889Y-81480806D01*
X155257009Y-80109417D01*
X155285688Y-80080738D01*
X155287455Y-80079046D01*
X155287468Y-80079029D01*
X155288421Y-80077313D01*
X155309448Y-80040884D01*
X155329555Y-80006059D01*
X155330311Y-80004791D01*
X155330319Y-80004771D01*
X155330495Y-80004089D01*
X155342348Y-79959839D01*
X155342349Y-79959837D01*
X155342350Y-79959837D01*
X155342350Y-79959829D01*
X155352500Y-79921953D01*
X155352500Y-79921952D01*
X155352502Y-79921945D01*
X155352505Y-79921922D01*
X155352500Y-79874306D01*
X155352500Y-75699986D01*
X158275001Y-75699986D01*
X158285494Y-75802697D01*
X158340641Y-75969119D01*
X158340643Y-75969124D01*
X158432684Y-76118345D01*
X158556654Y-76242315D01*
X158705875Y-76334356D01*
X158705880Y-76334358D01*
X158872302Y-76389505D01*
X158872309Y-76389506D01*
X158975019Y-76399999D01*
X159187499Y-76399999D01*
X159687500Y-76399999D01*
X159899972Y-76399999D01*
X159899986Y-76399998D01*
X160002697Y-76389505D01*
X160169119Y-76334358D01*
X160169124Y-76334356D01*
X160318345Y-76242315D01*
X160442315Y-76118345D01*
X160534356Y-75969124D01*
X160534358Y-75969119D01*
X160589505Y-75802697D01*
X160589506Y-75802690D01*
X160599999Y-75699986D01*
X160600000Y-75699973D01*
X160600000Y-75250000D01*
X159687500Y-75250000D01*
X159687500Y-76399999D01*
X159187499Y-76399999D01*
X159187500Y-76399998D01*
X159187500Y-75250000D01*
X158275001Y-75250000D01*
X158275001Y-75699986D01*
X155352500Y-75699986D01*
X155352500Y-75434240D01*
X156446711Y-75434240D01*
X156534985Y-75488897D01*
X156725078Y-75562539D01*
X156925472Y-75600000D01*
X157129328Y-75600000D01*
X157329722Y-75562539D01*
X157519812Y-75488899D01*
X157519816Y-75488897D01*
X157608086Y-75434241D01*
X157608086Y-75434240D01*
X157027401Y-74853553D01*
X157027400Y-74853553D01*
X156446711Y-75434240D01*
X155352500Y-75434240D01*
X155352500Y-75424500D01*
X155372185Y-75357461D01*
X155424989Y-75311706D01*
X155476500Y-75300500D01*
X155647150Y-75300500D01*
X155647151Y-75300499D01*
X155661968Y-75297552D01*
X155705629Y-75288868D01*
X155705629Y-75288867D01*
X155705631Y-75288867D01*
X155771952Y-75244552D01*
X155816267Y-75178231D01*
X155816267Y-75178229D01*
X155816268Y-75178229D01*
X155827899Y-75119752D01*
X155827900Y-75119750D01*
X155827900Y-75086111D01*
X155847585Y-75019072D01*
X155900389Y-74973317D01*
X155969547Y-74963373D01*
X156033103Y-74992398D01*
X156062901Y-75030840D01*
X156088152Y-75081553D01*
X156089933Y-75083911D01*
X156732545Y-74441298D01*
X156727400Y-74460504D01*
X156727400Y-74539496D01*
X156747844Y-74615796D01*
X156787340Y-74684205D01*
X156843195Y-74740060D01*
X156911604Y-74779556D01*
X156987904Y-74800000D01*
X157066896Y-74800000D01*
X157143196Y-74779556D01*
X157211605Y-74740060D01*
X157267460Y-74684205D01*
X157306956Y-74615796D01*
X157327400Y-74539496D01*
X157327400Y-74460504D01*
X157322254Y-74441301D01*
X157964865Y-75083912D01*
X157966647Y-75081553D01*
X157966648Y-75081551D01*
X158057513Y-74899070D01*
X158080961Y-74816657D01*
X158118240Y-74757563D01*
X158181549Y-74728005D01*
X158250789Y-74737366D01*
X158269149Y-74750000D01*
X160599999Y-74750000D01*
X160599999Y-74300028D01*
X160599998Y-74300013D01*
X160589505Y-74197302D01*
X160543048Y-74057104D01*
X160540646Y-73987276D01*
X160576378Y-73927234D01*
X160638898Y-73896041D01*
X160660754Y-73894100D01*
X161680932Y-73894100D01*
X161747971Y-73913785D01*
X161793726Y-73966589D01*
X161803670Y-74035747D01*
X161780702Y-74091733D01*
X161747209Y-74137113D01*
X161747206Y-74137119D01*
X161702353Y-74265298D01*
X161702353Y-74265300D01*
X161699500Y-74295730D01*
X161699500Y-75704269D01*
X161702353Y-75734699D01*
X161702353Y-75734701D01*
X161747206Y-75862880D01*
X161747207Y-75862882D01*
X161827850Y-75972150D01*
X161937118Y-76052793D01*
X161966454Y-76063058D01*
X162065299Y-76097646D01*
X162095730Y-76100500D01*
X162095734Y-76100500D01*
X162112500Y-76100500D01*
X162179539Y-76120185D01*
X162225294Y-76172989D01*
X162236500Y-76224500D01*
X162236500Y-76779244D01*
X162216815Y-76846283D01*
X162164011Y-76892038D01*
X162134963Y-76899797D01*
X162135170Y-76900744D01*
X162127798Y-76902353D01*
X161999619Y-76947206D01*
X161999617Y-76947207D01*
X161890350Y-77027850D01*
X161809707Y-77137117D01*
X161809706Y-77137119D01*
X161764853Y-77265298D01*
X161764853Y-77265300D01*
X161762000Y-77295730D01*
X161762000Y-78288450D01*
X161742315Y-78355489D01*
X161725691Y-78376121D01*
X161254909Y-78847010D01*
X161193590Y-78880502D01*
X161123898Y-78875526D01*
X161091735Y-78857717D01*
X160988841Y-78778764D01*
X160922445Y-78751262D01*
X160842762Y-78718256D01*
X160842760Y-78718255D01*
X160686001Y-78697618D01*
X160685999Y-78697618D01*
X160529239Y-78718255D01*
X160521387Y-78720360D01*
X160520642Y-78717582D01*
X160464974Y-78723563D01*
X160402497Y-78692283D01*
X160366849Y-78632192D01*
X160363000Y-78601535D01*
X160363000Y-77295730D01*
X160360146Y-77265300D01*
X160360146Y-77265298D01*
X160315293Y-77137119D01*
X160315292Y-77137117D01*
X160234650Y-77027850D01*
X160125382Y-76947207D01*
X160125380Y-76947206D01*
X159997200Y-76902353D01*
X159966770Y-76899500D01*
X159966766Y-76899500D01*
X159033234Y-76899500D01*
X159033230Y-76899500D01*
X159002800Y-76902353D01*
X159002798Y-76902353D01*
X158874619Y-76947206D01*
X158874617Y-76947207D01*
X158765350Y-77027850D01*
X158684707Y-77137117D01*
X158684706Y-77137119D01*
X158639853Y-77265298D01*
X158639853Y-77265300D01*
X158637000Y-77295730D01*
X158637000Y-78704269D01*
X158639853Y-78734699D01*
X158639853Y-78734701D01*
X158680132Y-78849808D01*
X158684707Y-78862882D01*
X158765350Y-78972150D01*
X158874618Y-79052793D01*
X158914242Y-79066658D01*
X159002799Y-79097646D01*
X159033230Y-79100500D01*
X159033234Y-79100500D01*
X159050500Y-79100500D01*
X159117539Y-79120185D01*
X159163294Y-79172989D01*
X159174500Y-79224500D01*
X159174500Y-79413312D01*
X159174489Y-79413482D01*
X159174500Y-79466784D01*
X159174500Y-79507087D01*
X159174507Y-79507116D01*
X159174508Y-79507118D01*
X159185830Y-79549336D01*
X159185833Y-79549363D01*
X159185837Y-79549363D01*
X159196686Y-79589854D01*
X159196697Y-79589881D01*
X159196706Y-79589897D01*
X159196707Y-79589899D01*
X159218384Y-79627428D01*
X159218389Y-79627448D01*
X159218394Y-79627446D01*
X159239538Y-79664067D01*
X159239573Y-79664113D01*
X159269649Y-79694177D01*
X159269666Y-79694193D01*
X159305903Y-79730430D01*
X159306017Y-79730530D01*
X159307068Y-79731580D01*
X159313787Y-79738297D01*
X159347287Y-79799611D01*
X159342321Y-79869304D01*
X159300464Y-79925248D01*
X159235006Y-79949682D01*
X159226129Y-79950000D01*
X159037529Y-79950000D01*
X159037512Y-79950001D01*
X158934802Y-79960494D01*
X158768380Y-80015641D01*
X158768375Y-80015643D01*
X158619154Y-80107684D01*
X158495184Y-80231654D01*
X158403143Y-80380875D01*
X158403141Y-80380880D01*
X158347994Y-80547302D01*
X158347993Y-80547309D01*
X158337500Y-80650013D01*
X158337500Y-81100000D01*
X159626000Y-81100000D01*
X159693039Y-81119685D01*
X159738794Y-81172489D01*
X159750000Y-81224000D01*
X159750000Y-81476000D01*
X159730315Y-81543039D01*
X159677511Y-81588794D01*
X159626000Y-81600000D01*
X158337501Y-81600000D01*
X158337501Y-82049986D01*
X158347994Y-82152697D01*
X158403141Y-82319119D01*
X158403143Y-82319124D01*
X158495184Y-82468345D01*
X158619154Y-82592315D01*
X158768375Y-82684356D01*
X158768380Y-82684358D01*
X158836633Y-82706975D01*
X158894078Y-82746748D01*
X158920901Y-82811263D01*
X158908586Y-82880039D01*
X158885310Y-82912362D01*
X158242537Y-83555135D01*
X158242535Y-83555138D01*
X158199680Y-83629363D01*
X158181984Y-83695413D01*
X158181983Y-83695418D01*
X158177500Y-83712146D01*
X158177500Y-85928478D01*
X158177467Y-85928982D01*
X158177484Y-85956308D01*
X158168046Y-86003835D01*
X158147956Y-86052337D01*
X158147955Y-86052339D01*
X158127318Y-86209098D01*
X158127318Y-86209101D01*
X158147955Y-86365860D01*
X158147956Y-86365862D01*
X158202763Y-86498179D01*
X158208464Y-86511941D01*
X158304718Y-86637382D01*
X158430159Y-86733636D01*
X158445516Y-86739997D01*
X158499919Y-86783836D01*
X158521985Y-86850130D01*
X158504707Y-86917830D01*
X158495338Y-86931460D01*
X158495185Y-86931653D01*
X158403143Y-87080875D01*
X158403141Y-87080880D01*
X158347994Y-87247302D01*
X158347993Y-87247309D01*
X158337500Y-87350013D01*
X158337500Y-87800000D01*
X159250000Y-87800000D01*
X159250000Y-86632361D01*
X159237731Y-86609893D01*
X159242715Y-86540201D01*
X159254230Y-86519418D01*
X159253472Y-86518981D01*
X159257534Y-86511943D01*
X159257536Y-86511941D01*
X159318044Y-86365862D01*
X159338682Y-86209100D01*
X159318044Y-86052338D01*
X159284746Y-85971951D01*
X159277278Y-85902484D01*
X159308553Y-85840004D01*
X159368642Y-85804352D01*
X159399308Y-85800500D01*
X159966770Y-85800500D01*
X159997189Y-85797647D01*
X159997189Y-85797646D01*
X159997199Y-85797646D01*
X160012546Y-85792275D01*
X160082319Y-85788711D01*
X160142948Y-85823438D01*
X160175178Y-85885430D01*
X160177500Y-85909316D01*
X160177500Y-86534653D01*
X160157815Y-86601692D01*
X160105011Y-86647447D01*
X160040898Y-86658011D01*
X159962488Y-86650000D01*
X159750000Y-86650000D01*
X159750000Y-89449999D01*
X159962472Y-89449999D01*
X159962486Y-89449998D01*
X160040898Y-89441988D01*
X160109591Y-89454758D01*
X160160475Y-89502638D01*
X160177500Y-89565346D01*
X160177500Y-90190681D01*
X160157815Y-90257720D01*
X160105011Y-90303475D01*
X160035853Y-90313419D01*
X160012550Y-90307724D01*
X159997201Y-90302354D01*
X159997199Y-90302353D01*
X159966770Y-90299500D01*
X159966766Y-90299500D01*
X159033234Y-90299500D01*
X159033230Y-90299500D01*
X159002800Y-90302353D01*
X159002798Y-90302353D01*
X158874619Y-90347206D01*
X158874617Y-90347207D01*
X158765350Y-90427850D01*
X158684707Y-90537117D01*
X158684706Y-90537119D01*
X158639853Y-90665298D01*
X158639853Y-90665300D01*
X158637000Y-90695730D01*
X158637000Y-92104269D01*
X158639853Y-92134699D01*
X158639853Y-92134701D01*
X158684706Y-92262880D01*
X158684707Y-92262882D01*
X158765350Y-92372150D01*
X158874618Y-92452793D01*
X158917345Y-92467744D01*
X159002799Y-92497646D01*
X159033230Y-92500500D01*
X159033234Y-92500500D01*
X159966770Y-92500500D01*
X159997199Y-92497646D01*
X159997201Y-92497646D01*
X160061290Y-92475219D01*
X160125382Y-92452793D01*
X160234650Y-92372150D01*
X160315293Y-92262882D01*
X160337719Y-92198790D01*
X160360146Y-92134701D01*
X160360146Y-92134699D01*
X160363000Y-92104269D01*
X160363000Y-91048755D01*
X160382685Y-90981716D01*
X160399316Y-90961076D01*
X160695790Y-90664631D01*
X160695819Y-90664607D01*
X160702860Y-90657566D01*
X160702862Y-90657565D01*
X160733589Y-90626838D01*
X160759523Y-90600906D01*
X160763301Y-90597456D01*
X160763369Y-90597369D01*
X160765285Y-90593809D01*
X160786046Y-90557849D01*
X160802609Y-90529163D01*
X160805027Y-90525501D01*
X160806372Y-90522969D01*
X160807555Y-90519049D01*
X160807745Y-90518483D01*
X160808518Y-90514529D01*
X160821203Y-90467190D01*
X160821203Y-90467188D01*
X160824785Y-90453821D01*
X160828295Y-90440725D01*
X160828494Y-90440005D01*
X160828500Y-90439966D01*
X160828500Y-90397117D01*
X160828500Y-90397115D01*
X160828502Y-90354264D01*
X160828500Y-90354259D01*
X160828501Y-90346681D01*
X160828500Y-90346647D01*
X160828500Y-86995361D01*
X160848185Y-86928322D01*
X160900989Y-86882567D01*
X160970147Y-86872623D01*
X161033703Y-86901648D01*
X161059897Y-86933379D01*
X161075507Y-86960427D01*
X161075534Y-86960461D01*
X161107698Y-86992625D01*
X161107708Y-86992644D01*
X161107713Y-86992640D01*
X161725695Y-87610814D01*
X161759170Y-87672142D01*
X161762000Y-87698481D01*
X161762000Y-88754269D01*
X161764853Y-88784699D01*
X161764853Y-88784701D01*
X161809706Y-88912880D01*
X161809707Y-88912882D01*
X161890350Y-89022150D01*
X161999618Y-89102793D01*
X162042345Y-89117744D01*
X162127799Y-89147646D01*
X162158230Y-89150500D01*
X162158234Y-89150500D01*
X162175500Y-89150500D01*
X162242539Y-89170185D01*
X162288294Y-89222989D01*
X162299500Y-89274500D01*
X162299500Y-90175500D01*
X162279815Y-90242539D01*
X162227011Y-90288294D01*
X162175500Y-90299500D01*
X162158230Y-90299500D01*
X162127800Y-90302353D01*
X162127798Y-90302353D01*
X161999619Y-90347206D01*
X161999617Y-90347207D01*
X161890350Y-90427850D01*
X161809707Y-90537117D01*
X161809706Y-90537119D01*
X161764853Y-90665298D01*
X161764853Y-90665300D01*
X161762000Y-90695730D01*
X161762000Y-92104269D01*
X161764853Y-92134699D01*
X161764853Y-92134701D01*
X161809706Y-92262880D01*
X161809707Y-92262882D01*
X161890350Y-92372150D01*
X161999618Y-92452793D01*
X162042345Y-92467744D01*
X162127799Y-92497646D01*
X162158230Y-92500500D01*
X162158234Y-92500500D01*
X163091770Y-92500500D01*
X163122199Y-92497646D01*
X163122201Y-92497646D01*
X163186290Y-92475219D01*
X163250382Y-92452793D01*
X163359650Y-92372150D01*
X163440293Y-92262882D01*
X163462719Y-92198790D01*
X163485146Y-92134701D01*
X163485146Y-92134699D01*
X163488000Y-92104269D01*
X163488000Y-90695730D01*
X163485146Y-90665300D01*
X163485146Y-90665298D01*
X163451506Y-90569163D01*
X163440293Y-90537118D01*
X163359650Y-90427850D01*
X163250382Y-90347207D01*
X163250380Y-90347206D01*
X163122200Y-90302353D01*
X163091770Y-90299500D01*
X163091766Y-90299500D01*
X163074500Y-90299500D01*
X163007461Y-90279815D01*
X162961706Y-90227011D01*
X162950500Y-90175500D01*
X162950500Y-89274500D01*
X162970185Y-89207461D01*
X163022989Y-89161706D01*
X163074500Y-89150500D01*
X163091770Y-89150500D01*
X163122199Y-89147646D01*
X163122201Y-89147646D01*
X163186290Y-89125219D01*
X163250382Y-89102793D01*
X163359650Y-89022150D01*
X163440293Y-88912882D01*
X163462719Y-88848790D01*
X163485146Y-88784701D01*
X163485146Y-88784699D01*
X163488000Y-88754269D01*
X163488000Y-87345730D01*
X163485146Y-87315300D01*
X163485146Y-87315298D01*
X163451506Y-87219163D01*
X163440293Y-87187118D01*
X163359650Y-87077850D01*
X163250382Y-86997207D01*
X163250380Y-86997206D01*
X163122200Y-86952353D01*
X163091770Y-86949500D01*
X163091766Y-86949500D01*
X162158234Y-86949500D01*
X162158230Y-86949500D01*
X162127800Y-86952353D01*
X162127796Y-86952354D01*
X162097743Y-86962870D01*
X162027964Y-86966431D01*
X161969096Y-86933495D01*
X161945483Y-86909875D01*
X161819293Y-86783645D01*
X161697805Y-86662118D01*
X161664330Y-86600790D01*
X161661500Y-86574451D01*
X161661500Y-86491998D01*
X165544318Y-86491998D01*
X165544318Y-86492001D01*
X165564955Y-86648760D01*
X165564956Y-86648762D01*
X165620905Y-86783836D01*
X165625464Y-86794841D01*
X165721718Y-86920282D01*
X165775987Y-86961924D01*
X165817189Y-87018349D01*
X165824500Y-87060298D01*
X165824500Y-88231715D01*
X165824494Y-88279328D01*
X165824496Y-88279343D01*
X165824503Y-88279366D01*
X165834999Y-88318538D01*
X165835000Y-88318550D01*
X165835002Y-88318550D01*
X165846672Y-88362123D01*
X165867523Y-88398237D01*
X165867521Y-88398237D01*
X165867530Y-88398248D01*
X165889515Y-88436337D01*
X165889532Y-88436359D01*
X165919125Y-88465952D01*
X165919132Y-88465964D01*
X165919135Y-88465962D01*
X168156409Y-90703726D01*
X168156474Y-90703802D01*
X168195805Y-90743132D01*
X168195812Y-90743145D01*
X168195815Y-90743143D01*
X168223105Y-90770439D01*
X168223142Y-90770468D01*
X168241069Y-90780817D01*
X168260865Y-90792246D01*
X168260875Y-90792256D01*
X168260877Y-90792254D01*
X168295602Y-90812307D01*
X168297380Y-90813375D01*
X168297390Y-90813379D01*
X168299748Y-90813957D01*
X168335736Y-90823599D01*
X168335745Y-90823605D01*
X168335746Y-90823603D01*
X168380103Y-90835494D01*
X168380104Y-90835494D01*
X168380111Y-90835496D01*
X168380118Y-90835496D01*
X168380146Y-90835499D01*
X168380147Y-90835500D01*
X168380148Y-90835500D01*
X168418203Y-90835500D01*
X168425502Y-90835500D01*
X168492539Y-90855185D01*
X168538294Y-90907989D01*
X168549500Y-90959500D01*
X168549500Y-92279752D01*
X168561131Y-92338229D01*
X168561132Y-92338230D01*
X168605447Y-92404552D01*
X168671769Y-92448867D01*
X168671770Y-92448868D01*
X168730247Y-92460499D01*
X168730250Y-92460500D01*
X168730252Y-92460500D01*
X172269750Y-92460500D01*
X172269751Y-92460499D01*
X172284568Y-92457552D01*
X172328229Y-92448868D01*
X172328229Y-92448867D01*
X172328231Y-92448867D01*
X172394552Y-92404552D01*
X172438867Y-92338231D01*
X172438867Y-92338229D01*
X172438868Y-92338229D01*
X172450499Y-92279752D01*
X172450500Y-92279750D01*
X172450500Y-88740249D01*
X172450499Y-88740247D01*
X172438868Y-88681770D01*
X172438867Y-88681769D01*
X172394552Y-88615447D01*
X172328230Y-88571132D01*
X172328229Y-88571131D01*
X172269752Y-88559500D01*
X172269748Y-88559500D01*
X168730252Y-88559500D01*
X168730247Y-88559500D01*
X168671770Y-88571131D01*
X168671769Y-88571132D01*
X168605447Y-88615447D01*
X168561132Y-88681769D01*
X168561131Y-88681770D01*
X168549500Y-88740247D01*
X168549500Y-89876740D01*
X168529815Y-89943779D01*
X168477011Y-89989534D01*
X168407853Y-89999478D01*
X168344297Y-89970453D01*
X168337809Y-89964412D01*
X166511809Y-88138010D01*
X166478331Y-88076683D01*
X166475500Y-88050338D01*
X166475500Y-87060298D01*
X166495185Y-86993259D01*
X166524010Y-86961925D01*
X166578282Y-86920282D01*
X166674536Y-86794841D01*
X166735044Y-86648762D01*
X166752130Y-86518981D01*
X166755682Y-86492001D01*
X166755682Y-86491998D01*
X166735044Y-86335239D01*
X166735044Y-86335238D01*
X166674536Y-86189159D01*
X166578282Y-86063718D01*
X166578280Y-86063716D01*
X166578279Y-86063715D01*
X166524012Y-86022074D01*
X166482810Y-85965646D01*
X166475500Y-85923699D01*
X166475500Y-85611008D01*
X167497544Y-85611008D01*
X167497544Y-85611010D01*
X167785234Y-85849904D01*
X167785243Y-85849911D01*
X168128525Y-86085064D01*
X168128532Y-86085068D01*
X168492025Y-86287532D01*
X168492053Y-86287546D01*
X168872662Y-86455601D01*
X168872669Y-86455604D01*
X169267203Y-86587839D01*
X169672238Y-86683102D01*
X169672246Y-86683104D01*
X170084339Y-86740588D01*
X170500000Y-86759806D01*
X170915660Y-86740588D01*
X171327753Y-86683104D01*
X171327761Y-86683102D01*
X171732796Y-86587839D01*
X172127330Y-86455604D01*
X172127337Y-86455601D01*
X172507946Y-86287546D01*
X172507974Y-86287532D01*
X172871467Y-86085068D01*
X172871474Y-86085064D01*
X173214756Y-85849911D01*
X173214765Y-85849904D01*
X173502454Y-85611010D01*
X173502454Y-85611008D01*
X172601951Y-84710505D01*
X172568466Y-84649182D01*
X172573450Y-84579490D01*
X172615322Y-84523557D01*
X172665441Y-84501207D01*
X172726070Y-84489146D01*
X172804328Y-84473580D01*
X172917150Y-84426847D01*
X172986616Y-84419379D01*
X173049095Y-84450654D01*
X173052281Y-84453728D01*
X173856008Y-85257454D01*
X173856010Y-85257454D01*
X174094904Y-84969765D01*
X174094911Y-84969756D01*
X174330064Y-84626474D01*
X174330068Y-84626467D01*
X174532532Y-84262974D01*
X174532546Y-84262946D01*
X174700601Y-83882337D01*
X174700604Y-83882330D01*
X174832839Y-83487796D01*
X174928102Y-83082761D01*
X174928104Y-83082753D01*
X174985588Y-82670660D01*
X175004806Y-82255000D01*
X174985588Y-81839339D01*
X174928104Y-81427246D01*
X174928102Y-81427238D01*
X174832839Y-81022203D01*
X174700604Y-80627669D01*
X174700601Y-80627662D01*
X174532546Y-80247053D01*
X174532532Y-80247025D01*
X174330068Y-79883532D01*
X174330064Y-79883525D01*
X174094911Y-79540243D01*
X174094904Y-79540234D01*
X173856010Y-79252544D01*
X173856008Y-79252544D01*
X170853553Y-82255000D01*
X171946271Y-83347718D01*
X171979756Y-83409041D01*
X171974772Y-83478733D01*
X171973151Y-83482851D01*
X171926421Y-83595667D01*
X171926418Y-83595677D01*
X171898792Y-83734559D01*
X171866407Y-83796470D01*
X171805691Y-83831044D01*
X171735921Y-83827303D01*
X171689494Y-83798048D01*
X170500001Y-82608553D01*
X170500000Y-82608553D01*
X167497544Y-85611008D01*
X166475500Y-85611008D01*
X166475500Y-85200574D01*
X166476500Y-85185315D01*
X166476500Y-85156489D01*
X166476757Y-85148507D01*
X166477756Y-85133017D01*
X166478584Y-85120185D01*
X166478582Y-85120178D01*
X166478248Y-85115140D01*
X166476500Y-85097487D01*
X166476500Y-84744527D01*
X166496185Y-84677488D01*
X166548989Y-84631733D01*
X166618147Y-84621789D01*
X166681703Y-84650814D01*
X166702800Y-84674450D01*
X166905088Y-84969756D01*
X166905095Y-84969765D01*
X167143988Y-85257454D01*
X167143990Y-85257454D01*
X170500000Y-81901447D01*
X173502454Y-78898990D01*
X173502454Y-78898988D01*
X173214765Y-78660095D01*
X173214756Y-78660088D01*
X172871474Y-78424935D01*
X172871467Y-78424931D01*
X172507974Y-78222467D01*
X172507946Y-78222453D01*
X172127337Y-78054398D01*
X172127330Y-78054395D01*
X171732796Y-77922160D01*
X171327761Y-77826897D01*
X171327753Y-77826895D01*
X170915660Y-77769411D01*
X170500000Y-77750193D01*
X170084339Y-77769411D01*
X169672246Y-77826895D01*
X169672232Y-77826898D01*
X169492334Y-77869209D01*
X169422569Y-77865396D01*
X169365940Y-77824470D01*
X169340427Y-77759425D01*
X169354130Y-77690912D01*
X169376256Y-77660831D01*
X170717014Y-76320012D01*
X170759207Y-76277819D01*
X170760727Y-76276344D01*
X170762509Y-76273459D01*
X170763146Y-76272492D01*
X170764898Y-76268884D01*
X170779519Y-76243559D01*
X170803318Y-76202338D01*
X170804812Y-76196765D01*
X170810911Y-76174000D01*
X170811470Y-76171916D01*
X170821990Y-76132653D01*
X170824543Y-76123122D01*
X170825442Y-76120127D01*
X170825500Y-76119733D01*
X170825500Y-76119549D01*
X170825501Y-76119546D01*
X170825500Y-76074501D01*
X170845183Y-76007462D01*
X170897986Y-75961707D01*
X170949500Y-75950500D01*
X171821270Y-75950500D01*
X171888309Y-75970185D01*
X171934064Y-76022989D01*
X171935831Y-76027048D01*
X171979221Y-76131804D01*
X171979228Y-76131817D01*
X172055885Y-76246541D01*
X172055888Y-76246545D01*
X172153454Y-76344111D01*
X172153458Y-76344114D01*
X172268182Y-76420771D01*
X172268195Y-76420778D01*
X172355282Y-76456850D01*
X172395672Y-76473580D01*
X172395676Y-76473580D01*
X172395677Y-76473581D01*
X172531004Y-76500500D01*
X172531007Y-76500500D01*
X172668995Y-76500500D01*
X172783228Y-76477777D01*
X172804328Y-76473580D01*
X172931811Y-76420775D01*
X173046542Y-76344114D01*
X173144114Y-76246542D01*
X173220775Y-76131811D01*
X173273580Y-76004328D01*
X173295416Y-75894552D01*
X173300500Y-75868995D01*
X173300500Y-75731004D01*
X173273581Y-75595677D01*
X173273580Y-75595676D01*
X173273580Y-75595672D01*
X173237624Y-75508866D01*
X173220778Y-75468195D01*
X173220771Y-75468182D01*
X173144114Y-75353458D01*
X173144111Y-75353454D01*
X173046545Y-75255888D01*
X173046541Y-75255885D01*
X172931817Y-75179228D01*
X172931804Y-75179221D01*
X172804332Y-75126421D01*
X172804322Y-75126418D01*
X172668995Y-75099500D01*
X172668993Y-75099500D01*
X172574500Y-75099500D01*
X172507461Y-75079815D01*
X172461706Y-75027011D01*
X172450500Y-74975500D01*
X172450500Y-72230249D01*
X172450499Y-72230247D01*
X172438868Y-72171770D01*
X172438867Y-72171769D01*
X172394552Y-72105447D01*
X172328230Y-72061132D01*
X172328229Y-72061131D01*
X172269752Y-72049500D01*
X172269748Y-72049500D01*
X168730252Y-72049500D01*
X168730247Y-72049500D01*
X168671770Y-72061131D01*
X168671769Y-72061132D01*
X168605447Y-72105447D01*
X168561132Y-72171769D01*
X168561131Y-72171770D01*
X168549500Y-72230247D01*
X168549500Y-75769752D01*
X168561131Y-75828229D01*
X168561132Y-75828230D01*
X168605447Y-75894552D01*
X168671769Y-75938867D01*
X168671770Y-75938868D01*
X168730247Y-75950499D01*
X168730250Y-75950500D01*
X168730252Y-75950500D01*
X169866526Y-75950500D01*
X169933565Y-75970185D01*
X169979320Y-76022989D01*
X169989264Y-76092147D01*
X169960239Y-76155703D01*
X169954212Y-76162175D01*
X166316944Y-79799611D01*
X165934157Y-80182416D01*
X165934154Y-80182419D01*
X165889538Y-80227033D01*
X165889534Y-80227038D01*
X165888545Y-80228638D01*
X165887678Y-80230250D01*
X165874921Y-80252349D01*
X165874918Y-80252354D01*
X165849029Y-80297197D01*
X165849023Y-80297208D01*
X165846679Y-80301266D01*
X165836276Y-80340098D01*
X165836275Y-80340100D01*
X165824499Y-80384049D01*
X165824500Y-80406833D01*
X165824500Y-83978493D01*
X165822753Y-83996125D01*
X165822417Y-84001185D01*
X165824243Y-84029497D01*
X165824500Y-84037478D01*
X165824500Y-84066315D01*
X165825500Y-84081574D01*
X165825500Y-85084925D01*
X165824500Y-85100191D01*
X165824500Y-85129021D01*
X165824243Y-85137001D01*
X165822416Y-85165315D01*
X165822754Y-85170386D01*
X165824500Y-85188008D01*
X165824500Y-85923699D01*
X165804815Y-85990738D01*
X165775988Y-86022074D01*
X165721720Y-86063715D01*
X165625463Y-86189160D01*
X165564956Y-86335237D01*
X165564955Y-86335239D01*
X165544318Y-86491998D01*
X161661500Y-86491998D01*
X161661500Y-85738900D01*
X161681185Y-85671861D01*
X161733989Y-85626106D01*
X161803147Y-85616162D01*
X161866703Y-85645187D01*
X161885266Y-85665262D01*
X161890350Y-85672150D01*
X161999618Y-85752793D01*
X162042345Y-85767744D01*
X162127799Y-85797646D01*
X162158230Y-85800500D01*
X162158234Y-85800500D01*
X163091770Y-85800500D01*
X163122199Y-85797646D01*
X163122201Y-85797646D01*
X163186290Y-85775219D01*
X163250382Y-85752793D01*
X163359650Y-85672150D01*
X163440293Y-85562882D01*
X163462719Y-85498790D01*
X163485146Y-85434701D01*
X163485146Y-85434699D01*
X163488000Y-85404269D01*
X163488000Y-83995730D01*
X163485146Y-83965300D01*
X163485146Y-83965298D01*
X163440293Y-83837119D01*
X163440292Y-83837117D01*
X163433049Y-83827303D01*
X163359650Y-83727850D01*
X163306373Y-83688530D01*
X163263866Y-83657158D01*
X163221615Y-83601510D01*
X163213500Y-83557388D01*
X163213500Y-82492611D01*
X163233185Y-82425572D01*
X163263867Y-82392841D01*
X163302860Y-82364062D01*
X163359650Y-82322150D01*
X163440293Y-82212882D01*
X163440294Y-82212876D01*
X163444633Y-82204669D01*
X163446471Y-82205640D01*
X163480062Y-82158792D01*
X163545010Y-82133035D01*
X163603849Y-82141949D01*
X163740238Y-82198444D01*
X163798057Y-82206056D01*
X163896999Y-82219082D01*
X163897000Y-82219082D01*
X163897001Y-82219082D01*
X163967291Y-82209828D01*
X164053762Y-82198444D01*
X164199841Y-82137936D01*
X164325282Y-82041682D01*
X164421536Y-81916241D01*
X164482044Y-81770162D01*
X164502682Y-81613400D01*
X164498416Y-81581000D01*
X164482044Y-81456639D01*
X164482044Y-81456638D01*
X164421536Y-81310559D01*
X164325282Y-81185118D01*
X164199841Y-81088864D01*
X164134546Y-81061818D01*
X164053762Y-81028356D01*
X164053760Y-81028355D01*
X163897001Y-81007718D01*
X163896999Y-81007718D01*
X163740239Y-81028355D01*
X163740234Y-81028357D01*
X163659452Y-81061818D01*
X163589983Y-81069287D01*
X163527504Y-81038011D01*
X163491852Y-80977922D01*
X163488000Y-80947257D01*
X163488000Y-80645730D01*
X163485146Y-80615300D01*
X163485146Y-80615298D01*
X163440293Y-80487119D01*
X163440292Y-80487117D01*
X163422651Y-80463214D01*
X163359650Y-80377850D01*
X163250382Y-80297207D01*
X163250380Y-80297206D01*
X163122200Y-80252353D01*
X163091770Y-80249500D01*
X163091766Y-80249500D01*
X163049953Y-80249500D01*
X162982914Y-80229815D01*
X162937159Y-80177011D01*
X162927215Y-80107853D01*
X162956240Y-80044297D01*
X162962283Y-80037808D01*
X163011677Y-79988427D01*
X163842186Y-79158129D01*
X163842260Y-79158066D01*
X163848860Y-79151465D01*
X163848862Y-79151465D01*
X163864642Y-79135685D01*
X163882094Y-79118233D01*
X163882095Y-79118234D01*
X163882101Y-79118224D01*
X163908310Y-79092023D01*
X163909505Y-79090864D01*
X163909507Y-79090862D01*
X163910470Y-79089120D01*
X163931556Y-79052598D01*
X163950833Y-79019219D01*
X163952319Y-79016790D01*
X163952330Y-79016765D01*
X163952885Y-79014523D01*
X163963606Y-78974514D01*
X163963609Y-78974501D01*
X163966613Y-78963294D01*
X163974495Y-78933894D01*
X163974495Y-78933886D01*
X163974500Y-78933855D01*
X163974500Y-78894937D01*
X163974502Y-78875526D01*
X163974506Y-78848189D01*
X163974505Y-78848185D01*
X163974506Y-78840335D01*
X163974500Y-78840225D01*
X163974500Y-74255996D01*
X163974504Y-74255925D01*
X163974503Y-74247329D01*
X163974504Y-74247327D01*
X163974500Y-74196682D01*
X163974500Y-74161647D01*
X163974500Y-74161635D01*
X163974499Y-74161632D01*
X163974497Y-74161624D01*
X163974497Y-74161622D01*
X163960527Y-74109500D01*
X163953103Y-74081794D01*
X163952405Y-74078896D01*
X163952400Y-74078883D01*
X163951034Y-74076631D01*
X163944108Y-74064638D01*
X163930925Y-74041808D01*
X163909807Y-74005231D01*
X163909484Y-74004661D01*
X163909461Y-74004630D01*
X163892104Y-73987276D01*
X163883885Y-73979058D01*
X163871416Y-73966589D01*
X163843769Y-73938941D01*
X163843707Y-73938886D01*
X163826770Y-73921952D01*
X163244795Y-73340068D01*
X163244787Y-73340060D01*
X163212866Y-73308138D01*
X163212841Y-73308119D01*
X163172637Y-73284911D01*
X163172632Y-73284906D01*
X163172632Y-73284908D01*
X163138637Y-73265281D01*
X163138613Y-73265271D01*
X163107939Y-73257055D01*
X163091931Y-73252766D01*
X163091925Y-73252763D01*
X163091925Y-73252765D01*
X163055846Y-73243098D01*
X163055826Y-73243095D01*
X163006857Y-73243099D01*
X163006853Y-73243100D01*
X152737458Y-73243100D01*
X152737441Y-73243099D01*
X152644141Y-73243099D01*
X152644139Y-73243100D01*
X152599777Y-73254988D01*
X152587037Y-73258402D01*
X152561363Y-73265281D01*
X152561360Y-73265282D01*
X152560766Y-73265519D01*
X152558158Y-73267131D01*
X152545371Y-73274512D01*
X152545369Y-73274514D01*
X152527367Y-73284908D01*
X152487137Y-73308135D01*
X152487134Y-73308137D01*
X152424099Y-73371172D01*
X152424100Y-73371173D01*
X150226671Y-75568685D01*
X150165348Y-75602171D01*
X150122803Y-75603944D01*
X150055001Y-75595018D01*
X150054999Y-75595018D01*
X149898239Y-75615655D01*
X149898237Y-75615656D01*
X149752160Y-75676163D01*
X149626718Y-75772418D01*
X149530463Y-75897860D01*
X149469956Y-76043937D01*
X149469955Y-76043939D01*
X149449318Y-76200698D01*
X149449318Y-76200701D01*
X149469955Y-76357460D01*
X149469956Y-76357462D01*
X149501736Y-76434187D01*
X149530464Y-76503541D01*
X149626718Y-76628982D01*
X149752159Y-76725236D01*
X149898238Y-76785744D01*
X149976619Y-76796063D01*
X150054999Y-76806382D01*
X150055000Y-76806382D01*
X150055001Y-76806382D01*
X150118440Y-76798030D01*
X150211762Y-76785744D01*
X150357841Y-76725236D01*
X150483282Y-76628982D01*
X150579536Y-76503541D01*
X150640044Y-76357462D01*
X150660682Y-76200700D01*
X150651751Y-76132866D01*
X150662516Y-76063833D01*
X150687003Y-76029006D01*
X152785512Y-73930419D01*
X152846835Y-73896934D01*
X152873195Y-73894100D01*
X154102900Y-73894100D01*
X154169939Y-73913785D01*
X154215694Y-73966589D01*
X154226900Y-74018100D01*
X154226900Y-75119752D01*
X154238531Y-75178229D01*
X154238532Y-75178230D01*
X154282847Y-75244552D01*
X154349169Y-75288867D01*
X154349170Y-75288868D01*
X154407647Y-75300499D01*
X154407650Y-75300500D01*
X154407652Y-75300500D01*
X154577500Y-75300500D01*
X154644539Y-75320185D01*
X154690294Y-75372989D01*
X154701500Y-75424500D01*
X154701500Y-79692936D01*
X154681815Y-79759975D01*
X154665190Y-79780609D01*
X154283470Y-80162403D01*
X154222150Y-80195894D01*
X154152458Y-80190916D01*
X154096520Y-80149050D01*
X154072097Y-80083588D01*
X154072322Y-80063151D01*
X154074410Y-80040884D01*
X154075500Y-80029265D01*
X154075499Y-78995736D01*
X154072646Y-78965302D01*
X154027793Y-78837118D01*
X153947150Y-78727850D01*
X153866506Y-78668332D01*
X153837881Y-78647206D01*
X153709695Y-78602353D01*
X153709698Y-78602353D01*
X153679269Y-78599500D01*
X153679265Y-78599500D01*
X152598689Y-78599500D01*
X152531650Y-78579815D01*
X152511008Y-78563181D01*
X152477864Y-78530037D01*
X152477862Y-78530035D01*
X152427403Y-78500902D01*
X152403640Y-78487182D01*
X152362086Y-78476048D01*
X152320853Y-78465000D01*
X152320852Y-78465000D01*
X146509843Y-78465000D01*
X146509750Y-78464994D01*
X146454205Y-78465000D01*
X146416129Y-78465000D01*
X146416114Y-78465003D01*
X146416113Y-78465004D01*
X146394751Y-78470730D01*
X146374911Y-78476048D01*
X146374904Y-78476050D01*
X146364974Y-78478711D01*
X146333362Y-78487182D01*
X146333361Y-78487182D01*
X146333344Y-78487187D01*
X146297500Y-78507886D01*
X146297492Y-78507890D01*
X146259122Y-78530043D01*
X146230395Y-78558776D01*
X146194247Y-78594924D01*
X146194180Y-78594998D01*
X145842032Y-78947219D01*
X145780713Y-78980710D01*
X145736465Y-78982252D01*
X145683260Y-78974500D01*
X145316740Y-78974500D01*
X145312253Y-78974500D01*
X145312253Y-78972471D01*
X145252094Y-78959398D01*
X145202679Y-78910002D01*
X145187500Y-78850554D01*
X145187500Y-78849808D01*
X145207185Y-78782769D01*
X145223822Y-78762123D01*
X145693572Y-78292448D01*
X145693609Y-78292417D01*
X145699860Y-78286165D01*
X145699862Y-78286165D01*
X145712866Y-78273160D01*
X145728687Y-78257340D01*
X145728693Y-78257334D01*
X145747871Y-78238158D01*
X145757945Y-78228086D01*
X145760548Y-78225631D01*
X145760557Y-78225620D01*
X145762284Y-78222411D01*
X145780698Y-78190517D01*
X145780701Y-78190509D01*
X145802032Y-78153572D01*
X145803325Y-78151438D01*
X145803334Y-78151417D01*
X145803841Y-78149383D01*
X145814204Y-78110706D01*
X145814205Y-78110703D01*
X145814207Y-78110703D01*
X145814207Y-78110692D01*
X145825497Y-78068578D01*
X145825497Y-78068567D01*
X145825498Y-78068558D01*
X145825500Y-78068553D01*
X145825500Y-78031846D01*
X145825504Y-77982872D01*
X145825503Y-77982869D01*
X145825504Y-77974828D01*
X145825500Y-77974750D01*
X145825500Y-76477777D01*
X145845185Y-76410738D01*
X145897989Y-76364983D01*
X145967147Y-76355039D01*
X146030703Y-76384064D01*
X146045354Y-76399113D01*
X146059117Y-76415883D01*
X146211460Y-76540909D01*
X146211467Y-76540913D01*
X146385266Y-76633811D01*
X146385269Y-76633811D01*
X146385273Y-76633814D01*
X146573868Y-76691024D01*
X146770000Y-76710341D01*
X146966132Y-76691024D01*
X147154727Y-76633814D01*
X147328538Y-76540910D01*
X147480883Y-76415883D01*
X147605910Y-76263538D01*
X147653769Y-76174000D01*
X147698811Y-76089733D01*
X147698811Y-76089732D01*
X147698814Y-76089727D01*
X147756024Y-75901132D01*
X147775341Y-75705000D01*
X147756024Y-75508868D01*
X147700892Y-75327126D01*
X147700269Y-75257262D01*
X147731870Y-75203454D01*
X148123652Y-74811673D01*
X148123657Y-74811669D01*
X148133860Y-74801465D01*
X148133862Y-74801465D01*
X148194465Y-74740862D01*
X148237318Y-74666638D01*
X148259501Y-74583852D01*
X148259501Y-74498147D01*
X148259501Y-74490552D01*
X148259500Y-74490534D01*
X148259500Y-72713484D01*
X148259509Y-72668114D01*
X148259501Y-72668051D01*
X148259500Y-72668047D01*
X148248756Y-72627952D01*
X148248756Y-72627925D01*
X148248750Y-72627927D01*
X148237341Y-72585313D01*
X148237326Y-72585277D01*
X148237318Y-72585264D01*
X148237318Y-72585262D01*
X148227046Y-72567471D01*
X148215652Y-72547735D01*
X148215640Y-72547715D01*
X148195327Y-72512516D01*
X148194505Y-72511091D01*
X148194503Y-72511089D01*
X148194502Y-72511087D01*
X148194466Y-72511039D01*
X148162018Y-72478591D01*
X148162005Y-72478569D01*
X148162001Y-72478574D01*
X147448335Y-71764622D01*
X147448235Y-71764508D01*
X147411934Y-71728207D01*
X147411922Y-71728185D01*
X147411918Y-71728190D01*
X147381913Y-71698173D01*
X147381867Y-71698138D01*
X147345246Y-71676994D01*
X147345248Y-71676989D01*
X147345228Y-71676984D01*
X147307699Y-71655307D01*
X147307695Y-71655306D01*
X147307678Y-71655296D01*
X147307653Y-71655285D01*
X147268052Y-71644675D01*
X147268052Y-71644672D01*
X147268031Y-71644669D01*
X147262805Y-71643268D01*
X147203154Y-71606893D01*
X147172636Y-71544040D01*
X147180944Y-71474666D01*
X147225439Y-71420797D01*
X147291995Y-71399535D01*
X147294923Y-71399500D01*
X177650500Y-71399500D01*
X177717539Y-71419185D01*
G37*
%TD.AperFunction*%
%TA.AperFunction,Conductor*%
G36*
X143188831Y-76392316D02*
G01*
X143244766Y-76434187D01*
X143269184Y-76499651D01*
X143269500Y-76508499D01*
X143269500Y-78568470D01*
X143249815Y-78635509D01*
X143229654Y-78659542D01*
X143210000Y-78677702D01*
X143210000Y-81722295D01*
X143229671Y-81740479D01*
X143265538Y-81800440D01*
X143269500Y-81831535D01*
X143269500Y-86633561D01*
X143269494Y-86633655D01*
X143269500Y-86683004D01*
X143269500Y-86727271D01*
X143279458Y-86764418D01*
X143279460Y-86764433D01*
X143279462Y-86764433D01*
X143291687Y-86810056D01*
X143291696Y-86810072D01*
X143291697Y-86810074D01*
X143311588Y-86844518D01*
X143311845Y-86844963D01*
X143334543Y-86884276D01*
X143334545Y-86884278D01*
X143360133Y-86909861D01*
X143360148Y-86909875D01*
X143400812Y-86950540D01*
X143400888Y-86950606D01*
X144213781Y-87763309D01*
X144247273Y-87824628D01*
X144242297Y-87894320D01*
X144200432Y-87950258D01*
X144134971Y-87974683D01*
X144126110Y-87975000D01*
X144014350Y-87975000D01*
X143977510Y-87977899D01*
X143977504Y-87977900D01*
X143819806Y-88023716D01*
X143819803Y-88023717D01*
X143678447Y-88107314D01*
X143672278Y-88112100D01*
X143670457Y-88109753D01*
X143621358Y-88136564D01*
X143551666Y-88131580D01*
X143518930Y-88110541D01*
X143517722Y-88112100D01*
X143511552Y-88107314D01*
X143370196Y-88023717D01*
X143370193Y-88023716D01*
X143212494Y-87977900D01*
X143212497Y-87977900D01*
X143210000Y-87977703D01*
X143210000Y-89250000D01*
X144356000Y-89250000D01*
X144423039Y-89269685D01*
X144468794Y-89322489D01*
X144480000Y-89374000D01*
X144480000Y-91022295D01*
X144507671Y-91047874D01*
X144543538Y-91107835D01*
X144547500Y-91138930D01*
X144547500Y-91515315D01*
X144547497Y-91566730D01*
X144547500Y-91566755D01*
X144557532Y-91604195D01*
X144557532Y-91604202D01*
X144557534Y-91604202D01*
X144569674Y-91649520D01*
X144569678Y-91649531D01*
X144569681Y-91649537D01*
X144569682Y-91649538D01*
X144588048Y-91681349D01*
X144588050Y-91681356D01*
X144588052Y-91681356D01*
X144612528Y-91723756D01*
X144644425Y-91755652D01*
X144644429Y-91755661D01*
X144644432Y-91755659D01*
X145386325Y-92497646D01*
X145400728Y-92512050D01*
X145400768Y-92512095D01*
X145442183Y-92553510D01*
X145442186Y-92553516D01*
X145442188Y-92553515D01*
X145466128Y-92577458D01*
X145466133Y-92577461D01*
X145466135Y-92577462D01*
X145466138Y-92577465D01*
X145504316Y-92599506D01*
X145504324Y-92599514D01*
X145504326Y-92599512D01*
X145540351Y-92620315D01*
X145540361Y-92620317D01*
X145540362Y-92620318D01*
X145576770Y-92630072D01*
X145576781Y-92630079D01*
X145576782Y-92630076D01*
X145619807Y-92641608D01*
X145675381Y-92673695D01*
X147014629Y-94012815D01*
X147048117Y-94074136D01*
X147043136Y-94143828D01*
X147001267Y-94199764D01*
X146935804Y-94224184D01*
X146926952Y-94224500D01*
X146295741Y-94224500D01*
X146265301Y-94227354D01*
X146265300Y-94227354D01*
X146137118Y-94272206D01*
X146027850Y-94352850D01*
X145947206Y-94462118D01*
X145902353Y-94590302D01*
X145899500Y-94620731D01*
X145899500Y-94850500D01*
X145879815Y-94917539D01*
X145827011Y-94963294D01*
X145775500Y-94974500D01*
X145667111Y-94974500D01*
X145600072Y-94954815D01*
X145554317Y-94902011D01*
X145547847Y-94884441D01*
X145495582Y-94700750D01*
X145404673Y-94518179D01*
X145281764Y-94355421D01*
X145281762Y-94355418D01*
X145131041Y-94218019D01*
X145131039Y-94218017D01*
X144957642Y-94110655D01*
X144957635Y-94110651D01*
X144816519Y-94055983D01*
X144767456Y-94036976D01*
X144566976Y-93999500D01*
X144363024Y-93999500D01*
X144162544Y-94036976D01*
X144162541Y-94036976D01*
X144162541Y-94036977D01*
X143972364Y-94110651D01*
X143972357Y-94110655D01*
X143798960Y-94218017D01*
X143798958Y-94218019D01*
X143648237Y-94355419D01*
X143547954Y-94488215D01*
X143491845Y-94529851D01*
X143422133Y-94534542D01*
X143360951Y-94500800D01*
X143327724Y-94439337D01*
X143325000Y-94413488D01*
X143325000Y-94152172D01*
X143324999Y-94152155D01*
X143318598Y-94092627D01*
X143318596Y-94092620D01*
X143268354Y-93957913D01*
X143268350Y-93957906D01*
X143182190Y-93842812D01*
X143182187Y-93842809D01*
X143067093Y-93756649D01*
X143067086Y-93756645D01*
X142932379Y-93706403D01*
X142932372Y-93706401D01*
X142872844Y-93700000D01*
X142175000Y-93700000D01*
X142175000Y-94724722D01*
X142098694Y-94680667D01*
X141984244Y-94650000D01*
X141865756Y-94650000D01*
X141751306Y-94680667D01*
X141675000Y-94724722D01*
X141675000Y-93700000D01*
X140977155Y-93700000D01*
X140917627Y-93706401D01*
X140917620Y-93706403D01*
X140782913Y-93756645D01*
X140782906Y-93756649D01*
X140667812Y-93842809D01*
X140667809Y-93842812D01*
X140581649Y-93957906D01*
X140581645Y-93957913D01*
X140531403Y-94092620D01*
X140531401Y-94092627D01*
X140525000Y-94152155D01*
X140525000Y-94850000D01*
X141549722Y-94850000D01*
X141505667Y-94926306D01*
X141475000Y-95040756D01*
X141475000Y-95159244D01*
X141505667Y-95273694D01*
X141549722Y-95350000D01*
X140525000Y-95350000D01*
X140525000Y-96047844D01*
X140531401Y-96107372D01*
X140531403Y-96107379D01*
X140581645Y-96242086D01*
X140581649Y-96242093D01*
X140667809Y-96357187D01*
X140667812Y-96357190D01*
X140782906Y-96443350D01*
X140782913Y-96443354D01*
X140917620Y-96493596D01*
X140917627Y-96493598D01*
X140977155Y-96499999D01*
X140977172Y-96500000D01*
X141675000Y-96500000D01*
X141675000Y-95475277D01*
X141751306Y-95519333D01*
X141865756Y-95550000D01*
X141984244Y-95550000D01*
X142098694Y-95519333D01*
X142175000Y-95475277D01*
X142175000Y-96500000D01*
X142872828Y-96500000D01*
X142872844Y-96499999D01*
X142932372Y-96493598D01*
X142932379Y-96493596D01*
X143067086Y-96443354D01*
X143067093Y-96443350D01*
X143182187Y-96357190D01*
X143182190Y-96357187D01*
X143268350Y-96242093D01*
X143268354Y-96242086D01*
X143318596Y-96107379D01*
X143318598Y-96107372D01*
X143324999Y-96047844D01*
X143325000Y-96047827D01*
X143325000Y-95786511D01*
X143344685Y-95719472D01*
X143397489Y-95673717D01*
X143466647Y-95663773D01*
X143530203Y-95692798D01*
X143547954Y-95711784D01*
X143648237Y-95844581D01*
X143798958Y-95981980D01*
X143798960Y-95981982D01*
X143843725Y-96009699D01*
X143972363Y-96089348D01*
X144162544Y-96163024D01*
X144363024Y-96200500D01*
X144363026Y-96200500D01*
X144566974Y-96200500D01*
X144566976Y-96200500D01*
X144767456Y-96163024D01*
X144957637Y-96089348D01*
X145131041Y-95981981D01*
X145281764Y-95844579D01*
X145404673Y-95681821D01*
X145404672Y-95681821D01*
X145408128Y-95677246D01*
X145409671Y-95678411D01*
X145455207Y-95637590D01*
X145508613Y-95625500D01*
X145775501Y-95625500D01*
X145842540Y-95645185D01*
X145888295Y-95697989D01*
X145899501Y-95749500D01*
X145899501Y-95979264D01*
X145901692Y-96002632D01*
X145902354Y-96009698D01*
X145902354Y-96009699D01*
X145947206Y-96137881D01*
X145947207Y-96137882D01*
X146027850Y-96247150D01*
X146137118Y-96327793D01*
X146265302Y-96372646D01*
X146265301Y-96372646D01*
X146269271Y-96373018D01*
X146295735Y-96375500D01*
X147329264Y-96375499D01*
X147359698Y-96372646D01*
X147362547Y-96371648D01*
X147364783Y-96371534D01*
X147367072Y-96371035D01*
X147367154Y-96371413D01*
X147432324Y-96368088D01*
X147492952Y-96402817D01*
X147525179Y-96464810D01*
X147527500Y-96488691D01*
X147527500Y-123123811D01*
X147507815Y-123190850D01*
X147491181Y-123211492D01*
X145598420Y-125104252D01*
X145537097Y-125137737D01*
X145467405Y-125132753D01*
X145411472Y-125090881D01*
X145387336Y-125028725D01*
X145387235Y-125027703D01*
X145376024Y-124913868D01*
X145318814Y-124725273D01*
X145318811Y-124725269D01*
X145318811Y-124725266D01*
X145225913Y-124551467D01*
X145225909Y-124551460D01*
X145100883Y-124399116D01*
X144948539Y-124274090D01*
X144948532Y-124274085D01*
X144781047Y-124184563D01*
X144731202Y-124135601D01*
X144715500Y-124075205D01*
X144715500Y-123940149D01*
X144715500Y-123940147D01*
X144693318Y-123857362D01*
X144692824Y-123856507D01*
X144650469Y-123783144D01*
X144650463Y-123783136D01*
X144607524Y-123740197D01*
X144574039Y-123678874D01*
X144579023Y-123609182D01*
X144620895Y-123553249D01*
X144659205Y-123533857D01*
X144774727Y-123498814D01*
X144948538Y-123405910D01*
X145100883Y-123280883D01*
X145225910Y-123128538D01*
X145318814Y-122954727D01*
X145376024Y-122766132D01*
X145395341Y-122570000D01*
X145376024Y-122373868D01*
X145318814Y-122185273D01*
X145318811Y-122185269D01*
X145318811Y-122185266D01*
X145225913Y-122011467D01*
X145225909Y-122011460D01*
X145100883Y-121859116D01*
X144948539Y-121734090D01*
X144948532Y-121734085D01*
X144781047Y-121644563D01*
X144731202Y-121595601D01*
X144715500Y-121535205D01*
X144715500Y-121400149D01*
X144715500Y-121400147D01*
X144693318Y-121317362D01*
X144693314Y-121317355D01*
X144650469Y-121243144D01*
X144650463Y-121243136D01*
X144607524Y-121200197D01*
X144574039Y-121138874D01*
X144579023Y-121069182D01*
X144620895Y-121013249D01*
X144659205Y-120993857D01*
X144774727Y-120958814D01*
X144785992Y-120952793D01*
X144844251Y-120921652D01*
X144948538Y-120865910D01*
X145100883Y-120740883D01*
X145225910Y-120588538D01*
X145318814Y-120414727D01*
X145376024Y-120226132D01*
X145395341Y-120030000D01*
X145376024Y-119833868D01*
X145318814Y-119645273D01*
X145318811Y-119645269D01*
X145318811Y-119645266D01*
X145225913Y-119471467D01*
X145225909Y-119471460D01*
X145100883Y-119319116D01*
X144948539Y-119194090D01*
X144948532Y-119194086D01*
X144774733Y-119101188D01*
X144774727Y-119101186D01*
X144586132Y-119043976D01*
X144586129Y-119043975D01*
X144390000Y-119024659D01*
X144193870Y-119043975D01*
X144005266Y-119101188D01*
X143831467Y-119194086D01*
X143831461Y-119194090D01*
X143791164Y-119227161D01*
X143726854Y-119254473D01*
X143657987Y-119242682D01*
X143606427Y-119195529D01*
X143588500Y-119131307D01*
X143588500Y-118388692D01*
X143608185Y-118321653D01*
X143660989Y-118275898D01*
X143730147Y-118265954D01*
X143791165Y-118292839D01*
X143831460Y-118325909D01*
X143831467Y-118325913D01*
X144005266Y-118418811D01*
X144005269Y-118418811D01*
X144005273Y-118418814D01*
X144193868Y-118476024D01*
X144390000Y-118495341D01*
X144586132Y-118476024D01*
X144774727Y-118418814D01*
X144823286Y-118392859D01*
X144948532Y-118325913D01*
X144948534Y-118325912D01*
X144948538Y-118325910D01*
X145100883Y-118200883D01*
X145225910Y-118048538D01*
X145318814Y-117874727D01*
X145376024Y-117686132D01*
X145395341Y-117490000D01*
X145376024Y-117293868D01*
X145318814Y-117105273D01*
X145318811Y-117105269D01*
X145318811Y-117105266D01*
X145225913Y-116931467D01*
X145225909Y-116931460D01*
X145100883Y-116779116D01*
X144948539Y-116654090D01*
X144948532Y-116654086D01*
X144774733Y-116561188D01*
X144774727Y-116561186D01*
X144586132Y-116503976D01*
X144586129Y-116503975D01*
X144390000Y-116484659D01*
X144193870Y-116503975D01*
X144005266Y-116561188D01*
X143831467Y-116654086D01*
X143831461Y-116654090D01*
X143791164Y-116687161D01*
X143726854Y-116714473D01*
X143657987Y-116702682D01*
X143606427Y-116655529D01*
X143588500Y-116591307D01*
X143588500Y-115848692D01*
X143608185Y-115781653D01*
X143660989Y-115735898D01*
X143730147Y-115725954D01*
X143791165Y-115752839D01*
X143831460Y-115785909D01*
X143831467Y-115785913D01*
X144005266Y-115878811D01*
X144005269Y-115878811D01*
X144005273Y-115878814D01*
X144193868Y-115936024D01*
X144390000Y-115955341D01*
X144586132Y-115936024D01*
X144774727Y-115878814D01*
X144776840Y-115877685D01*
X144948532Y-115785913D01*
X144948534Y-115785912D01*
X144948538Y-115785910D01*
X145100883Y-115660883D01*
X145225910Y-115508538D01*
X145318814Y-115334727D01*
X145376024Y-115146132D01*
X145395341Y-114950000D01*
X145376024Y-114753868D01*
X145318814Y-114565273D01*
X145318811Y-114565269D01*
X145318811Y-114565266D01*
X145225913Y-114391467D01*
X145225909Y-114391460D01*
X145100883Y-114239116D01*
X144948539Y-114114090D01*
X144948532Y-114114085D01*
X144781047Y-114024563D01*
X144731202Y-113975601D01*
X144715500Y-113915205D01*
X144715500Y-113780149D01*
X144715500Y-113780147D01*
X144693318Y-113697362D01*
X144693314Y-113697355D01*
X144650469Y-113623144D01*
X144650463Y-113623136D01*
X144607524Y-113580197D01*
X144574039Y-113518874D01*
X144579023Y-113449182D01*
X144620895Y-113393249D01*
X144659205Y-113373857D01*
X144774727Y-113338814D01*
X144948538Y-113245910D01*
X145100883Y-113120883D01*
X145225910Y-112968538D01*
X145318814Y-112794727D01*
X145376024Y-112606132D01*
X145395341Y-112410000D01*
X145376024Y-112213868D01*
X145318814Y-112025273D01*
X145318811Y-112025269D01*
X145318811Y-112025266D01*
X145225913Y-111851467D01*
X145225909Y-111851460D01*
X145100883Y-111699116D01*
X144948539Y-111574090D01*
X144948532Y-111574086D01*
X144774733Y-111481188D01*
X144774727Y-111481186D01*
X144586132Y-111423976D01*
X144586129Y-111423975D01*
X144390000Y-111404659D01*
X144193870Y-111423975D01*
X144005266Y-111481188D01*
X143831467Y-111574086D01*
X143831460Y-111574090D01*
X143679116Y-111699116D01*
X143554090Y-111851460D01*
X143554086Y-111851467D01*
X143461188Y-112025266D01*
X143403975Y-112213870D01*
X143389794Y-112357856D01*
X143363633Y-112422644D01*
X143306598Y-112463002D01*
X143236798Y-112466119D01*
X143178710Y-112433383D01*
X140365326Y-109619999D01*
X143111127Y-109619999D01*
X143111128Y-109620000D01*
X143956988Y-109620000D01*
X143924075Y-109677007D01*
X143890000Y-109804174D01*
X143890000Y-109935826D01*
X143924075Y-110062993D01*
X143956988Y-110120000D01*
X143111128Y-110120000D01*
X143163730Y-110316317D01*
X143163734Y-110316326D01*
X143259865Y-110522482D01*
X143390342Y-110708820D01*
X143551179Y-110869657D01*
X143737517Y-111000134D01*
X143943673Y-111096265D01*
X143943682Y-111096269D01*
X144139999Y-111148872D01*
X144140000Y-111148871D01*
X144140000Y-110303012D01*
X144197007Y-110335925D01*
X144324174Y-110370000D01*
X144455826Y-110370000D01*
X144582993Y-110335925D01*
X144640000Y-110303012D01*
X144640000Y-111148872D01*
X144836317Y-111096269D01*
X144836326Y-111096265D01*
X145042482Y-111000134D01*
X145228820Y-110869657D01*
X145389657Y-110708820D01*
X145520134Y-110522482D01*
X145616265Y-110316326D01*
X145616269Y-110316317D01*
X145668872Y-110120000D01*
X144823012Y-110120000D01*
X144855925Y-110062993D01*
X144890000Y-109935826D01*
X144890000Y-109804174D01*
X144855925Y-109677007D01*
X144823012Y-109620000D01*
X145668872Y-109620000D01*
X145668872Y-109619999D01*
X145616269Y-109423682D01*
X145616265Y-109423673D01*
X145520134Y-109217517D01*
X145389657Y-109031179D01*
X145228820Y-108870342D01*
X145042482Y-108739865D01*
X144836328Y-108643734D01*
X144640000Y-108591127D01*
X144640000Y-109436988D01*
X144582993Y-109404075D01*
X144455826Y-109370000D01*
X144324174Y-109370000D01*
X144197007Y-109404075D01*
X144140000Y-109436988D01*
X144140000Y-108591127D01*
X143943671Y-108643734D01*
X143737517Y-108739865D01*
X143551179Y-108870342D01*
X143390342Y-109031179D01*
X143259865Y-109217517D01*
X143163734Y-109423673D01*
X143163730Y-109423682D01*
X143111127Y-109619999D01*
X140365326Y-109619999D01*
X138863819Y-108118492D01*
X138830334Y-108057169D01*
X138827500Y-108030811D01*
X138827500Y-107330000D01*
X143384659Y-107330000D01*
X143403975Y-107526129D01*
X143461188Y-107714733D01*
X143554086Y-107888532D01*
X143554090Y-107888539D01*
X143679116Y-108040883D01*
X143831460Y-108165909D01*
X143831467Y-108165913D01*
X144005266Y-108258811D01*
X144005269Y-108258811D01*
X144005273Y-108258814D01*
X144193868Y-108316024D01*
X144390000Y-108335341D01*
X144586132Y-108316024D01*
X144774727Y-108258814D01*
X144948538Y-108165910D01*
X145100883Y-108040883D01*
X145225910Y-107888538D01*
X145318814Y-107714727D01*
X145376024Y-107526132D01*
X145395341Y-107330000D01*
X145376024Y-107133868D01*
X145318814Y-106945273D01*
X145318811Y-106945269D01*
X145318811Y-106945266D01*
X145225913Y-106771467D01*
X145225909Y-106771460D01*
X145100883Y-106619116D01*
X144948539Y-106494090D01*
X144948532Y-106494086D01*
X144774733Y-106401188D01*
X144774727Y-106401186D01*
X144586132Y-106343976D01*
X144586129Y-106343975D01*
X144390000Y-106324659D01*
X144193870Y-106343975D01*
X144005266Y-106401188D01*
X143831467Y-106494086D01*
X143831460Y-106494090D01*
X143679116Y-106619116D01*
X143554090Y-106771460D01*
X143554086Y-106771467D01*
X143461188Y-106945266D01*
X143403975Y-107133870D01*
X143384659Y-107330000D01*
X138827500Y-107330000D01*
X138827500Y-104790000D01*
X143384659Y-104790000D01*
X143403975Y-104986129D01*
X143461188Y-105174733D01*
X143554086Y-105348532D01*
X143554090Y-105348539D01*
X143679116Y-105500883D01*
X143831460Y-105625909D01*
X143831467Y-105625913D01*
X144005266Y-105718811D01*
X144005269Y-105718811D01*
X144005273Y-105718814D01*
X144193868Y-105776024D01*
X144390000Y-105795341D01*
X144586132Y-105776024D01*
X144774727Y-105718814D01*
X144948538Y-105625910D01*
X145100883Y-105500883D01*
X145225910Y-105348538D01*
X145285893Y-105236317D01*
X145318811Y-105174733D01*
X145318811Y-105174732D01*
X145318814Y-105174727D01*
X145376024Y-104986132D01*
X145395341Y-104790000D01*
X145376024Y-104593868D01*
X145318814Y-104405273D01*
X145318811Y-104405269D01*
X145318811Y-104405266D01*
X145225913Y-104231467D01*
X145225909Y-104231460D01*
X145100883Y-104079116D01*
X144948539Y-103954090D01*
X144948532Y-103954086D01*
X144774733Y-103861188D01*
X144774727Y-103861186D01*
X144586132Y-103803976D01*
X144586129Y-103803975D01*
X144390000Y-103784659D01*
X144193870Y-103803975D01*
X144005266Y-103861188D01*
X143831467Y-103954086D01*
X143831460Y-103954090D01*
X143679116Y-104079116D01*
X143554090Y-104231460D01*
X143554086Y-104231467D01*
X143461188Y-104405266D01*
X143403975Y-104593870D01*
X143384659Y-104790000D01*
X138827500Y-104790000D01*
X138827500Y-101430247D01*
X143389500Y-101430247D01*
X143389500Y-103069752D01*
X143401131Y-103128229D01*
X143401132Y-103128230D01*
X143445447Y-103194552D01*
X143511769Y-103238867D01*
X143511770Y-103238868D01*
X143570247Y-103250499D01*
X143570250Y-103250500D01*
X143570252Y-103250500D01*
X145209750Y-103250500D01*
X145209751Y-103250499D01*
X145224568Y-103247552D01*
X145268229Y-103238868D01*
X145268229Y-103238867D01*
X145268231Y-103238867D01*
X145334552Y-103194552D01*
X145378867Y-103128231D01*
X145378867Y-103128229D01*
X145378868Y-103128229D01*
X145390499Y-103069752D01*
X145390500Y-103069750D01*
X145390500Y-101430249D01*
X145390499Y-101430247D01*
X145378868Y-101371770D01*
X145378867Y-101371769D01*
X145334552Y-101305447D01*
X145268230Y-101261132D01*
X145268229Y-101261131D01*
X145209752Y-101249500D01*
X145209748Y-101249500D01*
X143570252Y-101249500D01*
X143570247Y-101249500D01*
X143511770Y-101261131D01*
X143511769Y-101261132D01*
X143445447Y-101305447D01*
X143401132Y-101371769D01*
X143401131Y-101371770D01*
X143389500Y-101430247D01*
X138827500Y-101430247D01*
X138827500Y-91143552D01*
X138847185Y-91076513D01*
X138867329Y-91052496D01*
X138900000Y-91022295D01*
X139400000Y-91022295D01*
X139400001Y-91022295D01*
X139402486Y-91022100D01*
X139560198Y-90976281D01*
X139701552Y-90892685D01*
X139707722Y-90887900D01*
X139709546Y-90890252D01*
X139758595Y-90863445D01*
X139828288Y-90868402D01*
X139861063Y-90889465D01*
X139862278Y-90887900D01*
X139868447Y-90892685D01*
X140009801Y-90976281D01*
X140167514Y-91022100D01*
X140167511Y-91022100D01*
X140169998Y-91022295D01*
X140170000Y-91022295D01*
X140670000Y-91022295D01*
X140670001Y-91022295D01*
X140672486Y-91022100D01*
X140830198Y-90976281D01*
X140971552Y-90892685D01*
X140977722Y-90887900D01*
X140979546Y-90890252D01*
X141028595Y-90863445D01*
X141098288Y-90868402D01*
X141131063Y-90889465D01*
X141132278Y-90887900D01*
X141138447Y-90892685D01*
X141279801Y-90976281D01*
X141437514Y-91022100D01*
X141437511Y-91022100D01*
X141439998Y-91022295D01*
X141440000Y-91022295D01*
X141940000Y-91022295D01*
X141940001Y-91022295D01*
X141942486Y-91022100D01*
X142100198Y-90976281D01*
X142241552Y-90892685D01*
X142247722Y-90887900D01*
X142249546Y-90890252D01*
X142298595Y-90863445D01*
X142368288Y-90868402D01*
X142401063Y-90889465D01*
X142402278Y-90887900D01*
X142408447Y-90892685D01*
X142549801Y-90976281D01*
X142707514Y-91022100D01*
X142707511Y-91022100D01*
X142709998Y-91022295D01*
X142710000Y-91022295D01*
X143210000Y-91022295D01*
X143210001Y-91022295D01*
X143212486Y-91022100D01*
X143370198Y-90976281D01*
X143511552Y-90892685D01*
X143517722Y-90887900D01*
X143519546Y-90890252D01*
X143568595Y-90863445D01*
X143638288Y-90868402D01*
X143671063Y-90889465D01*
X143672278Y-90887900D01*
X143678447Y-90892685D01*
X143819801Y-90976281D01*
X143977514Y-91022100D01*
X143977511Y-91022100D01*
X143979998Y-91022295D01*
X143980000Y-91022295D01*
X143980000Y-89750000D01*
X143210000Y-89750000D01*
X143210000Y-91022295D01*
X142710000Y-91022295D01*
X142710000Y-89750000D01*
X141940000Y-89750000D01*
X141940000Y-91022295D01*
X141440000Y-91022295D01*
X141440000Y-89750000D01*
X140670000Y-89750000D01*
X140670000Y-91022295D01*
X140170000Y-91022295D01*
X140170000Y-89750000D01*
X139400000Y-89750000D01*
X139400000Y-91022295D01*
X138900000Y-91022295D01*
X138900000Y-87977703D01*
X139400000Y-87977703D01*
X139400000Y-89250000D01*
X140170000Y-89250000D01*
X140170000Y-87977703D01*
X140670000Y-87977703D01*
X140670000Y-89250000D01*
X141440000Y-89250000D01*
X141440000Y-87977703D01*
X141940000Y-87977703D01*
X141940000Y-89250000D01*
X142710000Y-89250000D01*
X142710000Y-87977703D01*
X142707503Y-87977900D01*
X142549806Y-88023716D01*
X142549803Y-88023717D01*
X142408447Y-88107314D01*
X142402278Y-88112100D01*
X142400457Y-88109753D01*
X142351358Y-88136564D01*
X142281666Y-88131580D01*
X142248930Y-88110541D01*
X142247722Y-88112100D01*
X142241552Y-88107314D01*
X142100196Y-88023717D01*
X142100193Y-88023716D01*
X141942494Y-87977900D01*
X141942497Y-87977900D01*
X141940000Y-87977703D01*
X141440000Y-87977703D01*
X141437503Y-87977900D01*
X141279806Y-88023716D01*
X141279803Y-88023717D01*
X141138447Y-88107314D01*
X141132278Y-88112100D01*
X141130457Y-88109753D01*
X141081358Y-88136564D01*
X141011666Y-88131580D01*
X140978930Y-88110541D01*
X140977722Y-88112100D01*
X140971552Y-88107314D01*
X140830196Y-88023717D01*
X140830193Y-88023716D01*
X140672494Y-87977900D01*
X140672497Y-87977900D01*
X140670000Y-87977703D01*
X140170000Y-87977703D01*
X140167503Y-87977900D01*
X140009806Y-88023716D01*
X140009803Y-88023717D01*
X139868447Y-88107314D01*
X139862278Y-88112100D01*
X139860457Y-88109753D01*
X139811358Y-88136564D01*
X139741666Y-88131580D01*
X139708930Y-88110541D01*
X139707722Y-88112100D01*
X139701552Y-88107314D01*
X139560196Y-88023717D01*
X139560193Y-88023716D01*
X139402494Y-87977900D01*
X139402497Y-87977900D01*
X139400000Y-87977703D01*
X138900000Y-87977703D01*
X138900000Y-87977702D01*
X138867346Y-87947529D01*
X138831468Y-87887574D01*
X138827500Y-87856457D01*
X138827500Y-81843552D01*
X138847185Y-81776513D01*
X138867329Y-81752496D01*
X138900000Y-81722295D01*
X139400000Y-81722295D01*
X139400001Y-81722295D01*
X139402486Y-81722100D01*
X139560198Y-81676281D01*
X139701552Y-81592685D01*
X139707722Y-81587900D01*
X139709546Y-81590252D01*
X139758595Y-81563445D01*
X139828288Y-81568402D01*
X139861063Y-81589465D01*
X139862278Y-81587900D01*
X139868447Y-81592685D01*
X140009801Y-81676281D01*
X140167514Y-81722100D01*
X140167511Y-81722100D01*
X140169998Y-81722295D01*
X140170000Y-81722295D01*
X140670000Y-81722295D01*
X140670001Y-81722295D01*
X140672486Y-81722100D01*
X140830198Y-81676281D01*
X140971552Y-81592685D01*
X140977722Y-81587900D01*
X140979546Y-81590252D01*
X141028595Y-81563445D01*
X141098288Y-81568402D01*
X141131063Y-81589465D01*
X141132278Y-81587900D01*
X141138447Y-81592685D01*
X141279801Y-81676281D01*
X141437514Y-81722100D01*
X141437511Y-81722100D01*
X141439998Y-81722295D01*
X141440000Y-81722295D01*
X141940000Y-81722295D01*
X141940001Y-81722295D01*
X141942486Y-81722100D01*
X142100198Y-81676281D01*
X142241552Y-81592685D01*
X142247722Y-81587900D01*
X142249546Y-81590252D01*
X142298595Y-81563445D01*
X142368288Y-81568402D01*
X142401063Y-81589465D01*
X142402278Y-81587900D01*
X142408447Y-81592685D01*
X142549801Y-81676281D01*
X142707514Y-81722100D01*
X142707511Y-81722100D01*
X142709998Y-81722295D01*
X142710000Y-81722295D01*
X142710000Y-80450000D01*
X141940000Y-80450000D01*
X141940000Y-81722295D01*
X141440000Y-81722295D01*
X141440000Y-80450000D01*
X140670000Y-80450000D01*
X140670000Y-81722295D01*
X140170000Y-81722295D01*
X140170000Y-80450000D01*
X139400000Y-80450000D01*
X139400000Y-81722295D01*
X138900000Y-81722295D01*
X138900000Y-80074000D01*
X138919685Y-80006961D01*
X138972489Y-79961206D01*
X139024000Y-79950000D01*
X141440000Y-79950000D01*
X141440000Y-78677703D01*
X141940000Y-78677703D01*
X141940000Y-79950000D01*
X142710000Y-79950000D01*
X142710000Y-78677703D01*
X142707503Y-78677900D01*
X142549806Y-78723716D01*
X142549803Y-78723717D01*
X142408447Y-78807314D01*
X142402278Y-78812100D01*
X142400457Y-78809753D01*
X142351358Y-78836564D01*
X142281666Y-78831580D01*
X142248930Y-78810541D01*
X142247722Y-78812100D01*
X142241552Y-78807314D01*
X142100196Y-78723717D01*
X142100193Y-78723716D01*
X141942494Y-78677900D01*
X141942497Y-78677900D01*
X141940000Y-78677703D01*
X141440000Y-78677703D01*
X141437503Y-78677900D01*
X141279806Y-78723716D01*
X141279803Y-78723717D01*
X141138447Y-78807314D01*
X141132278Y-78812100D01*
X141130457Y-78809753D01*
X141081358Y-78836564D01*
X141011666Y-78831580D01*
X140978930Y-78810541D01*
X140977722Y-78812100D01*
X140971553Y-78807315D01*
X140920543Y-78777148D01*
X140872860Y-78726079D01*
X140860356Y-78657337D01*
X140887001Y-78592748D01*
X140895974Y-78582742D01*
X143057818Y-76420817D01*
X143119140Y-76387333D01*
X143188831Y-76392316D01*
G37*
%TD.AperFunction*%
%TA.AperFunction,Conductor*%
G36*
X138128703Y-109944476D02*
G01*
X138135181Y-109950508D01*
X142901181Y-114716508D01*
X142934666Y-114777831D01*
X142937500Y-114804189D01*
X142937500Y-120640852D01*
X142959682Y-120723640D01*
X142969638Y-120740883D01*
X143002535Y-120797862D01*
X143002537Y-120797864D01*
X143793655Y-121588982D01*
X143827140Y-121650305D01*
X143822156Y-121719997D01*
X143784639Y-121772516D01*
X143679116Y-121859116D01*
X143554090Y-122011460D01*
X143554086Y-122011467D01*
X143461188Y-122185266D01*
X143403975Y-122373870D01*
X143389778Y-122518018D01*
X143363617Y-122582805D01*
X143306582Y-122623163D01*
X143236782Y-122626280D01*
X143178700Y-122593551D01*
X139686301Y-119101688D01*
X139652812Y-119040367D01*
X139657791Y-118970675D01*
X139699658Y-118914739D01*
X139740496Y-118899503D01*
X139750000Y-118890000D01*
X139750000Y-117973012D01*
X139807007Y-118005925D01*
X139934174Y-118040000D01*
X140065826Y-118040000D01*
X140192993Y-118005925D01*
X140250000Y-117973012D01*
X140250000Y-118890000D01*
X140897828Y-118890000D01*
X140897844Y-118889999D01*
X140957372Y-118883598D01*
X140957379Y-118883596D01*
X141092086Y-118833354D01*
X141092093Y-118833350D01*
X141207187Y-118747190D01*
X141207190Y-118747187D01*
X141293350Y-118632093D01*
X141293354Y-118632086D01*
X141343596Y-118497379D01*
X141343598Y-118497372D01*
X141349999Y-118437844D01*
X141350000Y-118437827D01*
X141350000Y-117790000D01*
X140433012Y-117790000D01*
X140465925Y-117732993D01*
X140500000Y-117605826D01*
X140500000Y-117474174D01*
X140465925Y-117347007D01*
X140433012Y-117290000D01*
X141350000Y-117290000D01*
X141350000Y-116642172D01*
X141349999Y-116642155D01*
X141343598Y-116582627D01*
X141343596Y-116582620D01*
X141293354Y-116447913D01*
X141293350Y-116447906D01*
X141207190Y-116332812D01*
X141207187Y-116332809D01*
X141092093Y-116246649D01*
X141092086Y-116246645D01*
X140957379Y-116196403D01*
X140957372Y-116196401D01*
X140897844Y-116190000D01*
X140497187Y-116190000D01*
X140430148Y-116170315D01*
X140384393Y-116117511D01*
X140374449Y-116048353D01*
X140403474Y-115984797D01*
X140438733Y-115956642D01*
X140441169Y-115955340D01*
X140586450Y-115877685D01*
X140746410Y-115746410D01*
X140877685Y-115586450D01*
X140975232Y-115403954D01*
X141035300Y-115205934D01*
X141055583Y-115000000D01*
X141035300Y-114794066D01*
X140975232Y-114596046D01*
X140877685Y-114413550D01*
X140825702Y-114350209D01*
X140746410Y-114253589D01*
X140586452Y-114122317D01*
X140586453Y-114122317D01*
X140586450Y-114122315D01*
X140403954Y-114024768D01*
X140205934Y-113964700D01*
X140205932Y-113964699D01*
X140205934Y-113964699D01*
X140000000Y-113944417D01*
X139794067Y-113964699D01*
X139667084Y-114003219D01*
X139607855Y-114021186D01*
X139596043Y-114024769D01*
X139535647Y-114057052D01*
X139413550Y-114122315D01*
X139413548Y-114122316D01*
X139413547Y-114122317D01*
X139253589Y-114253589D01*
X139122317Y-114413547D01*
X139024769Y-114596043D01*
X138964699Y-114794067D01*
X138944417Y-115000000D01*
X138964699Y-115205932D01*
X138964700Y-115205934D01*
X139024768Y-115403954D01*
X139122315Y-115586450D01*
X139122317Y-115586452D01*
X139253589Y-115746410D01*
X139350209Y-115825702D01*
X139413550Y-115877685D01*
X139522694Y-115936024D01*
X139561267Y-115956642D01*
X139611111Y-116005605D01*
X139626571Y-116073743D01*
X139602739Y-116139422D01*
X139547181Y-116181791D01*
X139502813Y-116190000D01*
X139102155Y-116190000D01*
X139042627Y-116196401D01*
X139042620Y-116196403D01*
X138907913Y-116246645D01*
X138907906Y-116246649D01*
X138792812Y-116332809D01*
X138792809Y-116332812D01*
X138706649Y-116447906D01*
X138706645Y-116447913D01*
X138656403Y-116582620D01*
X138656401Y-116582627D01*
X138650000Y-116642155D01*
X138650000Y-117290000D01*
X139566988Y-117290000D01*
X139534075Y-117347007D01*
X139500000Y-117474174D01*
X139500000Y-117605826D01*
X139534075Y-117732993D01*
X139566988Y-117790000D01*
X138650000Y-117790000D01*
X138640113Y-117799886D01*
X138630315Y-117833255D01*
X138577511Y-117879010D01*
X138508353Y-117888954D01*
X138444797Y-117859929D01*
X138438326Y-117853904D01*
X137959826Y-117375478D01*
X137926336Y-117314157D01*
X137923500Y-117287790D01*
X137923500Y-110038189D01*
X137943185Y-109971150D01*
X137995989Y-109925395D01*
X138065147Y-109915451D01*
X138128703Y-109944476D01*
G37*
%TD.AperFunction*%
%TA.AperFunction,Conductor*%
G36*
X155937921Y-96006251D02*
G01*
X155980290Y-96061808D01*
X155988500Y-96106177D01*
X155988500Y-96668045D01*
X155988499Y-96753749D01*
X155988499Y-96753753D01*
X156002802Y-96807133D01*
X156010681Y-96836536D01*
X156010683Y-96836541D01*
X156053532Y-96910758D01*
X156053536Y-96910763D01*
X156079939Y-96937166D01*
X160457255Y-101314570D01*
X160490739Y-101375893D01*
X160489780Y-101389292D01*
X160547567Y-101407954D01*
X160565441Y-101422758D01*
X160882182Y-101739505D01*
X160915666Y-101800828D01*
X160918500Y-101827185D01*
X160918500Y-103970410D01*
X160898815Y-104037449D01*
X160846011Y-104083204D01*
X160776853Y-104093148D01*
X160713297Y-104064123D01*
X160692925Y-104041534D01*
X160629657Y-103951179D01*
X160468820Y-103790342D01*
X160282482Y-103659865D01*
X160076328Y-103563734D01*
X159880000Y-103511127D01*
X159880000Y-104356988D01*
X159822993Y-104324075D01*
X159695826Y-104290000D01*
X159564174Y-104290000D01*
X159437007Y-104324075D01*
X159380000Y-104356988D01*
X159380000Y-103511127D01*
X159183671Y-103563734D01*
X158977517Y-103659865D01*
X158791179Y-103790342D01*
X158630342Y-103951179D01*
X158499865Y-104137517D01*
X158403734Y-104343673D01*
X158403730Y-104343682D01*
X158351127Y-104539999D01*
X158351128Y-104540000D01*
X159196988Y-104540000D01*
X159164075Y-104597007D01*
X159130000Y-104724174D01*
X159130000Y-104855826D01*
X159164075Y-104982993D01*
X159196988Y-105040000D01*
X158351128Y-105040000D01*
X158403730Y-105236317D01*
X158403734Y-105236326D01*
X158499865Y-105442482D01*
X158630342Y-105628820D01*
X158791179Y-105789657D01*
X158977517Y-105920134D01*
X159183673Y-106016265D01*
X159183682Y-106016269D01*
X159379999Y-106068872D01*
X159380000Y-106068871D01*
X159380000Y-105223012D01*
X159437007Y-105255925D01*
X159564174Y-105290000D01*
X159695826Y-105290000D01*
X159822993Y-105255925D01*
X159880000Y-105223012D01*
X159880000Y-106068872D01*
X160076317Y-106016269D01*
X160076326Y-106016265D01*
X160282482Y-105920134D01*
X160468820Y-105789657D01*
X160629660Y-105628817D01*
X160692925Y-105538466D01*
X160747502Y-105494841D01*
X160817000Y-105487647D01*
X160879355Y-105519170D01*
X160914769Y-105579400D01*
X160918500Y-105609589D01*
X160918500Y-111338811D01*
X160898815Y-111405850D01*
X160846011Y-111451605D01*
X160776853Y-111461549D01*
X160713297Y-111432524D01*
X160706819Y-111426492D01*
X160174107Y-110893780D01*
X160140622Y-110832457D01*
X160145606Y-110762765D01*
X160184585Y-110710696D01*
X160183829Y-110709775D01*
X160340883Y-110580883D01*
X160465909Y-110428539D01*
X160465913Y-110428532D01*
X160467346Y-110425852D01*
X160548245Y-110274500D01*
X160558811Y-110254733D01*
X160558811Y-110254732D01*
X160558814Y-110254727D01*
X160616024Y-110066132D01*
X160635341Y-109870000D01*
X160616024Y-109673868D01*
X160558814Y-109485273D01*
X160558811Y-109485269D01*
X160558811Y-109485266D01*
X160465913Y-109311467D01*
X160465909Y-109311460D01*
X160340883Y-109159116D01*
X160188539Y-109034090D01*
X160188532Y-109034086D01*
X160014733Y-108941188D01*
X160014727Y-108941186D01*
X159826132Y-108883976D01*
X159826129Y-108883975D01*
X159630000Y-108864659D01*
X159433870Y-108883975D01*
X159245266Y-108941188D01*
X159071467Y-109034086D01*
X159071460Y-109034090D01*
X158919116Y-109159116D01*
X158794090Y-109311460D01*
X158794086Y-109311467D01*
X158701188Y-109485266D01*
X158643975Y-109673870D01*
X158624659Y-109870000D01*
X158643975Y-110066129D01*
X158701188Y-110254733D01*
X158794086Y-110428532D01*
X158794090Y-110428539D01*
X158919116Y-110580883D01*
X159071460Y-110705909D01*
X159071467Y-110705913D01*
X159250091Y-110801390D01*
X159299935Y-110850352D01*
X159311413Y-110878654D01*
X159326682Y-110935640D01*
X159348108Y-110972750D01*
X159369535Y-111009862D01*
X159369537Y-111009864D01*
X159566901Y-111207228D01*
X159600386Y-111268551D01*
X159595402Y-111338243D01*
X159553530Y-111394176D01*
X159491374Y-111418312D01*
X159433870Y-111423975D01*
X159245266Y-111481188D01*
X159071467Y-111574086D01*
X159071460Y-111574090D01*
X158919116Y-111699116D01*
X158794090Y-111851460D01*
X158794086Y-111851467D01*
X158701188Y-112025266D01*
X158643975Y-112213870D01*
X158624659Y-112410000D01*
X158643975Y-112606129D01*
X158643976Y-112606132D01*
X158690154Y-112758361D01*
X158701188Y-112794733D01*
X158794086Y-112968532D01*
X158794090Y-112968539D01*
X158919116Y-113120883D01*
X159071460Y-113245909D01*
X159071467Y-113245913D01*
X159245266Y-113338811D01*
X159245269Y-113338811D01*
X159245273Y-113338814D01*
X159433868Y-113396024D01*
X159630000Y-113415341D01*
X159826132Y-113396024D01*
X160014727Y-113338814D01*
X160188538Y-113245910D01*
X160235836Y-113207092D01*
X160300144Y-113179781D01*
X160369012Y-113191572D01*
X160420572Y-113238723D01*
X160438500Y-113302947D01*
X160438500Y-114057052D01*
X160418815Y-114124091D01*
X160366011Y-114169846D01*
X160296853Y-114179790D01*
X160235835Y-114152905D01*
X160188539Y-114114091D01*
X160188532Y-114114086D01*
X160014733Y-114021188D01*
X160014727Y-114021186D01*
X159864454Y-113975601D01*
X159826129Y-113963975D01*
X159630000Y-113944659D01*
X159433870Y-113963975D01*
X159245266Y-114021188D01*
X159071467Y-114114086D01*
X159071460Y-114114090D01*
X158919116Y-114239116D01*
X158794090Y-114391460D01*
X158794086Y-114391467D01*
X158701188Y-114565266D01*
X158643975Y-114753870D01*
X158629794Y-114897857D01*
X158603633Y-114962645D01*
X158546598Y-115003003D01*
X158476798Y-115006120D01*
X158418710Y-114973384D01*
X155959181Y-112513855D01*
X153361819Y-109916492D01*
X153328334Y-109855169D01*
X153325500Y-109828811D01*
X153325500Y-107330000D01*
X158624659Y-107330000D01*
X158643975Y-107526129D01*
X158701188Y-107714733D01*
X158794086Y-107888532D01*
X158794090Y-107888539D01*
X158919116Y-108040883D01*
X159071460Y-108165909D01*
X159071467Y-108165913D01*
X159245266Y-108258811D01*
X159245269Y-108258811D01*
X159245273Y-108258814D01*
X159433868Y-108316024D01*
X159630000Y-108335341D01*
X159826132Y-108316024D01*
X160014727Y-108258814D01*
X160188538Y-108165910D01*
X160340883Y-108040883D01*
X160465910Y-107888538D01*
X160558814Y-107714727D01*
X160616024Y-107526132D01*
X160635341Y-107330000D01*
X160616024Y-107133868D01*
X160558814Y-106945273D01*
X160558811Y-106945269D01*
X160558811Y-106945266D01*
X160465913Y-106771467D01*
X160465909Y-106771460D01*
X160340883Y-106619116D01*
X160188539Y-106494090D01*
X160188532Y-106494086D01*
X160014733Y-106401188D01*
X160014727Y-106401186D01*
X159826132Y-106343976D01*
X159826129Y-106343975D01*
X159630000Y-106324659D01*
X159433870Y-106343975D01*
X159245266Y-106401188D01*
X159071467Y-106494086D01*
X159071460Y-106494090D01*
X158919116Y-106619116D01*
X158794090Y-106771460D01*
X158794086Y-106771467D01*
X158701188Y-106945266D01*
X158643975Y-107133870D01*
X158624659Y-107330000D01*
X153325500Y-107330000D01*
X153325500Y-103339764D01*
X153345185Y-103272725D01*
X153397989Y-103226970D01*
X153467147Y-103217026D01*
X153496952Y-103225203D01*
X153529943Y-103238868D01*
X153576238Y-103258044D01*
X153654619Y-103268363D01*
X153732999Y-103278682D01*
X153733000Y-103278682D01*
X153733001Y-103278682D01*
X153785254Y-103271802D01*
X153889762Y-103258044D01*
X154035841Y-103197536D01*
X154161282Y-103101282D01*
X154257536Y-102975841D01*
X154318044Y-102829762D01*
X154338682Y-102673000D01*
X154318044Y-102516238D01*
X154257536Y-102370159D01*
X154165335Y-102250000D01*
X158624659Y-102250000D01*
X158643975Y-102446129D01*
X158643976Y-102446132D01*
X158693367Y-102608953D01*
X158701188Y-102634733D01*
X158794086Y-102808532D01*
X158794090Y-102808539D01*
X158919116Y-102960883D01*
X159071460Y-103085909D01*
X159071467Y-103085913D01*
X159245266Y-103178811D01*
X159245269Y-103178811D01*
X159245273Y-103178814D01*
X159433868Y-103236024D01*
X159630000Y-103255341D01*
X159826132Y-103236024D01*
X160014727Y-103178814D01*
X160188538Y-103085910D01*
X160340883Y-102960883D01*
X160465910Y-102808538D01*
X160558814Y-102634727D01*
X160616024Y-102446132D01*
X160635341Y-102250000D01*
X160616024Y-102053868D01*
X160558814Y-101865273D01*
X160558811Y-101865269D01*
X160558811Y-101865266D01*
X160465913Y-101691467D01*
X160465909Y-101691460D01*
X160381906Y-101589103D01*
X160354593Y-101524793D01*
X160355260Y-101520896D01*
X160310145Y-101511082D01*
X160290908Y-101498103D01*
X160188539Y-101414090D01*
X160188532Y-101414086D01*
X160014733Y-101321188D01*
X160014727Y-101321186D01*
X159826132Y-101263976D01*
X159826129Y-101263975D01*
X159630000Y-101244659D01*
X159433870Y-101263975D01*
X159245266Y-101321188D01*
X159071467Y-101414086D01*
X159071460Y-101414090D01*
X158919116Y-101539116D01*
X158794090Y-101691460D01*
X158794086Y-101691467D01*
X158701188Y-101865266D01*
X158643975Y-102053870D01*
X158624659Y-102250000D01*
X154165335Y-102250000D01*
X154161282Y-102244718D01*
X154161280Y-102244716D01*
X154161279Y-102244715D01*
X154107012Y-102203074D01*
X154065810Y-102146646D01*
X154058500Y-102104699D01*
X154058500Y-96498692D01*
X154078185Y-96431653D01*
X154130989Y-96385898D01*
X154200147Y-96375954D01*
X154261165Y-96402839D01*
X154301460Y-96435909D01*
X154301467Y-96435913D01*
X154475266Y-96528811D01*
X154475269Y-96528811D01*
X154475273Y-96528814D01*
X154663868Y-96586024D01*
X154860000Y-96605341D01*
X155056132Y-96586024D01*
X155244727Y-96528814D01*
X155299572Y-96499499D01*
X155404611Y-96443354D01*
X155418538Y-96435910D01*
X155570883Y-96310883D01*
X155695910Y-96158538D01*
X155732895Y-96089344D01*
X155755142Y-96047724D01*
X155804104Y-95997880D01*
X155872242Y-95982419D01*
X155937921Y-96006251D01*
G37*
%TD.AperFunction*%
%TA.AperFunction,Conductor*%
G36*
X143784114Y-71419185D02*
G01*
X143829869Y-71471989D01*
X143839813Y-71541147D01*
X143810788Y-71604703D01*
X143752010Y-71642477D01*
X143749171Y-71643274D01*
X143746402Y-71644016D01*
X143746380Y-71644022D01*
X143704389Y-71655265D01*
X143666856Y-71676935D01*
X143666839Y-71676945D01*
X143630161Y-71698111D01*
X143597846Y-71730426D01*
X142887781Y-72440205D01*
X142887670Y-72440303D01*
X142851430Y-72476542D01*
X142851416Y-72476555D01*
X142821551Y-72506408D01*
X142799953Y-72543817D01*
X142799943Y-72543835D01*
X142797689Y-72547738D01*
X142778689Y-72580631D01*
X142770886Y-72609751D01*
X142734519Y-72669410D01*
X142671671Y-72699936D01*
X142602295Y-72691638D01*
X142548419Y-72647151D01*
X142541754Y-72636104D01*
X142525911Y-72606463D01*
X142525909Y-72606460D01*
X142400883Y-72454116D01*
X142248539Y-72329090D01*
X142248532Y-72329086D01*
X142074733Y-72236188D01*
X142074727Y-72236186D01*
X141886132Y-72178976D01*
X141886129Y-72178975D01*
X141690000Y-72159659D01*
X141493870Y-72178975D01*
X141305266Y-72236188D01*
X141131467Y-72329086D01*
X141131460Y-72329090D01*
X140979116Y-72454116D01*
X140854090Y-72606460D01*
X140854086Y-72606467D01*
X140761188Y-72780266D01*
X140703975Y-72968870D01*
X140693725Y-73072945D01*
X140667564Y-73137732D01*
X140628459Y-73165402D01*
X140659383Y-73182930D01*
X140691891Y-73244776D01*
X140693725Y-73257055D01*
X140703975Y-73361129D01*
X140703976Y-73361132D01*
X140759106Y-73542870D01*
X140759729Y-73612735D01*
X140728126Y-73666545D01*
X140517849Y-73876823D01*
X140456526Y-73910308D01*
X140386835Y-73905324D01*
X140330901Y-73863453D01*
X140306484Y-73797988D01*
X140317786Y-73736737D01*
X140376265Y-73611326D01*
X140376269Y-73611317D01*
X140435139Y-73391610D01*
X140435141Y-73391599D01*
X140446794Y-73258402D01*
X140472246Y-73193333D01*
X140512031Y-73164524D01*
X140480325Y-73146092D01*
X140448493Y-73083894D01*
X140446794Y-73071597D01*
X140435141Y-72938400D01*
X140435139Y-72938389D01*
X140376269Y-72718682D01*
X140376264Y-72718668D01*
X140280136Y-72512521D01*
X140280132Y-72512513D01*
X140229025Y-72439526D01*
X139632962Y-73035589D01*
X139615925Y-72972007D01*
X139550099Y-72857993D01*
X139457007Y-72764901D01*
X139342993Y-72699075D01*
X139279410Y-72682037D01*
X139875472Y-72085974D01*
X139802478Y-72034863D01*
X139596331Y-71938735D01*
X139596317Y-71938730D01*
X139376610Y-71879860D01*
X139376599Y-71879858D01*
X139150002Y-71860034D01*
X139149998Y-71860034D01*
X138923400Y-71879858D01*
X138923389Y-71879860D01*
X138703682Y-71938730D01*
X138703673Y-71938734D01*
X138497516Y-72034866D01*
X138497512Y-72034868D01*
X138424526Y-72085973D01*
X138424526Y-72085974D01*
X139020590Y-72682037D01*
X138957007Y-72699075D01*
X138842993Y-72764901D01*
X138749901Y-72857993D01*
X138684075Y-72972007D01*
X138667037Y-73035589D01*
X138070974Y-72439526D01*
X138070973Y-72439526D01*
X138019868Y-72512512D01*
X138019866Y-72512516D01*
X137923734Y-72718673D01*
X137923730Y-72718682D01*
X137864860Y-72938389D01*
X137864858Y-72938400D01*
X137845034Y-73164997D01*
X137845034Y-73165002D01*
X137864858Y-73391599D01*
X137864860Y-73391610D01*
X137923730Y-73611317D01*
X137923735Y-73611331D01*
X138019863Y-73817478D01*
X138070974Y-73890472D01*
X138667037Y-73294409D01*
X138684075Y-73357993D01*
X138749901Y-73472007D01*
X138842993Y-73565099D01*
X138957007Y-73630925D01*
X139020590Y-73647962D01*
X138424526Y-74244025D01*
X138497513Y-74295132D01*
X138497521Y-74295136D01*
X138703668Y-74391264D01*
X138703682Y-74391269D01*
X138923389Y-74450139D01*
X138923400Y-74450141D01*
X139056597Y-74461794D01*
X139121666Y-74487246D01*
X139150474Y-74527031D01*
X139168907Y-74495325D01*
X139231104Y-74463494D01*
X139243402Y-74461794D01*
X139376599Y-74450141D01*
X139376610Y-74450139D01*
X139596317Y-74391269D01*
X139596326Y-74391265D01*
X139802483Y-74295133D01*
X139802489Y-74295130D01*
X139914864Y-74216443D01*
X139981070Y-74194115D01*
X140048837Y-74211125D01*
X140096650Y-74262072D01*
X140109329Y-74330782D01*
X140105764Y-74350108D01*
X140094500Y-74392147D01*
X140094500Y-74392149D01*
X140094500Y-74932222D01*
X140074815Y-74999261D01*
X140022011Y-75045016D01*
X139952853Y-75054960D01*
X139889297Y-75025935D01*
X139874648Y-75010888D01*
X139860884Y-74994117D01*
X139708539Y-74869090D01*
X139708532Y-74869086D01*
X139534733Y-74776188D01*
X139534727Y-74776186D01*
X139406755Y-74737366D01*
X139346129Y-74718975D01*
X139242055Y-74708725D01*
X139177267Y-74682564D01*
X139149596Y-74643459D01*
X139132069Y-74674383D01*
X139070223Y-74706891D01*
X139057945Y-74708725D01*
X138953870Y-74718975D01*
X138765266Y-74776188D01*
X138591467Y-74869086D01*
X138591460Y-74869090D01*
X138439116Y-74994116D01*
X138314090Y-75146460D01*
X138314086Y-75146467D01*
X138221188Y-75320266D01*
X138163975Y-75508870D01*
X138144659Y-75705000D01*
X138163975Y-75901129D01*
X138163976Y-75901132D01*
X138202172Y-76027048D01*
X138221188Y-76089733D01*
X138314086Y-76263532D01*
X138314090Y-76263539D01*
X138439116Y-76415883D01*
X138591460Y-76540909D01*
X138591467Y-76540913D01*
X138765266Y-76633811D01*
X138765269Y-76633811D01*
X138765273Y-76633814D01*
X138953868Y-76691024D01*
X139061383Y-76701613D01*
X139126170Y-76727774D01*
X139166529Y-76784808D01*
X139169646Y-76854608D01*
X139136916Y-76912692D01*
X138763485Y-77286171D01*
X138702164Y-77319660D01*
X138675778Y-77322494D01*
X138659206Y-77322492D01*
X138659205Y-77322492D01*
X138659204Y-77322492D01*
X138659147Y-77322499D01*
X138617074Y-77333772D01*
X138617060Y-77333776D01*
X138576386Y-77344668D01*
X138537426Y-77367161D01*
X138537410Y-77367170D01*
X138502154Y-77387517D01*
X138469132Y-77420539D01*
X137403313Y-78485971D01*
X137403196Y-78486075D01*
X137397174Y-78492097D01*
X137395403Y-78493063D01*
X137393303Y-78494947D01*
X137393242Y-78494996D01*
X137392821Y-78494472D01*
X137335848Y-78525577D01*
X137266157Y-78520587D01*
X137210227Y-78478711D01*
X137185815Y-78413245D01*
X137185500Y-78404409D01*
X137185500Y-71523500D01*
X137205185Y-71456461D01*
X137257989Y-71410706D01*
X137309500Y-71399500D01*
X143717075Y-71399500D01*
X143784114Y-71419185D01*
G37*
%TD.AperFunction*%
%TD*%
M02*
