%TF.GenerationSoftware,KiCad,Pcbnew,8.0.4*%
%TF.CreationDate,2025-04-29T00:29:36-04:00*%
%TF.ProjectId,main_board,6d61696e-5f62-46f6-9172-642e6b696361,rev?*%
%TF.SameCoordinates,Original*%
%TF.FileFunction,Legend,Top*%
%TF.FilePolarity,Positive*%
%FSLAX46Y46*%
G04 Gerber Fmt 4.6, Leading zero omitted, Abs format (unit mm)*
G04 Created by KiCad (PCBNEW 8.0.4) date 2025-04-29 00:29:36*
%MOMM*%
%LPD*%
G01*
G04 APERTURE LIST*
%ADD10C,0.120000*%
%ADD11C,0.300000*%
%ADD12C,0.150000*%
G04 APERTURE END LIST*
D10*
X152920000Y-146325000D02*
X163080000Y-146325000D01*
X163080000Y-148865000D01*
X152920000Y-148865000D01*
X152920000Y-146325000D01*
D11*
X139178328Y-136785713D02*
X140678328Y-136285713D01*
X140678328Y-136285713D02*
X139178328Y-135785713D01*
X139178328Y-134999999D02*
X139178328Y-134857142D01*
X139178328Y-134857142D02*
X139249757Y-134714285D01*
X139249757Y-134714285D02*
X139321185Y-134642857D01*
X139321185Y-134642857D02*
X139464042Y-134571428D01*
X139464042Y-134571428D02*
X139749757Y-134499999D01*
X139749757Y-134499999D02*
X140106900Y-134499999D01*
X140106900Y-134499999D02*
X140392614Y-134571428D01*
X140392614Y-134571428D02*
X140535471Y-134642857D01*
X140535471Y-134642857D02*
X140606900Y-134714285D01*
X140606900Y-134714285D02*
X140678328Y-134857142D01*
X140678328Y-134857142D02*
X140678328Y-134999999D01*
X140678328Y-134999999D02*
X140606900Y-135142857D01*
X140606900Y-135142857D02*
X140535471Y-135214285D01*
X140535471Y-135214285D02*
X140392614Y-135285714D01*
X140392614Y-135285714D02*
X140106900Y-135357142D01*
X140106900Y-135357142D02*
X139749757Y-135357142D01*
X139749757Y-135357142D02*
X139464042Y-135285714D01*
X139464042Y-135285714D02*
X139321185Y-135214285D01*
X139321185Y-135214285D02*
X139249757Y-135142857D01*
X139249757Y-135142857D02*
X139178328Y-134999999D01*
X140535471Y-133857143D02*
X140606900Y-133785714D01*
X140606900Y-133785714D02*
X140678328Y-133857143D01*
X140678328Y-133857143D02*
X140606900Y-133928571D01*
X140606900Y-133928571D02*
X140535471Y-133857143D01*
X140535471Y-133857143D02*
X140678328Y-133857143D01*
X139178328Y-132428571D02*
X139178328Y-133142857D01*
X139178328Y-133142857D02*
X139892614Y-133214285D01*
X139892614Y-133214285D02*
X139821185Y-133142857D01*
X139821185Y-133142857D02*
X139749757Y-133000000D01*
X139749757Y-133000000D02*
X139749757Y-132642857D01*
X139749757Y-132642857D02*
X139821185Y-132500000D01*
X139821185Y-132500000D02*
X139892614Y-132428571D01*
X139892614Y-132428571D02*
X140035471Y-132357142D01*
X140035471Y-132357142D02*
X140392614Y-132357142D01*
X140392614Y-132357142D02*
X140535471Y-132428571D01*
X140535471Y-132428571D02*
X140606900Y-132500000D01*
X140606900Y-132500000D02*
X140678328Y-132642857D01*
X140678328Y-132642857D02*
X140678328Y-133000000D01*
X140678328Y-133000000D02*
X140606900Y-133142857D01*
X140606900Y-133142857D02*
X140535471Y-133214285D01*
D12*
X151109046Y-149594819D02*
X151109046Y-150404342D01*
X151109046Y-150404342D02*
X151156665Y-150499580D01*
X151156665Y-150499580D02*
X151204284Y-150547200D01*
X151204284Y-150547200D02*
X151299522Y-150594819D01*
X151299522Y-150594819D02*
X151489998Y-150594819D01*
X151489998Y-150594819D02*
X151585236Y-150547200D01*
X151585236Y-150547200D02*
X151632855Y-150499580D01*
X151632855Y-150499580D02*
X151680474Y-150404342D01*
X151680474Y-150404342D02*
X151680474Y-149594819D01*
X152299522Y-150594819D02*
X152204284Y-150547200D01*
X152204284Y-150547200D02*
X152156665Y-150451961D01*
X152156665Y-150451961D02*
X152156665Y-149594819D01*
X152537618Y-149928152D02*
X152918570Y-149928152D01*
X152680475Y-149594819D02*
X152680475Y-150451961D01*
X152680475Y-150451961D02*
X152728094Y-150547200D01*
X152728094Y-150547200D02*
X152823332Y-150594819D01*
X152823332Y-150594819D02*
X152918570Y-150594819D01*
X153251904Y-150594819D02*
X153251904Y-149928152D01*
X153251904Y-150118628D02*
X153299523Y-150023390D01*
X153299523Y-150023390D02*
X153347142Y-149975771D01*
X153347142Y-149975771D02*
X153442380Y-149928152D01*
X153442380Y-149928152D02*
X153537618Y-149928152D01*
X154299523Y-150594819D02*
X154299523Y-150071009D01*
X154299523Y-150071009D02*
X154251904Y-149975771D01*
X154251904Y-149975771D02*
X154156666Y-149928152D01*
X154156666Y-149928152D02*
X153966190Y-149928152D01*
X153966190Y-149928152D02*
X153870952Y-149975771D01*
X154299523Y-150547200D02*
X154204285Y-150594819D01*
X154204285Y-150594819D02*
X153966190Y-150594819D01*
X153966190Y-150594819D02*
X153870952Y-150547200D01*
X153870952Y-150547200D02*
X153823333Y-150451961D01*
X153823333Y-150451961D02*
X153823333Y-150356723D01*
X153823333Y-150356723D02*
X153870952Y-150261485D01*
X153870952Y-150261485D02*
X153966190Y-150213866D01*
X153966190Y-150213866D02*
X154204285Y-150213866D01*
X154204285Y-150213866D02*
X154299523Y-150166247D01*
X154728095Y-150547200D02*
X154823333Y-150594819D01*
X154823333Y-150594819D02*
X155013809Y-150594819D01*
X155013809Y-150594819D02*
X155109047Y-150547200D01*
X155109047Y-150547200D02*
X155156666Y-150451961D01*
X155156666Y-150451961D02*
X155156666Y-150404342D01*
X155156666Y-150404342D02*
X155109047Y-150309104D01*
X155109047Y-150309104D02*
X155013809Y-150261485D01*
X155013809Y-150261485D02*
X154870952Y-150261485D01*
X154870952Y-150261485D02*
X154775714Y-150213866D01*
X154775714Y-150213866D02*
X154728095Y-150118628D01*
X154728095Y-150118628D02*
X154728095Y-150071009D01*
X154728095Y-150071009D02*
X154775714Y-149975771D01*
X154775714Y-149975771D02*
X154870952Y-149928152D01*
X154870952Y-149928152D02*
X155013809Y-149928152D01*
X155013809Y-149928152D02*
X155109047Y-149975771D01*
X155728095Y-150594819D02*
X155632857Y-150547200D01*
X155632857Y-150547200D02*
X155585238Y-150499580D01*
X155585238Y-150499580D02*
X155537619Y-150404342D01*
X155537619Y-150404342D02*
X155537619Y-150118628D01*
X155537619Y-150118628D02*
X155585238Y-150023390D01*
X155585238Y-150023390D02*
X155632857Y-149975771D01*
X155632857Y-149975771D02*
X155728095Y-149928152D01*
X155728095Y-149928152D02*
X155870952Y-149928152D01*
X155870952Y-149928152D02*
X155966190Y-149975771D01*
X155966190Y-149975771D02*
X156013809Y-150023390D01*
X156013809Y-150023390D02*
X156061428Y-150118628D01*
X156061428Y-150118628D02*
X156061428Y-150404342D01*
X156061428Y-150404342D02*
X156013809Y-150499580D01*
X156013809Y-150499580D02*
X155966190Y-150547200D01*
X155966190Y-150547200D02*
X155870952Y-150594819D01*
X155870952Y-150594819D02*
X155728095Y-150594819D01*
X156490000Y-149928152D02*
X156490000Y-150594819D01*
X156490000Y-150023390D02*
X156537619Y-149975771D01*
X156537619Y-149975771D02*
X156632857Y-149928152D01*
X156632857Y-149928152D02*
X156775714Y-149928152D01*
X156775714Y-149928152D02*
X156870952Y-149975771D01*
X156870952Y-149975771D02*
X156918571Y-150071009D01*
X156918571Y-150071009D02*
X156918571Y-150594819D01*
X157394762Y-150594819D02*
X157394762Y-149928152D01*
X157394762Y-149594819D02*
X157347143Y-149642438D01*
X157347143Y-149642438D02*
X157394762Y-149690057D01*
X157394762Y-149690057D02*
X157442381Y-149642438D01*
X157442381Y-149642438D02*
X157394762Y-149594819D01*
X157394762Y-149594819D02*
X157394762Y-149690057D01*
X158299523Y-150547200D02*
X158204285Y-150594819D01*
X158204285Y-150594819D02*
X158013809Y-150594819D01*
X158013809Y-150594819D02*
X157918571Y-150547200D01*
X157918571Y-150547200D02*
X157870952Y-150499580D01*
X157870952Y-150499580D02*
X157823333Y-150404342D01*
X157823333Y-150404342D02*
X157823333Y-150118628D01*
X157823333Y-150118628D02*
X157870952Y-150023390D01*
X157870952Y-150023390D02*
X157918571Y-149975771D01*
X157918571Y-149975771D02*
X158013809Y-149928152D01*
X158013809Y-149928152D02*
X158204285Y-149928152D01*
X158204285Y-149928152D02*
X158299523Y-149975771D01*
X158490000Y-150690057D02*
X159251904Y-150690057D01*
X159442381Y-150547200D02*
X159537619Y-150594819D01*
X159537619Y-150594819D02*
X159728095Y-150594819D01*
X159728095Y-150594819D02*
X159823333Y-150547200D01*
X159823333Y-150547200D02*
X159870952Y-150451961D01*
X159870952Y-150451961D02*
X159870952Y-150404342D01*
X159870952Y-150404342D02*
X159823333Y-150309104D01*
X159823333Y-150309104D02*
X159728095Y-150261485D01*
X159728095Y-150261485D02*
X159585238Y-150261485D01*
X159585238Y-150261485D02*
X159490000Y-150213866D01*
X159490000Y-150213866D02*
X159442381Y-150118628D01*
X159442381Y-150118628D02*
X159442381Y-150071009D01*
X159442381Y-150071009D02*
X159490000Y-149975771D01*
X159490000Y-149975771D02*
X159585238Y-149928152D01*
X159585238Y-149928152D02*
X159728095Y-149928152D01*
X159728095Y-149928152D02*
X159823333Y-149975771D01*
X160680476Y-150547200D02*
X160585238Y-150594819D01*
X160585238Y-150594819D02*
X160394762Y-150594819D01*
X160394762Y-150594819D02*
X160299524Y-150547200D01*
X160299524Y-150547200D02*
X160251905Y-150451961D01*
X160251905Y-150451961D02*
X160251905Y-150071009D01*
X160251905Y-150071009D02*
X160299524Y-149975771D01*
X160299524Y-149975771D02*
X160394762Y-149928152D01*
X160394762Y-149928152D02*
X160585238Y-149928152D01*
X160585238Y-149928152D02*
X160680476Y-149975771D01*
X160680476Y-149975771D02*
X160728095Y-150071009D01*
X160728095Y-150071009D02*
X160728095Y-150166247D01*
X160728095Y-150166247D02*
X160251905Y-150261485D01*
X161156667Y-149928152D02*
X161156667Y-150594819D01*
X161156667Y-150023390D02*
X161204286Y-149975771D01*
X161204286Y-149975771D02*
X161299524Y-149928152D01*
X161299524Y-149928152D02*
X161442381Y-149928152D01*
X161442381Y-149928152D02*
X161537619Y-149975771D01*
X161537619Y-149975771D02*
X161585238Y-150071009D01*
X161585238Y-150071009D02*
X161585238Y-150594819D01*
X162013810Y-150547200D02*
X162109048Y-150594819D01*
X162109048Y-150594819D02*
X162299524Y-150594819D01*
X162299524Y-150594819D02*
X162394762Y-150547200D01*
X162394762Y-150547200D02*
X162442381Y-150451961D01*
X162442381Y-150451961D02*
X162442381Y-150404342D01*
X162442381Y-150404342D02*
X162394762Y-150309104D01*
X162394762Y-150309104D02*
X162299524Y-150261485D01*
X162299524Y-150261485D02*
X162156667Y-150261485D01*
X162156667Y-150261485D02*
X162061429Y-150213866D01*
X162061429Y-150213866D02*
X162013810Y-150118628D01*
X162013810Y-150118628D02*
X162013810Y-150071009D01*
X162013810Y-150071009D02*
X162061429Y-149975771D01*
X162061429Y-149975771D02*
X162156667Y-149928152D01*
X162156667Y-149928152D02*
X162299524Y-149928152D01*
X162299524Y-149928152D02*
X162394762Y-149975771D01*
X163013810Y-150594819D02*
X162918572Y-150547200D01*
X162918572Y-150547200D02*
X162870953Y-150499580D01*
X162870953Y-150499580D02*
X162823334Y-150404342D01*
X162823334Y-150404342D02*
X162823334Y-150118628D01*
X162823334Y-150118628D02*
X162870953Y-150023390D01*
X162870953Y-150023390D02*
X162918572Y-149975771D01*
X162918572Y-149975771D02*
X163013810Y-149928152D01*
X163013810Y-149928152D02*
X163156667Y-149928152D01*
X163156667Y-149928152D02*
X163251905Y-149975771D01*
X163251905Y-149975771D02*
X163299524Y-150023390D01*
X163299524Y-150023390D02*
X163347143Y-150118628D01*
X163347143Y-150118628D02*
X163347143Y-150404342D01*
X163347143Y-150404342D02*
X163299524Y-150499580D01*
X163299524Y-150499580D02*
X163251905Y-150547200D01*
X163251905Y-150547200D02*
X163156667Y-150594819D01*
X163156667Y-150594819D02*
X163013810Y-150594819D01*
X163775715Y-150594819D02*
X163775715Y-149928152D01*
X163775715Y-150118628D02*
X163823334Y-150023390D01*
X163823334Y-150023390D02*
X163870953Y-149975771D01*
X163870953Y-149975771D02*
X163966191Y-149928152D01*
X163966191Y-149928152D02*
X164061429Y-149928152D01*
X164918572Y-150594819D02*
X164347144Y-150594819D01*
X164632858Y-150594819D02*
X164632858Y-149594819D01*
X164632858Y-149594819D02*
X164537620Y-149737676D01*
X164537620Y-149737676D02*
X164442382Y-149832914D01*
X164442382Y-149832914D02*
X164347144Y-149880533D01*
X153634819Y-145123332D02*
X154634819Y-144789999D01*
X154634819Y-144789999D02*
X153634819Y-144456666D01*
X154539580Y-143551904D02*
X154587200Y-143599523D01*
X154587200Y-143599523D02*
X154634819Y-143742380D01*
X154634819Y-143742380D02*
X154634819Y-143837618D01*
X154634819Y-143837618D02*
X154587200Y-143980475D01*
X154587200Y-143980475D02*
X154491961Y-144075713D01*
X154491961Y-144075713D02*
X154396723Y-144123332D01*
X154396723Y-144123332D02*
X154206247Y-144170951D01*
X154206247Y-144170951D02*
X154063390Y-144170951D01*
X154063390Y-144170951D02*
X153872914Y-144123332D01*
X153872914Y-144123332D02*
X153777676Y-144075713D01*
X153777676Y-144075713D02*
X153682438Y-143980475D01*
X153682438Y-143980475D02*
X153634819Y-143837618D01*
X153634819Y-143837618D02*
X153634819Y-143742380D01*
X153634819Y-143742380D02*
X153682438Y-143599523D01*
X153682438Y-143599523D02*
X153730057Y-143551904D01*
X154539580Y-142551904D02*
X154587200Y-142599523D01*
X154587200Y-142599523D02*
X154634819Y-142742380D01*
X154634819Y-142742380D02*
X154634819Y-142837618D01*
X154634819Y-142837618D02*
X154587200Y-142980475D01*
X154587200Y-142980475D02*
X154491961Y-143075713D01*
X154491961Y-143075713D02*
X154396723Y-143123332D01*
X154396723Y-143123332D02*
X154206247Y-143170951D01*
X154206247Y-143170951D02*
X154063390Y-143170951D01*
X154063390Y-143170951D02*
X153872914Y-143123332D01*
X153872914Y-143123332D02*
X153777676Y-143075713D01*
X153777676Y-143075713D02*
X153682438Y-142980475D01*
X153682438Y-142980475D02*
X153634819Y-142837618D01*
X153634819Y-142837618D02*
X153634819Y-142742380D01*
X153634819Y-142742380D02*
X153682438Y-142599523D01*
X153682438Y-142599523D02*
X153730057Y-142551904D01*
X156174819Y-145313808D02*
X156174819Y-144742380D01*
X157174819Y-145028094D02*
X156174819Y-145028094D01*
X157174819Y-143837618D02*
X156698628Y-144170951D01*
X157174819Y-144409046D02*
X156174819Y-144409046D01*
X156174819Y-144409046D02*
X156174819Y-144028094D01*
X156174819Y-144028094D02*
X156222438Y-143932856D01*
X156222438Y-143932856D02*
X156270057Y-143885237D01*
X156270057Y-143885237D02*
X156365295Y-143837618D01*
X156365295Y-143837618D02*
X156508152Y-143837618D01*
X156508152Y-143837618D02*
X156603390Y-143885237D01*
X156603390Y-143885237D02*
X156651009Y-143932856D01*
X156651009Y-143932856D02*
X156698628Y-144028094D01*
X156698628Y-144028094D02*
X156698628Y-144409046D01*
X157174819Y-143409046D02*
X156174819Y-143409046D01*
X156222438Y-142409047D02*
X156174819Y-142504285D01*
X156174819Y-142504285D02*
X156174819Y-142647142D01*
X156174819Y-142647142D02*
X156222438Y-142789999D01*
X156222438Y-142789999D02*
X156317676Y-142885237D01*
X156317676Y-142885237D02*
X156412914Y-142932856D01*
X156412914Y-142932856D02*
X156603390Y-142980475D01*
X156603390Y-142980475D02*
X156746247Y-142980475D01*
X156746247Y-142980475D02*
X156936723Y-142932856D01*
X156936723Y-142932856D02*
X157031961Y-142885237D01*
X157031961Y-142885237D02*
X157127200Y-142789999D01*
X157127200Y-142789999D02*
X157174819Y-142647142D01*
X157174819Y-142647142D02*
X157174819Y-142551904D01*
X157174819Y-142551904D02*
X157127200Y-142409047D01*
X157127200Y-142409047D02*
X157079580Y-142361428D01*
X157079580Y-142361428D02*
X156746247Y-142361428D01*
X156746247Y-142361428D02*
X156746247Y-142551904D01*
X159191009Y-145551904D02*
X159191009Y-145218571D01*
X159714819Y-145075714D02*
X159714819Y-145551904D01*
X159714819Y-145551904D02*
X158714819Y-145551904D01*
X158714819Y-145551904D02*
X158714819Y-145075714D01*
X159619580Y-144075714D02*
X159667200Y-144123333D01*
X159667200Y-144123333D02*
X159714819Y-144266190D01*
X159714819Y-144266190D02*
X159714819Y-144361428D01*
X159714819Y-144361428D02*
X159667200Y-144504285D01*
X159667200Y-144504285D02*
X159571961Y-144599523D01*
X159571961Y-144599523D02*
X159476723Y-144647142D01*
X159476723Y-144647142D02*
X159286247Y-144694761D01*
X159286247Y-144694761D02*
X159143390Y-144694761D01*
X159143390Y-144694761D02*
X158952914Y-144647142D01*
X158952914Y-144647142D02*
X158857676Y-144599523D01*
X158857676Y-144599523D02*
X158762438Y-144504285D01*
X158762438Y-144504285D02*
X158714819Y-144361428D01*
X158714819Y-144361428D02*
X158714819Y-144266190D01*
X158714819Y-144266190D02*
X158762438Y-144123333D01*
X158762438Y-144123333D02*
X158810057Y-144075714D01*
X159714819Y-143647142D02*
X158714819Y-143647142D01*
X159191009Y-143647142D02*
X159191009Y-143075714D01*
X159714819Y-143075714D02*
X158714819Y-143075714D01*
X158714819Y-142409047D02*
X158714819Y-142218571D01*
X158714819Y-142218571D02*
X158762438Y-142123333D01*
X158762438Y-142123333D02*
X158857676Y-142028095D01*
X158857676Y-142028095D02*
X159048152Y-141980476D01*
X159048152Y-141980476D02*
X159381485Y-141980476D01*
X159381485Y-141980476D02*
X159571961Y-142028095D01*
X159571961Y-142028095D02*
X159667200Y-142123333D01*
X159667200Y-142123333D02*
X159714819Y-142218571D01*
X159714819Y-142218571D02*
X159714819Y-142409047D01*
X159714819Y-142409047D02*
X159667200Y-142504285D01*
X159667200Y-142504285D02*
X159571961Y-142599523D01*
X159571961Y-142599523D02*
X159381485Y-142647142D01*
X159381485Y-142647142D02*
X159048152Y-142647142D01*
X159048152Y-142647142D02*
X158857676Y-142599523D01*
X158857676Y-142599523D02*
X158762438Y-142504285D01*
X158762438Y-142504285D02*
X158714819Y-142409047D01*
X161302438Y-144551904D02*
X161254819Y-144647142D01*
X161254819Y-144647142D02*
X161254819Y-144789999D01*
X161254819Y-144789999D02*
X161302438Y-144932856D01*
X161302438Y-144932856D02*
X161397676Y-145028094D01*
X161397676Y-145028094D02*
X161492914Y-145075713D01*
X161492914Y-145075713D02*
X161683390Y-145123332D01*
X161683390Y-145123332D02*
X161826247Y-145123332D01*
X161826247Y-145123332D02*
X162016723Y-145075713D01*
X162016723Y-145075713D02*
X162111961Y-145028094D01*
X162111961Y-145028094D02*
X162207200Y-144932856D01*
X162207200Y-144932856D02*
X162254819Y-144789999D01*
X162254819Y-144789999D02*
X162254819Y-144694761D01*
X162254819Y-144694761D02*
X162207200Y-144551904D01*
X162207200Y-144551904D02*
X162159580Y-144504285D01*
X162159580Y-144504285D02*
X161826247Y-144504285D01*
X161826247Y-144504285D02*
X161826247Y-144694761D01*
X162254819Y-144075713D02*
X161254819Y-144075713D01*
X161254819Y-144075713D02*
X162254819Y-143504285D01*
X162254819Y-143504285D02*
X161254819Y-143504285D01*
X162254819Y-143028094D02*
X161254819Y-143028094D01*
X161254819Y-143028094D02*
X161254819Y-142789999D01*
X161254819Y-142789999D02*
X161302438Y-142647142D01*
X161302438Y-142647142D02*
X161397676Y-142551904D01*
X161397676Y-142551904D02*
X161492914Y-142504285D01*
X161492914Y-142504285D02*
X161683390Y-142456666D01*
X161683390Y-142456666D02*
X161826247Y-142456666D01*
X161826247Y-142456666D02*
X162016723Y-142504285D01*
X162016723Y-142504285D02*
X162111961Y-142551904D01*
X162111961Y-142551904D02*
X162207200Y-142647142D01*
X162207200Y-142647142D02*
X162254819Y-142789999D01*
X162254819Y-142789999D02*
X162254819Y-143028094D01*
X154366667Y-93607200D02*
X154509524Y-93654819D01*
X154509524Y-93654819D02*
X154747619Y-93654819D01*
X154747619Y-93654819D02*
X154842857Y-93607200D01*
X154842857Y-93607200D02*
X154890476Y-93559580D01*
X154890476Y-93559580D02*
X154938095Y-93464342D01*
X154938095Y-93464342D02*
X154938095Y-93369104D01*
X154938095Y-93369104D02*
X154890476Y-93273866D01*
X154890476Y-93273866D02*
X154842857Y-93226247D01*
X154842857Y-93226247D02*
X154747619Y-93178628D01*
X154747619Y-93178628D02*
X154557143Y-93131009D01*
X154557143Y-93131009D02*
X154461905Y-93083390D01*
X154461905Y-93083390D02*
X154414286Y-93035771D01*
X154414286Y-93035771D02*
X154366667Y-92940533D01*
X154366667Y-92940533D02*
X154366667Y-92845295D01*
X154366667Y-92845295D02*
X154414286Y-92750057D01*
X154414286Y-92750057D02*
X154461905Y-92702438D01*
X154461905Y-92702438D02*
X154557143Y-92654819D01*
X154557143Y-92654819D02*
X154795238Y-92654819D01*
X154795238Y-92654819D02*
X154938095Y-92702438D01*
X155271429Y-92654819D02*
X155509524Y-93654819D01*
X155509524Y-93654819D02*
X155700000Y-92940533D01*
X155700000Y-92940533D02*
X155890476Y-93654819D01*
X155890476Y-93654819D02*
X156128572Y-92654819D01*
X157033333Y-93654819D02*
X156461905Y-93654819D01*
X156747619Y-93654819D02*
X156747619Y-92654819D01*
X156747619Y-92654819D02*
X156652381Y-92797676D01*
X156652381Y-92797676D02*
X156557143Y-92892914D01*
X156557143Y-92892914D02*
X156461905Y-92940533D01*
X164459580Y-109566666D02*
X164507200Y-109614285D01*
X164507200Y-109614285D02*
X164554819Y-109757142D01*
X164554819Y-109757142D02*
X164554819Y-109852380D01*
X164554819Y-109852380D02*
X164507200Y-109995237D01*
X164507200Y-109995237D02*
X164411961Y-110090475D01*
X164411961Y-110090475D02*
X164316723Y-110138094D01*
X164316723Y-110138094D02*
X164126247Y-110185713D01*
X164126247Y-110185713D02*
X163983390Y-110185713D01*
X163983390Y-110185713D02*
X163792914Y-110138094D01*
X163792914Y-110138094D02*
X163697676Y-110090475D01*
X163697676Y-110090475D02*
X163602438Y-109995237D01*
X163602438Y-109995237D02*
X163554819Y-109852380D01*
X163554819Y-109852380D02*
X163554819Y-109757142D01*
X163554819Y-109757142D02*
X163602438Y-109614285D01*
X163602438Y-109614285D02*
X163650057Y-109566666D01*
X164554819Y-108614285D02*
X164554819Y-109185713D01*
X164554819Y-108899999D02*
X163554819Y-108899999D01*
X163554819Y-108899999D02*
X163697676Y-108995237D01*
X163697676Y-108995237D02*
X163792914Y-109090475D01*
X163792914Y-109090475D02*
X163840533Y-109185713D01*
X165669833Y-131688580D02*
X165622214Y-131736200D01*
X165622214Y-131736200D02*
X165479357Y-131783819D01*
X165479357Y-131783819D02*
X165384119Y-131783819D01*
X165384119Y-131783819D02*
X165241262Y-131736200D01*
X165241262Y-131736200D02*
X165146024Y-131640961D01*
X165146024Y-131640961D02*
X165098405Y-131545723D01*
X165098405Y-131545723D02*
X165050786Y-131355247D01*
X165050786Y-131355247D02*
X165050786Y-131212390D01*
X165050786Y-131212390D02*
X165098405Y-131021914D01*
X165098405Y-131021914D02*
X165146024Y-130926676D01*
X165146024Y-130926676D02*
X165241262Y-130831438D01*
X165241262Y-130831438D02*
X165384119Y-130783819D01*
X165384119Y-130783819D02*
X165479357Y-130783819D01*
X165479357Y-130783819D02*
X165622214Y-130831438D01*
X165622214Y-130831438D02*
X165669833Y-130879057D01*
X166050786Y-130879057D02*
X166098405Y-130831438D01*
X166098405Y-130831438D02*
X166193643Y-130783819D01*
X166193643Y-130783819D02*
X166431738Y-130783819D01*
X166431738Y-130783819D02*
X166526976Y-130831438D01*
X166526976Y-130831438D02*
X166574595Y-130879057D01*
X166574595Y-130879057D02*
X166622214Y-130974295D01*
X166622214Y-130974295D02*
X166622214Y-131069533D01*
X166622214Y-131069533D02*
X166574595Y-131212390D01*
X166574595Y-131212390D02*
X166003167Y-131783819D01*
X166003167Y-131783819D02*
X166622214Y-131783819D01*
X177179580Y-98166666D02*
X177227200Y-98214285D01*
X177227200Y-98214285D02*
X177274819Y-98357142D01*
X177274819Y-98357142D02*
X177274819Y-98452380D01*
X177274819Y-98452380D02*
X177227200Y-98595237D01*
X177227200Y-98595237D02*
X177131961Y-98690475D01*
X177131961Y-98690475D02*
X177036723Y-98738094D01*
X177036723Y-98738094D02*
X176846247Y-98785713D01*
X176846247Y-98785713D02*
X176703390Y-98785713D01*
X176703390Y-98785713D02*
X176512914Y-98738094D01*
X176512914Y-98738094D02*
X176417676Y-98690475D01*
X176417676Y-98690475D02*
X176322438Y-98595237D01*
X176322438Y-98595237D02*
X176274819Y-98452380D01*
X176274819Y-98452380D02*
X176274819Y-98357142D01*
X176274819Y-98357142D02*
X176322438Y-98214285D01*
X176322438Y-98214285D02*
X176370057Y-98166666D01*
X176274819Y-97833332D02*
X176274819Y-97214285D01*
X176274819Y-97214285D02*
X176655771Y-97547618D01*
X176655771Y-97547618D02*
X176655771Y-97404761D01*
X176655771Y-97404761D02*
X176703390Y-97309523D01*
X176703390Y-97309523D02*
X176751009Y-97261904D01*
X176751009Y-97261904D02*
X176846247Y-97214285D01*
X176846247Y-97214285D02*
X177084342Y-97214285D01*
X177084342Y-97214285D02*
X177179580Y-97261904D01*
X177179580Y-97261904D02*
X177227200Y-97309523D01*
X177227200Y-97309523D02*
X177274819Y-97404761D01*
X177274819Y-97404761D02*
X177274819Y-97690475D01*
X177274819Y-97690475D02*
X177227200Y-97785713D01*
X177227200Y-97785713D02*
X177179580Y-97833332D01*
X168179580Y-109866666D02*
X168227200Y-109914285D01*
X168227200Y-109914285D02*
X168274819Y-110057142D01*
X168274819Y-110057142D02*
X168274819Y-110152380D01*
X168274819Y-110152380D02*
X168227200Y-110295237D01*
X168227200Y-110295237D02*
X168131961Y-110390475D01*
X168131961Y-110390475D02*
X168036723Y-110438094D01*
X168036723Y-110438094D02*
X167846247Y-110485713D01*
X167846247Y-110485713D02*
X167703390Y-110485713D01*
X167703390Y-110485713D02*
X167512914Y-110438094D01*
X167512914Y-110438094D02*
X167417676Y-110390475D01*
X167417676Y-110390475D02*
X167322438Y-110295237D01*
X167322438Y-110295237D02*
X167274819Y-110152380D01*
X167274819Y-110152380D02*
X167274819Y-110057142D01*
X167274819Y-110057142D02*
X167322438Y-109914285D01*
X167322438Y-109914285D02*
X167370057Y-109866666D01*
X167608152Y-109009523D02*
X168274819Y-109009523D01*
X167227200Y-109247618D02*
X167941485Y-109485713D01*
X167941485Y-109485713D02*
X167941485Y-108866666D01*
X142456905Y-92594819D02*
X142456905Y-91594819D01*
X142456905Y-91594819D02*
X142695000Y-91594819D01*
X142695000Y-91594819D02*
X142837857Y-91642438D01*
X142837857Y-91642438D02*
X142933095Y-91737676D01*
X142933095Y-91737676D02*
X142980714Y-91832914D01*
X142980714Y-91832914D02*
X143028333Y-92023390D01*
X143028333Y-92023390D02*
X143028333Y-92166247D01*
X143028333Y-92166247D02*
X142980714Y-92356723D01*
X142980714Y-92356723D02*
X142933095Y-92451961D01*
X142933095Y-92451961D02*
X142837857Y-92547200D01*
X142837857Y-92547200D02*
X142695000Y-92594819D01*
X142695000Y-92594819D02*
X142456905Y-92594819D01*
X143409286Y-91690057D02*
X143456905Y-91642438D01*
X143456905Y-91642438D02*
X143552143Y-91594819D01*
X143552143Y-91594819D02*
X143790238Y-91594819D01*
X143790238Y-91594819D02*
X143885476Y-91642438D01*
X143885476Y-91642438D02*
X143933095Y-91690057D01*
X143933095Y-91690057D02*
X143980714Y-91785295D01*
X143980714Y-91785295D02*
X143980714Y-91880533D01*
X143980714Y-91880533D02*
X143933095Y-92023390D01*
X143933095Y-92023390D02*
X143361667Y-92594819D01*
X143361667Y-92594819D02*
X143980714Y-92594819D01*
X148754819Y-93166666D02*
X148278628Y-93499999D01*
X148754819Y-93738094D02*
X147754819Y-93738094D01*
X147754819Y-93738094D02*
X147754819Y-93357142D01*
X147754819Y-93357142D02*
X147802438Y-93261904D01*
X147802438Y-93261904D02*
X147850057Y-93214285D01*
X147850057Y-93214285D02*
X147945295Y-93166666D01*
X147945295Y-93166666D02*
X148088152Y-93166666D01*
X148088152Y-93166666D02*
X148183390Y-93214285D01*
X148183390Y-93214285D02*
X148231009Y-93261904D01*
X148231009Y-93261904D02*
X148278628Y-93357142D01*
X148278628Y-93357142D02*
X148278628Y-93738094D01*
X148754819Y-92214285D02*
X148754819Y-92785713D01*
X148754819Y-92499999D02*
X147754819Y-92499999D01*
X147754819Y-92499999D02*
X147897676Y-92595237D01*
X147897676Y-92595237D02*
X147992914Y-92690475D01*
X147992914Y-92690475D02*
X148040533Y-92785713D01*
X165733333Y-122420319D02*
X165400000Y-121944128D01*
X165161905Y-122420319D02*
X165161905Y-121420319D01*
X165161905Y-121420319D02*
X165542857Y-121420319D01*
X165542857Y-121420319D02*
X165638095Y-121467938D01*
X165638095Y-121467938D02*
X165685714Y-121515557D01*
X165685714Y-121515557D02*
X165733333Y-121610795D01*
X165733333Y-121610795D02*
X165733333Y-121753652D01*
X165733333Y-121753652D02*
X165685714Y-121848890D01*
X165685714Y-121848890D02*
X165638095Y-121896509D01*
X165638095Y-121896509D02*
X165542857Y-121944128D01*
X165542857Y-121944128D02*
X165161905Y-121944128D01*
X166114286Y-121515557D02*
X166161905Y-121467938D01*
X166161905Y-121467938D02*
X166257143Y-121420319D01*
X166257143Y-121420319D02*
X166495238Y-121420319D01*
X166495238Y-121420319D02*
X166590476Y-121467938D01*
X166590476Y-121467938D02*
X166638095Y-121515557D01*
X166638095Y-121515557D02*
X166685714Y-121610795D01*
X166685714Y-121610795D02*
X166685714Y-121706033D01*
X166685714Y-121706033D02*
X166638095Y-121848890D01*
X166638095Y-121848890D02*
X166066667Y-122420319D01*
X166066667Y-122420319D02*
X166685714Y-122420319D01*
X155756819Y-85039666D02*
X155280628Y-85372999D01*
X155756819Y-85611094D02*
X154756819Y-85611094D01*
X154756819Y-85611094D02*
X154756819Y-85230142D01*
X154756819Y-85230142D02*
X154804438Y-85134904D01*
X154804438Y-85134904D02*
X154852057Y-85087285D01*
X154852057Y-85087285D02*
X154947295Y-85039666D01*
X154947295Y-85039666D02*
X155090152Y-85039666D01*
X155090152Y-85039666D02*
X155185390Y-85087285D01*
X155185390Y-85087285D02*
X155233009Y-85134904D01*
X155233009Y-85134904D02*
X155280628Y-85230142D01*
X155280628Y-85230142D02*
X155280628Y-85611094D01*
X154756819Y-84706332D02*
X154756819Y-84087285D01*
X154756819Y-84087285D02*
X155137771Y-84420618D01*
X155137771Y-84420618D02*
X155137771Y-84277761D01*
X155137771Y-84277761D02*
X155185390Y-84182523D01*
X155185390Y-84182523D02*
X155233009Y-84134904D01*
X155233009Y-84134904D02*
X155328247Y-84087285D01*
X155328247Y-84087285D02*
X155566342Y-84087285D01*
X155566342Y-84087285D02*
X155661580Y-84134904D01*
X155661580Y-84134904D02*
X155709200Y-84182523D01*
X155709200Y-84182523D02*
X155756819Y-84277761D01*
X155756819Y-84277761D02*
X155756819Y-84563475D01*
X155756819Y-84563475D02*
X155709200Y-84658713D01*
X155709200Y-84658713D02*
X155661580Y-84706332D01*
X152769833Y-86089319D02*
X152436500Y-85613128D01*
X152198405Y-86089319D02*
X152198405Y-85089319D01*
X152198405Y-85089319D02*
X152579357Y-85089319D01*
X152579357Y-85089319D02*
X152674595Y-85136938D01*
X152674595Y-85136938D02*
X152722214Y-85184557D01*
X152722214Y-85184557D02*
X152769833Y-85279795D01*
X152769833Y-85279795D02*
X152769833Y-85422652D01*
X152769833Y-85422652D02*
X152722214Y-85517890D01*
X152722214Y-85517890D02*
X152674595Y-85565509D01*
X152674595Y-85565509D02*
X152579357Y-85613128D01*
X152579357Y-85613128D02*
X152198405Y-85613128D01*
X153626976Y-85422652D02*
X153626976Y-86089319D01*
X153388881Y-85041700D02*
X153150786Y-85755985D01*
X153150786Y-85755985D02*
X153769833Y-85755985D01*
X152769833Y-78152819D02*
X152436500Y-77676628D01*
X152198405Y-78152819D02*
X152198405Y-77152819D01*
X152198405Y-77152819D02*
X152579357Y-77152819D01*
X152579357Y-77152819D02*
X152674595Y-77200438D01*
X152674595Y-77200438D02*
X152722214Y-77248057D01*
X152722214Y-77248057D02*
X152769833Y-77343295D01*
X152769833Y-77343295D02*
X152769833Y-77486152D01*
X152769833Y-77486152D02*
X152722214Y-77581390D01*
X152722214Y-77581390D02*
X152674595Y-77629009D01*
X152674595Y-77629009D02*
X152579357Y-77676628D01*
X152579357Y-77676628D02*
X152198405Y-77676628D01*
X153674595Y-77152819D02*
X153198405Y-77152819D01*
X153198405Y-77152819D02*
X153150786Y-77629009D01*
X153150786Y-77629009D02*
X153198405Y-77581390D01*
X153198405Y-77581390D02*
X153293643Y-77533771D01*
X153293643Y-77533771D02*
X153531738Y-77533771D01*
X153531738Y-77533771D02*
X153626976Y-77581390D01*
X153626976Y-77581390D02*
X153674595Y-77629009D01*
X153674595Y-77629009D02*
X153722214Y-77724247D01*
X153722214Y-77724247D02*
X153722214Y-77962342D01*
X153722214Y-77962342D02*
X153674595Y-78057580D01*
X153674595Y-78057580D02*
X153626976Y-78105200D01*
X153626976Y-78105200D02*
X153531738Y-78152819D01*
X153531738Y-78152819D02*
X153293643Y-78152819D01*
X153293643Y-78152819D02*
X153198405Y-78105200D01*
X153198405Y-78105200D02*
X153150786Y-78057580D01*
X170596595Y-123857819D02*
X170596595Y-124667342D01*
X170596595Y-124667342D02*
X170644214Y-124762580D01*
X170644214Y-124762580D02*
X170691833Y-124810200D01*
X170691833Y-124810200D02*
X170787071Y-124857819D01*
X170787071Y-124857819D02*
X170977547Y-124857819D01*
X170977547Y-124857819D02*
X171072785Y-124810200D01*
X171072785Y-124810200D02*
X171120404Y-124762580D01*
X171120404Y-124762580D02*
X171168023Y-124667342D01*
X171168023Y-124667342D02*
X171168023Y-123857819D01*
X171548976Y-123857819D02*
X172168023Y-123857819D01*
X172168023Y-123857819D02*
X171834690Y-124238771D01*
X171834690Y-124238771D02*
X171977547Y-124238771D01*
X171977547Y-124238771D02*
X172072785Y-124286390D01*
X172072785Y-124286390D02*
X172120404Y-124334009D01*
X172120404Y-124334009D02*
X172168023Y-124429247D01*
X172168023Y-124429247D02*
X172168023Y-124667342D01*
X172168023Y-124667342D02*
X172120404Y-124762580D01*
X172120404Y-124762580D02*
X172072785Y-124810200D01*
X172072785Y-124810200D02*
X171977547Y-124857819D01*
X171977547Y-124857819D02*
X171691833Y-124857819D01*
X171691833Y-124857819D02*
X171596595Y-124810200D01*
X171596595Y-124810200D02*
X171548976Y-124762580D01*
X160895833Y-76604819D02*
X160562500Y-76128628D01*
X160324405Y-76604819D02*
X160324405Y-75604819D01*
X160324405Y-75604819D02*
X160705357Y-75604819D01*
X160705357Y-75604819D02*
X160800595Y-75652438D01*
X160800595Y-75652438D02*
X160848214Y-75700057D01*
X160848214Y-75700057D02*
X160895833Y-75795295D01*
X160895833Y-75795295D02*
X160895833Y-75938152D01*
X160895833Y-75938152D02*
X160848214Y-76033390D01*
X160848214Y-76033390D02*
X160800595Y-76081009D01*
X160800595Y-76081009D02*
X160705357Y-76128628D01*
X160705357Y-76128628D02*
X160324405Y-76128628D01*
X161229167Y-75604819D02*
X161895833Y-75604819D01*
X161895833Y-75604819D02*
X161467262Y-76604819D01*
X151285714Y-121469104D02*
X151761904Y-121469104D01*
X151190476Y-121754819D02*
X151523809Y-120754819D01*
X151523809Y-120754819D02*
X151857142Y-121754819D01*
X152714285Y-121754819D02*
X152142857Y-121754819D01*
X152428571Y-121754819D02*
X152428571Y-120754819D01*
X152428571Y-120754819D02*
X152333333Y-120897676D01*
X152333333Y-120897676D02*
X152238095Y-120992914D01*
X152238095Y-120992914D02*
X152142857Y-121040533D01*
X150748095Y-137264819D02*
X150748095Y-138074342D01*
X150748095Y-138074342D02*
X150795714Y-138169580D01*
X150795714Y-138169580D02*
X150843333Y-138217200D01*
X150843333Y-138217200D02*
X150938571Y-138264819D01*
X150938571Y-138264819D02*
X151129047Y-138264819D01*
X151129047Y-138264819D02*
X151224285Y-138217200D01*
X151224285Y-138217200D02*
X151271904Y-138169580D01*
X151271904Y-138169580D02*
X151319523Y-138074342D01*
X151319523Y-138074342D02*
X151319523Y-137264819D01*
X151748095Y-138217200D02*
X151890952Y-138264819D01*
X151890952Y-138264819D02*
X152129047Y-138264819D01*
X152129047Y-138264819D02*
X152224285Y-138217200D01*
X152224285Y-138217200D02*
X152271904Y-138169580D01*
X152271904Y-138169580D02*
X152319523Y-138074342D01*
X152319523Y-138074342D02*
X152319523Y-137979104D01*
X152319523Y-137979104D02*
X152271904Y-137883866D01*
X152271904Y-137883866D02*
X152224285Y-137836247D01*
X152224285Y-137836247D02*
X152129047Y-137788628D01*
X152129047Y-137788628D02*
X151938571Y-137741009D01*
X151938571Y-137741009D02*
X151843333Y-137693390D01*
X151843333Y-137693390D02*
X151795714Y-137645771D01*
X151795714Y-137645771D02*
X151748095Y-137550533D01*
X151748095Y-137550533D02*
X151748095Y-137455295D01*
X151748095Y-137455295D02*
X151795714Y-137360057D01*
X151795714Y-137360057D02*
X151843333Y-137312438D01*
X151843333Y-137312438D02*
X151938571Y-137264819D01*
X151938571Y-137264819D02*
X152176666Y-137264819D01*
X152176666Y-137264819D02*
X152319523Y-137312438D01*
X153081428Y-137741009D02*
X153224285Y-137788628D01*
X153224285Y-137788628D02*
X153271904Y-137836247D01*
X153271904Y-137836247D02*
X153319523Y-137931485D01*
X153319523Y-137931485D02*
X153319523Y-138074342D01*
X153319523Y-138074342D02*
X153271904Y-138169580D01*
X153271904Y-138169580D02*
X153224285Y-138217200D01*
X153224285Y-138217200D02*
X153129047Y-138264819D01*
X153129047Y-138264819D02*
X152748095Y-138264819D01*
X152748095Y-138264819D02*
X152748095Y-137264819D01*
X152748095Y-137264819D02*
X153081428Y-137264819D01*
X153081428Y-137264819D02*
X153176666Y-137312438D01*
X153176666Y-137312438D02*
X153224285Y-137360057D01*
X153224285Y-137360057D02*
X153271904Y-137455295D01*
X153271904Y-137455295D02*
X153271904Y-137550533D01*
X153271904Y-137550533D02*
X153224285Y-137645771D01*
X153224285Y-137645771D02*
X153176666Y-137693390D01*
X153176666Y-137693390D02*
X153081428Y-137741009D01*
X153081428Y-137741009D02*
X152748095Y-137741009D01*
X160833333Y-73604819D02*
X160500000Y-73128628D01*
X160261905Y-73604819D02*
X160261905Y-72604819D01*
X160261905Y-72604819D02*
X160642857Y-72604819D01*
X160642857Y-72604819D02*
X160738095Y-72652438D01*
X160738095Y-72652438D02*
X160785714Y-72700057D01*
X160785714Y-72700057D02*
X160833333Y-72795295D01*
X160833333Y-72795295D02*
X160833333Y-72938152D01*
X160833333Y-72938152D02*
X160785714Y-73033390D01*
X160785714Y-73033390D02*
X160738095Y-73081009D01*
X160738095Y-73081009D02*
X160642857Y-73128628D01*
X160642857Y-73128628D02*
X160261905Y-73128628D01*
X161690476Y-72604819D02*
X161500000Y-72604819D01*
X161500000Y-72604819D02*
X161404762Y-72652438D01*
X161404762Y-72652438D02*
X161357143Y-72700057D01*
X161357143Y-72700057D02*
X161261905Y-72842914D01*
X161261905Y-72842914D02*
X161214286Y-73033390D01*
X161214286Y-73033390D02*
X161214286Y-73414342D01*
X161214286Y-73414342D02*
X161261905Y-73509580D01*
X161261905Y-73509580D02*
X161309524Y-73557200D01*
X161309524Y-73557200D02*
X161404762Y-73604819D01*
X161404762Y-73604819D02*
X161595238Y-73604819D01*
X161595238Y-73604819D02*
X161690476Y-73557200D01*
X161690476Y-73557200D02*
X161738095Y-73509580D01*
X161738095Y-73509580D02*
X161785714Y-73414342D01*
X161785714Y-73414342D02*
X161785714Y-73176247D01*
X161785714Y-73176247D02*
X161738095Y-73081009D01*
X161738095Y-73081009D02*
X161690476Y-73033390D01*
X161690476Y-73033390D02*
X161595238Y-72985771D01*
X161595238Y-72985771D02*
X161404762Y-72985771D01*
X161404762Y-72985771D02*
X161309524Y-73033390D01*
X161309524Y-73033390D02*
X161261905Y-73081009D01*
X161261905Y-73081009D02*
X161214286Y-73176247D01*
X160895833Y-79954819D02*
X160562500Y-79478628D01*
X160324405Y-79954819D02*
X160324405Y-78954819D01*
X160324405Y-78954819D02*
X160705357Y-78954819D01*
X160705357Y-78954819D02*
X160800595Y-79002438D01*
X160800595Y-79002438D02*
X160848214Y-79050057D01*
X160848214Y-79050057D02*
X160895833Y-79145295D01*
X160895833Y-79145295D02*
X160895833Y-79288152D01*
X160895833Y-79288152D02*
X160848214Y-79383390D01*
X160848214Y-79383390D02*
X160800595Y-79431009D01*
X160800595Y-79431009D02*
X160705357Y-79478628D01*
X160705357Y-79478628D02*
X160324405Y-79478628D01*
X161467262Y-79383390D02*
X161372024Y-79335771D01*
X161372024Y-79335771D02*
X161324405Y-79288152D01*
X161324405Y-79288152D02*
X161276786Y-79192914D01*
X161276786Y-79192914D02*
X161276786Y-79145295D01*
X161276786Y-79145295D02*
X161324405Y-79050057D01*
X161324405Y-79050057D02*
X161372024Y-79002438D01*
X161372024Y-79002438D02*
X161467262Y-78954819D01*
X161467262Y-78954819D02*
X161657738Y-78954819D01*
X161657738Y-78954819D02*
X161752976Y-79002438D01*
X161752976Y-79002438D02*
X161800595Y-79050057D01*
X161800595Y-79050057D02*
X161848214Y-79145295D01*
X161848214Y-79145295D02*
X161848214Y-79192914D01*
X161848214Y-79192914D02*
X161800595Y-79288152D01*
X161800595Y-79288152D02*
X161752976Y-79335771D01*
X161752976Y-79335771D02*
X161657738Y-79383390D01*
X161657738Y-79383390D02*
X161467262Y-79383390D01*
X161467262Y-79383390D02*
X161372024Y-79431009D01*
X161372024Y-79431009D02*
X161324405Y-79478628D01*
X161324405Y-79478628D02*
X161276786Y-79573866D01*
X161276786Y-79573866D02*
X161276786Y-79764342D01*
X161276786Y-79764342D02*
X161324405Y-79859580D01*
X161324405Y-79859580D02*
X161372024Y-79907200D01*
X161372024Y-79907200D02*
X161467262Y-79954819D01*
X161467262Y-79954819D02*
X161657738Y-79954819D01*
X161657738Y-79954819D02*
X161752976Y-79907200D01*
X161752976Y-79907200D02*
X161800595Y-79859580D01*
X161800595Y-79859580D02*
X161848214Y-79764342D01*
X161848214Y-79764342D02*
X161848214Y-79573866D01*
X161848214Y-79573866D02*
X161800595Y-79478628D01*
X161800595Y-79478628D02*
X161752976Y-79431009D01*
X161752976Y-79431009D02*
X161657738Y-79383390D01*
X175931009Y-83040714D02*
X175978628Y-82897857D01*
X175978628Y-82897857D02*
X176026247Y-82850238D01*
X176026247Y-82850238D02*
X176121485Y-82802619D01*
X176121485Y-82802619D02*
X176264342Y-82802619D01*
X176264342Y-82802619D02*
X176359580Y-82850238D01*
X176359580Y-82850238D02*
X176407200Y-82897857D01*
X176407200Y-82897857D02*
X176454819Y-82993095D01*
X176454819Y-82993095D02*
X176454819Y-83374047D01*
X176454819Y-83374047D02*
X175454819Y-83374047D01*
X175454819Y-83374047D02*
X175454819Y-83040714D01*
X175454819Y-83040714D02*
X175502438Y-82945476D01*
X175502438Y-82945476D02*
X175550057Y-82897857D01*
X175550057Y-82897857D02*
X175645295Y-82850238D01*
X175645295Y-82850238D02*
X175740533Y-82850238D01*
X175740533Y-82850238D02*
X175835771Y-82897857D01*
X175835771Y-82897857D02*
X175883390Y-82945476D01*
X175883390Y-82945476D02*
X175931009Y-83040714D01*
X175931009Y-83040714D02*
X175931009Y-83374047D01*
X175454819Y-82516904D02*
X175454819Y-81945476D01*
X176454819Y-82231190D02*
X175454819Y-82231190D01*
X176454819Y-81088333D02*
X176454819Y-81659761D01*
X176454819Y-81374047D02*
X175454819Y-81374047D01*
X175454819Y-81374047D02*
X175597676Y-81469285D01*
X175597676Y-81469285D02*
X175692914Y-81564523D01*
X175692914Y-81564523D02*
X175740533Y-81659761D01*
X167738095Y-96454819D02*
X167738095Y-97264342D01*
X167738095Y-97264342D02*
X167785714Y-97359580D01*
X167785714Y-97359580D02*
X167833333Y-97407200D01*
X167833333Y-97407200D02*
X167928571Y-97454819D01*
X167928571Y-97454819D02*
X168119047Y-97454819D01*
X168119047Y-97454819D02*
X168214285Y-97407200D01*
X168214285Y-97407200D02*
X168261904Y-97359580D01*
X168261904Y-97359580D02*
X168309523Y-97264342D01*
X168309523Y-97264342D02*
X168309523Y-96454819D01*
X169261904Y-96454819D02*
X168785714Y-96454819D01*
X168785714Y-96454819D02*
X168738095Y-96931009D01*
X168738095Y-96931009D02*
X168785714Y-96883390D01*
X168785714Y-96883390D02*
X168880952Y-96835771D01*
X168880952Y-96835771D02*
X169119047Y-96835771D01*
X169119047Y-96835771D02*
X169214285Y-96883390D01*
X169214285Y-96883390D02*
X169261904Y-96931009D01*
X169261904Y-96931009D02*
X169309523Y-97026247D01*
X169309523Y-97026247D02*
X169309523Y-97264342D01*
X169309523Y-97264342D02*
X169261904Y-97359580D01*
X169261904Y-97359580D02*
X169214285Y-97407200D01*
X169214285Y-97407200D02*
X169119047Y-97454819D01*
X169119047Y-97454819D02*
X168880952Y-97454819D01*
X168880952Y-97454819D02*
X168785714Y-97407200D01*
X168785714Y-97407200D02*
X168738095Y-97359580D01*
X160895833Y-83304819D02*
X160562500Y-82828628D01*
X160324405Y-83304819D02*
X160324405Y-82304819D01*
X160324405Y-82304819D02*
X160705357Y-82304819D01*
X160705357Y-82304819D02*
X160800595Y-82352438D01*
X160800595Y-82352438D02*
X160848214Y-82400057D01*
X160848214Y-82400057D02*
X160895833Y-82495295D01*
X160895833Y-82495295D02*
X160895833Y-82638152D01*
X160895833Y-82638152D02*
X160848214Y-82733390D01*
X160848214Y-82733390D02*
X160800595Y-82781009D01*
X160800595Y-82781009D02*
X160705357Y-82828628D01*
X160705357Y-82828628D02*
X160324405Y-82828628D01*
X161372024Y-83304819D02*
X161562500Y-83304819D01*
X161562500Y-83304819D02*
X161657738Y-83257200D01*
X161657738Y-83257200D02*
X161705357Y-83209580D01*
X161705357Y-83209580D02*
X161800595Y-83066723D01*
X161800595Y-83066723D02*
X161848214Y-82876247D01*
X161848214Y-82876247D02*
X161848214Y-82495295D01*
X161848214Y-82495295D02*
X161800595Y-82400057D01*
X161800595Y-82400057D02*
X161752976Y-82352438D01*
X161752976Y-82352438D02*
X161657738Y-82304819D01*
X161657738Y-82304819D02*
X161467262Y-82304819D01*
X161467262Y-82304819D02*
X161372024Y-82352438D01*
X161372024Y-82352438D02*
X161324405Y-82400057D01*
X161324405Y-82400057D02*
X161276786Y-82495295D01*
X161276786Y-82495295D02*
X161276786Y-82733390D01*
X161276786Y-82733390D02*
X161324405Y-82828628D01*
X161324405Y-82828628D02*
X161372024Y-82876247D01*
X161372024Y-82876247D02*
X161467262Y-82923866D01*
X161467262Y-82923866D02*
X161657738Y-82923866D01*
X161657738Y-82923866D02*
X161752976Y-82876247D01*
X161752976Y-82876247D02*
X161800595Y-82828628D01*
X161800595Y-82828628D02*
X161848214Y-82733390D01*
X160419642Y-86654819D02*
X160086309Y-86178628D01*
X159848214Y-86654819D02*
X159848214Y-85654819D01*
X159848214Y-85654819D02*
X160229166Y-85654819D01*
X160229166Y-85654819D02*
X160324404Y-85702438D01*
X160324404Y-85702438D02*
X160372023Y-85750057D01*
X160372023Y-85750057D02*
X160419642Y-85845295D01*
X160419642Y-85845295D02*
X160419642Y-85988152D01*
X160419642Y-85988152D02*
X160372023Y-86083390D01*
X160372023Y-86083390D02*
X160324404Y-86131009D01*
X160324404Y-86131009D02*
X160229166Y-86178628D01*
X160229166Y-86178628D02*
X159848214Y-86178628D01*
X161372023Y-86654819D02*
X160800595Y-86654819D01*
X161086309Y-86654819D02*
X161086309Y-85654819D01*
X161086309Y-85654819D02*
X160991071Y-85797676D01*
X160991071Y-85797676D02*
X160895833Y-85892914D01*
X160895833Y-85892914D02*
X160800595Y-85940533D01*
X161991071Y-85654819D02*
X162086309Y-85654819D01*
X162086309Y-85654819D02*
X162181547Y-85702438D01*
X162181547Y-85702438D02*
X162229166Y-85750057D01*
X162229166Y-85750057D02*
X162276785Y-85845295D01*
X162276785Y-85845295D02*
X162324404Y-86035771D01*
X162324404Y-86035771D02*
X162324404Y-86273866D01*
X162324404Y-86273866D02*
X162276785Y-86464342D01*
X162276785Y-86464342D02*
X162229166Y-86559580D01*
X162229166Y-86559580D02*
X162181547Y-86607200D01*
X162181547Y-86607200D02*
X162086309Y-86654819D01*
X162086309Y-86654819D02*
X161991071Y-86654819D01*
X161991071Y-86654819D02*
X161895833Y-86607200D01*
X161895833Y-86607200D02*
X161848214Y-86559580D01*
X161848214Y-86559580D02*
X161800595Y-86464342D01*
X161800595Y-86464342D02*
X161752976Y-86273866D01*
X161752976Y-86273866D02*
X161752976Y-86035771D01*
X161752976Y-86035771D02*
X161800595Y-85845295D01*
X161800595Y-85845295D02*
X161848214Y-85750057D01*
X161848214Y-85750057D02*
X161895833Y-85702438D01*
X161895833Y-85702438D02*
X161991071Y-85654819D01*
X160419642Y-90004819D02*
X160086309Y-89528628D01*
X159848214Y-90004819D02*
X159848214Y-89004819D01*
X159848214Y-89004819D02*
X160229166Y-89004819D01*
X160229166Y-89004819D02*
X160324404Y-89052438D01*
X160324404Y-89052438D02*
X160372023Y-89100057D01*
X160372023Y-89100057D02*
X160419642Y-89195295D01*
X160419642Y-89195295D02*
X160419642Y-89338152D01*
X160419642Y-89338152D02*
X160372023Y-89433390D01*
X160372023Y-89433390D02*
X160324404Y-89481009D01*
X160324404Y-89481009D02*
X160229166Y-89528628D01*
X160229166Y-89528628D02*
X159848214Y-89528628D01*
X161372023Y-90004819D02*
X160800595Y-90004819D01*
X161086309Y-90004819D02*
X161086309Y-89004819D01*
X161086309Y-89004819D02*
X160991071Y-89147676D01*
X160991071Y-89147676D02*
X160895833Y-89242914D01*
X160895833Y-89242914D02*
X160800595Y-89290533D01*
X162324404Y-90004819D02*
X161752976Y-90004819D01*
X162038690Y-90004819D02*
X162038690Y-89004819D01*
X162038690Y-89004819D02*
X161943452Y-89147676D01*
X161943452Y-89147676D02*
X161848214Y-89242914D01*
X161848214Y-89242914D02*
X161752976Y-89290533D01*
X143049819Y-85611904D02*
X143859342Y-85611904D01*
X143859342Y-85611904D02*
X143954580Y-85564285D01*
X143954580Y-85564285D02*
X144002200Y-85516666D01*
X144002200Y-85516666D02*
X144049819Y-85421428D01*
X144049819Y-85421428D02*
X144049819Y-85230952D01*
X144049819Y-85230952D02*
X144002200Y-85135714D01*
X144002200Y-85135714D02*
X143954580Y-85088095D01*
X143954580Y-85088095D02*
X143859342Y-85040476D01*
X143859342Y-85040476D02*
X143049819Y-85040476D01*
X143145057Y-84611904D02*
X143097438Y-84564285D01*
X143097438Y-84564285D02*
X143049819Y-84469047D01*
X143049819Y-84469047D02*
X143049819Y-84230952D01*
X143049819Y-84230952D02*
X143097438Y-84135714D01*
X143097438Y-84135714D02*
X143145057Y-84088095D01*
X143145057Y-84088095D02*
X143240295Y-84040476D01*
X143240295Y-84040476D02*
X143335533Y-84040476D01*
X143335533Y-84040476D02*
X143478390Y-84088095D01*
X143478390Y-84088095D02*
X144049819Y-84659523D01*
X144049819Y-84659523D02*
X144049819Y-84040476D01*
D10*
%TO.C,Ultrasonic_sensor1*%
X152910000Y-148870000D02*
X163070000Y-148870000D01*
X159260000Y-146330000D02*
X163070000Y-146330000D01*
X152910000Y-146330000D02*
X159260000Y-146330000D01*
X152910000Y-148870000D02*
X152910000Y-146330000D01*
X163070000Y-146330000D02*
X163070000Y-148870000D01*
%TO.C,SW1*%
X152290000Y-94240000D02*
X162510000Y-94240000D01*
X162510000Y-96960000D01*
X152290000Y-96960000D01*
X152290000Y-94240000D01*
%TO.C,C1*%
X168690000Y-110302064D02*
X168690000Y-109097936D01*
X170510000Y-110302064D02*
X170510000Y-109097936D01*
%TO.C,C2*%
X164990000Y-127297936D02*
X164990000Y-128502064D01*
X166810000Y-127297936D02*
X166810000Y-128502064D01*
%TO.C,C3*%
X174090000Y-97397936D02*
X174090000Y-98602064D01*
X175910000Y-97397936D02*
X175910000Y-98602064D01*
%TO.C,C4*%
X165090000Y-109097936D02*
X165090000Y-110302064D01*
X166910000Y-109097936D02*
X166910000Y-110302064D01*
%TO.C,D2*%
X141635000Y-93864000D02*
X141635000Y-94020000D01*
X141635000Y-96180000D02*
X141635000Y-96336000D01*
X141635000Y-93864484D02*
G75*
G02*
X144867335Y-94021392I1560000J-1235516D01*
G01*
X142154039Y-94020000D02*
G75*
G02*
X144236130Y-94020163I1040961J-1080000D01*
G01*
X144236130Y-96179837D02*
G75*
G02*
X142154039Y-96180000I-1041130J1079837D01*
G01*
X144867335Y-96178608D02*
G75*
G02*
X141635000Y-96335516I-1672335J1078608D01*
G01*
%TO.C,R1*%
X148902064Y-94390000D02*
X147697936Y-94390000D01*
X148902064Y-96210000D02*
X147697936Y-96210000D01*
%TO.C,R2*%
X164990000Y-119202064D02*
X164990000Y-117997936D01*
X166810000Y-119202064D02*
X166810000Y-117997936D01*
%TO.C,R3*%
X152602064Y-84090000D02*
X151397936Y-84090000D01*
X152602064Y-85910000D02*
X151397936Y-85910000D01*
%TO.C,R4*%
X152090000Y-88397936D02*
X152090000Y-89602064D01*
X153910000Y-88397936D02*
X153910000Y-89602064D01*
%TO.C,R5*%
X152090000Y-80397936D02*
X152090000Y-81602064D01*
X153910000Y-80397936D02*
X153910000Y-81602064D01*
%TO.C,U3*%
X168735000Y-128975000D02*
X168735000Y-127025000D01*
X168735000Y-128975000D02*
X168735000Y-132425000D01*
X173855000Y-128975000D02*
X173855000Y-127025000D01*
X173855000Y-128975000D02*
X173855000Y-130925000D01*
%TO.C,R7*%
X160351248Y-77090000D02*
X161773752Y-77090000D01*
X160351248Y-78910000D02*
X161773752Y-78910000D01*
%TO.C,A1*%
X142990000Y-98310000D02*
X142990000Y-100980000D01*
X142990000Y-103520000D02*
X142990000Y-141750000D01*
X142990000Y-141750000D02*
X148070000Y-141750000D01*
X145660000Y-100980000D02*
X142990000Y-100980000D01*
X145660000Y-103520000D02*
X142990000Y-103520000D01*
X145660000Y-103520000D02*
X145660000Y-100980000D01*
X145660000Y-103520000D02*
X145660000Y-139080000D01*
X145660000Y-139080000D02*
X142990000Y-139080000D01*
X148070000Y-133870000D02*
X155950000Y-133870000D01*
X148070000Y-144290000D02*
X148070000Y-133870000D01*
X155950000Y-133870000D02*
X155950000Y-144290000D01*
X155950000Y-144290000D02*
X148070000Y-144290000D01*
X158360000Y-100980000D02*
X158360000Y-139080000D01*
X158360000Y-100980000D02*
X161030000Y-100980000D01*
X158360000Y-139080000D02*
X161030000Y-139080000D01*
X161030000Y-98310000D02*
X142990000Y-98310000D01*
X161030000Y-141750000D02*
X155950000Y-141750000D01*
X161030000Y-141750000D02*
X161030000Y-98310000D01*
%TO.C,R6*%
X160288748Y-74090000D02*
X161711252Y-74090000D01*
X160288748Y-75910000D02*
X161711252Y-75910000D01*
%TO.C,R8*%
X160351248Y-80440000D02*
X161773752Y-80440000D01*
X160351248Y-82260000D02*
X161773752Y-82260000D01*
%TO.C,BT1*%
X164785000Y-79715000D02*
X164785000Y-84795000D01*
X164785000Y-79715000D02*
X167960000Y-76540000D01*
X164785000Y-82255000D02*
X164785000Y-79715000D01*
X164785000Y-84795000D02*
X167960000Y-87970000D01*
X168595000Y-72095000D02*
X168595000Y-72730000D01*
X168595000Y-72730000D02*
X168595000Y-76540000D01*
X168595000Y-91780000D02*
X168595000Y-87970000D01*
X168595000Y-92415000D02*
X168595000Y-91780000D01*
X170500000Y-76540000D02*
X167960000Y-76540000D01*
X170500000Y-76540000D02*
X176215000Y-76540000D01*
X172405000Y-72095000D02*
X168595000Y-72095000D01*
X172405000Y-72730000D02*
X172405000Y-72095000D01*
X172405000Y-76540000D02*
X172405000Y-72730000D01*
X172405000Y-87970000D02*
X172405000Y-91780000D01*
X172405000Y-91780000D02*
X172405000Y-92415000D01*
X172405000Y-92415000D02*
X168595000Y-92415000D01*
X176215000Y-76540000D02*
X176215000Y-77810000D01*
X176215000Y-87970000D02*
X167960000Y-87970000D01*
X176215000Y-87970000D02*
X176215000Y-86700000D01*
X176215001Y-86699999D02*
G75*
G02*
X176215001Y-77810001I4444999J4444999D01*
G01*
%TO.C,U5*%
X166650000Y-93590000D02*
X170410000Y-93590000D01*
X166650000Y-100410000D02*
X170410000Y-100410000D01*
X170410000Y-93590000D02*
X170410000Y-94850000D01*
X170410000Y-100410000D02*
X170410000Y-99150000D01*
X165370000Y-93690000D02*
X165130000Y-93360000D01*
X165610000Y-93360000D01*
X165370000Y-93690000D01*
G36*
X165370000Y-93690000D02*
G01*
X165130000Y-93360000D01*
X165610000Y-93360000D01*
X165370000Y-93690000D01*
G37*
%TO.C,R9*%
X160351248Y-83790000D02*
X161773752Y-83790000D01*
X160351248Y-85610000D02*
X161773752Y-85610000D01*
%TO.C,R10*%
X160351248Y-87140000D02*
X161773752Y-87140000D01*
X160351248Y-88960000D02*
X161773752Y-88960000D01*
%TO.C,R11*%
X160351248Y-90490000D02*
X161773752Y-90490000D01*
X160351248Y-92310000D02*
X161773752Y-92310000D01*
%TO.C,U2*%
X138335000Y-80990000D02*
X138590000Y-80990000D01*
X138335000Y-84850000D02*
X138335000Y-80990000D01*
X138335000Y-84850000D02*
X138335000Y-88710000D01*
X138335000Y-88710000D02*
X138590000Y-88710000D01*
X148855000Y-80990000D02*
X148600000Y-80990000D01*
X148855000Y-84850000D02*
X148855000Y-80990000D01*
X148855000Y-84850000D02*
X148855000Y-88710000D01*
X148855000Y-88710000D02*
X148600000Y-88710000D01*
X149070000Y-80477500D02*
X148600000Y-80137500D01*
X149070000Y-79797500D01*
X149070000Y-80477500D01*
G36*
X149070000Y-80477500D02*
G01*
X148600000Y-80137500D01*
X149070000Y-79797500D01*
X149070000Y-80477500D01*
G37*
%TD*%
M02*
