%TF.GenerationSoftware,KiCad,Pcbnew,8.0.4*%
%TF.CreationDate,2025-04-29T00:29:36-04:00*%
%TF.ProjectId,main_board,6d61696e-5f62-46f6-9172-642e6b696361,rev?*%
%TF.SameCoordinates,Original*%
%TF.FileFunction,Soldermask,Top*%
%TF.FilePolarity,Negative*%
%FSLAX46Y46*%
G04 Gerber Fmt 4.6, Leading zero omitted, Abs format (unit mm)*
G04 Created by KiCad (PCBNEW 8.0.4) date 2025-04-29 00:29:36*
%MOMM*%
%LPD*%
G01*
G04 APERTURE LIST*
G04 Aperture macros list*
%AMRoundRect*
0 Rectangle with rounded corners*
0 $1 Rounding radius*
0 $2 $3 $4 $5 $6 $7 $8 $9 X,Y pos of 4 corners*
0 Add a 4 corners polygon primitive as box body*
4,1,4,$2,$3,$4,$5,$6,$7,$8,$9,$2,$3,0*
0 Add four circle primitives for the rounded corners*
1,1,$1+$1,$2,$3*
1,1,$1+$1,$4,$5*
1,1,$1+$1,$6,$7*
1,1,$1+$1,$8,$9*
0 Add four rect primitives between the rounded corners*
20,1,$1+$1,$2,$3,$4,$5,0*
20,1,$1+$1,$4,$5,$6,$7,0*
20,1,$1+$1,$6,$7,$8,$9,0*
20,1,$1+$1,$8,$9,$2,$3,0*%
G04 Aperture macros list end*
%ADD10C,1.700000*%
%ADD11RoundRect,0.050000X-0.750000X-0.750000X0.750000X-0.750000X0.750000X0.750000X-0.750000X0.750000X0*%
%ADD12RoundRect,0.267544X0.657456X-0.494956X0.657456X0.494956X-0.657456X0.494956X-0.657456X-0.494956X0*%
%ADD13RoundRect,0.267544X-0.657456X0.494956X-0.657456X-0.494956X0.657456X-0.494956X0.657456X0.494956X0*%
%ADD14RoundRect,0.050000X-0.900000X-0.900000X0.900000X-0.900000X0.900000X0.900000X-0.900000X0.900000X0*%
%ADD15C,1.900000*%
%ADD16RoundRect,0.267544X0.494956X0.657456X-0.494956X0.657456X-0.494956X-0.657456X0.494956X-0.657456X0*%
%ADD17RoundRect,0.175000X0.175000X-0.850000X0.175000X0.850000X-0.175000X0.850000X-0.175000X-0.850000X0*%
%ADD18RoundRect,0.268868X-0.443632X-0.681132X0.443632X-0.681132X0.443632X0.681132X-0.443632X0.681132X0*%
%ADD19RoundRect,0.050000X-0.800000X-0.800000X0.800000X-0.800000X0.800000X0.800000X-0.800000X0.800000X0*%
%ADD20O,1.700000X1.700000*%
%ADD21RoundRect,0.050000X1.750000X1.750000X-1.750000X1.750000X-1.750000X-1.750000X1.750000X-1.750000X0*%
%ADD22C,8.100000*%
%ADD23RoundRect,0.400000X-0.650000X-0.400000X0.650000X-0.400000X0.650000X0.400000X-0.650000X0.400000X0*%
%ADD24RoundRect,0.525000X-0.525000X-1.425000X0.525000X-1.425000X0.525000X1.425000X-0.525000X1.425000X0*%
%ADD25RoundRect,0.175000X-0.175000X0.900000X-0.175000X-0.900000X0.175000X-0.900000X0.175000X0.900000X0*%
%ADD26RoundRect,0.050000X-0.600000X-0.600000X0.600000X-0.600000X0.600000X0.600000X-0.600000X0.600000X0*%
%ADD27C,1.300000*%
%ADD28RoundRect,0.102000X0.754000X0.754000X-0.754000X0.754000X-0.754000X-0.754000X0.754000X-0.754000X0*%
%ADD29C,1.712000*%
%ADD30C,1.624000*%
%ADD31RoundRect,0.050000X-0.850000X-0.850000X0.850000X-0.850000X0.850000X0.850000X-0.850000X0.850000X0*%
%ADD32O,1.800000X1.800000*%
%ADD33C,1.000000*%
G04 APERTURE END LIST*
D10*
%TO.C,Ultrasonic_sensor1*%
X161800000Y-147600000D03*
X159260000Y-147600000D03*
X156720000Y-147600000D03*
X154180000Y-147600000D03*
%TD*%
D11*
%TO.C,SW1*%
X157400000Y-95600000D03*
D10*
X154860000Y-95600000D03*
X159940000Y-95600000D03*
%TD*%
D12*
%TO.C,C1*%
X169600000Y-111187500D03*
X169600000Y-108212500D03*
%TD*%
D13*
%TO.C,C2*%
X165900000Y-126412500D03*
X165900000Y-129387500D03*
%TD*%
%TO.C,C3*%
X175000000Y-96512500D03*
X175000000Y-99487500D03*
%TD*%
%TO.C,C4*%
X166000000Y-108212500D03*
X166000000Y-111187500D03*
%TD*%
D14*
%TO.C,D2*%
X141925000Y-95100000D03*
D15*
X144465000Y-95100000D03*
%TD*%
D10*
%TO.C,nRF24L01+1*%
X139150000Y-75705000D03*
X141690000Y-75705000D03*
X144230000Y-75705000D03*
X146770000Y-75705000D03*
X139150000Y-73165000D03*
X141690000Y-73165000D03*
X144230000Y-73165000D03*
X146770000Y-73165000D03*
%TD*%
D16*
%TO.C,R1*%
X149787500Y-95300000D03*
X146812500Y-95300000D03*
%TD*%
D12*
%TO.C,R2*%
X165900000Y-120087500D03*
X165900000Y-117112500D03*
%TD*%
D16*
%TO.C,R3*%
X153487500Y-85000000D03*
X150512500Y-85000000D03*
%TD*%
D13*
%TO.C,R4*%
X153000000Y-87512500D03*
X153000000Y-90487500D03*
%TD*%
%TO.C,R5*%
X153000000Y-79512500D03*
X153000000Y-82487500D03*
%TD*%
D17*
%TO.C,U3*%
X169390000Y-131450000D03*
X170660000Y-131450000D03*
X171930000Y-131450000D03*
X173200000Y-131450000D03*
X173200000Y-126500000D03*
X171930000Y-126500000D03*
X170660000Y-126500000D03*
X169390000Y-126500000D03*
%TD*%
D18*
%TO.C,R7*%
X159500000Y-78000000D03*
X162625000Y-78000000D03*
%TD*%
D19*
%TO.C,A1*%
X144390000Y-102250000D03*
D20*
X144390000Y-104790000D03*
X144390000Y-107330000D03*
X144390000Y-109870000D03*
X144390000Y-112410000D03*
X144390000Y-114950000D03*
X144390000Y-117490000D03*
X144390000Y-120030000D03*
X144390000Y-122570000D03*
X144390000Y-125110000D03*
X144390000Y-127650000D03*
X144390000Y-130190000D03*
X144390000Y-132730000D03*
X144390000Y-135270000D03*
X144390000Y-137810000D03*
X159630000Y-137810000D03*
X159630000Y-135270000D03*
X159630000Y-132730000D03*
X159630000Y-130190000D03*
X159630000Y-127650000D03*
X159630000Y-125110000D03*
X159630000Y-122570000D03*
X159630000Y-120030000D03*
X159630000Y-117490000D03*
X159630000Y-114950000D03*
X159630000Y-112410000D03*
X159630000Y-109870000D03*
X159630000Y-107330000D03*
X159630000Y-104790000D03*
X159630000Y-102250000D03*
%TD*%
D18*
%TO.C,R6*%
X159437500Y-75000000D03*
X162562500Y-75000000D03*
%TD*%
%TO.C,R8*%
X159500000Y-81350000D03*
X162625000Y-81350000D03*
%TD*%
D21*
%TO.C,BT1*%
X170500000Y-74000000D03*
X170500000Y-90510000D03*
D22*
X170500000Y-82255000D03*
%TD*%
D23*
%TO.C,U5*%
X165350000Y-94700000D03*
X165350000Y-97000000D03*
D24*
X171650000Y-97000000D03*
D23*
X165350000Y-99300000D03*
%TD*%
D18*
%TO.C,R9*%
X159500000Y-84700000D03*
X162625000Y-84700000D03*
%TD*%
%TO.C,R10*%
X159500000Y-88050000D03*
X162625000Y-88050000D03*
%TD*%
%TO.C,R11*%
X159500000Y-91400000D03*
X162625000Y-91400000D03*
%TD*%
D25*
%TO.C,U2*%
X148040000Y-80200000D03*
X146770000Y-80200000D03*
X145500000Y-80200000D03*
X144230000Y-80200000D03*
X142960000Y-80200000D03*
X141690000Y-80200000D03*
X140420000Y-80200000D03*
X139150000Y-80200000D03*
X139150000Y-89500000D03*
X140420000Y-89500000D03*
X141690000Y-89500000D03*
X142960000Y-89500000D03*
X144230000Y-89500000D03*
X145500000Y-89500000D03*
X146770000Y-89500000D03*
X148040000Y-89500000D03*
%TD*%
D26*
%TO.C,C5*%
X155027400Y-74500000D03*
D27*
X157027400Y-74500000D03*
%TD*%
D28*
%TO.C,J1*%
X168200000Y-145925000D03*
D29*
X170700000Y-145925000D03*
X173200000Y-145925000D03*
%TD*%
D30*
%TO.C,U1*%
X174700000Y-138560000D03*
X169620000Y-138560000D03*
X174700000Y-103000000D03*
X164540000Y-138560000D03*
X164540000Y-103000000D03*
%TD*%
%TO.C,U4*%
X146722500Y-145327500D03*
X144182500Y-145327500D03*
X141642500Y-145327500D03*
X139102500Y-145327500D03*
%TD*%
D31*
%TO.C,J2*%
X140000000Y-117540000D03*
D32*
X140000000Y-115000000D03*
%TD*%
D33*
%TO.C,P1*%
X172600000Y-75800000D03*
X172600000Y-83800000D03*
%TD*%
M02*
