M48
; DRILL file {KiCad 9.0.5} date 2026-01-02T17:56:49-0500
; FORMAT={-:-/ absolute / metric / decimal}
; #@! TF.CreationDate,2026-01-02T17:56:49-05:00
; #@! TF.GenerationSoftware,Kicad,Pcbnew,9.0.5
; #@! TF.FileFunction,Plated,1,2,PTH
FMAT,2
METRIC
; #@! TA.AperFunction,Plated,PTH,ViaDrill
T1C0.400
; #@! TA.AperFunction,Plated,PTH,ComponentDrill
T2C0.600
; #@! TA.AperFunction,Plated,PTH,ComponentDrill
T3C0.762
; #@! TA.AperFunction,Plated,PTH,ComponentDrill
T4C0.800
; #@! TA.AperFunction,Plated,PTH,ComponentDrill
T5C0.900
; #@! TA.AperFunction,Plated,PTH,ComponentDrill
T6C1.000
%
G90
G05
T1
X139.739Y-92.913
X141.05Y-84.5
X142.8Y-84.5
X146.3Y-82.1
X147.761Y-110.307
X147.781Y-81.895
X148.09Y-107.904
X157.4Y-101.9
X157.434Y-76.45
X160.005Y-91.498
X160.046Y-79.406
X164.014Y-85.875
X164.239Y-82.414
X165.16Y-100.907
X166.3Y-105.2
X169.093Y-128.946
T2
X155.027Y-74.5
X157.027Y-74.5
T3
X164.54Y-103.0
X164.54Y-138.56
X169.62Y-138.56
X174.7Y-103.0
X174.7Y-138.56
T4
X154.72Y-94.9
X157.26Y-94.9
X159.8Y-94.9
T5
X141.925Y-95.1
X144.465Y-95.1
T6
X139.102Y-145.327
X139.15Y-73.165
X139.15Y-75.705
X140.0Y-115.0
X140.0Y-117.54
X141.642Y-145.327
X141.69Y-73.165
X141.69Y-75.705
X144.183Y-145.327
X144.23Y-73.165
X144.23Y-75.705
X144.39Y-102.25
X144.39Y-104.79
X144.39Y-107.33
X144.39Y-109.87
X144.39Y-112.41
X144.39Y-114.95
X144.39Y-117.49
X144.39Y-120.03
X144.39Y-122.57
X144.39Y-125.11
X144.39Y-127.65
X144.39Y-130.19
X144.39Y-132.73
X144.39Y-135.27
X144.39Y-137.81
X146.722Y-145.327
X146.77Y-73.165
X146.77Y-75.705
X154.18Y-147.6
X156.72Y-147.6
X159.26Y-147.6
X159.63Y-102.25
X159.63Y-104.79
X159.63Y-107.33
X159.63Y-109.87
X159.63Y-112.41
X159.63Y-114.95
X159.63Y-117.49
X159.63Y-120.03
X159.63Y-122.57
X159.63Y-125.11
X159.63Y-127.65
X159.63Y-130.19
X159.63Y-132.73
X159.63Y-135.27
X159.63Y-137.81
X161.8Y-147.6
X168.2Y-145.925
X170.7Y-145.925
X173.2Y-145.925
M30
