%TF.GenerationSoftware,KiCad,Pcbnew,9.0.7*%
%TF.CreationDate,2026-06-01T12:59:42-04:00*%
%TF.ProjectId,main_board,6d61696e-5f62-46f6-9172-642e6b696361,rev?*%
%TF.SameCoordinates,Original*%
%TF.FileFunction,Legend,Top*%
%TF.FilePolarity,Positive*%
%FSLAX46Y46*%
G04 Gerber Fmt 4.6, Leading zero omitted, Abs format (unit mm)*
G04 Created by KiCad (PCBNEW 9.0.7) date 2026-06-01 12:59:42*
%MOMM*%
%LPD*%
G01*
G04 APERTURE LIST*
%ADD10C,0.150000*%
%ADD11C,0.120000*%
%ADD12C,0.200000*%
%ADD13C,0.100000*%
G04 APERTURE END LIST*
D10*
X170800000Y-147898628D02*
X170800000Y-148374819D01*
X170466667Y-147374819D02*
X170800000Y-147898628D01*
X170800000Y-147898628D02*
X171133333Y-147374819D01*
X173401428Y-147781009D02*
X173544285Y-147828628D01*
X173544285Y-147828628D02*
X173591904Y-147876247D01*
X173591904Y-147876247D02*
X173639523Y-147971485D01*
X173639523Y-147971485D02*
X173639523Y-148114342D01*
X173639523Y-148114342D02*
X173591904Y-148209580D01*
X173591904Y-148209580D02*
X173544285Y-148257200D01*
X173544285Y-148257200D02*
X173449047Y-148304819D01*
X173449047Y-148304819D02*
X173068095Y-148304819D01*
X173068095Y-148304819D02*
X173068095Y-147304819D01*
X173068095Y-147304819D02*
X173401428Y-147304819D01*
X173401428Y-147304819D02*
X173496666Y-147352438D01*
X173496666Y-147352438D02*
X173544285Y-147400057D01*
X173544285Y-147400057D02*
X173591904Y-147495295D01*
X173591904Y-147495295D02*
X173591904Y-147590533D01*
X173591904Y-147590533D02*
X173544285Y-147685771D01*
X173544285Y-147685771D02*
X173496666Y-147733390D01*
X173496666Y-147733390D02*
X173401428Y-147781009D01*
X173401428Y-147781009D02*
X173068095Y-147781009D01*
X168579523Y-148444819D02*
X168246190Y-147968628D01*
X168008095Y-148444819D02*
X168008095Y-147444819D01*
X168008095Y-147444819D02*
X168389047Y-147444819D01*
X168389047Y-147444819D02*
X168484285Y-147492438D01*
X168484285Y-147492438D02*
X168531904Y-147540057D01*
X168531904Y-147540057D02*
X168579523Y-147635295D01*
X168579523Y-147635295D02*
X168579523Y-147778152D01*
X168579523Y-147778152D02*
X168531904Y-147873390D01*
X168531904Y-147873390D02*
X168484285Y-147921009D01*
X168484285Y-147921009D02*
X168389047Y-147968628D01*
X168389047Y-147968628D02*
X168008095Y-147968628D01*
D11*
X152920000Y-146325000D02*
X163080000Y-146325000D01*
X163080000Y-148865000D01*
X152920000Y-148865000D01*
X152920000Y-146325000D01*
D10*
X160047619Y-92454819D02*
X160238095Y-92454819D01*
X160238095Y-92454819D02*
X160333333Y-92502438D01*
X160333333Y-92502438D02*
X160428571Y-92597676D01*
X160428571Y-92597676D02*
X160476190Y-92788152D01*
X160476190Y-92788152D02*
X160476190Y-93121485D01*
X160476190Y-93121485D02*
X160428571Y-93311961D01*
X160428571Y-93311961D02*
X160333333Y-93407200D01*
X160333333Y-93407200D02*
X160238095Y-93454819D01*
X160238095Y-93454819D02*
X160047619Y-93454819D01*
X160047619Y-93454819D02*
X159952381Y-93407200D01*
X159952381Y-93407200D02*
X159857143Y-93311961D01*
X159857143Y-93311961D02*
X159809524Y-93121485D01*
X159809524Y-93121485D02*
X159809524Y-92788152D01*
X159809524Y-92788152D02*
X159857143Y-92597676D01*
X159857143Y-92597676D02*
X159952381Y-92502438D01*
X159952381Y-92502438D02*
X160047619Y-92454819D01*
X161238095Y-92931009D02*
X160904762Y-92931009D01*
X160904762Y-93454819D02*
X160904762Y-92454819D01*
X160904762Y-92454819D02*
X161380952Y-92454819D01*
X162095238Y-92931009D02*
X161761905Y-92931009D01*
X161761905Y-93454819D02*
X161761905Y-92454819D01*
X161761905Y-92454819D02*
X162238095Y-92454819D01*
D12*
X148254763Y-69419100D02*
X148440477Y-69481004D01*
X148440477Y-69481004D02*
X148750001Y-69481004D01*
X148750001Y-69481004D02*
X148873810Y-69419100D01*
X148873810Y-69419100D02*
X148935715Y-69357195D01*
X148935715Y-69357195D02*
X148997620Y-69233385D01*
X148997620Y-69233385D02*
X148997620Y-69109576D01*
X148997620Y-69109576D02*
X148935715Y-68985766D01*
X148935715Y-68985766D02*
X148873810Y-68923861D01*
X148873810Y-68923861D02*
X148750001Y-68861957D01*
X148750001Y-68861957D02*
X148502382Y-68800052D01*
X148502382Y-68800052D02*
X148378572Y-68738147D01*
X148378572Y-68738147D02*
X148316667Y-68676242D01*
X148316667Y-68676242D02*
X148254763Y-68552433D01*
X148254763Y-68552433D02*
X148254763Y-68428623D01*
X148254763Y-68428623D02*
X148316667Y-68304814D01*
X148316667Y-68304814D02*
X148378572Y-68242909D01*
X148378572Y-68242909D02*
X148502382Y-68181004D01*
X148502382Y-68181004D02*
X148811905Y-68181004D01*
X148811905Y-68181004D02*
X148997620Y-68242909D01*
X149369048Y-68614338D02*
X149864286Y-68614338D01*
X149554762Y-68181004D02*
X149554762Y-69295290D01*
X149554762Y-69295290D02*
X149616667Y-69419100D01*
X149616667Y-69419100D02*
X149740477Y-69481004D01*
X149740477Y-69481004D02*
X149864286Y-69481004D01*
X150854762Y-69481004D02*
X150854762Y-68800052D01*
X150854762Y-68800052D02*
X150792857Y-68676242D01*
X150792857Y-68676242D02*
X150669048Y-68614338D01*
X150669048Y-68614338D02*
X150421429Y-68614338D01*
X150421429Y-68614338D02*
X150297619Y-68676242D01*
X150854762Y-69419100D02*
X150730953Y-69481004D01*
X150730953Y-69481004D02*
X150421429Y-69481004D01*
X150421429Y-69481004D02*
X150297619Y-69419100D01*
X150297619Y-69419100D02*
X150235715Y-69295290D01*
X150235715Y-69295290D02*
X150235715Y-69171480D01*
X150235715Y-69171480D02*
X150297619Y-69047671D01*
X150297619Y-69047671D02*
X150421429Y-68985766D01*
X150421429Y-68985766D02*
X150730953Y-68985766D01*
X150730953Y-68985766D02*
X150854762Y-68923861D01*
X152030952Y-68614338D02*
X152030952Y-69666719D01*
X152030952Y-69666719D02*
X151969047Y-69790528D01*
X151969047Y-69790528D02*
X151907143Y-69852433D01*
X151907143Y-69852433D02*
X151783333Y-69914338D01*
X151783333Y-69914338D02*
X151597619Y-69914338D01*
X151597619Y-69914338D02*
X151473809Y-69852433D01*
X152030952Y-69419100D02*
X151907143Y-69481004D01*
X151907143Y-69481004D02*
X151659524Y-69481004D01*
X151659524Y-69481004D02*
X151535714Y-69419100D01*
X151535714Y-69419100D02*
X151473809Y-69357195D01*
X151473809Y-69357195D02*
X151411905Y-69233385D01*
X151411905Y-69233385D02*
X151411905Y-68861957D01*
X151411905Y-68861957D02*
X151473809Y-68738147D01*
X151473809Y-68738147D02*
X151535714Y-68676242D01*
X151535714Y-68676242D02*
X151659524Y-68614338D01*
X151659524Y-68614338D02*
X151907143Y-68614338D01*
X151907143Y-68614338D02*
X152030952Y-68676242D01*
X153145237Y-69419100D02*
X153021428Y-69481004D01*
X153021428Y-69481004D02*
X152773809Y-69481004D01*
X152773809Y-69481004D02*
X152649999Y-69419100D01*
X152649999Y-69419100D02*
X152588095Y-69295290D01*
X152588095Y-69295290D02*
X152588095Y-68800052D01*
X152588095Y-68800052D02*
X152649999Y-68676242D01*
X152649999Y-68676242D02*
X152773809Y-68614338D01*
X152773809Y-68614338D02*
X153021428Y-68614338D01*
X153021428Y-68614338D02*
X153145237Y-68676242D01*
X153145237Y-68676242D02*
X153207142Y-68800052D01*
X153207142Y-68800052D02*
X153207142Y-68923861D01*
X153207142Y-68923861D02*
X152588095Y-69047671D01*
X154754761Y-69481004D02*
X154754761Y-68181004D01*
X154754761Y-68800052D02*
X155497618Y-68800052D01*
X155497618Y-69481004D02*
X155497618Y-68181004D01*
X156611904Y-69419100D02*
X156488095Y-69481004D01*
X156488095Y-69481004D02*
X156240476Y-69481004D01*
X156240476Y-69481004D02*
X156116666Y-69419100D01*
X156116666Y-69419100D02*
X156054762Y-69295290D01*
X156054762Y-69295290D02*
X156054762Y-68800052D01*
X156054762Y-68800052D02*
X156116666Y-68676242D01*
X156116666Y-68676242D02*
X156240476Y-68614338D01*
X156240476Y-68614338D02*
X156488095Y-68614338D01*
X156488095Y-68614338D02*
X156611904Y-68676242D01*
X156611904Y-68676242D02*
X156673809Y-68800052D01*
X156673809Y-68800052D02*
X156673809Y-68923861D01*
X156673809Y-68923861D02*
X156054762Y-69047671D01*
X157230952Y-69481004D02*
X157230952Y-68614338D01*
X157230952Y-68181004D02*
X157169048Y-68242909D01*
X157169048Y-68242909D02*
X157230952Y-68304814D01*
X157230952Y-68304814D02*
X157292857Y-68242909D01*
X157292857Y-68242909D02*
X157230952Y-68181004D01*
X157230952Y-68181004D02*
X157230952Y-68304814D01*
X158407143Y-68614338D02*
X158407143Y-69666719D01*
X158407143Y-69666719D02*
X158345238Y-69790528D01*
X158345238Y-69790528D02*
X158283334Y-69852433D01*
X158283334Y-69852433D02*
X158159524Y-69914338D01*
X158159524Y-69914338D02*
X157973810Y-69914338D01*
X157973810Y-69914338D02*
X157850000Y-69852433D01*
X158407143Y-69419100D02*
X158283334Y-69481004D01*
X158283334Y-69481004D02*
X158035715Y-69481004D01*
X158035715Y-69481004D02*
X157911905Y-69419100D01*
X157911905Y-69419100D02*
X157850000Y-69357195D01*
X157850000Y-69357195D02*
X157788096Y-69233385D01*
X157788096Y-69233385D02*
X157788096Y-68861957D01*
X157788096Y-68861957D02*
X157850000Y-68738147D01*
X157850000Y-68738147D02*
X157911905Y-68676242D01*
X157911905Y-68676242D02*
X158035715Y-68614338D01*
X158035715Y-68614338D02*
X158283334Y-68614338D01*
X158283334Y-68614338D02*
X158407143Y-68676242D01*
X159026190Y-69481004D02*
X159026190Y-68181004D01*
X159583333Y-69481004D02*
X159583333Y-68800052D01*
X159583333Y-68800052D02*
X159521428Y-68676242D01*
X159521428Y-68676242D02*
X159397619Y-68614338D01*
X159397619Y-68614338D02*
X159211905Y-68614338D01*
X159211905Y-68614338D02*
X159088095Y-68676242D01*
X159088095Y-68676242D02*
X159026190Y-68738147D01*
X160016666Y-68614338D02*
X160511904Y-68614338D01*
X160202380Y-68181004D02*
X160202380Y-69295290D01*
X160202380Y-69295290D02*
X160264285Y-69419100D01*
X160264285Y-69419100D02*
X160388095Y-69481004D01*
X160388095Y-69481004D02*
X160511904Y-69481004D01*
X161749999Y-68181004D02*
X162183332Y-69481004D01*
X162183332Y-69481004D02*
X162616666Y-68181004D01*
X163297618Y-68181004D02*
X163421428Y-68181004D01*
X163421428Y-68181004D02*
X163545237Y-68242909D01*
X163545237Y-68242909D02*
X163607142Y-68304814D01*
X163607142Y-68304814D02*
X163669047Y-68428623D01*
X163669047Y-68428623D02*
X163730952Y-68676242D01*
X163730952Y-68676242D02*
X163730952Y-68985766D01*
X163730952Y-68985766D02*
X163669047Y-69233385D01*
X163669047Y-69233385D02*
X163607142Y-69357195D01*
X163607142Y-69357195D02*
X163545237Y-69419100D01*
X163545237Y-69419100D02*
X163421428Y-69481004D01*
X163421428Y-69481004D02*
X163297618Y-69481004D01*
X163297618Y-69481004D02*
X163173809Y-69419100D01*
X163173809Y-69419100D02*
X163111904Y-69357195D01*
X163111904Y-69357195D02*
X163049999Y-69233385D01*
X163049999Y-69233385D02*
X162988095Y-68985766D01*
X162988095Y-68985766D02*
X162988095Y-68676242D01*
X162988095Y-68676242D02*
X163049999Y-68428623D01*
X163049999Y-68428623D02*
X163111904Y-68304814D01*
X163111904Y-68304814D02*
X163173809Y-68242909D01*
X163173809Y-68242909D02*
X163297618Y-68181004D01*
X164288094Y-69357195D02*
X164349999Y-69419100D01*
X164349999Y-69419100D02*
X164288094Y-69481004D01*
X164288094Y-69481004D02*
X164226190Y-69419100D01*
X164226190Y-69419100D02*
X164288094Y-69357195D01*
X164288094Y-69357195D02*
X164288094Y-69481004D01*
X165526190Y-68181004D02*
X164907142Y-68181004D01*
X164907142Y-68181004D02*
X164845238Y-68800052D01*
X164845238Y-68800052D02*
X164907142Y-68738147D01*
X164907142Y-68738147D02*
X165030952Y-68676242D01*
X165030952Y-68676242D02*
X165340476Y-68676242D01*
X165340476Y-68676242D02*
X165464285Y-68738147D01*
X165464285Y-68738147D02*
X165526190Y-68800052D01*
X165526190Y-68800052D02*
X165588095Y-68923861D01*
X165588095Y-68923861D02*
X165588095Y-69233385D01*
X165588095Y-69233385D02*
X165526190Y-69357195D01*
X165526190Y-69357195D02*
X165464285Y-69419100D01*
X165464285Y-69419100D02*
X165340476Y-69481004D01*
X165340476Y-69481004D02*
X165030952Y-69481004D01*
X165030952Y-69481004D02*
X164907142Y-69419100D01*
X164907142Y-69419100D02*
X164845238Y-69357195D01*
X166145237Y-69357195D02*
X166207142Y-69419100D01*
X166207142Y-69419100D02*
X166145237Y-69481004D01*
X166145237Y-69481004D02*
X166083333Y-69419100D01*
X166083333Y-69419100D02*
X166145237Y-69357195D01*
X166145237Y-69357195D02*
X166145237Y-69481004D01*
X166702381Y-68304814D02*
X166764285Y-68242909D01*
X166764285Y-68242909D02*
X166888095Y-68181004D01*
X166888095Y-68181004D02*
X167197619Y-68181004D01*
X167197619Y-68181004D02*
X167321428Y-68242909D01*
X167321428Y-68242909D02*
X167383333Y-68304814D01*
X167383333Y-68304814D02*
X167445238Y-68428623D01*
X167445238Y-68428623D02*
X167445238Y-68552433D01*
X167445238Y-68552433D02*
X167383333Y-68738147D01*
X167383333Y-68738147D02*
X166640476Y-69481004D01*
X166640476Y-69481004D02*
X167445238Y-69481004D01*
D10*
X152880952Y-92454819D02*
X153071428Y-92454819D01*
X153071428Y-92454819D02*
X153166666Y-92502438D01*
X153166666Y-92502438D02*
X153261904Y-92597676D01*
X153261904Y-92597676D02*
X153309523Y-92788152D01*
X153309523Y-92788152D02*
X153309523Y-93121485D01*
X153309523Y-93121485D02*
X153261904Y-93311961D01*
X153261904Y-93311961D02*
X153166666Y-93407200D01*
X153166666Y-93407200D02*
X153071428Y-93454819D01*
X153071428Y-93454819D02*
X152880952Y-93454819D01*
X152880952Y-93454819D02*
X152785714Y-93407200D01*
X152785714Y-93407200D02*
X152690476Y-93311961D01*
X152690476Y-93311961D02*
X152642857Y-93121485D01*
X152642857Y-93121485D02*
X152642857Y-92788152D01*
X152642857Y-92788152D02*
X152690476Y-92597676D01*
X152690476Y-92597676D02*
X152785714Y-92502438D01*
X152785714Y-92502438D02*
X152880952Y-92454819D01*
X153738095Y-93454819D02*
X153738095Y-92454819D01*
X153738095Y-92454819D02*
X154309523Y-93454819D01*
X154309523Y-93454819D02*
X154309523Y-92454819D01*
X167738094Y-100954819D02*
X167261904Y-100954819D01*
X167261904Y-100954819D02*
X167214285Y-101431009D01*
X167214285Y-101431009D02*
X167261904Y-101383390D01*
X167261904Y-101383390D02*
X167357142Y-101335771D01*
X167357142Y-101335771D02*
X167595237Y-101335771D01*
X167595237Y-101335771D02*
X167690475Y-101383390D01*
X167690475Y-101383390D02*
X167738094Y-101431009D01*
X167738094Y-101431009D02*
X167785713Y-101526247D01*
X167785713Y-101526247D02*
X167785713Y-101764342D01*
X167785713Y-101764342D02*
X167738094Y-101859580D01*
X167738094Y-101859580D02*
X167690475Y-101907200D01*
X167690475Y-101907200D02*
X167595237Y-101954819D01*
X167595237Y-101954819D02*
X167357142Y-101954819D01*
X167357142Y-101954819D02*
X167261904Y-101907200D01*
X167261904Y-101907200D02*
X167214285Y-101859580D01*
X168071428Y-100954819D02*
X168404761Y-101954819D01*
X168404761Y-101954819D02*
X168738094Y-100954819D01*
X169833333Y-101954819D02*
X169833333Y-101288152D01*
X169833333Y-101478628D02*
X169880952Y-101383390D01*
X169880952Y-101383390D02*
X169928571Y-101335771D01*
X169928571Y-101335771D02*
X170023809Y-101288152D01*
X170023809Y-101288152D02*
X170119047Y-101288152D01*
X170833333Y-101907200D02*
X170738095Y-101954819D01*
X170738095Y-101954819D02*
X170547619Y-101954819D01*
X170547619Y-101954819D02*
X170452381Y-101907200D01*
X170452381Y-101907200D02*
X170404762Y-101811961D01*
X170404762Y-101811961D02*
X170404762Y-101431009D01*
X170404762Y-101431009D02*
X170452381Y-101335771D01*
X170452381Y-101335771D02*
X170547619Y-101288152D01*
X170547619Y-101288152D02*
X170738095Y-101288152D01*
X170738095Y-101288152D02*
X170833333Y-101335771D01*
X170833333Y-101335771D02*
X170880952Y-101431009D01*
X170880952Y-101431009D02*
X170880952Y-101526247D01*
X170880952Y-101526247D02*
X170404762Y-101621485D01*
X171738095Y-101288152D02*
X171738095Y-102097676D01*
X171738095Y-102097676D02*
X171690476Y-102192914D01*
X171690476Y-102192914D02*
X171642857Y-102240533D01*
X171642857Y-102240533D02*
X171547619Y-102288152D01*
X171547619Y-102288152D02*
X171404762Y-102288152D01*
X171404762Y-102288152D02*
X171309524Y-102240533D01*
X171738095Y-101907200D02*
X171642857Y-101954819D01*
X171642857Y-101954819D02*
X171452381Y-101954819D01*
X171452381Y-101954819D02*
X171357143Y-101907200D01*
X171357143Y-101907200D02*
X171309524Y-101859580D01*
X171309524Y-101859580D02*
X171261905Y-101764342D01*
X171261905Y-101764342D02*
X171261905Y-101478628D01*
X171261905Y-101478628D02*
X171309524Y-101383390D01*
X171309524Y-101383390D02*
X171357143Y-101335771D01*
X171357143Y-101335771D02*
X171452381Y-101288152D01*
X171452381Y-101288152D02*
X171642857Y-101288152D01*
X171642857Y-101288152D02*
X171738095Y-101335771D01*
X154119104Y-132677142D02*
X154119104Y-132200952D01*
X154404819Y-132772380D02*
X153404819Y-132439047D01*
X153404819Y-132439047D02*
X154404819Y-132105714D01*
X154404819Y-131772380D02*
X153738152Y-131772380D01*
X153928628Y-131772380D02*
X153833390Y-131724761D01*
X153833390Y-131724761D02*
X153785771Y-131677142D01*
X153785771Y-131677142D02*
X153738152Y-131581904D01*
X153738152Y-131581904D02*
X153738152Y-131486666D01*
X154404819Y-130724761D02*
X153404819Y-130724761D01*
X154357200Y-130724761D02*
X154404819Y-130819999D01*
X154404819Y-130819999D02*
X154404819Y-131010475D01*
X154404819Y-131010475D02*
X154357200Y-131105713D01*
X154357200Y-131105713D02*
X154309580Y-131153332D01*
X154309580Y-131153332D02*
X154214342Y-131200951D01*
X154214342Y-131200951D02*
X153928628Y-131200951D01*
X153928628Y-131200951D02*
X153833390Y-131153332D01*
X153833390Y-131153332D02*
X153785771Y-131105713D01*
X153785771Y-131105713D02*
X153738152Y-131010475D01*
X153738152Y-131010475D02*
X153738152Y-130819999D01*
X153738152Y-130819999D02*
X153785771Y-130724761D01*
X153738152Y-129819999D02*
X154404819Y-129819999D01*
X153738152Y-130248570D02*
X154261961Y-130248570D01*
X154261961Y-130248570D02*
X154357200Y-130200951D01*
X154357200Y-130200951D02*
X154404819Y-130105713D01*
X154404819Y-130105713D02*
X154404819Y-129962856D01*
X154404819Y-129962856D02*
X154357200Y-129867618D01*
X154357200Y-129867618D02*
X154309580Y-129819999D01*
X154404819Y-129343808D02*
X153738152Y-129343808D01*
X153404819Y-129343808D02*
X153452438Y-129391427D01*
X153452438Y-129391427D02*
X153500057Y-129343808D01*
X153500057Y-129343808D02*
X153452438Y-129296189D01*
X153452438Y-129296189D02*
X153404819Y-129343808D01*
X153404819Y-129343808D02*
X153500057Y-129343808D01*
X153738152Y-128867618D02*
X154404819Y-128867618D01*
X153833390Y-128867618D02*
X153785771Y-128819999D01*
X153785771Y-128819999D02*
X153738152Y-128724761D01*
X153738152Y-128724761D02*
X153738152Y-128581904D01*
X153738152Y-128581904D02*
X153785771Y-128486666D01*
X153785771Y-128486666D02*
X153881009Y-128439047D01*
X153881009Y-128439047D02*
X154404819Y-128439047D01*
X154404819Y-127819999D02*
X154357200Y-127915237D01*
X154357200Y-127915237D02*
X154309580Y-127962856D01*
X154309580Y-127962856D02*
X154214342Y-128010475D01*
X154214342Y-128010475D02*
X153928628Y-128010475D01*
X153928628Y-128010475D02*
X153833390Y-127962856D01*
X153833390Y-127962856D02*
X153785771Y-127915237D01*
X153785771Y-127915237D02*
X153738152Y-127819999D01*
X153738152Y-127819999D02*
X153738152Y-127677142D01*
X153738152Y-127677142D02*
X153785771Y-127581904D01*
X153785771Y-127581904D02*
X153833390Y-127534285D01*
X153833390Y-127534285D02*
X153928628Y-127486666D01*
X153928628Y-127486666D02*
X154214342Y-127486666D01*
X154214342Y-127486666D02*
X154309580Y-127534285D01*
X154309580Y-127534285D02*
X154357200Y-127581904D01*
X154357200Y-127581904D02*
X154404819Y-127677142D01*
X154404819Y-127677142D02*
X154404819Y-127819999D01*
X154404819Y-126296189D02*
X153404819Y-126296189D01*
X153404819Y-126296189D02*
X154404819Y-125724761D01*
X154404819Y-125724761D02*
X153404819Y-125724761D01*
X154404819Y-124819999D02*
X153881009Y-124819999D01*
X153881009Y-124819999D02*
X153785771Y-124867618D01*
X153785771Y-124867618D02*
X153738152Y-124962856D01*
X153738152Y-124962856D02*
X153738152Y-125153332D01*
X153738152Y-125153332D02*
X153785771Y-125248570D01*
X154357200Y-124819999D02*
X154404819Y-124915237D01*
X154404819Y-124915237D02*
X154404819Y-125153332D01*
X154404819Y-125153332D02*
X154357200Y-125248570D01*
X154357200Y-125248570D02*
X154261961Y-125296189D01*
X154261961Y-125296189D02*
X154166723Y-125296189D01*
X154166723Y-125296189D02*
X154071485Y-125248570D01*
X154071485Y-125248570D02*
X154023866Y-125153332D01*
X154023866Y-125153332D02*
X154023866Y-124915237D01*
X154023866Y-124915237D02*
X153976247Y-124819999D01*
X153738152Y-124343808D02*
X154404819Y-124343808D01*
X153833390Y-124343808D02*
X153785771Y-124296189D01*
X153785771Y-124296189D02*
X153738152Y-124200951D01*
X153738152Y-124200951D02*
X153738152Y-124058094D01*
X153738152Y-124058094D02*
X153785771Y-123962856D01*
X153785771Y-123962856D02*
X153881009Y-123915237D01*
X153881009Y-123915237D02*
X154404819Y-123915237D01*
X154404819Y-123296189D02*
X154357200Y-123391427D01*
X154357200Y-123391427D02*
X154309580Y-123439046D01*
X154309580Y-123439046D02*
X154214342Y-123486665D01*
X154214342Y-123486665D02*
X153928628Y-123486665D01*
X153928628Y-123486665D02*
X153833390Y-123439046D01*
X153833390Y-123439046D02*
X153785771Y-123391427D01*
X153785771Y-123391427D02*
X153738152Y-123296189D01*
X153738152Y-123296189D02*
X153738152Y-123153332D01*
X153738152Y-123153332D02*
X153785771Y-123058094D01*
X153785771Y-123058094D02*
X153833390Y-123010475D01*
X153833390Y-123010475D02*
X153928628Y-122962856D01*
X153928628Y-122962856D02*
X154214342Y-122962856D01*
X154214342Y-122962856D02*
X154309580Y-123010475D01*
X154309580Y-123010475D02*
X154357200Y-123058094D01*
X154357200Y-123058094D02*
X154404819Y-123153332D01*
X154404819Y-123153332D02*
X154404819Y-123296189D01*
X139454819Y-87714285D02*
X138454819Y-87714285D01*
X138454819Y-87714285D02*
X138454819Y-87476190D01*
X138454819Y-87476190D02*
X138502438Y-87333333D01*
X138502438Y-87333333D02*
X138597676Y-87238095D01*
X138597676Y-87238095D02*
X138692914Y-87190476D01*
X138692914Y-87190476D02*
X138883390Y-87142857D01*
X138883390Y-87142857D02*
X139026247Y-87142857D01*
X139026247Y-87142857D02*
X139216723Y-87190476D01*
X139216723Y-87190476D02*
X139311961Y-87238095D01*
X139311961Y-87238095D02*
X139407200Y-87333333D01*
X139407200Y-87333333D02*
X139454819Y-87476190D01*
X139454819Y-87476190D02*
X139454819Y-87714285D01*
X139407200Y-86761904D02*
X139454819Y-86619047D01*
X139454819Y-86619047D02*
X139454819Y-86380952D01*
X139454819Y-86380952D02*
X139407200Y-86285714D01*
X139407200Y-86285714D02*
X139359580Y-86238095D01*
X139359580Y-86238095D02*
X139264342Y-86190476D01*
X139264342Y-86190476D02*
X139169104Y-86190476D01*
X139169104Y-86190476D02*
X139073866Y-86238095D01*
X139073866Y-86238095D02*
X139026247Y-86285714D01*
X139026247Y-86285714D02*
X138978628Y-86380952D01*
X138978628Y-86380952D02*
X138931009Y-86571428D01*
X138931009Y-86571428D02*
X138883390Y-86666666D01*
X138883390Y-86666666D02*
X138835771Y-86714285D01*
X138835771Y-86714285D02*
X138740533Y-86761904D01*
X138740533Y-86761904D02*
X138645295Y-86761904D01*
X138645295Y-86761904D02*
X138550057Y-86714285D01*
X138550057Y-86714285D02*
X138502438Y-86666666D01*
X138502438Y-86666666D02*
X138454819Y-86571428D01*
X138454819Y-86571428D02*
X138454819Y-86333333D01*
X138454819Y-86333333D02*
X138502438Y-86190476D01*
X138454819Y-85857142D02*
X138454819Y-85238095D01*
X138454819Y-85238095D02*
X138835771Y-85571428D01*
X138835771Y-85571428D02*
X138835771Y-85428571D01*
X138835771Y-85428571D02*
X138883390Y-85333333D01*
X138883390Y-85333333D02*
X138931009Y-85285714D01*
X138931009Y-85285714D02*
X139026247Y-85238095D01*
X139026247Y-85238095D02*
X139264342Y-85238095D01*
X139264342Y-85238095D02*
X139359580Y-85285714D01*
X139359580Y-85285714D02*
X139407200Y-85333333D01*
X139407200Y-85333333D02*
X139454819Y-85428571D01*
X139454819Y-85428571D02*
X139454819Y-85714285D01*
X139454819Y-85714285D02*
X139407200Y-85809523D01*
X139407200Y-85809523D02*
X139359580Y-85857142D01*
X138550057Y-84857142D02*
X138502438Y-84809523D01*
X138502438Y-84809523D02*
X138454819Y-84714285D01*
X138454819Y-84714285D02*
X138454819Y-84476190D01*
X138454819Y-84476190D02*
X138502438Y-84380952D01*
X138502438Y-84380952D02*
X138550057Y-84333333D01*
X138550057Y-84333333D02*
X138645295Y-84285714D01*
X138645295Y-84285714D02*
X138740533Y-84285714D01*
X138740533Y-84285714D02*
X138883390Y-84333333D01*
X138883390Y-84333333D02*
X139454819Y-84904761D01*
X139454819Y-84904761D02*
X139454819Y-84285714D01*
X138454819Y-83952380D02*
X138454819Y-83333333D01*
X138454819Y-83333333D02*
X138835771Y-83666666D01*
X138835771Y-83666666D02*
X138835771Y-83523809D01*
X138835771Y-83523809D02*
X138883390Y-83428571D01*
X138883390Y-83428571D02*
X138931009Y-83380952D01*
X138931009Y-83380952D02*
X139026247Y-83333333D01*
X139026247Y-83333333D02*
X139264342Y-83333333D01*
X139264342Y-83333333D02*
X139359580Y-83380952D01*
X139359580Y-83380952D02*
X139407200Y-83428571D01*
X139407200Y-83428571D02*
X139454819Y-83523809D01*
X139454819Y-83523809D02*
X139454819Y-83809523D01*
X139454819Y-83809523D02*
X139407200Y-83904761D01*
X139407200Y-83904761D02*
X139359580Y-83952380D01*
X139454819Y-82380952D02*
X139454819Y-82952380D01*
X139454819Y-82666666D02*
X138454819Y-82666666D01*
X138454819Y-82666666D02*
X138597676Y-82761904D01*
X138597676Y-82761904D02*
X138692914Y-82857142D01*
X138692914Y-82857142D02*
X138740533Y-82952380D01*
X139454819Y-81952380D02*
X138454819Y-81952380D01*
X138454819Y-81952380D02*
X139169104Y-81619047D01*
X139169104Y-81619047D02*
X138454819Y-81285714D01*
X138454819Y-81285714D02*
X139454819Y-81285714D01*
X142357142Y-98454819D02*
X141880952Y-98454819D01*
X141880952Y-98454819D02*
X141880952Y-97454819D01*
X142690476Y-97931009D02*
X143023809Y-97931009D01*
X143166666Y-98454819D02*
X142690476Y-98454819D01*
X142690476Y-98454819D02*
X142690476Y-97454819D01*
X142690476Y-97454819D02*
X143166666Y-97454819D01*
X143595238Y-98454819D02*
X143595238Y-97454819D01*
X143595238Y-97454819D02*
X143833333Y-97454819D01*
X143833333Y-97454819D02*
X143976190Y-97502438D01*
X143976190Y-97502438D02*
X144071428Y-97597676D01*
X144071428Y-97597676D02*
X144119047Y-97692914D01*
X144119047Y-97692914D02*
X144166666Y-97883390D01*
X144166666Y-97883390D02*
X144166666Y-98026247D01*
X144166666Y-98026247D02*
X144119047Y-98216723D01*
X144119047Y-98216723D02*
X144071428Y-98311961D01*
X144071428Y-98311961D02*
X143976190Y-98407200D01*
X143976190Y-98407200D02*
X143833333Y-98454819D01*
X143833333Y-98454819D02*
X143595238Y-98454819D01*
X162633333Y-134699580D02*
X162585714Y-134747200D01*
X162585714Y-134747200D02*
X162442857Y-134794819D01*
X162442857Y-134794819D02*
X162347619Y-134794819D01*
X162347619Y-134794819D02*
X162204762Y-134747200D01*
X162204762Y-134747200D02*
X162109524Y-134651961D01*
X162109524Y-134651961D02*
X162061905Y-134556723D01*
X162061905Y-134556723D02*
X162014286Y-134366247D01*
X162014286Y-134366247D02*
X162014286Y-134223390D01*
X162014286Y-134223390D02*
X162061905Y-134032914D01*
X162061905Y-134032914D02*
X162109524Y-133937676D01*
X162109524Y-133937676D02*
X162204762Y-133842438D01*
X162204762Y-133842438D02*
X162347619Y-133794819D01*
X162347619Y-133794819D02*
X162442857Y-133794819D01*
X162442857Y-133794819D02*
X162585714Y-133842438D01*
X162585714Y-133842438D02*
X162633333Y-133890057D01*
X163585714Y-134794819D02*
X163014286Y-134794819D01*
X163300000Y-134794819D02*
X163300000Y-133794819D01*
X163300000Y-133794819D02*
X163204762Y-133937676D01*
X163204762Y-133937676D02*
X163109524Y-134032914D01*
X163109524Y-134032914D02*
X163014286Y-134080533D01*
X175503333Y-94529580D02*
X175455714Y-94577200D01*
X175455714Y-94577200D02*
X175312857Y-94624819D01*
X175312857Y-94624819D02*
X175217619Y-94624819D01*
X175217619Y-94624819D02*
X175074762Y-94577200D01*
X175074762Y-94577200D02*
X174979524Y-94481961D01*
X174979524Y-94481961D02*
X174931905Y-94386723D01*
X174931905Y-94386723D02*
X174884286Y-94196247D01*
X174884286Y-94196247D02*
X174884286Y-94053390D01*
X174884286Y-94053390D02*
X174931905Y-93862914D01*
X174931905Y-93862914D02*
X174979524Y-93767676D01*
X174979524Y-93767676D02*
X175074762Y-93672438D01*
X175074762Y-93672438D02*
X175217619Y-93624819D01*
X175217619Y-93624819D02*
X175312857Y-93624819D01*
X175312857Y-93624819D02*
X175455714Y-93672438D01*
X175455714Y-93672438D02*
X175503333Y-93720057D01*
X175836667Y-93624819D02*
X176455714Y-93624819D01*
X176455714Y-93624819D02*
X176122381Y-94005771D01*
X176122381Y-94005771D02*
X176265238Y-94005771D01*
X176265238Y-94005771D02*
X176360476Y-94053390D01*
X176360476Y-94053390D02*
X176408095Y-94101009D01*
X176408095Y-94101009D02*
X176455714Y-94196247D01*
X176455714Y-94196247D02*
X176455714Y-94434342D01*
X176455714Y-94434342D02*
X176408095Y-94529580D01*
X176408095Y-94529580D02*
X176360476Y-94577200D01*
X176360476Y-94577200D02*
X176265238Y-94624819D01*
X176265238Y-94624819D02*
X175979524Y-94624819D01*
X175979524Y-94624819D02*
X175884286Y-94577200D01*
X175884286Y-94577200D02*
X175836667Y-94529580D01*
X175993333Y-135049580D02*
X175945714Y-135097200D01*
X175945714Y-135097200D02*
X175802857Y-135144819D01*
X175802857Y-135144819D02*
X175707619Y-135144819D01*
X175707619Y-135144819D02*
X175564762Y-135097200D01*
X175564762Y-135097200D02*
X175469524Y-135001961D01*
X175469524Y-135001961D02*
X175421905Y-134906723D01*
X175421905Y-134906723D02*
X175374286Y-134716247D01*
X175374286Y-134716247D02*
X175374286Y-134573390D01*
X175374286Y-134573390D02*
X175421905Y-134382914D01*
X175421905Y-134382914D02*
X175469524Y-134287676D01*
X175469524Y-134287676D02*
X175564762Y-134192438D01*
X175564762Y-134192438D02*
X175707619Y-134144819D01*
X175707619Y-134144819D02*
X175802857Y-134144819D01*
X175802857Y-134144819D02*
X175945714Y-134192438D01*
X175945714Y-134192438D02*
X175993333Y-134240057D01*
X176850476Y-134478152D02*
X176850476Y-135144819D01*
X176612381Y-134097200D02*
X176374286Y-134811485D01*
X176374286Y-134811485D02*
X176993333Y-134811485D01*
X142456905Y-92594819D02*
X142456905Y-91594819D01*
X142456905Y-91594819D02*
X142695000Y-91594819D01*
X142695000Y-91594819D02*
X142837857Y-91642438D01*
X142837857Y-91642438D02*
X142933095Y-91737676D01*
X142933095Y-91737676D02*
X142980714Y-91832914D01*
X142980714Y-91832914D02*
X143028333Y-92023390D01*
X143028333Y-92023390D02*
X143028333Y-92166247D01*
X143028333Y-92166247D02*
X142980714Y-92356723D01*
X142980714Y-92356723D02*
X142933095Y-92451961D01*
X142933095Y-92451961D02*
X142837857Y-92547200D01*
X142837857Y-92547200D02*
X142695000Y-92594819D01*
X142695000Y-92594819D02*
X142456905Y-92594819D01*
X143409286Y-91690057D02*
X143456905Y-91642438D01*
X143456905Y-91642438D02*
X143552143Y-91594819D01*
X143552143Y-91594819D02*
X143790238Y-91594819D01*
X143790238Y-91594819D02*
X143885476Y-91642438D01*
X143885476Y-91642438D02*
X143933095Y-91690057D01*
X143933095Y-91690057D02*
X143980714Y-91785295D01*
X143980714Y-91785295D02*
X143980714Y-91880533D01*
X143980714Y-91880533D02*
X143933095Y-92023390D01*
X143933095Y-92023390D02*
X143361667Y-92594819D01*
X143361667Y-92594819D02*
X143980714Y-92594819D01*
X148333333Y-97954819D02*
X148000000Y-97478628D01*
X147761905Y-97954819D02*
X147761905Y-96954819D01*
X147761905Y-96954819D02*
X148142857Y-96954819D01*
X148142857Y-96954819D02*
X148238095Y-97002438D01*
X148238095Y-97002438D02*
X148285714Y-97050057D01*
X148285714Y-97050057D02*
X148333333Y-97145295D01*
X148333333Y-97145295D02*
X148333333Y-97288152D01*
X148333333Y-97288152D02*
X148285714Y-97383390D01*
X148285714Y-97383390D02*
X148238095Y-97431009D01*
X148238095Y-97431009D02*
X148142857Y-97478628D01*
X148142857Y-97478628D02*
X147761905Y-97478628D01*
X149285714Y-97954819D02*
X148714286Y-97954819D01*
X149000000Y-97954819D02*
X149000000Y-96954819D01*
X149000000Y-96954819D02*
X148904762Y-97097676D01*
X148904762Y-97097676D02*
X148809524Y-97192914D01*
X148809524Y-97192914D02*
X148714286Y-97240533D01*
X172074819Y-134746666D02*
X171598628Y-135079999D01*
X172074819Y-135318094D02*
X171074819Y-135318094D01*
X171074819Y-135318094D02*
X171074819Y-134937142D01*
X171074819Y-134937142D02*
X171122438Y-134841904D01*
X171122438Y-134841904D02*
X171170057Y-134794285D01*
X171170057Y-134794285D02*
X171265295Y-134746666D01*
X171265295Y-134746666D02*
X171408152Y-134746666D01*
X171408152Y-134746666D02*
X171503390Y-134794285D01*
X171503390Y-134794285D02*
X171551009Y-134841904D01*
X171551009Y-134841904D02*
X171598628Y-134937142D01*
X171598628Y-134937142D02*
X171598628Y-135318094D01*
X171170057Y-134365713D02*
X171122438Y-134318094D01*
X171122438Y-134318094D02*
X171074819Y-134222856D01*
X171074819Y-134222856D02*
X171074819Y-133984761D01*
X171074819Y-133984761D02*
X171122438Y-133889523D01*
X171122438Y-133889523D02*
X171170057Y-133841904D01*
X171170057Y-133841904D02*
X171265295Y-133794285D01*
X171265295Y-133794285D02*
X171360533Y-133794285D01*
X171360533Y-133794285D02*
X171503390Y-133841904D01*
X171503390Y-133841904D02*
X172074819Y-134413332D01*
X172074819Y-134413332D02*
X172074819Y-133794285D01*
X162733333Y-76104819D02*
X162400000Y-75628628D01*
X162161905Y-76104819D02*
X162161905Y-75104819D01*
X162161905Y-75104819D02*
X162542857Y-75104819D01*
X162542857Y-75104819D02*
X162638095Y-75152438D01*
X162638095Y-75152438D02*
X162685714Y-75200057D01*
X162685714Y-75200057D02*
X162733333Y-75295295D01*
X162733333Y-75295295D02*
X162733333Y-75438152D01*
X162733333Y-75438152D02*
X162685714Y-75533390D01*
X162685714Y-75533390D02*
X162638095Y-75581009D01*
X162638095Y-75581009D02*
X162542857Y-75628628D01*
X162542857Y-75628628D02*
X162161905Y-75628628D01*
X163066667Y-75104819D02*
X163733333Y-75104819D01*
X163733333Y-75104819D02*
X163304762Y-76104819D01*
X151509104Y-124184285D02*
X151509104Y-123708095D01*
X151794819Y-124279523D02*
X150794819Y-123946190D01*
X150794819Y-123946190D02*
X151794819Y-123612857D01*
X151794819Y-122755714D02*
X151794819Y-123327142D01*
X151794819Y-123041428D02*
X150794819Y-123041428D01*
X150794819Y-123041428D02*
X150937676Y-123136666D01*
X150937676Y-123136666D02*
X151032914Y-123231904D01*
X151032914Y-123231904D02*
X151080533Y-123327142D01*
X150088095Y-137234819D02*
X150088095Y-138044342D01*
X150088095Y-138044342D02*
X150135714Y-138139580D01*
X150135714Y-138139580D02*
X150183333Y-138187200D01*
X150183333Y-138187200D02*
X150278571Y-138234819D01*
X150278571Y-138234819D02*
X150469047Y-138234819D01*
X150469047Y-138234819D02*
X150564285Y-138187200D01*
X150564285Y-138187200D02*
X150611904Y-138139580D01*
X150611904Y-138139580D02*
X150659523Y-138044342D01*
X150659523Y-138044342D02*
X150659523Y-137234819D01*
X151088095Y-138187200D02*
X151230952Y-138234819D01*
X151230952Y-138234819D02*
X151469047Y-138234819D01*
X151469047Y-138234819D02*
X151564285Y-138187200D01*
X151564285Y-138187200D02*
X151611904Y-138139580D01*
X151611904Y-138139580D02*
X151659523Y-138044342D01*
X151659523Y-138044342D02*
X151659523Y-137949104D01*
X151659523Y-137949104D02*
X151611904Y-137853866D01*
X151611904Y-137853866D02*
X151564285Y-137806247D01*
X151564285Y-137806247D02*
X151469047Y-137758628D01*
X151469047Y-137758628D02*
X151278571Y-137711009D01*
X151278571Y-137711009D02*
X151183333Y-137663390D01*
X151183333Y-137663390D02*
X151135714Y-137615771D01*
X151135714Y-137615771D02*
X151088095Y-137520533D01*
X151088095Y-137520533D02*
X151088095Y-137425295D01*
X151088095Y-137425295D02*
X151135714Y-137330057D01*
X151135714Y-137330057D02*
X151183333Y-137282438D01*
X151183333Y-137282438D02*
X151278571Y-137234819D01*
X151278571Y-137234819D02*
X151516666Y-137234819D01*
X151516666Y-137234819D02*
X151659523Y-137282438D01*
X152421428Y-137711009D02*
X152564285Y-137758628D01*
X152564285Y-137758628D02*
X152611904Y-137806247D01*
X152611904Y-137806247D02*
X152659523Y-137901485D01*
X152659523Y-137901485D02*
X152659523Y-138044342D01*
X152659523Y-138044342D02*
X152611904Y-138139580D01*
X152611904Y-138139580D02*
X152564285Y-138187200D01*
X152564285Y-138187200D02*
X152469047Y-138234819D01*
X152469047Y-138234819D02*
X152088095Y-138234819D01*
X152088095Y-138234819D02*
X152088095Y-137234819D01*
X152088095Y-137234819D02*
X152421428Y-137234819D01*
X152421428Y-137234819D02*
X152516666Y-137282438D01*
X152516666Y-137282438D02*
X152564285Y-137330057D01*
X152564285Y-137330057D02*
X152611904Y-137425295D01*
X152611904Y-137425295D02*
X152611904Y-137520533D01*
X152611904Y-137520533D02*
X152564285Y-137615771D01*
X152564285Y-137615771D02*
X152516666Y-137663390D01*
X152516666Y-137663390D02*
X152421428Y-137711009D01*
X152421428Y-137711009D02*
X152088095Y-137711009D01*
X164804819Y-110096666D02*
X164328628Y-110429999D01*
X164804819Y-110668094D02*
X163804819Y-110668094D01*
X163804819Y-110668094D02*
X163804819Y-110287142D01*
X163804819Y-110287142D02*
X163852438Y-110191904D01*
X163852438Y-110191904D02*
X163900057Y-110144285D01*
X163900057Y-110144285D02*
X163995295Y-110096666D01*
X163995295Y-110096666D02*
X164138152Y-110096666D01*
X164138152Y-110096666D02*
X164233390Y-110144285D01*
X164233390Y-110144285D02*
X164281009Y-110191904D01*
X164281009Y-110191904D02*
X164328628Y-110287142D01*
X164328628Y-110287142D02*
X164328628Y-110668094D01*
X164138152Y-109239523D02*
X164804819Y-109239523D01*
X163757200Y-109477618D02*
X164471485Y-109715713D01*
X164471485Y-109715713D02*
X164471485Y-109096666D01*
X175064761Y-112010057D02*
X174969523Y-111962438D01*
X174969523Y-111962438D02*
X174874285Y-111867200D01*
X174874285Y-111867200D02*
X174731428Y-111724342D01*
X174731428Y-111724342D02*
X174636190Y-111676723D01*
X174636190Y-111676723D02*
X174540952Y-111676723D01*
X174588571Y-111914819D02*
X174493333Y-111867200D01*
X174493333Y-111867200D02*
X174398095Y-111771961D01*
X174398095Y-111771961D02*
X174350476Y-111581485D01*
X174350476Y-111581485D02*
X174350476Y-111248152D01*
X174350476Y-111248152D02*
X174398095Y-111057676D01*
X174398095Y-111057676D02*
X174493333Y-110962438D01*
X174493333Y-110962438D02*
X174588571Y-110914819D01*
X174588571Y-110914819D02*
X174779047Y-110914819D01*
X174779047Y-110914819D02*
X174874285Y-110962438D01*
X174874285Y-110962438D02*
X174969523Y-111057676D01*
X174969523Y-111057676D02*
X175017142Y-111248152D01*
X175017142Y-111248152D02*
X175017142Y-111581485D01*
X175017142Y-111581485D02*
X174969523Y-111771961D01*
X174969523Y-111771961D02*
X174874285Y-111867200D01*
X174874285Y-111867200D02*
X174779047Y-111914819D01*
X174779047Y-111914819D02*
X174588571Y-111914819D01*
X175969523Y-111914819D02*
X175398095Y-111914819D01*
X175683809Y-111914819D02*
X175683809Y-110914819D01*
X175683809Y-110914819D02*
X175588571Y-111057676D01*
X175588571Y-111057676D02*
X175493333Y-111152914D01*
X175493333Y-111152914D02*
X175398095Y-111200533D01*
X151327142Y-119004819D02*
X150993809Y-118528628D01*
X150755714Y-119004819D02*
X150755714Y-118004819D01*
X150755714Y-118004819D02*
X151136666Y-118004819D01*
X151136666Y-118004819D02*
X151231904Y-118052438D01*
X151231904Y-118052438D02*
X151279523Y-118100057D01*
X151279523Y-118100057D02*
X151327142Y-118195295D01*
X151327142Y-118195295D02*
X151327142Y-118338152D01*
X151327142Y-118338152D02*
X151279523Y-118433390D01*
X151279523Y-118433390D02*
X151231904Y-118481009D01*
X151231904Y-118481009D02*
X151136666Y-118528628D01*
X151136666Y-118528628D02*
X150755714Y-118528628D01*
X152279523Y-119004819D02*
X151708095Y-119004819D01*
X151993809Y-119004819D02*
X151993809Y-118004819D01*
X151993809Y-118004819D02*
X151898571Y-118147676D01*
X151898571Y-118147676D02*
X151803333Y-118242914D01*
X151803333Y-118242914D02*
X151708095Y-118290533D01*
X152660476Y-118100057D02*
X152708095Y-118052438D01*
X152708095Y-118052438D02*
X152803333Y-118004819D01*
X152803333Y-118004819D02*
X153041428Y-118004819D01*
X153041428Y-118004819D02*
X153136666Y-118052438D01*
X153136666Y-118052438D02*
X153184285Y-118100057D01*
X153184285Y-118100057D02*
X153231904Y-118195295D01*
X153231904Y-118195295D02*
X153231904Y-118290533D01*
X153231904Y-118290533D02*
X153184285Y-118433390D01*
X153184285Y-118433390D02*
X152612857Y-119004819D01*
X152612857Y-119004819D02*
X153231904Y-119004819D01*
X162670833Y-73104819D02*
X162337500Y-72628628D01*
X162099405Y-73104819D02*
X162099405Y-72104819D01*
X162099405Y-72104819D02*
X162480357Y-72104819D01*
X162480357Y-72104819D02*
X162575595Y-72152438D01*
X162575595Y-72152438D02*
X162623214Y-72200057D01*
X162623214Y-72200057D02*
X162670833Y-72295295D01*
X162670833Y-72295295D02*
X162670833Y-72438152D01*
X162670833Y-72438152D02*
X162623214Y-72533390D01*
X162623214Y-72533390D02*
X162575595Y-72581009D01*
X162575595Y-72581009D02*
X162480357Y-72628628D01*
X162480357Y-72628628D02*
X162099405Y-72628628D01*
X163527976Y-72104819D02*
X163337500Y-72104819D01*
X163337500Y-72104819D02*
X163242262Y-72152438D01*
X163242262Y-72152438D02*
X163194643Y-72200057D01*
X163194643Y-72200057D02*
X163099405Y-72342914D01*
X163099405Y-72342914D02*
X163051786Y-72533390D01*
X163051786Y-72533390D02*
X163051786Y-72914342D01*
X163051786Y-72914342D02*
X163099405Y-73009580D01*
X163099405Y-73009580D02*
X163147024Y-73057200D01*
X163147024Y-73057200D02*
X163242262Y-73104819D01*
X163242262Y-73104819D02*
X163432738Y-73104819D01*
X163432738Y-73104819D02*
X163527976Y-73057200D01*
X163527976Y-73057200D02*
X163575595Y-73009580D01*
X163575595Y-73009580D02*
X163623214Y-72914342D01*
X163623214Y-72914342D02*
X163623214Y-72676247D01*
X163623214Y-72676247D02*
X163575595Y-72581009D01*
X163575595Y-72581009D02*
X163527976Y-72533390D01*
X163527976Y-72533390D02*
X163432738Y-72485771D01*
X163432738Y-72485771D02*
X163242262Y-72485771D01*
X163242262Y-72485771D02*
X163147024Y-72533390D01*
X163147024Y-72533390D02*
X163099405Y-72581009D01*
X163099405Y-72581009D02*
X163051786Y-72676247D01*
X162733333Y-79454819D02*
X162400000Y-78978628D01*
X162161905Y-79454819D02*
X162161905Y-78454819D01*
X162161905Y-78454819D02*
X162542857Y-78454819D01*
X162542857Y-78454819D02*
X162638095Y-78502438D01*
X162638095Y-78502438D02*
X162685714Y-78550057D01*
X162685714Y-78550057D02*
X162733333Y-78645295D01*
X162733333Y-78645295D02*
X162733333Y-78788152D01*
X162733333Y-78788152D02*
X162685714Y-78883390D01*
X162685714Y-78883390D02*
X162638095Y-78931009D01*
X162638095Y-78931009D02*
X162542857Y-78978628D01*
X162542857Y-78978628D02*
X162161905Y-78978628D01*
X163304762Y-78883390D02*
X163209524Y-78835771D01*
X163209524Y-78835771D02*
X163161905Y-78788152D01*
X163161905Y-78788152D02*
X163114286Y-78692914D01*
X163114286Y-78692914D02*
X163114286Y-78645295D01*
X163114286Y-78645295D02*
X163161905Y-78550057D01*
X163161905Y-78550057D02*
X163209524Y-78502438D01*
X163209524Y-78502438D02*
X163304762Y-78454819D01*
X163304762Y-78454819D02*
X163495238Y-78454819D01*
X163495238Y-78454819D02*
X163590476Y-78502438D01*
X163590476Y-78502438D02*
X163638095Y-78550057D01*
X163638095Y-78550057D02*
X163685714Y-78645295D01*
X163685714Y-78645295D02*
X163685714Y-78692914D01*
X163685714Y-78692914D02*
X163638095Y-78788152D01*
X163638095Y-78788152D02*
X163590476Y-78835771D01*
X163590476Y-78835771D02*
X163495238Y-78883390D01*
X163495238Y-78883390D02*
X163304762Y-78883390D01*
X163304762Y-78883390D02*
X163209524Y-78931009D01*
X163209524Y-78931009D02*
X163161905Y-78978628D01*
X163161905Y-78978628D02*
X163114286Y-79073866D01*
X163114286Y-79073866D02*
X163114286Y-79264342D01*
X163114286Y-79264342D02*
X163161905Y-79359580D01*
X163161905Y-79359580D02*
X163209524Y-79407200D01*
X163209524Y-79407200D02*
X163304762Y-79454819D01*
X163304762Y-79454819D02*
X163495238Y-79454819D01*
X163495238Y-79454819D02*
X163590476Y-79407200D01*
X163590476Y-79407200D02*
X163638095Y-79359580D01*
X163638095Y-79359580D02*
X163685714Y-79264342D01*
X163685714Y-79264342D02*
X163685714Y-79073866D01*
X163685714Y-79073866D02*
X163638095Y-78978628D01*
X163638095Y-78978628D02*
X163590476Y-78931009D01*
X163590476Y-78931009D02*
X163495238Y-78883390D01*
X174941009Y-75585714D02*
X174988628Y-75442857D01*
X174988628Y-75442857D02*
X175036247Y-75395238D01*
X175036247Y-75395238D02*
X175131485Y-75347619D01*
X175131485Y-75347619D02*
X175274342Y-75347619D01*
X175274342Y-75347619D02*
X175369580Y-75395238D01*
X175369580Y-75395238D02*
X175417200Y-75442857D01*
X175417200Y-75442857D02*
X175464819Y-75538095D01*
X175464819Y-75538095D02*
X175464819Y-75919047D01*
X175464819Y-75919047D02*
X174464819Y-75919047D01*
X174464819Y-75919047D02*
X174464819Y-75585714D01*
X174464819Y-75585714D02*
X174512438Y-75490476D01*
X174512438Y-75490476D02*
X174560057Y-75442857D01*
X174560057Y-75442857D02*
X174655295Y-75395238D01*
X174655295Y-75395238D02*
X174750533Y-75395238D01*
X174750533Y-75395238D02*
X174845771Y-75442857D01*
X174845771Y-75442857D02*
X174893390Y-75490476D01*
X174893390Y-75490476D02*
X174941009Y-75585714D01*
X174941009Y-75585714D02*
X174941009Y-75919047D01*
X174464819Y-75061904D02*
X174464819Y-74490476D01*
X175464819Y-74776190D02*
X174464819Y-74776190D01*
X175464819Y-73633333D02*
X175464819Y-74204761D01*
X175464819Y-73919047D02*
X174464819Y-73919047D01*
X174464819Y-73919047D02*
X174607676Y-74014285D01*
X174607676Y-74014285D02*
X174702914Y-74109523D01*
X174702914Y-74109523D02*
X174750533Y-74204761D01*
X151520833Y-109109580D02*
X151473214Y-109157200D01*
X151473214Y-109157200D02*
X151330357Y-109204819D01*
X151330357Y-109204819D02*
X151235119Y-109204819D01*
X151235119Y-109204819D02*
X151092262Y-109157200D01*
X151092262Y-109157200D02*
X150997024Y-109061961D01*
X150997024Y-109061961D02*
X150949405Y-108966723D01*
X150949405Y-108966723D02*
X150901786Y-108776247D01*
X150901786Y-108776247D02*
X150901786Y-108633390D01*
X150901786Y-108633390D02*
X150949405Y-108442914D01*
X150949405Y-108442914D02*
X150997024Y-108347676D01*
X150997024Y-108347676D02*
X151092262Y-108252438D01*
X151092262Y-108252438D02*
X151235119Y-108204819D01*
X151235119Y-108204819D02*
X151330357Y-108204819D01*
X151330357Y-108204819D02*
X151473214Y-108252438D01*
X151473214Y-108252438D02*
X151520833Y-108300057D01*
X151901786Y-108300057D02*
X151949405Y-108252438D01*
X151949405Y-108252438D02*
X152044643Y-108204819D01*
X152044643Y-108204819D02*
X152282738Y-108204819D01*
X152282738Y-108204819D02*
X152377976Y-108252438D01*
X152377976Y-108252438D02*
X152425595Y-108300057D01*
X152425595Y-108300057D02*
X152473214Y-108395295D01*
X152473214Y-108395295D02*
X152473214Y-108490533D01*
X152473214Y-108490533D02*
X152425595Y-108633390D01*
X152425595Y-108633390D02*
X151854167Y-109204819D01*
X151854167Y-109204819D02*
X152473214Y-109204819D01*
X169263333Y-107584819D02*
X168930000Y-107108628D01*
X168691905Y-107584819D02*
X168691905Y-106584819D01*
X168691905Y-106584819D02*
X169072857Y-106584819D01*
X169072857Y-106584819D02*
X169168095Y-106632438D01*
X169168095Y-106632438D02*
X169215714Y-106680057D01*
X169215714Y-106680057D02*
X169263333Y-106775295D01*
X169263333Y-106775295D02*
X169263333Y-106918152D01*
X169263333Y-106918152D02*
X169215714Y-107013390D01*
X169215714Y-107013390D02*
X169168095Y-107061009D01*
X169168095Y-107061009D02*
X169072857Y-107108628D01*
X169072857Y-107108628D02*
X168691905Y-107108628D01*
X169596667Y-106584819D02*
X170215714Y-106584819D01*
X170215714Y-106584819D02*
X169882381Y-106965771D01*
X169882381Y-106965771D02*
X170025238Y-106965771D01*
X170025238Y-106965771D02*
X170120476Y-107013390D01*
X170120476Y-107013390D02*
X170168095Y-107061009D01*
X170168095Y-107061009D02*
X170215714Y-107156247D01*
X170215714Y-107156247D02*
X170215714Y-107394342D01*
X170215714Y-107394342D02*
X170168095Y-107489580D01*
X170168095Y-107489580D02*
X170120476Y-107537200D01*
X170120476Y-107537200D02*
X170025238Y-107584819D01*
X170025238Y-107584819D02*
X169739524Y-107584819D01*
X169739524Y-107584819D02*
X169644286Y-107537200D01*
X169644286Y-107537200D02*
X169596667Y-107489580D01*
X168438095Y-95274819D02*
X168438095Y-96084342D01*
X168438095Y-96084342D02*
X168485714Y-96179580D01*
X168485714Y-96179580D02*
X168533333Y-96227200D01*
X168533333Y-96227200D02*
X168628571Y-96274819D01*
X168628571Y-96274819D02*
X168819047Y-96274819D01*
X168819047Y-96274819D02*
X168914285Y-96227200D01*
X168914285Y-96227200D02*
X168961904Y-96179580D01*
X168961904Y-96179580D02*
X169009523Y-96084342D01*
X169009523Y-96084342D02*
X169009523Y-95274819D01*
X169961904Y-95274819D02*
X169485714Y-95274819D01*
X169485714Y-95274819D02*
X169438095Y-95751009D01*
X169438095Y-95751009D02*
X169485714Y-95703390D01*
X169485714Y-95703390D02*
X169580952Y-95655771D01*
X169580952Y-95655771D02*
X169819047Y-95655771D01*
X169819047Y-95655771D02*
X169914285Y-95703390D01*
X169914285Y-95703390D02*
X169961904Y-95751009D01*
X169961904Y-95751009D02*
X170009523Y-95846247D01*
X170009523Y-95846247D02*
X170009523Y-96084342D01*
X170009523Y-96084342D02*
X169961904Y-96179580D01*
X169961904Y-96179580D02*
X169914285Y-96227200D01*
X169914285Y-96227200D02*
X169819047Y-96274819D01*
X169819047Y-96274819D02*
X169580952Y-96274819D01*
X169580952Y-96274819D02*
X169485714Y-96227200D01*
X169485714Y-96227200D02*
X169438095Y-96179580D01*
X162733333Y-82804819D02*
X162400000Y-82328628D01*
X162161905Y-82804819D02*
X162161905Y-81804819D01*
X162161905Y-81804819D02*
X162542857Y-81804819D01*
X162542857Y-81804819D02*
X162638095Y-81852438D01*
X162638095Y-81852438D02*
X162685714Y-81900057D01*
X162685714Y-81900057D02*
X162733333Y-81995295D01*
X162733333Y-81995295D02*
X162733333Y-82138152D01*
X162733333Y-82138152D02*
X162685714Y-82233390D01*
X162685714Y-82233390D02*
X162638095Y-82281009D01*
X162638095Y-82281009D02*
X162542857Y-82328628D01*
X162542857Y-82328628D02*
X162161905Y-82328628D01*
X163209524Y-82804819D02*
X163400000Y-82804819D01*
X163400000Y-82804819D02*
X163495238Y-82757200D01*
X163495238Y-82757200D02*
X163542857Y-82709580D01*
X163542857Y-82709580D02*
X163638095Y-82566723D01*
X163638095Y-82566723D02*
X163685714Y-82376247D01*
X163685714Y-82376247D02*
X163685714Y-81995295D01*
X163685714Y-81995295D02*
X163638095Y-81900057D01*
X163638095Y-81900057D02*
X163590476Y-81852438D01*
X163590476Y-81852438D02*
X163495238Y-81804819D01*
X163495238Y-81804819D02*
X163304762Y-81804819D01*
X163304762Y-81804819D02*
X163209524Y-81852438D01*
X163209524Y-81852438D02*
X163161905Y-81900057D01*
X163161905Y-81900057D02*
X163114286Y-81995295D01*
X163114286Y-81995295D02*
X163114286Y-82233390D01*
X163114286Y-82233390D02*
X163161905Y-82328628D01*
X163161905Y-82328628D02*
X163209524Y-82376247D01*
X163209524Y-82376247D02*
X163304762Y-82423866D01*
X163304762Y-82423866D02*
X163495238Y-82423866D01*
X163495238Y-82423866D02*
X163590476Y-82376247D01*
X163590476Y-82376247D02*
X163638095Y-82328628D01*
X163638095Y-82328628D02*
X163685714Y-82233390D01*
X162257142Y-86154819D02*
X161923809Y-85678628D01*
X161685714Y-86154819D02*
X161685714Y-85154819D01*
X161685714Y-85154819D02*
X162066666Y-85154819D01*
X162066666Y-85154819D02*
X162161904Y-85202438D01*
X162161904Y-85202438D02*
X162209523Y-85250057D01*
X162209523Y-85250057D02*
X162257142Y-85345295D01*
X162257142Y-85345295D02*
X162257142Y-85488152D01*
X162257142Y-85488152D02*
X162209523Y-85583390D01*
X162209523Y-85583390D02*
X162161904Y-85631009D01*
X162161904Y-85631009D02*
X162066666Y-85678628D01*
X162066666Y-85678628D02*
X161685714Y-85678628D01*
X163209523Y-86154819D02*
X162638095Y-86154819D01*
X162923809Y-86154819D02*
X162923809Y-85154819D01*
X162923809Y-85154819D02*
X162828571Y-85297676D01*
X162828571Y-85297676D02*
X162733333Y-85392914D01*
X162733333Y-85392914D02*
X162638095Y-85440533D01*
X163828571Y-85154819D02*
X163923809Y-85154819D01*
X163923809Y-85154819D02*
X164019047Y-85202438D01*
X164019047Y-85202438D02*
X164066666Y-85250057D01*
X164066666Y-85250057D02*
X164114285Y-85345295D01*
X164114285Y-85345295D02*
X164161904Y-85535771D01*
X164161904Y-85535771D02*
X164161904Y-85773866D01*
X164161904Y-85773866D02*
X164114285Y-85964342D01*
X164114285Y-85964342D02*
X164066666Y-86059580D01*
X164066666Y-86059580D02*
X164019047Y-86107200D01*
X164019047Y-86107200D02*
X163923809Y-86154819D01*
X163923809Y-86154819D02*
X163828571Y-86154819D01*
X163828571Y-86154819D02*
X163733333Y-86107200D01*
X163733333Y-86107200D02*
X163685714Y-86059580D01*
X163685714Y-86059580D02*
X163638095Y-85964342D01*
X163638095Y-85964342D02*
X163590476Y-85773866D01*
X163590476Y-85773866D02*
X163590476Y-85535771D01*
X163590476Y-85535771D02*
X163638095Y-85345295D01*
X163638095Y-85345295D02*
X163685714Y-85250057D01*
X163685714Y-85250057D02*
X163733333Y-85202438D01*
X163733333Y-85202438D02*
X163828571Y-85154819D01*
X151690833Y-103564819D02*
X151357500Y-103088628D01*
X151119405Y-103564819D02*
X151119405Y-102564819D01*
X151119405Y-102564819D02*
X151500357Y-102564819D01*
X151500357Y-102564819D02*
X151595595Y-102612438D01*
X151595595Y-102612438D02*
X151643214Y-102660057D01*
X151643214Y-102660057D02*
X151690833Y-102755295D01*
X151690833Y-102755295D02*
X151690833Y-102898152D01*
X151690833Y-102898152D02*
X151643214Y-102993390D01*
X151643214Y-102993390D02*
X151595595Y-103041009D01*
X151595595Y-103041009D02*
X151500357Y-103088628D01*
X151500357Y-103088628D02*
X151119405Y-103088628D01*
X152595595Y-102564819D02*
X152119405Y-102564819D01*
X152119405Y-102564819D02*
X152071786Y-103041009D01*
X152071786Y-103041009D02*
X152119405Y-102993390D01*
X152119405Y-102993390D02*
X152214643Y-102945771D01*
X152214643Y-102945771D02*
X152452738Y-102945771D01*
X152452738Y-102945771D02*
X152547976Y-102993390D01*
X152547976Y-102993390D02*
X152595595Y-103041009D01*
X152595595Y-103041009D02*
X152643214Y-103136247D01*
X152643214Y-103136247D02*
X152643214Y-103374342D01*
X152643214Y-103374342D02*
X152595595Y-103469580D01*
X152595595Y-103469580D02*
X152547976Y-103517200D01*
X152547976Y-103517200D02*
X152452738Y-103564819D01*
X152452738Y-103564819D02*
X152214643Y-103564819D01*
X152214643Y-103564819D02*
X152119405Y-103517200D01*
X152119405Y-103517200D02*
X152071786Y-103469580D01*
X155666667Y-97907200D02*
X155809524Y-97954819D01*
X155809524Y-97954819D02*
X156047619Y-97954819D01*
X156047619Y-97954819D02*
X156142857Y-97907200D01*
X156142857Y-97907200D02*
X156190476Y-97859580D01*
X156190476Y-97859580D02*
X156238095Y-97764342D01*
X156238095Y-97764342D02*
X156238095Y-97669104D01*
X156238095Y-97669104D02*
X156190476Y-97573866D01*
X156190476Y-97573866D02*
X156142857Y-97526247D01*
X156142857Y-97526247D02*
X156047619Y-97478628D01*
X156047619Y-97478628D02*
X155857143Y-97431009D01*
X155857143Y-97431009D02*
X155761905Y-97383390D01*
X155761905Y-97383390D02*
X155714286Y-97335771D01*
X155714286Y-97335771D02*
X155666667Y-97240533D01*
X155666667Y-97240533D02*
X155666667Y-97145295D01*
X155666667Y-97145295D02*
X155714286Y-97050057D01*
X155714286Y-97050057D02*
X155761905Y-97002438D01*
X155761905Y-97002438D02*
X155857143Y-96954819D01*
X155857143Y-96954819D02*
X156095238Y-96954819D01*
X156095238Y-96954819D02*
X156238095Y-97002438D01*
X156571429Y-96954819D02*
X156809524Y-97954819D01*
X156809524Y-97954819D02*
X157000000Y-97240533D01*
X157000000Y-97240533D02*
X157190476Y-97954819D01*
X157190476Y-97954819D02*
X157428572Y-96954819D01*
X158333333Y-97954819D02*
X157761905Y-97954819D01*
X158047619Y-97954819D02*
X158047619Y-96954819D01*
X158047619Y-96954819D02*
X157952381Y-97097676D01*
X157952381Y-97097676D02*
X157857143Y-97192914D01*
X157857143Y-97192914D02*
X157761905Y-97240533D01*
X162257142Y-89504819D02*
X161923809Y-89028628D01*
X161685714Y-89504819D02*
X161685714Y-88504819D01*
X161685714Y-88504819D02*
X162066666Y-88504819D01*
X162066666Y-88504819D02*
X162161904Y-88552438D01*
X162161904Y-88552438D02*
X162209523Y-88600057D01*
X162209523Y-88600057D02*
X162257142Y-88695295D01*
X162257142Y-88695295D02*
X162257142Y-88838152D01*
X162257142Y-88838152D02*
X162209523Y-88933390D01*
X162209523Y-88933390D02*
X162161904Y-88981009D01*
X162161904Y-88981009D02*
X162066666Y-89028628D01*
X162066666Y-89028628D02*
X161685714Y-89028628D01*
X163209523Y-89504819D02*
X162638095Y-89504819D01*
X162923809Y-89504819D02*
X162923809Y-88504819D01*
X162923809Y-88504819D02*
X162828571Y-88647676D01*
X162828571Y-88647676D02*
X162733333Y-88742914D01*
X162733333Y-88742914D02*
X162638095Y-88790533D01*
X164161904Y-89504819D02*
X163590476Y-89504819D01*
X163876190Y-89504819D02*
X163876190Y-88504819D01*
X163876190Y-88504819D02*
X163780952Y-88647676D01*
X163780952Y-88647676D02*
X163685714Y-88742914D01*
X163685714Y-88742914D02*
X163590476Y-88790533D01*
X143544819Y-84831904D02*
X144354342Y-84831904D01*
X144354342Y-84831904D02*
X144449580Y-84784285D01*
X144449580Y-84784285D02*
X144497200Y-84736666D01*
X144497200Y-84736666D02*
X144544819Y-84641428D01*
X144544819Y-84641428D02*
X144544819Y-84450952D01*
X144544819Y-84450952D02*
X144497200Y-84355714D01*
X144497200Y-84355714D02*
X144449580Y-84308095D01*
X144449580Y-84308095D02*
X144354342Y-84260476D01*
X144354342Y-84260476D02*
X143544819Y-84260476D01*
X143640057Y-83831904D02*
X143592438Y-83784285D01*
X143592438Y-83784285D02*
X143544819Y-83689047D01*
X143544819Y-83689047D02*
X143544819Y-83450952D01*
X143544819Y-83450952D02*
X143592438Y-83355714D01*
X143592438Y-83355714D02*
X143640057Y-83308095D01*
X143640057Y-83308095D02*
X143735295Y-83260476D01*
X143735295Y-83260476D02*
X143830533Y-83260476D01*
X143830533Y-83260476D02*
X143973390Y-83308095D01*
X143973390Y-83308095D02*
X144544819Y-83879523D01*
X144544819Y-83879523D02*
X144544819Y-83260476D01*
D13*
X168441904Y-121847580D02*
X168441904Y-121038057D01*
X168441904Y-121038057D02*
X168394285Y-120942819D01*
X168394285Y-120942819D02*
X168346666Y-120895200D01*
X168346666Y-120895200D02*
X168251428Y-120847580D01*
X168251428Y-120847580D02*
X168060952Y-120847580D01*
X168060952Y-120847580D02*
X167965714Y-120895200D01*
X167965714Y-120895200D02*
X167918095Y-120942819D01*
X167918095Y-120942819D02*
X167870476Y-121038057D01*
X167870476Y-121038057D02*
X167870476Y-121847580D01*
X167489523Y-121847580D02*
X166870476Y-121847580D01*
X166870476Y-121847580D02*
X167203809Y-121466628D01*
X167203809Y-121466628D02*
X167060952Y-121466628D01*
X167060952Y-121466628D02*
X166965714Y-121419009D01*
X166965714Y-121419009D02*
X166918095Y-121371390D01*
X166918095Y-121371390D02*
X166870476Y-121276152D01*
X166870476Y-121276152D02*
X166870476Y-121038057D01*
X166870476Y-121038057D02*
X166918095Y-120942819D01*
X166918095Y-120942819D02*
X166965714Y-120895200D01*
X166965714Y-120895200D02*
X167060952Y-120847580D01*
X167060952Y-120847580D02*
X167346666Y-120847580D01*
X167346666Y-120847580D02*
X167441904Y-120895200D01*
X167441904Y-120895200D02*
X167489523Y-120942819D01*
D11*
%TO.C,C1*%
X163990000Y-133957936D02*
X163990000Y-135162064D01*
X165810000Y-133957936D02*
X165810000Y-135162064D01*
%TO.C,C3*%
X174760000Y-97067936D02*
X174760000Y-98272064D01*
X176580000Y-97067936D02*
X176580000Y-98272064D01*
%TO.C,C4*%
X173140000Y-135252064D02*
X173140000Y-134047936D01*
X174960000Y-135252064D02*
X174960000Y-134047936D01*
%TO.C,D2*%
X141635000Y-93864000D02*
X141635000Y-94020000D01*
X141635000Y-96180000D02*
X141635000Y-96336000D01*
X141635000Y-93864484D02*
G75*
G02*
X144867335Y-94021392I1560000J-1235516D01*
G01*
X142154039Y-94020000D02*
G75*
G02*
X144236130Y-94020163I1040961J-1080000D01*
G01*
X144236130Y-96179837D02*
G75*
G02*
X142154039Y-96180000I-1041130J1079837D01*
G01*
X144867335Y-96178608D02*
G75*
G02*
X141635000Y-96335516I-1672335J1078608D01*
G01*
%TO.C,R1*%
X148902064Y-94390000D02*
X147697936Y-94390000D01*
X148902064Y-96210000D02*
X147697936Y-96210000D01*
%TO.C,R2*%
X168860000Y-133868748D02*
X168860000Y-135291252D01*
X170680000Y-133868748D02*
X170680000Y-135291252D01*
%TO.C,R7*%
X162188748Y-76590000D02*
X163611252Y-76590000D01*
X162188748Y-78410000D02*
X163611252Y-78410000D01*
%TO.C,A1*%
X142330000Y-98280000D02*
X142330000Y-100950000D01*
X142330000Y-103490000D02*
X142330000Y-141720000D01*
X142330000Y-141720000D02*
X147410000Y-141720000D01*
X145000000Y-100950000D02*
X142330000Y-100950000D01*
X145000000Y-103490000D02*
X142330000Y-103490000D01*
X145000000Y-103490000D02*
X145000000Y-100950000D01*
X145000000Y-103490000D02*
X145000000Y-139050000D01*
X145000000Y-139050000D02*
X142330000Y-139050000D01*
X147410000Y-133840000D02*
X155290000Y-133840000D01*
X147410000Y-144260000D02*
X147410000Y-133840000D01*
X155290000Y-133840000D02*
X155290000Y-144260000D01*
X155290000Y-144260000D02*
X147410000Y-144260000D01*
X157700000Y-100950000D02*
X157700000Y-139050000D01*
X157700000Y-100950000D02*
X160370000Y-100950000D01*
X157700000Y-139050000D02*
X160370000Y-139050000D01*
X160370000Y-98280000D02*
X142330000Y-98280000D01*
X160370000Y-141720000D02*
X155290000Y-141720000D01*
X160370000Y-141720000D02*
X160370000Y-98280000D01*
%TO.C,R4*%
X165290000Y-110641252D02*
X165290000Y-109218748D01*
X167110000Y-110641252D02*
X167110000Y-109218748D01*
%TO.C,Q1*%
X172270000Y-108290000D02*
X173790000Y-108290000D01*
X172270000Y-108340000D02*
X172270000Y-108290000D01*
X172270000Y-110240000D02*
X172270000Y-109460000D01*
X172270000Y-111410000D02*
X172270000Y-111360000D01*
X173790000Y-108290000D02*
X173790000Y-109290000D01*
X173790000Y-110410000D02*
X173790000Y-111410000D01*
X173790000Y-111410000D02*
X172270000Y-111410000D01*
X171970000Y-109800000D02*
X171490000Y-109800000D01*
X171730000Y-109470000D01*
X171970000Y-109800000D01*
G36*
X171970000Y-109800000D02*
G01*
X171490000Y-109800000D01*
X171730000Y-109470000D01*
X171970000Y-109800000D01*
G37*
%TO.C,R12*%
X152681252Y-115790000D02*
X151258748Y-115790000D01*
X152681252Y-117610000D02*
X151258748Y-117610000D01*
%TO.C,R6*%
X162126248Y-73590000D02*
X163548752Y-73590000D01*
X162126248Y-75410000D02*
X163548752Y-75410000D01*
%TO.C,R8*%
X162188748Y-79940000D02*
X163611252Y-79940000D01*
X162188748Y-81760000D02*
X163611252Y-81760000D01*
%TO.C,BT1*%
X165585000Y-79560000D02*
X165585000Y-84640000D01*
X165585000Y-79560000D02*
X168760000Y-76385000D01*
X165585000Y-82100000D02*
X165585000Y-79560000D01*
X165585000Y-84640000D02*
X168760000Y-87815000D01*
X169395000Y-71940000D02*
X169395000Y-72575000D01*
X169395000Y-72575000D02*
X169395000Y-76385000D01*
X169395000Y-91625000D02*
X169395000Y-87815000D01*
X169395000Y-92260000D02*
X169395000Y-91625000D01*
X171300000Y-76385000D02*
X168760000Y-76385000D01*
X171300000Y-76385000D02*
X177015000Y-76385000D01*
X173205000Y-71940000D02*
X169395000Y-71940000D01*
X173205000Y-72575000D02*
X173205000Y-71940000D01*
X173205000Y-76385000D02*
X173205000Y-72575000D01*
X173205000Y-87815000D02*
X173205000Y-91625000D01*
X173205000Y-91625000D02*
X173205000Y-92260000D01*
X173205000Y-92260000D02*
X169395000Y-92260000D01*
X177015000Y-76385000D02*
X177015000Y-77655000D01*
X177015000Y-87815000D02*
X168760000Y-87815000D01*
X177015000Y-87815000D02*
X177015000Y-86545000D01*
X177015001Y-86544999D02*
G75*
G02*
X177015001Y-77655001I4444999J4444999D01*
G01*
%TO.C,C2*%
X150976248Y-109690000D02*
X152398752Y-109690000D01*
X150976248Y-111510000D02*
X152398752Y-111510000D01*
%TO.C,R3*%
X169891252Y-104120000D02*
X168468748Y-104120000D01*
X169891252Y-105940000D02*
X168468748Y-105940000D01*
%TO.C,U5*%
X166350000Y-92910000D02*
X170110000Y-92910000D01*
X166350000Y-99730000D02*
X170110000Y-99730000D01*
X170110000Y-92910000D02*
X170110000Y-94170000D01*
X170110000Y-99730000D02*
X170110000Y-98470000D01*
X165070000Y-93010000D02*
X164830000Y-92680000D01*
X165310000Y-92680000D01*
X165070000Y-93010000D01*
G36*
X165070000Y-93010000D02*
G01*
X164830000Y-92680000D01*
X165310000Y-92680000D01*
X165070000Y-93010000D01*
G37*
%TO.C,R9*%
X162188748Y-83290000D02*
X163611252Y-83290000D01*
X162188748Y-85110000D02*
X163611252Y-85110000D01*
%TO.C,R10*%
X162188748Y-86640000D02*
X163611252Y-86640000D01*
X162188748Y-88460000D02*
X163611252Y-88460000D01*
%TO.C,R5*%
X151146248Y-104050000D02*
X152568752Y-104050000D01*
X151146248Y-105870000D02*
X152568752Y-105870000D01*
%TO.C,SW1*%
X152150000Y-93540000D02*
X162370000Y-93540000D01*
X162370000Y-96260000D01*
X152150000Y-96260000D01*
X152150000Y-93540000D01*
%TO.C,R11*%
X162188748Y-89990000D02*
X163611252Y-89990000D01*
X162188748Y-91810000D02*
X163611252Y-91810000D01*
%TO.C,U2*%
X139925000Y-80560000D02*
X140180000Y-80560000D01*
X139925000Y-84420000D02*
X139925000Y-80560000D01*
X139925000Y-84420000D02*
X139925000Y-88280000D01*
X139925000Y-88280000D02*
X140180000Y-88280000D01*
X150445000Y-80560000D02*
X150190000Y-80560000D01*
X150445000Y-84420000D02*
X150445000Y-80560000D01*
X150445000Y-84420000D02*
X150445000Y-88280000D01*
X150445000Y-88280000D02*
X150190000Y-88280000D01*
X150660000Y-80047500D02*
X150190000Y-79707500D01*
X150660000Y-79367500D01*
X150660000Y-80047500D01*
G36*
X150660000Y-80047500D02*
G01*
X150190000Y-79707500D01*
X150660000Y-79367500D01*
X150660000Y-80047500D01*
G37*
%TD*%
M02*
