M48
; DRILL file {KiCad 9.0.7} date 2026-06-01T12:59:29-0400
; FORMAT={-:-/ absolute / inch / decimal}
; #@! TF.CreationDate,2026-06-01T12:59:29-04:00
; #@! TF.GenerationSoftware,Kicad,Pcbnew,9.0.7
; #@! TF.FileFunction,Plated,1,2,PTH
FMAT,2
INCH
; #@! TA.AperFunction,Plated,PTH,ViaDrill
T1C0.0118
; #@! TA.AperFunction,Plated,PTH,ViaDrill
T2C0.0157
; #@! TA.AperFunction,Plated,PTH,ComponentDrill
T3C0.0236
; #@! TA.AperFunction,Plated,PTH,ComponentDrill
T4C0.0300
; #@! TA.AperFunction,Plated,PTH,ComponentDrill
T5C0.0315
; #@! TA.AperFunction,Plated,PTH,ComponentDrill
T6C0.0354
; #@! TA.AperFunction,Plated,PTH,ComponentDrill
T7C0.0394
%
G90
G05
T1
X5.5118Y-4.248
X5.5512Y-5.3228
X5.6024Y-4.9134
X5.6181Y-4.7835
X5.6772Y-3.0394
X5.7559Y-3.811
X5.7598Y-4.685
X5.7598Y-4.7283
X5.7598Y-4.8346
X5.7638Y-5.4449
X5.7638Y-5.5315
X5.7874Y-3.5748
X5.7913Y-3.4449
X5.8228Y-4.7283
X5.8425Y-3.1417
X5.8425Y-3.5866
X5.8425Y-5.4449
X5.8425Y-5.5315
X5.8661Y-4.7283
X5.8937Y-3.4291
X5.8937Y-3.5079
X5.9291Y-3.5866
X5.9567Y-3.3976
X5.9567Y-3.8976
X5.9685Y-3.5906
X6.0Y-3.8976
X6.0Y-3.9409
X6.0Y-5.4961
X6.0079Y-4.9646
X6.0079Y-5.0079
X6.0079Y-5.0512
X6.0118Y-4.874
X6.0315Y-4.4803
X6.0551Y-3.5906
X6.0551Y-3.9961
X6.063Y-4.4488
X6.0748Y-4.5236
X6.0748Y-4.8976
X6.0906Y-3.5276
X6.0906Y-3.6614
X6.1063Y-3.126
X6.1063Y-4.4921
X6.122Y-3.2323
X6.1417Y-3.6024
X6.1457Y-3.2087
X6.1772Y-4.7087
X6.1772Y-5.3228
X6.185Y-4.0827
X6.2008Y-5.1102
X6.2047Y-4.0157
X6.2559Y-3.2339
X6.3189Y-3.7835
X6.3189Y-4.3386
X6.3346Y-3.2992
X6.3898Y-3.0
X6.3898Y-3.2323
X6.3976Y-3.1378
X6.4055Y-4.2402
X6.4055Y-4.4252
X6.4567Y-5.2756
X6.4764Y-3.0512
X6.4764Y-3.1811
X6.4764Y-3.4921
X6.4764Y-3.5551
X6.5276Y-4.752
X6.5669Y-3.7717
X6.5669Y-3.9213
X6.5945Y-4.8189
X6.5984Y-4.7717
X6.6299Y-3.7717
X6.6299Y-4.6063
X6.6299Y-4.6535
X6.6417Y-5.1535
X6.6732Y-4.6969
X6.685Y-5.1969
X6.7874Y-4.0472
X6.8307Y-4.0906
X6.8622Y-3.9213
T2
X5.4335Y-5.0669
X5.4402Y-4.7638
X5.4665Y-3.615
X5.4677Y-5.635
X5.4728Y-3.0673
X5.4831Y-5.8378
X5.5437Y-3.389
X5.5465Y-3.6189
X5.5689Y-4.3811
X5.6122Y-2.7665
X5.6594Y-5.8394
X5.7008Y-3.9236
X5.7291Y-4.1795
X5.7303Y-4.5681
X5.7327Y-3.0642
X5.7606Y-5.6331
X5.7677Y-3.2398
X5.8673Y-4.2311
X5.8787Y-2.7654
X5.9197Y-5.7531
X5.9323Y-2.9031
X5.9709Y-3.9937
X6.0606Y-3.0067
X6.0681Y-5.5114
X6.1075Y-3.8492
X6.1539Y-5.4331
X6.2217Y-3.9429
X6.25Y-2.9945
X6.3142Y-3.3744
X6.3433Y-4.0701
X6.3504Y-5.2031
X6.4051Y-2.7677
X6.4181Y-3.8429
X6.4331Y-5.6933
X6.4571Y-4.7783
X6.5354Y-3.0114
X6.5476Y-4.9138
X6.561Y-3.4358
X6.5654Y-5.0831
X6.5843Y-5.498
X6.6098Y-3.5602
X6.6299Y-2.9634
X6.6374Y-2.7681
X6.7161Y-4.5346
X6.7575Y-5.6563
X6.774Y-4.9843
X6.7843Y-4.748
X6.8264Y-2.7654
X6.8287Y-4.1677
X6.8933Y-2.9508
X6.9177Y-3.4146
X6.9256Y-4.0071
X6.9693Y-3.6512
T3
X6.1212Y-2.8996
X6.1999Y-2.8996
T4
X6.478Y-4.0551
X6.478Y-5.4551
X6.678Y-5.4551
X6.878Y-4.0551
X6.878Y-5.4551
T5
X6.0913Y-3.7362
X6.1913Y-3.7362
X6.2913Y-3.7362
T6
X5.5876Y-3.7441
X5.6876Y-3.7441
T7
X5.4765Y-5.7216
X5.4925Y-2.8787
X5.4925Y-2.9787
X5.5118Y-4.5276
X5.5118Y-4.6276
X5.5765Y-5.7216
X5.5925Y-2.8787
X5.5925Y-2.9787
X5.6587Y-4.0244
X5.6587Y-4.1244
X5.6587Y-4.2244
X5.6587Y-4.3244
X5.6587Y-4.4244
X5.6587Y-4.5244
X5.6587Y-4.6244
X5.6587Y-4.7244
X5.6587Y-4.8244
X5.6587Y-4.9244
X5.6587Y-5.0244
X5.6587Y-5.1244
X5.6587Y-5.2244
X5.6587Y-5.3244
X5.6587Y-5.4244
X5.6765Y-5.7216
X5.6925Y-2.8787
X5.6925Y-2.9787
X5.7765Y-5.7216
X5.7925Y-2.8787
X5.7925Y-2.9787
X6.0701Y-5.811
X6.1701Y-5.811
X6.2587Y-4.0244
X6.2587Y-4.1244
X6.2587Y-4.2244
X6.2587Y-4.3244
X6.2587Y-4.4244
X6.2587Y-4.5244
X6.2587Y-4.6244
X6.2587Y-4.7244
X6.2587Y-4.8244
X6.2587Y-4.9244
X6.2587Y-5.0244
X6.2587Y-5.1244
X6.2587Y-5.2244
X6.2587Y-5.3244
X6.2587Y-5.4244
X6.2701Y-5.811
X6.3701Y-5.811
X6.4016Y-4.5258
X6.4016Y-4.6258
X6.4016Y-4.7258
X6.4016Y-4.8258
X6.4016Y-4.9258
X6.4016Y-5.0258
X6.4016Y-5.1258
X6.622Y-5.7451
X6.7205Y-5.7451
X6.8189Y-5.7451
X6.9016Y-4.5258
X6.9016Y-4.6258
X6.9016Y-4.7258
X6.9016Y-4.8258
X6.9016Y-4.9258
X6.9016Y-5.0258
M30
