%TF.GenerationSoftware,KiCad,Pcbnew,8.0.8*%
%TF.CreationDate,2025-10-13T13:19:00-04:00*%
%TF.ProjectId,main_board,6d61696e-5f62-46f6-9172-642e6b696361,rev?*%
%TF.SameCoordinates,Original*%
%TF.FileFunction,Drillmap*%
%TF.FilePolarity,Positive*%
%FSLAX45Y45*%
G04 Gerber Fmt 4.5, Leading zero omitted, Abs format (unit mm)*
G04 Created by KiCad (PCBNEW 8.0.8) date 2025-10-13 13:19:00*
%MOMM*%
%LPD*%
G01*
G04 APERTURE LIST*
%ADD10C,0.050000*%
%ADD11C,0.200000*%
%ADD12C,0.100000*%
G04 APERTURE END LIST*
D10*
X17780000Y-14224000D02*
X17780000Y-7874000D01*
X13716000Y-7874000D02*
X13716000Y-14224000D01*
X13716000Y-14986000D02*
X13716000Y-14224000D01*
X13716000Y-6730000D02*
X17780000Y-6730000D01*
X13716000Y-14986000D02*
X17780000Y-14986000D01*
X17780000Y-7874000D02*
X17780000Y-6730000D01*
X14043794Y-6931206D02*
G75*
G02*
X13796206Y-6931206I-123794J0D01*
G01*
X13796206Y-6931206D02*
G75*
G02*
X14043794Y-6931206I123794J0D01*
G01*
X17780000Y-14224000D02*
X17780000Y-14986000D01*
X13716000Y-7874000D02*
X13716000Y-6730000D01*
X17702588Y-6940000D02*
G75*
G02*
X17455000Y-6940000I-123794J0D01*
G01*
X17455000Y-6940000D02*
G75*
G02*
X17702588Y-6940000I123794J0D01*
G01*
D11*
D12*
X13953900Y-9271260D02*
X13993900Y-9311260D01*
X13993900Y-9271260D02*
X13953900Y-9311260D01*
X14085000Y-8430000D02*
X14125000Y-8470000D01*
X14125000Y-8430000D02*
X14085000Y-8470000D01*
X14260000Y-8430000D02*
X14300000Y-8470000D01*
X14300000Y-8430000D02*
X14260000Y-8470000D01*
X14610000Y-8190000D02*
X14650000Y-8230000D01*
X14650000Y-8190000D02*
X14610000Y-8230000D01*
X14756100Y-11010700D02*
X14796100Y-11050700D01*
X14796100Y-11010700D02*
X14756100Y-11050700D01*
X14758100Y-8169550D02*
X14798100Y-8209550D01*
X14798100Y-8169550D02*
X14758100Y-8209550D01*
X14789000Y-10770400D02*
X14829000Y-10810400D01*
X14829000Y-10770400D02*
X14789000Y-10810400D01*
X15720000Y-10170000D02*
X15760000Y-10210000D01*
X15760000Y-10170000D02*
X15720000Y-10210000D01*
X15723400Y-7625040D02*
X15763400Y-7665040D01*
X15763400Y-7625040D02*
X15723400Y-7665040D01*
X15980500Y-9129810D02*
X16020500Y-9169810D01*
X16020500Y-9129810D02*
X15980500Y-9169810D01*
X15984600Y-7920570D02*
X16024600Y-7960570D01*
X16024600Y-7920570D02*
X15984600Y-7960570D01*
X16381400Y-8567500D02*
X16421400Y-8607500D01*
X16421400Y-8567500D02*
X16381400Y-8607500D01*
X16403900Y-8221390D02*
X16443900Y-8261390D01*
X16443900Y-8221390D02*
X16403900Y-8261390D01*
X16496000Y-10070700D02*
X16536000Y-10110700D01*
X16536000Y-10070700D02*
X16496000Y-10110700D01*
X16610000Y-10500000D02*
X16650000Y-10540000D01*
X16650000Y-10500000D02*
X16610000Y-10540000D01*
X16889300Y-12874600D02*
X16929300Y-12914600D01*
X16929300Y-12874600D02*
X16889300Y-12914600D01*
X15532740Y-7450000D02*
G75*
G02*
X15472740Y-7450000I-30000J0D01*
G01*
X15472740Y-7450000D02*
G75*
G02*
X15532740Y-7450000I30000J0D01*
G01*
X15732740Y-7450000D02*
G75*
G02*
X15672740Y-7450000I-30000J0D01*
G01*
X15672740Y-7450000D02*
G75*
G02*
X15732740Y-7450000I30000J0D01*
G01*
X16454000Y-10261900D02*
X16454000Y-10338100D01*
X16415900Y-10300000D02*
X16492100Y-10300000D01*
X16454000Y-13817900D02*
X16454000Y-13894100D01*
X16415900Y-13856000D02*
X16492100Y-13856000D01*
X16962000Y-13817900D02*
X16962000Y-13894100D01*
X16923900Y-13856000D02*
X17000100Y-13856000D01*
X17470000Y-10261900D02*
X17470000Y-10338100D01*
X17431900Y-10300000D02*
X17508100Y-10300000D01*
X17470000Y-13817900D02*
X17470000Y-13894100D01*
X17431900Y-13856000D02*
X17508100Y-13856000D01*
X15500284Y-9518285D02*
X15500284Y-9461716D01*
X15443715Y-9461716D01*
X15443715Y-9518285D01*
X15500284Y-9518285D01*
X15754284Y-9518285D02*
X15754284Y-9461716D01*
X15697715Y-9461716D01*
X15697715Y-9518285D01*
X15754284Y-9518285D01*
X16008284Y-9518285D02*
X16008284Y-9461716D01*
X15951715Y-9461716D01*
X15951715Y-9518285D01*
X16008284Y-9518285D01*
X14192500Y-9555000D02*
X14237500Y-9510000D01*
X14192500Y-9465000D01*
X14147500Y-9510000D01*
X14192500Y-9555000D01*
X14446500Y-9555000D02*
X14491500Y-9510000D01*
X14446500Y-9465000D01*
X14401500Y-9510000D01*
X14446500Y-9555000D01*
X13860250Y-14482750D02*
X13960250Y-14582750D01*
X13960250Y-14482750D02*
X13860250Y-14582750D01*
X13960250Y-14532750D02*
G75*
G02*
X13860250Y-14532750I-50000J0D01*
G01*
X13860250Y-14532750D02*
G75*
G02*
X13960250Y-14532750I50000J0D01*
G01*
X13865000Y-7266500D02*
X13965000Y-7366500D01*
X13965000Y-7266500D02*
X13865000Y-7366500D01*
X13965000Y-7316500D02*
G75*
G02*
X13865000Y-7316500I-50000J0D01*
G01*
X13865000Y-7316500D02*
G75*
G02*
X13965000Y-7316500I50000J0D01*
G01*
X13865000Y-7520500D02*
X13965000Y-7620500D01*
X13965000Y-7520500D02*
X13865000Y-7620500D01*
X13965000Y-7570500D02*
G75*
G02*
X13865000Y-7570500I-50000J0D01*
G01*
X13865000Y-7570500D02*
G75*
G02*
X13965000Y-7570500I50000J0D01*
G01*
X13950000Y-11450000D02*
X14050000Y-11550000D01*
X14050000Y-11450000D02*
X13950000Y-11550000D01*
X14050000Y-11500000D02*
G75*
G02*
X13950000Y-11500000I-50000J0D01*
G01*
X13950000Y-11500000D02*
G75*
G02*
X14050000Y-11500000I50000J0D01*
G01*
X13950000Y-11704000D02*
X14050000Y-11804000D01*
X14050000Y-11704000D02*
X13950000Y-11804000D01*
X14050000Y-11754000D02*
G75*
G02*
X13950000Y-11754000I-50000J0D01*
G01*
X13950000Y-11754000D02*
G75*
G02*
X14050000Y-11754000I50000J0D01*
G01*
X14114250Y-14482750D02*
X14214250Y-14582750D01*
X14214250Y-14482750D02*
X14114250Y-14582750D01*
X14214250Y-14532750D02*
G75*
G02*
X14114250Y-14532750I-50000J0D01*
G01*
X14114250Y-14532750D02*
G75*
G02*
X14214250Y-14532750I50000J0D01*
G01*
X14119000Y-7266500D02*
X14219000Y-7366500D01*
X14219000Y-7266500D02*
X14119000Y-7366500D01*
X14219000Y-7316500D02*
G75*
G02*
X14119000Y-7316500I-50000J0D01*
G01*
X14119000Y-7316500D02*
G75*
G02*
X14219000Y-7316500I50000J0D01*
G01*
X14119000Y-7520500D02*
X14219000Y-7620500D01*
X14219000Y-7520500D02*
X14119000Y-7620500D01*
X14219000Y-7570500D02*
G75*
G02*
X14119000Y-7570500I-50000J0D01*
G01*
X14119000Y-7570500D02*
G75*
G02*
X14219000Y-7570500I50000J0D01*
G01*
X14368250Y-14482750D02*
X14468250Y-14582750D01*
X14468250Y-14482750D02*
X14368250Y-14582750D01*
X14468250Y-14532750D02*
G75*
G02*
X14368250Y-14532750I-50000J0D01*
G01*
X14368250Y-14532750D02*
G75*
G02*
X14468250Y-14532750I50000J0D01*
G01*
X14373000Y-7266500D02*
X14473000Y-7366500D01*
X14473000Y-7266500D02*
X14373000Y-7366500D01*
X14473000Y-7316500D02*
G75*
G02*
X14373000Y-7316500I-50000J0D01*
G01*
X14373000Y-7316500D02*
G75*
G02*
X14473000Y-7316500I50000J0D01*
G01*
X14373000Y-7520500D02*
X14473000Y-7620500D01*
X14473000Y-7520500D02*
X14373000Y-7620500D01*
X14473000Y-7570500D02*
G75*
G02*
X14373000Y-7570500I-50000J0D01*
G01*
X14373000Y-7570500D02*
G75*
G02*
X14473000Y-7570500I50000J0D01*
G01*
X14389000Y-10175000D02*
X14489000Y-10275000D01*
X14489000Y-10175000D02*
X14389000Y-10275000D01*
X14489000Y-10225000D02*
G75*
G02*
X14389000Y-10225000I-50000J0D01*
G01*
X14389000Y-10225000D02*
G75*
G02*
X14489000Y-10225000I50000J0D01*
G01*
X14389000Y-10429000D02*
X14489000Y-10529000D01*
X14489000Y-10429000D02*
X14389000Y-10529000D01*
X14489000Y-10479000D02*
G75*
G02*
X14389000Y-10479000I-50000J0D01*
G01*
X14389000Y-10479000D02*
G75*
G02*
X14489000Y-10479000I50000J0D01*
G01*
X14389000Y-10683000D02*
X14489000Y-10783000D01*
X14489000Y-10683000D02*
X14389000Y-10783000D01*
X14489000Y-10733000D02*
G75*
G02*
X14389000Y-10733000I-50000J0D01*
G01*
X14389000Y-10733000D02*
G75*
G02*
X14489000Y-10733000I50000J0D01*
G01*
X14389000Y-10937000D02*
X14489000Y-11037000D01*
X14489000Y-10937000D02*
X14389000Y-11037000D01*
X14489000Y-10987000D02*
G75*
G02*
X14389000Y-10987000I-50000J0D01*
G01*
X14389000Y-10987000D02*
G75*
G02*
X14489000Y-10987000I50000J0D01*
G01*
X14389000Y-11191000D02*
X14489000Y-11291000D01*
X14489000Y-11191000D02*
X14389000Y-11291000D01*
X14489000Y-11241000D02*
G75*
G02*
X14389000Y-11241000I-50000J0D01*
G01*
X14389000Y-11241000D02*
G75*
G02*
X14489000Y-11241000I50000J0D01*
G01*
X14389000Y-11445000D02*
X14489000Y-11545000D01*
X14489000Y-11445000D02*
X14389000Y-11545000D01*
X14489000Y-11495000D02*
G75*
G02*
X14389000Y-11495000I-50000J0D01*
G01*
X14389000Y-11495000D02*
G75*
G02*
X14489000Y-11495000I50000J0D01*
G01*
X14389000Y-11699000D02*
X14489000Y-11799000D01*
X14489000Y-11699000D02*
X14389000Y-11799000D01*
X14489000Y-11749000D02*
G75*
G02*
X14389000Y-11749000I-50000J0D01*
G01*
X14389000Y-11749000D02*
G75*
G02*
X14489000Y-11749000I50000J0D01*
G01*
X14389000Y-11953000D02*
X14489000Y-12053000D01*
X14489000Y-11953000D02*
X14389000Y-12053000D01*
X14489000Y-12003000D02*
G75*
G02*
X14389000Y-12003000I-50000J0D01*
G01*
X14389000Y-12003000D02*
G75*
G02*
X14489000Y-12003000I50000J0D01*
G01*
X14389000Y-12207000D02*
X14489000Y-12307000D01*
X14489000Y-12207000D02*
X14389000Y-12307000D01*
X14489000Y-12257000D02*
G75*
G02*
X14389000Y-12257000I-50000J0D01*
G01*
X14389000Y-12257000D02*
G75*
G02*
X14489000Y-12257000I50000J0D01*
G01*
X14389000Y-12461000D02*
X14489000Y-12561000D01*
X14489000Y-12461000D02*
X14389000Y-12561000D01*
X14489000Y-12511000D02*
G75*
G02*
X14389000Y-12511000I-50000J0D01*
G01*
X14389000Y-12511000D02*
G75*
G02*
X14489000Y-12511000I50000J0D01*
G01*
X14389000Y-12715000D02*
X14489000Y-12815000D01*
X14489000Y-12715000D02*
X14389000Y-12815000D01*
X14489000Y-12765000D02*
G75*
G02*
X14389000Y-12765000I-50000J0D01*
G01*
X14389000Y-12765000D02*
G75*
G02*
X14489000Y-12765000I50000J0D01*
G01*
X14389000Y-12969000D02*
X14489000Y-13069000D01*
X14489000Y-12969000D02*
X14389000Y-13069000D01*
X14489000Y-13019000D02*
G75*
G02*
X14389000Y-13019000I-50000J0D01*
G01*
X14389000Y-13019000D02*
G75*
G02*
X14489000Y-13019000I50000J0D01*
G01*
X14389000Y-13223000D02*
X14489000Y-13323000D01*
X14489000Y-13223000D02*
X14389000Y-13323000D01*
X14489000Y-13273000D02*
G75*
G02*
X14389000Y-13273000I-50000J0D01*
G01*
X14389000Y-13273000D02*
G75*
G02*
X14489000Y-13273000I50000J0D01*
G01*
X14389000Y-13477000D02*
X14489000Y-13577000D01*
X14489000Y-13477000D02*
X14389000Y-13577000D01*
X14489000Y-13527000D02*
G75*
G02*
X14389000Y-13527000I-50000J0D01*
G01*
X14389000Y-13527000D02*
G75*
G02*
X14489000Y-13527000I50000J0D01*
G01*
X14389000Y-13731000D02*
X14489000Y-13831000D01*
X14489000Y-13731000D02*
X14389000Y-13831000D01*
X14489000Y-13781000D02*
G75*
G02*
X14389000Y-13781000I-50000J0D01*
G01*
X14389000Y-13781000D02*
G75*
G02*
X14489000Y-13781000I50000J0D01*
G01*
X14622250Y-14482750D02*
X14722250Y-14582750D01*
X14722250Y-14482750D02*
X14622250Y-14582750D01*
X14722250Y-14532750D02*
G75*
G02*
X14622250Y-14532750I-50000J0D01*
G01*
X14622250Y-14532750D02*
G75*
G02*
X14722250Y-14532750I50000J0D01*
G01*
X14627000Y-7266500D02*
X14727000Y-7366500D01*
X14727000Y-7266500D02*
X14627000Y-7366500D01*
X14727000Y-7316500D02*
G75*
G02*
X14627000Y-7316500I-50000J0D01*
G01*
X14627000Y-7316500D02*
G75*
G02*
X14727000Y-7316500I50000J0D01*
G01*
X14627000Y-7520500D02*
X14727000Y-7620500D01*
X14727000Y-7520500D02*
X14627000Y-7620500D01*
X14727000Y-7570500D02*
G75*
G02*
X14627000Y-7570500I-50000J0D01*
G01*
X14627000Y-7570500D02*
G75*
G02*
X14727000Y-7570500I50000J0D01*
G01*
X15368000Y-14710000D02*
X15468000Y-14810000D01*
X15468000Y-14710000D02*
X15368000Y-14810000D01*
X15468000Y-14760000D02*
G75*
G02*
X15368000Y-14760000I-50000J0D01*
G01*
X15368000Y-14760000D02*
G75*
G02*
X15468000Y-14760000I50000J0D01*
G01*
X15622000Y-14710000D02*
X15722000Y-14810000D01*
X15722000Y-14710000D02*
X15622000Y-14810000D01*
X15722000Y-14760000D02*
G75*
G02*
X15622000Y-14760000I-50000J0D01*
G01*
X15622000Y-14760000D02*
G75*
G02*
X15722000Y-14760000I50000J0D01*
G01*
X15876000Y-14710000D02*
X15976000Y-14810000D01*
X15976000Y-14710000D02*
X15876000Y-14810000D01*
X15976000Y-14760000D02*
G75*
G02*
X15876000Y-14760000I-50000J0D01*
G01*
X15876000Y-14760000D02*
G75*
G02*
X15976000Y-14760000I50000J0D01*
G01*
X15913000Y-10175000D02*
X16013000Y-10275000D01*
X16013000Y-10175000D02*
X15913000Y-10275000D01*
X16013000Y-10225000D02*
G75*
G02*
X15913000Y-10225000I-50000J0D01*
G01*
X15913000Y-10225000D02*
G75*
G02*
X16013000Y-10225000I50000J0D01*
G01*
X15913000Y-10429000D02*
X16013000Y-10529000D01*
X16013000Y-10429000D02*
X15913000Y-10529000D01*
X16013000Y-10479000D02*
G75*
G02*
X15913000Y-10479000I-50000J0D01*
G01*
X15913000Y-10479000D02*
G75*
G02*
X16013000Y-10479000I50000J0D01*
G01*
X15913000Y-10683000D02*
X16013000Y-10783000D01*
X16013000Y-10683000D02*
X15913000Y-10783000D01*
X16013000Y-10733000D02*
G75*
G02*
X15913000Y-10733000I-50000J0D01*
G01*
X15913000Y-10733000D02*
G75*
G02*
X16013000Y-10733000I50000J0D01*
G01*
X15913000Y-10937000D02*
X16013000Y-11037000D01*
X16013000Y-10937000D02*
X15913000Y-11037000D01*
X16013000Y-10987000D02*
G75*
G02*
X15913000Y-10987000I-50000J0D01*
G01*
X15913000Y-10987000D02*
G75*
G02*
X16013000Y-10987000I50000J0D01*
G01*
X15913000Y-11191000D02*
X16013000Y-11291000D01*
X16013000Y-11191000D02*
X15913000Y-11291000D01*
X16013000Y-11241000D02*
G75*
G02*
X15913000Y-11241000I-50000J0D01*
G01*
X15913000Y-11241000D02*
G75*
G02*
X16013000Y-11241000I50000J0D01*
G01*
X15913000Y-11445000D02*
X16013000Y-11545000D01*
X16013000Y-11445000D02*
X15913000Y-11545000D01*
X16013000Y-11495000D02*
G75*
G02*
X15913000Y-11495000I-50000J0D01*
G01*
X15913000Y-11495000D02*
G75*
G02*
X16013000Y-11495000I50000J0D01*
G01*
X15913000Y-11699000D02*
X16013000Y-11799000D01*
X16013000Y-11699000D02*
X15913000Y-11799000D01*
X16013000Y-11749000D02*
G75*
G02*
X15913000Y-11749000I-50000J0D01*
G01*
X15913000Y-11749000D02*
G75*
G02*
X16013000Y-11749000I50000J0D01*
G01*
X15913000Y-11953000D02*
X16013000Y-12053000D01*
X16013000Y-11953000D02*
X15913000Y-12053000D01*
X16013000Y-12003000D02*
G75*
G02*
X15913000Y-12003000I-50000J0D01*
G01*
X15913000Y-12003000D02*
G75*
G02*
X16013000Y-12003000I50000J0D01*
G01*
X15913000Y-12207000D02*
X16013000Y-12307000D01*
X16013000Y-12207000D02*
X15913000Y-12307000D01*
X16013000Y-12257000D02*
G75*
G02*
X15913000Y-12257000I-50000J0D01*
G01*
X15913000Y-12257000D02*
G75*
G02*
X16013000Y-12257000I50000J0D01*
G01*
X15913000Y-12461000D02*
X16013000Y-12561000D01*
X16013000Y-12461000D02*
X15913000Y-12561000D01*
X16013000Y-12511000D02*
G75*
G02*
X15913000Y-12511000I-50000J0D01*
G01*
X15913000Y-12511000D02*
G75*
G02*
X16013000Y-12511000I50000J0D01*
G01*
X15913000Y-12715000D02*
X16013000Y-12815000D01*
X16013000Y-12715000D02*
X15913000Y-12815000D01*
X16013000Y-12765000D02*
G75*
G02*
X15913000Y-12765000I-50000J0D01*
G01*
X15913000Y-12765000D02*
G75*
G02*
X16013000Y-12765000I50000J0D01*
G01*
X15913000Y-12969000D02*
X16013000Y-13069000D01*
X16013000Y-12969000D02*
X15913000Y-13069000D01*
X16013000Y-13019000D02*
G75*
G02*
X15913000Y-13019000I-50000J0D01*
G01*
X15913000Y-13019000D02*
G75*
G02*
X16013000Y-13019000I50000J0D01*
G01*
X15913000Y-13223000D02*
X16013000Y-13323000D01*
X16013000Y-13223000D02*
X15913000Y-13323000D01*
X16013000Y-13273000D02*
G75*
G02*
X15913000Y-13273000I-50000J0D01*
G01*
X15913000Y-13273000D02*
G75*
G02*
X16013000Y-13273000I50000J0D01*
G01*
X15913000Y-13477000D02*
X16013000Y-13577000D01*
X16013000Y-13477000D02*
X15913000Y-13577000D01*
X16013000Y-13527000D02*
G75*
G02*
X15913000Y-13527000I-50000J0D01*
G01*
X15913000Y-13527000D02*
G75*
G02*
X16013000Y-13527000I50000J0D01*
G01*
X15913000Y-13731000D02*
X16013000Y-13831000D01*
X16013000Y-13731000D02*
X15913000Y-13831000D01*
X16013000Y-13781000D02*
G75*
G02*
X15913000Y-13781000I-50000J0D01*
G01*
X15913000Y-13781000D02*
G75*
G02*
X16013000Y-13781000I50000J0D01*
G01*
X16130000Y-14710000D02*
X16230000Y-14810000D01*
X16230000Y-14710000D02*
X16130000Y-14810000D01*
X16230000Y-14760000D02*
G75*
G02*
X16130000Y-14760000I-50000J0D01*
G01*
X16130000Y-14760000D02*
G75*
G02*
X16230000Y-14760000I50000J0D01*
G01*
X16770000Y-14542500D02*
X16870000Y-14642500D01*
X16870000Y-14542500D02*
X16770000Y-14642500D01*
X16870000Y-14592500D02*
G75*
G02*
X16770000Y-14592500I-50000J0D01*
G01*
X16770000Y-14592500D02*
G75*
G02*
X16870000Y-14592500I50000J0D01*
G01*
X17020000Y-14542500D02*
X17120000Y-14642500D01*
X17120000Y-14542500D02*
X17020000Y-14642500D01*
X17120000Y-14592500D02*
G75*
G02*
X17020000Y-14592500I-50000J0D01*
G01*
X17020000Y-14592500D02*
G75*
G02*
X17120000Y-14592500I50000J0D01*
G01*
X17270000Y-14542500D02*
X17370000Y-14642500D01*
X17370000Y-14542500D02*
X17270000Y-14642500D01*
X17370000Y-14592500D02*
G75*
G02*
X17270000Y-14592500I-50000J0D01*
G01*
X17270000Y-14592500D02*
G75*
G02*
X17370000Y-14592500I50000J0D01*
G01*
D11*
X13974277Y-15299984D02*
X13974277Y-15099984D01*
X13974277Y-15099984D02*
X14021896Y-15099984D01*
X14021896Y-15099984D02*
X14050467Y-15109508D01*
X14050467Y-15109508D02*
X14069515Y-15128555D01*
X14069515Y-15128555D02*
X14079039Y-15147603D01*
X14079039Y-15147603D02*
X14088562Y-15185698D01*
X14088562Y-15185698D02*
X14088562Y-15214269D01*
X14088562Y-15214269D02*
X14079039Y-15252365D01*
X14079039Y-15252365D02*
X14069515Y-15271412D01*
X14069515Y-15271412D02*
X14050467Y-15290460D01*
X14050467Y-15290460D02*
X14021896Y-15299984D01*
X14021896Y-15299984D02*
X13974277Y-15299984D01*
X14174277Y-15299984D02*
X14174277Y-15166650D01*
X14174277Y-15204746D02*
X14183801Y-15185698D01*
X14183801Y-15185698D02*
X14193324Y-15176174D01*
X14193324Y-15176174D02*
X14212372Y-15166650D01*
X14212372Y-15166650D02*
X14231420Y-15166650D01*
X14298086Y-15299984D02*
X14298086Y-15166650D01*
X14298086Y-15099984D02*
X14288562Y-15109508D01*
X14288562Y-15109508D02*
X14298086Y-15119031D01*
X14298086Y-15119031D02*
X14307610Y-15109508D01*
X14307610Y-15109508D02*
X14298086Y-15099984D01*
X14298086Y-15099984D02*
X14298086Y-15119031D01*
X14421896Y-15299984D02*
X14402848Y-15290460D01*
X14402848Y-15290460D02*
X14393324Y-15271412D01*
X14393324Y-15271412D02*
X14393324Y-15099984D01*
X14526658Y-15299984D02*
X14507610Y-15290460D01*
X14507610Y-15290460D02*
X14498086Y-15271412D01*
X14498086Y-15271412D02*
X14498086Y-15099984D01*
X14755229Y-15299984D02*
X14755229Y-15099984D01*
X14755229Y-15099984D02*
X14821896Y-15242841D01*
X14821896Y-15242841D02*
X14888562Y-15099984D01*
X14888562Y-15099984D02*
X14888562Y-15299984D01*
X15069515Y-15299984D02*
X15069515Y-15195222D01*
X15069515Y-15195222D02*
X15059991Y-15176174D01*
X15059991Y-15176174D02*
X15040943Y-15166650D01*
X15040943Y-15166650D02*
X15002848Y-15166650D01*
X15002848Y-15166650D02*
X14983801Y-15176174D01*
X15069515Y-15290460D02*
X15050467Y-15299984D01*
X15050467Y-15299984D02*
X15002848Y-15299984D01*
X15002848Y-15299984D02*
X14983801Y-15290460D01*
X14983801Y-15290460D02*
X14974277Y-15271412D01*
X14974277Y-15271412D02*
X14974277Y-15252365D01*
X14974277Y-15252365D02*
X14983801Y-15233317D01*
X14983801Y-15233317D02*
X15002848Y-15223793D01*
X15002848Y-15223793D02*
X15050467Y-15223793D01*
X15050467Y-15223793D02*
X15069515Y-15214269D01*
X15164753Y-15166650D02*
X15164753Y-15366650D01*
X15164753Y-15176174D02*
X15183801Y-15166650D01*
X15183801Y-15166650D02*
X15221896Y-15166650D01*
X15221896Y-15166650D02*
X15240943Y-15176174D01*
X15240943Y-15176174D02*
X15250467Y-15185698D01*
X15250467Y-15185698D02*
X15259991Y-15204746D01*
X15259991Y-15204746D02*
X15259991Y-15261888D01*
X15259991Y-15261888D02*
X15250467Y-15280936D01*
X15250467Y-15280936D02*
X15240943Y-15290460D01*
X15240943Y-15290460D02*
X15221896Y-15299984D01*
X15221896Y-15299984D02*
X15183801Y-15299984D01*
X15183801Y-15299984D02*
X15164753Y-15290460D01*
X15345705Y-15280936D02*
X15355229Y-15290460D01*
X15355229Y-15290460D02*
X15345705Y-15299984D01*
X15345705Y-15299984D02*
X15336182Y-15290460D01*
X15336182Y-15290460D02*
X15345705Y-15280936D01*
X15345705Y-15280936D02*
X15345705Y-15299984D01*
X15345705Y-15176174D02*
X15355229Y-15185698D01*
X15355229Y-15185698D02*
X15345705Y-15195222D01*
X15345705Y-15195222D02*
X15336182Y-15185698D01*
X15336182Y-15185698D02*
X15345705Y-15176174D01*
X15345705Y-15176174D02*
X15345705Y-15195222D01*
D12*
X13673500Y-15608500D02*
X13713500Y-15648500D01*
X13713500Y-15608500D02*
X13673500Y-15648500D01*
D11*
X14012372Y-15519984D02*
X14031420Y-15519984D01*
X14031420Y-15519984D02*
X14050467Y-15529508D01*
X14050467Y-15529508D02*
X14059991Y-15539031D01*
X14059991Y-15539031D02*
X14069515Y-15558079D01*
X14069515Y-15558079D02*
X14079039Y-15596174D01*
X14079039Y-15596174D02*
X14079039Y-15643793D01*
X14079039Y-15643793D02*
X14069515Y-15681888D01*
X14069515Y-15681888D02*
X14059991Y-15700936D01*
X14059991Y-15700936D02*
X14050467Y-15710460D01*
X14050467Y-15710460D02*
X14031420Y-15719984D01*
X14031420Y-15719984D02*
X14012372Y-15719984D01*
X14012372Y-15719984D02*
X13993324Y-15710460D01*
X13993324Y-15710460D02*
X13983801Y-15700936D01*
X13983801Y-15700936D02*
X13974277Y-15681888D01*
X13974277Y-15681888D02*
X13964753Y-15643793D01*
X13964753Y-15643793D02*
X13964753Y-15596174D01*
X13964753Y-15596174D02*
X13974277Y-15558079D01*
X13974277Y-15558079D02*
X13983801Y-15539031D01*
X13983801Y-15539031D02*
X13993324Y-15529508D01*
X13993324Y-15529508D02*
X14012372Y-15519984D01*
X14164753Y-15700936D02*
X14174277Y-15710460D01*
X14174277Y-15710460D02*
X14164753Y-15719984D01*
X14164753Y-15719984D02*
X14155229Y-15710460D01*
X14155229Y-15710460D02*
X14164753Y-15700936D01*
X14164753Y-15700936D02*
X14164753Y-15719984D01*
X14345705Y-15586650D02*
X14345705Y-15719984D01*
X14298086Y-15510460D02*
X14250467Y-15653317D01*
X14250467Y-15653317D02*
X14374277Y-15653317D01*
X14488562Y-15519984D02*
X14507610Y-15519984D01*
X14507610Y-15519984D02*
X14526658Y-15529508D01*
X14526658Y-15529508D02*
X14536182Y-15539031D01*
X14536182Y-15539031D02*
X14545705Y-15558079D01*
X14545705Y-15558079D02*
X14555229Y-15596174D01*
X14555229Y-15596174D02*
X14555229Y-15643793D01*
X14555229Y-15643793D02*
X14545705Y-15681888D01*
X14545705Y-15681888D02*
X14536182Y-15700936D01*
X14536182Y-15700936D02*
X14526658Y-15710460D01*
X14526658Y-15710460D02*
X14507610Y-15719984D01*
X14507610Y-15719984D02*
X14488562Y-15719984D01*
X14488562Y-15719984D02*
X14469515Y-15710460D01*
X14469515Y-15710460D02*
X14459991Y-15700936D01*
X14459991Y-15700936D02*
X14450467Y-15681888D01*
X14450467Y-15681888D02*
X14440943Y-15643793D01*
X14440943Y-15643793D02*
X14440943Y-15596174D01*
X14440943Y-15596174D02*
X14450467Y-15558079D01*
X14450467Y-15558079D02*
X14459991Y-15539031D01*
X14459991Y-15539031D02*
X14469515Y-15529508D01*
X14469515Y-15529508D02*
X14488562Y-15519984D01*
X14679039Y-15519984D02*
X14698086Y-15519984D01*
X14698086Y-15519984D02*
X14717134Y-15529508D01*
X14717134Y-15529508D02*
X14726658Y-15539031D01*
X14726658Y-15539031D02*
X14736182Y-15558079D01*
X14736182Y-15558079D02*
X14745705Y-15596174D01*
X14745705Y-15596174D02*
X14745705Y-15643793D01*
X14745705Y-15643793D02*
X14736182Y-15681888D01*
X14736182Y-15681888D02*
X14726658Y-15700936D01*
X14726658Y-15700936D02*
X14717134Y-15710460D01*
X14717134Y-15710460D02*
X14698086Y-15719984D01*
X14698086Y-15719984D02*
X14679039Y-15719984D01*
X14679039Y-15719984D02*
X14659991Y-15710460D01*
X14659991Y-15710460D02*
X14650467Y-15700936D01*
X14650467Y-15700936D02*
X14640943Y-15681888D01*
X14640943Y-15681888D02*
X14631420Y-15643793D01*
X14631420Y-15643793D02*
X14631420Y-15596174D01*
X14631420Y-15596174D02*
X14640943Y-15558079D01*
X14640943Y-15558079D02*
X14650467Y-15539031D01*
X14650467Y-15539031D02*
X14659991Y-15529508D01*
X14659991Y-15529508D02*
X14679039Y-15519984D01*
X14831420Y-15719984D02*
X14831420Y-15586650D01*
X14831420Y-15605698D02*
X14840943Y-15596174D01*
X14840943Y-15596174D02*
X14859991Y-15586650D01*
X14859991Y-15586650D02*
X14888563Y-15586650D01*
X14888563Y-15586650D02*
X14907610Y-15596174D01*
X14907610Y-15596174D02*
X14917134Y-15615222D01*
X14917134Y-15615222D02*
X14917134Y-15719984D01*
X14917134Y-15615222D02*
X14926658Y-15596174D01*
X14926658Y-15596174D02*
X14945705Y-15586650D01*
X14945705Y-15586650D02*
X14974277Y-15586650D01*
X14974277Y-15586650D02*
X14993324Y-15596174D01*
X14993324Y-15596174D02*
X15002848Y-15615222D01*
X15002848Y-15615222D02*
X15002848Y-15719984D01*
X15098086Y-15719984D02*
X15098086Y-15586650D01*
X15098086Y-15605698D02*
X15107610Y-15596174D01*
X15107610Y-15596174D02*
X15126658Y-15586650D01*
X15126658Y-15586650D02*
X15155229Y-15586650D01*
X15155229Y-15586650D02*
X15174277Y-15596174D01*
X15174277Y-15596174D02*
X15183801Y-15615222D01*
X15183801Y-15615222D02*
X15183801Y-15719984D01*
X15183801Y-15615222D02*
X15193324Y-15596174D01*
X15193324Y-15596174D02*
X15212372Y-15586650D01*
X15212372Y-15586650D02*
X15240943Y-15586650D01*
X15240943Y-15586650D02*
X15259991Y-15596174D01*
X15259991Y-15596174D02*
X15269515Y-15615222D01*
X15269515Y-15615222D02*
X15269515Y-15719984D01*
X15659991Y-15510460D02*
X15488563Y-15767603D01*
X15917134Y-15519984D02*
X15936182Y-15519984D01*
X15936182Y-15519984D02*
X15955229Y-15529508D01*
X15955229Y-15529508D02*
X15964753Y-15539031D01*
X15964753Y-15539031D02*
X15974277Y-15558079D01*
X15974277Y-15558079D02*
X15983801Y-15596174D01*
X15983801Y-15596174D02*
X15983801Y-15643793D01*
X15983801Y-15643793D02*
X15974277Y-15681888D01*
X15974277Y-15681888D02*
X15964753Y-15700936D01*
X15964753Y-15700936D02*
X15955229Y-15710460D01*
X15955229Y-15710460D02*
X15936182Y-15719984D01*
X15936182Y-15719984D02*
X15917134Y-15719984D01*
X15917134Y-15719984D02*
X15898086Y-15710460D01*
X15898086Y-15710460D02*
X15888563Y-15700936D01*
X15888563Y-15700936D02*
X15879039Y-15681888D01*
X15879039Y-15681888D02*
X15869515Y-15643793D01*
X15869515Y-15643793D02*
X15869515Y-15596174D01*
X15869515Y-15596174D02*
X15879039Y-15558079D01*
X15879039Y-15558079D02*
X15888563Y-15539031D01*
X15888563Y-15539031D02*
X15898086Y-15529508D01*
X15898086Y-15529508D02*
X15917134Y-15519984D01*
X16069515Y-15700936D02*
X16079039Y-15710460D01*
X16079039Y-15710460D02*
X16069515Y-15719984D01*
X16069515Y-15719984D02*
X16059991Y-15710460D01*
X16059991Y-15710460D02*
X16069515Y-15700936D01*
X16069515Y-15700936D02*
X16069515Y-15719984D01*
X16202848Y-15519984D02*
X16221896Y-15519984D01*
X16221896Y-15519984D02*
X16240944Y-15529508D01*
X16240944Y-15529508D02*
X16250467Y-15539031D01*
X16250467Y-15539031D02*
X16259991Y-15558079D01*
X16259991Y-15558079D02*
X16269515Y-15596174D01*
X16269515Y-15596174D02*
X16269515Y-15643793D01*
X16269515Y-15643793D02*
X16259991Y-15681888D01*
X16259991Y-15681888D02*
X16250467Y-15700936D01*
X16250467Y-15700936D02*
X16240944Y-15710460D01*
X16240944Y-15710460D02*
X16221896Y-15719984D01*
X16221896Y-15719984D02*
X16202848Y-15719984D01*
X16202848Y-15719984D02*
X16183801Y-15710460D01*
X16183801Y-15710460D02*
X16174277Y-15700936D01*
X16174277Y-15700936D02*
X16164753Y-15681888D01*
X16164753Y-15681888D02*
X16155229Y-15643793D01*
X16155229Y-15643793D02*
X16155229Y-15596174D01*
X16155229Y-15596174D02*
X16164753Y-15558079D01*
X16164753Y-15558079D02*
X16174277Y-15539031D01*
X16174277Y-15539031D02*
X16183801Y-15529508D01*
X16183801Y-15529508D02*
X16202848Y-15519984D01*
X16459991Y-15719984D02*
X16345706Y-15719984D01*
X16402848Y-15719984D02*
X16402848Y-15519984D01*
X16402848Y-15519984D02*
X16383801Y-15548555D01*
X16383801Y-15548555D02*
X16364753Y-15567603D01*
X16364753Y-15567603D02*
X16345706Y-15577127D01*
X16640944Y-15519984D02*
X16545706Y-15519984D01*
X16545706Y-15519984D02*
X16536182Y-15615222D01*
X16536182Y-15615222D02*
X16545706Y-15605698D01*
X16545706Y-15605698D02*
X16564753Y-15596174D01*
X16564753Y-15596174D02*
X16612372Y-15596174D01*
X16612372Y-15596174D02*
X16631420Y-15605698D01*
X16631420Y-15605698D02*
X16640944Y-15615222D01*
X16640944Y-15615222D02*
X16650467Y-15634269D01*
X16650467Y-15634269D02*
X16650467Y-15681888D01*
X16650467Y-15681888D02*
X16640944Y-15700936D01*
X16640944Y-15700936D02*
X16631420Y-15710460D01*
X16631420Y-15710460D02*
X16612372Y-15719984D01*
X16612372Y-15719984D02*
X16564753Y-15719984D01*
X16564753Y-15719984D02*
X16545706Y-15710460D01*
X16545706Y-15710460D02*
X16536182Y-15700936D01*
X16717134Y-15519984D02*
X16850468Y-15519984D01*
X16850468Y-15519984D02*
X16764753Y-15719984D01*
X16917134Y-15519984D02*
X16917134Y-15558079D01*
X16993325Y-15519984D02*
X16993325Y-15558079D01*
X17288563Y-15796174D02*
X17279039Y-15786650D01*
X17279039Y-15786650D02*
X17259991Y-15758079D01*
X17259991Y-15758079D02*
X17250468Y-15739031D01*
X17250468Y-15739031D02*
X17240944Y-15710460D01*
X17240944Y-15710460D02*
X17231420Y-15662841D01*
X17231420Y-15662841D02*
X17231420Y-15624746D01*
X17231420Y-15624746D02*
X17240944Y-15577127D01*
X17240944Y-15577127D02*
X17250468Y-15548555D01*
X17250468Y-15548555D02*
X17259991Y-15529508D01*
X17259991Y-15529508D02*
X17279039Y-15500936D01*
X17279039Y-15500936D02*
X17288563Y-15491412D01*
X17469515Y-15719984D02*
X17355230Y-15719984D01*
X17412372Y-15719984D02*
X17412372Y-15519984D01*
X17412372Y-15519984D02*
X17393325Y-15548555D01*
X17393325Y-15548555D02*
X17374277Y-15567603D01*
X17374277Y-15567603D02*
X17355230Y-15577127D01*
X17640944Y-15519984D02*
X17602849Y-15519984D01*
X17602849Y-15519984D02*
X17583801Y-15529508D01*
X17583801Y-15529508D02*
X17574277Y-15539031D01*
X17574277Y-15539031D02*
X17555230Y-15567603D01*
X17555230Y-15567603D02*
X17545706Y-15605698D01*
X17545706Y-15605698D02*
X17545706Y-15681888D01*
X17545706Y-15681888D02*
X17555230Y-15700936D01*
X17555230Y-15700936D02*
X17564753Y-15710460D01*
X17564753Y-15710460D02*
X17583801Y-15719984D01*
X17583801Y-15719984D02*
X17621896Y-15719984D01*
X17621896Y-15719984D02*
X17640944Y-15710460D01*
X17640944Y-15710460D02*
X17650468Y-15700936D01*
X17650468Y-15700936D02*
X17659991Y-15681888D01*
X17659991Y-15681888D02*
X17659991Y-15634269D01*
X17659991Y-15634269D02*
X17650468Y-15615222D01*
X17650468Y-15615222D02*
X17640944Y-15605698D01*
X17640944Y-15605698D02*
X17621896Y-15596174D01*
X17621896Y-15596174D02*
X17583801Y-15596174D01*
X17583801Y-15596174D02*
X17564753Y-15605698D01*
X17564753Y-15605698D02*
X17555230Y-15615222D01*
X17555230Y-15615222D02*
X17545706Y-15634269D01*
X17898087Y-15719984D02*
X17898087Y-15519984D01*
X17983801Y-15719984D02*
X17983801Y-15615222D01*
X17983801Y-15615222D02*
X17974277Y-15596174D01*
X17974277Y-15596174D02*
X17955230Y-15586650D01*
X17955230Y-15586650D02*
X17926658Y-15586650D01*
X17926658Y-15586650D02*
X17907611Y-15596174D01*
X17907611Y-15596174D02*
X17898087Y-15605698D01*
X18107611Y-15719984D02*
X18088563Y-15710460D01*
X18088563Y-15710460D02*
X18079039Y-15700936D01*
X18079039Y-15700936D02*
X18069515Y-15681888D01*
X18069515Y-15681888D02*
X18069515Y-15624746D01*
X18069515Y-15624746D02*
X18079039Y-15605698D01*
X18079039Y-15605698D02*
X18088563Y-15596174D01*
X18088563Y-15596174D02*
X18107611Y-15586650D01*
X18107611Y-15586650D02*
X18136182Y-15586650D01*
X18136182Y-15586650D02*
X18155230Y-15596174D01*
X18155230Y-15596174D02*
X18164753Y-15605698D01*
X18164753Y-15605698D02*
X18174277Y-15624746D01*
X18174277Y-15624746D02*
X18174277Y-15681888D01*
X18174277Y-15681888D02*
X18164753Y-15700936D01*
X18164753Y-15700936D02*
X18155230Y-15710460D01*
X18155230Y-15710460D02*
X18136182Y-15719984D01*
X18136182Y-15719984D02*
X18107611Y-15719984D01*
X18288563Y-15719984D02*
X18269515Y-15710460D01*
X18269515Y-15710460D02*
X18259992Y-15691412D01*
X18259992Y-15691412D02*
X18259992Y-15519984D01*
X18440944Y-15710460D02*
X18421896Y-15719984D01*
X18421896Y-15719984D02*
X18383801Y-15719984D01*
X18383801Y-15719984D02*
X18364753Y-15710460D01*
X18364753Y-15710460D02*
X18355230Y-15691412D01*
X18355230Y-15691412D02*
X18355230Y-15615222D01*
X18355230Y-15615222D02*
X18364753Y-15596174D01*
X18364753Y-15596174D02*
X18383801Y-15586650D01*
X18383801Y-15586650D02*
X18421896Y-15586650D01*
X18421896Y-15586650D02*
X18440944Y-15596174D01*
X18440944Y-15596174D02*
X18450468Y-15615222D01*
X18450468Y-15615222D02*
X18450468Y-15634269D01*
X18450468Y-15634269D02*
X18355230Y-15653317D01*
X18526658Y-15710460D02*
X18545706Y-15719984D01*
X18545706Y-15719984D02*
X18583801Y-15719984D01*
X18583801Y-15719984D02*
X18602849Y-15710460D01*
X18602849Y-15710460D02*
X18612373Y-15691412D01*
X18612373Y-15691412D02*
X18612373Y-15681888D01*
X18612373Y-15681888D02*
X18602849Y-15662841D01*
X18602849Y-15662841D02*
X18583801Y-15653317D01*
X18583801Y-15653317D02*
X18555230Y-15653317D01*
X18555230Y-15653317D02*
X18536182Y-15643793D01*
X18536182Y-15643793D02*
X18526658Y-15624746D01*
X18526658Y-15624746D02*
X18526658Y-15615222D01*
X18526658Y-15615222D02*
X18536182Y-15596174D01*
X18536182Y-15596174D02*
X18555230Y-15586650D01*
X18555230Y-15586650D02*
X18583801Y-15586650D01*
X18583801Y-15586650D02*
X18602849Y-15596174D01*
X18679039Y-15796174D02*
X18688563Y-15786650D01*
X18688563Y-15786650D02*
X18707611Y-15758079D01*
X18707611Y-15758079D02*
X18717134Y-15739031D01*
X18717134Y-15739031D02*
X18726658Y-15710460D01*
X18726658Y-15710460D02*
X18736182Y-15662841D01*
X18736182Y-15662841D02*
X18736182Y-15624746D01*
X18736182Y-15624746D02*
X18726658Y-15577127D01*
X18726658Y-15577127D02*
X18717134Y-15548555D01*
X18717134Y-15548555D02*
X18707611Y-15529508D01*
X18707611Y-15529508D02*
X18688563Y-15500936D01*
X18688563Y-15500936D02*
X18679039Y-15491412D01*
D12*
X13713500Y-15892500D02*
G75*
G02*
X13653500Y-15892500I-30000J0D01*
G01*
X13653500Y-15892500D02*
G75*
G02*
X13713500Y-15892500I30000J0D01*
G01*
D11*
X14012372Y-15783984D02*
X14031420Y-15783984D01*
X14031420Y-15783984D02*
X14050467Y-15793508D01*
X14050467Y-15793508D02*
X14059991Y-15803031D01*
X14059991Y-15803031D02*
X14069515Y-15822079D01*
X14069515Y-15822079D02*
X14079039Y-15860174D01*
X14079039Y-15860174D02*
X14079039Y-15907793D01*
X14079039Y-15907793D02*
X14069515Y-15945888D01*
X14069515Y-15945888D02*
X14059991Y-15964936D01*
X14059991Y-15964936D02*
X14050467Y-15974460D01*
X14050467Y-15974460D02*
X14031420Y-15983984D01*
X14031420Y-15983984D02*
X14012372Y-15983984D01*
X14012372Y-15983984D02*
X13993324Y-15974460D01*
X13993324Y-15974460D02*
X13983801Y-15964936D01*
X13983801Y-15964936D02*
X13974277Y-15945888D01*
X13974277Y-15945888D02*
X13964753Y-15907793D01*
X13964753Y-15907793D02*
X13964753Y-15860174D01*
X13964753Y-15860174D02*
X13974277Y-15822079D01*
X13974277Y-15822079D02*
X13983801Y-15803031D01*
X13983801Y-15803031D02*
X13993324Y-15793508D01*
X13993324Y-15793508D02*
X14012372Y-15783984D01*
X14164753Y-15964936D02*
X14174277Y-15974460D01*
X14174277Y-15974460D02*
X14164753Y-15983984D01*
X14164753Y-15983984D02*
X14155229Y-15974460D01*
X14155229Y-15974460D02*
X14164753Y-15964936D01*
X14164753Y-15964936D02*
X14164753Y-15983984D01*
X14345705Y-15783984D02*
X14307610Y-15783984D01*
X14307610Y-15783984D02*
X14288562Y-15793508D01*
X14288562Y-15793508D02*
X14279039Y-15803031D01*
X14279039Y-15803031D02*
X14259991Y-15831603D01*
X14259991Y-15831603D02*
X14250467Y-15869698D01*
X14250467Y-15869698D02*
X14250467Y-15945888D01*
X14250467Y-15945888D02*
X14259991Y-15964936D01*
X14259991Y-15964936D02*
X14269515Y-15974460D01*
X14269515Y-15974460D02*
X14288562Y-15983984D01*
X14288562Y-15983984D02*
X14326658Y-15983984D01*
X14326658Y-15983984D02*
X14345705Y-15974460D01*
X14345705Y-15974460D02*
X14355229Y-15964936D01*
X14355229Y-15964936D02*
X14364753Y-15945888D01*
X14364753Y-15945888D02*
X14364753Y-15898269D01*
X14364753Y-15898269D02*
X14355229Y-15879222D01*
X14355229Y-15879222D02*
X14345705Y-15869698D01*
X14345705Y-15869698D02*
X14326658Y-15860174D01*
X14326658Y-15860174D02*
X14288562Y-15860174D01*
X14288562Y-15860174D02*
X14269515Y-15869698D01*
X14269515Y-15869698D02*
X14259991Y-15879222D01*
X14259991Y-15879222D02*
X14250467Y-15898269D01*
X14488562Y-15783984D02*
X14507610Y-15783984D01*
X14507610Y-15783984D02*
X14526658Y-15793508D01*
X14526658Y-15793508D02*
X14536182Y-15803031D01*
X14536182Y-15803031D02*
X14545705Y-15822079D01*
X14545705Y-15822079D02*
X14555229Y-15860174D01*
X14555229Y-15860174D02*
X14555229Y-15907793D01*
X14555229Y-15907793D02*
X14545705Y-15945888D01*
X14545705Y-15945888D02*
X14536182Y-15964936D01*
X14536182Y-15964936D02*
X14526658Y-15974460D01*
X14526658Y-15974460D02*
X14507610Y-15983984D01*
X14507610Y-15983984D02*
X14488562Y-15983984D01*
X14488562Y-15983984D02*
X14469515Y-15974460D01*
X14469515Y-15974460D02*
X14459991Y-15964936D01*
X14459991Y-15964936D02*
X14450467Y-15945888D01*
X14450467Y-15945888D02*
X14440943Y-15907793D01*
X14440943Y-15907793D02*
X14440943Y-15860174D01*
X14440943Y-15860174D02*
X14450467Y-15822079D01*
X14450467Y-15822079D02*
X14459991Y-15803031D01*
X14459991Y-15803031D02*
X14469515Y-15793508D01*
X14469515Y-15793508D02*
X14488562Y-15783984D01*
X14679039Y-15783984D02*
X14698086Y-15783984D01*
X14698086Y-15783984D02*
X14717134Y-15793508D01*
X14717134Y-15793508D02*
X14726658Y-15803031D01*
X14726658Y-15803031D02*
X14736182Y-15822079D01*
X14736182Y-15822079D02*
X14745705Y-15860174D01*
X14745705Y-15860174D02*
X14745705Y-15907793D01*
X14745705Y-15907793D02*
X14736182Y-15945888D01*
X14736182Y-15945888D02*
X14726658Y-15964936D01*
X14726658Y-15964936D02*
X14717134Y-15974460D01*
X14717134Y-15974460D02*
X14698086Y-15983984D01*
X14698086Y-15983984D02*
X14679039Y-15983984D01*
X14679039Y-15983984D02*
X14659991Y-15974460D01*
X14659991Y-15974460D02*
X14650467Y-15964936D01*
X14650467Y-15964936D02*
X14640943Y-15945888D01*
X14640943Y-15945888D02*
X14631420Y-15907793D01*
X14631420Y-15907793D02*
X14631420Y-15860174D01*
X14631420Y-15860174D02*
X14640943Y-15822079D01*
X14640943Y-15822079D02*
X14650467Y-15803031D01*
X14650467Y-15803031D02*
X14659991Y-15793508D01*
X14659991Y-15793508D02*
X14679039Y-15783984D01*
X14831420Y-15983984D02*
X14831420Y-15850650D01*
X14831420Y-15869698D02*
X14840943Y-15860174D01*
X14840943Y-15860174D02*
X14859991Y-15850650D01*
X14859991Y-15850650D02*
X14888563Y-15850650D01*
X14888563Y-15850650D02*
X14907610Y-15860174D01*
X14907610Y-15860174D02*
X14917134Y-15879222D01*
X14917134Y-15879222D02*
X14917134Y-15983984D01*
X14917134Y-15879222D02*
X14926658Y-15860174D01*
X14926658Y-15860174D02*
X14945705Y-15850650D01*
X14945705Y-15850650D02*
X14974277Y-15850650D01*
X14974277Y-15850650D02*
X14993324Y-15860174D01*
X14993324Y-15860174D02*
X15002848Y-15879222D01*
X15002848Y-15879222D02*
X15002848Y-15983984D01*
X15098086Y-15983984D02*
X15098086Y-15850650D01*
X15098086Y-15869698D02*
X15107610Y-15860174D01*
X15107610Y-15860174D02*
X15126658Y-15850650D01*
X15126658Y-15850650D02*
X15155229Y-15850650D01*
X15155229Y-15850650D02*
X15174277Y-15860174D01*
X15174277Y-15860174D02*
X15183801Y-15879222D01*
X15183801Y-15879222D02*
X15183801Y-15983984D01*
X15183801Y-15879222D02*
X15193324Y-15860174D01*
X15193324Y-15860174D02*
X15212372Y-15850650D01*
X15212372Y-15850650D02*
X15240943Y-15850650D01*
X15240943Y-15850650D02*
X15259991Y-15860174D01*
X15259991Y-15860174D02*
X15269515Y-15879222D01*
X15269515Y-15879222D02*
X15269515Y-15983984D01*
X15659991Y-15774460D02*
X15488563Y-16031603D01*
X15917134Y-15783984D02*
X15936182Y-15783984D01*
X15936182Y-15783984D02*
X15955229Y-15793508D01*
X15955229Y-15793508D02*
X15964753Y-15803031D01*
X15964753Y-15803031D02*
X15974277Y-15822079D01*
X15974277Y-15822079D02*
X15983801Y-15860174D01*
X15983801Y-15860174D02*
X15983801Y-15907793D01*
X15983801Y-15907793D02*
X15974277Y-15945888D01*
X15974277Y-15945888D02*
X15964753Y-15964936D01*
X15964753Y-15964936D02*
X15955229Y-15974460D01*
X15955229Y-15974460D02*
X15936182Y-15983984D01*
X15936182Y-15983984D02*
X15917134Y-15983984D01*
X15917134Y-15983984D02*
X15898086Y-15974460D01*
X15898086Y-15974460D02*
X15888563Y-15964936D01*
X15888563Y-15964936D02*
X15879039Y-15945888D01*
X15879039Y-15945888D02*
X15869515Y-15907793D01*
X15869515Y-15907793D02*
X15869515Y-15860174D01*
X15869515Y-15860174D02*
X15879039Y-15822079D01*
X15879039Y-15822079D02*
X15888563Y-15803031D01*
X15888563Y-15803031D02*
X15898086Y-15793508D01*
X15898086Y-15793508D02*
X15917134Y-15783984D01*
X16069515Y-15964936D02*
X16079039Y-15974460D01*
X16079039Y-15974460D02*
X16069515Y-15983984D01*
X16069515Y-15983984D02*
X16059991Y-15974460D01*
X16059991Y-15974460D02*
X16069515Y-15964936D01*
X16069515Y-15964936D02*
X16069515Y-15983984D01*
X16202848Y-15783984D02*
X16221896Y-15783984D01*
X16221896Y-15783984D02*
X16240944Y-15793508D01*
X16240944Y-15793508D02*
X16250467Y-15803031D01*
X16250467Y-15803031D02*
X16259991Y-15822079D01*
X16259991Y-15822079D02*
X16269515Y-15860174D01*
X16269515Y-15860174D02*
X16269515Y-15907793D01*
X16269515Y-15907793D02*
X16259991Y-15945888D01*
X16259991Y-15945888D02*
X16250467Y-15964936D01*
X16250467Y-15964936D02*
X16240944Y-15974460D01*
X16240944Y-15974460D02*
X16221896Y-15983984D01*
X16221896Y-15983984D02*
X16202848Y-15983984D01*
X16202848Y-15983984D02*
X16183801Y-15974460D01*
X16183801Y-15974460D02*
X16174277Y-15964936D01*
X16174277Y-15964936D02*
X16164753Y-15945888D01*
X16164753Y-15945888D02*
X16155229Y-15907793D01*
X16155229Y-15907793D02*
X16155229Y-15860174D01*
X16155229Y-15860174D02*
X16164753Y-15822079D01*
X16164753Y-15822079D02*
X16174277Y-15803031D01*
X16174277Y-15803031D02*
X16183801Y-15793508D01*
X16183801Y-15793508D02*
X16202848Y-15783984D01*
X16345706Y-15803031D02*
X16355229Y-15793508D01*
X16355229Y-15793508D02*
X16374277Y-15783984D01*
X16374277Y-15783984D02*
X16421896Y-15783984D01*
X16421896Y-15783984D02*
X16440944Y-15793508D01*
X16440944Y-15793508D02*
X16450467Y-15803031D01*
X16450467Y-15803031D02*
X16459991Y-15822079D01*
X16459991Y-15822079D02*
X16459991Y-15841127D01*
X16459991Y-15841127D02*
X16450467Y-15869698D01*
X16450467Y-15869698D02*
X16336182Y-15983984D01*
X16336182Y-15983984D02*
X16459991Y-15983984D01*
X16526658Y-15783984D02*
X16650467Y-15783984D01*
X16650467Y-15783984D02*
X16583801Y-15860174D01*
X16583801Y-15860174D02*
X16612372Y-15860174D01*
X16612372Y-15860174D02*
X16631420Y-15869698D01*
X16631420Y-15869698D02*
X16640944Y-15879222D01*
X16640944Y-15879222D02*
X16650467Y-15898269D01*
X16650467Y-15898269D02*
X16650467Y-15945888D01*
X16650467Y-15945888D02*
X16640944Y-15964936D01*
X16640944Y-15964936D02*
X16631420Y-15974460D01*
X16631420Y-15974460D02*
X16612372Y-15983984D01*
X16612372Y-15983984D02*
X16555229Y-15983984D01*
X16555229Y-15983984D02*
X16536182Y-15974460D01*
X16536182Y-15974460D02*
X16526658Y-15964936D01*
X16821896Y-15783984D02*
X16783801Y-15783984D01*
X16783801Y-15783984D02*
X16764753Y-15793508D01*
X16764753Y-15793508D02*
X16755229Y-15803031D01*
X16755229Y-15803031D02*
X16736182Y-15831603D01*
X16736182Y-15831603D02*
X16726658Y-15869698D01*
X16726658Y-15869698D02*
X16726658Y-15945888D01*
X16726658Y-15945888D02*
X16736182Y-15964936D01*
X16736182Y-15964936D02*
X16745706Y-15974460D01*
X16745706Y-15974460D02*
X16764753Y-15983984D01*
X16764753Y-15983984D02*
X16802849Y-15983984D01*
X16802849Y-15983984D02*
X16821896Y-15974460D01*
X16821896Y-15974460D02*
X16831420Y-15964936D01*
X16831420Y-15964936D02*
X16840944Y-15945888D01*
X16840944Y-15945888D02*
X16840944Y-15898269D01*
X16840944Y-15898269D02*
X16831420Y-15879222D01*
X16831420Y-15879222D02*
X16821896Y-15869698D01*
X16821896Y-15869698D02*
X16802849Y-15860174D01*
X16802849Y-15860174D02*
X16764753Y-15860174D01*
X16764753Y-15860174D02*
X16745706Y-15869698D01*
X16745706Y-15869698D02*
X16736182Y-15879222D01*
X16736182Y-15879222D02*
X16726658Y-15898269D01*
X16917134Y-15783984D02*
X16917134Y-15822079D01*
X16993325Y-15783984D02*
X16993325Y-15822079D01*
X17288563Y-16060174D02*
X17279039Y-16050650D01*
X17279039Y-16050650D02*
X17259991Y-16022079D01*
X17259991Y-16022079D02*
X17250468Y-16003031D01*
X17250468Y-16003031D02*
X17240944Y-15974460D01*
X17240944Y-15974460D02*
X17231420Y-15926841D01*
X17231420Y-15926841D02*
X17231420Y-15888746D01*
X17231420Y-15888746D02*
X17240944Y-15841127D01*
X17240944Y-15841127D02*
X17250468Y-15812555D01*
X17250468Y-15812555D02*
X17259991Y-15793508D01*
X17259991Y-15793508D02*
X17279039Y-15764936D01*
X17279039Y-15764936D02*
X17288563Y-15755412D01*
X17355230Y-15803031D02*
X17364753Y-15793508D01*
X17364753Y-15793508D02*
X17383801Y-15783984D01*
X17383801Y-15783984D02*
X17431420Y-15783984D01*
X17431420Y-15783984D02*
X17450468Y-15793508D01*
X17450468Y-15793508D02*
X17459991Y-15803031D01*
X17459991Y-15803031D02*
X17469515Y-15822079D01*
X17469515Y-15822079D02*
X17469515Y-15841127D01*
X17469515Y-15841127D02*
X17459991Y-15869698D01*
X17459991Y-15869698D02*
X17345706Y-15983984D01*
X17345706Y-15983984D02*
X17469515Y-15983984D01*
X17707611Y-15983984D02*
X17707611Y-15783984D01*
X17793325Y-15983984D02*
X17793325Y-15879222D01*
X17793325Y-15879222D02*
X17783801Y-15860174D01*
X17783801Y-15860174D02*
X17764753Y-15850650D01*
X17764753Y-15850650D02*
X17736182Y-15850650D01*
X17736182Y-15850650D02*
X17717134Y-15860174D01*
X17717134Y-15860174D02*
X17707611Y-15869698D01*
X17917134Y-15983984D02*
X17898087Y-15974460D01*
X17898087Y-15974460D02*
X17888563Y-15964936D01*
X17888563Y-15964936D02*
X17879039Y-15945888D01*
X17879039Y-15945888D02*
X17879039Y-15888746D01*
X17879039Y-15888746D02*
X17888563Y-15869698D01*
X17888563Y-15869698D02*
X17898087Y-15860174D01*
X17898087Y-15860174D02*
X17917134Y-15850650D01*
X17917134Y-15850650D02*
X17945706Y-15850650D01*
X17945706Y-15850650D02*
X17964753Y-15860174D01*
X17964753Y-15860174D02*
X17974277Y-15869698D01*
X17974277Y-15869698D02*
X17983801Y-15888746D01*
X17983801Y-15888746D02*
X17983801Y-15945888D01*
X17983801Y-15945888D02*
X17974277Y-15964936D01*
X17974277Y-15964936D02*
X17964753Y-15974460D01*
X17964753Y-15974460D02*
X17945706Y-15983984D01*
X17945706Y-15983984D02*
X17917134Y-15983984D01*
X18098087Y-15983984D02*
X18079039Y-15974460D01*
X18079039Y-15974460D02*
X18069515Y-15955412D01*
X18069515Y-15955412D02*
X18069515Y-15783984D01*
X18250468Y-15974460D02*
X18231420Y-15983984D01*
X18231420Y-15983984D02*
X18193325Y-15983984D01*
X18193325Y-15983984D02*
X18174277Y-15974460D01*
X18174277Y-15974460D02*
X18164753Y-15955412D01*
X18164753Y-15955412D02*
X18164753Y-15879222D01*
X18164753Y-15879222D02*
X18174277Y-15860174D01*
X18174277Y-15860174D02*
X18193325Y-15850650D01*
X18193325Y-15850650D02*
X18231420Y-15850650D01*
X18231420Y-15850650D02*
X18250468Y-15860174D01*
X18250468Y-15860174D02*
X18259992Y-15879222D01*
X18259992Y-15879222D02*
X18259992Y-15898269D01*
X18259992Y-15898269D02*
X18164753Y-15917317D01*
X18336182Y-15974460D02*
X18355230Y-15983984D01*
X18355230Y-15983984D02*
X18393325Y-15983984D01*
X18393325Y-15983984D02*
X18412373Y-15974460D01*
X18412373Y-15974460D02*
X18421896Y-15955412D01*
X18421896Y-15955412D02*
X18421896Y-15945888D01*
X18421896Y-15945888D02*
X18412373Y-15926841D01*
X18412373Y-15926841D02*
X18393325Y-15917317D01*
X18393325Y-15917317D02*
X18364753Y-15917317D01*
X18364753Y-15917317D02*
X18345706Y-15907793D01*
X18345706Y-15907793D02*
X18336182Y-15888746D01*
X18336182Y-15888746D02*
X18336182Y-15879222D01*
X18336182Y-15879222D02*
X18345706Y-15860174D01*
X18345706Y-15860174D02*
X18364753Y-15850650D01*
X18364753Y-15850650D02*
X18393325Y-15850650D01*
X18393325Y-15850650D02*
X18412373Y-15860174D01*
X18488563Y-16060174D02*
X18498087Y-16050650D01*
X18498087Y-16050650D02*
X18517134Y-16022079D01*
X18517134Y-16022079D02*
X18526658Y-16003031D01*
X18526658Y-16003031D02*
X18536182Y-15974460D01*
X18536182Y-15974460D02*
X18545706Y-15926841D01*
X18545706Y-15926841D02*
X18545706Y-15888746D01*
X18545706Y-15888746D02*
X18536182Y-15841127D01*
X18536182Y-15841127D02*
X18526658Y-15812555D01*
X18526658Y-15812555D02*
X18517134Y-15793508D01*
X18517134Y-15793508D02*
X18498087Y-15764936D01*
X18498087Y-15764936D02*
X18488563Y-15755412D01*
D12*
X13675400Y-16118400D02*
X13675400Y-16194600D01*
X13637300Y-16156500D02*
X13713500Y-16156500D01*
D11*
X14012372Y-16047984D02*
X14031420Y-16047984D01*
X14031420Y-16047984D02*
X14050467Y-16057508D01*
X14050467Y-16057508D02*
X14059991Y-16067031D01*
X14059991Y-16067031D02*
X14069515Y-16086079D01*
X14069515Y-16086079D02*
X14079039Y-16124174D01*
X14079039Y-16124174D02*
X14079039Y-16171793D01*
X14079039Y-16171793D02*
X14069515Y-16209888D01*
X14069515Y-16209888D02*
X14059991Y-16228936D01*
X14059991Y-16228936D02*
X14050467Y-16238460D01*
X14050467Y-16238460D02*
X14031420Y-16247984D01*
X14031420Y-16247984D02*
X14012372Y-16247984D01*
X14012372Y-16247984D02*
X13993324Y-16238460D01*
X13993324Y-16238460D02*
X13983801Y-16228936D01*
X13983801Y-16228936D02*
X13974277Y-16209888D01*
X13974277Y-16209888D02*
X13964753Y-16171793D01*
X13964753Y-16171793D02*
X13964753Y-16124174D01*
X13964753Y-16124174D02*
X13974277Y-16086079D01*
X13974277Y-16086079D02*
X13983801Y-16067031D01*
X13983801Y-16067031D02*
X13993324Y-16057508D01*
X13993324Y-16057508D02*
X14012372Y-16047984D01*
X14164753Y-16228936D02*
X14174277Y-16238460D01*
X14174277Y-16238460D02*
X14164753Y-16247984D01*
X14164753Y-16247984D02*
X14155229Y-16238460D01*
X14155229Y-16238460D02*
X14164753Y-16228936D01*
X14164753Y-16228936D02*
X14164753Y-16247984D01*
X14240943Y-16047984D02*
X14374277Y-16047984D01*
X14374277Y-16047984D02*
X14288562Y-16247984D01*
X14536182Y-16047984D02*
X14498086Y-16047984D01*
X14498086Y-16047984D02*
X14479039Y-16057508D01*
X14479039Y-16057508D02*
X14469515Y-16067031D01*
X14469515Y-16067031D02*
X14450467Y-16095603D01*
X14450467Y-16095603D02*
X14440943Y-16133698D01*
X14440943Y-16133698D02*
X14440943Y-16209888D01*
X14440943Y-16209888D02*
X14450467Y-16228936D01*
X14450467Y-16228936D02*
X14459991Y-16238460D01*
X14459991Y-16238460D02*
X14479039Y-16247984D01*
X14479039Y-16247984D02*
X14517134Y-16247984D01*
X14517134Y-16247984D02*
X14536182Y-16238460D01*
X14536182Y-16238460D02*
X14545705Y-16228936D01*
X14545705Y-16228936D02*
X14555229Y-16209888D01*
X14555229Y-16209888D02*
X14555229Y-16162269D01*
X14555229Y-16162269D02*
X14545705Y-16143222D01*
X14545705Y-16143222D02*
X14536182Y-16133698D01*
X14536182Y-16133698D02*
X14517134Y-16124174D01*
X14517134Y-16124174D02*
X14479039Y-16124174D01*
X14479039Y-16124174D02*
X14459991Y-16133698D01*
X14459991Y-16133698D02*
X14450467Y-16143222D01*
X14450467Y-16143222D02*
X14440943Y-16162269D01*
X14631420Y-16067031D02*
X14640943Y-16057508D01*
X14640943Y-16057508D02*
X14659991Y-16047984D01*
X14659991Y-16047984D02*
X14707610Y-16047984D01*
X14707610Y-16047984D02*
X14726658Y-16057508D01*
X14726658Y-16057508D02*
X14736182Y-16067031D01*
X14736182Y-16067031D02*
X14745705Y-16086079D01*
X14745705Y-16086079D02*
X14745705Y-16105127D01*
X14745705Y-16105127D02*
X14736182Y-16133698D01*
X14736182Y-16133698D02*
X14621896Y-16247984D01*
X14621896Y-16247984D02*
X14745705Y-16247984D01*
X14831420Y-16247984D02*
X14831420Y-16114650D01*
X14831420Y-16133698D02*
X14840943Y-16124174D01*
X14840943Y-16124174D02*
X14859991Y-16114650D01*
X14859991Y-16114650D02*
X14888563Y-16114650D01*
X14888563Y-16114650D02*
X14907610Y-16124174D01*
X14907610Y-16124174D02*
X14917134Y-16143222D01*
X14917134Y-16143222D02*
X14917134Y-16247984D01*
X14917134Y-16143222D02*
X14926658Y-16124174D01*
X14926658Y-16124174D02*
X14945705Y-16114650D01*
X14945705Y-16114650D02*
X14974277Y-16114650D01*
X14974277Y-16114650D02*
X14993324Y-16124174D01*
X14993324Y-16124174D02*
X15002848Y-16143222D01*
X15002848Y-16143222D02*
X15002848Y-16247984D01*
X15098086Y-16247984D02*
X15098086Y-16114650D01*
X15098086Y-16133698D02*
X15107610Y-16124174D01*
X15107610Y-16124174D02*
X15126658Y-16114650D01*
X15126658Y-16114650D02*
X15155229Y-16114650D01*
X15155229Y-16114650D02*
X15174277Y-16124174D01*
X15174277Y-16124174D02*
X15183801Y-16143222D01*
X15183801Y-16143222D02*
X15183801Y-16247984D01*
X15183801Y-16143222D02*
X15193324Y-16124174D01*
X15193324Y-16124174D02*
X15212372Y-16114650D01*
X15212372Y-16114650D02*
X15240943Y-16114650D01*
X15240943Y-16114650D02*
X15259991Y-16124174D01*
X15259991Y-16124174D02*
X15269515Y-16143222D01*
X15269515Y-16143222D02*
X15269515Y-16247984D01*
X15659991Y-16038460D02*
X15488563Y-16295603D01*
X15917134Y-16047984D02*
X15936182Y-16047984D01*
X15936182Y-16047984D02*
X15955229Y-16057508D01*
X15955229Y-16057508D02*
X15964753Y-16067031D01*
X15964753Y-16067031D02*
X15974277Y-16086079D01*
X15974277Y-16086079D02*
X15983801Y-16124174D01*
X15983801Y-16124174D02*
X15983801Y-16171793D01*
X15983801Y-16171793D02*
X15974277Y-16209888D01*
X15974277Y-16209888D02*
X15964753Y-16228936D01*
X15964753Y-16228936D02*
X15955229Y-16238460D01*
X15955229Y-16238460D02*
X15936182Y-16247984D01*
X15936182Y-16247984D02*
X15917134Y-16247984D01*
X15917134Y-16247984D02*
X15898086Y-16238460D01*
X15898086Y-16238460D02*
X15888563Y-16228936D01*
X15888563Y-16228936D02*
X15879039Y-16209888D01*
X15879039Y-16209888D02*
X15869515Y-16171793D01*
X15869515Y-16171793D02*
X15869515Y-16124174D01*
X15869515Y-16124174D02*
X15879039Y-16086079D01*
X15879039Y-16086079D02*
X15888563Y-16067031D01*
X15888563Y-16067031D02*
X15898086Y-16057508D01*
X15898086Y-16057508D02*
X15917134Y-16047984D01*
X16069515Y-16228936D02*
X16079039Y-16238460D01*
X16079039Y-16238460D02*
X16069515Y-16247984D01*
X16069515Y-16247984D02*
X16059991Y-16238460D01*
X16059991Y-16238460D02*
X16069515Y-16228936D01*
X16069515Y-16228936D02*
X16069515Y-16247984D01*
X16202848Y-16047984D02*
X16221896Y-16047984D01*
X16221896Y-16047984D02*
X16240944Y-16057508D01*
X16240944Y-16057508D02*
X16250467Y-16067031D01*
X16250467Y-16067031D02*
X16259991Y-16086079D01*
X16259991Y-16086079D02*
X16269515Y-16124174D01*
X16269515Y-16124174D02*
X16269515Y-16171793D01*
X16269515Y-16171793D02*
X16259991Y-16209888D01*
X16259991Y-16209888D02*
X16250467Y-16228936D01*
X16250467Y-16228936D02*
X16240944Y-16238460D01*
X16240944Y-16238460D02*
X16221896Y-16247984D01*
X16221896Y-16247984D02*
X16202848Y-16247984D01*
X16202848Y-16247984D02*
X16183801Y-16238460D01*
X16183801Y-16238460D02*
X16174277Y-16228936D01*
X16174277Y-16228936D02*
X16164753Y-16209888D01*
X16164753Y-16209888D02*
X16155229Y-16171793D01*
X16155229Y-16171793D02*
X16155229Y-16124174D01*
X16155229Y-16124174D02*
X16164753Y-16086079D01*
X16164753Y-16086079D02*
X16174277Y-16067031D01*
X16174277Y-16067031D02*
X16183801Y-16057508D01*
X16183801Y-16057508D02*
X16202848Y-16047984D01*
X16336182Y-16047984D02*
X16459991Y-16047984D01*
X16459991Y-16047984D02*
X16393325Y-16124174D01*
X16393325Y-16124174D02*
X16421896Y-16124174D01*
X16421896Y-16124174D02*
X16440944Y-16133698D01*
X16440944Y-16133698D02*
X16450467Y-16143222D01*
X16450467Y-16143222D02*
X16459991Y-16162269D01*
X16459991Y-16162269D02*
X16459991Y-16209888D01*
X16459991Y-16209888D02*
X16450467Y-16228936D01*
X16450467Y-16228936D02*
X16440944Y-16238460D01*
X16440944Y-16238460D02*
X16421896Y-16247984D01*
X16421896Y-16247984D02*
X16364753Y-16247984D01*
X16364753Y-16247984D02*
X16345706Y-16238460D01*
X16345706Y-16238460D02*
X16336182Y-16228936D01*
X16583801Y-16047984D02*
X16602848Y-16047984D01*
X16602848Y-16047984D02*
X16621896Y-16057508D01*
X16621896Y-16057508D02*
X16631420Y-16067031D01*
X16631420Y-16067031D02*
X16640944Y-16086079D01*
X16640944Y-16086079D02*
X16650467Y-16124174D01*
X16650467Y-16124174D02*
X16650467Y-16171793D01*
X16650467Y-16171793D02*
X16640944Y-16209888D01*
X16640944Y-16209888D02*
X16631420Y-16228936D01*
X16631420Y-16228936D02*
X16621896Y-16238460D01*
X16621896Y-16238460D02*
X16602848Y-16247984D01*
X16602848Y-16247984D02*
X16583801Y-16247984D01*
X16583801Y-16247984D02*
X16564753Y-16238460D01*
X16564753Y-16238460D02*
X16555229Y-16228936D01*
X16555229Y-16228936D02*
X16545706Y-16209888D01*
X16545706Y-16209888D02*
X16536182Y-16171793D01*
X16536182Y-16171793D02*
X16536182Y-16124174D01*
X16536182Y-16124174D02*
X16545706Y-16086079D01*
X16545706Y-16086079D02*
X16555229Y-16067031D01*
X16555229Y-16067031D02*
X16564753Y-16057508D01*
X16564753Y-16057508D02*
X16583801Y-16047984D01*
X16774277Y-16047984D02*
X16793325Y-16047984D01*
X16793325Y-16047984D02*
X16812372Y-16057508D01*
X16812372Y-16057508D02*
X16821896Y-16067031D01*
X16821896Y-16067031D02*
X16831420Y-16086079D01*
X16831420Y-16086079D02*
X16840944Y-16124174D01*
X16840944Y-16124174D02*
X16840944Y-16171793D01*
X16840944Y-16171793D02*
X16831420Y-16209888D01*
X16831420Y-16209888D02*
X16821896Y-16228936D01*
X16821896Y-16228936D02*
X16812372Y-16238460D01*
X16812372Y-16238460D02*
X16793325Y-16247984D01*
X16793325Y-16247984D02*
X16774277Y-16247984D01*
X16774277Y-16247984D02*
X16755229Y-16238460D01*
X16755229Y-16238460D02*
X16745706Y-16228936D01*
X16745706Y-16228936D02*
X16736182Y-16209888D01*
X16736182Y-16209888D02*
X16726658Y-16171793D01*
X16726658Y-16171793D02*
X16726658Y-16124174D01*
X16726658Y-16124174D02*
X16736182Y-16086079D01*
X16736182Y-16086079D02*
X16745706Y-16067031D01*
X16745706Y-16067031D02*
X16755229Y-16057508D01*
X16755229Y-16057508D02*
X16774277Y-16047984D01*
X16917134Y-16047984D02*
X16917134Y-16086079D01*
X16993325Y-16047984D02*
X16993325Y-16086079D01*
X17288563Y-16324174D02*
X17279039Y-16314650D01*
X17279039Y-16314650D02*
X17259991Y-16286079D01*
X17259991Y-16286079D02*
X17250468Y-16267031D01*
X17250468Y-16267031D02*
X17240944Y-16238460D01*
X17240944Y-16238460D02*
X17231420Y-16190841D01*
X17231420Y-16190841D02*
X17231420Y-16152746D01*
X17231420Y-16152746D02*
X17240944Y-16105127D01*
X17240944Y-16105127D02*
X17250468Y-16076555D01*
X17250468Y-16076555D02*
X17259991Y-16057508D01*
X17259991Y-16057508D02*
X17279039Y-16028936D01*
X17279039Y-16028936D02*
X17288563Y-16019412D01*
X17459991Y-16047984D02*
X17364753Y-16047984D01*
X17364753Y-16047984D02*
X17355230Y-16143222D01*
X17355230Y-16143222D02*
X17364753Y-16133698D01*
X17364753Y-16133698D02*
X17383801Y-16124174D01*
X17383801Y-16124174D02*
X17431420Y-16124174D01*
X17431420Y-16124174D02*
X17450468Y-16133698D01*
X17450468Y-16133698D02*
X17459991Y-16143222D01*
X17459991Y-16143222D02*
X17469515Y-16162269D01*
X17469515Y-16162269D02*
X17469515Y-16209888D01*
X17469515Y-16209888D02*
X17459991Y-16228936D01*
X17459991Y-16228936D02*
X17450468Y-16238460D01*
X17450468Y-16238460D02*
X17431420Y-16247984D01*
X17431420Y-16247984D02*
X17383801Y-16247984D01*
X17383801Y-16247984D02*
X17364753Y-16238460D01*
X17364753Y-16238460D02*
X17355230Y-16228936D01*
X17707611Y-16247984D02*
X17707611Y-16047984D01*
X17793325Y-16247984D02*
X17793325Y-16143222D01*
X17793325Y-16143222D02*
X17783801Y-16124174D01*
X17783801Y-16124174D02*
X17764753Y-16114650D01*
X17764753Y-16114650D02*
X17736182Y-16114650D01*
X17736182Y-16114650D02*
X17717134Y-16124174D01*
X17717134Y-16124174D02*
X17707611Y-16133698D01*
X17917134Y-16247984D02*
X17898087Y-16238460D01*
X17898087Y-16238460D02*
X17888563Y-16228936D01*
X17888563Y-16228936D02*
X17879039Y-16209888D01*
X17879039Y-16209888D02*
X17879039Y-16152746D01*
X17879039Y-16152746D02*
X17888563Y-16133698D01*
X17888563Y-16133698D02*
X17898087Y-16124174D01*
X17898087Y-16124174D02*
X17917134Y-16114650D01*
X17917134Y-16114650D02*
X17945706Y-16114650D01*
X17945706Y-16114650D02*
X17964753Y-16124174D01*
X17964753Y-16124174D02*
X17974277Y-16133698D01*
X17974277Y-16133698D02*
X17983801Y-16152746D01*
X17983801Y-16152746D02*
X17983801Y-16209888D01*
X17983801Y-16209888D02*
X17974277Y-16228936D01*
X17974277Y-16228936D02*
X17964753Y-16238460D01*
X17964753Y-16238460D02*
X17945706Y-16247984D01*
X17945706Y-16247984D02*
X17917134Y-16247984D01*
X18098087Y-16247984D02*
X18079039Y-16238460D01*
X18079039Y-16238460D02*
X18069515Y-16219412D01*
X18069515Y-16219412D02*
X18069515Y-16047984D01*
X18250468Y-16238460D02*
X18231420Y-16247984D01*
X18231420Y-16247984D02*
X18193325Y-16247984D01*
X18193325Y-16247984D02*
X18174277Y-16238460D01*
X18174277Y-16238460D02*
X18164753Y-16219412D01*
X18164753Y-16219412D02*
X18164753Y-16143222D01*
X18164753Y-16143222D02*
X18174277Y-16124174D01*
X18174277Y-16124174D02*
X18193325Y-16114650D01*
X18193325Y-16114650D02*
X18231420Y-16114650D01*
X18231420Y-16114650D02*
X18250468Y-16124174D01*
X18250468Y-16124174D02*
X18259992Y-16143222D01*
X18259992Y-16143222D02*
X18259992Y-16162269D01*
X18259992Y-16162269D02*
X18164753Y-16181317D01*
X18336182Y-16238460D02*
X18355230Y-16247984D01*
X18355230Y-16247984D02*
X18393325Y-16247984D01*
X18393325Y-16247984D02*
X18412373Y-16238460D01*
X18412373Y-16238460D02*
X18421896Y-16219412D01*
X18421896Y-16219412D02*
X18421896Y-16209888D01*
X18421896Y-16209888D02*
X18412373Y-16190841D01*
X18412373Y-16190841D02*
X18393325Y-16181317D01*
X18393325Y-16181317D02*
X18364753Y-16181317D01*
X18364753Y-16181317D02*
X18345706Y-16171793D01*
X18345706Y-16171793D02*
X18336182Y-16152746D01*
X18336182Y-16152746D02*
X18336182Y-16143222D01*
X18336182Y-16143222D02*
X18345706Y-16124174D01*
X18345706Y-16124174D02*
X18364753Y-16114650D01*
X18364753Y-16114650D02*
X18393325Y-16114650D01*
X18393325Y-16114650D02*
X18412373Y-16124174D01*
X18488563Y-16324174D02*
X18498087Y-16314650D01*
X18498087Y-16314650D02*
X18517134Y-16286079D01*
X18517134Y-16286079D02*
X18526658Y-16267031D01*
X18526658Y-16267031D02*
X18536182Y-16238460D01*
X18536182Y-16238460D02*
X18545706Y-16190841D01*
X18545706Y-16190841D02*
X18545706Y-16152746D01*
X18545706Y-16152746D02*
X18536182Y-16105127D01*
X18536182Y-16105127D02*
X18526658Y-16076555D01*
X18526658Y-16076555D02*
X18517134Y-16057508D01*
X18517134Y-16057508D02*
X18498087Y-16028936D01*
X18498087Y-16028936D02*
X18488563Y-16019412D01*
D12*
X13701784Y-16448784D02*
X13701784Y-16392215D01*
X13645215Y-16392215D01*
X13645215Y-16448784D01*
X13701784Y-16448784D01*
D11*
X14012372Y-16311984D02*
X14031420Y-16311984D01*
X14031420Y-16311984D02*
X14050467Y-16321508D01*
X14050467Y-16321508D02*
X14059991Y-16331031D01*
X14059991Y-16331031D02*
X14069515Y-16350079D01*
X14069515Y-16350079D02*
X14079039Y-16388174D01*
X14079039Y-16388174D02*
X14079039Y-16435793D01*
X14079039Y-16435793D02*
X14069515Y-16473888D01*
X14069515Y-16473888D02*
X14059991Y-16492936D01*
X14059991Y-16492936D02*
X14050467Y-16502460D01*
X14050467Y-16502460D02*
X14031420Y-16511984D01*
X14031420Y-16511984D02*
X14012372Y-16511984D01*
X14012372Y-16511984D02*
X13993324Y-16502460D01*
X13993324Y-16502460D02*
X13983801Y-16492936D01*
X13983801Y-16492936D02*
X13974277Y-16473888D01*
X13974277Y-16473888D02*
X13964753Y-16435793D01*
X13964753Y-16435793D02*
X13964753Y-16388174D01*
X13964753Y-16388174D02*
X13974277Y-16350079D01*
X13974277Y-16350079D02*
X13983801Y-16331031D01*
X13983801Y-16331031D02*
X13993324Y-16321508D01*
X13993324Y-16321508D02*
X14012372Y-16311984D01*
X14164753Y-16492936D02*
X14174277Y-16502460D01*
X14174277Y-16502460D02*
X14164753Y-16511984D01*
X14164753Y-16511984D02*
X14155229Y-16502460D01*
X14155229Y-16502460D02*
X14164753Y-16492936D01*
X14164753Y-16492936D02*
X14164753Y-16511984D01*
X14288562Y-16397698D02*
X14269515Y-16388174D01*
X14269515Y-16388174D02*
X14259991Y-16378650D01*
X14259991Y-16378650D02*
X14250467Y-16359603D01*
X14250467Y-16359603D02*
X14250467Y-16350079D01*
X14250467Y-16350079D02*
X14259991Y-16331031D01*
X14259991Y-16331031D02*
X14269515Y-16321508D01*
X14269515Y-16321508D02*
X14288562Y-16311984D01*
X14288562Y-16311984D02*
X14326658Y-16311984D01*
X14326658Y-16311984D02*
X14345705Y-16321508D01*
X14345705Y-16321508D02*
X14355229Y-16331031D01*
X14355229Y-16331031D02*
X14364753Y-16350079D01*
X14364753Y-16350079D02*
X14364753Y-16359603D01*
X14364753Y-16359603D02*
X14355229Y-16378650D01*
X14355229Y-16378650D02*
X14345705Y-16388174D01*
X14345705Y-16388174D02*
X14326658Y-16397698D01*
X14326658Y-16397698D02*
X14288562Y-16397698D01*
X14288562Y-16397698D02*
X14269515Y-16407222D01*
X14269515Y-16407222D02*
X14259991Y-16416746D01*
X14259991Y-16416746D02*
X14250467Y-16435793D01*
X14250467Y-16435793D02*
X14250467Y-16473888D01*
X14250467Y-16473888D02*
X14259991Y-16492936D01*
X14259991Y-16492936D02*
X14269515Y-16502460D01*
X14269515Y-16502460D02*
X14288562Y-16511984D01*
X14288562Y-16511984D02*
X14326658Y-16511984D01*
X14326658Y-16511984D02*
X14345705Y-16502460D01*
X14345705Y-16502460D02*
X14355229Y-16492936D01*
X14355229Y-16492936D02*
X14364753Y-16473888D01*
X14364753Y-16473888D02*
X14364753Y-16435793D01*
X14364753Y-16435793D02*
X14355229Y-16416746D01*
X14355229Y-16416746D02*
X14345705Y-16407222D01*
X14345705Y-16407222D02*
X14326658Y-16397698D01*
X14488562Y-16311984D02*
X14507610Y-16311984D01*
X14507610Y-16311984D02*
X14526658Y-16321508D01*
X14526658Y-16321508D02*
X14536182Y-16331031D01*
X14536182Y-16331031D02*
X14545705Y-16350079D01*
X14545705Y-16350079D02*
X14555229Y-16388174D01*
X14555229Y-16388174D02*
X14555229Y-16435793D01*
X14555229Y-16435793D02*
X14545705Y-16473888D01*
X14545705Y-16473888D02*
X14536182Y-16492936D01*
X14536182Y-16492936D02*
X14526658Y-16502460D01*
X14526658Y-16502460D02*
X14507610Y-16511984D01*
X14507610Y-16511984D02*
X14488562Y-16511984D01*
X14488562Y-16511984D02*
X14469515Y-16502460D01*
X14469515Y-16502460D02*
X14459991Y-16492936D01*
X14459991Y-16492936D02*
X14450467Y-16473888D01*
X14450467Y-16473888D02*
X14440943Y-16435793D01*
X14440943Y-16435793D02*
X14440943Y-16388174D01*
X14440943Y-16388174D02*
X14450467Y-16350079D01*
X14450467Y-16350079D02*
X14459991Y-16331031D01*
X14459991Y-16331031D02*
X14469515Y-16321508D01*
X14469515Y-16321508D02*
X14488562Y-16311984D01*
X14679039Y-16311984D02*
X14698086Y-16311984D01*
X14698086Y-16311984D02*
X14717134Y-16321508D01*
X14717134Y-16321508D02*
X14726658Y-16331031D01*
X14726658Y-16331031D02*
X14736182Y-16350079D01*
X14736182Y-16350079D02*
X14745705Y-16388174D01*
X14745705Y-16388174D02*
X14745705Y-16435793D01*
X14745705Y-16435793D02*
X14736182Y-16473888D01*
X14736182Y-16473888D02*
X14726658Y-16492936D01*
X14726658Y-16492936D02*
X14717134Y-16502460D01*
X14717134Y-16502460D02*
X14698086Y-16511984D01*
X14698086Y-16511984D02*
X14679039Y-16511984D01*
X14679039Y-16511984D02*
X14659991Y-16502460D01*
X14659991Y-16502460D02*
X14650467Y-16492936D01*
X14650467Y-16492936D02*
X14640943Y-16473888D01*
X14640943Y-16473888D02*
X14631420Y-16435793D01*
X14631420Y-16435793D02*
X14631420Y-16388174D01*
X14631420Y-16388174D02*
X14640943Y-16350079D01*
X14640943Y-16350079D02*
X14650467Y-16331031D01*
X14650467Y-16331031D02*
X14659991Y-16321508D01*
X14659991Y-16321508D02*
X14679039Y-16311984D01*
X14831420Y-16511984D02*
X14831420Y-16378650D01*
X14831420Y-16397698D02*
X14840943Y-16388174D01*
X14840943Y-16388174D02*
X14859991Y-16378650D01*
X14859991Y-16378650D02*
X14888563Y-16378650D01*
X14888563Y-16378650D02*
X14907610Y-16388174D01*
X14907610Y-16388174D02*
X14917134Y-16407222D01*
X14917134Y-16407222D02*
X14917134Y-16511984D01*
X14917134Y-16407222D02*
X14926658Y-16388174D01*
X14926658Y-16388174D02*
X14945705Y-16378650D01*
X14945705Y-16378650D02*
X14974277Y-16378650D01*
X14974277Y-16378650D02*
X14993324Y-16388174D01*
X14993324Y-16388174D02*
X15002848Y-16407222D01*
X15002848Y-16407222D02*
X15002848Y-16511984D01*
X15098086Y-16511984D02*
X15098086Y-16378650D01*
X15098086Y-16397698D02*
X15107610Y-16388174D01*
X15107610Y-16388174D02*
X15126658Y-16378650D01*
X15126658Y-16378650D02*
X15155229Y-16378650D01*
X15155229Y-16378650D02*
X15174277Y-16388174D01*
X15174277Y-16388174D02*
X15183801Y-16407222D01*
X15183801Y-16407222D02*
X15183801Y-16511984D01*
X15183801Y-16407222D02*
X15193324Y-16388174D01*
X15193324Y-16388174D02*
X15212372Y-16378650D01*
X15212372Y-16378650D02*
X15240943Y-16378650D01*
X15240943Y-16378650D02*
X15259991Y-16388174D01*
X15259991Y-16388174D02*
X15269515Y-16407222D01*
X15269515Y-16407222D02*
X15269515Y-16511984D01*
X15659991Y-16302460D02*
X15488563Y-16559603D01*
X15917134Y-16311984D02*
X15936182Y-16311984D01*
X15936182Y-16311984D02*
X15955229Y-16321508D01*
X15955229Y-16321508D02*
X15964753Y-16331031D01*
X15964753Y-16331031D02*
X15974277Y-16350079D01*
X15974277Y-16350079D02*
X15983801Y-16388174D01*
X15983801Y-16388174D02*
X15983801Y-16435793D01*
X15983801Y-16435793D02*
X15974277Y-16473888D01*
X15974277Y-16473888D02*
X15964753Y-16492936D01*
X15964753Y-16492936D02*
X15955229Y-16502460D01*
X15955229Y-16502460D02*
X15936182Y-16511984D01*
X15936182Y-16511984D02*
X15917134Y-16511984D01*
X15917134Y-16511984D02*
X15898086Y-16502460D01*
X15898086Y-16502460D02*
X15888563Y-16492936D01*
X15888563Y-16492936D02*
X15879039Y-16473888D01*
X15879039Y-16473888D02*
X15869515Y-16435793D01*
X15869515Y-16435793D02*
X15869515Y-16388174D01*
X15869515Y-16388174D02*
X15879039Y-16350079D01*
X15879039Y-16350079D02*
X15888563Y-16331031D01*
X15888563Y-16331031D02*
X15898086Y-16321508D01*
X15898086Y-16321508D02*
X15917134Y-16311984D01*
X16069515Y-16492936D02*
X16079039Y-16502460D01*
X16079039Y-16502460D02*
X16069515Y-16511984D01*
X16069515Y-16511984D02*
X16059991Y-16502460D01*
X16059991Y-16502460D02*
X16069515Y-16492936D01*
X16069515Y-16492936D02*
X16069515Y-16511984D01*
X16202848Y-16311984D02*
X16221896Y-16311984D01*
X16221896Y-16311984D02*
X16240944Y-16321508D01*
X16240944Y-16321508D02*
X16250467Y-16331031D01*
X16250467Y-16331031D02*
X16259991Y-16350079D01*
X16259991Y-16350079D02*
X16269515Y-16388174D01*
X16269515Y-16388174D02*
X16269515Y-16435793D01*
X16269515Y-16435793D02*
X16259991Y-16473888D01*
X16259991Y-16473888D02*
X16250467Y-16492936D01*
X16250467Y-16492936D02*
X16240944Y-16502460D01*
X16240944Y-16502460D02*
X16221896Y-16511984D01*
X16221896Y-16511984D02*
X16202848Y-16511984D01*
X16202848Y-16511984D02*
X16183801Y-16502460D01*
X16183801Y-16502460D02*
X16174277Y-16492936D01*
X16174277Y-16492936D02*
X16164753Y-16473888D01*
X16164753Y-16473888D02*
X16155229Y-16435793D01*
X16155229Y-16435793D02*
X16155229Y-16388174D01*
X16155229Y-16388174D02*
X16164753Y-16350079D01*
X16164753Y-16350079D02*
X16174277Y-16331031D01*
X16174277Y-16331031D02*
X16183801Y-16321508D01*
X16183801Y-16321508D02*
X16202848Y-16311984D01*
X16336182Y-16311984D02*
X16459991Y-16311984D01*
X16459991Y-16311984D02*
X16393325Y-16388174D01*
X16393325Y-16388174D02*
X16421896Y-16388174D01*
X16421896Y-16388174D02*
X16440944Y-16397698D01*
X16440944Y-16397698D02*
X16450467Y-16407222D01*
X16450467Y-16407222D02*
X16459991Y-16426269D01*
X16459991Y-16426269D02*
X16459991Y-16473888D01*
X16459991Y-16473888D02*
X16450467Y-16492936D01*
X16450467Y-16492936D02*
X16440944Y-16502460D01*
X16440944Y-16502460D02*
X16421896Y-16511984D01*
X16421896Y-16511984D02*
X16364753Y-16511984D01*
X16364753Y-16511984D02*
X16345706Y-16502460D01*
X16345706Y-16502460D02*
X16336182Y-16492936D01*
X16650467Y-16511984D02*
X16536182Y-16511984D01*
X16593325Y-16511984D02*
X16593325Y-16311984D01*
X16593325Y-16311984D02*
X16574277Y-16340555D01*
X16574277Y-16340555D02*
X16555229Y-16359603D01*
X16555229Y-16359603D02*
X16536182Y-16369127D01*
X16831420Y-16311984D02*
X16736182Y-16311984D01*
X16736182Y-16311984D02*
X16726658Y-16407222D01*
X16726658Y-16407222D02*
X16736182Y-16397698D01*
X16736182Y-16397698D02*
X16755229Y-16388174D01*
X16755229Y-16388174D02*
X16802849Y-16388174D01*
X16802849Y-16388174D02*
X16821896Y-16397698D01*
X16821896Y-16397698D02*
X16831420Y-16407222D01*
X16831420Y-16407222D02*
X16840944Y-16426269D01*
X16840944Y-16426269D02*
X16840944Y-16473888D01*
X16840944Y-16473888D02*
X16831420Y-16492936D01*
X16831420Y-16492936D02*
X16821896Y-16502460D01*
X16821896Y-16502460D02*
X16802849Y-16511984D01*
X16802849Y-16511984D02*
X16755229Y-16511984D01*
X16755229Y-16511984D02*
X16736182Y-16502460D01*
X16736182Y-16502460D02*
X16726658Y-16492936D01*
X16917134Y-16311984D02*
X16917134Y-16350079D01*
X16993325Y-16311984D02*
X16993325Y-16350079D01*
X17288563Y-16588174D02*
X17279039Y-16578650D01*
X17279039Y-16578650D02*
X17259991Y-16550079D01*
X17259991Y-16550079D02*
X17250468Y-16531031D01*
X17250468Y-16531031D02*
X17240944Y-16502460D01*
X17240944Y-16502460D02*
X17231420Y-16454841D01*
X17231420Y-16454841D02*
X17231420Y-16416746D01*
X17231420Y-16416746D02*
X17240944Y-16369127D01*
X17240944Y-16369127D02*
X17250468Y-16340555D01*
X17250468Y-16340555D02*
X17259991Y-16321508D01*
X17259991Y-16321508D02*
X17279039Y-16292936D01*
X17279039Y-16292936D02*
X17288563Y-16283412D01*
X17345706Y-16311984D02*
X17469515Y-16311984D01*
X17469515Y-16311984D02*
X17402849Y-16388174D01*
X17402849Y-16388174D02*
X17431420Y-16388174D01*
X17431420Y-16388174D02*
X17450468Y-16397698D01*
X17450468Y-16397698D02*
X17459991Y-16407222D01*
X17459991Y-16407222D02*
X17469515Y-16426269D01*
X17469515Y-16426269D02*
X17469515Y-16473888D01*
X17469515Y-16473888D02*
X17459991Y-16492936D01*
X17459991Y-16492936D02*
X17450468Y-16502460D01*
X17450468Y-16502460D02*
X17431420Y-16511984D01*
X17431420Y-16511984D02*
X17374277Y-16511984D01*
X17374277Y-16511984D02*
X17355230Y-16502460D01*
X17355230Y-16502460D02*
X17345706Y-16492936D01*
X17707611Y-16511984D02*
X17707611Y-16311984D01*
X17793325Y-16511984D02*
X17793325Y-16407222D01*
X17793325Y-16407222D02*
X17783801Y-16388174D01*
X17783801Y-16388174D02*
X17764753Y-16378650D01*
X17764753Y-16378650D02*
X17736182Y-16378650D01*
X17736182Y-16378650D02*
X17717134Y-16388174D01*
X17717134Y-16388174D02*
X17707611Y-16397698D01*
X17917134Y-16511984D02*
X17898087Y-16502460D01*
X17898087Y-16502460D02*
X17888563Y-16492936D01*
X17888563Y-16492936D02*
X17879039Y-16473888D01*
X17879039Y-16473888D02*
X17879039Y-16416746D01*
X17879039Y-16416746D02*
X17888563Y-16397698D01*
X17888563Y-16397698D02*
X17898087Y-16388174D01*
X17898087Y-16388174D02*
X17917134Y-16378650D01*
X17917134Y-16378650D02*
X17945706Y-16378650D01*
X17945706Y-16378650D02*
X17964753Y-16388174D01*
X17964753Y-16388174D02*
X17974277Y-16397698D01*
X17974277Y-16397698D02*
X17983801Y-16416746D01*
X17983801Y-16416746D02*
X17983801Y-16473888D01*
X17983801Y-16473888D02*
X17974277Y-16492936D01*
X17974277Y-16492936D02*
X17964753Y-16502460D01*
X17964753Y-16502460D02*
X17945706Y-16511984D01*
X17945706Y-16511984D02*
X17917134Y-16511984D01*
X18098087Y-16511984D02*
X18079039Y-16502460D01*
X18079039Y-16502460D02*
X18069515Y-16483412D01*
X18069515Y-16483412D02*
X18069515Y-16311984D01*
X18250468Y-16502460D02*
X18231420Y-16511984D01*
X18231420Y-16511984D02*
X18193325Y-16511984D01*
X18193325Y-16511984D02*
X18174277Y-16502460D01*
X18174277Y-16502460D02*
X18164753Y-16483412D01*
X18164753Y-16483412D02*
X18164753Y-16407222D01*
X18164753Y-16407222D02*
X18174277Y-16388174D01*
X18174277Y-16388174D02*
X18193325Y-16378650D01*
X18193325Y-16378650D02*
X18231420Y-16378650D01*
X18231420Y-16378650D02*
X18250468Y-16388174D01*
X18250468Y-16388174D02*
X18259992Y-16407222D01*
X18259992Y-16407222D02*
X18259992Y-16426269D01*
X18259992Y-16426269D02*
X18164753Y-16445317D01*
X18336182Y-16502460D02*
X18355230Y-16511984D01*
X18355230Y-16511984D02*
X18393325Y-16511984D01*
X18393325Y-16511984D02*
X18412373Y-16502460D01*
X18412373Y-16502460D02*
X18421896Y-16483412D01*
X18421896Y-16483412D02*
X18421896Y-16473888D01*
X18421896Y-16473888D02*
X18412373Y-16454841D01*
X18412373Y-16454841D02*
X18393325Y-16445317D01*
X18393325Y-16445317D02*
X18364753Y-16445317D01*
X18364753Y-16445317D02*
X18345706Y-16435793D01*
X18345706Y-16435793D02*
X18336182Y-16416746D01*
X18336182Y-16416746D02*
X18336182Y-16407222D01*
X18336182Y-16407222D02*
X18345706Y-16388174D01*
X18345706Y-16388174D02*
X18364753Y-16378650D01*
X18364753Y-16378650D02*
X18393325Y-16378650D01*
X18393325Y-16378650D02*
X18412373Y-16388174D01*
X18488563Y-16588174D02*
X18498087Y-16578650D01*
X18498087Y-16578650D02*
X18517134Y-16550079D01*
X18517134Y-16550079D02*
X18526658Y-16531031D01*
X18526658Y-16531031D02*
X18536182Y-16502460D01*
X18536182Y-16502460D02*
X18545706Y-16454841D01*
X18545706Y-16454841D02*
X18545706Y-16416746D01*
X18545706Y-16416746D02*
X18536182Y-16369127D01*
X18536182Y-16369127D02*
X18526658Y-16340555D01*
X18526658Y-16340555D02*
X18517134Y-16321508D01*
X18517134Y-16321508D02*
X18498087Y-16292936D01*
X18498087Y-16292936D02*
X18488563Y-16283412D01*
D12*
X13668500Y-16729500D02*
X13713500Y-16684500D01*
X13668500Y-16639500D01*
X13623500Y-16684500D01*
X13668500Y-16729500D01*
D11*
X14012372Y-16575984D02*
X14031420Y-16575984D01*
X14031420Y-16575984D02*
X14050467Y-16585508D01*
X14050467Y-16585508D02*
X14059991Y-16595031D01*
X14059991Y-16595031D02*
X14069515Y-16614079D01*
X14069515Y-16614079D02*
X14079039Y-16652174D01*
X14079039Y-16652174D02*
X14079039Y-16699793D01*
X14079039Y-16699793D02*
X14069515Y-16737888D01*
X14069515Y-16737888D02*
X14059991Y-16756936D01*
X14059991Y-16756936D02*
X14050467Y-16766460D01*
X14050467Y-16766460D02*
X14031420Y-16775984D01*
X14031420Y-16775984D02*
X14012372Y-16775984D01*
X14012372Y-16775984D02*
X13993324Y-16766460D01*
X13993324Y-16766460D02*
X13983801Y-16756936D01*
X13983801Y-16756936D02*
X13974277Y-16737888D01*
X13974277Y-16737888D02*
X13964753Y-16699793D01*
X13964753Y-16699793D02*
X13964753Y-16652174D01*
X13964753Y-16652174D02*
X13974277Y-16614079D01*
X13974277Y-16614079D02*
X13983801Y-16595031D01*
X13983801Y-16595031D02*
X13993324Y-16585508D01*
X13993324Y-16585508D02*
X14012372Y-16575984D01*
X14164753Y-16756936D02*
X14174277Y-16766460D01*
X14174277Y-16766460D02*
X14164753Y-16775984D01*
X14164753Y-16775984D02*
X14155229Y-16766460D01*
X14155229Y-16766460D02*
X14164753Y-16756936D01*
X14164753Y-16756936D02*
X14164753Y-16775984D01*
X14269515Y-16775984D02*
X14307610Y-16775984D01*
X14307610Y-16775984D02*
X14326658Y-16766460D01*
X14326658Y-16766460D02*
X14336182Y-16756936D01*
X14336182Y-16756936D02*
X14355229Y-16728365D01*
X14355229Y-16728365D02*
X14364753Y-16690269D01*
X14364753Y-16690269D02*
X14364753Y-16614079D01*
X14364753Y-16614079D02*
X14355229Y-16595031D01*
X14355229Y-16595031D02*
X14345705Y-16585508D01*
X14345705Y-16585508D02*
X14326658Y-16575984D01*
X14326658Y-16575984D02*
X14288562Y-16575984D01*
X14288562Y-16575984D02*
X14269515Y-16585508D01*
X14269515Y-16585508D02*
X14259991Y-16595031D01*
X14259991Y-16595031D02*
X14250467Y-16614079D01*
X14250467Y-16614079D02*
X14250467Y-16661698D01*
X14250467Y-16661698D02*
X14259991Y-16680746D01*
X14259991Y-16680746D02*
X14269515Y-16690269D01*
X14269515Y-16690269D02*
X14288562Y-16699793D01*
X14288562Y-16699793D02*
X14326658Y-16699793D01*
X14326658Y-16699793D02*
X14345705Y-16690269D01*
X14345705Y-16690269D02*
X14355229Y-16680746D01*
X14355229Y-16680746D02*
X14364753Y-16661698D01*
X14488562Y-16575984D02*
X14507610Y-16575984D01*
X14507610Y-16575984D02*
X14526658Y-16585508D01*
X14526658Y-16585508D02*
X14536182Y-16595031D01*
X14536182Y-16595031D02*
X14545705Y-16614079D01*
X14545705Y-16614079D02*
X14555229Y-16652174D01*
X14555229Y-16652174D02*
X14555229Y-16699793D01*
X14555229Y-16699793D02*
X14545705Y-16737888D01*
X14545705Y-16737888D02*
X14536182Y-16756936D01*
X14536182Y-16756936D02*
X14526658Y-16766460D01*
X14526658Y-16766460D02*
X14507610Y-16775984D01*
X14507610Y-16775984D02*
X14488562Y-16775984D01*
X14488562Y-16775984D02*
X14469515Y-16766460D01*
X14469515Y-16766460D02*
X14459991Y-16756936D01*
X14459991Y-16756936D02*
X14450467Y-16737888D01*
X14450467Y-16737888D02*
X14440943Y-16699793D01*
X14440943Y-16699793D02*
X14440943Y-16652174D01*
X14440943Y-16652174D02*
X14450467Y-16614079D01*
X14450467Y-16614079D02*
X14459991Y-16595031D01*
X14459991Y-16595031D02*
X14469515Y-16585508D01*
X14469515Y-16585508D02*
X14488562Y-16575984D01*
X14679039Y-16575984D02*
X14698086Y-16575984D01*
X14698086Y-16575984D02*
X14717134Y-16585508D01*
X14717134Y-16585508D02*
X14726658Y-16595031D01*
X14726658Y-16595031D02*
X14736182Y-16614079D01*
X14736182Y-16614079D02*
X14745705Y-16652174D01*
X14745705Y-16652174D02*
X14745705Y-16699793D01*
X14745705Y-16699793D02*
X14736182Y-16737888D01*
X14736182Y-16737888D02*
X14726658Y-16756936D01*
X14726658Y-16756936D02*
X14717134Y-16766460D01*
X14717134Y-16766460D02*
X14698086Y-16775984D01*
X14698086Y-16775984D02*
X14679039Y-16775984D01*
X14679039Y-16775984D02*
X14659991Y-16766460D01*
X14659991Y-16766460D02*
X14650467Y-16756936D01*
X14650467Y-16756936D02*
X14640943Y-16737888D01*
X14640943Y-16737888D02*
X14631420Y-16699793D01*
X14631420Y-16699793D02*
X14631420Y-16652174D01*
X14631420Y-16652174D02*
X14640943Y-16614079D01*
X14640943Y-16614079D02*
X14650467Y-16595031D01*
X14650467Y-16595031D02*
X14659991Y-16585508D01*
X14659991Y-16585508D02*
X14679039Y-16575984D01*
X14831420Y-16775984D02*
X14831420Y-16642650D01*
X14831420Y-16661698D02*
X14840943Y-16652174D01*
X14840943Y-16652174D02*
X14859991Y-16642650D01*
X14859991Y-16642650D02*
X14888563Y-16642650D01*
X14888563Y-16642650D02*
X14907610Y-16652174D01*
X14907610Y-16652174D02*
X14917134Y-16671222D01*
X14917134Y-16671222D02*
X14917134Y-16775984D01*
X14917134Y-16671222D02*
X14926658Y-16652174D01*
X14926658Y-16652174D02*
X14945705Y-16642650D01*
X14945705Y-16642650D02*
X14974277Y-16642650D01*
X14974277Y-16642650D02*
X14993324Y-16652174D01*
X14993324Y-16652174D02*
X15002848Y-16671222D01*
X15002848Y-16671222D02*
X15002848Y-16775984D01*
X15098086Y-16775984D02*
X15098086Y-16642650D01*
X15098086Y-16661698D02*
X15107610Y-16652174D01*
X15107610Y-16652174D02*
X15126658Y-16642650D01*
X15126658Y-16642650D02*
X15155229Y-16642650D01*
X15155229Y-16642650D02*
X15174277Y-16652174D01*
X15174277Y-16652174D02*
X15183801Y-16671222D01*
X15183801Y-16671222D02*
X15183801Y-16775984D01*
X15183801Y-16671222D02*
X15193324Y-16652174D01*
X15193324Y-16652174D02*
X15212372Y-16642650D01*
X15212372Y-16642650D02*
X15240943Y-16642650D01*
X15240943Y-16642650D02*
X15259991Y-16652174D01*
X15259991Y-16652174D02*
X15269515Y-16671222D01*
X15269515Y-16671222D02*
X15269515Y-16775984D01*
X15659991Y-16566460D02*
X15488563Y-16823603D01*
X15917134Y-16575984D02*
X15936182Y-16575984D01*
X15936182Y-16575984D02*
X15955229Y-16585508D01*
X15955229Y-16585508D02*
X15964753Y-16595031D01*
X15964753Y-16595031D02*
X15974277Y-16614079D01*
X15974277Y-16614079D02*
X15983801Y-16652174D01*
X15983801Y-16652174D02*
X15983801Y-16699793D01*
X15983801Y-16699793D02*
X15974277Y-16737888D01*
X15974277Y-16737888D02*
X15964753Y-16756936D01*
X15964753Y-16756936D02*
X15955229Y-16766460D01*
X15955229Y-16766460D02*
X15936182Y-16775984D01*
X15936182Y-16775984D02*
X15917134Y-16775984D01*
X15917134Y-16775984D02*
X15898086Y-16766460D01*
X15898086Y-16766460D02*
X15888563Y-16756936D01*
X15888563Y-16756936D02*
X15879039Y-16737888D01*
X15879039Y-16737888D02*
X15869515Y-16699793D01*
X15869515Y-16699793D02*
X15869515Y-16652174D01*
X15869515Y-16652174D02*
X15879039Y-16614079D01*
X15879039Y-16614079D02*
X15888563Y-16595031D01*
X15888563Y-16595031D02*
X15898086Y-16585508D01*
X15898086Y-16585508D02*
X15917134Y-16575984D01*
X16069515Y-16756936D02*
X16079039Y-16766460D01*
X16079039Y-16766460D02*
X16069515Y-16775984D01*
X16069515Y-16775984D02*
X16059991Y-16766460D01*
X16059991Y-16766460D02*
X16069515Y-16756936D01*
X16069515Y-16756936D02*
X16069515Y-16775984D01*
X16202848Y-16575984D02*
X16221896Y-16575984D01*
X16221896Y-16575984D02*
X16240944Y-16585508D01*
X16240944Y-16585508D02*
X16250467Y-16595031D01*
X16250467Y-16595031D02*
X16259991Y-16614079D01*
X16259991Y-16614079D02*
X16269515Y-16652174D01*
X16269515Y-16652174D02*
X16269515Y-16699793D01*
X16269515Y-16699793D02*
X16259991Y-16737888D01*
X16259991Y-16737888D02*
X16250467Y-16756936D01*
X16250467Y-16756936D02*
X16240944Y-16766460D01*
X16240944Y-16766460D02*
X16221896Y-16775984D01*
X16221896Y-16775984D02*
X16202848Y-16775984D01*
X16202848Y-16775984D02*
X16183801Y-16766460D01*
X16183801Y-16766460D02*
X16174277Y-16756936D01*
X16174277Y-16756936D02*
X16164753Y-16737888D01*
X16164753Y-16737888D02*
X16155229Y-16699793D01*
X16155229Y-16699793D02*
X16155229Y-16652174D01*
X16155229Y-16652174D02*
X16164753Y-16614079D01*
X16164753Y-16614079D02*
X16174277Y-16595031D01*
X16174277Y-16595031D02*
X16183801Y-16585508D01*
X16183801Y-16585508D02*
X16202848Y-16575984D01*
X16336182Y-16575984D02*
X16459991Y-16575984D01*
X16459991Y-16575984D02*
X16393325Y-16652174D01*
X16393325Y-16652174D02*
X16421896Y-16652174D01*
X16421896Y-16652174D02*
X16440944Y-16661698D01*
X16440944Y-16661698D02*
X16450467Y-16671222D01*
X16450467Y-16671222D02*
X16459991Y-16690269D01*
X16459991Y-16690269D02*
X16459991Y-16737888D01*
X16459991Y-16737888D02*
X16450467Y-16756936D01*
X16450467Y-16756936D02*
X16440944Y-16766460D01*
X16440944Y-16766460D02*
X16421896Y-16775984D01*
X16421896Y-16775984D02*
X16364753Y-16775984D01*
X16364753Y-16775984D02*
X16345706Y-16766460D01*
X16345706Y-16766460D02*
X16336182Y-16756936D01*
X16640944Y-16575984D02*
X16545706Y-16575984D01*
X16545706Y-16575984D02*
X16536182Y-16671222D01*
X16536182Y-16671222D02*
X16545706Y-16661698D01*
X16545706Y-16661698D02*
X16564753Y-16652174D01*
X16564753Y-16652174D02*
X16612372Y-16652174D01*
X16612372Y-16652174D02*
X16631420Y-16661698D01*
X16631420Y-16661698D02*
X16640944Y-16671222D01*
X16640944Y-16671222D02*
X16650467Y-16690269D01*
X16650467Y-16690269D02*
X16650467Y-16737888D01*
X16650467Y-16737888D02*
X16640944Y-16756936D01*
X16640944Y-16756936D02*
X16631420Y-16766460D01*
X16631420Y-16766460D02*
X16612372Y-16775984D01*
X16612372Y-16775984D02*
X16564753Y-16775984D01*
X16564753Y-16775984D02*
X16545706Y-16766460D01*
X16545706Y-16766460D02*
X16536182Y-16756936D01*
X16821896Y-16642650D02*
X16821896Y-16775984D01*
X16774277Y-16566460D02*
X16726658Y-16709317D01*
X16726658Y-16709317D02*
X16850468Y-16709317D01*
X16917134Y-16575984D02*
X16917134Y-16614079D01*
X16993325Y-16575984D02*
X16993325Y-16614079D01*
X17288563Y-16852174D02*
X17279039Y-16842650D01*
X17279039Y-16842650D02*
X17259991Y-16814079D01*
X17259991Y-16814079D02*
X17250468Y-16795031D01*
X17250468Y-16795031D02*
X17240944Y-16766460D01*
X17240944Y-16766460D02*
X17231420Y-16718841D01*
X17231420Y-16718841D02*
X17231420Y-16680746D01*
X17231420Y-16680746D02*
X17240944Y-16633127D01*
X17240944Y-16633127D02*
X17250468Y-16604555D01*
X17250468Y-16604555D02*
X17259991Y-16585508D01*
X17259991Y-16585508D02*
X17279039Y-16556936D01*
X17279039Y-16556936D02*
X17288563Y-16547412D01*
X17355230Y-16595031D02*
X17364753Y-16585508D01*
X17364753Y-16585508D02*
X17383801Y-16575984D01*
X17383801Y-16575984D02*
X17431420Y-16575984D01*
X17431420Y-16575984D02*
X17450468Y-16585508D01*
X17450468Y-16585508D02*
X17459991Y-16595031D01*
X17459991Y-16595031D02*
X17469515Y-16614079D01*
X17469515Y-16614079D02*
X17469515Y-16633127D01*
X17469515Y-16633127D02*
X17459991Y-16661698D01*
X17459991Y-16661698D02*
X17345706Y-16775984D01*
X17345706Y-16775984D02*
X17469515Y-16775984D01*
X17707611Y-16775984D02*
X17707611Y-16575984D01*
X17793325Y-16775984D02*
X17793325Y-16671222D01*
X17793325Y-16671222D02*
X17783801Y-16652174D01*
X17783801Y-16652174D02*
X17764753Y-16642650D01*
X17764753Y-16642650D02*
X17736182Y-16642650D01*
X17736182Y-16642650D02*
X17717134Y-16652174D01*
X17717134Y-16652174D02*
X17707611Y-16661698D01*
X17917134Y-16775984D02*
X17898087Y-16766460D01*
X17898087Y-16766460D02*
X17888563Y-16756936D01*
X17888563Y-16756936D02*
X17879039Y-16737888D01*
X17879039Y-16737888D02*
X17879039Y-16680746D01*
X17879039Y-16680746D02*
X17888563Y-16661698D01*
X17888563Y-16661698D02*
X17898087Y-16652174D01*
X17898087Y-16652174D02*
X17917134Y-16642650D01*
X17917134Y-16642650D02*
X17945706Y-16642650D01*
X17945706Y-16642650D02*
X17964753Y-16652174D01*
X17964753Y-16652174D02*
X17974277Y-16661698D01*
X17974277Y-16661698D02*
X17983801Y-16680746D01*
X17983801Y-16680746D02*
X17983801Y-16737888D01*
X17983801Y-16737888D02*
X17974277Y-16756936D01*
X17974277Y-16756936D02*
X17964753Y-16766460D01*
X17964753Y-16766460D02*
X17945706Y-16775984D01*
X17945706Y-16775984D02*
X17917134Y-16775984D01*
X18098087Y-16775984D02*
X18079039Y-16766460D01*
X18079039Y-16766460D02*
X18069515Y-16747412D01*
X18069515Y-16747412D02*
X18069515Y-16575984D01*
X18250468Y-16766460D02*
X18231420Y-16775984D01*
X18231420Y-16775984D02*
X18193325Y-16775984D01*
X18193325Y-16775984D02*
X18174277Y-16766460D01*
X18174277Y-16766460D02*
X18164753Y-16747412D01*
X18164753Y-16747412D02*
X18164753Y-16671222D01*
X18164753Y-16671222D02*
X18174277Y-16652174D01*
X18174277Y-16652174D02*
X18193325Y-16642650D01*
X18193325Y-16642650D02*
X18231420Y-16642650D01*
X18231420Y-16642650D02*
X18250468Y-16652174D01*
X18250468Y-16652174D02*
X18259992Y-16671222D01*
X18259992Y-16671222D02*
X18259992Y-16690269D01*
X18259992Y-16690269D02*
X18164753Y-16709317D01*
X18336182Y-16766460D02*
X18355230Y-16775984D01*
X18355230Y-16775984D02*
X18393325Y-16775984D01*
X18393325Y-16775984D02*
X18412373Y-16766460D01*
X18412373Y-16766460D02*
X18421896Y-16747412D01*
X18421896Y-16747412D02*
X18421896Y-16737888D01*
X18421896Y-16737888D02*
X18412373Y-16718841D01*
X18412373Y-16718841D02*
X18393325Y-16709317D01*
X18393325Y-16709317D02*
X18364753Y-16709317D01*
X18364753Y-16709317D02*
X18345706Y-16699793D01*
X18345706Y-16699793D02*
X18336182Y-16680746D01*
X18336182Y-16680746D02*
X18336182Y-16671222D01*
X18336182Y-16671222D02*
X18345706Y-16652174D01*
X18345706Y-16652174D02*
X18364753Y-16642650D01*
X18364753Y-16642650D02*
X18393325Y-16642650D01*
X18393325Y-16642650D02*
X18412373Y-16652174D01*
X18488563Y-16852174D02*
X18498087Y-16842650D01*
X18498087Y-16842650D02*
X18517134Y-16814079D01*
X18517134Y-16814079D02*
X18526658Y-16795031D01*
X18526658Y-16795031D02*
X18536182Y-16766460D01*
X18536182Y-16766460D02*
X18545706Y-16718841D01*
X18545706Y-16718841D02*
X18545706Y-16680746D01*
X18545706Y-16680746D02*
X18536182Y-16633127D01*
X18536182Y-16633127D02*
X18526658Y-16604555D01*
X18526658Y-16604555D02*
X18517134Y-16585508D01*
X18517134Y-16585508D02*
X18498087Y-16556936D01*
X18498087Y-16556936D02*
X18488563Y-16547412D01*
D12*
X13613500Y-16898500D02*
X13713500Y-16998500D01*
X13713500Y-16898500D02*
X13613500Y-16998500D01*
X13713500Y-16948500D02*
G75*
G02*
X13613500Y-16948500I-50000J0D01*
G01*
X13613500Y-16948500D02*
G75*
G02*
X13713500Y-16948500I50000J0D01*
G01*
D11*
X14079039Y-17039984D02*
X13964753Y-17039984D01*
X14021896Y-17039984D02*
X14021896Y-16839984D01*
X14021896Y-16839984D02*
X14002848Y-16868555D01*
X14002848Y-16868555D02*
X13983801Y-16887603D01*
X13983801Y-16887603D02*
X13964753Y-16897127D01*
X14164753Y-17020936D02*
X14174277Y-17030460D01*
X14174277Y-17030460D02*
X14164753Y-17039984D01*
X14164753Y-17039984D02*
X14155229Y-17030460D01*
X14155229Y-17030460D02*
X14164753Y-17020936D01*
X14164753Y-17020936D02*
X14164753Y-17039984D01*
X14298086Y-16839984D02*
X14317134Y-16839984D01*
X14317134Y-16839984D02*
X14336182Y-16849508D01*
X14336182Y-16849508D02*
X14345705Y-16859031D01*
X14345705Y-16859031D02*
X14355229Y-16878079D01*
X14355229Y-16878079D02*
X14364753Y-16916174D01*
X14364753Y-16916174D02*
X14364753Y-16963793D01*
X14364753Y-16963793D02*
X14355229Y-17001889D01*
X14355229Y-17001889D02*
X14345705Y-17020936D01*
X14345705Y-17020936D02*
X14336182Y-17030460D01*
X14336182Y-17030460D02*
X14317134Y-17039984D01*
X14317134Y-17039984D02*
X14298086Y-17039984D01*
X14298086Y-17039984D02*
X14279039Y-17030460D01*
X14279039Y-17030460D02*
X14269515Y-17020936D01*
X14269515Y-17020936D02*
X14259991Y-17001889D01*
X14259991Y-17001889D02*
X14250467Y-16963793D01*
X14250467Y-16963793D02*
X14250467Y-16916174D01*
X14250467Y-16916174D02*
X14259991Y-16878079D01*
X14259991Y-16878079D02*
X14269515Y-16859031D01*
X14269515Y-16859031D02*
X14279039Y-16849508D01*
X14279039Y-16849508D02*
X14298086Y-16839984D01*
X14488562Y-16839984D02*
X14507610Y-16839984D01*
X14507610Y-16839984D02*
X14526658Y-16849508D01*
X14526658Y-16849508D02*
X14536182Y-16859031D01*
X14536182Y-16859031D02*
X14545705Y-16878079D01*
X14545705Y-16878079D02*
X14555229Y-16916174D01*
X14555229Y-16916174D02*
X14555229Y-16963793D01*
X14555229Y-16963793D02*
X14545705Y-17001889D01*
X14545705Y-17001889D02*
X14536182Y-17020936D01*
X14536182Y-17020936D02*
X14526658Y-17030460D01*
X14526658Y-17030460D02*
X14507610Y-17039984D01*
X14507610Y-17039984D02*
X14488562Y-17039984D01*
X14488562Y-17039984D02*
X14469515Y-17030460D01*
X14469515Y-17030460D02*
X14459991Y-17020936D01*
X14459991Y-17020936D02*
X14450467Y-17001889D01*
X14450467Y-17001889D02*
X14440943Y-16963793D01*
X14440943Y-16963793D02*
X14440943Y-16916174D01*
X14440943Y-16916174D02*
X14450467Y-16878079D01*
X14450467Y-16878079D02*
X14459991Y-16859031D01*
X14459991Y-16859031D02*
X14469515Y-16849508D01*
X14469515Y-16849508D02*
X14488562Y-16839984D01*
X14679039Y-16839984D02*
X14698086Y-16839984D01*
X14698086Y-16839984D02*
X14717134Y-16849508D01*
X14717134Y-16849508D02*
X14726658Y-16859031D01*
X14726658Y-16859031D02*
X14736182Y-16878079D01*
X14736182Y-16878079D02*
X14745705Y-16916174D01*
X14745705Y-16916174D02*
X14745705Y-16963793D01*
X14745705Y-16963793D02*
X14736182Y-17001889D01*
X14736182Y-17001889D02*
X14726658Y-17020936D01*
X14726658Y-17020936D02*
X14717134Y-17030460D01*
X14717134Y-17030460D02*
X14698086Y-17039984D01*
X14698086Y-17039984D02*
X14679039Y-17039984D01*
X14679039Y-17039984D02*
X14659991Y-17030460D01*
X14659991Y-17030460D02*
X14650467Y-17020936D01*
X14650467Y-17020936D02*
X14640943Y-17001889D01*
X14640943Y-17001889D02*
X14631420Y-16963793D01*
X14631420Y-16963793D02*
X14631420Y-16916174D01*
X14631420Y-16916174D02*
X14640943Y-16878079D01*
X14640943Y-16878079D02*
X14650467Y-16859031D01*
X14650467Y-16859031D02*
X14659991Y-16849508D01*
X14659991Y-16849508D02*
X14679039Y-16839984D01*
X14831420Y-17039984D02*
X14831420Y-16906650D01*
X14831420Y-16925698D02*
X14840943Y-16916174D01*
X14840943Y-16916174D02*
X14859991Y-16906650D01*
X14859991Y-16906650D02*
X14888563Y-16906650D01*
X14888563Y-16906650D02*
X14907610Y-16916174D01*
X14907610Y-16916174D02*
X14917134Y-16935222D01*
X14917134Y-16935222D02*
X14917134Y-17039984D01*
X14917134Y-16935222D02*
X14926658Y-16916174D01*
X14926658Y-16916174D02*
X14945705Y-16906650D01*
X14945705Y-16906650D02*
X14974277Y-16906650D01*
X14974277Y-16906650D02*
X14993324Y-16916174D01*
X14993324Y-16916174D02*
X15002848Y-16935222D01*
X15002848Y-16935222D02*
X15002848Y-17039984D01*
X15098086Y-17039984D02*
X15098086Y-16906650D01*
X15098086Y-16925698D02*
X15107610Y-16916174D01*
X15107610Y-16916174D02*
X15126658Y-16906650D01*
X15126658Y-16906650D02*
X15155229Y-16906650D01*
X15155229Y-16906650D02*
X15174277Y-16916174D01*
X15174277Y-16916174D02*
X15183801Y-16935222D01*
X15183801Y-16935222D02*
X15183801Y-17039984D01*
X15183801Y-16935222D02*
X15193324Y-16916174D01*
X15193324Y-16916174D02*
X15212372Y-16906650D01*
X15212372Y-16906650D02*
X15240943Y-16906650D01*
X15240943Y-16906650D02*
X15259991Y-16916174D01*
X15259991Y-16916174D02*
X15269515Y-16935222D01*
X15269515Y-16935222D02*
X15269515Y-17039984D01*
X15659991Y-16830460D02*
X15488563Y-17087603D01*
X15917134Y-16839984D02*
X15936182Y-16839984D01*
X15936182Y-16839984D02*
X15955229Y-16849508D01*
X15955229Y-16849508D02*
X15964753Y-16859031D01*
X15964753Y-16859031D02*
X15974277Y-16878079D01*
X15974277Y-16878079D02*
X15983801Y-16916174D01*
X15983801Y-16916174D02*
X15983801Y-16963793D01*
X15983801Y-16963793D02*
X15974277Y-17001889D01*
X15974277Y-17001889D02*
X15964753Y-17020936D01*
X15964753Y-17020936D02*
X15955229Y-17030460D01*
X15955229Y-17030460D02*
X15936182Y-17039984D01*
X15936182Y-17039984D02*
X15917134Y-17039984D01*
X15917134Y-17039984D02*
X15898086Y-17030460D01*
X15898086Y-17030460D02*
X15888563Y-17020936D01*
X15888563Y-17020936D02*
X15879039Y-17001889D01*
X15879039Y-17001889D02*
X15869515Y-16963793D01*
X15869515Y-16963793D02*
X15869515Y-16916174D01*
X15869515Y-16916174D02*
X15879039Y-16878079D01*
X15879039Y-16878079D02*
X15888563Y-16859031D01*
X15888563Y-16859031D02*
X15898086Y-16849508D01*
X15898086Y-16849508D02*
X15917134Y-16839984D01*
X16069515Y-17020936D02*
X16079039Y-17030460D01*
X16079039Y-17030460D02*
X16069515Y-17039984D01*
X16069515Y-17039984D02*
X16059991Y-17030460D01*
X16059991Y-17030460D02*
X16069515Y-17020936D01*
X16069515Y-17020936D02*
X16069515Y-17039984D01*
X16202848Y-16839984D02*
X16221896Y-16839984D01*
X16221896Y-16839984D02*
X16240944Y-16849508D01*
X16240944Y-16849508D02*
X16250467Y-16859031D01*
X16250467Y-16859031D02*
X16259991Y-16878079D01*
X16259991Y-16878079D02*
X16269515Y-16916174D01*
X16269515Y-16916174D02*
X16269515Y-16963793D01*
X16269515Y-16963793D02*
X16259991Y-17001889D01*
X16259991Y-17001889D02*
X16250467Y-17020936D01*
X16250467Y-17020936D02*
X16240944Y-17030460D01*
X16240944Y-17030460D02*
X16221896Y-17039984D01*
X16221896Y-17039984D02*
X16202848Y-17039984D01*
X16202848Y-17039984D02*
X16183801Y-17030460D01*
X16183801Y-17030460D02*
X16174277Y-17020936D01*
X16174277Y-17020936D02*
X16164753Y-17001889D01*
X16164753Y-17001889D02*
X16155229Y-16963793D01*
X16155229Y-16963793D02*
X16155229Y-16916174D01*
X16155229Y-16916174D02*
X16164753Y-16878079D01*
X16164753Y-16878079D02*
X16174277Y-16859031D01*
X16174277Y-16859031D02*
X16183801Y-16849508D01*
X16183801Y-16849508D02*
X16202848Y-16839984D01*
X16336182Y-16839984D02*
X16459991Y-16839984D01*
X16459991Y-16839984D02*
X16393325Y-16916174D01*
X16393325Y-16916174D02*
X16421896Y-16916174D01*
X16421896Y-16916174D02*
X16440944Y-16925698D01*
X16440944Y-16925698D02*
X16450467Y-16935222D01*
X16450467Y-16935222D02*
X16459991Y-16954270D01*
X16459991Y-16954270D02*
X16459991Y-17001889D01*
X16459991Y-17001889D02*
X16450467Y-17020936D01*
X16450467Y-17020936D02*
X16440944Y-17030460D01*
X16440944Y-17030460D02*
X16421896Y-17039984D01*
X16421896Y-17039984D02*
X16364753Y-17039984D01*
X16364753Y-17039984D02*
X16345706Y-17030460D01*
X16345706Y-17030460D02*
X16336182Y-17020936D01*
X16555229Y-17039984D02*
X16593325Y-17039984D01*
X16593325Y-17039984D02*
X16612372Y-17030460D01*
X16612372Y-17030460D02*
X16621896Y-17020936D01*
X16621896Y-17020936D02*
X16640944Y-16992365D01*
X16640944Y-16992365D02*
X16650467Y-16954270D01*
X16650467Y-16954270D02*
X16650467Y-16878079D01*
X16650467Y-16878079D02*
X16640944Y-16859031D01*
X16640944Y-16859031D02*
X16631420Y-16849508D01*
X16631420Y-16849508D02*
X16612372Y-16839984D01*
X16612372Y-16839984D02*
X16574277Y-16839984D01*
X16574277Y-16839984D02*
X16555229Y-16849508D01*
X16555229Y-16849508D02*
X16545706Y-16859031D01*
X16545706Y-16859031D02*
X16536182Y-16878079D01*
X16536182Y-16878079D02*
X16536182Y-16925698D01*
X16536182Y-16925698D02*
X16545706Y-16944746D01*
X16545706Y-16944746D02*
X16555229Y-16954270D01*
X16555229Y-16954270D02*
X16574277Y-16963793D01*
X16574277Y-16963793D02*
X16612372Y-16963793D01*
X16612372Y-16963793D02*
X16631420Y-16954270D01*
X16631420Y-16954270D02*
X16640944Y-16944746D01*
X16640944Y-16944746D02*
X16650467Y-16925698D01*
X16821896Y-16906650D02*
X16821896Y-17039984D01*
X16774277Y-16830460D02*
X16726658Y-16973317D01*
X16726658Y-16973317D02*
X16850468Y-16973317D01*
X16917134Y-16839984D02*
X16917134Y-16878079D01*
X16993325Y-16839984D02*
X16993325Y-16878079D01*
X17288563Y-17116174D02*
X17279039Y-17106650D01*
X17279039Y-17106650D02*
X17259991Y-17078079D01*
X17259991Y-17078079D02*
X17250468Y-17059031D01*
X17250468Y-17059031D02*
X17240944Y-17030460D01*
X17240944Y-17030460D02*
X17231420Y-16982841D01*
X17231420Y-16982841D02*
X17231420Y-16944746D01*
X17231420Y-16944746D02*
X17240944Y-16897127D01*
X17240944Y-16897127D02*
X17250468Y-16868555D01*
X17250468Y-16868555D02*
X17259991Y-16849508D01*
X17259991Y-16849508D02*
X17279039Y-16820936D01*
X17279039Y-16820936D02*
X17288563Y-16811412D01*
X17459991Y-16839984D02*
X17364753Y-16839984D01*
X17364753Y-16839984D02*
X17355230Y-16935222D01*
X17355230Y-16935222D02*
X17364753Y-16925698D01*
X17364753Y-16925698D02*
X17383801Y-16916174D01*
X17383801Y-16916174D02*
X17431420Y-16916174D01*
X17431420Y-16916174D02*
X17450468Y-16925698D01*
X17450468Y-16925698D02*
X17459991Y-16935222D01*
X17459991Y-16935222D02*
X17469515Y-16954270D01*
X17469515Y-16954270D02*
X17469515Y-17001889D01*
X17469515Y-17001889D02*
X17459991Y-17020936D01*
X17459991Y-17020936D02*
X17450468Y-17030460D01*
X17450468Y-17030460D02*
X17431420Y-17039984D01*
X17431420Y-17039984D02*
X17383801Y-17039984D01*
X17383801Y-17039984D02*
X17364753Y-17030460D01*
X17364753Y-17030460D02*
X17355230Y-17020936D01*
X17659991Y-17039984D02*
X17545706Y-17039984D01*
X17602849Y-17039984D02*
X17602849Y-16839984D01*
X17602849Y-16839984D02*
X17583801Y-16868555D01*
X17583801Y-16868555D02*
X17564753Y-16887603D01*
X17564753Y-16887603D02*
X17545706Y-16897127D01*
X17898087Y-17039984D02*
X17898087Y-16839984D01*
X17983801Y-17039984D02*
X17983801Y-16935222D01*
X17983801Y-16935222D02*
X17974277Y-16916174D01*
X17974277Y-16916174D02*
X17955230Y-16906650D01*
X17955230Y-16906650D02*
X17926658Y-16906650D01*
X17926658Y-16906650D02*
X17907611Y-16916174D01*
X17907611Y-16916174D02*
X17898087Y-16925698D01*
X18107611Y-17039984D02*
X18088563Y-17030460D01*
X18088563Y-17030460D02*
X18079039Y-17020936D01*
X18079039Y-17020936D02*
X18069515Y-17001889D01*
X18069515Y-17001889D02*
X18069515Y-16944746D01*
X18069515Y-16944746D02*
X18079039Y-16925698D01*
X18079039Y-16925698D02*
X18088563Y-16916174D01*
X18088563Y-16916174D02*
X18107611Y-16906650D01*
X18107611Y-16906650D02*
X18136182Y-16906650D01*
X18136182Y-16906650D02*
X18155230Y-16916174D01*
X18155230Y-16916174D02*
X18164753Y-16925698D01*
X18164753Y-16925698D02*
X18174277Y-16944746D01*
X18174277Y-16944746D02*
X18174277Y-17001889D01*
X18174277Y-17001889D02*
X18164753Y-17020936D01*
X18164753Y-17020936D02*
X18155230Y-17030460D01*
X18155230Y-17030460D02*
X18136182Y-17039984D01*
X18136182Y-17039984D02*
X18107611Y-17039984D01*
X18288563Y-17039984D02*
X18269515Y-17030460D01*
X18269515Y-17030460D02*
X18259992Y-17011412D01*
X18259992Y-17011412D02*
X18259992Y-16839984D01*
X18440944Y-17030460D02*
X18421896Y-17039984D01*
X18421896Y-17039984D02*
X18383801Y-17039984D01*
X18383801Y-17039984D02*
X18364753Y-17030460D01*
X18364753Y-17030460D02*
X18355230Y-17011412D01*
X18355230Y-17011412D02*
X18355230Y-16935222D01*
X18355230Y-16935222D02*
X18364753Y-16916174D01*
X18364753Y-16916174D02*
X18383801Y-16906650D01*
X18383801Y-16906650D02*
X18421896Y-16906650D01*
X18421896Y-16906650D02*
X18440944Y-16916174D01*
X18440944Y-16916174D02*
X18450468Y-16935222D01*
X18450468Y-16935222D02*
X18450468Y-16954270D01*
X18450468Y-16954270D02*
X18355230Y-16973317D01*
X18526658Y-17030460D02*
X18545706Y-17039984D01*
X18545706Y-17039984D02*
X18583801Y-17039984D01*
X18583801Y-17039984D02*
X18602849Y-17030460D01*
X18602849Y-17030460D02*
X18612373Y-17011412D01*
X18612373Y-17011412D02*
X18612373Y-17001889D01*
X18612373Y-17001889D02*
X18602849Y-16982841D01*
X18602849Y-16982841D02*
X18583801Y-16973317D01*
X18583801Y-16973317D02*
X18555230Y-16973317D01*
X18555230Y-16973317D02*
X18536182Y-16963793D01*
X18536182Y-16963793D02*
X18526658Y-16944746D01*
X18526658Y-16944746D02*
X18526658Y-16935222D01*
X18526658Y-16935222D02*
X18536182Y-16916174D01*
X18536182Y-16916174D02*
X18555230Y-16906650D01*
X18555230Y-16906650D02*
X18583801Y-16906650D01*
X18583801Y-16906650D02*
X18602849Y-16916174D01*
X18679039Y-17116174D02*
X18688563Y-17106650D01*
X18688563Y-17106650D02*
X18707611Y-17078079D01*
X18707611Y-17078079D02*
X18717134Y-17059031D01*
X18717134Y-17059031D02*
X18726658Y-17030460D01*
X18726658Y-17030460D02*
X18736182Y-16982841D01*
X18736182Y-16982841D02*
X18736182Y-16944746D01*
X18736182Y-16944746D02*
X18726658Y-16897127D01*
X18726658Y-16897127D02*
X18717134Y-16868555D01*
X18717134Y-16868555D02*
X18707611Y-16849508D01*
X18707611Y-16849508D02*
X18688563Y-16820936D01*
X18688563Y-16820936D02*
X18679039Y-16811412D01*
M02*
