%TF.GenerationSoftware,KiCad,Pcbnew,9.0.5*%
%TF.CreationDate,2026-01-02T17:56:54-05:00*%
%TF.ProjectId,main_board,6d61696e-5f62-46f6-9172-642e6b696361,rev?*%
%TF.SameCoordinates,Original*%
%TF.FileFunction,Copper,L1,Top*%
%TF.FilePolarity,Positive*%
%FSLAX46Y46*%
G04 Gerber Fmt 4.6, Leading zero omitted, Abs format (unit mm)*
G04 Created by KiCad (PCBNEW 9.0.5) date 2026-01-02 17:56:54*
%MOMM*%
%LPD*%
G01*
G04 APERTURE LIST*
G04 Aperture macros list*
%AMRoundRect*
0 Rectangle with rounded corners*
0 $1 Rounding radius*
0 $2 $3 $4 $5 $6 $7 $8 $9 X,Y pos of 4 corners*
0 Add a 4 corners polygon primitive as box body*
4,1,4,$2,$3,$4,$5,$6,$7,$8,$9,$2,$3,0*
0 Add four circle primitives for the rounded corners*
1,1,$1+$1,$2,$3*
1,1,$1+$1,$4,$5*
1,1,$1+$1,$6,$7*
1,1,$1+$1,$8,$9*
0 Add four rect primitives between the rounded corners*
20,1,$1+$1,$2,$3,$4,$5,0*
20,1,$1+$1,$4,$5,$6,$7,0*
20,1,$1+$1,$6,$7,$8,$9,0*
20,1,$1+$1,$8,$9,$2,$3,0*%
G04 Aperture macros list end*
%TA.AperFunction,SMDPad,CuDef*%
%ADD10RoundRect,0.250001X0.624999X-0.462499X0.624999X0.462499X-0.624999X0.462499X-0.624999X-0.462499X0*%
%TD*%
%TA.AperFunction,SMDPad,CuDef*%
%ADD11RoundRect,0.250001X-0.624999X0.462499X-0.624999X-0.462499X0.624999X-0.462499X0.624999X0.462499X0*%
%TD*%
%TA.AperFunction,ComponentPad*%
%ADD12R,1.800000X1.800000*%
%TD*%
%TA.AperFunction,ComponentPad*%
%ADD13C,1.800000*%
%TD*%
%TA.AperFunction,ComponentPad*%
%ADD14C,1.600000*%
%TD*%
%TA.AperFunction,SMDPad,CuDef*%
%ADD15RoundRect,0.250001X0.462499X0.624999X-0.462499X0.624999X-0.462499X-0.624999X0.462499X-0.624999X0*%
%TD*%
%TA.AperFunction,SMDPad,CuDef*%
%ADD16RoundRect,0.250001X-0.462499X-0.624999X0.462499X-0.624999X0.462499X0.624999X-0.462499X0.624999X0*%
%TD*%
%TA.AperFunction,SMDPad,CuDef*%
%ADD17RoundRect,0.150000X0.150000X-0.825000X0.150000X0.825000X-0.150000X0.825000X-0.150000X-0.825000X0*%
%TD*%
%TA.AperFunction,SMDPad,CuDef*%
%ADD18RoundRect,0.250000X-0.412500X-0.650000X0.412500X-0.650000X0.412500X0.650000X-0.412500X0.650000X0*%
%TD*%
%TA.AperFunction,ComponentPad*%
%ADD19R,1.600000X1.600000*%
%TD*%
%TA.AperFunction,ComponentPad*%
%ADD20O,1.600000X1.600000*%
%TD*%
%TA.AperFunction,SMDPad,CuDef*%
%ADD21R,3.500000X3.500000*%
%TD*%
%TA.AperFunction,SMDPad,CuDef*%
%ADD22C,8.000000*%
%TD*%
%TA.AperFunction,SMDPad,CuDef*%
%ADD23RoundRect,0.375000X-0.625000X-0.375000X0.625000X-0.375000X0.625000X0.375000X-0.625000X0.375000X0*%
%TD*%
%TA.AperFunction,SMDPad,CuDef*%
%ADD24RoundRect,0.500000X-0.500000X-1.400000X0.500000X-1.400000X0.500000X1.400000X-0.500000X1.400000X0*%
%TD*%
%TA.AperFunction,ComponentPad*%
%ADD25R,1.500000X1.500000*%
%TD*%
%TA.AperFunction,SMDPad,CuDef*%
%ADD26RoundRect,0.150000X-0.150000X0.875000X-0.150000X-0.875000X0.150000X-0.875000X0.150000X0.875000X0*%
%TD*%
%TA.AperFunction,ComponentPad*%
%ADD27R,1.200000X1.200000*%
%TD*%
%TA.AperFunction,ComponentPad*%
%ADD28C,1.200000*%
%TD*%
%TA.AperFunction,ComponentPad*%
%ADD29R,1.508000X1.508000*%
%TD*%
%TA.AperFunction,ComponentPad*%
%ADD30C,1.508000*%
%TD*%
%TA.AperFunction,ComponentPad*%
%ADD31C,1.524000*%
%TD*%
%TA.AperFunction,ComponentPad*%
%ADD32R,1.700000X1.700000*%
%TD*%
%TA.AperFunction,ComponentPad*%
%ADD33O,1.700000X1.700000*%
%TD*%
%TA.AperFunction,ViaPad*%
%ADD34C,0.800000*%
%TD*%
%TA.AperFunction,Conductor*%
%ADD35C,0.250000*%
%TD*%
G04 APERTURE END LIST*
D10*
%TO.P,C1,1*%
%TO.N,3V3*%
X169600000Y-111187500D03*
%TO.P,C1,2*%
%TO.N,GND*%
X169600000Y-108212500D03*
%TD*%
D11*
%TO.P,C2,1*%
%TO.N,Net-(SW1-B)*%
X165900000Y-126412500D03*
%TO.P,C2,2*%
%TO.N,Net-(U3-IN-)*%
X165900000Y-129387500D03*
%TD*%
%TO.P,C3,1*%
%TO.N,GND*%
X175000000Y-96512500D03*
%TO.P,C3,2*%
%TO.N,5V*%
X175000000Y-99487500D03*
%TD*%
%TO.P,C4,1*%
%TO.N,GND*%
X166000000Y-108212500D03*
%TO.P,C4,2*%
%TO.N,Net-(U3-IN-)*%
X166000000Y-111187500D03*
%TD*%
D12*
%TO.P,D2,1,K*%
%TO.N,GND*%
X141925000Y-95100000D03*
D13*
%TO.P,D2,2,A*%
%TO.N,Net-(D2-A)*%
X144465000Y-95100000D03*
%TD*%
D14*
%TO.P,nRF24L01+1,1,3.3V*%
%TO.N,3V3*%
X139150000Y-75705000D03*
%TO.P,nRF24L01+1,2,CSN*%
%TO.N,nRF_CS*%
X141690000Y-75705000D03*
%TO.P,nRF24L01+1,3,MOSI*%
%TO.N,MOSI*%
X144230000Y-75705000D03*
%TO.P,nRF24L01+1,4,IRQ*%
%TO.N,unconnected-(nRF24L01+1-IRQ-Pad4)*%
X146770000Y-75705000D03*
%TO.P,nRF24L01+1,5,GND*%
%TO.N,GND*%
X139150000Y-73165000D03*
%TO.P,nRF24L01+1,6,CE*%
%TO.N,nRF_CE*%
X141690000Y-73165000D03*
%TO.P,nRF24L01+1,7,SCK*%
%TO.N,SCK*%
X144230000Y-73165000D03*
%TO.P,nRF24L01+1,8,MISO*%
%TO.N,MISO*%
X146770000Y-73165000D03*
%TD*%
D15*
%TO.P,R1,1*%
%TO.N,Net-(A1-A3)*%
X149787500Y-95300000D03*
%TO.P,R1,2*%
%TO.N,Net-(D2-A)*%
X146812500Y-95300000D03*
%TD*%
D10*
%TO.P,R2,1*%
%TO.N,Net-(SW1-B)*%
X165900000Y-120087500D03*
%TO.P,R2,2*%
%TO.N,Net-(U3-IN-)*%
X165900000Y-117112500D03*
%TD*%
D15*
%TO.P,R3,1*%
%TO.N,3V3*%
X157287500Y-86200000D03*
%TO.P,R3,2*%
%TO.N,Net-(A1-A4)*%
X154312500Y-86200000D03*
%TD*%
%TO.P,R4,1*%
%TO.N,3V3*%
X157287500Y-90000000D03*
%TO.P,R4,2*%
%TO.N,Net-(A1-A5)*%
X154312500Y-90000000D03*
%TD*%
D16*
%TO.P,R5,1*%
%TO.N,Net-(A1-D2)*%
X154212500Y-82300000D03*
%TO.P,R5,2*%
%TO.N,3V3*%
X157187500Y-82300000D03*
%TD*%
D17*
%TO.P,U3,1,A1*%
%TO.N,unconnected-(U3-A1-Pad1)*%
X169390000Y-131450000D03*
%TO.P,U3,2,A0*%
%TO.N,unconnected-(U3-A0-Pad2)*%
X170660000Y-131450000D03*
%TO.P,U3,3,SDA*%
%TO.N,Net-(A1-A4)*%
X171930000Y-131450000D03*
%TO.P,U3,4,SCL*%
%TO.N,Net-(A1-A5)*%
X173200000Y-131450000D03*
%TO.P,U3,5,VS*%
%TO.N,3V3*%
X173200000Y-126500000D03*
%TO.P,U3,6,GND*%
%TO.N,GND*%
X171930000Y-126500000D03*
%TO.P,U3,7,IN-*%
%TO.N,Net-(U3-IN-)*%
X170660000Y-126500000D03*
%TO.P,U3,8,IN+*%
%TO.N,Net-(SW1-B)*%
X169390000Y-126500000D03*
%TD*%
D18*
%TO.P,R7,1*%
%TO.N,SCK*%
X161337500Y-77500000D03*
%TO.P,R7,2*%
%TO.N,Net-(P1-CLK{slash}SCK)*%
X164462500Y-77500000D03*
%TD*%
D19*
%TO.P,A1,1,D1/TX*%
%TO.N,unconnected-(A1-D1{slash}TX-Pad1)*%
X144390000Y-102250000D03*
D20*
%TO.P,A1,2,D0/RX*%
%TO.N,unconnected-(A1-D0{slash}RX-Pad2)*%
X144390000Y-104790000D03*
%TO.P,A1,3,~{RESET}*%
%TO.N,unconnected-(A1-~{RESET}-Pad3)*%
X144390000Y-107330000D03*
%TO.P,A1,4,GND*%
%TO.N,GND*%
X144390000Y-109870000D03*
%TO.P,A1,5,D2*%
%TO.N,Net-(A1-D2)*%
X144390000Y-112410000D03*
%TO.P,A1,6,D3*%
%TO.N,unconnected-(A1-D3-Pad6)*%
X144390000Y-114950000D03*
%TO.P,A1,7,D4*%
%TO.N,unconnected-(A1-D4-Pad7)*%
X144390000Y-117490000D03*
%TO.P,A1,8,D5*%
%TO.N,unconnected-(A1-D5-Pad8)*%
X144390000Y-120030000D03*
%TO.P,A1,9,D6*%
%TO.N,nRF_CE*%
X144390000Y-122570000D03*
%TO.P,A1,10,D7*%
%TO.N,nRF_CS*%
X144390000Y-125110000D03*
%TO.P,A1,11,D8*%
%TO.N,Net-(A1-D8)*%
X144390000Y-127650000D03*
%TO.P,A1,12,D9*%
%TO.N,Net-(A1-D9)*%
X144390000Y-130190000D03*
%TO.P,A1,13,D10*%
%TO.N,SD_CS*%
X144390000Y-132730000D03*
%TO.P,A1,14,D11*%
%TO.N,MOSI*%
X144390000Y-135270000D03*
%TO.P,A1,15,D12*%
%TO.N,MISO*%
X144390000Y-137810000D03*
%TO.P,A1,16,D13*%
%TO.N,SCK*%
X159630000Y-137810000D03*
%TO.P,A1,17,3V3*%
%TO.N,3V3*%
X159630000Y-135270000D03*
%TO.P,A1,18,AREF*%
%TO.N,unconnected-(A1-AREF-Pad18)*%
X159630000Y-132730000D03*
%TO.P,A1,19,A0*%
%TO.N,unconnected-(A1-A0-Pad19)*%
X159630000Y-130190000D03*
%TO.P,A1,20,A1*%
%TO.N,unconnected-(A1-A1-Pad20)*%
X159630000Y-127650000D03*
%TO.P,A1,21,A2*%
%TO.N,unconnected-(A1-A2-Pad21)*%
X159630000Y-125110000D03*
%TO.P,A1,22,A3*%
%TO.N,Net-(A1-A3)*%
X159630000Y-122570000D03*
%TO.P,A1,23,A4*%
%TO.N,Net-(A1-A4)*%
X159630000Y-120030000D03*
%TO.P,A1,24,A5*%
%TO.N,Net-(A1-A5)*%
X159630000Y-117490000D03*
%TO.P,A1,25,A6*%
%TO.N,unconnected-(A1-A6-Pad25)*%
X159630000Y-114950000D03*
%TO.P,A1,26,A7*%
%TO.N,unconnected-(A1-A7-Pad26)*%
X159630000Y-112410000D03*
%TO.P,A1,27,+5V*%
%TO.N,5V*%
X159630000Y-109870000D03*
%TO.P,A1,28,~{RESET}*%
%TO.N,unconnected-(A1-~{RESET}-Pad28)*%
X159630000Y-107330000D03*
%TO.P,A1,29,GND*%
%TO.N,GND*%
X159630000Y-104790000D03*
%TO.P,A1,30,VIN*%
%TO.N,unconnected-(A1-VIN-Pad30)*%
X159630000Y-102250000D03*
%TD*%
D18*
%TO.P,R6,1*%
%TO.N,GND*%
X161275000Y-74500000D03*
%TO.P,R6,2*%
%TO.N,Net-(P1-CLK{slash}SCK)*%
X164400000Y-74500000D03*
%TD*%
%TO.P,R8,1*%
%TO.N,GND*%
X161337500Y-80850000D03*
%TO.P,R8,2*%
%TO.N,Net-(P1-CMD{slash}MOSI)*%
X164462500Y-80850000D03*
%TD*%
D21*
%TO.P,BT1,1,+*%
%TO.N,Net-(BT1-+)*%
X171300000Y-73845000D03*
X171300000Y-90355000D03*
D22*
%TO.P,BT1,2,-*%
%TO.N,GND*%
X171300000Y-82100000D03*
%TD*%
D23*
%TO.P,U5,1,VI*%
%TO.N,Net-(U3-IN-)*%
X165350000Y-94700000D03*
%TO.P,U5,2,GND*%
%TO.N,GND*%
X165350000Y-97000000D03*
D24*
X171650000Y-97000000D03*
D23*
%TO.P,U5,3,VO*%
%TO.N,5V*%
X165350000Y-99300000D03*
%TD*%
D18*
%TO.P,R9,1*%
%TO.N,MOSI*%
X161337500Y-84200000D03*
%TO.P,R9,2*%
%TO.N,Net-(P1-CMD{slash}MOSI)*%
X164462500Y-84200000D03*
%TD*%
%TO.P,R10,1*%
%TO.N,GND*%
X161337500Y-87550000D03*
%TO.P,R10,2*%
%TO.N,Net-(P1-DAT3{slash}CS)*%
X164462500Y-87550000D03*
%TD*%
D25*
%TO.P,SW1,1,B*%
%TO.N,Net-(SW1-B)*%
X157260000Y-94900000D03*
D14*
%TO.P,SW1,2,C*%
%TO.N,Net-(D1-K)*%
X154720000Y-94900000D03*
%TO.P,SW1,3,A*%
%TO.N,unconnected-(SW1-A-Pad3)*%
X159800000Y-94900000D03*
%TD*%
D18*
%TO.P,R11,1*%
%TO.N,SD_CS*%
X161337500Y-90900000D03*
%TO.P,R11,2*%
%TO.N,Net-(P1-DAT3{slash}CS)*%
X164462500Y-90900000D03*
%TD*%
D26*
%TO.P,U2,1,32KHZ*%
%TO.N,unconnected-(U2-32KHZ-Pad1)*%
X149945000Y-79945000D03*
%TO.P,U2,2,VCC*%
%TO.N,3V3*%
X148675000Y-79945000D03*
%TO.P,U2,3,~{INT}/SQW*%
%TO.N,Net-(A1-D2)*%
X147405000Y-79945000D03*
%TO.P,U2,4,~{RST}*%
%TO.N,unconnected-(U2-~{RST}-Pad4)*%
X146135000Y-79945000D03*
%TO.P,U2,5,GND*%
%TO.N,GND*%
X144865000Y-79945000D03*
%TO.P,U2,6,GND*%
X143595000Y-79945000D03*
%TO.P,U2,7,GND*%
X142325000Y-79945000D03*
%TO.P,U2,8,GND*%
X141055000Y-79945000D03*
%TO.P,U2,9,GND*%
X141055000Y-89245000D03*
%TO.P,U2,10,GND*%
X142325000Y-89245000D03*
%TO.P,U2,11,GND*%
X143595000Y-89245000D03*
%TO.P,U2,12,GND*%
X144865000Y-89245000D03*
%TO.P,U2,13,GND*%
X146135000Y-89245000D03*
%TO.P,U2,14,VBAT*%
%TO.N,Net-(BT1-+)*%
X147405000Y-89245000D03*
%TO.P,U2,15,SDA*%
%TO.N,Net-(A1-A4)*%
X148675000Y-89245000D03*
%TO.P,U2,16,SCL*%
%TO.N,Net-(A1-A5)*%
X149945000Y-89245000D03*
%TD*%
D27*
%TO.P,C5,1*%
%TO.N,3V3*%
X155027400Y-74500000D03*
D28*
%TO.P,C5,2*%
%TO.N,GND*%
X157027400Y-74500000D03*
%TD*%
D29*
%TO.P,J1,1,1*%
%TO.N,Net-(U1-B+)*%
X168200000Y-145925000D03*
D30*
%TO.P,J1,2,2*%
%TO.N,Net-(U1-BM)*%
X170700000Y-145925000D03*
%TO.P,J1,3,3*%
%TO.N,Net-(U1-B-)*%
X173200000Y-145925000D03*
%TD*%
D31*
%TO.P,U1,1,P-*%
%TO.N,GND*%
X174700000Y-138560000D03*
%TO.P,U1,2,P+*%
%TO.N,Net-(D1-K)*%
X169620000Y-138560000D03*
%TO.P,U1,3,B-*%
%TO.N,Net-(U1-B-)*%
X174700000Y-103000000D03*
%TO.P,U1,4,BM*%
%TO.N,Net-(U1-BM)*%
X164540000Y-138560000D03*
%TO.P,U1,5,B+*%
%TO.N,Net-(U1-B+)*%
X164540000Y-103000000D03*
%TD*%
%TO.P,U4,1,VIN*%
%TO.N,3V3*%
X146722500Y-145327500D03*
%TO.P,U4,2,GND*%
%TO.N,GND*%
X144182500Y-145327500D03*
%TO.P,U4,3,SCL*%
%TO.N,Net-(A1-A5)*%
X141642500Y-145327500D03*
%TO.P,U4,4,SDA*%
%TO.N,Net-(A1-A4)*%
X139102500Y-145327500D03*
%TD*%
D14*
%TO.P,Ultrasonic_sensor1,1,GND*%
%TO.N,GND*%
X154180000Y-147600000D03*
%TO.P,Ultrasonic_sensor1,2,ECHO*%
%TO.N,Net-(A1-D8)*%
X156720000Y-147600000D03*
%TO.P,Ultrasonic_sensor1,3,TRIG*%
%TO.N,Net-(A1-D9)*%
X159260000Y-147600000D03*
%TO.P,Ultrasonic_sensor1,4,VCC*%
%TO.N,5V*%
X161800000Y-147600000D03*
%TD*%
D32*
%TO.P,J2,1,Pin_1*%
%TO.N,GND*%
X140000000Y-117540000D03*
D33*
%TO.P,J2,2,Pin_2*%
%TO.N,Net-(D1-A)*%
X140000000Y-115000000D03*
%TD*%
D34*
%TO.N,GND*%
X157400000Y-101900000D03*
X146300000Y-82100000D03*
X141050000Y-84500000D03*
X166300000Y-105200000D03*
X142800000Y-84500000D03*
%TO.N,Net-(A1-D2)*%
X147761000Y-110307000D03*
%TO.N,Net-(P1-CLK{slash}SCK)*%
X160046000Y-79405700D03*
%TO.N,MOSI*%
X157434000Y-76450400D03*
%TO.N,SD_CS*%
X160005000Y-91498100D03*
X148090000Y-107904000D03*
%TO.N,Net-(P1-DAT3{slash}CS)*%
X164014000Y-85875000D03*
%TO.N,Net-(P1-CMD{slash}MOSI)*%
X164239000Y-82413900D03*
%TO.N,MISO*%
X139739000Y-92912600D03*
X147781000Y-81895500D03*
%TO.N,3V3*%
X169093000Y-128946000D03*
%TO.N,5V*%
X165160000Y-100907000D03*
%TD*%
D35*
%TO.N,Net-(A1-A4)*%
X159630000Y-120030000D02*
X159630000Y-118903000D01*
X154226000Y-97788700D02*
X148675000Y-92237500D01*
X165033000Y-130466000D02*
X165033000Y-134077000D01*
X171930000Y-131067000D02*
X170934000Y-130071000D01*
X159630000Y-118903000D02*
X159348000Y-118903000D01*
X167746000Y-130466000D02*
X165033000Y-130466000D01*
X165033000Y-130466000D02*
X161945000Y-127378000D01*
X171930000Y-131450000D02*
X171930000Y-131067000D01*
X154226000Y-113781000D02*
X154226000Y-97788700D01*
X161945000Y-122345000D02*
X159630000Y-120030000D01*
X151252000Y-86200000D02*
X148675000Y-88776900D01*
X159348000Y-118903000D02*
X154226000Y-113781000D01*
X139102500Y-145327500D02*
X139102000Y-145328000D01*
X148675000Y-92237500D02*
X148675000Y-89245000D01*
X170934000Y-130071000D02*
X168141000Y-130071000D01*
X154312000Y-86200000D02*
X154312500Y-86200000D01*
X140248000Y-146473000D02*
X139102000Y-145328000D01*
X154312000Y-86200000D02*
X151252000Y-86200000D01*
X152637000Y-146473000D02*
X140248000Y-146473000D01*
X168141000Y-130071000D02*
X167746000Y-130466000D01*
X148675000Y-88776900D02*
X148675000Y-89245000D01*
X161945000Y-127378000D02*
X161945000Y-122345000D01*
X165033000Y-134077000D02*
X152637000Y-146473000D01*
%TO.N,Net-(A1-A5)*%
X141056000Y-144740000D02*
X141642000Y-145328000D01*
X153262000Y-146925000D02*
X139139000Y-146925000D01*
X154312000Y-90000000D02*
X154312000Y-90000200D01*
X139139000Y-146925000D02*
X138012000Y-145798000D01*
X149945000Y-89245000D02*
X153558000Y-89245000D01*
X154312000Y-90000000D02*
X154312000Y-90000200D01*
X138720000Y-144153000D02*
X140468000Y-144153000D01*
X173200000Y-131450000D02*
X173200000Y-131921000D01*
X138012000Y-144861000D02*
X138720000Y-144153000D01*
X138012000Y-145798000D02*
X138012000Y-144861000D01*
X173200000Y-131921000D02*
X172273000Y-132848000D01*
X156174000Y-91861800D02*
X156174000Y-113189000D01*
X156174000Y-113189000D02*
X159348000Y-116363000D01*
X172273000Y-132848000D02*
X167339000Y-132848000D01*
X154312500Y-90000000D02*
X154312000Y-90000000D01*
X153558000Y-89245000D02*
X154312000Y-90000000D01*
X141055000Y-144740000D02*
X141056000Y-144740000D01*
X167339000Y-132848000D02*
X153262000Y-146925000D01*
X141642000Y-145328000D02*
X141055000Y-144740000D01*
X159348000Y-116363000D02*
X159630000Y-116363000D01*
X141642500Y-145327500D02*
X141642000Y-145328000D01*
X140468000Y-144153000D02*
X141055000Y-144740000D01*
X154312000Y-90000200D02*
X156174000Y-91861800D01*
X159630000Y-116363000D02*
X159630000Y-117490000D01*
%TO.N,Net-(A1-A3)*%
X159630000Y-121443000D02*
X159630000Y-122570000D01*
X149798000Y-111796000D02*
X159445000Y-121443000D01*
X159445000Y-121443000D02*
X159630000Y-121443000D01*
X149793000Y-95305100D02*
X149798000Y-95310200D01*
X149798000Y-95310200D02*
X149798000Y-111796000D01*
X149788000Y-95300000D02*
X149793000Y-95305100D01*
X149793000Y-95305100D02*
X149792600Y-95305100D01*
X149792600Y-95305100D02*
X149787500Y-95300000D01*
%TO.N,Net-(A1-D2)*%
X154212000Y-82300200D02*
X154212000Y-82300000D01*
X147030000Y-80319700D02*
X147030000Y-82174100D01*
X147506000Y-82649800D02*
X153863000Y-82649800D01*
X148691000Y-93657400D02*
X146770000Y-91736500D01*
X154212000Y-82300200D02*
X154212300Y-82300200D01*
X154212300Y-82300200D02*
X154212500Y-82300000D01*
X147761000Y-110307000D02*
X149346000Y-108722000D01*
X146770000Y-83385800D02*
X147506000Y-82649800D01*
X147030000Y-82174100D02*
X147506000Y-82649800D01*
X146770000Y-91736500D02*
X146770000Y-83385800D01*
X149346000Y-108722000D02*
X149346000Y-102415000D01*
X149346000Y-102415000D02*
X148691000Y-101760000D01*
X154212000Y-82300400D02*
X154212000Y-82300200D01*
X153863000Y-82649800D02*
X154038000Y-82474900D01*
X148691000Y-101760000D02*
X148691000Y-93657400D01*
X154038000Y-82474900D02*
X154212000Y-82300400D01*
X147405000Y-79945000D02*
X147030000Y-80319700D01*
%TO.N,Net-(BT1-+)*%
X151205000Y-84989200D02*
X155022000Y-84989200D01*
X165091000Y-92224800D02*
X166961000Y-90355000D01*
X155641000Y-85608100D02*
X155641000Y-90273800D01*
X171300000Y-75921700D02*
X171300000Y-73845000D01*
X157592000Y-92224800D02*
X165091000Y-92224800D01*
X166961000Y-80261000D02*
X171300000Y-75921700D01*
X147405000Y-88789200D02*
X151205000Y-84989200D01*
X166961000Y-90355000D02*
X171300000Y-90355000D01*
X155022000Y-84989200D02*
X155641000Y-85608100D01*
X155641000Y-90273800D02*
X157592000Y-92224800D01*
X147405000Y-89245000D02*
X147405000Y-88789200D01*
X166961000Y-90355000D02*
X166961000Y-80261000D01*
%TO.N,Net-(U3-IN-)*%
X166000000Y-111188000D02*
X165900000Y-111288000D01*
X166981000Y-118193000D02*
X170660000Y-121872000D01*
X165900000Y-117112000D02*
X165900000Y-117112500D01*
X165350000Y-94700000D02*
X163432000Y-96618500D01*
X170660000Y-126500000D02*
X170660000Y-126884000D01*
X167353000Y-127934000D02*
X165900200Y-129387700D01*
X170660000Y-126884000D02*
X169609000Y-127934000D01*
X166000000Y-111188000D02*
X166000000Y-111187500D01*
X169609000Y-127934000D02*
X167353000Y-127934000D01*
X170660000Y-121872000D02*
X170660000Y-126500000D01*
X165900000Y-129387500D02*
X165900200Y-129387700D01*
X165900000Y-117112000D02*
X166981000Y-118193000D01*
X166981000Y-118193000D02*
X166980000Y-118193000D01*
X163432000Y-96618500D02*
X163432000Y-108619000D01*
X166980000Y-118193000D02*
X165900000Y-117112000D01*
X165900200Y-129387700D02*
X165900000Y-129388000D01*
X165900000Y-111288000D02*
X165900000Y-117112000D01*
X163432000Y-108619000D02*
X166000000Y-111188000D01*
%TO.N,Net-(D2-A)*%
X144665000Y-95300000D02*
X144465000Y-95100000D01*
X146812000Y-95300000D02*
X144665000Y-95300000D01*
X146812000Y-95300000D02*
X146812500Y-95300000D01*
%TO.N,Net-(P1-CLK{slash}SCK)*%
X164462000Y-77500000D02*
X164462500Y-77500000D01*
X164400000Y-77500000D02*
X164462000Y-77500000D01*
X164400000Y-77500000D02*
X164400000Y-74500000D01*
X160046000Y-79405700D02*
X162494000Y-79405700D01*
X162494000Y-79405700D02*
X164400000Y-77500000D01*
%TO.N,MOSI*%
X140420000Y-92519900D02*
X140420000Y-75370400D01*
X141238000Y-74551900D02*
X143077000Y-74551900D01*
X144390000Y-134143000D02*
X144108000Y-134143000D01*
X157434000Y-76450400D02*
X157434000Y-80296200D01*
X161338000Y-84199800D02*
X161338000Y-84200000D01*
X142097000Y-132132000D02*
X142097000Y-97533900D01*
X140512000Y-92611600D02*
X140420000Y-92519900D01*
X161338000Y-84199400D02*
X161338000Y-84199800D01*
X140420000Y-75370400D02*
X141238000Y-74551900D01*
X144108000Y-134143000D02*
X142097000Y-132132000D01*
X160362000Y-83223900D02*
X161338000Y-84199400D01*
X157434000Y-80296200D02*
X160362000Y-83223900D01*
X142097000Y-97533900D02*
X140512000Y-95948800D01*
X161337500Y-84200000D02*
X161338000Y-84200000D01*
X140512000Y-95948800D02*
X140512000Y-92611600D01*
X160362000Y-83223900D02*
X161338000Y-84199800D01*
X143077000Y-74551900D02*
X144230000Y-75705000D01*
X144390000Y-135270000D02*
X144390000Y-134143000D01*
%TO.N,SD_CS*%
X145517000Y-130758000D02*
X145517000Y-110477000D01*
X144390000Y-132730000D02*
X144390000Y-131603000D01*
X144672000Y-131603000D02*
X145517000Y-130758000D01*
X161337500Y-90900000D02*
X160604000Y-90900000D01*
X145517000Y-110477000D02*
X148090000Y-107904000D01*
X161338000Y-90900000D02*
X161337500Y-90900000D01*
X144390000Y-131603000D02*
X144672000Y-131603000D01*
X160604000Y-90900000D02*
X160005000Y-91498100D01*
%TO.N,Net-(U1-B-)*%
X174700000Y-132112000D02*
X174700000Y-103000000D01*
X173200000Y-145925000D02*
X173200000Y-133612000D01*
X173200000Y-133612000D02*
X174700000Y-132112000D01*
%TO.N,Net-(U1-B+)*%
X170226000Y-147006000D02*
X173674000Y-147006000D01*
X169281000Y-145925000D02*
X169281000Y-146060000D01*
X175792000Y-144887000D02*
X175792000Y-102532000D01*
X175792000Y-102532000D02*
X175147000Y-101887000D01*
X168200000Y-145925000D02*
X169281000Y-145925000D01*
X173674000Y-147006000D02*
X175792000Y-144887000D01*
X165653000Y-101887000D02*
X164540000Y-103000000D01*
X175147000Y-101887000D02*
X165653000Y-101887000D01*
X169281000Y-146060000D02*
X170226000Y-147006000D01*
%TO.N,Net-(P1-DAT3{slash}CS)*%
X164462000Y-88372000D02*
X164462000Y-89636000D01*
X164462000Y-89636000D02*
X164462500Y-89636500D01*
X164462500Y-86895800D02*
X164462500Y-87550000D01*
X164462500Y-88371500D02*
X164462500Y-87550000D01*
X164462000Y-88372000D02*
X164462500Y-88371500D01*
X164462000Y-87529400D02*
X164462000Y-88372000D01*
X164014000Y-85875000D02*
X164462000Y-86323300D01*
X164462000Y-86323300D02*
X164462000Y-86895300D01*
X164462000Y-89636000D02*
X164462000Y-90900000D01*
X164462000Y-86895300D02*
X164462000Y-87467400D01*
X164462000Y-86895300D02*
X164462500Y-86895800D01*
X164462500Y-89636500D02*
X164462500Y-90900000D01*
%TO.N,Net-(P1-CMD{slash}MOSI)*%
X164350000Y-84088200D02*
X164351000Y-84088200D01*
X164351000Y-84088200D02*
X164406000Y-84144100D01*
X164462000Y-81854700D02*
X164462000Y-81520100D01*
X164462000Y-81854700D02*
X164462000Y-81520100D01*
X164239000Y-82413900D02*
X164462000Y-82190300D01*
X164406000Y-84144100D02*
X164434000Y-84172000D01*
X164406000Y-84144100D02*
X164407000Y-84144100D01*
X164239000Y-83976400D02*
X164350000Y-84088200D01*
X164462000Y-84200000D02*
X164434000Y-84172000D01*
X164407000Y-84144100D02*
X164462000Y-84200000D01*
X164462000Y-81855200D02*
X164462000Y-81854700D01*
X164462500Y-84200000D02*
X164462000Y-84200000D01*
X164406000Y-84144100D02*
X164350000Y-84088200D01*
X164462500Y-80850000D02*
X164462000Y-80850000D01*
X164462000Y-82190300D02*
X164462000Y-81855200D01*
X164239000Y-82413900D02*
X164239000Y-83976400D01*
X164434000Y-84172000D02*
X164406000Y-84144100D01*
X164434000Y-84172000D02*
X164462000Y-84200000D01*
X164462000Y-81520100D02*
X164462000Y-80850000D01*
X164462000Y-81855200D02*
X164462000Y-81854700D01*
%TO.N,Net-(SW1-B)*%
X165900000Y-122756000D02*
X165900000Y-121422000D01*
X161605000Y-100321000D02*
X157260000Y-95976700D01*
X157260000Y-95976700D02*
X157260000Y-94900000D01*
X165900000Y-122756000D02*
X165900000Y-121422000D01*
X165900000Y-120088000D02*
X165899800Y-120087700D01*
X169390000Y-126500000D02*
X169302000Y-126412000D01*
X165900000Y-121422000D02*
X165900000Y-120088000D01*
X165900000Y-121422000D02*
X165900000Y-120088000D01*
X161605000Y-115792000D02*
X161605000Y-100321000D01*
X165900000Y-126412000D02*
X165900000Y-122756000D01*
X165899800Y-120087700D02*
X161605000Y-115792000D01*
X165900000Y-120087500D02*
X165899800Y-120087700D01*
X165900500Y-126412000D02*
X165900000Y-126412000D01*
X165900500Y-126412000D02*
X165900000Y-126412500D01*
X169302000Y-126412000D02*
X165900500Y-126412000D01*
%TO.N,SCK*%
X161338000Y-77406100D02*
X161338000Y-77429500D01*
X147025000Y-124360000D02*
X147025000Y-109996000D01*
X159348000Y-136683000D02*
X147025000Y-124360000D01*
X161338000Y-77429500D02*
X161338000Y-77430000D01*
X148855000Y-108268000D02*
X148855000Y-105264000D01*
X145500000Y-74435000D02*
X144230000Y-73165000D01*
X144230000Y-73165000D02*
X145414000Y-71980500D01*
X145414000Y-71980500D02*
X155912000Y-71980500D01*
X161338000Y-77453000D02*
X161338000Y-77476500D01*
X148387000Y-108634000D02*
X148489000Y-108634000D01*
X161338000Y-77430000D02*
X161338000Y-77453000D01*
X161337500Y-77477000D02*
X161337500Y-77500000D01*
X148205000Y-94786700D02*
X145500000Y-92081500D01*
X161338000Y-77430000D02*
X161338000Y-77453000D01*
X148489000Y-108634000D02*
X148855000Y-108268000D01*
X161338000Y-77476500D02*
X161337500Y-77477000D01*
X159630000Y-136683000D02*
X159348000Y-136683000D01*
X148205000Y-104614000D02*
X148205000Y-94786700D01*
X161338000Y-77429500D02*
X161338000Y-77430000D01*
X145500000Y-92081500D02*
X145500000Y-74435000D01*
X155912000Y-71980500D02*
X161338000Y-77406100D01*
X159630000Y-137810000D02*
X159630000Y-136683000D01*
X161338000Y-77476500D02*
X161338000Y-77500000D01*
X147025000Y-109996000D02*
X148387000Y-108634000D01*
X148855000Y-105264000D02*
X148205000Y-104614000D01*
%TO.N,MISO*%
X148032000Y-81644000D02*
X147781000Y-81895500D01*
X141637000Y-134212000D02*
X141637000Y-109821000D01*
X148032000Y-74427300D02*
X148032000Y-81644000D01*
X141637000Y-109821000D02*
X139739000Y-107924000D01*
X146770000Y-73165000D02*
X148032000Y-74427300D01*
X139739000Y-107924000D02*
X139739000Y-92912600D01*
X144390000Y-136683000D02*
X144108000Y-136683000D01*
X144108000Y-136683000D02*
X141637000Y-134212000D01*
X144390000Y-137810000D02*
X144390000Y-136683000D01*
%TO.N,3V3*%
X171179000Y-128946000D02*
X169093000Y-128946000D01*
X139012000Y-75842500D02*
X139012000Y-110037000D01*
X148675000Y-79450600D02*
X148675000Y-79945000D01*
X146722500Y-145327500D02*
X146722000Y-145328000D01*
X157288000Y-86199500D02*
X157288000Y-86200000D01*
X173200000Y-114788000D02*
X173200000Y-126500000D01*
X139150000Y-75705000D02*
X139012000Y-75842500D01*
X169600000Y-111188000D02*
X173200000Y-114788000D01*
X141177000Y-139782000D02*
X146722000Y-145328000D01*
X157287500Y-86200000D02*
X157288000Y-86200000D01*
X149578000Y-78547600D02*
X148675000Y-79450600D01*
X155027400Y-74500000D02*
X155027000Y-74500000D01*
X141177000Y-112201000D02*
X141177000Y-139782000D01*
X155027000Y-80139900D02*
X157188000Y-82299800D01*
X157187500Y-82300000D02*
X157188000Y-82300000D01*
X155027000Y-74500000D02*
X155027000Y-78547600D01*
X157287500Y-90000000D02*
X157288000Y-90000000D01*
X157288000Y-86199500D02*
X157288000Y-86200000D01*
X169600000Y-111188000D02*
X169600000Y-111187500D01*
X139012000Y-110037000D02*
X141177000Y-112201000D01*
X157188000Y-82300000D02*
X157188000Y-82299800D01*
X157188000Y-86100000D02*
X157288000Y-86199500D01*
X173200000Y-126925000D02*
X171179000Y-128946000D01*
X173200000Y-126500000D02*
X173200000Y-126925000D01*
X157288000Y-86200000D02*
X157288000Y-90000000D01*
X157188000Y-82299800D02*
X157188000Y-82300000D01*
X157188000Y-82300000D02*
X157188000Y-86100000D01*
X155027000Y-78547600D02*
X149578000Y-78547600D01*
X155027000Y-78547600D02*
X155027000Y-80139900D01*
%TO.N,nRF_CS*%
X141690000Y-90723000D02*
X141690000Y-75705000D01*
X144390000Y-125110000D02*
X144390000Y-123983000D01*
X143195000Y-123070000D02*
X143195000Y-92227900D01*
X144108000Y-123983000D02*
X143195000Y-123070000D01*
X144390000Y-123983000D02*
X144108000Y-123983000D01*
X143195000Y-92227900D02*
X141690000Y-90723000D01*
%TO.N,5V*%
X175000000Y-99487500D02*
X165350000Y-99487500D01*
X165350000Y-100716000D02*
X165350000Y-99487500D01*
X165160000Y-100907000D02*
X165350000Y-100716000D01*
X165350000Y-99487500D02*
X165350000Y-99300000D01*
%TD*%
%TA.AperFunction,Conductor*%
%TO.N,GND*%
G36*
X174319000Y-138610160D02*
G01*
X174344964Y-138707061D01*
X174395124Y-138793940D01*
X174466060Y-138864876D01*
X174552939Y-138915036D01*
X174649840Y-138941000D01*
X174672552Y-138941000D01*
X174001283Y-139612268D01*
X174001283Y-139612269D01*
X174038567Y-139639358D01*
X174215562Y-139729542D01*
X174404477Y-139790924D01*
X174600679Y-139822000D01*
X174799321Y-139822000D01*
X174995520Y-139790924D01*
X174995523Y-139790924D01*
X175184437Y-139729542D01*
X175286205Y-139677689D01*
X175354874Y-139664793D01*
X175419615Y-139691069D01*
X175459872Y-139748176D01*
X175466500Y-139788174D01*
X175466500Y-144700872D01*
X175446815Y-144767911D01*
X175430202Y-144788533D01*
X174357342Y-145861898D01*
X174296027Y-145895397D01*
X174226334Y-145890429D01*
X174170390Y-145848571D01*
X174148023Y-145798428D01*
X174133934Y-145727599D01*
X174117819Y-145646583D01*
X174107505Y-145621682D01*
X174045870Y-145472881D01*
X174045863Y-145472868D01*
X173941408Y-145316542D01*
X173941405Y-145316538D01*
X173808461Y-145183594D01*
X173808457Y-145183591D01*
X173652122Y-145079131D01*
X173652118Y-145079129D01*
X173602046Y-145058388D01*
X173547643Y-145014547D01*
X173525579Y-144948252D01*
X173525500Y-144943828D01*
X173525500Y-139383238D01*
X173545185Y-139316199D01*
X173597989Y-139270444D01*
X173644164Y-139262282D01*
X174319000Y-138587446D01*
X174319000Y-138610160D01*
G37*
%TD.AperFunction*%
%TA.AperFunction,Conductor*%
G36*
X175344093Y-103754481D02*
G01*
X175347927Y-103753536D01*
X175377509Y-103763648D01*
X175407666Y-103771921D01*
X175410305Y-103774858D01*
X175414041Y-103776136D01*
X175433461Y-103800637D01*
X175454357Y-103823900D01*
X175455342Y-103828244D01*
X175457441Y-103830892D01*
X175458607Y-103842631D01*
X175466500Y-103877417D01*
X175466500Y-137331825D01*
X175446815Y-137398864D01*
X175394011Y-137444619D01*
X175324853Y-137454563D01*
X175286206Y-137442310D01*
X175184440Y-137390458D01*
X174995522Y-137329075D01*
X174799321Y-137298000D01*
X174600679Y-137298000D01*
X174404479Y-137329075D01*
X174404476Y-137329075D01*
X174215562Y-137390457D01*
X174038564Y-137480643D01*
X174001283Y-137507729D01*
X174001282Y-137507730D01*
X174672553Y-138179000D01*
X174649840Y-138179000D01*
X174552939Y-138204964D01*
X174466060Y-138255124D01*
X174395124Y-138326060D01*
X174344964Y-138412939D01*
X174319000Y-138509840D01*
X174319000Y-138532552D01*
X173643527Y-137857079D01*
X173590851Y-137846014D01*
X173541095Y-137796962D01*
X173525500Y-137736760D01*
X173525500Y-133798189D01*
X173545185Y-133731150D01*
X173561819Y-133710508D01*
X174250498Y-133021829D01*
X174960465Y-132311862D01*
X174965632Y-132302911D01*
X174995257Y-132251600D01*
X174995258Y-132251596D01*
X174995266Y-132251584D01*
X175003318Y-132237638D01*
X175025500Y-132154853D01*
X175025500Y-103989830D01*
X175028815Y-103978539D01*
X175027652Y-103966828D01*
X175038479Y-103945627D01*
X175045185Y-103922791D01*
X175054882Y-103913508D01*
X175059431Y-103904603D01*
X175076364Y-103892947D01*
X175087091Y-103882680D01*
X175094318Y-103878470D01*
X175155915Y-103852956D01*
X175276789Y-103772189D01*
X175280091Y-103770267D01*
X175310450Y-103762779D01*
X175340286Y-103753437D01*
X175344093Y-103754481D01*
G37*
%TD.AperFunction*%
%TA.AperFunction,Conductor*%
G36*
X142175000Y-96500000D02*
G01*
X142745500Y-96500000D01*
X142812539Y-96519685D01*
X142858294Y-96572489D01*
X142869500Y-96624000D01*
X142869500Y-123112852D01*
X142891682Y-123195640D01*
X142913108Y-123232750D01*
X142934535Y-123269862D01*
X142934537Y-123269864D01*
X143792434Y-124127761D01*
X143825919Y-124189084D01*
X143820935Y-124258776D01*
X143779063Y-124314709D01*
X143773644Y-124318544D01*
X143752218Y-124332860D01*
X143752214Y-124332863D01*
X143612863Y-124472214D01*
X143612860Y-124472218D01*
X143503371Y-124636079D01*
X143503364Y-124636092D01*
X143427950Y-124818160D01*
X143427947Y-124818170D01*
X143389500Y-125011456D01*
X143389500Y-125011459D01*
X143389500Y-125208541D01*
X143389500Y-125208543D01*
X143389499Y-125208543D01*
X143427947Y-125401829D01*
X143427950Y-125401839D01*
X143503364Y-125583907D01*
X143503371Y-125583920D01*
X143612860Y-125747781D01*
X143612863Y-125747785D01*
X143752214Y-125887136D01*
X143752218Y-125887139D01*
X143916079Y-125996628D01*
X143916092Y-125996635D01*
X144085524Y-126066815D01*
X144098165Y-126072051D01*
X144098169Y-126072051D01*
X144098170Y-126072052D01*
X144291456Y-126110500D01*
X144291459Y-126110500D01*
X144488543Y-126110500D01*
X144618582Y-126084632D01*
X144681835Y-126072051D01*
X144863914Y-125996632D01*
X144914996Y-125962500D01*
X144998609Y-125906632D01*
X145065287Y-125885754D01*
X145132667Y-125904238D01*
X145179357Y-125956217D01*
X145191500Y-126009734D01*
X145191500Y-126750265D01*
X145171815Y-126817304D01*
X145119011Y-126863059D01*
X145049853Y-126873003D01*
X144998610Y-126853367D01*
X144863925Y-126763374D01*
X144863907Y-126763364D01*
X144681839Y-126687950D01*
X144681829Y-126687947D01*
X144488543Y-126649500D01*
X144488541Y-126649500D01*
X144291459Y-126649500D01*
X144291457Y-126649500D01*
X144098170Y-126687947D01*
X144098160Y-126687950D01*
X143916092Y-126763364D01*
X143916079Y-126763371D01*
X143752218Y-126872860D01*
X143752214Y-126872863D01*
X143612863Y-127012214D01*
X143612860Y-127012218D01*
X143503371Y-127176079D01*
X143503364Y-127176092D01*
X143427950Y-127358160D01*
X143427947Y-127358170D01*
X143389500Y-127551456D01*
X143389500Y-127551459D01*
X143389500Y-127748541D01*
X143389500Y-127748543D01*
X143389499Y-127748543D01*
X143427947Y-127941829D01*
X143427950Y-127941839D01*
X143503364Y-128123907D01*
X143503371Y-128123920D01*
X143612860Y-128287781D01*
X143612863Y-128287785D01*
X143752214Y-128427136D01*
X143752218Y-128427139D01*
X143916079Y-128536628D01*
X143916092Y-128536635D01*
X144091852Y-128609436D01*
X144098165Y-128612051D01*
X144098169Y-128612051D01*
X144098170Y-128612052D01*
X144291456Y-128650500D01*
X144291459Y-128650500D01*
X144488543Y-128650500D01*
X144645960Y-128619187D01*
X144681835Y-128612051D01*
X144863914Y-128536632D01*
X144885504Y-128522206D01*
X144998609Y-128446632D01*
X145065287Y-128425754D01*
X145132667Y-128444238D01*
X145179357Y-128496217D01*
X145191500Y-128549734D01*
X145191500Y-129290265D01*
X145171815Y-129357304D01*
X145119011Y-129403059D01*
X145049853Y-129413003D01*
X144998610Y-129393367D01*
X144863925Y-129303374D01*
X144863907Y-129303364D01*
X144681839Y-129227950D01*
X144681829Y-129227947D01*
X144488543Y-129189500D01*
X144488541Y-129189500D01*
X144291459Y-129189500D01*
X144291457Y-129189500D01*
X144098170Y-129227947D01*
X144098160Y-129227950D01*
X143916092Y-129303364D01*
X143916079Y-129303371D01*
X143752218Y-129412860D01*
X143752214Y-129412863D01*
X143612863Y-129552214D01*
X143612860Y-129552218D01*
X143503371Y-129716079D01*
X143503364Y-129716092D01*
X143427950Y-129898160D01*
X143427947Y-129898170D01*
X143389500Y-130091456D01*
X143389500Y-130091459D01*
X143389500Y-130288541D01*
X143389500Y-130288543D01*
X143389499Y-130288543D01*
X143427947Y-130481829D01*
X143427950Y-130481839D01*
X143503364Y-130663907D01*
X143503371Y-130663920D01*
X143612860Y-130827781D01*
X143612863Y-130827785D01*
X143752214Y-130967136D01*
X143752218Y-130967139D01*
X143916079Y-131076628D01*
X143916092Y-131076635D01*
X144098160Y-131152049D01*
X144098165Y-131152051D01*
X144106225Y-131153654D01*
X144168137Y-131186037D01*
X144202713Y-131246751D01*
X144198976Y-131316521D01*
X144169720Y-131362952D01*
X144129536Y-131403136D01*
X144129530Y-131403144D01*
X144086685Y-131477355D01*
X144086682Y-131477362D01*
X144064500Y-131560147D01*
X144064500Y-131699038D01*
X144044815Y-131766077D01*
X143992011Y-131811832D01*
X143987953Y-131813599D01*
X143916089Y-131843366D01*
X143916079Y-131843371D01*
X143752218Y-131952860D01*
X143752214Y-131952863D01*
X143612863Y-132092214D01*
X143612860Y-132092218D01*
X143503371Y-132256079D01*
X143503364Y-132256092D01*
X143427950Y-132438160D01*
X143427947Y-132438170D01*
X143389500Y-132631456D01*
X143389500Y-132664811D01*
X143369815Y-132731850D01*
X143317011Y-132777605D01*
X143247853Y-132787549D01*
X143184297Y-132758524D01*
X143177819Y-132752492D01*
X142458819Y-132033492D01*
X142425334Y-131972169D01*
X142422500Y-131945811D01*
X142422500Y-97548194D01*
X142422502Y-97491057D01*
X142422500Y-97491049D01*
X142422500Y-97491047D01*
X142415856Y-97466254D01*
X142400322Y-97408271D01*
X142400319Y-97408265D01*
X142400318Y-97408262D01*
X142380435Y-97373823D01*
X142359304Y-97337221D01*
X142357832Y-97334485D01*
X142357600Y-97334173D01*
X142325821Y-97302394D01*
X142149438Y-97126000D01*
X141686910Y-96663442D01*
X141653428Y-96602120D01*
X141658415Y-96532429D01*
X141675000Y-96506623D01*
X141675000Y-95475277D01*
X141751306Y-95519333D01*
X141865756Y-95550000D01*
X141984244Y-95550000D01*
X142098694Y-95519333D01*
X142175000Y-95475277D01*
X142175000Y-96500000D01*
G37*
%TD.AperFunction*%
%TA.AperFunction,Conductor*%
G36*
X173903653Y-102232185D02*
G01*
X173949408Y-102284989D01*
X173959352Y-102354147D01*
X173939716Y-102405390D01*
X173847045Y-102544082D01*
X173847043Y-102544086D01*
X173774488Y-102719248D01*
X173774486Y-102719256D01*
X173737500Y-102905197D01*
X173737500Y-103094802D01*
X173774486Y-103280743D01*
X173774488Y-103280751D01*
X173847042Y-103455912D01*
X173952377Y-103613558D01*
X174086438Y-103747619D01*
X174086442Y-103747622D01*
X174244078Y-103852952D01*
X174244087Y-103852957D01*
X174297953Y-103875269D01*
X174352356Y-103919110D01*
X174374421Y-103985404D01*
X174374500Y-103989830D01*
X174374500Y-131925811D01*
X174354815Y-131992850D01*
X174338181Y-132013492D01*
X173906285Y-132445387D01*
X173844962Y-132478872D01*
X173775270Y-132473888D01*
X173719337Y-132432016D01*
X173694920Y-132366552D01*
X173695899Y-132339833D01*
X173700500Y-132308260D01*
X173700500Y-130591740D01*
X173690573Y-130523607D01*
X173639198Y-130418517D01*
X173639196Y-130418515D01*
X173639196Y-130418514D01*
X173556485Y-130335803D01*
X173451391Y-130284426D01*
X173383261Y-130274500D01*
X173383260Y-130274500D01*
X173016740Y-130274500D01*
X173016739Y-130274500D01*
X172948608Y-130284426D01*
X172843514Y-130335803D01*
X172760803Y-130418514D01*
X172709426Y-130523608D01*
X172699500Y-130591739D01*
X172699500Y-131909811D01*
X172690855Y-131939251D01*
X172684332Y-131969238D01*
X172680577Y-131974253D01*
X172679815Y-131976850D01*
X172663181Y-131997492D01*
X172642181Y-132018492D01*
X172580858Y-132051977D01*
X172511166Y-132046993D01*
X172455233Y-132005121D01*
X172430816Y-131939657D01*
X172430500Y-131930811D01*
X172430500Y-130591739D01*
X172420573Y-130523608D01*
X172410540Y-130503085D01*
X172369198Y-130418517D01*
X172369196Y-130418515D01*
X172369196Y-130418514D01*
X172286485Y-130335803D01*
X172181391Y-130284426D01*
X172113261Y-130274500D01*
X172113260Y-130274500D01*
X171746740Y-130274500D01*
X171746739Y-130274500D01*
X171678330Y-130284467D01*
X171609153Y-130274654D01*
X171572771Y-130249444D01*
X171133864Y-129810537D01*
X171133862Y-129810535D01*
X171096750Y-129789108D01*
X171059640Y-129767682D01*
X171018246Y-129756591D01*
X170976853Y-129745500D01*
X169368948Y-129745500D01*
X169301909Y-129725815D01*
X169256154Y-129673011D01*
X169246210Y-129603853D01*
X169275235Y-129540297D01*
X169317747Y-129509642D01*
X169317746Y-129509641D01*
X169317763Y-129509631D01*
X169321498Y-129506938D01*
X169324781Y-129505577D01*
X169324784Y-129505577D01*
X169324786Y-129505575D01*
X169324788Y-129505575D01*
X169461709Y-129426524D01*
X169461708Y-129426524D01*
X169461716Y-129426520D01*
X169573520Y-129314716D01*
X169573520Y-129314715D01*
X169579267Y-129308969D01*
X169581512Y-129311214D01*
X169625855Y-129278821D01*
X169667830Y-129271500D01*
X171221851Y-129271500D01*
X171221853Y-129271500D01*
X171304639Y-129249318D01*
X171378862Y-129206465D01*
X172879430Y-127705894D01*
X172940751Y-127672411D01*
X172984984Y-127670873D01*
X173016740Y-127675500D01*
X173016742Y-127675500D01*
X173383261Y-127675500D01*
X173415017Y-127670873D01*
X173451393Y-127665573D01*
X173556483Y-127614198D01*
X173639198Y-127531483D01*
X173690573Y-127426393D01*
X173700500Y-127358260D01*
X173700500Y-125641740D01*
X173690573Y-125573607D01*
X173639198Y-125468517D01*
X173639196Y-125468515D01*
X173639196Y-125468514D01*
X173561819Y-125391137D01*
X173528334Y-125329814D01*
X173525500Y-125303456D01*
X173525500Y-114745149D01*
X173525500Y-114745147D01*
X173503318Y-114662362D01*
X173503318Y-114662361D01*
X173481891Y-114625250D01*
X173460465Y-114588138D01*
X173399862Y-114527535D01*
X173399861Y-114527534D01*
X173395531Y-114523204D01*
X173395520Y-114523194D01*
X170708240Y-111835913D01*
X170674755Y-111774590D01*
X170672463Y-111736655D01*
X170673747Y-111722952D01*
X170675500Y-111704265D01*
X170675499Y-110670736D01*
X170672646Y-110640302D01*
X170627793Y-110512118D01*
X170547150Y-110402850D01*
X170437882Y-110322207D01*
X170437881Y-110322206D01*
X170309695Y-110277353D01*
X170309698Y-110277353D01*
X170279268Y-110274500D01*
X168920741Y-110274500D01*
X168890301Y-110277354D01*
X168890300Y-110277354D01*
X168762118Y-110322206D01*
X168652850Y-110402850D01*
X168572206Y-110512118D01*
X168527353Y-110640302D01*
X168524500Y-110670731D01*
X168524500Y-111704258D01*
X168527354Y-111734698D01*
X168527354Y-111734699D01*
X168572206Y-111862881D01*
X168572207Y-111862882D01*
X168652850Y-111972150D01*
X168762118Y-112052793D01*
X168890302Y-112097646D01*
X168890301Y-112097646D01*
X168894271Y-112098018D01*
X168920735Y-112100500D01*
X170000810Y-112100499D01*
X170067849Y-112120184D01*
X170088491Y-112136818D01*
X172838181Y-114886507D01*
X172871666Y-114947830D01*
X172874500Y-114974188D01*
X172874500Y-125288248D01*
X172854815Y-125355287D01*
X172802011Y-125401042D01*
X172732853Y-125410986D01*
X172669297Y-125381961D01*
X172643768Y-125351369D01*
X172597685Y-125273447D01*
X172597678Y-125273438D01*
X172481561Y-125157321D01*
X172481552Y-125157314D01*
X172340196Y-125073717D01*
X172340193Y-125073716D01*
X172182494Y-125027900D01*
X172182497Y-125027900D01*
X172180000Y-125027703D01*
X172180000Y-126376000D01*
X172160315Y-126443039D01*
X172107511Y-126488794D01*
X172056000Y-126500000D01*
X171804000Y-126500000D01*
X171736961Y-126480315D01*
X171691206Y-126427511D01*
X171680000Y-126376000D01*
X171680000Y-125027703D01*
X171677503Y-125027900D01*
X171519806Y-125073716D01*
X171519803Y-125073717D01*
X171378447Y-125157314D01*
X171378438Y-125157321D01*
X171262321Y-125273438D01*
X171262314Y-125273447D01*
X171216232Y-125351369D01*
X171165163Y-125399053D01*
X171096421Y-125411556D01*
X171031832Y-125384911D01*
X170991902Y-125327575D01*
X170985500Y-125288248D01*
X170985500Y-121924855D01*
X170985501Y-121924842D01*
X170985501Y-121829148D01*
X170985501Y-121829147D01*
X170963318Y-121746361D01*
X170941891Y-121709250D01*
X170920465Y-121672138D01*
X170859862Y-121611535D01*
X170859859Y-121611533D01*
X167180862Y-117932535D01*
X167008325Y-117759998D01*
X166974840Y-117698675D01*
X166972548Y-117660737D01*
X166972645Y-117659700D01*
X166972646Y-117659698D01*
X166975500Y-117629265D01*
X166975499Y-116595736D01*
X166972646Y-116565302D01*
X166927793Y-116437118D01*
X166847150Y-116327850D01*
X166737882Y-116247207D01*
X166737881Y-116247206D01*
X166609695Y-116202353D01*
X166609698Y-116202353D01*
X166579269Y-116199500D01*
X166579265Y-116199500D01*
X166349500Y-116199500D01*
X166282461Y-116179815D01*
X166236706Y-116127011D01*
X166225500Y-116075500D01*
X166225500Y-112224499D01*
X166245185Y-112157460D01*
X166297989Y-112111705D01*
X166349500Y-112100499D01*
X166679258Y-112100499D01*
X166679264Y-112100499D01*
X166709698Y-112097646D01*
X166837882Y-112052793D01*
X166947150Y-111972150D01*
X167027793Y-111862882D01*
X167072646Y-111734698D01*
X167075500Y-111704265D01*
X167075499Y-110670736D01*
X167072646Y-110640302D01*
X167027793Y-110512118D01*
X166947150Y-110402850D01*
X166837882Y-110322207D01*
X166837881Y-110322206D01*
X166709695Y-110277353D01*
X166709698Y-110277353D01*
X166679269Y-110274500D01*
X166679265Y-110274500D01*
X165598469Y-110274500D01*
X165531430Y-110254815D01*
X165510771Y-110238164D01*
X165509673Y-110237066D01*
X164365913Y-109092860D01*
X163998181Y-108724985D01*
X164625000Y-108724985D01*
X164635493Y-108827689D01*
X164635494Y-108827696D01*
X164690641Y-108994118D01*
X164690643Y-108994123D01*
X164782684Y-109143344D01*
X164906655Y-109267315D01*
X165055876Y-109359356D01*
X165055881Y-109359358D01*
X165222303Y-109414505D01*
X165222310Y-109414506D01*
X165325014Y-109424999D01*
X165325027Y-109425000D01*
X165750000Y-109425000D01*
X166250000Y-109425000D01*
X166674973Y-109425000D01*
X166674985Y-109424999D01*
X166777689Y-109414506D01*
X166777696Y-109414505D01*
X166944118Y-109359358D01*
X166944123Y-109359356D01*
X167093344Y-109267315D01*
X167217315Y-109143344D01*
X167309356Y-108994123D01*
X167309358Y-108994118D01*
X167364505Y-108827696D01*
X167364506Y-108827689D01*
X167374999Y-108724985D01*
X168225000Y-108724985D01*
X168235493Y-108827689D01*
X168235494Y-108827696D01*
X168290641Y-108994118D01*
X168290643Y-108994123D01*
X168382684Y-109143344D01*
X168506655Y-109267315D01*
X168655876Y-109359356D01*
X168655881Y-109359358D01*
X168822303Y-109414505D01*
X168822310Y-109414506D01*
X168925014Y-109424999D01*
X168925027Y-109425000D01*
X169350000Y-109425000D01*
X169850000Y-109425000D01*
X170274973Y-109425000D01*
X170274985Y-109424999D01*
X170377689Y-109414506D01*
X170377696Y-109414505D01*
X170544118Y-109359358D01*
X170544123Y-109359356D01*
X170693344Y-109267315D01*
X170817315Y-109143344D01*
X170909356Y-108994123D01*
X170909358Y-108994118D01*
X170964505Y-108827696D01*
X170964506Y-108827689D01*
X170974999Y-108724985D01*
X170975000Y-108724972D01*
X170975000Y-108462500D01*
X169850000Y-108462500D01*
X169850000Y-109425000D01*
X169350000Y-109425000D01*
X169350000Y-108462500D01*
X168225000Y-108462500D01*
X168225000Y-108724985D01*
X167374999Y-108724985D01*
X167375000Y-108724972D01*
X167375000Y-108462500D01*
X166250000Y-108462500D01*
X166250000Y-109425000D01*
X165750000Y-109425000D01*
X165750000Y-108462500D01*
X164625000Y-108462500D01*
X164625000Y-108724985D01*
X163998181Y-108724985D01*
X163793802Y-108520526D01*
X163779110Y-108493607D01*
X163762523Y-108467797D01*
X163761628Y-108461577D01*
X163760329Y-108459196D01*
X163757500Y-108432862D01*
X163757500Y-107700014D01*
X164625000Y-107700014D01*
X164625000Y-107962500D01*
X165750000Y-107962500D01*
X166250000Y-107962500D01*
X167375000Y-107962500D01*
X167375000Y-107700027D01*
X167374999Y-107700014D01*
X168225000Y-107700014D01*
X168225000Y-107962500D01*
X169350000Y-107962500D01*
X169850000Y-107962500D01*
X170975000Y-107962500D01*
X170975000Y-107700027D01*
X170974999Y-107700014D01*
X170964506Y-107597310D01*
X170964505Y-107597303D01*
X170909358Y-107430881D01*
X170909356Y-107430876D01*
X170817315Y-107281655D01*
X170693344Y-107157684D01*
X170544123Y-107065643D01*
X170544118Y-107065641D01*
X170377696Y-107010494D01*
X170377689Y-107010493D01*
X170274985Y-107000000D01*
X169850000Y-107000000D01*
X169850000Y-107962500D01*
X169350000Y-107962500D01*
X169350000Y-107000000D01*
X168925014Y-107000000D01*
X168822310Y-107010493D01*
X168822303Y-107010494D01*
X168655881Y-107065641D01*
X168655876Y-107065643D01*
X168506655Y-107157684D01*
X168382684Y-107281655D01*
X168290643Y-107430876D01*
X168290641Y-107430881D01*
X168235494Y-107597303D01*
X168235493Y-107597310D01*
X168225000Y-107700014D01*
X167374999Y-107700014D01*
X167364506Y-107597310D01*
X167364505Y-107597303D01*
X167309358Y-107430881D01*
X167309356Y-107430876D01*
X167217315Y-107281655D01*
X167093344Y-107157684D01*
X166944123Y-107065643D01*
X166944118Y-107065641D01*
X166777696Y-107010494D01*
X166777689Y-107010493D01*
X166674985Y-107000000D01*
X166250000Y-107000000D01*
X166250000Y-107962500D01*
X165750000Y-107962500D01*
X165750000Y-107000000D01*
X165325014Y-107000000D01*
X165222310Y-107010493D01*
X165222303Y-107010494D01*
X165055881Y-107065641D01*
X165055876Y-107065643D01*
X164906655Y-107157684D01*
X164782684Y-107281655D01*
X164690643Y-107430876D01*
X164690641Y-107430881D01*
X164635494Y-107597303D01*
X164635493Y-107597310D01*
X164625000Y-107700014D01*
X163757500Y-107700014D01*
X163757500Y-103866726D01*
X163777185Y-103799687D01*
X163829989Y-103753932D01*
X163899147Y-103743988D01*
X163950390Y-103763623D01*
X164084085Y-103852956D01*
X164259249Y-103925512D01*
X164402781Y-103954062D01*
X164445197Y-103962499D01*
X164445201Y-103962500D01*
X164445202Y-103962500D01*
X164634799Y-103962500D01*
X164634800Y-103962499D01*
X164820751Y-103925512D01*
X164995915Y-103852956D01*
X165153558Y-103747622D01*
X165287622Y-103613558D01*
X165392956Y-103455915D01*
X165465512Y-103280751D01*
X165502500Y-103094798D01*
X165502500Y-102905202D01*
X165465512Y-102719249D01*
X165443197Y-102665379D01*
X165435729Y-102595911D01*
X165467003Y-102533432D01*
X165470018Y-102530306D01*
X165751508Y-102248816D01*
X165812830Y-102215334D01*
X165839188Y-102212500D01*
X173836614Y-102212500D01*
X173903653Y-102232185D01*
G37*
%TD.AperFunction*%
%TA.AperFunction,Conductor*%
G36*
X156877539Y-95870185D02*
G01*
X156923294Y-95922989D01*
X156934500Y-95974500D01*
X156934500Y-96019570D01*
X156946610Y-96064747D01*
X156946611Y-96064761D01*
X156946613Y-96064761D01*
X156956684Y-96102351D01*
X156956702Y-96102394D01*
X156957067Y-96103014D01*
X156977202Y-96137881D01*
X156977203Y-96137882D01*
X156986009Y-96153134D01*
X156999535Y-96176562D01*
X156999549Y-96176580D01*
X156999551Y-96176583D01*
X157030576Y-96207603D01*
X157060138Y-96237165D01*
X157060149Y-96237171D01*
X161243175Y-100419522D01*
X161276664Y-100480841D01*
X161279500Y-100507209D01*
X161279500Y-115787217D01*
X161279494Y-115834821D01*
X161279498Y-115834848D01*
X161279521Y-115834931D01*
X161289844Y-115873457D01*
X161289845Y-115873469D01*
X161289847Y-115873469D01*
X161301458Y-115916821D01*
X161301670Y-115917610D01*
X161301680Y-115917635D01*
X161301682Y-115917638D01*
X161320648Y-115950488D01*
X161320651Y-115950500D01*
X161320654Y-115950499D01*
X161320655Y-115950500D01*
X161344514Y-115991834D01*
X161344518Y-115991838D01*
X161344530Y-115991854D01*
X161344535Y-115991862D01*
X161377906Y-116025233D01*
X163953763Y-118601630D01*
X164791707Y-119439749D01*
X164825186Y-119501076D01*
X164827476Y-119538996D01*
X164824500Y-119570739D01*
X164824500Y-120604258D01*
X164827354Y-120634698D01*
X164827354Y-120634699D01*
X164872206Y-120762881D01*
X164872207Y-120762882D01*
X164952850Y-120872150D01*
X165062118Y-120952793D01*
X165190302Y-120997646D01*
X165190301Y-120997646D01*
X165194867Y-120998074D01*
X165220735Y-121000500D01*
X165450500Y-121000499D01*
X165517539Y-121020183D01*
X165563294Y-121072987D01*
X165574500Y-121124499D01*
X165574500Y-125375500D01*
X165554815Y-125442539D01*
X165502011Y-125488294D01*
X165450501Y-125499500D01*
X165220742Y-125499500D01*
X165190301Y-125502354D01*
X165190300Y-125502354D01*
X165062118Y-125547206D01*
X164952850Y-125627850D01*
X164872206Y-125737118D01*
X164827353Y-125865302D01*
X164824500Y-125895731D01*
X164824500Y-126929258D01*
X164827354Y-126959698D01*
X164827354Y-126959699D01*
X164872206Y-127087881D01*
X164872207Y-127087882D01*
X164952850Y-127197150D01*
X165062118Y-127277793D01*
X165190302Y-127322646D01*
X165190301Y-127322646D01*
X165194271Y-127323018D01*
X165220735Y-127325500D01*
X166579264Y-127325499D01*
X166609698Y-127322646D01*
X166737882Y-127277793D01*
X166847150Y-127197150D01*
X166927793Y-127087882D01*
X166972646Y-126959698D01*
X166975500Y-126929265D01*
X166975500Y-126861500D01*
X166995185Y-126794461D01*
X167047989Y-126748706D01*
X167099500Y-126737500D01*
X168765500Y-126737500D01*
X168832539Y-126757185D01*
X168878294Y-126809989D01*
X168889500Y-126861500D01*
X168889500Y-127358260D01*
X168899426Y-127426392D01*
X168899426Y-127426393D01*
X168901210Y-127430041D01*
X168902020Y-127434786D01*
X168902270Y-127435595D01*
X168902163Y-127435627D01*
X168912968Y-127498914D01*
X168885625Y-127563211D01*
X168827860Y-127602517D01*
X168789809Y-127608500D01*
X167395804Y-127608500D01*
X167395752Y-127608486D01*
X167351312Y-127608500D01*
X167310135Y-127608500D01*
X167310046Y-127608512D01*
X167267914Y-127619815D01*
X167267880Y-127619825D01*
X167227352Y-127630684D01*
X167227272Y-127630717D01*
X167190265Y-127652098D01*
X167189836Y-127652346D01*
X167153138Y-127673535D01*
X167153100Y-127673572D01*
X167153058Y-127673597D01*
X167152833Y-127673821D01*
X167152831Y-127673823D01*
X167124009Y-127702663D01*
X167123986Y-127702686D01*
X167087052Y-127739621D01*
X167086895Y-127739800D01*
X166388973Y-128438154D01*
X166327661Y-128471658D01*
X166301265Y-128474500D01*
X165220741Y-128474500D01*
X165190301Y-128477354D01*
X165190300Y-128477354D01*
X165062118Y-128522206D01*
X164952850Y-128602850D01*
X164872206Y-128712118D01*
X164827353Y-128840302D01*
X164824500Y-128870731D01*
X164824500Y-129497811D01*
X164804815Y-129564850D01*
X164752011Y-129610605D01*
X164682853Y-129620549D01*
X164619297Y-129591524D01*
X164612819Y-129585492D01*
X162306819Y-127279492D01*
X162273334Y-127218169D01*
X162270500Y-127191811D01*
X162270500Y-122302149D01*
X162270500Y-122302147D01*
X162248318Y-122219362D01*
X162248314Y-122219355D01*
X162205469Y-122145144D01*
X162205463Y-122145136D01*
X160589162Y-120528835D01*
X160555677Y-120467512D01*
X160560661Y-120397820D01*
X160562251Y-120393776D01*
X160592051Y-120321835D01*
X160630500Y-120128541D01*
X160630500Y-119931459D01*
X160630500Y-119931456D01*
X160592052Y-119738170D01*
X160592051Y-119738169D01*
X160592051Y-119738165D01*
X160592049Y-119738160D01*
X160516635Y-119556092D01*
X160516628Y-119556079D01*
X160407139Y-119392218D01*
X160407136Y-119392214D01*
X160267785Y-119252863D01*
X160267781Y-119252860D01*
X160103920Y-119143371D01*
X160103910Y-119143366D01*
X160032047Y-119113599D01*
X159977643Y-119069757D01*
X159955579Y-119003463D01*
X159955500Y-118999038D01*
X159955500Y-118860149D01*
X159955500Y-118860147D01*
X159933318Y-118777362D01*
X159933314Y-118777355D01*
X159890469Y-118703144D01*
X159890463Y-118703136D01*
X159850280Y-118662953D01*
X159816795Y-118601630D01*
X159821779Y-118531938D01*
X159863651Y-118476005D01*
X159913771Y-118453654D01*
X159921835Y-118452051D01*
X160103914Y-118376632D01*
X160267782Y-118267139D01*
X160407139Y-118127782D01*
X160516632Y-117963914D01*
X160592051Y-117781835D01*
X160616346Y-117659698D01*
X160630500Y-117588543D01*
X160630500Y-117391456D01*
X160592052Y-117198170D01*
X160592051Y-117198169D01*
X160592051Y-117198165D01*
X160592049Y-117198160D01*
X160516635Y-117016092D01*
X160516628Y-117016079D01*
X160407139Y-116852218D01*
X160407136Y-116852214D01*
X160267785Y-116712863D01*
X160267781Y-116712860D01*
X160103920Y-116603371D01*
X160103910Y-116603366D01*
X160032047Y-116573599D01*
X159977643Y-116529757D01*
X159955579Y-116463463D01*
X159955500Y-116459038D01*
X159955500Y-116320149D01*
X159955500Y-116320147D01*
X159933318Y-116237362D01*
X159933314Y-116237355D01*
X159890469Y-116163144D01*
X159890463Y-116163136D01*
X159850280Y-116122953D01*
X159816795Y-116061630D01*
X159821779Y-115991938D01*
X159863651Y-115936005D01*
X159913771Y-115913654D01*
X159921835Y-115912051D01*
X160103914Y-115836632D01*
X160267782Y-115727139D01*
X160407139Y-115587782D01*
X160516632Y-115423914D01*
X160592051Y-115241835D01*
X160630500Y-115048541D01*
X160630500Y-114851459D01*
X160630500Y-114851456D01*
X160592052Y-114658170D01*
X160592051Y-114658169D01*
X160592051Y-114658165D01*
X160576350Y-114620258D01*
X160516635Y-114476092D01*
X160516628Y-114476079D01*
X160407139Y-114312218D01*
X160407136Y-114312214D01*
X160267785Y-114172863D01*
X160267781Y-114172860D01*
X160103920Y-114063371D01*
X160103907Y-114063364D01*
X159921839Y-113987950D01*
X159921829Y-113987947D01*
X159728543Y-113949500D01*
X159728541Y-113949500D01*
X159531459Y-113949500D01*
X159531457Y-113949500D01*
X159338170Y-113987947D01*
X159338160Y-113987950D01*
X159156092Y-114063364D01*
X159156079Y-114063371D01*
X158992218Y-114172860D01*
X158992214Y-114172863D01*
X158852863Y-114312214D01*
X158852860Y-114312218D01*
X158743371Y-114476079D01*
X158743364Y-114476092D01*
X158667950Y-114658160D01*
X158667947Y-114658170D01*
X158629500Y-114851456D01*
X158629500Y-114884811D01*
X158609815Y-114951850D01*
X158557011Y-114997605D01*
X158487853Y-115007549D01*
X158424297Y-114978524D01*
X158417819Y-114972492D01*
X156535819Y-113090492D01*
X156502334Y-113029169D01*
X156499500Y-113002811D01*
X156499500Y-112508543D01*
X158629499Y-112508543D01*
X158667947Y-112701829D01*
X158667950Y-112701839D01*
X158743364Y-112883907D01*
X158743371Y-112883920D01*
X158852860Y-113047781D01*
X158852863Y-113047785D01*
X158992214Y-113187136D01*
X158992218Y-113187139D01*
X159156079Y-113296628D01*
X159156092Y-113296635D01*
X159199561Y-113314640D01*
X159338165Y-113372051D01*
X159338169Y-113372051D01*
X159338170Y-113372052D01*
X159531456Y-113410500D01*
X159531459Y-113410500D01*
X159728543Y-113410500D01*
X159858582Y-113384632D01*
X159921835Y-113372051D01*
X160103914Y-113296632D01*
X160267782Y-113187139D01*
X160407139Y-113047782D01*
X160516632Y-112883914D01*
X160592051Y-112701835D01*
X160630500Y-112508541D01*
X160630500Y-112311459D01*
X160630500Y-112311456D01*
X160592052Y-112118170D01*
X160592051Y-112118169D01*
X160592051Y-112118165D01*
X160583552Y-112097646D01*
X160516635Y-111936092D01*
X160516628Y-111936079D01*
X160407139Y-111772218D01*
X160407136Y-111772214D01*
X160267785Y-111632863D01*
X160267781Y-111632860D01*
X160103920Y-111523371D01*
X160103907Y-111523364D01*
X159921839Y-111447950D01*
X159921829Y-111447947D01*
X159728543Y-111409500D01*
X159728541Y-111409500D01*
X159531459Y-111409500D01*
X159531457Y-111409500D01*
X159338170Y-111447947D01*
X159338160Y-111447950D01*
X159156092Y-111523364D01*
X159156079Y-111523371D01*
X158992218Y-111632860D01*
X158992214Y-111632863D01*
X158852863Y-111772214D01*
X158852860Y-111772218D01*
X158743371Y-111936079D01*
X158743364Y-111936092D01*
X158667950Y-112118160D01*
X158667947Y-112118170D01*
X158629500Y-112311456D01*
X158629500Y-112311459D01*
X158629500Y-112508541D01*
X158629500Y-112508543D01*
X158629499Y-112508543D01*
X156499500Y-112508543D01*
X156499500Y-109968543D01*
X158629499Y-109968543D01*
X158667947Y-110161829D01*
X158667950Y-110161839D01*
X158743364Y-110343907D01*
X158743371Y-110343920D01*
X158852860Y-110507781D01*
X158852863Y-110507785D01*
X158992214Y-110647136D01*
X158992218Y-110647139D01*
X159156079Y-110756628D01*
X159156092Y-110756635D01*
X159230666Y-110787524D01*
X159338165Y-110832051D01*
X159338169Y-110832051D01*
X159338170Y-110832052D01*
X159531456Y-110870500D01*
X159531459Y-110870500D01*
X159728543Y-110870500D01*
X159858582Y-110844632D01*
X159921835Y-110832051D01*
X160103914Y-110756632D01*
X160267782Y-110647139D01*
X160407139Y-110507782D01*
X160516632Y-110343914D01*
X160592051Y-110161835D01*
X160604632Y-110098582D01*
X160630500Y-109968543D01*
X160630500Y-109771456D01*
X160592052Y-109578170D01*
X160592051Y-109578169D01*
X160592051Y-109578165D01*
X160592049Y-109578160D01*
X160516635Y-109396092D01*
X160516628Y-109396079D01*
X160407139Y-109232218D01*
X160407136Y-109232214D01*
X160267785Y-109092863D01*
X160267781Y-109092860D01*
X160103920Y-108983371D01*
X160103907Y-108983364D01*
X159921839Y-108907950D01*
X159921829Y-108907947D01*
X159728543Y-108869500D01*
X159728541Y-108869500D01*
X159531459Y-108869500D01*
X159531457Y-108869500D01*
X159338170Y-108907947D01*
X159338160Y-108907950D01*
X159156092Y-108983364D01*
X159156079Y-108983371D01*
X158992218Y-109092860D01*
X158992214Y-109092863D01*
X158852863Y-109232214D01*
X158852860Y-109232218D01*
X158743371Y-109396079D01*
X158743364Y-109396092D01*
X158667950Y-109578160D01*
X158667947Y-109578170D01*
X158629500Y-109771456D01*
X158629500Y-109771459D01*
X158629500Y-109968541D01*
X158629500Y-109968543D01*
X158629499Y-109968543D01*
X156499500Y-109968543D01*
X156499500Y-104540000D01*
X158353391Y-104540000D01*
X159196988Y-104540000D01*
X159164075Y-104597007D01*
X159130000Y-104724174D01*
X159130000Y-104855826D01*
X159164075Y-104982993D01*
X159196988Y-105040000D01*
X158353391Y-105040000D01*
X158362009Y-105094413D01*
X158425244Y-105289029D01*
X158518140Y-105471349D01*
X158638417Y-105636894D01*
X158638417Y-105636895D01*
X158783104Y-105781582D01*
X158948650Y-105901859D01*
X159130968Y-105994755D01*
X159325582Y-106057990D01*
X159514268Y-106087875D01*
X159577403Y-106117804D01*
X159614334Y-106177116D01*
X159613336Y-106246978D01*
X159574726Y-106305211D01*
X159519062Y-106331965D01*
X159338170Y-106367947D01*
X159338160Y-106367950D01*
X159156092Y-106443364D01*
X159156079Y-106443371D01*
X158992218Y-106552860D01*
X158992214Y-106552863D01*
X158852863Y-106692214D01*
X158852860Y-106692218D01*
X158743371Y-106856079D01*
X158743364Y-106856092D01*
X158667950Y-107038160D01*
X158667947Y-107038170D01*
X158629500Y-107231456D01*
X158629500Y-107231459D01*
X158629500Y-107428541D01*
X158629500Y-107428543D01*
X158629499Y-107428543D01*
X158667947Y-107621829D01*
X158667950Y-107621839D01*
X158743364Y-107803907D01*
X158743371Y-107803920D01*
X158852860Y-107967781D01*
X158852863Y-107967785D01*
X158992214Y-108107136D01*
X158992218Y-108107139D01*
X159156079Y-108216628D01*
X159156092Y-108216635D01*
X159314300Y-108282166D01*
X159338165Y-108292051D01*
X159338169Y-108292051D01*
X159338170Y-108292052D01*
X159531456Y-108330500D01*
X159531459Y-108330500D01*
X159728543Y-108330500D01*
X159858582Y-108304632D01*
X159921835Y-108292051D01*
X160103914Y-108216632D01*
X160267782Y-108107139D01*
X160407139Y-107967782D01*
X160516632Y-107803914D01*
X160592051Y-107621835D01*
X160630500Y-107428541D01*
X160630500Y-107231459D01*
X160630500Y-107231456D01*
X160592052Y-107038170D01*
X160592051Y-107038169D01*
X160592051Y-107038165D01*
X160592049Y-107038160D01*
X160516635Y-106856092D01*
X160516628Y-106856079D01*
X160407139Y-106692218D01*
X160407136Y-106692214D01*
X160267785Y-106552863D01*
X160267781Y-106552860D01*
X160103920Y-106443371D01*
X160103907Y-106443364D01*
X159921839Y-106367950D01*
X159921829Y-106367947D01*
X159740937Y-106331965D01*
X159679026Y-106299580D01*
X159644452Y-106238864D01*
X159648192Y-106169095D01*
X159689059Y-106112423D01*
X159745731Y-106087875D01*
X159934417Y-106057990D01*
X160129031Y-105994755D01*
X160311349Y-105901859D01*
X160476894Y-105781582D01*
X160476895Y-105781582D01*
X160621582Y-105636895D01*
X160621582Y-105636894D01*
X160741859Y-105471349D01*
X160834755Y-105289029D01*
X160897990Y-105094413D01*
X160906609Y-105040000D01*
X160063012Y-105040000D01*
X160095925Y-104982993D01*
X160130000Y-104855826D01*
X160130000Y-104724174D01*
X160095925Y-104597007D01*
X160063012Y-104540000D01*
X160906609Y-104540000D01*
X160897990Y-104485586D01*
X160834755Y-104290970D01*
X160741859Y-104108650D01*
X160621582Y-103943105D01*
X160621582Y-103943104D01*
X160476895Y-103798417D01*
X160311349Y-103678140D01*
X160129031Y-103585244D01*
X159934417Y-103522009D01*
X159745731Y-103492124D01*
X159682596Y-103462194D01*
X159645665Y-103402883D01*
X159646663Y-103333020D01*
X159685273Y-103274788D01*
X159740938Y-103248034D01*
X159921835Y-103212051D01*
X160103914Y-103136632D01*
X160267782Y-103027139D01*
X160407139Y-102887782D01*
X160516632Y-102723914D01*
X160592051Y-102541835D01*
X160630500Y-102348541D01*
X160630500Y-102151459D01*
X160630500Y-102151456D01*
X160592052Y-101958170D01*
X160592051Y-101958169D01*
X160592051Y-101958165D01*
X160565724Y-101894605D01*
X160516635Y-101776092D01*
X160516628Y-101776079D01*
X160407139Y-101612218D01*
X160407136Y-101612214D01*
X160267785Y-101472863D01*
X160267781Y-101472860D01*
X160103920Y-101363371D01*
X160103907Y-101363364D01*
X159921839Y-101287950D01*
X159921829Y-101287947D01*
X159728543Y-101249500D01*
X159728541Y-101249500D01*
X159531459Y-101249500D01*
X159531457Y-101249500D01*
X159338170Y-101287947D01*
X159338160Y-101287950D01*
X159156092Y-101363364D01*
X159156079Y-101363371D01*
X158992218Y-101472860D01*
X158992214Y-101472863D01*
X158852863Y-101612214D01*
X158852860Y-101612218D01*
X158743371Y-101776079D01*
X158743364Y-101776092D01*
X158667950Y-101958160D01*
X158667947Y-101958170D01*
X158629500Y-102151456D01*
X158629500Y-102348540D01*
X158629499Y-102348543D01*
X158667947Y-102541829D01*
X158667950Y-102541839D01*
X158743364Y-102723907D01*
X158743371Y-102723920D01*
X158852860Y-102887781D01*
X158852863Y-102887785D01*
X158992214Y-103027136D01*
X158992218Y-103027139D01*
X159156079Y-103136628D01*
X159156092Y-103136635D01*
X159295918Y-103194552D01*
X159338165Y-103212051D01*
X159470674Y-103238409D01*
X159519061Y-103248034D01*
X159580972Y-103280419D01*
X159615546Y-103341134D01*
X159611807Y-103410904D01*
X159570940Y-103467576D01*
X159514269Y-103492124D01*
X159325581Y-103522010D01*
X159130968Y-103585244D01*
X158948650Y-103678140D01*
X158783105Y-103798417D01*
X158783104Y-103798417D01*
X158638417Y-103943104D01*
X158638417Y-103943105D01*
X158518140Y-104108650D01*
X158425244Y-104290970D01*
X158362009Y-104485586D01*
X158353391Y-104540000D01*
X156499500Y-104540000D01*
X156499500Y-95974500D01*
X156502050Y-95965814D01*
X156500762Y-95956853D01*
X156511740Y-95932812D01*
X156519185Y-95907461D01*
X156526025Y-95901533D01*
X156529787Y-95893297D01*
X156552021Y-95879007D01*
X156571989Y-95861706D01*
X156582503Y-95859418D01*
X156588565Y-95855523D01*
X156623500Y-95850500D01*
X156810500Y-95850500D01*
X156877539Y-95870185D01*
G37*
%TD.AperFunction*%
%TA.AperFunction,Conductor*%
G36*
X142957839Y-74897085D02*
G01*
X142978485Y-74913723D01*
X143270859Y-75206123D01*
X143304341Y-75267447D01*
X143299354Y-75337139D01*
X143297736Y-75341251D01*
X143267948Y-75413168D01*
X143267947Y-75413171D01*
X143229500Y-75606456D01*
X143229500Y-75606459D01*
X143229500Y-75803541D01*
X143229500Y-75803543D01*
X143229499Y-75803543D01*
X143267947Y-75996829D01*
X143267949Y-75996835D01*
X143343364Y-76178907D01*
X143343371Y-76178920D01*
X143452860Y-76342781D01*
X143452863Y-76342785D01*
X143592214Y-76482136D01*
X143592218Y-76482139D01*
X143756079Y-76591628D01*
X143756092Y-76591635D01*
X143933790Y-76665239D01*
X143938165Y-76667051D01*
X143938169Y-76667051D01*
X143938170Y-76667052D01*
X144131456Y-76705500D01*
X144131459Y-76705500D01*
X144328543Y-76705500D01*
X144472955Y-76676774D01*
X144521835Y-76667051D01*
X144662655Y-76608721D01*
X144703907Y-76591635D01*
X144703907Y-76591634D01*
X144703914Y-76591632D01*
X144867782Y-76482139D01*
X144902715Y-76447206D01*
X144962819Y-76387103D01*
X145024142Y-76353618D01*
X145093834Y-76358602D01*
X145149767Y-76400474D01*
X145174184Y-76465938D01*
X145174500Y-76474784D01*
X145174500Y-78313470D01*
X145154815Y-78380509D01*
X145134654Y-78404542D01*
X145115000Y-78422702D01*
X145115000Y-81467295D01*
X145134671Y-81485479D01*
X145170538Y-81545440D01*
X145174500Y-81576535D01*
X145174500Y-87613470D01*
X145154815Y-87680509D01*
X145134654Y-87704542D01*
X145115000Y-87722702D01*
X145115000Y-88995000D01*
X145138181Y-89018181D01*
X145171666Y-89079504D01*
X145174500Y-89105862D01*
X145174500Y-89384138D01*
X145154815Y-89451177D01*
X145138181Y-89471819D01*
X145115000Y-89495000D01*
X145115000Y-90767295D01*
X145134671Y-90785479D01*
X145170538Y-90845440D01*
X145174500Y-90876535D01*
X145174500Y-92057677D01*
X145174498Y-92124341D01*
X145174500Y-92124348D01*
X145174500Y-92124353D01*
X145175464Y-92127954D01*
X145175465Y-92127957D01*
X145185128Y-92164017D01*
X145185129Y-92164021D01*
X145196678Y-92207130D01*
X145196680Y-92207135D01*
X145214351Y-92237742D01*
X145221170Y-92249552D01*
X145239528Y-92281352D01*
X145239530Y-92281354D01*
X145239535Y-92281362D01*
X145278637Y-92320464D01*
X146963496Y-94005448D01*
X146970870Y-94012822D01*
X147004353Y-94074146D01*
X146999366Y-94143838D01*
X146957493Y-94199770D01*
X146892027Y-94224184D01*
X146883186Y-94224500D01*
X146295741Y-94224500D01*
X146265301Y-94227354D01*
X146265300Y-94227354D01*
X146137118Y-94272206D01*
X146027850Y-94352850D01*
X145947206Y-94462118D01*
X145902353Y-94590302D01*
X145899500Y-94620731D01*
X145899500Y-94850500D01*
X145896949Y-94859185D01*
X145898238Y-94868147D01*
X145887259Y-94892187D01*
X145879815Y-94917539D01*
X145872974Y-94923466D01*
X145869213Y-94931703D01*
X145846978Y-94945992D01*
X145827011Y-94963294D01*
X145816496Y-94965581D01*
X145810435Y-94969477D01*
X145775500Y-94974500D01*
X145665246Y-94974500D01*
X145598207Y-94954815D01*
X145552452Y-94902011D01*
X145542774Y-94869903D01*
X145538402Y-94842299D01*
X145484873Y-94677555D01*
X145406232Y-94523212D01*
X145304414Y-94383072D01*
X145181928Y-94260586D01*
X145041788Y-94158768D01*
X144887445Y-94080127D01*
X144722701Y-94026598D01*
X144722699Y-94026597D01*
X144722698Y-94026597D01*
X144589159Y-94005447D01*
X144551611Y-93999500D01*
X144378389Y-93999500D01*
X144340841Y-94005447D01*
X144207302Y-94026597D01*
X144207299Y-94026598D01*
X144060963Y-94074146D01*
X144042552Y-94080128D01*
X143888211Y-94158768D01*
X143808371Y-94216776D01*
X143748072Y-94260586D01*
X143748070Y-94260588D01*
X143748069Y-94260588D01*
X143732181Y-94276477D01*
X143670858Y-94309962D01*
X143601166Y-94304978D01*
X143545233Y-94263106D01*
X143520816Y-94197642D01*
X143520500Y-94188796D01*
X143520500Y-92270749D01*
X143520502Y-92270742D01*
X143520500Y-92207128D01*
X143520500Y-92185047D01*
X143520500Y-92185046D01*
X143520499Y-92185040D01*
X143520499Y-92185037D01*
X143503672Y-92122244D01*
X143498318Y-92102262D01*
X143498316Y-92102258D01*
X143498314Y-92102251D01*
X143484121Y-92077671D01*
X143475073Y-92062000D01*
X143475071Y-92061997D01*
X143466999Y-92048016D01*
X143457293Y-92031204D01*
X143455827Y-92028480D01*
X143455593Y-92028164D01*
X143440258Y-92012831D01*
X143389903Y-91962476D01*
X143389876Y-91962452D01*
X142535684Y-91108316D01*
X142409044Y-90981684D01*
X142375557Y-90920362D01*
X142380539Y-90850670D01*
X142422408Y-90794735D01*
X142487872Y-90770316D01*
X142496722Y-90770000D01*
X142540634Y-90770000D01*
X142540649Y-90769999D01*
X142577489Y-90767100D01*
X142577495Y-90767099D01*
X142735193Y-90721283D01*
X142735196Y-90721282D01*
X142876552Y-90637685D01*
X142882722Y-90632900D01*
X142884546Y-90635252D01*
X142933595Y-90608445D01*
X143003288Y-90613402D01*
X143036063Y-90634465D01*
X143037278Y-90632900D01*
X143043447Y-90637685D01*
X143184801Y-90721281D01*
X143342514Y-90767100D01*
X143342511Y-90767100D01*
X143344998Y-90767295D01*
X143345000Y-90767295D01*
X143845000Y-90767295D01*
X143845001Y-90767295D01*
X143847486Y-90767100D01*
X144005198Y-90721281D01*
X144146552Y-90637685D01*
X144152722Y-90632900D01*
X144154546Y-90635252D01*
X144203595Y-90608445D01*
X144273288Y-90613402D01*
X144306063Y-90634465D01*
X144307278Y-90632900D01*
X144313447Y-90637685D01*
X144454801Y-90721281D01*
X144612514Y-90767100D01*
X144612511Y-90767100D01*
X144614998Y-90767295D01*
X144615000Y-90767295D01*
X144615000Y-89495000D01*
X143845000Y-89495000D01*
X143845000Y-90767295D01*
X143345000Y-90767295D01*
X143345000Y-89495000D01*
X142139500Y-89495000D01*
X142072461Y-89475315D01*
X142026706Y-89422511D01*
X142015500Y-89371000D01*
X142015500Y-89105862D01*
X142035185Y-89038823D01*
X142051819Y-89018181D01*
X142075000Y-88995000D01*
X142075000Y-87722703D01*
X142575000Y-87722703D01*
X142575000Y-88995000D01*
X143345000Y-88995000D01*
X143345000Y-87722703D01*
X143845000Y-87722703D01*
X143845000Y-88995000D01*
X144615000Y-88995000D01*
X144615000Y-87722703D01*
X144612503Y-87722900D01*
X144454806Y-87768716D01*
X144454803Y-87768717D01*
X144313447Y-87852314D01*
X144307278Y-87857100D01*
X144305457Y-87854753D01*
X144256358Y-87881564D01*
X144186666Y-87876580D01*
X144153930Y-87855541D01*
X144152722Y-87857100D01*
X144146552Y-87852314D01*
X144005196Y-87768717D01*
X144005193Y-87768716D01*
X143847494Y-87722900D01*
X143847497Y-87722900D01*
X143845000Y-87722703D01*
X143345000Y-87722703D01*
X143342503Y-87722900D01*
X143184806Y-87768716D01*
X143184803Y-87768717D01*
X143043447Y-87852314D01*
X143037278Y-87857100D01*
X143035457Y-87854753D01*
X142986358Y-87881564D01*
X142916666Y-87876580D01*
X142883930Y-87855541D01*
X142882722Y-87857100D01*
X142876552Y-87852314D01*
X142735196Y-87768717D01*
X142735193Y-87768716D01*
X142577494Y-87722900D01*
X142577497Y-87722900D01*
X142575000Y-87722703D01*
X142075000Y-87722703D01*
X142075000Y-87722702D01*
X142055346Y-87704542D01*
X142019468Y-87644588D01*
X142015500Y-87613470D01*
X142015500Y-81576535D01*
X142035185Y-81509496D01*
X142055329Y-81485479D01*
X142075000Y-81467295D01*
X142575000Y-81467295D01*
X142575001Y-81467295D01*
X142577486Y-81467100D01*
X142735198Y-81421281D01*
X142876552Y-81337685D01*
X142882722Y-81332900D01*
X142884546Y-81335252D01*
X142933595Y-81308445D01*
X143003288Y-81313402D01*
X143036063Y-81334465D01*
X143037278Y-81332900D01*
X143043447Y-81337685D01*
X143184801Y-81421281D01*
X143342514Y-81467100D01*
X143342511Y-81467100D01*
X143344998Y-81467295D01*
X143345000Y-81467295D01*
X143845000Y-81467295D01*
X143845001Y-81467295D01*
X143847486Y-81467100D01*
X144005198Y-81421281D01*
X144146552Y-81337685D01*
X144152722Y-81332900D01*
X144154546Y-81335252D01*
X144203595Y-81308445D01*
X144273288Y-81313402D01*
X144306063Y-81334465D01*
X144307278Y-81332900D01*
X144313447Y-81337685D01*
X144454801Y-81421281D01*
X144612514Y-81467100D01*
X144612511Y-81467100D01*
X144614998Y-81467295D01*
X144615000Y-81467295D01*
X144615000Y-80195000D01*
X143845000Y-80195000D01*
X143845000Y-81467295D01*
X143345000Y-81467295D01*
X143345000Y-80195000D01*
X142575000Y-80195000D01*
X142575000Y-81467295D01*
X142075000Y-81467295D01*
X142075000Y-80195000D01*
X142051819Y-80171819D01*
X142018334Y-80110496D01*
X142015500Y-80084138D01*
X142015500Y-79805862D01*
X142035185Y-79738823D01*
X142051819Y-79718181D01*
X142075000Y-79695000D01*
X142075000Y-78422703D01*
X142575000Y-78422703D01*
X142575000Y-79695000D01*
X143345000Y-79695000D01*
X143345000Y-78422703D01*
X143845000Y-78422703D01*
X143845000Y-79695000D01*
X144615000Y-79695000D01*
X144615000Y-78422703D01*
X144612503Y-78422900D01*
X144454806Y-78468716D01*
X144454803Y-78468717D01*
X144313447Y-78552314D01*
X144307278Y-78557100D01*
X144305457Y-78554753D01*
X144256358Y-78581564D01*
X144186666Y-78576580D01*
X144153930Y-78555541D01*
X144152722Y-78557100D01*
X144146552Y-78552314D01*
X144005196Y-78468717D01*
X144005193Y-78468716D01*
X143847494Y-78422900D01*
X143847497Y-78422900D01*
X143845000Y-78422703D01*
X143345000Y-78422703D01*
X143342503Y-78422900D01*
X143184806Y-78468716D01*
X143184803Y-78468717D01*
X143043447Y-78552314D01*
X143037278Y-78557100D01*
X143035457Y-78554753D01*
X142986358Y-78581564D01*
X142916666Y-78576580D01*
X142883930Y-78555541D01*
X142882722Y-78557100D01*
X142876552Y-78552314D01*
X142735196Y-78468717D01*
X142735193Y-78468716D01*
X142577494Y-78422900D01*
X142577497Y-78422900D01*
X142575000Y-78422703D01*
X142075000Y-78422703D01*
X142075000Y-78422702D01*
X142055346Y-78404542D01*
X142019468Y-78344588D01*
X142015500Y-78313470D01*
X142015500Y-76735960D01*
X142035185Y-76668921D01*
X142087989Y-76623166D01*
X142092005Y-76621417D01*
X142163914Y-76591632D01*
X142327782Y-76482139D01*
X142467139Y-76342782D01*
X142576632Y-76178914D01*
X142582465Y-76164833D01*
X142652051Y-75996835D01*
X142652052Y-75996829D01*
X142657413Y-75969881D01*
X142677481Y-75868993D01*
X142690500Y-75803543D01*
X142690500Y-75606456D01*
X142652052Y-75413170D01*
X142652051Y-75413169D01*
X142652051Y-75413165D01*
X142631223Y-75362882D01*
X142576635Y-75231092D01*
X142576628Y-75231079D01*
X142469193Y-75070291D01*
X142448315Y-75003613D01*
X142466800Y-74936233D01*
X142518779Y-74889543D01*
X142572295Y-74877400D01*
X142890800Y-74877400D01*
X142957839Y-74897085D01*
G37*
%TD.AperFunction*%
%TA.AperFunction,Conductor*%
G36*
X140950703Y-76381071D02*
G01*
X140957181Y-76387103D01*
X141052217Y-76482139D01*
X141123034Y-76529457D01*
X141216086Y-76591632D01*
X141287953Y-76621399D01*
X141342355Y-76665239D01*
X141364421Y-76731533D01*
X141364500Y-76735960D01*
X141364500Y-78313470D01*
X141344815Y-78380509D01*
X141324654Y-78404542D01*
X141305000Y-78422702D01*
X141305000Y-79695000D01*
X141328181Y-79718181D01*
X141361666Y-79779504D01*
X141364500Y-79805862D01*
X141364500Y-80084138D01*
X141344815Y-80151177D01*
X141328181Y-80171819D01*
X141305000Y-80195000D01*
X141305000Y-81467295D01*
X141324671Y-81485479D01*
X141360538Y-81545440D01*
X141364500Y-81576535D01*
X141364500Y-87613470D01*
X141344815Y-87680509D01*
X141324654Y-87704542D01*
X141305000Y-87722702D01*
X141305000Y-88995000D01*
X141328181Y-89018181D01*
X141361666Y-89079504D01*
X141364500Y-89105862D01*
X141364500Y-89384138D01*
X141344815Y-89451177D01*
X141328181Y-89471819D01*
X141305000Y-89495000D01*
X141305000Y-90767295D01*
X141322523Y-90783493D01*
X141330032Y-90785071D01*
X141379788Y-90834123D01*
X141380077Y-90834647D01*
X141385655Y-90844808D01*
X141386682Y-90848638D01*
X141386683Y-90848641D01*
X141386686Y-90848649D01*
X141407976Y-90885521D01*
X141429535Y-90922862D01*
X141429540Y-90922867D01*
X141429542Y-90922870D01*
X141444742Y-90938069D01*
X141444745Y-90938072D01*
X141495967Y-90989294D01*
X141495989Y-90989313D01*
X142833178Y-92326413D01*
X142866665Y-92387735D01*
X142869500Y-92414097D01*
X142869500Y-93576000D01*
X142849815Y-93643039D01*
X142797011Y-93688794D01*
X142745500Y-93700000D01*
X142175000Y-93700000D01*
X142175000Y-94724722D01*
X142098694Y-94680667D01*
X141984244Y-94650000D01*
X141865756Y-94650000D01*
X141751306Y-94680667D01*
X141675000Y-94724722D01*
X141675000Y-93700000D01*
X140977172Y-93700000D01*
X140977145Y-93700001D01*
X140974737Y-93700260D01*
X140974183Y-93700160D01*
X140973847Y-93700178D01*
X140973842Y-93700098D01*
X140905979Y-93687845D01*
X140854849Y-93640227D01*
X140837500Y-93576969D01*
X140837500Y-92654183D01*
X140837570Y-92653921D01*
X140837500Y-92611068D01*
X140837500Y-92568747D01*
X140837500Y-92568746D01*
X140837430Y-92568221D01*
X140837430Y-92568216D01*
X140826333Y-92527073D01*
X140815318Y-92485962D01*
X140815316Y-92485958D01*
X140815113Y-92485467D01*
X140793868Y-92448808D01*
X140793910Y-92448783D01*
X140793766Y-92448632D01*
X140772467Y-92411740D01*
X140771120Y-92409985D01*
X140770444Y-92408237D01*
X140768401Y-92404698D01*
X140768495Y-92404643D01*
X140767892Y-92403970D01*
X140767861Y-92403916D01*
X140768608Y-92403486D01*
X140745929Y-92344814D01*
X140745500Y-92334504D01*
X140745500Y-90876535D01*
X140765185Y-90809496D01*
X140785329Y-90785479D01*
X140805000Y-90767295D01*
X140805000Y-87722702D01*
X140785346Y-87704542D01*
X140749468Y-87644588D01*
X140745500Y-87613470D01*
X140745500Y-81576535D01*
X140765185Y-81509496D01*
X140785329Y-81485479D01*
X140805000Y-81467295D01*
X140805000Y-78422702D01*
X140785346Y-78404542D01*
X140749468Y-78344588D01*
X140745500Y-78313470D01*
X140745500Y-76474784D01*
X140765185Y-76407745D01*
X140817989Y-76361990D01*
X140887147Y-76352046D01*
X140950703Y-76381071D01*
G37*
%TD.AperFunction*%
%TA.AperFunction,Conductor*%
G36*
X146623834Y-81079362D02*
G01*
X146679767Y-81121234D01*
X146704184Y-81186698D01*
X146704500Y-81195544D01*
X146704500Y-82131297D01*
X146704486Y-82131350D01*
X146704500Y-82174326D01*
X146704500Y-82216970D01*
X146704510Y-82217046D01*
X146715313Y-82257310D01*
X146715318Y-82257348D01*
X146715322Y-82257347D01*
X146726680Y-82299735D01*
X146726715Y-82299822D01*
X146726722Y-82299834D01*
X146740857Y-82324300D01*
X146747981Y-82336629D01*
X146747990Y-82336664D01*
X146747998Y-82336660D01*
X146769535Y-82373963D01*
X146769598Y-82374044D01*
X146799674Y-82404102D01*
X146799673Y-82404102D01*
X146799701Y-82404128D01*
X146835760Y-82440187D01*
X146835944Y-82440348D01*
X146957863Y-82562191D01*
X146991367Y-82623504D01*
X146986404Y-82693197D01*
X146957890Y-82737581D01*
X146509537Y-83185935D01*
X146509535Y-83185938D01*
X146474195Y-83247149D01*
X146466682Y-83260161D01*
X146448560Y-83327793D01*
X146448559Y-83327794D01*
X146444501Y-83342940D01*
X146444500Y-83342949D01*
X146444500Y-87613470D01*
X146424815Y-87680509D01*
X146404654Y-87704542D01*
X146385000Y-87722702D01*
X146385000Y-90767295D01*
X146404671Y-90785479D01*
X146440538Y-90845440D01*
X146444500Y-90876535D01*
X146444500Y-91693652D01*
X146444499Y-91693656D01*
X146444500Y-91729884D01*
X146444500Y-91779356D01*
X146444502Y-91779366D01*
X146450436Y-91801509D01*
X146450436Y-91801512D01*
X146450437Y-91801512D01*
X146466680Y-91862132D01*
X146466683Y-91862142D01*
X146468189Y-91864751D01*
X146472462Y-91872150D01*
X146509535Y-91936362D01*
X146509538Y-91936365D01*
X146509540Y-91936368D01*
X146510799Y-91937627D01*
X146510800Y-91937628D01*
X146521774Y-91948601D01*
X146579032Y-92005859D01*
X146579046Y-92005870D01*
X148329180Y-93755912D01*
X148362666Y-93817234D01*
X148365500Y-93843595D01*
X148365500Y-94187490D01*
X148345815Y-94254529D01*
X148293011Y-94300284D01*
X148223853Y-94310228D01*
X148160297Y-94281203D01*
X148153816Y-94275168D01*
X145861816Y-91982998D01*
X145828333Y-91921674D01*
X145825500Y-91895320D01*
X145825500Y-90876535D01*
X145845185Y-90809496D01*
X145865329Y-90785479D01*
X145885000Y-90767295D01*
X145885000Y-89495000D01*
X145861819Y-89471819D01*
X145828334Y-89410496D01*
X145825500Y-89384138D01*
X145825500Y-89105862D01*
X145845185Y-89038823D01*
X145861819Y-89018181D01*
X145885000Y-88995000D01*
X145885000Y-87722702D01*
X145865346Y-87704542D01*
X145829468Y-87644588D01*
X145825500Y-87613470D01*
X145825500Y-81294500D01*
X145845185Y-81227461D01*
X145897989Y-81181706D01*
X145949500Y-81170500D01*
X146318261Y-81170500D01*
X146340971Y-81167191D01*
X146386393Y-81160573D01*
X146491483Y-81109198D01*
X146491485Y-81109196D01*
X146492819Y-81107863D01*
X146495092Y-81106621D01*
X146499847Y-81103227D01*
X146500257Y-81103801D01*
X146554142Y-81074378D01*
X146623834Y-81079362D01*
G37*
%TD.AperFunction*%
%TA.AperFunction,Conductor*%
G36*
X140606978Y-73181663D02*
G01*
X140665211Y-73220273D01*
X140691965Y-73275937D01*
X140727947Y-73456829D01*
X140727950Y-73456839D01*
X140803364Y-73638907D01*
X140803371Y-73638920D01*
X140912860Y-73802781D01*
X140912863Y-73802785D01*
X141052214Y-73942136D01*
X141052218Y-73942139D01*
X141169232Y-74020326D01*
X141180712Y-74034063D01*
X141195586Y-74044028D01*
X141202651Y-74060314D01*
X141214037Y-74073938D01*
X141216268Y-74091702D01*
X141223393Y-74108126D01*
X141220531Y-74125647D01*
X141222744Y-74143263D01*
X141215017Y-74159412D01*
X141212132Y-74177082D01*
X141200251Y-74190275D01*
X141192589Y-74206291D01*
X141177357Y-74215699D01*
X141165378Y-74229003D01*
X141133754Y-74242634D01*
X141133146Y-74243010D01*
X141133000Y-74243050D01*
X141132661Y-74243142D01*
X141112362Y-74248582D01*
X141112317Y-74248607D01*
X141112268Y-74248621D01*
X141111978Y-74248788D01*
X141111976Y-74248789D01*
X141075336Y-74269958D01*
X141075308Y-74269974D01*
X141038130Y-74291439D01*
X141038065Y-74291488D01*
X141008632Y-74320939D01*
X140972124Y-74357447D01*
X140971958Y-74357635D01*
X140190584Y-75139487D01*
X140168447Y-75161624D01*
X140107124Y-75195109D01*
X140037432Y-75190125D01*
X139981499Y-75148253D01*
X139977664Y-75142833D01*
X139927142Y-75067222D01*
X139927136Y-75067214D01*
X139787785Y-74927863D01*
X139787781Y-74927860D01*
X139623920Y-74818371D01*
X139623907Y-74818364D01*
X139441839Y-74742950D01*
X139441829Y-74742947D01*
X139260937Y-74706965D01*
X139199026Y-74674580D01*
X139164452Y-74613864D01*
X139168192Y-74544095D01*
X139209059Y-74487423D01*
X139265731Y-74462875D01*
X139454417Y-74432990D01*
X139649031Y-74369755D01*
X139831349Y-74276859D01*
X139875921Y-74244474D01*
X139279409Y-73647962D01*
X139342993Y-73630925D01*
X139457007Y-73565099D01*
X139550099Y-73472007D01*
X139615925Y-73357993D01*
X139632962Y-73294409D01*
X140229474Y-73890921D01*
X140261859Y-73846349D01*
X140354755Y-73664031D01*
X140417990Y-73469417D01*
X140447875Y-73280731D01*
X140477804Y-73217596D01*
X140537116Y-73180665D01*
X140606978Y-73181663D01*
G37*
%TD.AperFunction*%
%TA.AperFunction,Conductor*%
G36*
X177717539Y-67345185D02*
G01*
X177763294Y-67397989D01*
X177774500Y-67449500D01*
X177774500Y-149710500D01*
X177754815Y-149777539D01*
X177702011Y-149823294D01*
X177650500Y-149834500D01*
X137309500Y-149834500D01*
X137242461Y-149814815D01*
X137196706Y-149762011D01*
X137185500Y-149710500D01*
X137185500Y-144818147D01*
X137686500Y-144818147D01*
X137686500Y-145840852D01*
X137708682Y-145923640D01*
X137718738Y-145941057D01*
X137751535Y-145997862D01*
X138878533Y-147124859D01*
X138878535Y-147124862D01*
X138939138Y-147185465D01*
X138974704Y-147205999D01*
X139013361Y-147228318D01*
X139096147Y-147250501D01*
X139096149Y-147250501D01*
X139189449Y-147250501D01*
X139189465Y-147250500D01*
X152773965Y-147250500D01*
X152841004Y-147270185D01*
X152886759Y-147322989D01*
X152896703Y-147392147D01*
X152896438Y-147393898D01*
X152880000Y-147497682D01*
X152880000Y-147702317D01*
X152912009Y-147904417D01*
X152975244Y-148099031D01*
X153068141Y-148281350D01*
X153068147Y-148281359D01*
X153100523Y-148325921D01*
X153100524Y-148325922D01*
X153697037Y-147729408D01*
X153714075Y-147792993D01*
X153779901Y-147907007D01*
X153872993Y-148000099D01*
X153987007Y-148065925D01*
X154050590Y-148082962D01*
X153454076Y-148679474D01*
X153498650Y-148711859D01*
X153680968Y-148804755D01*
X153875582Y-148867990D01*
X154077683Y-148900000D01*
X154282317Y-148900000D01*
X154484417Y-148867990D01*
X154679031Y-148804755D01*
X154861349Y-148711859D01*
X154905921Y-148679474D01*
X154309409Y-148082962D01*
X154372993Y-148065925D01*
X154487007Y-148000099D01*
X154580099Y-147907007D01*
X154645925Y-147792993D01*
X154662962Y-147729409D01*
X155259474Y-148325921D01*
X155291859Y-148281349D01*
X155384755Y-148099031D01*
X155447990Y-147904417D01*
X155477875Y-147715731D01*
X155507804Y-147652596D01*
X155567116Y-147615665D01*
X155636978Y-147616663D01*
X155695211Y-147655273D01*
X155721965Y-147710937D01*
X155757947Y-147891829D01*
X155757950Y-147891839D01*
X155833364Y-148073907D01*
X155833371Y-148073920D01*
X155942860Y-148237781D01*
X155942863Y-148237785D01*
X156082214Y-148377136D01*
X156082218Y-148377139D01*
X156246079Y-148486628D01*
X156246092Y-148486635D01*
X156428160Y-148562049D01*
X156428165Y-148562051D01*
X156428169Y-148562051D01*
X156428170Y-148562052D01*
X156621456Y-148600500D01*
X156621459Y-148600500D01*
X156818543Y-148600500D01*
X156948582Y-148574632D01*
X157011835Y-148562051D01*
X157193914Y-148486632D01*
X157357782Y-148377139D01*
X157497139Y-148237782D01*
X157606632Y-148073914D01*
X157682051Y-147891835D01*
X157717081Y-147715731D01*
X157720500Y-147698543D01*
X158259499Y-147698543D01*
X158297947Y-147891829D01*
X158297950Y-147891839D01*
X158373364Y-148073907D01*
X158373371Y-148073920D01*
X158482860Y-148237781D01*
X158482863Y-148237785D01*
X158622214Y-148377136D01*
X158622218Y-148377139D01*
X158786079Y-148486628D01*
X158786092Y-148486635D01*
X158968160Y-148562049D01*
X158968165Y-148562051D01*
X158968169Y-148562051D01*
X158968170Y-148562052D01*
X159161456Y-148600500D01*
X159161459Y-148600500D01*
X159358543Y-148600500D01*
X159488582Y-148574632D01*
X159551835Y-148562051D01*
X159733914Y-148486632D01*
X159897782Y-148377139D01*
X160037139Y-148237782D01*
X160146632Y-148073914D01*
X160222051Y-147891835D01*
X160257081Y-147715731D01*
X160260500Y-147698543D01*
X160799499Y-147698543D01*
X160837947Y-147891829D01*
X160837950Y-147891839D01*
X160913364Y-148073907D01*
X160913371Y-148073920D01*
X161022860Y-148237781D01*
X161022863Y-148237785D01*
X161162214Y-148377136D01*
X161162218Y-148377139D01*
X161326079Y-148486628D01*
X161326092Y-148486635D01*
X161508160Y-148562049D01*
X161508165Y-148562051D01*
X161508169Y-148562051D01*
X161508170Y-148562052D01*
X161701456Y-148600500D01*
X161701459Y-148600500D01*
X161898543Y-148600500D01*
X162028582Y-148574632D01*
X162091835Y-148562051D01*
X162273914Y-148486632D01*
X162437782Y-148377139D01*
X162577139Y-148237782D01*
X162686632Y-148073914D01*
X162762051Y-147891835D01*
X162797081Y-147715731D01*
X162800500Y-147698543D01*
X162800500Y-147501456D01*
X162762052Y-147308170D01*
X162762051Y-147308169D01*
X162762051Y-147308165D01*
X162753791Y-147288224D01*
X162686635Y-147126092D01*
X162686628Y-147126079D01*
X162577139Y-146962218D01*
X162577136Y-146962214D01*
X162437785Y-146822863D01*
X162437781Y-146822860D01*
X162273920Y-146713371D01*
X162273907Y-146713364D01*
X162091839Y-146637950D01*
X162091829Y-146637947D01*
X161898543Y-146599500D01*
X161898541Y-146599500D01*
X161701459Y-146599500D01*
X161701457Y-146599500D01*
X161508170Y-146637947D01*
X161508160Y-146637950D01*
X161326092Y-146713364D01*
X161326079Y-146713371D01*
X161162218Y-146822860D01*
X161162214Y-146822863D01*
X161022863Y-146962214D01*
X161022860Y-146962218D01*
X160913371Y-147126079D01*
X160913364Y-147126092D01*
X160837950Y-147308160D01*
X160837947Y-147308170D01*
X160799500Y-147501456D01*
X160799500Y-147501459D01*
X160799500Y-147698541D01*
X160799500Y-147698543D01*
X160799499Y-147698543D01*
X160260500Y-147698543D01*
X160260500Y-147501456D01*
X160222052Y-147308170D01*
X160222051Y-147308169D01*
X160222051Y-147308165D01*
X160213791Y-147288224D01*
X160146635Y-147126092D01*
X160146628Y-147126079D01*
X160037139Y-146962218D01*
X160037136Y-146962214D01*
X159897785Y-146822863D01*
X159897781Y-146822860D01*
X159733920Y-146713371D01*
X159733907Y-146713364D01*
X159551839Y-146637950D01*
X159551829Y-146637947D01*
X159358543Y-146599500D01*
X159358541Y-146599500D01*
X159161459Y-146599500D01*
X159161457Y-146599500D01*
X158968170Y-146637947D01*
X158968160Y-146637950D01*
X158786092Y-146713364D01*
X158786079Y-146713371D01*
X158622218Y-146822860D01*
X158622214Y-146822863D01*
X158482863Y-146962214D01*
X158482860Y-146962218D01*
X158373371Y-147126079D01*
X158373364Y-147126092D01*
X158297950Y-147308160D01*
X158297947Y-147308170D01*
X158259500Y-147501456D01*
X158259500Y-147501459D01*
X158259500Y-147698541D01*
X158259500Y-147698543D01*
X158259499Y-147698543D01*
X157720500Y-147698543D01*
X157720500Y-147501456D01*
X157682052Y-147308170D01*
X157682051Y-147308169D01*
X157682051Y-147308165D01*
X157673791Y-147288224D01*
X157606635Y-147126092D01*
X157606628Y-147126079D01*
X157497139Y-146962218D01*
X157497136Y-146962214D01*
X157357785Y-146822863D01*
X157357781Y-146822860D01*
X157193920Y-146713371D01*
X157193907Y-146713364D01*
X157011839Y-146637950D01*
X157011829Y-146637947D01*
X156818543Y-146599500D01*
X156818541Y-146599500D01*
X156621459Y-146599500D01*
X156621457Y-146599500D01*
X156428170Y-146637947D01*
X156428160Y-146637950D01*
X156246092Y-146713364D01*
X156246079Y-146713371D01*
X156082218Y-146822860D01*
X156082214Y-146822863D01*
X155942863Y-146962214D01*
X155942860Y-146962218D01*
X155833371Y-147126079D01*
X155833364Y-147126092D01*
X155757950Y-147308160D01*
X155757947Y-147308170D01*
X155721965Y-147489062D01*
X155689580Y-147550973D01*
X155628864Y-147585547D01*
X155559094Y-147581806D01*
X155502423Y-147540940D01*
X155477875Y-147484268D01*
X155447990Y-147295582D01*
X155384755Y-147100968D01*
X155291859Y-146918650D01*
X155259474Y-146874077D01*
X155259474Y-146874076D01*
X154662962Y-147470589D01*
X154645925Y-147407007D01*
X154580099Y-147292993D01*
X154487007Y-147199901D01*
X154372993Y-147134075D01*
X154309408Y-147117037D01*
X154905922Y-146520524D01*
X154905921Y-146520523D01*
X154861359Y-146488147D01*
X154861350Y-146488141D01*
X154679031Y-146395244D01*
X154549230Y-146353069D01*
X154491555Y-146313631D01*
X154464357Y-146249272D01*
X154476272Y-146180426D01*
X154499862Y-146147464D01*
X162182130Y-138465197D01*
X163577500Y-138465197D01*
X163577500Y-138654802D01*
X163614486Y-138840743D01*
X163614488Y-138840751D01*
X163687042Y-139015912D01*
X163792377Y-139173558D01*
X163926441Y-139307622D01*
X164031300Y-139377686D01*
X164084085Y-139412956D01*
X164259249Y-139485512D01*
X164445197Y-139522499D01*
X164445201Y-139522500D01*
X164445202Y-139522500D01*
X164634799Y-139522500D01*
X164634800Y-139522499D01*
X164820751Y-139485512D01*
X164995915Y-139412956D01*
X165153558Y-139307622D01*
X165287622Y-139173558D01*
X165392956Y-139015915D01*
X165465512Y-138840751D01*
X165502500Y-138654798D01*
X165502500Y-138465202D01*
X165502499Y-138465197D01*
X168657500Y-138465197D01*
X168657500Y-138654802D01*
X168694486Y-138840743D01*
X168694488Y-138840751D01*
X168767042Y-139015912D01*
X168872377Y-139173558D01*
X169006441Y-139307622D01*
X169111300Y-139377686D01*
X169164085Y-139412956D01*
X169339249Y-139485512D01*
X169525197Y-139522499D01*
X169525201Y-139522500D01*
X169525202Y-139522500D01*
X169714799Y-139522500D01*
X169714800Y-139522499D01*
X169900751Y-139485512D01*
X170075915Y-139412956D01*
X170233558Y-139307622D01*
X170367622Y-139173558D01*
X170472956Y-139015915D01*
X170545512Y-138840751D01*
X170582500Y-138654798D01*
X170582500Y-138465202D01*
X170545512Y-138279249D01*
X170472956Y-138104085D01*
X170434574Y-138046643D01*
X170367622Y-137946441D01*
X170233558Y-137812377D01*
X170075912Y-137707042D01*
X169900751Y-137634488D01*
X169900743Y-137634486D01*
X169714802Y-137597500D01*
X169714798Y-137597500D01*
X169525202Y-137597500D01*
X169525197Y-137597500D01*
X169339256Y-137634486D01*
X169339248Y-137634488D01*
X169164087Y-137707042D01*
X169006441Y-137812377D01*
X168872377Y-137946441D01*
X168767042Y-138104087D01*
X168694488Y-138279248D01*
X168694486Y-138279256D01*
X168657500Y-138465197D01*
X165502499Y-138465197D01*
X165465512Y-138279249D01*
X165392956Y-138104085D01*
X165354574Y-138046643D01*
X165287622Y-137946441D01*
X165153558Y-137812377D01*
X164995912Y-137707042D01*
X164820751Y-137634488D01*
X164820743Y-137634486D01*
X164634802Y-137597500D01*
X164634798Y-137597500D01*
X164445202Y-137597500D01*
X164445197Y-137597500D01*
X164259256Y-137634486D01*
X164259248Y-137634488D01*
X164084087Y-137707042D01*
X163926441Y-137812377D01*
X163792377Y-137946441D01*
X163687042Y-138104087D01*
X163614488Y-138279248D01*
X163614486Y-138279256D01*
X163577500Y-138465197D01*
X162182130Y-138465197D01*
X167437508Y-133209819D01*
X167498831Y-133176334D01*
X167525189Y-133173500D01*
X172315851Y-133173500D01*
X172315853Y-133173500D01*
X172398639Y-133151318D01*
X172472862Y-133108465D01*
X172919851Y-132661474D01*
X172981172Y-132627991D01*
X173012253Y-132625785D01*
X173012253Y-132625500D01*
X173016272Y-132625500D01*
X173016512Y-132625483D01*
X173016734Y-132625499D01*
X173016740Y-132625500D01*
X173016746Y-132625500D01*
X173383258Y-132625500D01*
X173383260Y-132625500D01*
X173414828Y-132620900D01*
X173484003Y-132630712D01*
X173536894Y-132676367D01*
X173556706Y-132743368D01*
X173537149Y-132810445D01*
X173520387Y-132831285D01*
X172939537Y-133412135D01*
X172939533Y-133412141D01*
X172896681Y-133486361D01*
X172896682Y-133486362D01*
X172874500Y-133569147D01*
X172874500Y-144943828D01*
X172854815Y-145010867D01*
X172802011Y-145056622D01*
X172797954Y-145058388D01*
X172747881Y-145079129D01*
X172747877Y-145079131D01*
X172591542Y-145183591D01*
X172591538Y-145183594D01*
X172458594Y-145316538D01*
X172458591Y-145316542D01*
X172354136Y-145472868D01*
X172354129Y-145472881D01*
X172282182Y-145646578D01*
X172282179Y-145646590D01*
X172245500Y-145830985D01*
X172245500Y-146019014D01*
X172282179Y-146203409D01*
X172282182Y-146203421D01*
X172354129Y-146377118D01*
X172354136Y-146377131D01*
X172427956Y-146487609D01*
X172448834Y-146554286D01*
X172430350Y-146621666D01*
X172378371Y-146668357D01*
X172324854Y-146680500D01*
X171575146Y-146680500D01*
X171508107Y-146660815D01*
X171462352Y-146608011D01*
X171452408Y-146538853D01*
X171472044Y-146487609D01*
X171545863Y-146377131D01*
X171545863Y-146377130D01*
X171545867Y-146377125D01*
X171617819Y-146203417D01*
X171654500Y-146019010D01*
X171654500Y-145830990D01*
X171654500Y-145830987D01*
X171654499Y-145830985D01*
X171633934Y-145727599D01*
X171617819Y-145646583D01*
X171607505Y-145621682D01*
X171545870Y-145472881D01*
X171545863Y-145472868D01*
X171441408Y-145316542D01*
X171441405Y-145316538D01*
X171308461Y-145183594D01*
X171308457Y-145183591D01*
X171152131Y-145079136D01*
X171152118Y-145079129D01*
X170978421Y-145007182D01*
X170978409Y-145007179D01*
X170794013Y-144970500D01*
X170794010Y-144970500D01*
X170605990Y-144970500D01*
X170605987Y-144970500D01*
X170421590Y-145007179D01*
X170421578Y-145007182D01*
X170247881Y-145079129D01*
X170247868Y-145079136D01*
X170091542Y-145183591D01*
X170091538Y-145183594D01*
X169958594Y-145316538D01*
X169958591Y-145316542D01*
X169854136Y-145472868D01*
X169854129Y-145472881D01*
X169782182Y-145646578D01*
X169782179Y-145646587D01*
X169773151Y-145691976D01*
X169740765Y-145753886D01*
X169680049Y-145788460D01*
X169610280Y-145784719D01*
X169553608Y-145743852D01*
X169544146Y-145729782D01*
X169541465Y-145725138D01*
X169480863Y-145664536D01*
X169480855Y-145664530D01*
X169406644Y-145621685D01*
X169406640Y-145621683D01*
X169406638Y-145621682D01*
X169323853Y-145599500D01*
X169323852Y-145599500D01*
X169278500Y-145599500D01*
X169211461Y-145579815D01*
X169165706Y-145527011D01*
X169154500Y-145475500D01*
X169154500Y-145151249D01*
X169154499Y-145151247D01*
X169142868Y-145092770D01*
X169142867Y-145092769D01*
X169098552Y-145026447D01*
X169032230Y-144982132D01*
X169032229Y-144982131D01*
X168973752Y-144970500D01*
X168973748Y-144970500D01*
X167426252Y-144970500D01*
X167426247Y-144970500D01*
X167367770Y-144982131D01*
X167367769Y-144982132D01*
X167301447Y-145026447D01*
X167257132Y-145092769D01*
X167257131Y-145092770D01*
X167245500Y-145151247D01*
X167245500Y-146698752D01*
X167257131Y-146757229D01*
X167257132Y-146757230D01*
X167301447Y-146823552D01*
X167367769Y-146867867D01*
X167367770Y-146867868D01*
X167426247Y-146879499D01*
X167426250Y-146879500D01*
X167426252Y-146879500D01*
X168973750Y-146879500D01*
X168973751Y-146879499D01*
X168988568Y-146876552D01*
X169032229Y-146867868D01*
X169032229Y-146867867D01*
X169032231Y-146867867D01*
X169098552Y-146823552D01*
X169142867Y-146757231D01*
X169142867Y-146757229D01*
X169142868Y-146757229D01*
X169154499Y-146698752D01*
X169154500Y-146698750D01*
X169154500Y-146693523D01*
X169174185Y-146626484D01*
X169226989Y-146580729D01*
X169296147Y-146570785D01*
X169359703Y-146599810D01*
X169366224Y-146605884D01*
X169959198Y-147199486D01*
X169959907Y-147200196D01*
X169959906Y-147200196D01*
X169965489Y-147205785D01*
X169965535Y-147205862D01*
X169996436Y-147236763D01*
X169996672Y-147236999D01*
X169996674Y-147237002D01*
X170025995Y-147266354D01*
X170025999Y-147266357D01*
X170026001Y-147266359D01*
X170026003Y-147266360D01*
X170026072Y-147266413D01*
X170026131Y-147266458D01*
X170026138Y-147266465D01*
X170029495Y-147268403D01*
X170063769Y-147288191D01*
X170063764Y-147288198D01*
X170063824Y-147288222D01*
X170100201Y-147309251D01*
X170100202Y-147309251D01*
X170100209Y-147309255D01*
X170100363Y-147309319D01*
X170141325Y-147320294D01*
X170141385Y-147320331D01*
X170141391Y-147320312D01*
X170151361Y-147322989D01*
X170182975Y-147331478D01*
X170182976Y-147331478D01*
X170183000Y-147331481D01*
X170183076Y-147331481D01*
X170183147Y-147331500D01*
X170224875Y-147331500D01*
X170224899Y-147331500D01*
X170268681Y-147331523D01*
X170268684Y-147331522D01*
X170276539Y-147331526D01*
X170276951Y-147331500D01*
X173631187Y-147331500D01*
X173631224Y-147331510D01*
X173674077Y-147331500D01*
X173716853Y-147331500D01*
X173716862Y-147331497D01*
X173716881Y-147331495D01*
X173716917Y-147331490D01*
X173716930Y-147331490D01*
X173758172Y-147320428D01*
X173758176Y-147320427D01*
X173758177Y-147320431D01*
X173758199Y-147320420D01*
X173799638Y-147309318D01*
X173799642Y-147309315D01*
X173799701Y-147309291D01*
X173799703Y-147309289D01*
X173799710Y-147309288D01*
X173836454Y-147288061D01*
X173836482Y-147288054D01*
X173836478Y-147288048D01*
X173873862Y-147266465D01*
X173873863Y-147266463D01*
X173873892Y-147266447D01*
X173873918Y-147266420D01*
X173873923Y-147266418D01*
X173903539Y-147236786D01*
X173903568Y-147236771D01*
X173903562Y-147236765D01*
X173920429Y-147219897D01*
X173934465Y-147205862D01*
X173934465Y-147205860D01*
X173940698Y-147199628D01*
X173940814Y-147199493D01*
X176020732Y-145118593D01*
X176020753Y-145118574D01*
X176052084Y-145087243D01*
X176052480Y-145086854D01*
X176052510Y-145086801D01*
X176052512Y-145086800D01*
X176074135Y-145049327D01*
X176095318Y-145012638D01*
X176095318Y-145012634D01*
X176095338Y-145012601D01*
X176095346Y-145012569D01*
X176095348Y-145012567D01*
X176107144Y-144968498D01*
X176107158Y-144968475D01*
X176107152Y-144968474D01*
X176113755Y-144943828D01*
X176117500Y-144929853D01*
X176117500Y-144929849D01*
X176117502Y-144929842D01*
X176117511Y-144929779D01*
X176117500Y-144882637D01*
X176117500Y-102584855D01*
X176117501Y-102584842D01*
X176117501Y-102489148D01*
X176103967Y-102438640D01*
X176095318Y-102406361D01*
X176065172Y-102354147D01*
X176061935Y-102348540D01*
X176052467Y-102332141D01*
X176052466Y-102332140D01*
X176052465Y-102332138D01*
X175991862Y-102271535D01*
X175991861Y-102271534D01*
X175987531Y-102267204D01*
X175987520Y-102267194D01*
X175346864Y-101626537D01*
X175346863Y-101626536D01*
X175346862Y-101626535D01*
X175301195Y-101600169D01*
X175272640Y-101583682D01*
X175231246Y-101572591D01*
X175189853Y-101561500D01*
X175189852Y-101561500D01*
X165703462Y-101561500D01*
X165695856Y-101561499D01*
X165695853Y-101561499D01*
X165654096Y-101561499D01*
X165587057Y-101541813D01*
X165553003Y-101502511D01*
X165541305Y-101489010D01*
X165541304Y-101489008D01*
X165533899Y-101437500D01*
X165531361Y-101419852D01*
X165531361Y-101419849D01*
X165549163Y-101380872D01*
X165560386Y-101356296D01*
X165566418Y-101349818D01*
X165640520Y-101275716D01*
X165719577Y-101138784D01*
X165760500Y-100986057D01*
X165760500Y-100827943D01*
X165719577Y-100675216D01*
X165716098Y-100669190D01*
X165692112Y-100627643D01*
X165687962Y-100612155D01*
X165680523Y-100600580D01*
X165675500Y-100565645D01*
X165675500Y-100374500D01*
X165695185Y-100307461D01*
X165747989Y-100261706D01*
X165799500Y-100250500D01*
X166012713Y-100250500D01*
X166012720Y-100250500D01*
X166125236Y-100235687D01*
X166265233Y-100177698D01*
X166385451Y-100085451D01*
X166477698Y-99965233D01*
X166509048Y-99889548D01*
X166552888Y-99835144D01*
X166619183Y-99813079D01*
X166623609Y-99813000D01*
X173800501Y-99813000D01*
X173867540Y-99832685D01*
X173913295Y-99885489D01*
X173924501Y-99937000D01*
X173924501Y-100004264D01*
X173927354Y-100034697D01*
X173927354Y-100034698D01*
X173927354Y-100034699D01*
X173972206Y-100162881D01*
X173972207Y-100162882D01*
X174052850Y-100272150D01*
X174162118Y-100352793D01*
X174290302Y-100397646D01*
X174290301Y-100397646D01*
X174294271Y-100398018D01*
X174320735Y-100400500D01*
X175679264Y-100400499D01*
X175709698Y-100397646D01*
X175837882Y-100352793D01*
X175947150Y-100272150D01*
X176027793Y-100162882D01*
X176072646Y-100034698D01*
X176075500Y-100004265D01*
X176075499Y-98970736D01*
X176072646Y-98940302D01*
X176027793Y-98812118D01*
X175947150Y-98702850D01*
X175866506Y-98643332D01*
X175837881Y-98622206D01*
X175709695Y-98577353D01*
X175709698Y-98577353D01*
X175679268Y-98574500D01*
X174320741Y-98574500D01*
X174290301Y-98577354D01*
X174290300Y-98577354D01*
X174162118Y-98622206D01*
X174052850Y-98702850D01*
X173972206Y-98812118D01*
X173927353Y-98940302D01*
X173924500Y-98970731D01*
X173924500Y-99038000D01*
X173904815Y-99105039D01*
X173852011Y-99150794D01*
X173800500Y-99162000D01*
X173080073Y-99162000D01*
X173013034Y-99142315D01*
X172967279Y-99089511D01*
X172957335Y-99020353D01*
X172983972Y-98959638D01*
X172989278Y-98953130D01*
X173083442Y-98772861D01*
X173139390Y-98577328D01*
X173139391Y-98577325D01*
X173149999Y-98458000D01*
X173150000Y-98457998D01*
X173150000Y-97250000D01*
X170150000Y-97250000D01*
X170150000Y-98458000D01*
X170160608Y-98577325D01*
X170160609Y-98577328D01*
X170216557Y-98772861D01*
X170310721Y-98953130D01*
X170316028Y-98959638D01*
X170343138Y-99024034D01*
X170331129Y-99092864D01*
X170283815Y-99144275D01*
X170219927Y-99162000D01*
X166674500Y-99162000D01*
X166607461Y-99142315D01*
X166561706Y-99089511D01*
X166550500Y-99038000D01*
X166550500Y-98887286D01*
X166550499Y-98887272D01*
X166549750Y-98881586D01*
X166535687Y-98774764D01*
X166477698Y-98634767D01*
X166385451Y-98514549D01*
X166265233Y-98422302D01*
X166265230Y-98422301D01*
X166258785Y-98417355D01*
X166259651Y-98416225D01*
X166217490Y-98372007D01*
X166204268Y-98303399D01*
X166230236Y-98238535D01*
X166272612Y-98204100D01*
X166449022Y-98116609D01*
X166449025Y-98116607D01*
X166597366Y-97997367D01*
X166597367Y-97997366D01*
X166716607Y-97849025D01*
X166716609Y-97849022D01*
X166801168Y-97678523D01*
X166847102Y-97493824D01*
X166850000Y-97451096D01*
X166850000Y-97250000D01*
X165474000Y-97250000D01*
X165406961Y-97230315D01*
X165361206Y-97177511D01*
X165350000Y-97126000D01*
X165350000Y-97024985D01*
X173625000Y-97024985D01*
X173635493Y-97127689D01*
X173635494Y-97127696D01*
X173690641Y-97294118D01*
X173690643Y-97294123D01*
X173782684Y-97443344D01*
X173906655Y-97567315D01*
X174055876Y-97659356D01*
X174055881Y-97659358D01*
X174222303Y-97714505D01*
X174222310Y-97714506D01*
X174325014Y-97724999D01*
X174325027Y-97725000D01*
X174750000Y-97725000D01*
X175250000Y-97725000D01*
X175674973Y-97725000D01*
X175674985Y-97724999D01*
X175777689Y-97714506D01*
X175777696Y-97714505D01*
X175944118Y-97659358D01*
X175944123Y-97659356D01*
X176093344Y-97567315D01*
X176217315Y-97443344D01*
X176309356Y-97294123D01*
X176309358Y-97294118D01*
X176364505Y-97127696D01*
X176364506Y-97127689D01*
X176374999Y-97024985D01*
X176375000Y-97024972D01*
X176375000Y-96762500D01*
X175250000Y-96762500D01*
X175250000Y-97725000D01*
X174750000Y-97725000D01*
X174750000Y-96762500D01*
X173625000Y-96762500D01*
X173625000Y-97024985D01*
X165350000Y-97024985D01*
X165350000Y-96874000D01*
X165369685Y-96806961D01*
X165422489Y-96761206D01*
X165474000Y-96750000D01*
X166850000Y-96750000D01*
X166850000Y-96548903D01*
X166847102Y-96506175D01*
X166801168Y-96321476D01*
X166716609Y-96150977D01*
X166716607Y-96150974D01*
X166597367Y-96002633D01*
X166597366Y-96002632D01*
X166449025Y-95883392D01*
X166272611Y-95795899D01*
X166221299Y-95748478D01*
X166203770Y-95680843D01*
X166225589Y-95614468D01*
X166247808Y-95589983D01*
X166259637Y-95580015D01*
X166265233Y-95577698D01*
X166311757Y-95541999D01*
X170150000Y-95541999D01*
X170150000Y-96750000D01*
X171400000Y-96750000D01*
X171900000Y-96750000D01*
X173150000Y-96750000D01*
X173150000Y-96000014D01*
X173625000Y-96000014D01*
X173625000Y-96262500D01*
X174750000Y-96262500D01*
X175250000Y-96262500D01*
X176375000Y-96262500D01*
X176375000Y-96000027D01*
X176374999Y-96000014D01*
X176364506Y-95897310D01*
X176364505Y-95897303D01*
X176309358Y-95730881D01*
X176309356Y-95730876D01*
X176217315Y-95581655D01*
X176093344Y-95457684D01*
X175944123Y-95365643D01*
X175944118Y-95365641D01*
X175777696Y-95310494D01*
X175777689Y-95310493D01*
X175674985Y-95300000D01*
X175250000Y-95300000D01*
X175250000Y-96262500D01*
X174750000Y-96262500D01*
X174750000Y-95300000D01*
X174325014Y-95300000D01*
X174222310Y-95310493D01*
X174222303Y-95310494D01*
X174055881Y-95365641D01*
X174055876Y-95365643D01*
X173906655Y-95457684D01*
X173782684Y-95581655D01*
X173690643Y-95730876D01*
X173690641Y-95730881D01*
X173635494Y-95897303D01*
X173635493Y-95897310D01*
X173625000Y-96000014D01*
X173150000Y-96000014D01*
X173150000Y-95542002D01*
X173149999Y-95541999D01*
X173139391Y-95422674D01*
X173139390Y-95422671D01*
X173083442Y-95227138D01*
X172989278Y-95046870D01*
X172860753Y-94889246D01*
X172703129Y-94760721D01*
X172522861Y-94666557D01*
X172327328Y-94610609D01*
X172327325Y-94610608D01*
X172208000Y-94600000D01*
X171900000Y-94600000D01*
X171900000Y-96750000D01*
X171400000Y-96750000D01*
X171400000Y-94600000D01*
X171091999Y-94600000D01*
X170972674Y-94610608D01*
X170972671Y-94610609D01*
X170777138Y-94666557D01*
X170596870Y-94760721D01*
X170439246Y-94889246D01*
X170310721Y-95046870D01*
X170216557Y-95227138D01*
X170160609Y-95422671D01*
X170160608Y-95422674D01*
X170150000Y-95541999D01*
X166311757Y-95541999D01*
X166385451Y-95485451D01*
X166477698Y-95365233D01*
X166535687Y-95225236D01*
X166550500Y-95112720D01*
X166550500Y-94287280D01*
X166535687Y-94174764D01*
X166477698Y-94034767D01*
X166385451Y-93914549D01*
X166265233Y-93822302D01*
X166265229Y-93822300D01*
X166201801Y-93796027D01*
X166125236Y-93764313D01*
X166111171Y-93762461D01*
X166012727Y-93749500D01*
X166012720Y-93749500D01*
X164687280Y-93749500D01*
X164687272Y-93749500D01*
X164574764Y-93764313D01*
X164574763Y-93764313D01*
X164434770Y-93822300D01*
X164434767Y-93822301D01*
X164434767Y-93822302D01*
X164314549Y-93914549D01*
X164228571Y-94026598D01*
X164222300Y-94034770D01*
X164164313Y-94174763D01*
X164164313Y-94174764D01*
X164149500Y-94287272D01*
X164149500Y-95112727D01*
X164164313Y-95225235D01*
X164164314Y-95225239D01*
X164191293Y-95290373D01*
X164198762Y-95359842D01*
X164167486Y-95422321D01*
X164164425Y-95425495D01*
X163202375Y-96387796D01*
X163202269Y-96387902D01*
X163202184Y-96387988D01*
X163171535Y-96418638D01*
X163171524Y-96418656D01*
X163171509Y-96418672D01*
X163150330Y-96455365D01*
X163144858Y-96464843D01*
X163128678Y-96492867D01*
X163128668Y-96492891D01*
X163125111Y-96506175D01*
X163117551Y-96534401D01*
X163106500Y-96575647D01*
X163106500Y-96575667D01*
X163106494Y-96575690D01*
X163106500Y-96622438D01*
X163106500Y-108616415D01*
X163106491Y-108661789D01*
X163106500Y-108661822D01*
X163106500Y-108661853D01*
X163107400Y-108665215D01*
X163107401Y-108665218D01*
X163117361Y-108702387D01*
X163117364Y-108702410D01*
X163117367Y-108702410D01*
X163128659Y-108744584D01*
X163128677Y-108744630D01*
X163128682Y-108744638D01*
X163149999Y-108781560D01*
X163150008Y-108781577D01*
X163150011Y-108781581D01*
X163171495Y-108818810D01*
X163171538Y-108818866D01*
X163202328Y-108849655D01*
X163202346Y-108849673D01*
X164891720Y-110539705D01*
X164925193Y-110601034D01*
X164927481Y-110638944D01*
X164927354Y-110640301D01*
X164927354Y-110640302D01*
X164924501Y-110670731D01*
X164924500Y-110670739D01*
X164924500Y-111704258D01*
X164927354Y-111734698D01*
X164927354Y-111734699D01*
X164972206Y-111862881D01*
X164972207Y-111862882D01*
X165052850Y-111972150D01*
X165162118Y-112052793D01*
X165290302Y-112097646D01*
X165290301Y-112097646D01*
X165294867Y-112098074D01*
X165320735Y-112100500D01*
X165450500Y-112100499D01*
X165517539Y-112120183D01*
X165563294Y-112172987D01*
X165574500Y-112224499D01*
X165574500Y-116075500D01*
X165554815Y-116142539D01*
X165502011Y-116188294D01*
X165450501Y-116199500D01*
X165220742Y-116199500D01*
X165190301Y-116202354D01*
X165190300Y-116202354D01*
X165062118Y-116247206D01*
X164952850Y-116327850D01*
X164872206Y-116437118D01*
X164827353Y-116565302D01*
X164824500Y-116595731D01*
X164824500Y-117629258D01*
X164827354Y-117659698D01*
X164827354Y-117659699D01*
X164872206Y-117787881D01*
X164872207Y-117787882D01*
X164952850Y-117897150D01*
X165062118Y-117977793D01*
X165190302Y-118022646D01*
X165190301Y-118022646D01*
X165194271Y-118023018D01*
X165220735Y-118025500D01*
X166301143Y-118025499D01*
X166368182Y-118045184D01*
X166388865Y-118061858D01*
X166514755Y-118187864D01*
X166719495Y-118392793D01*
X166719535Y-118392862D01*
X166750854Y-118424181D01*
X166750855Y-118424183D01*
X166781953Y-118455310D01*
X166790210Y-118462537D01*
X170298181Y-121970507D01*
X170331666Y-122031830D01*
X170334500Y-122058188D01*
X170334500Y-125303456D01*
X170314815Y-125370495D01*
X170298181Y-125391137D01*
X170220803Y-125468514D01*
X170169426Y-125573608D01*
X170159500Y-125641739D01*
X170159500Y-126872519D01*
X170150847Y-126901985D01*
X170144304Y-126931998D01*
X170140572Y-126936977D01*
X170139815Y-126939558D01*
X170123139Y-126960242D01*
X170102139Y-126981222D01*
X170040800Y-127014678D01*
X169971111Y-127009660D01*
X169915197Y-126967762D01*
X169890812Y-126902286D01*
X169890500Y-126893499D01*
X169890500Y-125641739D01*
X169880573Y-125573608D01*
X169880573Y-125573607D01*
X169829198Y-125468517D01*
X169829196Y-125468515D01*
X169829196Y-125468514D01*
X169746485Y-125385803D01*
X169641391Y-125334426D01*
X169573261Y-125324500D01*
X169573260Y-125324500D01*
X169206740Y-125324500D01*
X169206739Y-125324500D01*
X169138608Y-125334426D01*
X169033514Y-125385803D01*
X168950803Y-125468514D01*
X168899426Y-125573608D01*
X168889500Y-125641739D01*
X168889500Y-125962500D01*
X168869815Y-126029539D01*
X168817011Y-126075294D01*
X168765500Y-126086500D01*
X167099499Y-126086500D01*
X167032460Y-126066815D01*
X166986705Y-126014011D01*
X166975499Y-125962500D01*
X166975499Y-125895741D01*
X166975499Y-125895736D01*
X166972646Y-125865302D01*
X166927793Y-125737118D01*
X166847150Y-125627850D01*
X166737882Y-125547207D01*
X166737881Y-125547206D01*
X166609695Y-125502353D01*
X166609698Y-125502353D01*
X166579269Y-125499500D01*
X166579265Y-125499500D01*
X166349500Y-125499500D01*
X166282461Y-125479815D01*
X166236706Y-125427011D01*
X166225500Y-125375500D01*
X166225500Y-121124499D01*
X166245185Y-121057460D01*
X166297989Y-121011705D01*
X166349500Y-121000499D01*
X166579258Y-121000499D01*
X166579264Y-121000499D01*
X166609698Y-120997646D01*
X166737882Y-120952793D01*
X166847150Y-120872150D01*
X166927793Y-120762882D01*
X166972646Y-120634698D01*
X166975500Y-120604265D01*
X166975499Y-119570736D01*
X166972646Y-119540302D01*
X166927793Y-119412118D01*
X166847150Y-119302850D01*
X166754822Y-119234709D01*
X166737881Y-119222206D01*
X166609695Y-119177353D01*
X166609698Y-119177353D01*
X166579269Y-119174500D01*
X166579265Y-119174500D01*
X165498440Y-119174500D01*
X165431401Y-119154815D01*
X165410750Y-119138172D01*
X161966810Y-115693510D01*
X161933331Y-115632183D01*
X161930500Y-115605838D01*
X161930500Y-100363841D01*
X161930504Y-100363827D01*
X161930500Y-100314852D01*
X161930500Y-100278147D01*
X161930500Y-100278142D01*
X161930497Y-100278122D01*
X161923026Y-100250252D01*
X161918386Y-100232940D01*
X161908318Y-100195362D01*
X161908315Y-100195358D01*
X161908312Y-100195345D01*
X161908308Y-100195338D01*
X161908308Y-100195337D01*
X161898122Y-100177698D01*
X161885438Y-100155732D01*
X161885434Y-100155725D01*
X161866133Y-100122295D01*
X161865541Y-100121240D01*
X161865445Y-100121112D01*
X161834424Y-100090097D01*
X161834415Y-100090088D01*
X161799248Y-100054920D01*
X161799190Y-100054869D01*
X160093546Y-98349500D01*
X157805865Y-96062187D01*
X157772376Y-96000868D01*
X157777355Y-95931176D01*
X157819222Y-95875239D01*
X157884684Y-95850817D01*
X157893540Y-95850500D01*
X158029750Y-95850500D01*
X158029751Y-95850499D01*
X158044568Y-95847552D01*
X158088229Y-95838868D01*
X158088229Y-95838867D01*
X158088231Y-95838867D01*
X158154552Y-95794552D01*
X158198867Y-95728231D01*
X158198867Y-95728229D01*
X158198868Y-95728229D01*
X158210499Y-95669752D01*
X158210500Y-95669750D01*
X158210500Y-94998543D01*
X158799499Y-94998543D01*
X158837947Y-95191829D01*
X158837950Y-95191839D01*
X158913364Y-95373907D01*
X158913371Y-95373920D01*
X159022860Y-95537781D01*
X159022863Y-95537785D01*
X159162214Y-95677136D01*
X159162218Y-95677139D01*
X159326079Y-95786628D01*
X159326092Y-95786635D01*
X159492405Y-95855523D01*
X159508165Y-95862051D01*
X159508169Y-95862051D01*
X159508170Y-95862052D01*
X159701456Y-95900500D01*
X159701459Y-95900500D01*
X159898543Y-95900500D01*
X160050943Y-95870185D01*
X160091835Y-95862051D01*
X160273914Y-95786632D01*
X160437782Y-95677139D01*
X160577139Y-95537782D01*
X160686632Y-95373914D01*
X160762051Y-95191835D01*
X160792103Y-95040756D01*
X160800500Y-94998543D01*
X160800500Y-94801456D01*
X160762052Y-94608170D01*
X160762051Y-94608169D01*
X160762051Y-94608165D01*
X160726862Y-94523211D01*
X160686635Y-94426092D01*
X160686628Y-94426079D01*
X160577139Y-94262218D01*
X160577136Y-94262214D01*
X160437785Y-94122863D01*
X160437781Y-94122860D01*
X160273920Y-94013371D01*
X160273907Y-94013364D01*
X160091839Y-93937950D01*
X160091829Y-93937947D01*
X159898543Y-93899500D01*
X159898541Y-93899500D01*
X159701459Y-93899500D01*
X159701457Y-93899500D01*
X159508170Y-93937947D01*
X159508160Y-93937950D01*
X159326092Y-94013364D01*
X159326079Y-94013371D01*
X159162218Y-94122860D01*
X159162214Y-94122863D01*
X159022863Y-94262214D01*
X159022860Y-94262218D01*
X158913371Y-94426079D01*
X158913364Y-94426092D01*
X158837950Y-94608160D01*
X158837947Y-94608170D01*
X158799500Y-94801456D01*
X158799500Y-94801459D01*
X158799500Y-94998541D01*
X158799500Y-94998543D01*
X158799499Y-94998543D01*
X158210500Y-94998543D01*
X158210500Y-94130249D01*
X158210499Y-94130247D01*
X158198868Y-94071770D01*
X158198867Y-94071769D01*
X158154552Y-94005447D01*
X158088230Y-93961132D01*
X158088229Y-93961131D01*
X158029752Y-93949500D01*
X158029748Y-93949500D01*
X156623500Y-93949500D01*
X156556461Y-93929815D01*
X156510706Y-93877011D01*
X156499500Y-93825500D01*
X156499500Y-91913046D01*
X156499501Y-91904631D01*
X156499505Y-91904618D01*
X156499503Y-91891971D01*
X156509756Y-91857074D01*
X156519178Y-91824967D01*
X156519192Y-91824954D01*
X156519197Y-91824938D01*
X156544520Y-91803001D01*
X156571975Y-91779205D01*
X156571993Y-91779202D01*
X156572008Y-91779190D01*
X156606952Y-91774171D01*
X156641133Y-91769252D01*
X156641149Y-91769259D01*
X156641168Y-91769257D01*
X156671966Y-91783327D01*
X156704692Y-91798267D01*
X156704716Y-91798289D01*
X156704719Y-91798291D01*
X156704720Y-91798293D01*
X156711184Y-91804311D01*
X157327194Y-92420320D01*
X157327204Y-92420331D01*
X157392139Y-92485266D01*
X157423000Y-92503083D01*
X157466122Y-92527979D01*
X157466353Y-92528114D01*
X157466361Y-92528117D01*
X157466362Y-92528118D01*
X157549147Y-92550301D01*
X157549150Y-92550301D01*
X157642449Y-92550301D01*
X157642465Y-92550300D01*
X165082412Y-92550300D01*
X165133835Y-92550303D01*
X165133846Y-92550300D01*
X165133853Y-92550300D01*
X165173508Y-92539674D01*
X165173510Y-92539674D01*
X165204930Y-92531256D01*
X165216623Y-92528124D01*
X165216625Y-92528122D01*
X165217055Y-92528007D01*
X165220036Y-92526155D01*
X165252014Y-92507691D01*
X165252025Y-92507689D01*
X165252024Y-92507687D01*
X165287693Y-92487097D01*
X165290848Y-92485276D01*
X165290849Y-92485274D01*
X165291385Y-92484965D01*
X165294189Y-92481936D01*
X165305867Y-92470258D01*
X165319098Y-92457029D01*
X165319100Y-92457026D01*
X165464041Y-92312100D01*
X167059498Y-90716813D01*
X167120823Y-90683332D01*
X167147175Y-90680500D01*
X169225500Y-90680500D01*
X169292539Y-90700185D01*
X169338294Y-90752989D01*
X169349500Y-90804500D01*
X169349500Y-92124752D01*
X169361131Y-92183229D01*
X169361132Y-92183230D01*
X169405447Y-92249552D01*
X169471769Y-92293867D01*
X169471770Y-92293868D01*
X169530247Y-92305499D01*
X169530250Y-92305500D01*
X169530252Y-92305500D01*
X173069750Y-92305500D01*
X173069751Y-92305499D01*
X173084568Y-92302552D01*
X173128229Y-92293868D01*
X173128229Y-92293867D01*
X173128231Y-92293867D01*
X173194552Y-92249552D01*
X173238867Y-92183231D01*
X173238867Y-92183229D01*
X173238868Y-92183229D01*
X173250499Y-92124752D01*
X173250500Y-92124750D01*
X173250500Y-88585249D01*
X173250499Y-88585247D01*
X173238868Y-88526770D01*
X173238867Y-88526769D01*
X173194552Y-88460447D01*
X173128230Y-88416132D01*
X173128229Y-88416131D01*
X173069752Y-88404500D01*
X173069748Y-88404500D01*
X169530252Y-88404500D01*
X169530247Y-88404500D01*
X169471770Y-88416131D01*
X169471769Y-88416132D01*
X169405447Y-88460447D01*
X169361132Y-88526769D01*
X169361131Y-88526770D01*
X169349500Y-88585247D01*
X169349500Y-89905500D01*
X169329815Y-89972539D01*
X169277011Y-90018294D01*
X169225500Y-90029500D01*
X167410500Y-90029500D01*
X167343461Y-90009815D01*
X167297706Y-89957011D01*
X167286500Y-89905500D01*
X167286500Y-85455444D01*
X168298106Y-85455444D01*
X168298107Y-85455445D01*
X168557957Y-85673486D01*
X168879841Y-85898872D01*
X168879856Y-85898881D01*
X169220145Y-86095347D01*
X169220161Y-86095355D01*
X169576266Y-86261411D01*
X169576281Y-86261417D01*
X169945541Y-86395817D01*
X170325086Y-86497514D01*
X170325099Y-86497517D01*
X170712070Y-86565751D01*
X170712068Y-86565751D01*
X171103524Y-86599999D01*
X171103525Y-86600000D01*
X171496475Y-86600000D01*
X171496475Y-86599999D01*
X171887930Y-86565751D01*
X172274900Y-86497517D01*
X172274913Y-86497514D01*
X172654458Y-86395817D01*
X173023718Y-86261417D01*
X173023733Y-86261411D01*
X173379838Y-86095355D01*
X173379854Y-86095347D01*
X173720143Y-85898881D01*
X173720158Y-85898872D01*
X174042042Y-85673486D01*
X174301891Y-85455445D01*
X174301892Y-85455444D01*
X173195594Y-84349147D01*
X173162109Y-84287824D01*
X173167093Y-84218132D01*
X173180174Y-84192574D01*
X173188674Y-84179854D01*
X173220775Y-84131811D01*
X173273580Y-84004328D01*
X173275489Y-83994726D01*
X173307870Y-83932817D01*
X173368584Y-83898240D01*
X173438354Y-83901976D01*
X173484788Y-83931234D01*
X174655444Y-85101892D01*
X174655445Y-85101891D01*
X174873486Y-84842042D01*
X175098872Y-84520158D01*
X175098881Y-84520143D01*
X175295347Y-84179854D01*
X175295355Y-84179838D01*
X175461411Y-83823733D01*
X175461417Y-83823718D01*
X175595817Y-83454458D01*
X175697514Y-83074913D01*
X175697517Y-83074900D01*
X175765751Y-82687930D01*
X175799999Y-82296475D01*
X175800000Y-82296475D01*
X175800000Y-81903525D01*
X175799999Y-81903524D01*
X175765751Y-81512069D01*
X175697517Y-81125099D01*
X175697514Y-81125086D01*
X175595817Y-80745541D01*
X175461417Y-80376281D01*
X175461411Y-80376266D01*
X175295355Y-80020161D01*
X175295347Y-80020145D01*
X175098881Y-79679856D01*
X175098872Y-79679841D01*
X174873486Y-79357957D01*
X174655445Y-79098107D01*
X174655444Y-79098106D01*
X171653553Y-82099999D01*
X172468765Y-82915211D01*
X172502250Y-82976534D01*
X172497266Y-83046225D01*
X172455394Y-83102159D01*
X172405278Y-83124509D01*
X172395674Y-83126419D01*
X172395667Y-83126421D01*
X172268195Y-83179221D01*
X172268177Y-83179231D01*
X172207423Y-83219826D01*
X172140746Y-83240704D01*
X172073366Y-83222219D01*
X172050852Y-83204405D01*
X171300000Y-82453553D01*
X168298106Y-85455444D01*
X167286500Y-85455444D01*
X167286500Y-84606916D01*
X167306185Y-84539877D01*
X167358989Y-84494122D01*
X167428147Y-84484178D01*
X167491703Y-84513203D01*
X167512075Y-84535793D01*
X167726509Y-84842037D01*
X167944553Y-85101891D01*
X167944554Y-85101892D01*
X174301892Y-78744554D01*
X174301891Y-78744553D01*
X174042042Y-78526513D01*
X173720158Y-78301127D01*
X173720143Y-78301118D01*
X173379854Y-78104652D01*
X173379838Y-78104644D01*
X173023733Y-77938588D01*
X173023718Y-77938582D01*
X172654458Y-77804182D01*
X172274913Y-77702485D01*
X172274900Y-77702482D01*
X171887929Y-77634248D01*
X171887931Y-77634248D01*
X171496475Y-77600000D01*
X171103525Y-77600000D01*
X170712069Y-77634248D01*
X170325099Y-77702482D01*
X170325079Y-77702486D01*
X170300192Y-77709155D01*
X170230342Y-77707492D01*
X170172480Y-77668328D01*
X170144977Y-77604100D01*
X170156564Y-77535198D01*
X170180413Y-77501705D01*
X171517197Y-76164829D01*
X171551803Y-76130223D01*
X171554127Y-76128318D01*
X171559047Y-76123070D01*
X171560402Y-76121669D01*
X171560462Y-76121564D01*
X171560465Y-76121562D01*
X171560469Y-76121554D01*
X171560472Y-76121552D01*
X171583488Y-76081684D01*
X171583490Y-76081682D01*
X171599607Y-76053765D01*
X171603318Y-76047338D01*
X171603319Y-76047332D01*
X171603322Y-76047328D01*
X171616850Y-75996835D01*
X171625284Y-75965356D01*
X171625490Y-75964615D01*
X171625496Y-75964565D01*
X171625500Y-75964553D01*
X171625500Y-75964548D01*
X171625502Y-75964541D01*
X171625500Y-75919503D01*
X171645182Y-75852464D01*
X171697984Y-75806708D01*
X171749500Y-75795500D01*
X171783117Y-75795500D01*
X171850156Y-75815185D01*
X171895911Y-75867989D01*
X171904734Y-75895309D01*
X171926418Y-76004320D01*
X171926421Y-76004332D01*
X171979221Y-76131804D01*
X171979228Y-76131817D01*
X172055885Y-76246541D01*
X172055888Y-76246545D01*
X172153454Y-76344111D01*
X172153458Y-76344114D01*
X172268182Y-76420771D01*
X172268195Y-76420778D01*
X172395667Y-76473578D01*
X172395672Y-76473580D01*
X172395676Y-76473580D01*
X172395677Y-76473581D01*
X172531004Y-76500500D01*
X172531007Y-76500500D01*
X172668995Y-76500500D01*
X172761314Y-76482136D01*
X172804328Y-76473580D01*
X172931811Y-76420775D01*
X173046542Y-76344114D01*
X173144114Y-76246542D01*
X173220775Y-76131811D01*
X173273580Y-76004328D01*
X173286943Y-75937147D01*
X173300500Y-75868995D01*
X173300500Y-75731004D01*
X173274431Y-75599951D01*
X173273580Y-75595672D01*
X173259937Y-75562734D01*
X173250500Y-75515287D01*
X173250500Y-72075249D01*
X173250499Y-72075247D01*
X173238868Y-72016770D01*
X173238867Y-72016769D01*
X173194552Y-71950447D01*
X173128230Y-71906132D01*
X173128229Y-71906131D01*
X173069752Y-71894500D01*
X173069748Y-71894500D01*
X169530252Y-71894500D01*
X169530247Y-71894500D01*
X169471770Y-71906131D01*
X169471769Y-71906132D01*
X169405447Y-71950447D01*
X169361132Y-72016769D01*
X169361131Y-72016770D01*
X169349500Y-72075247D01*
X169349500Y-75614752D01*
X169361131Y-75673229D01*
X169361132Y-75673230D01*
X169405447Y-75739552D01*
X169471769Y-75783867D01*
X169471770Y-75783868D01*
X169530247Y-75795499D01*
X169530250Y-75795500D01*
X169530252Y-75795500D01*
X170666534Y-75795500D01*
X170733573Y-75815185D01*
X170779328Y-75867989D01*
X170789272Y-75937147D01*
X170760247Y-76000703D01*
X170754224Y-76007171D01*
X170199666Y-76561768D01*
X166730315Y-80031355D01*
X166730259Y-80031412D01*
X166729568Y-80032104D01*
X166700535Y-80061138D01*
X166700532Y-80061142D01*
X166700528Y-80061147D01*
X166699043Y-80063718D01*
X166699041Y-80063721D01*
X166680205Y-80096350D01*
X166680204Y-80096351D01*
X166659002Y-80133075D01*
X166657682Y-80135362D01*
X166657680Y-80135367D01*
X166657678Y-80135372D01*
X166648246Y-80170577D01*
X166647984Y-80171551D01*
X166647967Y-80171614D01*
X166635498Y-80218154D01*
X166635500Y-80265538D01*
X166635500Y-90168795D01*
X166615815Y-90235834D01*
X166599177Y-90256481D01*
X165537177Y-91318367D01*
X165475852Y-91351849D01*
X165406160Y-91346860D01*
X165350229Y-91304986D01*
X165325815Y-91239520D01*
X165325500Y-91230681D01*
X165325500Y-90195730D01*
X165322646Y-90165300D01*
X165322646Y-90165298D01*
X165277793Y-90037119D01*
X165277792Y-90037117D01*
X165197150Y-89927850D01*
X165087882Y-89847207D01*
X165087880Y-89847206D01*
X164959700Y-89802353D01*
X164929270Y-89799500D01*
X164929266Y-89799500D01*
X164912000Y-89799500D01*
X164903632Y-89797043D01*
X164895008Y-89798330D01*
X164870619Y-89787349D01*
X164844961Y-89779815D01*
X164839251Y-89773226D01*
X164831298Y-89769645D01*
X164816716Y-89747218D01*
X164799206Y-89727011D01*
X164796965Y-89716843D01*
X164793211Y-89711069D01*
X164788285Y-89677445D01*
X164788002Y-89676161D01*
X164788000Y-89675785D01*
X164788000Y-89593647D01*
X164787553Y-89591978D01*
X164787502Y-89582385D01*
X164787535Y-89582268D01*
X164787500Y-89581724D01*
X164787500Y-88774500D01*
X164807185Y-88707461D01*
X164859989Y-88661706D01*
X164911500Y-88650500D01*
X164929270Y-88650500D01*
X164959699Y-88647646D01*
X164959701Y-88647646D01*
X165023790Y-88625219D01*
X165087882Y-88602793D01*
X165197150Y-88522150D01*
X165277793Y-88412882D01*
X165304436Y-88336740D01*
X165322646Y-88284701D01*
X165322646Y-88284699D01*
X165325500Y-88254269D01*
X165325500Y-86845730D01*
X165322646Y-86815300D01*
X165322646Y-86815298D01*
X165277793Y-86687119D01*
X165277792Y-86687117D01*
X165197150Y-86577850D01*
X165087882Y-86497207D01*
X165087880Y-86497206D01*
X164959700Y-86452353D01*
X164929270Y-86449500D01*
X164929266Y-86449500D01*
X164911500Y-86449500D01*
X164902814Y-86446949D01*
X164893853Y-86448238D01*
X164869812Y-86437259D01*
X164844461Y-86429815D01*
X164838533Y-86422974D01*
X164830297Y-86419213D01*
X164816007Y-86396978D01*
X164798706Y-86377011D01*
X164796418Y-86366496D01*
X164792523Y-86360435D01*
X164787500Y-86325500D01*
X164787500Y-86324377D01*
X164787515Y-86280556D01*
X164787502Y-86280454D01*
X164776715Y-86240195D01*
X164776717Y-86240194D01*
X164776703Y-86240154D01*
X164770144Y-86215643D01*
X164765360Y-86197763D01*
X164765356Y-86197756D01*
X164765319Y-86197666D01*
X164765318Y-86197662D01*
X164765315Y-86197657D01*
X164765314Y-86197654D01*
X164743890Y-86160547D01*
X164743868Y-86160510D01*
X164735774Y-86146481D01*
X164722532Y-86123526D01*
X164722530Y-86123524D01*
X164722529Y-86123522D01*
X164722465Y-86123438D01*
X164691210Y-86092183D01*
X164650568Y-86051513D01*
X164624935Y-86004532D01*
X164617104Y-85990180D01*
X164615944Y-85962185D01*
X164614500Y-85962185D01*
X164614500Y-85795945D01*
X164614500Y-85795943D01*
X164573577Y-85643216D01*
X164553288Y-85608074D01*
X164494524Y-85506289D01*
X164489690Y-85499990D01*
X164464493Y-85434821D01*
X164478529Y-85366376D01*
X164527342Y-85316385D01*
X164588063Y-85300500D01*
X164929270Y-85300500D01*
X164959699Y-85297646D01*
X164959701Y-85297646D01*
X165023790Y-85275219D01*
X165087882Y-85252793D01*
X165197150Y-85172150D01*
X165277793Y-85062882D01*
X165300219Y-84998790D01*
X165322646Y-84934701D01*
X165322646Y-84934699D01*
X165325500Y-84904269D01*
X165325500Y-83495730D01*
X165322646Y-83465300D01*
X165322646Y-83465298D01*
X165289006Y-83369163D01*
X165277793Y-83337118D01*
X165197150Y-83227850D01*
X165087882Y-83147207D01*
X165087880Y-83147206D01*
X164959700Y-83102353D01*
X164929270Y-83099500D01*
X164929266Y-83099500D01*
X164701998Y-83099500D01*
X164634959Y-83079815D01*
X164589204Y-83027011D01*
X164579260Y-82957853D01*
X164608285Y-82894297D01*
X164614317Y-82887819D01*
X164719520Y-82782616D01*
X164798577Y-82645684D01*
X164839500Y-82492957D01*
X164839500Y-82334843D01*
X164798577Y-82182116D01*
X164798575Y-82182113D01*
X164798574Y-82182108D01*
X164796936Y-82178153D01*
X164795310Y-82169980D01*
X164792523Y-82165643D01*
X164787500Y-82130708D01*
X164787500Y-82074500D01*
X164807185Y-82007461D01*
X164859989Y-81961706D01*
X164911500Y-81950500D01*
X164929270Y-81950500D01*
X164959699Y-81947646D01*
X164959701Y-81947646D01*
X165034246Y-81921561D01*
X165087882Y-81902793D01*
X165197150Y-81822150D01*
X165277793Y-81712882D01*
X165307298Y-81628562D01*
X165322646Y-81584701D01*
X165322646Y-81584699D01*
X165325500Y-81554269D01*
X165325500Y-80145730D01*
X165322646Y-80115300D01*
X165322646Y-80115298D01*
X165284059Y-80005025D01*
X165277793Y-79987118D01*
X165197150Y-79877850D01*
X165087882Y-79797207D01*
X165087880Y-79797206D01*
X164959700Y-79752353D01*
X164929270Y-79749500D01*
X164929266Y-79749500D01*
X163995734Y-79749500D01*
X163995730Y-79749500D01*
X163965300Y-79752353D01*
X163965298Y-79752353D01*
X163837119Y-79797206D01*
X163837117Y-79797207D01*
X163727850Y-79877850D01*
X163647207Y-79987117D01*
X163647206Y-79987119D01*
X163602353Y-80115298D01*
X163602353Y-80115300D01*
X163599500Y-80145730D01*
X163599500Y-81554269D01*
X163602353Y-81584699D01*
X163602353Y-81584701D01*
X163638099Y-81686853D01*
X163647207Y-81712882D01*
X163727850Y-81822150D01*
X163757864Y-81844301D01*
X163800115Y-81899949D01*
X163805573Y-81969605D01*
X163772505Y-82031154D01*
X163771914Y-82031750D01*
X163758478Y-82045185D01*
X163758475Y-82045190D01*
X163679426Y-82182109D01*
X163679423Y-82182116D01*
X163638500Y-82334843D01*
X163638500Y-82492956D01*
X163679423Y-82645683D01*
X163679426Y-82645690D01*
X163758475Y-82782609D01*
X163758481Y-82782617D01*
X163876031Y-82900167D01*
X163874802Y-82901395D01*
X163887674Y-82921424D01*
X163906179Y-82946755D01*
X163907008Y-82951509D01*
X163908477Y-82953795D01*
X163913500Y-82988730D01*
X163913500Y-83032497D01*
X163893815Y-83099536D01*
X163844854Y-83141960D01*
X163845333Y-83142865D01*
X163841430Y-83144927D01*
X163841011Y-83145291D01*
X163839886Y-83145743D01*
X163837120Y-83147205D01*
X163727850Y-83227850D01*
X163647207Y-83337117D01*
X163647206Y-83337119D01*
X163602353Y-83465298D01*
X163602353Y-83465300D01*
X163599500Y-83495730D01*
X163599500Y-84904269D01*
X163602353Y-84934699D01*
X163602353Y-84934701D01*
X163643403Y-85052011D01*
X163647207Y-85062882D01*
X163727849Y-85172149D01*
X163733368Y-85179626D01*
X163731199Y-85181226D01*
X163757797Y-85229935D01*
X163752813Y-85299627D01*
X163710941Y-85355560D01*
X163698631Y-85363680D01*
X163645287Y-85394477D01*
X163645282Y-85394481D01*
X163533481Y-85506282D01*
X163533475Y-85506290D01*
X163454426Y-85643209D01*
X163454423Y-85643216D01*
X163413500Y-85795943D01*
X163413500Y-85954057D01*
X163451359Y-86095347D01*
X163454423Y-86106783D01*
X163454426Y-86106790D01*
X163533475Y-86243709D01*
X163533479Y-86243714D01*
X163533480Y-86243716D01*
X163645284Y-86355520D01*
X163698629Y-86386319D01*
X163746846Y-86436884D01*
X163760070Y-86505491D01*
X163734103Y-86570356D01*
X163729814Y-86575189D01*
X163727850Y-86577849D01*
X163727850Y-86577850D01*
X163725614Y-86580880D01*
X163647207Y-86687117D01*
X163647206Y-86687119D01*
X163602353Y-86815298D01*
X163602353Y-86815300D01*
X163599500Y-86845730D01*
X163599500Y-88254269D01*
X163602353Y-88284699D01*
X163602353Y-88284701D01*
X163644274Y-88404500D01*
X163647207Y-88412882D01*
X163727850Y-88522150D01*
X163837118Y-88602793D01*
X163879845Y-88617744D01*
X163965299Y-88647646D01*
X163995730Y-88650500D01*
X163995734Y-88650500D01*
X164012500Y-88650500D01*
X164079539Y-88670185D01*
X164125294Y-88722989D01*
X164136500Y-88774500D01*
X164136500Y-89675500D01*
X164116815Y-89742539D01*
X164064011Y-89788294D01*
X164012500Y-89799500D01*
X163995730Y-89799500D01*
X163965300Y-89802353D01*
X163965298Y-89802353D01*
X163837119Y-89847206D01*
X163837117Y-89847207D01*
X163727850Y-89927850D01*
X163647207Y-90037117D01*
X163647206Y-90037119D01*
X163602353Y-90165298D01*
X163602353Y-90165300D01*
X163599500Y-90195730D01*
X163599500Y-91604269D01*
X163602353Y-91634699D01*
X163602354Y-91634701D01*
X163637221Y-91734345D01*
X163640783Y-91804124D01*
X163606055Y-91864751D01*
X163544061Y-91896979D01*
X163520180Y-91899300D01*
X162279820Y-91899300D01*
X162212781Y-91879615D01*
X162167026Y-91826811D01*
X162157082Y-91757653D01*
X162162779Y-91734345D01*
X162197645Y-91634701D01*
X162197646Y-91634699D01*
X162200500Y-91604269D01*
X162200500Y-90195730D01*
X162197646Y-90165300D01*
X162197646Y-90165298D01*
X162152793Y-90037119D01*
X162152792Y-90037117D01*
X162072150Y-89927850D01*
X161962882Y-89847207D01*
X161962880Y-89847206D01*
X161834700Y-89802353D01*
X161804270Y-89799500D01*
X161804266Y-89799500D01*
X160870734Y-89799500D01*
X160870730Y-89799500D01*
X160840300Y-89802353D01*
X160840298Y-89802353D01*
X160712119Y-89847206D01*
X160712117Y-89847207D01*
X160602850Y-89927850D01*
X160522207Y-90037117D01*
X160522206Y-90037119D01*
X160477353Y-90165298D01*
X160477353Y-90165300D01*
X160474500Y-90195730D01*
X160474500Y-90527291D01*
X160471176Y-90538610D01*
X160472337Y-90550350D01*
X160461513Y-90571518D01*
X160454815Y-90594330D01*
X160445094Y-90603630D01*
X160440529Y-90612559D01*
X160413404Y-90633948D01*
X160412860Y-90634470D01*
X160412712Y-90634555D01*
X160404334Y-90639385D01*
X160404246Y-90639472D01*
X160404138Y-90639535D01*
X160404116Y-90639556D01*
X160404112Y-90639559D01*
X160373649Y-90670022D01*
X160181775Y-90861607D01*
X160120427Y-90895046D01*
X160092184Y-90896213D01*
X160092184Y-90897600D01*
X159925943Y-90897600D01*
X159773216Y-90938523D01*
X159773209Y-90938526D01*
X159636290Y-91017575D01*
X159636282Y-91017581D01*
X159524481Y-91129382D01*
X159524475Y-91129390D01*
X159445426Y-91266309D01*
X159445423Y-91266316D01*
X159404500Y-91419043D01*
X159404500Y-91577157D01*
X159427213Y-91661925D01*
X159447527Y-91737735D01*
X159445696Y-91738225D01*
X159452046Y-91797328D01*
X159420765Y-91859804D01*
X159360673Y-91895451D01*
X159330018Y-91899300D01*
X157778188Y-91899300D01*
X157711149Y-91879615D01*
X157690507Y-91862981D01*
X157114707Y-91287180D01*
X157081222Y-91225857D01*
X157086206Y-91156165D01*
X157128078Y-91100232D01*
X157193542Y-91075815D01*
X157202388Y-91075499D01*
X157804258Y-91075499D01*
X157804264Y-91075499D01*
X157834698Y-91072646D01*
X157962882Y-91027793D01*
X158072150Y-90947150D01*
X158152793Y-90837882D01*
X158197646Y-90709698D01*
X158200500Y-90679265D01*
X158200499Y-89320736D01*
X158197646Y-89290302D01*
X158152793Y-89162118D01*
X158072150Y-89052850D01*
X157962882Y-88972207D01*
X157962881Y-88972206D01*
X157834695Y-88927353D01*
X157834698Y-88927353D01*
X157804269Y-88924500D01*
X157804265Y-88924500D01*
X157737500Y-88924500D01*
X157670461Y-88904815D01*
X157624706Y-88852011D01*
X157613500Y-88800500D01*
X157613500Y-88249986D01*
X160175001Y-88249986D01*
X160185494Y-88352697D01*
X160240641Y-88519119D01*
X160240643Y-88519124D01*
X160332684Y-88668345D01*
X160456654Y-88792315D01*
X160605875Y-88884356D01*
X160605880Y-88884358D01*
X160772302Y-88939505D01*
X160772309Y-88939506D01*
X160875019Y-88949999D01*
X161087499Y-88949999D01*
X161587500Y-88949999D01*
X161799972Y-88949999D01*
X161799986Y-88949998D01*
X161902697Y-88939505D01*
X162069119Y-88884358D01*
X162069124Y-88884356D01*
X162218345Y-88792315D01*
X162342315Y-88668345D01*
X162434356Y-88519124D01*
X162434358Y-88519119D01*
X162489505Y-88352697D01*
X162489506Y-88352690D01*
X162499999Y-88249986D01*
X162500000Y-88249973D01*
X162500000Y-87800000D01*
X161587500Y-87800000D01*
X161587500Y-88949999D01*
X161087499Y-88949999D01*
X161087500Y-88949998D01*
X161087500Y-87800000D01*
X160175001Y-87800000D01*
X160175001Y-88249986D01*
X157613500Y-88249986D01*
X157613500Y-87399499D01*
X157633185Y-87332460D01*
X157685989Y-87286705D01*
X157737500Y-87275499D01*
X157804258Y-87275499D01*
X157804264Y-87275499D01*
X157834698Y-87272646D01*
X157962882Y-87227793D01*
X158072150Y-87147150D01*
X158152793Y-87037882D01*
X158197646Y-86909698D01*
X158200500Y-86879265D01*
X158200500Y-86850013D01*
X160175000Y-86850013D01*
X160175000Y-87300000D01*
X161087500Y-87300000D01*
X161587500Y-87300000D01*
X162499999Y-87300000D01*
X162499999Y-86850028D01*
X162499998Y-86850013D01*
X162489505Y-86747302D01*
X162434358Y-86580880D01*
X162434356Y-86580875D01*
X162342315Y-86431654D01*
X162218345Y-86307684D01*
X162069124Y-86215643D01*
X162069119Y-86215641D01*
X161902697Y-86160494D01*
X161902690Y-86160493D01*
X161799986Y-86150000D01*
X161587500Y-86150000D01*
X161587500Y-87300000D01*
X161087500Y-87300000D01*
X161087500Y-86150000D01*
X160875029Y-86150000D01*
X160875012Y-86150001D01*
X160772302Y-86160494D01*
X160605880Y-86215641D01*
X160605875Y-86215643D01*
X160456654Y-86307684D01*
X160332684Y-86431654D01*
X160240643Y-86580875D01*
X160240641Y-86580880D01*
X160185494Y-86747302D01*
X160185493Y-86747309D01*
X160175000Y-86850013D01*
X158200500Y-86850013D01*
X158200499Y-86197768D01*
X158200499Y-85520741D01*
X158200499Y-85520736D01*
X158197646Y-85490302D01*
X158152793Y-85362118D01*
X158072150Y-85252850D01*
X157991506Y-85193332D01*
X157962881Y-85172206D01*
X157834695Y-85127353D01*
X157834698Y-85127353D01*
X157804269Y-85124500D01*
X157804265Y-85124500D01*
X157637500Y-85124500D01*
X157570461Y-85104815D01*
X157524706Y-85052011D01*
X157513500Y-85000500D01*
X157513500Y-83499499D01*
X157533185Y-83432460D01*
X157585989Y-83386705D01*
X157637500Y-83375499D01*
X157704258Y-83375499D01*
X157704264Y-83375499D01*
X157734698Y-83372646D01*
X157862882Y-83327793D01*
X157972150Y-83247150D01*
X158052793Y-83137882D01*
X158097646Y-83009698D01*
X158100500Y-82979265D01*
X158100499Y-81722274D01*
X158120184Y-81655236D01*
X158172987Y-81609481D01*
X158242146Y-81599537D01*
X158305702Y-81628562D01*
X158312169Y-81634582D01*
X160101543Y-83423773D01*
X160101545Y-83423775D01*
X160101569Y-83423799D01*
X160101586Y-83423828D01*
X160130934Y-83453161D01*
X160438177Y-83760372D01*
X160471665Y-83821692D01*
X160474500Y-83848057D01*
X160474500Y-84904269D01*
X160477353Y-84934699D01*
X160477353Y-84934701D01*
X160518403Y-85052011D01*
X160522207Y-85062882D01*
X160602850Y-85172150D01*
X160712118Y-85252793D01*
X160754845Y-85267744D01*
X160840299Y-85297646D01*
X160870730Y-85300500D01*
X160870734Y-85300500D01*
X161804270Y-85300500D01*
X161834699Y-85297646D01*
X161834701Y-85297646D01*
X161898790Y-85275219D01*
X161962882Y-85252793D01*
X162072150Y-85172150D01*
X162152793Y-85062882D01*
X162175219Y-84998790D01*
X162197646Y-84934701D01*
X162197646Y-84934699D01*
X162200500Y-84904269D01*
X162200500Y-83495730D01*
X162197646Y-83465300D01*
X162197646Y-83465298D01*
X162164006Y-83369163D01*
X162152793Y-83337118D01*
X162072150Y-83227850D01*
X161962882Y-83147207D01*
X161962880Y-83147206D01*
X161834700Y-83102353D01*
X161804270Y-83099500D01*
X161804266Y-83099500D01*
X160870734Y-83099500D01*
X160870730Y-83099500D01*
X160840305Y-83102353D01*
X160840295Y-83102355D01*
X160810518Y-83112774D01*
X160793969Y-83113618D01*
X160778443Y-83119414D01*
X160759796Y-83115362D01*
X160740739Y-83116335D01*
X160725785Y-83107972D01*
X160710167Y-83104579D01*
X160681907Y-83083435D01*
X160592992Y-82994565D01*
X160592979Y-82994543D01*
X160592975Y-82994548D01*
X159148265Y-81549986D01*
X160175001Y-81549986D01*
X160185494Y-81652697D01*
X160240641Y-81819119D01*
X160240643Y-81819124D01*
X160332684Y-81968345D01*
X160456654Y-82092315D01*
X160605875Y-82184356D01*
X160605880Y-82184358D01*
X160772302Y-82239505D01*
X160772309Y-82239506D01*
X160875019Y-82249999D01*
X161087499Y-82249999D01*
X161587500Y-82249999D01*
X161799972Y-82249999D01*
X161799986Y-82249998D01*
X161902697Y-82239505D01*
X162069119Y-82184358D01*
X162069124Y-82184356D01*
X162218345Y-82092315D01*
X162342315Y-81968345D01*
X162434356Y-81819124D01*
X162434358Y-81819119D01*
X162489505Y-81652697D01*
X162489506Y-81652690D01*
X162499999Y-81549986D01*
X162500000Y-81549973D01*
X162500000Y-81100000D01*
X161587500Y-81100000D01*
X161587500Y-82249999D01*
X161087499Y-82249999D01*
X161087500Y-82249998D01*
X161087500Y-81100000D01*
X160175001Y-81100000D01*
X160175001Y-81549986D01*
X159148265Y-81549986D01*
X158119630Y-80521457D01*
X157795823Y-80197683D01*
X157762335Y-80136361D01*
X157759500Y-80109997D01*
X157759500Y-79326643D01*
X159445500Y-79326643D01*
X159445500Y-79484757D01*
X159485585Y-79634354D01*
X159486423Y-79637483D01*
X159486426Y-79637490D01*
X159565475Y-79774409D01*
X159565479Y-79774414D01*
X159565480Y-79774416D01*
X159677284Y-79886220D01*
X159677286Y-79886221D01*
X159677290Y-79886224D01*
X159759287Y-79933564D01*
X159814216Y-79965277D01*
X159966943Y-80006200D01*
X159966945Y-80006200D01*
X160052379Y-80006200D01*
X160119418Y-80025885D01*
X160165173Y-80078689D01*
X160175737Y-80142799D01*
X160175001Y-80150003D01*
X160175000Y-80150026D01*
X160175000Y-80600000D01*
X162499999Y-80600000D01*
X162499999Y-80150028D01*
X162499998Y-80150013D01*
X162489505Y-80047302D01*
X162438293Y-79892755D01*
X162437584Y-79872157D01*
X162432007Y-79852318D01*
X162436407Y-79837947D01*
X162435891Y-79822927D01*
X162446430Y-79805217D01*
X162452465Y-79785510D01*
X162463937Y-79775799D01*
X162471623Y-79762885D01*
X162490064Y-79753683D01*
X162505795Y-79740369D01*
X162528968Y-79733867D01*
X162528826Y-79733337D01*
X162528867Y-79733326D01*
X162529075Y-79733284D01*
X162533127Y-79732198D01*
X162534143Y-79731692D01*
X162536225Y-79731368D01*
X162536852Y-79731200D01*
X162536853Y-79731200D01*
X162572909Y-79721538D01*
X162572922Y-79721538D01*
X162572922Y-79721535D01*
X162596078Y-79715332D01*
X162619615Y-79709028D01*
X162619620Y-79709024D01*
X162619626Y-79709023D01*
X162619633Y-79709018D01*
X162619638Y-79709018D01*
X162653622Y-79689396D01*
X162653632Y-79689394D01*
X162653631Y-79689392D01*
X162673649Y-79677836D01*
X162693841Y-79666181D01*
X162693844Y-79666177D01*
X162693852Y-79666173D01*
X162693858Y-79666167D01*
X162693862Y-79666165D01*
X162725663Y-79634363D01*
X163760015Y-78600173D01*
X163821337Y-78566695D01*
X163888641Y-78570822D01*
X163965299Y-78597646D01*
X163995730Y-78600500D01*
X163995734Y-78600500D01*
X164929270Y-78600500D01*
X164959699Y-78597646D01*
X164959701Y-78597646D01*
X165023790Y-78575219D01*
X165087882Y-78552793D01*
X165197150Y-78472150D01*
X165277793Y-78362882D01*
X165319293Y-78244282D01*
X165322646Y-78234701D01*
X165322646Y-78234699D01*
X165325500Y-78204269D01*
X165325500Y-76795730D01*
X165322646Y-76765300D01*
X165322646Y-76765298D01*
X165277793Y-76637119D01*
X165277792Y-76637117D01*
X165266191Y-76621398D01*
X165197150Y-76527850D01*
X165087882Y-76447207D01*
X165087880Y-76447206D01*
X164959700Y-76402353D01*
X164929270Y-76399500D01*
X164929266Y-76399500D01*
X164849500Y-76399500D01*
X164782461Y-76379815D01*
X164736706Y-76327011D01*
X164725500Y-76275500D01*
X164725500Y-75724500D01*
X164745185Y-75657461D01*
X164797989Y-75611706D01*
X164849500Y-75600500D01*
X164866770Y-75600500D01*
X164897199Y-75597646D01*
X164897201Y-75597646D01*
X164967879Y-75572914D01*
X165025382Y-75552793D01*
X165134650Y-75472150D01*
X165215293Y-75362882D01*
X165256593Y-75244854D01*
X165260146Y-75234701D01*
X165260146Y-75234699D01*
X165263000Y-75204269D01*
X165263000Y-73795730D01*
X165260146Y-73765300D01*
X165260146Y-73765298D01*
X165224642Y-73663835D01*
X165215293Y-73637118D01*
X165134650Y-73527850D01*
X165025382Y-73447207D01*
X165025380Y-73447206D01*
X164897200Y-73402353D01*
X164866770Y-73399500D01*
X164866766Y-73399500D01*
X163933234Y-73399500D01*
X163933230Y-73399500D01*
X163902800Y-73402353D01*
X163902798Y-73402353D01*
X163774619Y-73447206D01*
X163774617Y-73447207D01*
X163665350Y-73527850D01*
X163584707Y-73637117D01*
X163584706Y-73637119D01*
X163539853Y-73765298D01*
X163539853Y-73765300D01*
X163537000Y-73795730D01*
X163537000Y-75204269D01*
X163539853Y-75234699D01*
X163539853Y-75234701D01*
X163582810Y-75357461D01*
X163584707Y-75362882D01*
X163665350Y-75472150D01*
X163774618Y-75552793D01*
X163803042Y-75562739D01*
X163902799Y-75597646D01*
X163933230Y-75600500D01*
X163933234Y-75600500D01*
X163950500Y-75600500D01*
X164017539Y-75620185D01*
X164063294Y-75672989D01*
X164074500Y-75724500D01*
X164074500Y-76279197D01*
X164054815Y-76346236D01*
X164002011Y-76391991D01*
X163972481Y-76399879D01*
X163972670Y-76400744D01*
X163965298Y-76402353D01*
X163837119Y-76447206D01*
X163837117Y-76447207D01*
X163727850Y-76527850D01*
X163647207Y-76637117D01*
X163647206Y-76637119D01*
X163602353Y-76765298D01*
X163602353Y-76765300D01*
X163599500Y-76795730D01*
X163599500Y-77788715D01*
X163579815Y-77855754D01*
X163563174Y-77876403D01*
X163274393Y-78165139D01*
X162424420Y-79014980D01*
X162395507Y-79043888D01*
X162334182Y-79077368D01*
X162307833Y-79080200D01*
X160620830Y-79080200D01*
X160553791Y-79060515D01*
X160533320Y-79041677D01*
X160532267Y-79042731D01*
X160414717Y-78925181D01*
X160414709Y-78925175D01*
X160277790Y-78846126D01*
X160277786Y-78846124D01*
X160277784Y-78846123D01*
X160125057Y-78805200D01*
X159966943Y-78805200D01*
X159814216Y-78846123D01*
X159814209Y-78846126D01*
X159677290Y-78925175D01*
X159677282Y-78925181D01*
X159565481Y-79036982D01*
X159565475Y-79036990D01*
X159486426Y-79173909D01*
X159486423Y-79173916D01*
X159445500Y-79326643D01*
X157759500Y-79326643D01*
X157759500Y-77025230D01*
X157779185Y-76958191D01*
X157798022Y-76937720D01*
X157796969Y-76936667D01*
X157802716Y-76930920D01*
X157914520Y-76819116D01*
X157993577Y-76682184D01*
X158034500Y-76529457D01*
X158034500Y-76371343D01*
X157993577Y-76218616D01*
X157962526Y-76164833D01*
X157914523Y-76081688D01*
X157914518Y-76081682D01*
X157802717Y-75969881D01*
X157802709Y-75969875D01*
X157665790Y-75890826D01*
X157665786Y-75890824D01*
X157665784Y-75890823D01*
X157513057Y-75849900D01*
X157354943Y-75849900D01*
X157202216Y-75890823D01*
X157202209Y-75890826D01*
X157065290Y-75969875D01*
X157065282Y-75969881D01*
X156953481Y-76081682D01*
X156953477Y-76081688D01*
X156874426Y-76218609D01*
X156874423Y-76218616D01*
X156833500Y-76371343D01*
X156833500Y-76529457D01*
X156872974Y-76676774D01*
X156874423Y-76682183D01*
X156874426Y-76682190D01*
X156953475Y-76819109D01*
X156953481Y-76819117D01*
X157071031Y-76936667D01*
X157068785Y-76938912D01*
X157101179Y-76983255D01*
X157108500Y-77025230D01*
X157108500Y-80253352D01*
X157108497Y-80253364D01*
X157108500Y-80302888D01*
X157108500Y-80339064D01*
X157114747Y-80362373D01*
X157118475Y-80376281D01*
X157118649Y-80376928D01*
X157118651Y-80376937D01*
X157130452Y-80420980D01*
X157130664Y-80421798D01*
X157130797Y-80422105D01*
X157131741Y-80423676D01*
X157150953Y-80456949D01*
X157150955Y-80456952D01*
X157173536Y-80496063D01*
X157173547Y-80496077D01*
X157198930Y-80521457D01*
X157239962Y-80562489D01*
X157239987Y-80562510D01*
X157393585Y-80716092D01*
X157690336Y-81012814D01*
X157723824Y-81074136D01*
X157718843Y-81143828D01*
X157676974Y-81199763D01*
X157611511Y-81224184D01*
X157602659Y-81224500D01*
X156670738Y-81224500D01*
X156639028Y-81227473D01*
X156570444Y-81214130D01*
X156539798Y-81191718D01*
X155388841Y-80041347D01*
X155355341Y-79980032D01*
X155352500Y-79953643D01*
X155352500Y-75436289D01*
X156444661Y-75436289D01*
X156444662Y-75436290D01*
X156450871Y-75440801D01*
X156605142Y-75519408D01*
X156769815Y-75572914D01*
X156940829Y-75600000D01*
X157113971Y-75600000D01*
X157284984Y-75572914D01*
X157449657Y-75519408D01*
X157603925Y-75440803D01*
X157610136Y-75436289D01*
X157610137Y-75436289D01*
X157027401Y-74853553D01*
X157027400Y-74853553D01*
X156444661Y-75436289D01*
X155352500Y-75436289D01*
X155352500Y-75424500D01*
X155372185Y-75357461D01*
X155424989Y-75311706D01*
X155476500Y-75300500D01*
X155647150Y-75300500D01*
X155647151Y-75300499D01*
X155661968Y-75297552D01*
X155705629Y-75288868D01*
X155705629Y-75288867D01*
X155705631Y-75288867D01*
X155708473Y-75286967D01*
X155710030Y-75285928D01*
X155771952Y-75244552D01*
X155780950Y-75231086D01*
X155816267Y-75178231D01*
X155816267Y-75178229D01*
X155816268Y-75178229D01*
X155827899Y-75119752D01*
X155827900Y-75119750D01*
X155827900Y-75085302D01*
X155847585Y-75018263D01*
X155900389Y-74972508D01*
X155969547Y-74962564D01*
X156033103Y-74991589D01*
X156062385Y-75029007D01*
X156086597Y-75076527D01*
X156091109Y-75082736D01*
X156091109Y-75082737D01*
X156673846Y-74500001D01*
X156673846Y-74499999D01*
X156091109Y-73917261D01*
X156091108Y-73917261D01*
X156086603Y-73923463D01*
X156086593Y-73923480D01*
X156062384Y-73970993D01*
X156014410Y-74021788D01*
X155946588Y-74038583D01*
X155880454Y-74016045D01*
X155837003Y-73961330D01*
X155827900Y-73914697D01*
X155827900Y-73880249D01*
X155827899Y-73880247D01*
X155816268Y-73821770D01*
X155816267Y-73821769D01*
X155771952Y-73755447D01*
X155705630Y-73711132D01*
X155705629Y-73711131D01*
X155647152Y-73699500D01*
X155647148Y-73699500D01*
X154407652Y-73699500D01*
X154407647Y-73699500D01*
X154349170Y-73711131D01*
X154349169Y-73711132D01*
X154282847Y-73755447D01*
X154238532Y-73821769D01*
X154238531Y-73821770D01*
X154226900Y-73880247D01*
X154226900Y-75119752D01*
X154238531Y-75178229D01*
X154238532Y-75178230D01*
X154282847Y-75244552D01*
X154349169Y-75288867D01*
X154349170Y-75288868D01*
X154407647Y-75300499D01*
X154407650Y-75300500D01*
X154407652Y-75300500D01*
X154577500Y-75300500D01*
X154644539Y-75320185D01*
X154690294Y-75372989D01*
X154701500Y-75424500D01*
X154701500Y-78098100D01*
X154681815Y-78165139D01*
X154629011Y-78210894D01*
X154577500Y-78222100D01*
X149535147Y-78222100D01*
X149452359Y-78244282D01*
X149378138Y-78287135D01*
X149378135Y-78287137D01*
X148978636Y-78686635D01*
X148917313Y-78720120D01*
X148873082Y-78721659D01*
X148858260Y-78719500D01*
X148491740Y-78719500D01*
X148491733Y-78719501D01*
X148490464Y-78719593D01*
X148490035Y-78719500D01*
X148487253Y-78719500D01*
X148487253Y-78718897D01*
X148422177Y-78704806D01*
X148372725Y-78655448D01*
X148357500Y-78595917D01*
X148357500Y-74427525D01*
X148357506Y-74384486D01*
X148357500Y-74384463D01*
X148357500Y-74384447D01*
X148347445Y-74346922D01*
X148347445Y-74346907D01*
X148347441Y-74346909D01*
X148347441Y-74346908D01*
X148335333Y-74301698D01*
X148335331Y-74301694D01*
X148335319Y-74301665D01*
X148335318Y-74301664D01*
X148335318Y-74301662D01*
X148313419Y-74263732D01*
X148292811Y-74228028D01*
X148292504Y-74227487D01*
X148292472Y-74227444D01*
X148258910Y-74193883D01*
X148258902Y-74193868D01*
X148258899Y-74193872D01*
X147729101Y-73663947D01*
X147695624Y-73602620D01*
X147700616Y-73532929D01*
X147702221Y-73528849D01*
X147732051Y-73456835D01*
X147767081Y-73280731D01*
X147770500Y-73263543D01*
X147770500Y-73066456D01*
X147732052Y-72873170D01*
X147732051Y-72873169D01*
X147732051Y-72873165D01*
X147725767Y-72857993D01*
X147656635Y-72691092D01*
X147656628Y-72691079D01*
X147547139Y-72527218D01*
X147547136Y-72527214D01*
X147537603Y-72517681D01*
X147504118Y-72456358D01*
X147509102Y-72386666D01*
X147550974Y-72330733D01*
X147616438Y-72306316D01*
X147625284Y-72306000D01*
X155725821Y-72306000D01*
X155792860Y-72325685D01*
X155813497Y-72342314D01*
X156329214Y-72857993D01*
X156723732Y-73252482D01*
X156757219Y-73313803D01*
X156752237Y-73383495D01*
X156710368Y-73439430D01*
X156674373Y-73458097D01*
X156605140Y-73480592D01*
X156450880Y-73559193D01*
X156450863Y-73559203D01*
X156444661Y-73563708D01*
X156444661Y-73563709D01*
X157086098Y-74205145D01*
X157066896Y-74200000D01*
X156987904Y-74200000D01*
X156911604Y-74220444D01*
X156843195Y-74259940D01*
X156787340Y-74315795D01*
X156747844Y-74384204D01*
X156727400Y-74460504D01*
X156727400Y-74539496D01*
X156747844Y-74615796D01*
X156787340Y-74684205D01*
X156843195Y-74740060D01*
X156911604Y-74779556D01*
X156987904Y-74800000D01*
X157066896Y-74800000D01*
X157143196Y-74779556D01*
X157211605Y-74740060D01*
X157267460Y-74684205D01*
X157306956Y-74615796D01*
X157327400Y-74539496D01*
X157327400Y-74460504D01*
X157322254Y-74441300D01*
X157963689Y-75082736D01*
X157968203Y-75076525D01*
X158046809Y-74922253D01*
X158069330Y-74852942D01*
X158108767Y-74795266D01*
X158173125Y-74768067D01*
X158241972Y-74779981D01*
X158274939Y-74803574D01*
X160438180Y-76966654D01*
X160471665Y-77027973D01*
X160474500Y-77054336D01*
X160474500Y-78204269D01*
X160477353Y-78234699D01*
X160477353Y-78234701D01*
X160522206Y-78362880D01*
X160522207Y-78362882D01*
X160602850Y-78472150D01*
X160712118Y-78552793D01*
X160724427Y-78557100D01*
X160840299Y-78597646D01*
X160870730Y-78600500D01*
X160870734Y-78600500D01*
X161804270Y-78600500D01*
X161834699Y-78597646D01*
X161834701Y-78597646D01*
X161898790Y-78575219D01*
X161962882Y-78552793D01*
X162072150Y-78472150D01*
X162152793Y-78362882D01*
X162194293Y-78244282D01*
X162197646Y-78234701D01*
X162197646Y-78234699D01*
X162200500Y-78204269D01*
X162200500Y-76795730D01*
X162197646Y-76765300D01*
X162197646Y-76765298D01*
X162152793Y-76637119D01*
X162152792Y-76637117D01*
X162141191Y-76621398D01*
X162072150Y-76527850D01*
X161962882Y-76447207D01*
X161962880Y-76447206D01*
X161834700Y-76402353D01*
X161804270Y-76399500D01*
X161804266Y-76399500D01*
X160870734Y-76399500D01*
X160870733Y-76399500D01*
X160856478Y-76400836D01*
X160787894Y-76387493D01*
X160757229Y-76365062D01*
X160750769Y-76358602D01*
X160439420Y-76047277D01*
X160405935Y-75985957D01*
X160410917Y-75916265D01*
X160452786Y-75860330D01*
X160518249Y-75835910D01*
X160566104Y-75841888D01*
X160709802Y-75889505D01*
X160709809Y-75889506D01*
X160812519Y-75899999D01*
X161024999Y-75899999D01*
X161525000Y-75899999D01*
X161737472Y-75899999D01*
X161737486Y-75899998D01*
X161840197Y-75889505D01*
X162006619Y-75834358D01*
X162006624Y-75834356D01*
X162155845Y-75742315D01*
X162279815Y-75618345D01*
X162371856Y-75469124D01*
X162371858Y-75469119D01*
X162427005Y-75302697D01*
X162427006Y-75302690D01*
X162437499Y-75199986D01*
X162437500Y-75199973D01*
X162437500Y-74750000D01*
X161525000Y-74750000D01*
X161525000Y-75899999D01*
X161024999Y-75899999D01*
X161025000Y-75899998D01*
X161025000Y-74750000D01*
X160112501Y-74750000D01*
X160112501Y-75199986D01*
X160122994Y-75302697D01*
X160170629Y-75446448D01*
X160173031Y-75516276D01*
X160137299Y-75576318D01*
X160074779Y-75607511D01*
X160005320Y-75599951D01*
X159965245Y-75573136D01*
X158276532Y-73884548D01*
X158191991Y-73800013D01*
X160112500Y-73800013D01*
X160112500Y-74250000D01*
X161025000Y-74250000D01*
X161525000Y-74250000D01*
X162437499Y-74250000D01*
X162437499Y-73800028D01*
X162437498Y-73800013D01*
X162427005Y-73697302D01*
X162371858Y-73530880D01*
X162371856Y-73530875D01*
X162279815Y-73381654D01*
X162155845Y-73257684D01*
X162006624Y-73165643D01*
X162006619Y-73165641D01*
X161840197Y-73110494D01*
X161840190Y-73110493D01*
X161737486Y-73100000D01*
X161525000Y-73100000D01*
X161525000Y-74250000D01*
X161025000Y-74250000D01*
X161025000Y-73100000D01*
X160812529Y-73100000D01*
X160812512Y-73100001D01*
X160709802Y-73110494D01*
X160543380Y-73165641D01*
X160543375Y-73165643D01*
X160394154Y-73257684D01*
X160270184Y-73381654D01*
X160178143Y-73530875D01*
X160178141Y-73530880D01*
X160122994Y-73697302D01*
X160122993Y-73697309D01*
X160112500Y-73800013D01*
X158191991Y-73800013D01*
X156152493Y-71760666D01*
X156152492Y-71760665D01*
X156111862Y-71720035D01*
X156111856Y-71720031D01*
X156111855Y-71720030D01*
X156081506Y-71702509D01*
X156081503Y-71702507D01*
X156037640Y-71677182D01*
X156037632Y-71677179D01*
X155994517Y-71665628D01*
X155994513Y-71665627D01*
X155955768Y-71655245D01*
X155954893Y-71655002D01*
X155954859Y-71654998D01*
X155954841Y-71654998D01*
X155897704Y-71655000D01*
X145456818Y-71655000D01*
X145456784Y-71654991D01*
X145413931Y-71655000D01*
X145371131Y-71655000D01*
X145371088Y-71655006D01*
X145329891Y-71666053D01*
X145329873Y-71666058D01*
X145288353Y-71677184D01*
X145288310Y-71677201D01*
X145252435Y-71697924D01*
X145252413Y-71697936D01*
X145214136Y-71720035D01*
X145214096Y-71720064D01*
X145185649Y-71748523D01*
X145185636Y-71748536D01*
X145148132Y-71786041D01*
X145148025Y-71786163D01*
X144728635Y-72205728D01*
X144667318Y-72239226D01*
X144597626Y-72234256D01*
X144593483Y-72232626D01*
X144521836Y-72202949D01*
X144521828Y-72202947D01*
X144328543Y-72164500D01*
X144328541Y-72164500D01*
X144131459Y-72164500D01*
X144131457Y-72164500D01*
X143938170Y-72202947D01*
X143938160Y-72202950D01*
X143756092Y-72278364D01*
X143756079Y-72278371D01*
X143592218Y-72387860D01*
X143592214Y-72387863D01*
X143452863Y-72527214D01*
X143452860Y-72527218D01*
X143343371Y-72691079D01*
X143343364Y-72691092D01*
X143267950Y-72873160D01*
X143267947Y-72873170D01*
X143229500Y-73066456D01*
X143229500Y-73066459D01*
X143229500Y-73263541D01*
X143229500Y-73263543D01*
X143229499Y-73263543D01*
X143267947Y-73456829D01*
X143267950Y-73456839D01*
X143343364Y-73638907D01*
X143343371Y-73638920D01*
X143452860Y-73802781D01*
X143452863Y-73802785D01*
X143592214Y-73942136D01*
X143592218Y-73942139D01*
X143756079Y-74051628D01*
X143756092Y-74051635D01*
X143934775Y-74125647D01*
X143938165Y-74127051D01*
X143938169Y-74127051D01*
X143938170Y-74127052D01*
X144131456Y-74165500D01*
X144131459Y-74165500D01*
X144328543Y-74165500D01*
X144458582Y-74139632D01*
X144521835Y-74127051D01*
X144593705Y-74097281D01*
X144663169Y-74089813D01*
X144725649Y-74121087D01*
X144728835Y-74124162D01*
X145138181Y-74533508D01*
X145171666Y-74594831D01*
X145174500Y-74621189D01*
X145174500Y-74935216D01*
X145154815Y-75002255D01*
X145102011Y-75048010D01*
X145032853Y-75057954D01*
X144969297Y-75028929D01*
X144962819Y-75022897D01*
X144867785Y-74927863D01*
X144867781Y-74927860D01*
X144703920Y-74818371D01*
X144703907Y-74818364D01*
X144521839Y-74742950D01*
X144521829Y-74742947D01*
X144328543Y-74704500D01*
X144328541Y-74704500D01*
X144131459Y-74704500D01*
X144131457Y-74704500D01*
X143938166Y-74742948D01*
X143938159Y-74742950D01*
X143866341Y-74772698D01*
X143796872Y-74780167D01*
X143734393Y-74748891D01*
X143731204Y-74745814D01*
X143343318Y-74357894D01*
X143343318Y-74357895D01*
X143337469Y-74352045D01*
X143337465Y-74352038D01*
X143294788Y-74309361D01*
X143276873Y-74291444D01*
X143276870Y-74291442D01*
X143276867Y-74291439D01*
X143276859Y-74291433D01*
X143235321Y-74267450D01*
X143235319Y-74267449D01*
X143202656Y-74248589D01*
X143202635Y-74248581D01*
X143156110Y-74236114D01*
X143156108Y-74236114D01*
X143119864Y-74226401D01*
X143119860Y-74226401D01*
X143119860Y-74226400D01*
X143119853Y-74226400D01*
X143077014Y-74226400D01*
X143034161Y-74226398D01*
X143034154Y-74226400D01*
X142311129Y-74226400D01*
X142244090Y-74206715D01*
X142198335Y-74153911D01*
X142188391Y-74084753D01*
X142217416Y-74021197D01*
X142242238Y-73999298D01*
X142284599Y-73970993D01*
X142327782Y-73942139D01*
X142467139Y-73802782D01*
X142576632Y-73638914D01*
X142652051Y-73456835D01*
X142687081Y-73280731D01*
X142690500Y-73263543D01*
X142690500Y-73066456D01*
X142652052Y-72873170D01*
X142652051Y-72873169D01*
X142652051Y-72873165D01*
X142645767Y-72857993D01*
X142576635Y-72691092D01*
X142576628Y-72691079D01*
X142467139Y-72527218D01*
X142467136Y-72527214D01*
X142327785Y-72387863D01*
X142327781Y-72387860D01*
X142163920Y-72278371D01*
X142163907Y-72278364D01*
X141981839Y-72202950D01*
X141981829Y-72202947D01*
X141788543Y-72164500D01*
X141788541Y-72164500D01*
X141591459Y-72164500D01*
X141591457Y-72164500D01*
X141398170Y-72202947D01*
X141398160Y-72202950D01*
X141216092Y-72278364D01*
X141216079Y-72278371D01*
X141052218Y-72387860D01*
X141052214Y-72387863D01*
X140912863Y-72527214D01*
X140912860Y-72527218D01*
X140803371Y-72691079D01*
X140803364Y-72691092D01*
X140727950Y-72873160D01*
X140727947Y-72873170D01*
X140691965Y-73054062D01*
X140659580Y-73115973D01*
X140598864Y-73150547D01*
X140529094Y-73146806D01*
X140472423Y-73105940D01*
X140447875Y-73049268D01*
X140417990Y-72860582D01*
X140354753Y-72665964D01*
X140261859Y-72483650D01*
X140229474Y-72439077D01*
X140229474Y-72439076D01*
X139632962Y-73035589D01*
X139615925Y-72972007D01*
X139550099Y-72857993D01*
X139457007Y-72764901D01*
X139342993Y-72699075D01*
X139279408Y-72682037D01*
X139875922Y-72085524D01*
X139875921Y-72085523D01*
X139831359Y-72053147D01*
X139831350Y-72053141D01*
X139649031Y-71960244D01*
X139454417Y-71897009D01*
X139252317Y-71865000D01*
X139047683Y-71865000D01*
X138845582Y-71897009D01*
X138650968Y-71960244D01*
X138468644Y-72053143D01*
X138424077Y-72085523D01*
X138424077Y-72085524D01*
X139020591Y-72682037D01*
X138957007Y-72699075D01*
X138842993Y-72764901D01*
X138749901Y-72857993D01*
X138684075Y-72972007D01*
X138667037Y-73035590D01*
X138070524Y-72439077D01*
X138070523Y-72439077D01*
X138038143Y-72483644D01*
X137945247Y-72665964D01*
X137882009Y-72860582D01*
X137850000Y-73062682D01*
X137850000Y-73267317D01*
X137882009Y-73469417D01*
X137945244Y-73664031D01*
X138038141Y-73846350D01*
X138038147Y-73846359D01*
X138070523Y-73890921D01*
X138070524Y-73890922D01*
X138667037Y-73294409D01*
X138684075Y-73357993D01*
X138749901Y-73472007D01*
X138842993Y-73565099D01*
X138957007Y-73630925D01*
X139020590Y-73647962D01*
X138424076Y-74244474D01*
X138468650Y-74276859D01*
X138650968Y-74369755D01*
X138845582Y-74432990D01*
X139034268Y-74462875D01*
X139097403Y-74492804D01*
X139134334Y-74552116D01*
X139133336Y-74621978D01*
X139094726Y-74680211D01*
X139039062Y-74706965D01*
X138858170Y-74742947D01*
X138858160Y-74742950D01*
X138676092Y-74818364D01*
X138676079Y-74818371D01*
X138512218Y-74927860D01*
X138512214Y-74927863D01*
X138372863Y-75067214D01*
X138372860Y-75067218D01*
X138263371Y-75231079D01*
X138263364Y-75231092D01*
X138187950Y-75413160D01*
X138187947Y-75413170D01*
X138149500Y-75606456D01*
X138149500Y-75606459D01*
X138149500Y-75803541D01*
X138149500Y-75803543D01*
X138149499Y-75803543D01*
X138187947Y-75996829D01*
X138187949Y-75996835D01*
X138263364Y-76178907D01*
X138263371Y-76178920D01*
X138372860Y-76342781D01*
X138372863Y-76342785D01*
X138512217Y-76482139D01*
X138631391Y-76561768D01*
X138676196Y-76615380D01*
X138686500Y-76664870D01*
X138686500Y-109994184D01*
X138686490Y-109994222D01*
X138686500Y-110037075D01*
X138686500Y-110079890D01*
X138686509Y-110079927D01*
X138686510Y-110079928D01*
X138697677Y-110121566D01*
X138708682Y-110162638D01*
X138708700Y-110162670D01*
X138708711Y-110162709D01*
X138708873Y-110162989D01*
X138708874Y-110162993D01*
X138730647Y-110200684D01*
X138730726Y-110200820D01*
X138751535Y-110236862D01*
X138751561Y-110236888D01*
X138751581Y-110236922D01*
X138751724Y-110237065D01*
X138751725Y-110237066D01*
X138781889Y-110267216D01*
X138817820Y-110303147D01*
X138817951Y-110303261D01*
X140815163Y-112299550D01*
X140848660Y-112360863D01*
X140851500Y-112387249D01*
X140851500Y-114073540D01*
X140831815Y-114140579D01*
X140779011Y-114186334D01*
X140709853Y-114196278D01*
X140658610Y-114176643D01*
X140504304Y-114073540D01*
X140497598Y-114069059D01*
X140483873Y-114063374D01*
X140306420Y-113989870D01*
X140306412Y-113989868D01*
X140103469Y-113949500D01*
X140103465Y-113949500D01*
X139896535Y-113949500D01*
X139896530Y-113949500D01*
X139693587Y-113989868D01*
X139693579Y-113989870D01*
X139502403Y-114069058D01*
X139330342Y-114184024D01*
X139184024Y-114330342D01*
X139069058Y-114502403D01*
X138989870Y-114693579D01*
X138989868Y-114693587D01*
X138949500Y-114896530D01*
X138949500Y-115103469D01*
X138989868Y-115306412D01*
X138989870Y-115306420D01*
X139069058Y-115497596D01*
X139184024Y-115669657D01*
X139330342Y-115815975D01*
X139330345Y-115815977D01*
X139502402Y-115930941D01*
X139514628Y-115936005D01*
X139551888Y-115951439D01*
X139606291Y-115995280D01*
X139628356Y-116061574D01*
X139611077Y-116129274D01*
X139559939Y-116176884D01*
X139504435Y-116190000D01*
X139102155Y-116190000D01*
X139042627Y-116196401D01*
X139042620Y-116196403D01*
X138907913Y-116246645D01*
X138907906Y-116246649D01*
X138792812Y-116332809D01*
X138792809Y-116332812D01*
X138706649Y-116447906D01*
X138706645Y-116447913D01*
X138656403Y-116582620D01*
X138656401Y-116582627D01*
X138650000Y-116642155D01*
X138650000Y-117290000D01*
X139566988Y-117290000D01*
X139534075Y-117347007D01*
X139500000Y-117474174D01*
X139500000Y-117605826D01*
X139534075Y-117732993D01*
X139566988Y-117790000D01*
X138650000Y-117790000D01*
X138650000Y-118437844D01*
X138656401Y-118497372D01*
X138656403Y-118497379D01*
X138706645Y-118632086D01*
X138706649Y-118632093D01*
X138792809Y-118747187D01*
X138792812Y-118747190D01*
X138907906Y-118833350D01*
X138907913Y-118833354D01*
X139042620Y-118883596D01*
X139042627Y-118883598D01*
X139102155Y-118889999D01*
X139102172Y-118890000D01*
X139750000Y-118890000D01*
X139750000Y-117973012D01*
X139807007Y-118005925D01*
X139934174Y-118040000D01*
X140065826Y-118040000D01*
X140192993Y-118005925D01*
X140250000Y-117973012D01*
X140250000Y-118890000D01*
X140727500Y-118890000D01*
X140794539Y-118909685D01*
X140840294Y-118962489D01*
X140851500Y-119014000D01*
X140851500Y-139781970D01*
X140851496Y-139824823D01*
X140851500Y-139824837D01*
X140851500Y-139824853D01*
X140852399Y-139828211D01*
X140852400Y-139828215D01*
X140862968Y-139867652D01*
X140862969Y-139867664D01*
X140862971Y-139867664D01*
X140873672Y-139907618D01*
X140873679Y-139907634D01*
X140886667Y-139930130D01*
X140896178Y-139946602D01*
X140896182Y-139946616D01*
X140896185Y-139946615D01*
X140916514Y-139981834D01*
X140916539Y-139981867D01*
X140949783Y-140015110D01*
X140949792Y-140015119D01*
X144979787Y-144045841D01*
X145013267Y-144107167D01*
X145008276Y-144176858D01*
X144966399Y-144232788D01*
X144900933Y-144257199D01*
X144835803Y-144243999D01*
X144666937Y-144157957D01*
X144478022Y-144096575D01*
X144281821Y-144065500D01*
X144083179Y-144065500D01*
X143886979Y-144096575D01*
X143886976Y-144096575D01*
X143698062Y-144157957D01*
X143521064Y-144248143D01*
X143483783Y-144275229D01*
X143483782Y-144275230D01*
X144053090Y-144844537D01*
X143989507Y-144861575D01*
X143875493Y-144927401D01*
X143782401Y-145020493D01*
X143716575Y-145134507D01*
X143699537Y-145198090D01*
X143130230Y-144628782D01*
X143130229Y-144628783D01*
X143103143Y-144666064D01*
X143012957Y-144843062D01*
X142951575Y-145031976D01*
X142951575Y-145031979D01*
X142920500Y-145228178D01*
X142920500Y-145426821D01*
X142951575Y-145623020D01*
X142951575Y-145623023D01*
X143012957Y-145811937D01*
X143092071Y-145967205D01*
X143104967Y-146035874D01*
X143078691Y-146100614D01*
X143021585Y-146140872D01*
X142981586Y-146147500D01*
X142482876Y-146147500D01*
X142415837Y-146127815D01*
X142370082Y-146075011D01*
X142360138Y-146005853D01*
X142387021Y-145944837D01*
X142390117Y-145941062D01*
X142390122Y-145941058D01*
X142495456Y-145783415D01*
X142568012Y-145608251D01*
X142605000Y-145422298D01*
X142605000Y-145232702D01*
X142568012Y-145046749D01*
X142495456Y-144871585D01*
X142426183Y-144767911D01*
X142390122Y-144713941D01*
X142256058Y-144579877D01*
X142098412Y-144474542D01*
X141923251Y-144401988D01*
X141923243Y-144401986D01*
X141737302Y-144365000D01*
X141737298Y-144365000D01*
X141547702Y-144365000D01*
X141547697Y-144365000D01*
X141361756Y-144401985D01*
X141361748Y-144401988D01*
X141307878Y-144424301D01*
X141238409Y-144431768D01*
X141175930Y-144400492D01*
X141172747Y-144397420D01*
X140667864Y-143892537D01*
X140667862Y-143892535D01*
X140630750Y-143871108D01*
X140593640Y-143849682D01*
X140552246Y-143838591D01*
X140510853Y-143827500D01*
X138762853Y-143827500D01*
X138677147Y-143827500D01*
X138594359Y-143849682D01*
X138520138Y-143892535D01*
X138520135Y-143892537D01*
X137751537Y-144661135D01*
X137751533Y-144661141D01*
X137708681Y-144735361D01*
X137708682Y-144735362D01*
X137686500Y-144818147D01*
X137185500Y-144818147D01*
X137185500Y-69212618D01*
X137936558Y-69212618D01*
X137936558Y-69411499D01*
X137967668Y-69607917D01*
X137967668Y-69607920D01*
X138029120Y-69797049D01*
X138029122Y-69797052D01*
X138119407Y-69974247D01*
X138236300Y-70135136D01*
X138376923Y-70275759D01*
X138537812Y-70392652D01*
X138618525Y-70433777D01*
X138715009Y-70482938D01*
X138831423Y-70520763D01*
X138904143Y-70544391D01*
X138982430Y-70556790D01*
X139100560Y-70575501D01*
X139100565Y-70575501D01*
X139299440Y-70575501D01*
X139394661Y-70560418D01*
X139495857Y-70544391D01*
X139495860Y-70544390D01*
X139495861Y-70544390D01*
X139684990Y-70482938D01*
X139684990Y-70482937D01*
X139684993Y-70482937D01*
X139862188Y-70392652D01*
X140023077Y-70275759D01*
X140163700Y-70135136D01*
X140280593Y-69974247D01*
X140370878Y-69797052D01*
X140432332Y-69607916D01*
X140450196Y-69495127D01*
X140463442Y-69411499D01*
X140463442Y-69300559D01*
X174524499Y-69300559D01*
X174524499Y-69499440D01*
X174555609Y-69695858D01*
X174555609Y-69695861D01*
X174617061Y-69884990D01*
X174617063Y-69884993D01*
X174707348Y-70062188D01*
X174824241Y-70223077D01*
X174964864Y-70363700D01*
X175125753Y-70480593D01*
X175250962Y-70544390D01*
X175302950Y-70570879D01*
X175327766Y-70578942D01*
X175492084Y-70632332D01*
X175570371Y-70644731D01*
X175688501Y-70663442D01*
X175688506Y-70663442D01*
X175887381Y-70663442D01*
X175982602Y-70648359D01*
X176083798Y-70632332D01*
X176083801Y-70632331D01*
X176083802Y-70632331D01*
X176272931Y-70570879D01*
X176272931Y-70570878D01*
X176272934Y-70570878D01*
X176450129Y-70480593D01*
X176611018Y-70363700D01*
X176751641Y-70223077D01*
X176868534Y-70062188D01*
X176958819Y-69884993D01*
X177020273Y-69695857D01*
X177036300Y-69594661D01*
X177051383Y-69499440D01*
X177051383Y-69300559D01*
X177022303Y-69116961D01*
X177020273Y-69104143D01*
X177020272Y-69104139D01*
X177020272Y-69104138D01*
X176958820Y-68915009D01*
X176914011Y-68827066D01*
X176868534Y-68737812D01*
X176751641Y-68576923D01*
X176611018Y-68436300D01*
X176450129Y-68319407D01*
X176372494Y-68279850D01*
X176272931Y-68229120D01*
X176083800Y-68167668D01*
X175887381Y-68136558D01*
X175887376Y-68136558D01*
X175688506Y-68136558D01*
X175688501Y-68136558D01*
X175492082Y-68167668D01*
X175492079Y-68167668D01*
X175302950Y-68229120D01*
X175125752Y-68319407D01*
X175085904Y-68348359D01*
X174964864Y-68436300D01*
X174964862Y-68436302D01*
X174964861Y-68436302D01*
X174824243Y-68576920D01*
X174824243Y-68576921D01*
X174824241Y-68576923D01*
X174798333Y-68612582D01*
X174707348Y-68737811D01*
X174617061Y-68915009D01*
X174555609Y-69104138D01*
X174555609Y-69104141D01*
X174524499Y-69300559D01*
X140463442Y-69300559D01*
X140463442Y-69212618D01*
X140434362Y-69029020D01*
X140432332Y-69016202D01*
X140432331Y-69016198D01*
X140432331Y-69016197D01*
X140370879Y-68827068D01*
X140325400Y-68737811D01*
X140280593Y-68649871D01*
X140163700Y-68488982D01*
X140023077Y-68348359D01*
X139862188Y-68231466D01*
X139783350Y-68191296D01*
X139684990Y-68141179D01*
X139495859Y-68079727D01*
X139299440Y-68048617D01*
X139299435Y-68048617D01*
X139100565Y-68048617D01*
X139100560Y-68048617D01*
X138904141Y-68079727D01*
X138904138Y-68079727D01*
X138715009Y-68141179D01*
X138537811Y-68231466D01*
X138473375Y-68278282D01*
X138376923Y-68348359D01*
X138376921Y-68348361D01*
X138376920Y-68348361D01*
X138236302Y-68488979D01*
X138236302Y-68488980D01*
X138236300Y-68488982D01*
X138210392Y-68524641D01*
X138119407Y-68649870D01*
X138029120Y-68827068D01*
X137967668Y-69016197D01*
X137967668Y-69016200D01*
X137936558Y-69212618D01*
X137185500Y-69212618D01*
X137185500Y-67449500D01*
X137205185Y-67382461D01*
X137257989Y-67336706D01*
X137309500Y-67325500D01*
X177650500Y-67325500D01*
X177717539Y-67345185D01*
G37*
%TD.AperFunction*%
%TD*%
M02*
